<?xml version="1.0" encoding="UTF-8"?>
<svg width="85px" height="80px" viewBox="0 0 85 80" version="1.1" xmlns="http://www.w3.org/2000/svg" xmlns:xlink="http://www.w3.org/1999/xlink">
    <!-- Generator: Sketch 47.1 (45422) - http://www.bohemiancoding.com/sketch -->
    <title>“@1x</title>
    <desc>Created with Sketch.</desc>
    <defs></defs>
    <g id="Page-1" stroke="none" stroke-width="1" fill="none" fill-rule="evenodd">
        <g id="DG_Home_Blue" transform="translate(-132.000000, -3128.000000)" fill="#DFEAFB">
            <g id="Testimonials-and-Clients" transform="translate(0.000000, 3003.000000)">
                <g id="testimonials" transform="translate(132.000000, 125.000000)">
                    <path d="M32.706334,14.4337812 C25.6429589,15.764562 20.6781973,20.8828729 17.8119002,29.7888676 C16.3787516,34.190681 15.6621881,38.5412453 15.6621881,42.840691 C15.6621881,43.3525298 15.6877797,43.7875862 15.7389635,44.1458733 C15.7901474,44.5041605 15.8669221,45.2974987 15.9692898,46.5259117 L32.706334,46.5259117 L32.706334,80 L0,80 L0,49.1362764 C0,33.9858488 3.01980345,22.3160998 9.05950096,14.1266795 C15.0991985,5.93725912 22.9813973,1.22841305 32.706334,0 L32.706334,14.4337812 Z M84.452975,14.4337812 C78.8227486,15.355091 74.5489589,18.5284438 71.6314779,23.9539347 C68.7139969,29.3794257 67.2552783,35.6237651 67.2552783,42.6871401 C67.2552783,43.3013466 67.2808699,43.915544 67.3320537,44.5297505 C67.3832376,45.143957 67.5111954,45.8093374 67.7159309,46.5259117 L84.452975,46.5259117 L84.452975,80 L51.5930902,80 L51.5930902,49.1362764 C51.5930902,36.9545136 54.1522457,26.0781029 59.2706334,16.5067179 C64.3890211,6.93533282 72.7830511,1.43314856 84.452975,0 L84.452975,14.4337812 Z" id="“"></path>
                </g>
            </g>
        </g>
    </g>
</svg>