<?xml version="1.0" encoding="UTF-8"?>
<svg width="151px" height="147px" viewBox="0 0 151 147" version="1.1" xmlns="http://www.w3.org/2000/svg" xmlns:xlink="http://www.w3.org/1999/xlink">
    <!-- Generator: sketchtool 54.1 (76490) - https://sketchapp.com -->
    <title>4B274607-556B-4A45-8263-ABAF0120B409</title>
    <desc>Created with sketchtool.</desc>
    <defs>
        <linearGradient x1="118.212891%" y1="118.955282%" x2="3.48958333%" y2="9.23145768%" id="linearGradient-1">
            <stop stop-color="#711BB6" offset="0%"></stop>
            <stop stop-color="#4B45EB" offset="100%"></stop>
        </linearGradient>
        <rect id="path-2" x="0" y="0" width="150" height="147" rx="12"></rect>
    </defs>
    <g id="Page-1" stroke="none" stroke-width="1" fill="none" fill-rule="evenodd">
        <g id="Campaigns_Recepients" transform="translate(-124.000000, -144.000000)">
            <g id="profile-copy-3" transform="translate(104.000000, 124.000000)">
                <g id="Profile-info" transform="translate(20.500000, 20.000000)">
                    <g id="Campaign-Placeholder">
                        <g>
                            <mask id="mask-3" fill="white">
                                <use xlink:href="#path-2"></use>
                            </mask>
                            <g id="main_pic-copy" fill-rule="nonzero">
                                <use fill="url(#linearGradient-1)" xlink:href="#path-2"></use>
                                <use fill="#BDD3FF" xlink:href="#path-2"></use>
                            </g>
                            <path d="M62.8735984,84.5498749 L62.7533129,84.5498749 L62.7533129,88.776674 L51.5667686,88.776674 L56.3,112.736842 C57.0217125,115.78953 62.7682593,112.052506 65.8807339,114.489702 C67.955717,116.114499 68.5571441,118.501858 67.6850153,121.651778 C68.0458716,122.825889 67.0835882,124 65.7604485,124 L60.3476045,124 L47.2364934,124 L46.0336391,124 C44.9510703,124 44.1090724,123.295533 43.8685015,122.356245 L35.5688073,88.776674 L32.6819572,88.776674 C26.667686,88.776674 21.8562691,84.0802306 21.8562691,78.2096763 L21.8562691,74.1002882 L18.6085627,74.1002882 C16.6839959,74.1002882 15,72.5739441 15,70.5779556 L15,57.3105029 C15,55.4319255 16.5637105,53.7881703 18.6085627,53.7881703 L21.9765545,53.7881703 L21.9765545,49.0917268 C21.9765545,43.2211725 26.7879715,38.524729 32.8022426,38.524729 L62.8735984,38.524729 L62.8735984,42.9863503 C75.9847095,40.8729507 97.8766565,35.4720408 113.03262,21.3827104 C113.152905,18.7996665 115.558614,16.6862669 118.325178,17.0385002 C120.730887,17.3907334 122.535168,19.6215441 122.535168,21.9697658 L122.535168,48.9743157 C128.669725,51.2051264 133,56.9582696 133,63.6507015 C133,70.3431335 128.669725,76.0962767 122.535168,78.3270873 L122.535168,105.566459 C122.535168,108.032092 120.730887,110.262903 118.325178,110.497725 C115.558614,110.849958 113.152905,108.736559 113.03262,106.153515 C97.8766565,92.0641845 76.1049949,86.6632745 62.8735984,84.5498749 Z M51.4464832,77.7400319 L51.4464832,49.7961933 L33.4036697,49.7961933 L33.4036697,77.7400319 L51.4464832,77.7400319 Z M110,34 C109.447715,34 109,34.4477153 109,35 L109,95 C109,95.5522847 109.447715,96 110,96 L114,96 C114.552285,96 115,95.5522847 115,95 L115,35 C115,34.4477153 114.552285,34 114,34 L110,34 Z" id="Combined-Shape-Copy" fill="#FFFFFF" fill-rule="nonzero" opacity="0.300000012" mask="url(#mask-3)"></path>
                            <path d="M145.949831,147 L5.05016921,147 C5.79719448,136.083853 14.8038784,127.18159 26.5077902,125.305664 C30.0425298,106.401191 48.293835,92 70.2777778,92 C92.3462488,92 110.653323,106.512149 114.087885,125.523926 C115.953577,125.142539 117.895137,124.941176 119.888889,124.941176 C133.761568,124.941176 145.107427,134.690103 145.949831,147 Z" id="Combined-Shape" fill="#99BBFF" fill-rule="nonzero" mask="url(#mask-3)"></path>
                            <g id="ic_marketing" mask="url(#mask-3)">
                                <g transform="translate(54.500000, 54.000000)">
                                    <g>
                                        <rect id="Rectangle" fill="#000000" fill-rule="nonzero" opacity="0" x="0" y="0" width="42" height="40"></rect>
                                        <path d="M17.0397554,25.9896752 L16.9969419,25.9896752 L16.9969419,27.4907814 L13.0152905,27.4907814 L14.7,36 C14.9568807,37.0841323 17.0022618,35.7569648 18.1100917,36.622511 C18.848645,37.1995418 19.0627123,38.0473888 18.7522936,39.1660521 C18.8807339,39.583026 18.5382263,40 18.0672783,40 L16.1406728,40 L11.4740061,40 L11.0458716,40 C10.6605505,40 10.3608563,39.7498156 10.2752294,39.4162365 L7.32110092,27.4907814 L6.29357798,27.4907814 C4.1529052,27.4907814 2.44036697,25.8228856 2.44036697,23.7380159 L2.44036697,22.278607 L1.28440367,22.278607 C0.599388379,22.278607 0,21.7365409 0,21.0276852 L0,16.3158795 C0,15.6487212 0.556574924,15.0649577 1.28440367,15.0649577 L2.48318043,15.0649577 L2.48318043,13.3970619 C2.48318043,11.3121921 4.19571865,9.64429629 6.33639144,9.64429629 L17.0397554,9.64429629 L17.0397554,11.2287973 C21.706422,10.4782442 29.4984709,8.56016401 34.8929664,3.55647658 C34.9357798,2.63913389 35.7920489,1.88858078 36.7767584,2.01367296 C37.6330275,2.13876515 38.2752294,2.93101566 38.2752294,3.76496356 L38.2752294,13.3553645 C40.4587156,14.147615 42,16.1907873 42,18.5675389 C42,20.9442904 40.4587156,22.9874628 38.2752294,23.7797133 L38.2752294,33.453509 C38.2752294,34.3291543 37.6330275,35.1214048 36.7767584,35.2047996 C35.7920489,35.3298917 34.9357798,34.5793386 34.8929664,33.6619959 C29.4984709,28.6583085 21.7492355,26.7402283 17.0397554,25.9896752 Z M12.9724771,23.5712263 L12.9724771,13.6472462 L6.55045872,13.6472462 L6.55045872,23.5712263 L12.9724771,23.5712263 Z M34.6,8 C34.0477153,8 33.6,8.44771525 33.6,9 L33.6,29 C33.6,29.5522847 34.0477153,30 34.6,30 L34.7,30 C35.2522847,30 35.7,29.5522847 35.7,29 L35.7,9 C35.7,8.44771525 35.2522847,8 34.7,8 L34.6,8 Z" id="Combined-Shape" fill="#0155FF" fill-rule="nonzero"></path>
                                    </g>
                                </g>
                            </g>
                        </g>
                    </g>
                </g>
            </g>
        </g>
    </g>
</svg>