<?xml version="1.0" encoding="UTF-8"?>
<svg width="80px" height="18px" viewBox="0 0 80 18" version="1.1" xmlns="http://www.w3.org/2000/svg" xmlns:xlink="http://www.w3.org/1999/xlink">
    <!-- Generator: sketchtool 58 (101010) - https://sketch.com -->
    <title>438C9297-3AA7-4208-A031-8460676BCADF</title>
    <desc>Created with sketchtool.</desc>
    <defs>
        <polygon id="path-1" points="9.7819883 0.727578947 0.0561403509 0.727578947 0.0561403509 17.9431579 19.5078363 17.9431579 19.5078363 0.727578947 9.7819883 0.727578947"></polygon>
    </defs>
    <g id="Home-screen" stroke="none" stroke-width="1" fill="none" fill-rule="evenodd">
        <g id="DG_Home_Sep-2019_v2" transform="translate(-1141.000000, -837.000000)">
            <g id="Section-1">
                <g id="Trusted-Clients" transform="translate(0.000000, 706.000000)">
                    <g id="logos" transform="translate(219.000000, 118.000000)">
                        <g id="canon_logo-copy" style="mix-blend-mode: luminosity;" transform="translate(922.000000, 13.000000)">
                            <g id="Group-3">
                                <mask id="mask-2" fill="white">
                                    <use xlink:href="#path-1"></use>
                                </mask>
                                <g id="Clip-2"></g>
                                <path d="M19.0156725,14.0362105 C17.1780117,16.4197895 13.9733333,18 10.3279532,18 C4.62409357,18 0,14.1328421 0,9.36378947 C0,4.59378947 4.62409357,0.727578947 10.3279532,0.727578947 C14.3242105,0.727578947 17.7899415,2.62515789 19.5078363,5.40189474 L12.8561404,9.36378947 L16.32,3.35273684 C15.3702924,2.84873684 14.2867836,2.56357895 13.1368421,2.56357895 C9.38011696,2.56357895 6.33450292,5.60842105 6.33450292,9.36378947 C6.33450292,13.1201053 9.38011696,16.164 13.1368421,16.164 C15.5190643,16.164 17.6149708,14.9390526 18.8294737,13.0869474 L19.0156725,14.0362105" id="Fill-1" fill="#D8232A" mask="url(#mask-2)"></path>
                            </g>
                            <path d="M27.5166187,16.0122087 C28.8667888,16.0122087 29.9607433,14.8874584 29.9607433,13.5 C29.9607433,12.1135405 28.8667888,10.9887902 27.5166187,10.9887902 C26.1664486,10.9887902 25.0724941,12.1135405 25.0724941,13.5 C25.0724941,14.8874584 26.1664486,16.0122087 27.5166187,16.0122087 M25.5004798,18 C22.4623571,18 20,15.9862375 20,13.5 C20,11.0147614 22.4623571,9 25.5004798,9 C28.5376429,9 31,11.0147614 31,13.5 C31,15.9862375 28.5376429,18 25.5004798,18" id="Fill-4" fill="#D8232A"></path>
                            <path d="M22,6.65705229 L28.3073879,4.12772999 C28.3073879,4.12772999 30.3168865,3.55049067 31.5645119,4.85025421 C32.8121372,6.15099282 33.0891821,7.23429162 33.0891821,7.23429162 L36,18 L31.0796834,18 L28.1688654,6.65705229 L22,6.65705229" id="Fill-5" fill="#D8232A"></path>
                            <path d="M34,6.58421125 L38.9775867,4.07180757 C38.9775867,4.07180757 40.7755603,3.42553944 41.880872,6.01061196 L46.0976359,4.07180757 C46.0976359,4.07180757 49,3.49723935 49,6.58421125 L49,18 L44.1624194,18 L44.1624194,7.51824795 C44.1624194,7.51824795 43.9542524,6.65591117 42.9871047,6.65591117 C42.0181148,6.65591117 41.880872,7.44557912 41.880872,7.44557912 L41.880872,18 L37.1105312,18 L37.1105312,6.58421125 L34,6.58421125" id="Fill-6" fill="#D8232A"></path>
                            <path d="M60.5129896,14.8705433 L58.0942253,5.97273161 C57.9086014,5.35428455 57.3347691,4.90381076 56.6563467,4.90381076 C55.8281061,4.90381076 55.1562794,5.57474947 55.1562794,6.40316313 C55.1562794,6.54155021 55.1741823,6.67421092 55.2099879,6.80114527 L57.7748015,16.0969391 C58.0160183,16.6037221 58.5333154,16.954939 59.1316463,16.954939 C59.9598869,16.954939 60.6307713,16.2830459 60.6307713,15.4555866 C60.6307713,15.2475288 60.5902544,15.0499693 60.5129896,14.8705433 M57.9990577,18 C54.1339346,18 51,14.8667257 51,11.0004772 C51,7.13327425 54.1339346,4 57.9990577,4 C61.8670077,4 65,7.13327425 65,11.0004772 C65,14.8667257 61.8670077,18 57.9990577,18" id="Fill-7" fill="#D8232A"></path>
                            <path d="M65,6.58421125 L69.9775867,4.07180757 C69.9775867,4.07180757 71.7746392,3.42553944 72.880872,6.01061196 L77.0976359,4.07180757 C77.0976359,4.07180757 80,3.49723935 80,6.58421125 L80,18 L75.1624194,18 L75.1624194,7.51824795 C75.1624194,7.51824795 74.9560946,6.65591117 73.9871047,6.65591117 C73.0190359,6.65591117 72.880872,7.44557912 72.880872,7.44557912 L72.880872,18 L68.1105312,18 L68.1105312,6.58421125 L65,6.58421125" id="Fill-8" fill="#D8232A"></path>
                        </g>
                    </g>
                </g>
            </g>
        </g>
    </g>
</svg>