<?xml version="1.0" encoding="UTF-8"?>
<svg width="66px" height="60px" viewBox="0 0 66 60" version="1.1" xmlns="http://www.w3.org/2000/svg" xmlns:xlink="http://www.w3.org/1999/xlink">
    <!-- Generator: sketchtool 49.3 (51167) - http://www.bohemiancoding.com/sketch -->
    <title>F0160519-968E-491C-9ECB-521A370C0725@1x</title>
    <desc>Created with sketchtool.</desc>
    <defs>
        <radialGradient cx="50%" cy="0%" fx="50%" fy="0%" r="129.645915%" gradientTransform="translate(0.500000,0.000000),scale(0.515530,1.000000),rotate(90.000000),translate(-0.500000,-0.000000)" id="radialGradient-1">
            <stop stop-color="#7A89A3" offset="0%"></stop>
            <stop stop-color="#FFFFFF" stop-opacity="0.5" offset="100%"></stop>
        </radialGradient>
        <path d="M64,36.1961291 L64,37.2777778 L64,59.3055556 L48.5,59.3055556 L48.5,37.2777778 L48.9428571,37.2777778 L48.9428571,35.4012672 L50.7142857,35.4012672 L50.7142857,32.7452352 L59.5714286,32.7452352 L59.5714286,35.4012672 L64,35.4012672 L64,36.1961291 Z M15.7777778,29.998721 L15.7777778,59.3055556 L3.72222222,59.3055556 L3.72222222,59.2150734 L2,59.2150734 L2,27.3426889 L4.65714286,27.3426889 L17.0571429,27.3426889 L17.0571429,29.998721 L15.7777778,29.998721 Z M23.2571429,49.5667714 L25.9142857,49.5667714 L25.9142857,59.3055556 L23.2571429,59.3055556 L23.2571429,49.5667714 Z M37.4285714,49.5667714 L40.0857143,49.5667714 L40.0857143,59.3055556 L37.4285714,59.3055556 L37.4285714,49.5667714 Z" id="path-2"></path>
        <path d="M30.3428571,0.782368571 L33,0.782368571 L35.6571429,0.782368571 L35.6571429,11.4064967 L46.2857143,11.4064967 L48.9428571,11.4064967 L48.9428571,59.2150734 L48.5,59.2150734 L48.5,59.3055556 L15.7777778,59.3055556 L15.7777778,59.2150734 L14.4,59.2150734 L14.4,11.4064967 L17.0571429,11.4064967 L27.6857143,11.4064967 L27.6857143,0.782368571 L30.3428571,0.782368571 Z M30,3 L30,11 L33,11 L33,3 L30,3 Z" id="path-3"></path>
    </defs>
    <g id="Home-screen" stroke="none" stroke-width="1" fill="none" fill-rule="evenodd">
        <g id="Profile_with-White-Header-Copy" transform="translate(-49.000000, -355.000000)">
            <g id="New-layout" transform="translate(27.000000, 229.000000)">
                <g id="COmpany-Profile">
                    <g id="Placeholder_Company" transform="translate(0.000000, 101.000000)">
                        <g id="company_placeholder" transform="translate(22.000000, 25.000000)">
                            <g id="Combined-Shape">
                                <use fill="#D0DAE8" xlink:href="#path-2"></use>
                                <use fill="url(#radialGradient-1)" xlink:href="#path-2"></use>
                            </g>
                            <g id="Combined-Shape">
                                <use fill="#3E72DD" xlink:href="#path-3"></use>
                                <use fill="#3E72DD" xlink:href="#path-3"></use>
                                <use fill="#EFF6FF" xlink:href="#path-3"></use>
                            </g>
                            <rect id="Rectangle-8" fill="#F0F6FF" x="0" y="59" width="66" height="1"></rect>
                            <polygon id="Fill-4" fill="#9BA4B1" points="30.3472857 23.3719211 33.4278 23.3719211 33.4278 20.2918092 30.3472857 20.2918092"></polygon>
                            <polygon id="Fill-5" fill="#9BA4B1" points="23.3536857 30.5812773 26.4342 30.5812773 26.4342 27.5020509 23.3536857 27.5020509"></polygon>
                            <polygon id="Fill-8" fill="#9BA4B1" points="8.01222857 43.1593597 11.0936286 43.1593597 11.0936286 40.0792479 8.01222857 40.0792479"></polygon>
                            <polygon id="Fill-10" fill="#9BA4B1" points="8.01222857 54.3350572 11.0936286 54.3350572 11.0936286 51.2549454 8.01222857 51.2549454"></polygon>
                            <polygon id="Fill-11" fill="#9BA4B1" points="53.7062286 54.4448399 56.7867429 54.4448399 56.7867429 51.3656134 53.7062286 51.3656134"></polygon>
                            <polygon id="Fill-13" fill="#9BA4B1" points="53.7062286 44.6715273 56.7867429 44.6715273 56.7867429 41.5914155 53.7062286 41.5914155"></polygon>
                            <polygon id="Fill-15" fill="#9BA4B1" points="30.3472857 37.462171 33.4278 37.462171 33.4278 34.3829445 30.3472857 34.3829445"></polygon>
                            <polygon id="Fill-16" fill="#9BA4B1" points="30.3472857 44.6715273 33.4278 44.6715273 33.4278 41.5914155 30.3472857 41.5914155"></polygon>
                            <polygon id="Fill-21" fill="#9BA4B1" points="37.3763143 23.3719211 40.4577143 23.3719211 40.4577143 20.2918092 37.3763143 20.2918092"></polygon>
                            <rect id="Rectangle-18" fill="#9BA4B1" x="23.2571429" y="47.9285714" width="16.8285714" height="9.68253968"></rect>
                            <polygon id="Fill-3" fill="#9BA4B1" points="23.3536857 23.0168686 26.4342 23.0168686 26.4342 19.9851686 23.3536857 19.9851686"></polygon>
                            <polygon id="Fill-6" fill="#9BA4B1" points="23.3536857 43.9816971 26.4342 43.9816971 26.4342 40.9499971 23.3536857 40.9499971"></polygon>
                            <polygon id="Fill-7" fill="#9BA4B1" points="8.01222857 36.9937114 11.0936286 36.9937114 11.0936286 33.9628829 8.01222857 33.9628829"></polygon>
                            <polygon id="Fill-9" fill="#9BA4B1" points="8.01222857 47.9937543 11.0936286 47.9937543 11.0936286 44.9620543 8.01222857 44.9620543"></polygon>
                            <polygon id="Fill-12" fill="#9BA4B1" points="53.7062286 48.7919829 56.7867429 48.7919829 56.7867429 45.7602829 53.7062286 45.7602829"></polygon>
                            <polygon id="Fill-14" fill="#9BA4B1" points="30.3472857 30.1129114 33.4278 30.1129114 33.4278 27.0820829 30.3472857 27.0820829"></polygon>
                            <polygon id="Fill-17" fill="#9BA4B1" points="37.3763143 36.8856543 40.4577143 36.8856543 40.4577143 33.8548257 37.3763143 33.8548257"></polygon>
                            <polygon id="Fill-18" fill="#9BA4B1" points="37.3763143 43.9816971 40.4577143 43.9816971 40.4577143 40.9499971 37.3763143 40.9499971"></polygon>
                        </g>
                    </g>
                </g>
            </g>
        </g>
    </g>
</svg>