<?xml version="1.0" encoding="UTF-8"?>
<svg width="189px" height="137px" viewBox="0 0 189 137" version="1.1" xmlns="http://www.w3.org/2000/svg" xmlns:xlink="http://www.w3.org/1999/xlink">
    <!-- Generator: Sketch 48.2 (47327) - http://www.bohemiancoding.com/sketch -->
    <title>Illustration_Company_not found</title>
    <desc>Created with Sketch.</desc>
    <defs></defs>
    <g id="DG_Home_Company_no-result" stroke="none" stroke-width="1" fill="none" fill-rule="evenodd" transform="translate(-538.000000, -1016.000000)">
        <g id="Illustration_Company_not-found" transform="translate(535.000000, 1010.000000)">
            <path d="M21.2253445,32.3250632 L160.225345,32.3250632 C166.576619,32.3250632 171.725345,37.4737886 171.725345,43.8250632 C171.725345,50.1763378 166.576619,55.3250632 160.225345,55.3250632 L21.2253445,55.3250632 C14.8740699,55.3250632 9.72534454,50.1763378 9.72534454,43.8250632 C9.72534454,37.4737886 14.8740699,32.3250632 21.2253445,32.3250632 Z M40.7028877,64.8081779 L179.702888,64.8081779 C186.054162,64.8081779 191.202888,69.9569033 191.202888,76.3081779 C191.202888,82.6594525 186.054162,87.8081779 179.702888,87.8081779 L40.7028877,87.8081779 C34.351613,87.8081779 29.2028877,82.6594525 29.2028877,76.3081779 C29.2028877,69.9569033 34.351613,64.8081779 40.7028877,64.8081779 Z M34.3377044,96.027326 L173.337704,96.027326 C179.688979,96.027326 184.837704,101.176051 184.837704,107.527326 C184.837704,113.878601 179.688979,119.027326 173.337704,119.027326 L34.3377044,119.027326 C27.9864297,119.027326 22.8377044,113.878601 22.8377044,107.527326 C22.8377044,101.176051 27.9864297,96.027326 34.3377044,96.027326 Z" id="Combined-Shape" fill="#F1F1F1" transform="translate(100.464116, 75.676195) rotate(-23.000000) translate(-100.464116, -75.676195) "></path>
            <circle id="Oval-2" fill="#EEEEEE" cx="107" cy="72" r="66"></circle>
            <rect id="Rectangle-7" fill="#55ACEE" x="50" y="23" width="21" height="3" rx="1.5"></rect>
            <rect id="Rectangle-7-Copy" fill="#55ACEE" x="44" y="28" width="21" height="3" rx="1.5"></rect>
            <rect id="Rectangle-8" fill="#0164CF" x="170" y="19" width="18" height="3" rx="1.5"></rect>
            <path d="M170.791667,118.791667 L170.791667,114.958333 C170.791667,114.42906 171.220727,114 171.75,114 C172.279273,114 172.708333,114.42906 172.708333,114.958333 L172.708333,118.791667 L176.541667,118.791667 C177.07094,118.791667 177.5,119.220727 177.5,119.75 C177.5,120.279273 177.07094,120.708333 176.541667,120.708333 L172.708333,120.708333 L172.708333,124.541667 C172.708333,125.07094 172.279273,125.5 171.75,125.5 C171.220727,125.5 170.791667,125.07094 170.791667,124.541667 L170.791667,120.708333 L166.958333,120.708333 C166.42906,120.708333 166,120.279273 166,119.75 C166,119.220727 166.42906,118.791667 166.958333,118.791667 L170.791667,118.791667 Z" id="Combined-Shape" fill="#3C5A99"></path>
            <path d="M73.7916667,10.7916667 L73.7916667,6.95833333 C73.7916667,6.42906045 74.2207271,6 74.75,6 C75.2792729,6 75.7083333,6.42906045 75.7083333,6.95833333 L75.7083333,10.7916667 L79.5416667,10.7916667 C80.0709396,10.7916667 80.5,11.2207271 80.5,11.75 C80.5,12.2792729 80.0709396,12.7083333 79.5416667,12.7083333 L75.7083333,12.7083333 L75.7083333,16.5416667 C75.7083333,17.0709396 75.2792729,17.5 74.75,17.5 C74.2207271,17.5 73.7916667,17.0709396 73.7916667,16.5416667 L73.7916667,12.7083333 L69.9583333,12.7083333 C69.4290604,12.7083333 69,12.2792729 69,11.75 C69,11.2207271 69.4290604,10.7916667 69.9583333,10.7916667 L73.7916667,10.7916667 Z" id="Combined-Shape-Copy" fill="#8D95A5"></path>
            <circle id="Oval-3" fill="#FFD794" cx="163" cy="38" r="6"></circle>
            <circle id="Oval-4" fill="#DA4B42" cx="50" cy="116" r="4"></circle>
            <g id="ic_company" transform="translate(72.000000, 38.000000)" fill="#CECECE">
                <path d="M63,40 L58,40 L58,43 L53,43 L53,66.8978 L50,66.8978 L50,15.8978 L35,15.8978 L35,12.8978 L35,3.8978 L32,3.8978 L32,12.8978 L32,15.8978 L17,15.8978 L17,66.8978 L14,66.8978 L14,33.8978 L3,33.8978 L3,66.8978 L0,66.8978 L0,30.8978 L3,30.8978 L14,30.8978 L14,12.8978 L17,12.8978 L29,12.8978 L29,0.8978 L32,0.8978 L35,0.8978 L38,0.8978 L38,12.8978 L50,12.8978 L53,12.8978 L53,40 L55,40 L55,37 L65,37 L65,40 L70,40 L70,40.8978 L70,66.8978 L67,66.8978 L67,43 L63,43 L63,40 Z M27,58 L27,67 L24,67 L24,56 L24,55 L43,55 L43,56 L43,67 L40,67 L40,58 L27,58 Z M24.109,26.4128 L24.109,22.9338 L27.587,22.9338 L27.587,26.4128 L24.109,26.4128 Z M32.005,26.4128 L32.005,22.9338 L35.483,22.9338 L35.483,26.4128 L32.005,26.4128 Z M24.109,34.5558 L24.109,31.0778 L27.587,31.0778 L27.587,34.5558 L24.109,34.5558 Z M24.109,50.4708 L24.109,46.9918 L27.587,46.9918 L27.587,50.4708 L24.109,50.4708 Z M6.788,42.4518 L6.788,38.9738 L10.267,38.9738 L10.267,42.4518 L6.788,42.4518 Z M6.788,48.7628 L6.788,45.2838 L10.267,45.2838 L10.267,48.7628 L6.788,48.7628 Z M6.788,55.0748 L6.788,51.5958 L10.267,51.5958 L10.267,55.0748 L6.788,55.0748 Z M6.788,61.3858 L6.788,57.9068 L10.267,57.9068 L10.267,61.3858 L6.788,61.3858 Z M58.378,61.5098 L58.378,58.0318 L61.856,58.0318 L61.856,61.5098 L58.378,61.5098 Z M58.378,55.9908 L58.378,52.5118 L61.856,52.5118 L61.856,55.9908 L58.378,55.9908 Z M58.378,50.4708 L58.378,46.9918 L61.856,46.9918 L61.856,50.4708 L58.378,50.4708 Z M32.005,34.5558 L32.005,31.0778 L35.483,31.0778 L35.483,34.5558 L32.005,34.5558 Z M32.005,42.3278 L32.005,38.8498 L35.483,38.8498 L35.483,42.3278 L32.005,42.3278 Z M32.005,50.4708 L32.005,46.9918 L35.483,46.9918 L35.483,50.4708 L32.005,50.4708 Z M39.941,42.3278 L39.941,38.8498 L43.42,38.8498 L43.42,42.3278 L39.941,42.3278 Z M39.941,50.4708 L39.941,46.9918 L43.42,46.9918 L43.42,50.4708 L39.941,50.4708 Z M39.941,26.4128 L39.941,22.9338 L43.42,22.9338 L43.42,26.4128 L39.941,26.4128 Z" id="Combined-Shape"></path>
            </g>
        </g>
    </g>
</svg>