<?xml version="1.0" encoding="UTF-8"?>
<svg width="378px" height="283px" viewBox="0 0 378 283" version="1.1" xmlns="http://www.w3.org/2000/svg" xmlns:xlink="http://www.w3.org/1999/xlink">
    <!-- Generator: sketchtool 57.1 (101010) - https://sketch.com -->
    <title>85122B9E-693B-4E1A-BDDF-496E9BECF313</title>
    <desc>Created with sketchtool.</desc>
    <defs>
        <rect id="path-1" x="0" y="0" width="378" height="330" rx="4"></rect>
        <linearGradient x1="57.9617104%" y1="50%" x2="57.9617104%" y2="12.8305508%" id="linearGradient-3">
            <stop stop-color="#FFFFFF" stop-opacity="0.5" offset="0%"></stop>
            <stop stop-color="#3C69C4" offset="100%"></stop>
        </linearGradient>
        <path d="M78.084,-1.70530257e-13 C79.8,0.032 81.512,0.12 83.228,0.24 L83.227,51.696 L230.487,51.696 L230.488,1.964 C232.204,1.996 233.916,2.084 235.632,2.204 L235.631,51.696 L387.487,51.696 L387.488,0.964 C389.204,0.996 390.916,1.084 392.632,1.204 L392.631,51.696 L402.872,51.696 C403.060083,53.3876322 403.108763,55.0925743 403.008,56.792 C403.009983,56.8092766 403.009983,56.8267234 403.008,56.844 L392.631,56.843 L392.631,188.083 L430.924,188.084 C433.099584,189.606361 435.127178,191.329949 436.98,193.232 L392.631,193.231 L392.632,242.804 C390.912,242.593333 389.197333,242.362667 387.488,242.112 L387.487,193.231 L235.631,193.231 L235.632,243.804 C233.912,243.593333 232.197333,243.362667 230.488,243.112 L230.487,193.231 L83.227,193.231 L83.228,241.84 C81.508,241.629333 79.7933333,241.398667 78.084,241.148 L78.083,193.231 L-4.54747351e-13,193.232 C0.158644164,191.494836 0.456941857,189.77327 0.892,188.084 L78.083,188.083 L78.083,56.843 L22.348,56.844 C22.1612029,55.1347532 22.0903742,53.4148182 22.136,51.696 L78.083,51.696 L78.084,-1.70530257e-13 Z M230.487,56.843 L83.227,56.843 L83.227,188.083 L230.487,188.083 L230.487,56.843 Z M387.487,56.843 L235.631,56.843 L235.631,188.083 L387.487,188.083 L387.487,56.843 Z" id="path-4"></path>
        <polygon id="path-5" points="0.2464 0.526 55.6201306 0.526 55.6201306 113.666843 0.2464 113.666843"></polygon>
        <polygon id="path-7" points="0.0742 0.5875 116.988 0.5875 116.988 100.8735 0.0742 100.8735"></polygon>
        <linearGradient x1="50%" y1="32.1307461%" x2="50%" y2="327.652716%" id="linearGradient-9">
            <stop stop-color="#000000" stop-opacity="0" offset="0%"></stop>
            <stop stop-color="#F5FAFF" offset="100%"></stop>
        </linearGradient>
    </defs>
    <g id="Home-screen" stroke="none" stroke-width="1" fill="none" fill-rule="evenodd">
        <g id="DG_Home_Nov-2019_Demo-Popup" transform="translate(-284.000000, -287.000000)">
            <g id="One-Time-Alert">
                <g id="Request-A-Demo-Popup" transform="translate(284.000000, 130.000000)">
                    <g id="Side-panel">
                        <g id="Popup_Illustration" transform="translate(0.000000, 110.000000)">
                            <mask id="mask-2" fill="white">
                                <use xlink:href="#path-1"></use>
                            </mask>
                            <g id="Rectangle-Copy-2" fill-rule="nonzero"></g>
                            <g id="bg" mask="url(#mask-2)" fill-rule="nonzero">
                                <g transform="translate(-23.488000, 47.036000)">
                                    <path d="M442.588,216.196 C442.588,222.214625 432.064802,249.793039 412.91911,272.809742 C408.706994,277.873493 408.014559,295.619991 402.988,299.964 C397.01619,305.124907 386.546862,304.678025 379.488,307.964 C339.856651,326.412814 277.706216,307.964 216.988,307.964 C139.11509,307.964 50.4859341,333.105329 11.988,307.964 C-9.83298713,293.713661 4.824,218.324521 4.824,211.904 C4.824,194.156 100.868,235.02 222.88,235.02 C344.892,235.02 442.588,198.432 442.588,216.196 Z" id="Path" fill="#022470"></path>
                                    <g id="Combined-Shape" fill="none" opacity="0.154659601">
                                        <use fill="#FFFFFF" xlink:href="#path-4"></use>
                                        <use fill="url(#linearGradient-3)" xlink:href="#path-4"></use>
                                    </g>
                                    <circle id="Oval" fill="#E7EFFD" cx="96.416" cy="28.688" r="1.5"></circle>
                                    <circle id="Oval" fill="#E7EFFD" cx="48.376" cy="25.684" r="1.5"></circle>
                                    <circle id="Oval" fill="#E7EFFD" cx="113.36" cy="28.688" r="1"></circle>
                                    <circle id="Oval" fill="#E7EFFD" cx="65.104" cy="27.188" r="1"></circle>
                                    <circle id="Oval" fill="#E7EFFD" cx="64.464" cy="72.168" r="1"></circle>
                                    <circle id="Oval" fill="#E7EFFD" cx="361.492" cy="38.176" r="1"></circle>
                                    <circle id="Oval" fill="#E7EFFD" cx="143.384" cy="38.768" r="1"></circle>
                                    <circle id="Oval" fill="#E7EFFD" cx="329.752" cy="37.48" r="1"></circle>
                                    <path d="M443.8,209.112 C443.8,209.348 443.8,209.584 443.8,209.824 C443.596,217.256 439.48,224.668 431.928,229.884 C423.976,235.372 413.312,238.26 402.364,240.104 C400.652,240.392 398.932,240.652 397.216,240.904 C396.34,241.024 395.468,241.144 394.6,241.256 C388.6,242.056 382.568,242.668 376.516,243.18 C368.396,243.868 360.236,244.344 352.068,244.696 C341.58,245.156 331.072,245.416 320.576,245.676 C300.06,246.18 279.528,246.684 258.976,247.032 L251.684,247.152 L242.788,247.272 L237.644,247.332 C205.244,247.676 172.892,247.5 140.596,246.18 C138.446667,246.094667 136.301333,246.001333 134.16,245.9 C129.36,245.689333 124.56,245.445333 119.76,245.168 C110.14,244.624 100.444,243.936 90.852,242.916 C88.308,242.649333 85.7746667,242.354667 83.252,242.032 C81.532,241.821333 79.8173333,241.590667 78.108,241.34 C76.204,241.073333 74.308,240.782667 72.42,240.468 C58.42,238.18 44.904,234.868 32.44,229.82 C29.0982433,228.480328 25.8284862,226.967615 22.644,225.288 L22.644,154.888 C24.42,152.828 26.184,150.768 27.88,148.684 C29.92,146.18 31.88,143.6 33.68,140.952 L72.4,140.952 L72.4,117.092 L140.6,117.092 L140.6,169.548 L251.684,169.548 L251.684,127.948 L373.988,127.964 C372.686177,130.086869 377.419622,132.298585 376.488,134.608 L376.488,134.832 L376.34,134.832 C375.361889,137.306113 374.733181,139.904413 374.472,142.552 C374.082133,146.347052 374.775584,150.174898 376.472,153.592 L376.472,153.76 L376.508,153.84 C380.22,161.2 388.076,166.416 397.172,171.04 C398.848,171.896 400.572,172.728 402.32,173.552 C412.084,178.16 422.604,182.448 430.652,188.112 L430.892,188.28 C433.011025,189.74987 434.993666,191.407203 436.816,193.232 C436.876,193.288 436.928,193.344 436.98,193.4 C437.737666,194.184303 438.453332,195.00812 439.124,195.868 C442.038122,199.551169 443.677645,204.080914 443.8,208.776 C443.8,208.896 443.8,209.004 443.8,209.112 Z" id="Path" fill="#FFFFFF" opacity="0.100000001"></path>
                                    <path d="M437.944,209.128 C437.944,209.364 443.8,209.584 443.8,209.824 C443.596,217.256 439.48,224.668 431.928,229.884 C423.976,235.372 413.312,238.26 402.364,240.104 C400.652,240.392 398.932,240.652 397.216,240.904 C396.34,241.024 395.468,241.144 394.6,241.256 C388.6,242.056 382.568,242.668 376.516,243.18 C368.396,243.868 360.236,244.344 352.068,244.696 C341.58,245.156 331.072,245.416 320.576,245.676 C300.06,246.18 279.528,246.684 258.976,247.032 L251.684,247.152 L242.788,247.272 L237.644,247.332 C205.244,247.676 172.892,247.5 140.596,246.18 C138.446667,246.094667 136.301333,246.001333 134.16,245.9 C129.36,245.689333 124.56,245.445333 119.76,245.168 C110.14,244.624 100.444,243.936 90.852,242.916 C88.308,242.649333 85.7746667,242.354667 83.252,242.032 C81.532,241.821333 79.8173333,241.590667 78.108,241.34 C76.204,241.073333 74.308,240.782667 72.42,240.468 C58.42,238.18 44.904,234.868 32.44,229.82 C29.0982433,228.480328 25.8284862,226.967615 22.644,225.288 L22.644,154.888 C24.42,152.828 26.184,150.768 27.88,148.684 C29.92,146.18 31.88,143.6 33.68,140.952 L72.4,140.952 L72.4,117.092 L140.6,117.092 L140.6,169.548 L251.684,169.548 L251.684,127.948 L373.988,127.964 C372.686177,130.086869 377.488,131.964 376.488,134.608 L376.488,134.832 L376.34,134.832 C375.361889,137.306113 374.733181,139.904413 374.472,142.552 C374.082133,146.347052 374.775584,150.174898 376.472,153.592 L376.472,153.76 L376.508,153.84 C380.22,161.2 388.076,166.416 397.172,171.04 C398.848,171.896 400.572,172.728 402.32,173.552 C412.084,178.16 422.604,182.448 430.652,188.112 L430.892,188.28 C433.011025,189.74987 434.993666,191.407203 436.816,193.232 C436.876,193.288 436.928,193.344 436.98,193.4 C437.737666,194.184303 438.453332,195.00812 439.124,195.868 C442.038122,199.551169 443.677645,204.080914 443.8,208.776 C443.8,208.896 437.944,209.02 437.944,209.128 Z" id="Path" fill="#0155FF" opacity="0.3"></path>
                                    <rect id="Rectangle" fill="#000000" opacity="0.4" x="35.364" y="150.68" width="11.44" height="7.72"></rect>
                                    <rect id="Rectangle" fill="#000000" opacity="0.4" x="53.668" y="150.68" width="11.44" height="7.72"></rect>
                                    <rect id="Rectangle" fill="#000000" opacity="0.4" x="263.84" y="134.812" width="11.44" height="7.72"></rect>
                                    <rect id="Rectangle" fill="#000000" opacity="0.4" x="294.724" y="134.812" width="11.44" height="7.72"></rect>
                                    <rect id="Rectangle" fill="#000000" opacity="0.4" x="327.892" y="134.812" width="11.44" height="7.72"></rect>
                                    <rect id="Rectangle" fill="#000000" opacity="0.4" x="263.84" y="158.404" width="11.44" height="7.72"></rect>
                                    <rect id="Rectangle" fill="#000000" opacity="0.4" x="294.724" y="158.404" width="11.44" height="7.72"></rect>
                                    <rect id="Rectangle" fill="#6C63FF" x="327.892" y="158.404" width="11.44" height="7.72"></rect>
                                    <rect id="Rectangle" fill="#000000" opacity="0.4" x="263.84" y="181.992" width="11.44" height="7.72"></rect>
                                    <rect id="Rectangle" fill="#000000" opacity="0.4" x="294.724" y="181.992" width="11.44" height="7.72"></rect>
                                    <rect id="Rectangle" fill="#000000" opacity="0.4" x="327.892" y="181.992" width="11.44" height="7.72"></rect>
                                    <rect id="Rectangle" fill="#000000" opacity="0.4" x="263.84" y="205.584" width="11.44" height="7.72"></rect>
                                    <rect id="Rectangle" fill="#000000" opacity="0.4" x="294.724" y="205.584" width="11.44" height="7.72"></rect>
                                    <rect id="Rectangle" fill="#000000" opacity="0.4" x="327.892" y="205.584" width="11.44" height="7.72"></rect>
                                    <rect id="Rectangle" fill="#000000" opacity="0.4" x="263.84" y="229.176" width="11.44" height="7.72"></rect>
                                    <rect id="Rectangle" fill="#000000" opacity="0.4" x="294.724" y="229.176" width="11.44" height="7.72"></rect>
                                    <rect id="Rectangle" fill="#000000" opacity="0.4" x="327.892" y="229.176" width="11.44" height="7.72"></rect>
                                    <path d="M376.356,134.832 C375.377889,137.306113 374.749181,139.904413 374.488,142.552 L368.212,142.552 L368.212,134.832 L376.356,134.832 Z" id="Path" fill="#000000" opacity="0.4"></path>
                                    <rect id="Rectangle" fill="#6C63FF" x="368.212" y="158.404" width="11.44" height="7.72"></rect>
                                    <rect id="Rectangle" fill="#000000" opacity="0.4" x="368.212" y="181.992" width="11.44" height="7.72"></rect>
                                    <rect id="Rectangle" fill="#000000" opacity="0.4" x="368.212" y="205.584" width="11.44" height="7.72"></rect>
                                    <rect id="Rectangle" fill="#000000" opacity="0.4" x="368.212" y="229.176" width="11.44" height="7.72"></rect>
                                    <rect id="Rectangle" fill="#000000" opacity="0.4" x="98.848" y="125.804" width="11.44" height="7.72"></rect>
                                    <rect id="Rectangle" fill="#6C63FF" x="98.848" y="143.112" width="11.44" height="7.72"></rect>
                                    <rect id="Rectangle" fill="#000000" opacity="0.4" x="98.848" y="160.416" width="11.44" height="7.72"></rect>
                                    <rect id="Rectangle" fill="#000000" opacity="0.4" x="98.848" y="177.724" width="11.44" height="7.72"></rect>
                                    <rect id="Rectangle" fill="#000000" opacity="0.4" x="98.848" y="195.028" width="11.44" height="7.72"></rect>
                                    <rect id="Rectangle" fill="#000000" opacity="0.4" x="98.848" y="212.336" width="11.44" height="7.72"></rect>
                                    <rect id="Rectangle" fill="#000000" opacity="0.4" x="35.364" y="170.856" width="11.44" height="7.72"></rect>
                                    <rect id="Rectangle" fill="#000000" opacity="0.4" x="53.668" y="170.856" width="11.44" height="7.72"></rect>
                                    <rect id="Rectangle" fill="#000000" opacity="0.4" x="35.364" y="191.032" width="11.44" height="7.72"></rect>
                                    <rect id="Rectangle" fill="#000000" opacity="0.4" x="53.668" y="191.032" width="11.44" height="7.72"></rect>
                                    <rect id="Rectangle" fill="#000000" opacity="0.4" x="35.364" y="211.208" width="11.44" height="7.72"></rect>
                                    <rect id="Rectangle" fill="#000000" opacity="0.4" x="53.668" y="211.208" width="11.44" height="7.72"></rect>
                                    <rect id="Rectangle" fill="#000000" opacity="0.4" x="163.472" y="178.544" width="57.192" height="6.9"></rect>
                                    <rect id="Rectangle" fill="#000000" opacity="0.4" x="163.472" y="200.56" width="57.192" height="6.9"></rect>
                                    <rect id="Rectangle" fill="#000000" opacity="0.4" x="163.472" y="222.58" width="57.192" height="6.9"></rect>
                                    <polygon id="Path" fill="#E7EFFD" points="134.82 91.888 133.836 91.888 133.836 90.904 133.66 90.904 133.66 91.888 132.676 91.888 132.676 92.064 133.66 92.064 133.66 93.048 133.836 93.048 133.836 92.064 134.82 92.064"></polygon>
                                    <polygon id="Path" fill="#E7EFFD" points="339.332 71.436 338.348 71.436 338.348 70.452 338.168 70.452 338.168 71.436 337.188 71.436 337.188 71.612 338.168 71.612 338.168 72.596 338.348 72.596 338.348 71.612 339.332 71.612"></polygon>
                                    <polygon id="Path" fill="#E7EFFD" points="158.128 67.456 157.144 67.456 157.144 66.472 156.964 66.472 156.964 67.456 155.984 67.456 155.984 67.636 156.964 67.636 156.964 68.616 157.144 68.616 157.144 67.636 158.128 67.636"></polygon>
                                    <circle id="Oval" fill="#E7EFFD" cx="156.628" cy="130.348" r="1"></circle>
                                    <circle id="Oval" fill="#E7EFFD" cx="303.496" cy="72.812" r="1"></circle>
                                    <circle id="Oval" fill="#E7EFFD" cx="368.212" cy="103.312" r="1"></circle>
                                    <circle id="Oval" fill="#E7EFFD" cx="266.86" cy="108.836" r="1"></circle>
                                </g>
                            </g>
                            <g id="Girl" mask="url(#mask-2)">
                                <g transform="translate(265.000000, 391.000000) scale(-1, 1) translate(-265.000000, -391.000000) translate(154.000000, 61.000000)">
                                    <path d="M121.0918,272.869 C121.0918,272.869 133.4908,333.061 136.3388,348.216 C139.1868,363.371 147.1598,436.768 148.0148,449.249 C148.8678,461.729 160.9518,508.755 160.3828,513.212 C159.8138,517.669 178.2988,607.209 178.2988,607.209 C178.2988,607.209 171.9868,612.511 165.3308,607.687 C161.9078,605.207 124.7728,523.861 124.7728,501.576 C124.7728,470.769 102.9418,430.555 100.1248,423.663 C73.9578,359.636 79.1098,340.06 75.6928,335.9 C72.2758,331.74 71.9788,338.47 69.9858,347.682 C67.9918,356.893 63.7238,436.531 61.1608,446.635 C58.5978,456.738 60.5878,490.911 59.1638,508.146 C57.7398,525.382 51.4888,603.342 51.4888,603.342 C51.4888,603.342 46.6478,611.258 39.8558,603.548 C38.3938,601.889 28.1278,516.704 27.8438,496.199 C27.5588,475.696 27.2548,447.419 26.7038,438.552 C21.4288,353.585 8.4618,341.45 28.8848,281.317 C67.1218,168.726 121.0918,272.869 121.0918,272.869" id="Fill-9" fill="#EEA886"></path>
                                    <path d="M37.8242,256.0477 C37.8242,256.0477 2.4992,307.6367 17.7082,417.3797 C17.7082,417.3797 101.4932,429.2717 146.3802,403.6237 C146.3802,403.6237 127.8182,290.4767 121.0922,272.8687 C114.3662,255.2627 37.8242,256.0477 37.8242,256.0477" id="Fill-11" fill="#3F446E"></path>
                                    <path d="M79.7031,27.2909 C79.7031,27.2909 103.3601,51.1189 95.3031,81.8049 C87.2461,112.4899 74.3001,112.6619 60.0291,99.4619 C45.7611,86.2619 37.3601,72.3769 35.4741,56.9479 C33.5891,41.5199 58.1031,6.0329 79.7031,27.2909" id="Fill-17" fill="#EEA886"></path>
                                    <path d="M84.332,129.6327 C84.332,129.6327 80.824,121.6077 78.366,112.5697 C77.933,110.9767 77.531,109.3517 77.187,107.7337 C75.981,102.0487 75.487,96.4477 76.789,92.6057 C80.561,81.4617 53.132,89.1767 53.132,89.1767 C53.132,89.1767 58.446,118.6617 53.132,128.6057 C47.817,138.5477 84.332,129.6327 84.332,129.6327" id="Fill-19" fill="#EEA886"></path>
                                    <path d="M27.2471,197.3436 C27.2471,197.3436 29.5281,202.3996 31.5741,208.1096 C29.9041,208.2586 28.3251,208.2686 27.5831,208.3796 C20.9761,209.3686 25.9391,200.9866 27.2471,197.3436 M0.8981,225.2526 C1.3511,228.9476 18.6291,228.1816 37.0591,226.2956 C37.0721,226.3676 37.0911,226.4406 37.1081,226.5136 C37.5081,228.1366 37.8521,229.5876 38.1011,230.6036 C38.3741,231.7146 38.6191,232.8986 38.8371,234.1406 C40.6861,244.6806 40.5421,259.5356 37.0181,272.2606 C37.0181,272.2606 83.4731,289.5746 112.4461,273.8026 C112.4461,273.8026 109.3621,248.6026 113.9881,232.3186 C118.6181,216.0326 142.7891,159.2886 142.7891,159.2886 C142.7891,159.2886 125.2701,133.9566 111.8971,129.3266 C98.5281,124.6976 81.2941,121.8266 81.2941,121.8266 L56.2361,122.7466 C56.2361,122.7466 35.3761,128.1796 30.7051,129.6536 C22.3611,132.2886 19.1331,135.0636 14.8151,143.6806 C8.8751,155.5246 -1.1339,208.6056 0.8981,225.2526" id="Fill-21" fill="#FFFFFF"></path>
                                    <path d="M71.9893,44.4335 C71.9893,44.4335 60.6753,65.0045 53.6463,72.3765 C46.6173,79.7475 47.4423,85.5995 47.4423,85.5995 C47.4423,85.5995 20.0463,51.8055 39.5893,31.4055 C59.1323,11.0055 84.3323,19.2335 91.7033,37.0625 C99.0743,54.8905 96.3753,76.6685 96.3753,76.6685 C96.3753,76.6685 96.1603,55.7475 71.9893,44.4335" id="Fill-23" fill="#22253D"></path>
                                    <g id="Group-27" stroke-width="1" fill="none" transform="translate(9.000000, 0.474000)">
                                        <mask id="mask-6" fill="white">
                                            <use xlink:href="#path-5"></use>
                                        </mask>
                                        <g id="Clip-26"></g>
                                        <path d="M55.5234,22.4204 C55.5234,22.4204 58.2584,7.3604 34.6424,1.3714 C11.0274,-4.6176 0.4174,22.5914 3.3264,39.1914 C6.2354,55.7904 26.4284,97.8884 15.4764,103.3634 C4.5244,108.8404 0.2464,97.0324 0.2464,97.0324 C0.2464,97.0324 3.6694,117.7384 18.8994,112.9474 C34.1294,108.1554 32.0774,74.5064 29.7794,61.0954 C27.4814,47.6844 55.5234,22.4204 55.5234,22.4204" id="Fill-25" fill="#22253D" mask="url(#mask-6)"></path>
                                    </g>
                                    <path d="M56.917,96.4774 C57.008,96.6934 62.979,110.4364 78.366,112.5694 C77.933,110.9764 77.531,109.3514 77.188,107.7334 C77.188,107.7334 68.756,109.4344 56.917,96.4774" id="Fill-28" fill="#A77860"></path>
                                    <path d="M27.583,197.5438 C27.583,197.5438 28.71,199.9208 31.801,209.2858 C34.948,182.9808 33.304,169.2898 33.304,169.2898 C32.96,183.3478 27.583,197.5438 27.583,197.5438" id="Fill-30" fill="#CFBEB8"></path>
                                    <path d="M60.8447,19.7362 C60.8447,19.7362 44.0827,22.9562 35.7217,36.6092 C35.7217,36.6092 37.4167,24.2462 45.7607,20.6822 C54.1037,17.1202 60.8447,19.7362 60.8447,19.7362" id="Fill-32" fill="#141527"></path>
                                    <path d="M37.1084,226.5135 C37.5074,228.1365 37.8524,229.5875 38.1014,230.6035 C38.3744,231.7145 38.6194,232.8985 38.8374,234.1405 C49.2164,228.4945 56.6714,224.0825 56.6714,224.0825 C53.8794,224.7075 37.1084,226.5135 37.1084,226.5135" id="Fill-34" fill="#CFBEB8"></path>
                                    <path d="M54.834,123.1132 L84.332,147.1582 L81.294,121.8272 C81.294,121.8272 64.094,118.1152 54.834,123.1132" id="Fill-36" fill="#EEA886"></path>
                                    <polygon id="Fill-38" fill="#D6C5BE" points="75.8076 143.077 84.3316 147.158 55.3616 118.439"></polygon>
                                    <path d="M35.3721,224.4315 C39.4311,241.2555 24.4091,279.1215 24.4091,279.1215 L54.1821,288.4285 C58.4661,289.7685 62.9751,287.1425 63.9191,282.7535 C67.9061,264.2255 77.2501,218.6195 78.3671,193.2635 C79.7911,160.9115 56.2361,122.7465 56.2361,122.7465 C14.3711,129.9305 25.8491,193.2635 25.8491,193.2635 C25.8491,193.2635 27.3681,197.2545 29.3991,203.4905 L29.3991,203.4945 C29.9121,205.0595 30.4511,206.7685 31.0141,208.5915 C32.4471,213.2715 33.9881,218.7085 35.3721,224.4315" id="Fill-40" fill="#141527"></path>
                                    <path d="M84.2588,123.2118 L83.7428,121.8268 C83.7428,121.8268 105.1828,125.0888 116.0788,130.5298 C126.9758,135.9728 147.8358,164.0888 147.8358,164.0888 L120.5518,200.1078 C120.5208,227.7888 125.0108,277.0058 125.0108,277.0058 L112.5358,284.1938 C109.1828,286.1268 104.9858,283.7568 104.9128,279.8868 C104.5618,261.1708 103.7218,216.7288 103.2808,195.2048 C102.7138,167.5198 82.9598,122.7468 82.9598,122.7468 C83.3998,122.8968 83.8298,123.0538 84.2588,123.2118" id="Fill-42" fill="#141527"></path>
                                    <path d="M123.1318,253.0047 C123.1318,253.0047 102.5608,253.8047 99.3608,253.0047 C96.1598,252.2047 74.8138,242.9477 73.5308,233.8047 C72.2498,224.6607 123.1318,241.9997 123.1318,241.9997 L123.1318,253.0047 Z" id="Fill-44" fill="#EEA886"></path>
                                    <polygon id="Fill-46" fill="#6A77BF" points="59.3027 224.4325 142.7877 214.6615 105.0737 245.3475"></polygon>
                                    <polygon id="Fill-48" fill="#323657" points="105.0742 245.3475 59.3032 229.7465 59.3032 224.4325 106.6172 239.6105"></polygon>
                                    <path d="M83.5557,209.1024 C83.5557,209.1024 90.4607,209.1034 94.3277,208.3164 C97.3207,207.7064 104.7597,208.5464 106.6547,210.2264 C108.5487,211.9054 114.5757,223.6064 115.7157,224.3204 C116.8557,225.0344 115.1317,226.6864 113.1287,225.8564 C113.1287,225.8564 111.2917,230.9774 106.7567,229.0604 C102.2207,227.1434 99.1417,222.9584 96.7667,222.2214 C94.3917,221.4844 80.5607,217.7654 80.5607,217.7654 C80.5607,217.7654 79.9927,207.8564 83.5557,209.1024" id="Fill-50" fill="#EEA886"></path>
                                    <polygon id="Fill-52" fill="#FAE6DE" points="79.7197 117.1542 95.6097 142.3212 103.2817 147.1582 85.4037 122.0982"></polygon>
                                    <polygon id="Fill-54" fill="#D6C5BE" points="95.6094 142.3212 84.3324 147.1582 81.2944 121.8272 79.7194 117.1542"></polygon>
                                    <path d="M120.6172,241.2332 C120.6172,241.2332 121.4742,251.8612 120.6172,254.0892 C120.6172,254.0892 172.1022,248.9472 176.9022,241.7472 C181.7032,234.5472 181.5312,225.8042 181.5312,225.8042 L120.6172,241.2332 Z" id="Fill-56" fill="#141527"></path>
                                    <g id="Group-60" stroke-width="1" fill="none" transform="translate(105.000000, 144.474000)">
                                        <mask id="mask-8" fill="white">
                                            <use xlink:href="#path-7"></use>
                                        </mask>
                                        <g id="Clip-59"></g>
                                        <polygon id="Fill-58" fill="#252740" mask="url(#mask-8)" points="0.0742 100.8735 24.4172 10.3585 116.9882 0.5875 91.6172 83.9015"></polygon>
                                    </g>
                                    <polygon id="Fill-61" fill="#FAE6DE" points="55.3613 118.4393 75.8073 143.0773 64.6203 153.0533 52.5463 123.5593"></polygon>
                                    <path d="M28.7129,201.409 C28.7129,201.409 29.3999,203.49 29.3999,203.494 C29.9119,205.059 30.4509,206.768 31.0139,208.592 C34.9639,209.834 69.1609,207.326 69.1609,207.326 C69.1609,207.326 40.5399,200.606 28.7129,201.409" id="Fill-63" fill="#3D426B"></path>
                                    <path d="M30.6865,207.9227 C36.1965,207.5067 45.2185,206.9187 52.6035,206.8877 C64.0925,206.8387 83.7435,208.1177 83.7435,208.1177 L81.4005,220.3957 C81.4005,220.3957 46.5915,226.0517 27.5825,227.3787 L27.5825,227.3797 C27.5825,227.3797 2.4945,230.2597 0.6295,226.5187 C-1.2335,222.7767 1.2475,198.7417 5.3285,177.0877 C9.4105,155.4347 13.6045,142.9637 18.5925,136.2747 C23.5815,129.5857 49.9355,124.3737 49.9355,124.3737 L27.5815,197.5447 C27.5815,197.5447 24.3745,204.0697 24.5395,206.8857 C24.5885,207.7437 25.1835,208.1497 25.9855,208.3027 C26.5475,208.2527 27.7845,208.1477 29.4905,208.0147 L30.6865,207.9227 Z" id="Fill-65" fill="#141527"></path>
                                </g>
                            </g>
                            <rect id="Rectangle" fill="url(#linearGradient-9)" mask="url(#mask-2)" x="0" y="207.08975" width="378" height="123"></rect>
                        </g>
                    </g>
                </g>
            </g>
        </g>
    </g>
</svg>