<?xml version="1.0" encoding="UTF-8"?>
<svg width="63px" height="20px" viewBox="0 0 63 20" version="1.1" xmlns="http://www.w3.org/2000/svg" xmlns:xlink="http://www.w3.org/1999/xlink">
    <!-- Generator: sketchtool 58 (101010) - https://sketch.com -->
    <title>F26ADB1F-9A73-4604-A4FA-1A8409839256</title>
    <desc>Created with sketchtool.</desc>
    <defs>
        <polygon id="path-1" points="0 20 63 20 63 0 0 0"></polygon>
    </defs>
    <g id="Home-screen" stroke="none" stroke-width="1" fill="none" fill-rule="evenodd">
        <g id="DG_Home_Sep-2019_v2" transform="translate(-723.000000, -835.000000)">
            <g id="Section-1">
                <g id="Trusted-Clients" transform="translate(0.000000, 706.000000)">
                    <g id="logos" transform="translate(219.000000, 118.000000)">
                        <g id="dell_logo-copy" style="mix-blend-mode: luminosity;" transform="translate(504.000000, 11.000000)">
                            <mask id="mask-2" fill="white">
                                <use xlink:href="#path-1"></use>
                            </mask>
                            <g id="Clip-2"></g>
                            <path d="M51.1068745,1.06803176 L57.4385529,1.06803176 L57.4385529,13.202641 L63,13.202641 L63,18.8970652 L51.1068745,18.8970652 L51.1068745,1.06803176 Z M6.0171816,6.65483843 L7.66057036,6.65483843 L8.39534926,6.72580786 L8.99003413,6.93929787 L9.51495789,7.25982374 L9.96954872,7.68680376 L10.2846173,8.18475321 L10.529353,8.71876909 L10.6688753,9.3237544 L10.7043276,9.92873971 L10.6688753,10.5331433 L10.529353,11.1387103 L10.2846173,11.6721445 L9.93466817,12.1706757 L9.51495789,12.5976557 L8.99003413,12.9175998 L8.3604687,13.1316716 L7.66057036,13.202641 L6.0171816,13.202641 L6.0171816,6.65483843 Z M0,1.06803176 L7.66057036,1.06803176 L8.50056274,1.10351648 L9.30510274,1.17448591 L10.0747622,1.3524912 L10.8089693,1.52991478 L11.4734153,1.81495593 L12.1035525,2.09941537 L12.6976656,2.45542596 L13.2574699,2.84692126 L13.7475131,3.274483 L14.2369845,3.73636602 L14.6572666,4.23489718 L15.0415245,4.76891306 L15.6716617,5.90733254 L15.9158256,6.51231785 L16.1262525,7.11730316 L27.0055547,0 L30.9579219,2.7049824 L22.4922397,8.25630435 L23.856584,9.18123382 L32.3920273,3.66539659 L36.06535,6.15688898 L27.6351202,11.8152468 L29.0686538,12.7046915 L37.6395494,7.15278788 L37.6395494,1.06803176 L43.9357755,1.06803176 L43.9357755,13.202641 L49.532675,13.202641 L49.532675,18.8970652 L37.6395494,18.8970652 L37.6395494,13.0601204 L27.0404353,20 L16.2308942,12.562171 L16.0210391,13.202641 L15.8111839,13.8076263 L15.4966871,14.4126116 L15.1816185,15.0170152 L14.7967888,15.5510311 L14.3770785,16.085047 L13.9224877,16.5835781 L12.873212,17.4381199 L12.2430747,17.7935488 L11.6135093,18.1140746 L10.9141828,18.3985341 L10.1794039,18.6120241 L9.40974441,18.7539629 L8.6052044,18.8609988 L7.73090328,18.8970652 L0,18.8970652 L0,1.06803176 L0,1.06803176 Z" id="Fill-1" fill="#007AB5" mask="url(#mask-2)"></path>
                        </g>
                    </g>
                </g>
            </g>
        </g>
    </g>
</svg>