<?xml version="1.0" encoding="UTF-8"?>
<svg width="230px" height="169px" viewBox="0 0 230 169" version="1.1" xmlns="http://www.w3.org/2000/svg" xmlns:xlink="http://www.w3.org/1999/xlink">
    <!-- Generator: sketchtool 52.6 (67491) - http://www.bohemiancoding.com/sketch -->
    <title>67E5A93B-58BB-48BF-8973-C85ED69D1C8E</title>
    <desc>Created with sketchtool.</desc>
    <g id="Onboarding" stroke="none" stroke-width="1" fill="none" fill-rule="evenodd">
        <g id="SIGN-UP_complete" transform="translate(-383.000000, -289.000000)">
            <g id="Group" transform="translate(375.000000, 252.000000)">
                <g id="done_Illustration">
                    <path d="M87.5430186,188.100314 L83.5440406,186.523421 C59.8201387,177.168516 45.4149584,152.964226 48.5058338,127.650509 L48.5058338,127.650509 C51.8352047,100.383557 66.9845894,75.9593992 89.9327123,60.86122 L92.6121771,59.098329 C116.190173,43.5857396 146.739925,43.5999109 170.303519,59.1343682 L173.134044,61.0004108 C196.090982,76.1349263 211.268371,100.564088 214.666534,127.850111 L214.666534,127.850111 C217.817171,153.148599 203.41598,177.364087 179.68301,186.674626 L175.851967,188.177559 C147.463938,199.314297 115.911521,199.286697 87.5430186,188.100314 Z" id="Star-Copy-9" fill="#7ED321" opacity="0.200000003" transform="translate(131.593609, 122.001706) scale(-1, 1) rotate(41.000000) translate(-131.593609, -122.001706) "></path>
                    <path d="M83.5430186,178.100314 L79.5440406,176.523421 C55.8201387,167.168516 41.4149584,142.964226 44.5058338,117.650509 L44.5058338,117.650509 C47.8352047,90.3835574 62.9845894,65.9593992 85.9327123,50.86122 L88.6121771,49.098329 C112.190173,33.5857396 142.739925,33.5999109 166.303519,49.1343682 L169.134044,51.0004108 C192.090982,66.1349263 207.268371,90.5640876 210.666534,117.850111 L210.666534,117.850111 C213.817171,143.148599 199.41598,167.364087 175.68301,176.674626 L171.851967,178.177559 C143.463938,189.314297 111.911521,189.286697 83.5430186,178.100314 Z" id="Star-Copy" fill="#7ED321" transform="translate(127.593609, 112.001706) scale(-1, 1) rotate(41.000000) translate(-127.593609, -112.001706) "></path>
                    <path d="M133.75,139 L118,139 L118,133.75 L133.75,133.75 L133.75,97 L139,97 L139,139 L133.75,139 Z" id="Combined-Shape-Copy-3" fill="#8BD737" transform="translate(128.500000, 118.000000) rotate(40.000000) translate(-128.500000, -118.000000) "></path>
                    <path d="M133.75,133 L118,133 L118,127.75 L133.75,127.75 L133.75,91 L139,91 L139,133 L133.75,133 Z" id="Combined-Shape-Copy-2" fill="#FFFFFF" transform="translate(128.500000, 112.000000) rotate(40.000000) translate(-128.500000, -112.000000) "></path>
                    <path d="M217.380951,81.7090692 L216.714588,81.4461176 C212.73421,79.8754301 210.31752,75.8140541 210.835787,71.5664819 L210.835787,71.5664819 C211.394022,66.9913547 213.934997,62.8928346 217.78459,60.3582639 L218.230863,60.0644382 C222.183591,57.4619634 227.306641,57.4643405 231.256952,60.0704825 L231.728562,60.3816183 C235.579629,62.9222854 238.125298,67.0216463 238.695066,71.5999721 L238.695066,71.5999721 C239.223355,75.8449912 236.807329,79.9082424 232.825426,81.4714824 L232.187235,81.7220272 C227.427803,83.5905141 222.137105,83.5858838 217.380951,81.7090692 Z" id="Star-Copy-7" fill="#F3F8FA" fill-rule="nonzero" transform="translate(224.766672, 70.618696) rotate(41.000000) translate(-224.766672, -70.618696) "></path>
                    <path d="M22.3202547,199.269124 L20.9867178,198.744049 C13.1843327,195.671886 8.44591788,187.713097 9.46372218,179.389668 L9.46372218,179.389668 C10.5601555,170.423224 15.5456329,162.393145 23.095377,157.433241 L23.9897634,156.845663 C31.7568456,151.742976 41.8144005,151.747639 49.5767481,156.857525 L50.5208436,157.479015 C58.0735086,162.450869 63.0682173,170.482588 64.1873059,179.455309 L64.1873059,179.455309 C65.2247885,187.773722 60.487705,195.736207 52.6823527,198.793794 L51.4040654,199.294537 C42.0537651,202.957326 31.6641398,202.948248 22.3202547,199.269124 Z" id="Star-Copy-8" fill="#F3F8FA" fill-rule="nonzero" transform="translate(36.827960, 177.532008) rotate(41.000000) translate(-36.827960, -177.532008) "></path>
                </g>
            </g>
        </g>
    </g>
</svg>