<?xml version="1.0" encoding="UTF-8"?>
<svg width="24px" height="24px" viewBox="0 0 24 24" version="1.1" xmlns="http://www.w3.org/2000/svg" xmlns:xlink="http://www.w3.org/1999/xlink">
    <!-- Generator: Sketch 48.2 (47327) - http://www.bohemiancoding.com/sketch -->
    <title>2.Excel_s</title>
    <desc>Created with Sketch.</desc>
    <defs></defs>
    <g id="DG_Pricing_v2" stroke="none" stroke-width="1" fill="none" fill-rule="evenodd" transform="translate(-345.000000, -706.000000)">
        <g id="basic-difference" transform="translate(170.000000, 581.000000)">
            <g id="Export" transform="translate(175.000000, 125.000000)">
                <g id="2.Excel_s">
                    <rect id="Rectangle-3-Copy" stroke="#E3E5EC" x="0.5" y="0.5" width="23" height="23" rx="4"></rect>
                    <path d="M16.7943869,11.4 C16.7943869,11.7318 17.0594491,12 17.3910766,12 L17.3928757,12 C17.7239036,12 17.9937632,11.7318 17.9937632,11.4 L17.9937632,10.0392 C17.9937632,9.8862 17.9313957,9.7374 17.8258506,9.6264 L14.555751,6.1866 C14.4424099,6.0672 14.2834926,6 14.1197777,6 L7.19337944,6 C6.53072402,6 6,6.5376 6,7.2 L6,11.4 C6,11.7318 6.26506217,12 6.59668972,12 L6.59848879,12 C6.92951665,12 7.19937632,11.7318 7.19937632,11.4 L7.19937632,7.8 C7.19937632,7.4682 7.46144005,7.2 7.7930676,7.2 L13.1962579,7.2 L13.1962579,9.6 C13.1962579,10.2624 13.726982,10.8 14.3896374,10.8 L16.7943869,10.8 L16.7943869,11.4 Z M17.400072,16.2 C17.7310998,16.2 17.9997601,15.9318 17.9997601,15.6 C17.9997601,15.2682 17.7310998,15 17.400072,15 L15.5950106,15 L15.5950106,14.4 L17.400072,14.4 C17.7310998,14.4 17.9997601,14.1318 17.9997601,13.8 C17.9997601,13.4682 17.7310998,13.2 17.400072,13.2 L15.0013193,13.2 C14.6702914,13.2 14.3956343,13.4682 14.3956343,13.8 L14.3956343,17.4 C14.3956343,17.7318 14.6702914,18 15.0013193,18 L17.400072,18 C17.7310998,18 17.9997601,17.7318 17.9997601,17.4 C17.9997601,17.0682 17.7310998,16.8 17.400072,16.8 L15.5950106,16.8 L15.5950106,16.2 L17.400072,16.2 Z M9.00443769,14.4 C9.33546556,14.4 9.60412585,14.1318 9.60412585,13.8 C9.60412585,13.4682 9.33546556,13.2 9.00443769,13.2 L6.60568504,13.2 C6.27465718,13.2 6,13.4682 6,13.8 L6,17.4 C6,17.7318 6.27465718,18 6.60568504,18 L9.00443769,18 C9.33546556,18 9.60412585,17.7318 9.60412585,17.4 C9.60412585,17.0682 9.33546556,16.8 9.00443769,16.8 L7.19937632,16.8 L7.19937632,16.2 L9.00443769,16.2 C9.33546556,16.2 9.60412585,15.9318 9.60412585,15.6 C9.60412585,15.2682 9.33546556,15 9.00443769,15 L7.19937632,15 L7.19937632,14.4 L9.00443769,14.4 Z M13.4013513,13.977 L12.5905729,15.6 L13.4013513,17.223 C13.5800584,17.5806 13.3203934,18 12.9216008,18 C12.7189062,18 12.5330028,17.8854 12.4418502,17.7036 L11.9908847,16.8 L11.5393196,17.7036 C11.448167,17.8854 11.2622636,18 11.059569,18 C10.6607764,18 10.4011114,17.5806 10.5798185,17.223 L11.3911966,15.6 L10.5798185,13.977 C10.4011114,13.6194 10.6607764,13.2 11.059569,13.2 C11.2622636,13.2 11.448167,13.3146 11.5393196,13.4964 L11.9908847,14.4 L12.4418502,13.4964 C12.5330028,13.3146 12.7189062,13.2 12.9216008,13.2 C13.3203934,13.2 13.5800584,13.6194 13.4013513,13.977 Z" id="ic_excel" fill="#1E2533"></path>
                </g>
            </g>
        </g>
    </g>
</svg>