<?xml version="1.0" encoding="UTF-8"?>
<svg width="15px" height="15px" viewBox="0 0 15 15" version="1.1" xmlns="http://www.w3.org/2000/svg" xmlns:xlink="http://www.w3.org/1999/xlink">
    <!-- Generator: Sketch 47.1 (45422) - http://www.bohemiancoding.com/sketch -->
    <title>ic_excel</title>
    <desc>Created with Sketch.</desc>
    <defs></defs>
    <g id="Page-1" stroke="none" stroke-width="1" fill="none" fill-rule="evenodd">
        <g id="DG_Home_Company_Location-filter" transform="translate(-543.000000, -474.000000)" fill="#4A90E2">
            <g id="HEading" transform="translate(445.000000, 312.000000)">
                <g id="Filter-apply" transform="translate(1.000000, 80.000000)">
                    <g id="Action" transform="translate(0.000000, 74.000000)">
                        <g id="Export">
                            <g id="Excel" transform="translate(89.000000, 0.000000)">
                                <path d="M21.4929836,14.75 C21.4929836,15.16475 21.8243114,15.5 22.2388458,15.5 L22.2410946,15.5 C22.6548795,15.5 22.9922041,15.16475 22.9922041,14.75 L22.9922041,13.049 C22.9922041,12.85775 22.9142446,12.67175 22.7823132,12.533 L18.6946888,8.23325 C18.5530124,8.084 18.3543657,8 18.1497221,8 L9.4917243,8 C8.66340503,8 8,8.672 8,9.5 L8,14.75 C8,15.16475 8.33132771,15.5 8.74586215,15.5 L8.74811098,15.5 C9.16189581,15.5 9.49922041,15.16475 9.49922041,14.75 L9.49922041,10.25 C9.49922041,9.83525 9.82680006,9.5 10.2413345,9.5 L16.9953224,9.5 L16.9953224,12.5 C16.9953224,13.328 17.6587275,14 18.4870467,14 L21.4929836,14 L21.4929836,14.75 Z M22.25009,20.75 C22.6638748,20.75 22.9997002,20.41475 22.9997002,20 C22.9997002,19.58525 22.6638748,19.25 22.25009,19.25 L19.9937632,19.25 L19.9937632,18.5 L22.25009,18.5 C22.6638748,18.5 22.9997002,18.16475 22.9997002,17.75 C22.9997002,17.33525 22.6638748,17 22.25009,17 L19.2516491,17 C18.8378643,17 18.4945428,17.33525 18.4945428,17.75 L18.4945428,22.25 C18.4945428,22.66475 18.8378643,23 19.2516491,23 L22.25009,23 C22.6638748,23 22.9997002,22.66475 22.9997002,22.25 C22.9997002,21.83525 22.6638748,21.5 22.25009,21.5 L19.9937632,21.5 L19.9937632,20.75 L22.25009,20.75 Z M11.7555471,18.5 C12.1693319,18.5 12.5051573,18.16475 12.5051573,17.75 C12.5051573,17.33525 12.1693319,17 11.7555471,17 L8.7571063,17 C8.34332147,17 8,17.33525 8,17.75 L8,22.25 C8,22.66475 8.34332147,23 8.7571063,23 L11.7555471,23 C12.1693319,23 12.5051573,22.66475 12.5051573,22.25 C12.5051573,21.83525 12.1693319,21.5 11.7555471,21.5 L9.49922041,21.5 L9.49922041,20.75 L11.7555471,20.75 C12.1693319,20.75 12.5051573,20.41475 12.5051573,20 C12.5051573,19.58525 12.1693319,19.25 11.7555471,19.25 L9.49922041,19.25 L9.49922041,18.5 L11.7555471,18.5 Z M17.2516891,17.97125 L16.2382161,20 L17.2516891,22.02875 C17.475073,22.47575 17.1504917,23 16.652001,23 C16.3986327,23 16.1662535,22.85675 16.0523128,22.6295 L15.4886059,21.5 L14.9241494,22.6295 C14.8102087,22.85675 14.5778295,23 14.3244613,23 C13.8259705,23 13.5013893,22.47575 13.7247731,22.02875 L14.7389957,20 L13.7247731,17.97125 C13.5013893,17.52425 13.8259705,17 14.3244613,17 C14.5778295,17 14.8102087,17.14325 14.9241494,17.3705 L15.4886059,18.5 L16.0523128,17.3705 C16.1662535,17.14325 16.3986327,17 16.652001,17 C17.1504917,17 17.475073,17.52425 17.2516891,17.97125 L17.2516891,17.97125 Z" id="ic_excel"></path>
                            </g>
                        </g>
                    </g>
                </g>
            </g>
        </g>
    </g>
</svg>