<?xml version="1.0" encoding="UTF-8"?>
<svg width="189px" height="137px" viewBox="0 0 189 137" version="1.1" xmlns="http://www.w3.org/2000/svg" xmlns:xlink="http://www.w3.org/1999/xlink">
    <!-- Generator: Sketch 48.2 (47327) - http://www.bohemiancoding.com/sketch -->
    <title>Illustration_Executives_not found</title>
    <desc>Created with Sketch.</desc>
    <defs>
        <path d="M27.0598474,75.2183789 L22.1113938,48.43075 C22.0140742,48.0134304 21.5975793,47.7544613 21.1802598,47.8517809 C21.1233525,47.8649768 21.0672701,47.8847706 21.0144866,47.9111624 C14.4948989,51.3577603 8.32005358,55.4204407 2.57324945,60.0431211 C0.93613605,61.4031211 -0.00819384689,63.4237397 5.35757876e-05,65.5515747 L5.35757876e-05,72.9742552 C5.35757876e-05,74.4505438 1.19675461,75.6472448 2.67221852,75.6472448 L26.6804659,75.6472448 C26.8948989,75.6439459 27.0656206,75.467451 27.0623216,75.253018 C27.0623216,75.2414717 27.0614969,75.2299253 27.0598474,75.2183789 Z" id="path-1"></path>
        <path d="M51.3814969,22.2699253 C52.7423216,22.1379665 54.3513938,22.9297191 52.8412907,28.2905438 C51.7369608,32.2080696 50.706033,33.3049768 49.9217031,33.3627088 C49.5868577,35.3148737 48.8932495,37.1878634 47.8763422,38.888482 L47.8763422,43.5400284 C47.870569,43.7891005 47.7526309,44.0225026 47.5546928,44.1750799 C40.5182309,49.3916933 37,52 37,52 C37,52 34.6006186,51.9969356 34.5,51.9194098 C34.4983505,51.9177603 31.1165814,49.3470387 24.3546928,44.2072448 C24.1419092,44.0521933 24.0157237,43.8039459 24.0165484,43.5400284 L24.0165484,38.9544613 C22.9996412,37.23075 22.3068577,35.3354923 21.9711876,33.3627088 C21.1876824,33.2959046 20.1567546,32.1998222 19.0516,28.2905438 C17.5340742,22.9379665 19.1423216,22.1453892 20.5113938,22.2699253 C20.2540742,21.5532242 20.0553113,20.8167294 19.9175793,20.0678634 C19.3823216,17.7478634 19.3823216,15.336317 19.9175793,13.016317 C20.6029402,10.2773479 22.0297443,7.78002835 24.0412907,5.79982217 C25.1753113,4.59404897 26.4553113,3.53590464 27.8516,2.6493067 C28.990569,1.84600773 30.2375793,1.20765722 31.5546928,0.751574743 C32.6318062,0.373018042 33.7559299,0.144564434 34.8948989,0.0761108259 C37.8351051,-0.233167525 40.7975793,0.405182991 43.3493319,1.89879124 C45.0458268,2.77466753 46.4718062,4.09837887 47.4730433,5.72559536 C47.4730433,5.72559536 54.2845897,6.20394588 51.9761361,20.0678634 C51.8375793,20.8167294 51.6379917,21.5532242 51.3814969,22.2699253 Z" id="path-2"></path>
    </defs>
    <g id="DG_Home_Company_no-result" stroke="none" stroke-width="1" fill="none" fill-rule="evenodd" transform="translate(-795.000000, -1016.000000)">
        <g id="Illustration_Executives_not-found" transform="translate(792.000000, 1010.000000)">
            <path d="M21.2253445,32.3250632 L160.225345,32.3250632 C166.576619,32.3250632 171.725345,37.4737886 171.725345,43.8250632 C171.725345,50.1763378 166.576619,55.3250632 160.225345,55.3250632 L21.2253445,55.3250632 C14.8740699,55.3250632 9.72534454,50.1763378 9.72534454,43.8250632 C9.72534454,37.4737886 14.8740699,32.3250632 21.2253445,32.3250632 Z M40.7028877,64.8081779 L179.702888,64.8081779 C186.054162,64.8081779 191.202888,69.9569033 191.202888,76.3081779 C191.202888,82.6594525 186.054162,87.8081779 179.702888,87.8081779 L40.7028877,87.8081779 C34.351613,87.8081779 29.2028877,82.6594525 29.2028877,76.3081779 C29.2028877,69.9569033 34.351613,64.8081779 40.7028877,64.8081779 Z M34.3377044,96.027326 L173.337704,96.027326 C179.688979,96.027326 184.837704,101.176051 184.837704,107.527326 C184.837704,113.878601 179.688979,119.027326 173.337704,119.027326 L34.3377044,119.027326 C27.9864297,119.027326 22.8377044,113.878601 22.8377044,107.527326 C22.8377044,101.176051 27.9864297,96.027326 34.3377044,96.027326 Z" id="Combined-Shape" fill="#F1F1F1" transform="translate(100.464116, 75.676195) rotate(-23.000000) translate(-100.464116, -75.676195) "></path>
            <circle id="Oval-2" fill="#EEEEEE" cx="107" cy="72" r="66"></circle>
            <rect id="Rectangle-7" fill="#55ACEE" x="50" y="23" width="21" height="3" rx="1.5"></rect>
            <rect id="Rectangle-7-Copy" fill="#55ACEE" x="44" y="28" width="21" height="3" rx="1.5"></rect>
            <rect id="Rectangle-8" fill="#0164CF" x="169" y="20" width="18" height="3" rx="1.5"></rect>
            <path d="M170.791667,118.791667 L170.791667,114.958333 C170.791667,114.42906 171.220727,114 171.75,114 C172.279273,114 172.708333,114.42906 172.708333,114.958333 L172.708333,118.791667 L176.541667,118.791667 C177.07094,118.791667 177.5,119.220727 177.5,119.75 C177.5,120.279273 177.07094,120.708333 176.541667,120.708333 L172.708333,120.708333 L172.708333,124.541667 C172.708333,125.07094 172.279273,125.5 171.75,125.5 C171.220727,125.5 170.791667,125.07094 170.791667,124.541667 L170.791667,120.708333 L166.958333,120.708333 C166.42906,120.708333 166,120.279273 166,119.75 C166,119.220727 166.42906,118.791667 166.958333,118.791667 L170.791667,118.791667 Z" id="Combined-Shape" fill="#3C5A99"></path>
            <path d="M73.7916667,10.7916667 L73.7916667,6.95833333 C73.7916667,6.42906045 74.2207271,6 74.75,6 C75.2792729,6 75.7083333,6.42906045 75.7083333,6.95833333 L75.7083333,10.7916667 L79.5416667,10.7916667 C80.0709396,10.7916667 80.5,11.2207271 80.5,11.75 C80.5,12.2792729 80.0709396,12.7083333 79.5416667,12.7083333 L75.7083333,12.7083333 L75.7083333,16.5416667 C75.7083333,17.0709396 75.2792729,17.5 74.75,17.5 C74.2207271,17.5 73.7916667,17.0709396 73.7916667,16.5416667 L73.7916667,12.7083333 L69.9583333,12.7083333 C69.4290604,12.7083333 69,12.2792729 69,11.75 C69,11.2207271 69.4290604,10.7916667 69.9583333,10.7916667 L73.7916667,10.7916667 Z" id="Combined-Shape-Copy" fill="#8D95A5"></path>
            <circle id="Oval-3" fill="#FFD794" cx="163" cy="38" r="6"></circle>
            <circle id="Oval-4" fill="#DA4B42" cx="50" cy="116" r="4"></circle>
            <g id="ic_cexecutives" transform="translate(67.000000, 32.000000)">
                <g id="ic_SP">
                    <path d="M67.3237649,56.8348737 C66.5328371,56.0472448 65.2536618,56.0472448 64.4619092,56.8348737 L59.3155175,61.9317809 L57.9885072,60.6121933 C57.1967546,59.8245644 55.9175793,59.8245644 55.1258268,60.6121933 C54.3390226,61.4031211 54.3390226,62.6822964 55.1258268,63.474049 L56.4536618,64.801884 L57.8309814,66.2361108 C58.622734,67.0237397 59.9019092,67.0237397 60.6928371,66.2361108 L62.1278886,64.8101314 L67.2742804,59.6967294 C68.0759299,58.9181727 68.0973732,57.6398222 67.3237649,56.8348737 Z M78.5567546,59.8113686 C79.5340742,60.6732242 79.6272701,62.1643582 78.7654144,63.1408531 C78.7010845,63.2150799 78.6309814,63.2843582 78.5567546,63.3495129 L77.8565484,63.9606469 C77.0961361,64.6286881 76.8470639,65.707451 77.2379917,66.6410593 L77.5918062,67.4658015 C78.0957237,68.667451 77.5291257,70.0488943 76.3274763,70.5528119 C76.2375793,70.59075 76.1443835,70.6229149 76.0495381,70.6493067 L75.1588165,70.8967294 C74.1806721,71.1688943 73.4870639,72.0356985 73.4351051,73.0493067 L73.3864453,73.9721933 C73.3410845,75.2431211 72.2977855,76.2501314 71.0268577,76.2493067 C70.8866515,76.2616778 70.7464453,76.2616778 70.6062391,76.2493067 L69.6907752,76.0843582 C68.6969608,75.9103376 67.7023216,76.3870387 67.2165484,77.2711624 L66.7711876,78.0959046 C66.1452082,79.2389974 64.7126309,79.6579665 63.5695381,79.0328119 C63.4821154,78.9841521 63.3963422,78.9305438 63.3163422,78.8719871 L62.565002,78.3276572 C61.7419092,77.7354923 60.6334556,77.7354923 59.8111876,78.3276572 L59.0524247,78.8637397 C57.9885072,79.6150799 56.5163422,79.3627088 55.7641773,78.2987912 C55.7056206,78.216317 55.6520123,78.1288943 55.6041773,78.0389974 L55.1588165,77.2142552 C54.6779917,76.3235335 53.6825278,75.8385851 52.6845897,76.0101314 L51.7699505,76.1660077 C51.6355175,76.1775541 51.499435,76.1775541 51.365002,76.1660077 C50.1064453,76.1635335 49.0713938,75.1721933 49.0144866,73.9152861 L48.9732495,72.9915747 C48.9262391,71.976317 48.2351051,71.1062139 47.2577855,70.83075 L46.3670639,70.5750799 C45.1142804,70.2187912 44.3868577,68.914049 44.7431464,67.6612655 C44.7703629,67.5664201 44.8025278,67.4732242 44.8412907,67.3833273 L45.205002,66.5585851 C45.6025278,65.6258015 45.3600536,64.5437397 44.6021154,63.8691005 L43.9093319,63.2505438 C42.9328371,62.3895129 42.8396412,60.8992036 43.7006721,59.921884 C43.7658268,59.8476572 43.8359299,59.7775541 43.9093319,59.7123995 L44.6103629,59.1029149 C45.3707752,58.434049 45.6198474,57.3561108 45.2289196,56.4225026 L44.8742804,55.5977603 C44.3711876,54.3961108 44.9369608,53.0138428 46.1386103,52.51075 C46.2293319,52.4728119 46.3217031,52.4406469 46.4165484,52.4142552 L47.3072701,52.1668325 C48.2854144,51.8946675 48.9798474,51.0278634 49.0309814,50.0134304 L49.0804659,49.0905438 C49.1472701,47.7891005 50.2557237,46.7878634 51.5563422,46.8538428 C51.6553113,46.859616 51.7542804,46.8703376 51.8516,46.8876572 L52.7678886,47.0534304 C53.7617031,47.227451 54.7555175,46.7499253 55.2421154,45.8658015 L55.6874763,45.0410593 C56.3118062,43.8979665 57.746033,43.4789974 58.888301,44.1041521 C58.9765484,44.1528119 59.0606721,44.2064201 59.1423216,44.2658015 L59.8928371,44.8101314 C60.7159299,45.4014717 61.8252082,45.4014717 62.6474763,44.8101314 L63.4062391,44.274049 C64.4701567,43.521884 65.9423216,43.7750799 66.6936618,44.8381727 C66.7530433,44.9214717 66.8066515,45.0088943 66.8544866,45.0987912 L67.2998474,45.9235335 C67.7806721,46.8142552 68.7761361,47.2983789 69.7740742,47.1268325 L70.6887134,46.9709562 C71.9720123,46.7458015 73.1942804,47.6043582 73.419435,48.8876572 C73.4359299,48.9841521 73.4474763,49.0822964 73.4524247,49.1812655 L73.5010845,50.0472448 C73.5480948,51.0616778 74.2392288,51.9326057 75.2165484,52.2080696 L76.1072701,52.4629149 C77.3592288,52.8241521 78.0825278,54.1305438 77.7212907,55.3825026 C77.6948989,55.4756985 77.662734,55.5664201 77.6247958,55.6546675 L77.2619092,56.4794098 C76.8635587,57.4121933 77.106033,58.4950799 77.8639711,59.1688943 L78.5567546,59.8113686 Z M51.9761361,20.0678634 C51.8375793,20.8167294 51.6379917,21.5532242 51.3814969,22.2699253 C52.7423216,22.1379665 54.3513938,22.9297191 52.8412907,28.2905438 C51.7369608,32.2080696 50.706033,33.3049768 49.9217031,33.3627088 C49.5868577,35.3148737 48.8932495,37.1878634 47.8763422,38.888482 L47.8763422,43.5400284 C47.870569,43.7891005 47.7526309,44.0225026 47.5546928,44.1750799 L37.2948989,51.5969356 C37.1909814,51.6711624 37.1662391,51.8154923 37.2396412,51.9194098 C37.2412907,51.921884 37.2437649,51.925183 37.2454144,51.9276572 L40.8000536,56.4464201 C41.0004659,56.7144613 41.019435,57.0756985 40.8495381,57.3627088 L38.466033,61.1886881 C38.4478886,61.2398222 38.4478886,61.2950799 38.466033,61.3462139 L40.5113938,75.2678634 C40.5386103,75.4666263 40.4000536,75.6488943 40.2012907,75.6769356 C40.1872701,75.6785851 40.1716,75.6802345 40.1567546,75.6802345 L31.7773732,75.6802345 C31.5769608,75.6777603 31.4169608,75.5119871 31.419435,75.3123995 C31.419435,75.2975541 31.4210845,75.281884 31.422734,75.2678634 L33.4680948,61.3792036 C33.4862391,61.3280696 33.4862391,61.2728119 33.4680948,61.2216778 L31.0598474,57.3956985 C30.8899505,57.1086881 30.9097443,56.747451 31.1093319,56.4794098 L34.6639711,51.9606469 C34.7423216,51.8600284 34.7233525,51.714049 34.622734,51.6365232 C34.6202598,51.634049 34.6177855,51.6323995 34.6144866,51.6299253 L24.3546928,44.2072448 C24.1419092,44.0521933 24.0157237,43.8039459 24.0165484,43.5400284 L24.0165484,38.9544613 C22.9996412,37.23075 22.3068577,35.3354923 21.9711876,33.3627088 C21.1876824,33.2959046 20.1567546,32.1998222 19.0516,28.2905438 C17.5340742,22.9379665 19.1423216,22.1453892 20.5113938,22.2699253 C20.2540742,21.5532242 20.0553113,20.8167294 19.9175793,20.0678634 C19.3823216,17.7478634 19.3823216,15.336317 19.9175793,13.016317 C20.6029402,10.2773479 22.0297443,7.78002835 24.0412907,5.79982217 C25.1753113,4.59404897 26.4553113,3.53590464 27.8516,2.6493067 C28.990569,1.84600773 30.2375793,1.20765722 31.5546928,0.751574743 C32.6318062,0.373018042 33.7559299,0.144564434 34.8948989,0.0761108259 C37.8351051,-0.233167525 40.7975793,0.405182991 43.3493319,1.89879124 C45.0458268,2.77466753 46.4718062,4.09837887 47.4730433,5.72559536 C47.4730433,5.72559536 54.2845897,6.20394588 51.9761361,20.0678634 Z" id="ic_sales-professionals" fill="#CECECE"></path>
                    <g id="Path">
                        <use fill="#EEEEEE" fill-rule="evenodd" xlink:href="#path-1"></use>
                        <path stroke="#CECECE" stroke-width="3" d="M25.3367125,74.1474126 L20.8245341,49.7133464 C14.7185897,53.010766 8.92512783,56.8587722 3.53175254,61.1969287 C2.23891289,62.27093 1.49353306,63.8663749 1.50005358,65.5515747 L1.50005358,72.9742552 C1.50005358,73.6220607 2.02512579,74.1472448 2.67221852,74.1472448 L25.3367125,74.1474126 Z"></path>
                    </g>
                    <g id="Path-Copy-5">
                        <use fill="#EEEEEE" fill-rule="evenodd" xlink:href="#path-2"></use>
                        <path stroke="#CECECE" stroke-width="3" d="M22.2261387,31.8790042 L23.2552225,31.9667472 L23.4499346,33.1110992 C23.7551176,34.9047059 24.384924,36.6268089 25.3084794,38.1922839 L25.5165484,38.5449719 L25.5165484,38.9544613 L25.5165416,43.2062404 C28.7707091,45.6797751 31.2219236,47.5430225 32.8701902,48.7959863 C34.0327494,49.6797421 34.0327494,49.6797421 34.772833,50.2423938 C34.9014193,50.3394292 34.9971684,50.4116846 35.0732006,50.4694247 C35.2582532,50.477071 35.4969488,50.4833924 35.7749949,50.4883281 C36.0083072,50.4924696 36.2571383,50.4954443 36.5080822,50.4974318 C36.8024788,50.2791754 37.2967706,49.9127229 38.7453433,48.8387963 C41.7667903,46.5987897 41.8227397,46.5573105 46.3763422,43.1817218 L46.3763422,38.4742163 L46.5889474,38.1186673 C47.5112415,36.5762744 48.1398491,34.8782202 48.4432935,33.1091244 L48.6416195,31.9528736 L49.6759179,31.8767422 C49.757825,31.8023945 49.8684713,31.6678788 49.9983045,31.465133 C50.4374893,30.7793078 50.9143165,29.5978222 51.3974808,27.8838337 C52.0053642,25.7258644 52.0703738,24.3915332 51.8203574,23.8365385 C51.7777888,23.7420432 51.7712222,23.7391696 51.5262723,23.7629223 L49.1723216,23.9911842 L49.9692152,21.7644942 C50.1998077,21.1201698 50.3778766,20.4613334 50.4965071,19.8214933 C51.5543981,13.4681005 50.74418,9.80859019 48.9298626,8.08386371 C48.2780483,7.46423597 47.6700917,7.24312763 47.3679624,7.22191017 L46.5993134,7.1679307 L46.1955113,6.51166925 C45.3370561,5.11650264 44.1146749,3.98204424 42.5916011,3.19333519 C40.3162604,1.86151811 37.6743208,1.29202104 34.9848886,1.57340901 C33.9882275,1.63330972 33.0010518,1.83318864 32.045511,2.16900108 C30.8595822,2.5796577 29.7386214,3.15395869 28.6556545,3.91559906 C27.3647415,4.73528689 26.1817828,5.71335531 25.0935909,6.86877689 C23.2787931,8.65529986 21.9912187,10.9086508 21.3791837,13.3535304 C20.8951202,15.451636 20.8951202,17.6325444 21.3928353,19.7965333 C21.5156933,20.4645281 21.6930998,21.1222796 21.9231593,21.7630543 L22.7179815,23.976838 L20.375509,23.7637577 C20.1219509,23.7406931 20.1101228,23.7458903 20.0667469,23.8422151 C19.8174197,24.3958957 19.8839548,25.7271178 20.4950294,27.8824857 C20.9784905,29.5926391 21.4554498,30.7720146 21.8951556,31.4585615 C22.0285447,31.6668322 22.1421674,31.804127 22.2261387,31.8790042 Z M25.5165411,43.5404536 L25.5165411,43.5447158 C25.5165455,43.5432945 25.5165455,43.5418737 25.5165411,43.5404535 Z M35.3807777,50.7098954 C35.3909603,50.7182172 35.4013654,50.7267534 35.4121156,50.7356001 L35.4155072,50.7311983 C35.4034954,50.7238295 35.3919265,50.7167325 35.3807777,50.7098954 Z M34.7851001,50.4525634 C34.7843321,50.4524605 34.783823,50.4524003 34.7835283,50.4523703 C34.7846676,50.4524863 34.7858363,50.4526032 34.787034,50.4527208 Z"></path>
                    </g>
                </g>
            </g>
        </g>
    </g>
</svg>