<?xml version="1.0" encoding="UTF-8"?>
<svg width="61px" height="60px" viewBox="0 0 61 60" version="1.1" xmlns="http://www.w3.org/2000/svg" xmlns:xlink="http://www.w3.org/1999/xlink">
    <!-- Generator: Sketch 47 (45396) - http://www.bohemiancoding.com/sketch -->
    <title>ic_executive@1x</title>
    <desc>Created with Sketch.</desc>
    <defs></defs>
    <g id="Page-1" stroke="none" stroke-width="1" fill="none" fill-rule="evenodd">
        <g id="DG_Home_Blue" transform="translate(-653.000000, -948.000000)" fill="#016BFF">
            <g id="Advance-Search-panel" transform="translate(0.000000, 768.000000)">
                <g id="ic_executive" transform="translate(653.000000, 180.000000)">
                    <path d="M25.497857,47.662665 C13.6438249,47.662665 3.99986667,38.0187067 3.99986667,26.1646746 C3.99986667,14.3106426 13.6438249,4.66668432 25.497857,4.66668432 C37.351889,4.66668432 46.996517,14.3106426 46.996517,26.1646746 C46.996517,38.0187067 37.351889,47.662665 25.497857,47.662665 L25.497857,47.662665 Z M44.6005333,43.2 L44.8665333,42.8666667 C48.8665333,38.2 51.0665333,32.3333333 51.0665333,26.2 C51.0665333,12.1333333 39.6005333,0.666666667 25.5332,0.666666667 C11.4665333,0.666666667 -0.000133333333,12.1333333 -0.000133333333,26.2 C-0.000133333333,40.2666667 11.4665333,51.7333333 25.5332,51.7333333 C31.2665333,51.7333333 36.7332,49.8666667 41.2672,46.3333333 L41.5332,46.1333333 L58.3332,59.7333333 L60.9338667,56.5333333 L44.6005333,43.2 Z" id="Fill-1"></path>
                    <path d="M13.3522,33.1846667 C13.8288667,29.718 17.0568667,26.908 20.5468667,26.908 L30.5055333,26.908 C34.0028667,26.908 37.2235333,29.7186667 37.6995333,33.1846667 L38.1955333,36.7933333 C38.4062,38.3286667 37.3182,39.5726667 35.7588667,39.5726667 L15.2928667,39.5726667 C13.7362,39.5726667 12.6475333,38.312 12.8562,36.7933333 L13.3522,33.1846667 Z M35.3495333,36.758 L34.9115333,33.568 C34.6262,31.4946667 32.5955333,29.7226667 30.5055333,29.7226667 L20.5468667,29.7226667 C18.4608667,29.7226667 16.4248667,31.4973333 16.1408667,33.568 L15.7022,36.758 L35.3495333,36.758 Z" id="Fill-4"></path>
                    <path d="M25.5260667,25.5007333 C20.2194,25.5007333 19.1934,20.9854 19.1934,17.5847333 C19.1934,14.1847333 22.0287333,11.4287333 25.5260667,11.4287333 C29.0234,11.4287333 31.8580667,14.1847333 31.8580667,17.5847333 C31.8580667,20.9854 30.8327333,25.5007333 25.5260667,25.5007333 M25.5260667,22.6860667 C28.0614,22.6860667 29.0440667,21.0260667 29.0440667,17.5847333 C29.0440667,15.7574 27.4860667,14.2427333 25.5260667,14.2427333 C23.5654,14.2427333 22.0080667,15.7574 22.0080667,17.5847333 C22.0080667,21.0260667 22.9907333,22.6860667 25.5260667,22.6860667" id="Fill-6"></path>
                </g>
            </g>
        </g>
    </g>
</svg>