<?xml version="1.0" encoding="UTF-8"?>
<svg width="6px" height="11px" viewBox="0 0 6 11" version="1.1" xmlns="http://www.w3.org/2000/svg" xmlns:xlink="http://www.w3.org/1999/xlink">
    <!-- Generator: sketchtool 49.2 (51160) - http://www.bohemiancoding.com/sketch -->
    <title>5BE89A1E-E284-4CE2-AAFB-589CFBCCAFCA</title>
    <desc>Created with sketchtool.</desc>
    <defs></defs>
    <g id="Company-Screens" stroke="none" stroke-width="1" fill="none" fill-rule="evenodd">
        <g id="A_DG_Home_Company-NewList_selected_z" transform="translate(-1160.000000, -665.000000)" fill="#FFFFFF">
            <g id="List" transform="translate(465.000000, 384.000000)">
                <g id="L1-Copy-2" transform="translate(0.000000, 220.000000)">
                    <g id="1-copy" transform="translate(18.000000, 15.000000)">
                        <g id="content" transform="translate(75.000000, 0.000000)">
                            <g id="social-logos" transform="translate(575.000000, 43.000000)">
                                <path d="M30.7795235,13.3662748 L30.7795235,8.83308527 L32.3033815,8.83308527 L32.5298874,7.06740603 L30.7795235,7.06740603 L30.7795235,5.93890669 C30.7795235,5.42839509 30.9215456,5.07909767 31.6547247,5.07909767 L32.591264,5.07909767 L32.591264,3.49766322 C32.4300498,3.47463263 31.873477,3.42857143 31.2286202,3.42857143 C29.8774918,3.42857143 28.9562678,4.25383455 28.9562678,5.7661772 L28.9562678,7.07124446 L27.4285714,7.07124446 L27.4285714,8.8369237 L28.9562678,8.8369237 L28.9562678,13.3662748 L30.7795235,13.3662748 Z" id="ic_facebook-copy"></path>
                            </g>
                        </g>
                    </g>
                </g>
            </g>
        </g>
    </g>
</svg>