<?xml version="1.0" encoding="UTF-8"?>
<svg width="240px" height="240px" viewBox="0 0 240 240" version="1.1" xmlns="http://www.w3.org/2000/svg" xmlns:xlink="http://www.w3.org/1999/xlink">
    <!-- Generator: sketchtool 54.1 (76490) - https://sketchapp.com -->
    <title>6626FFB4-B8EE-4996-A32F-32C40881FC25</title>
    <desc>Created with sketchtool.</desc>
    <defs>
        <linearGradient x1="0%" y1="0%" x2="101.999998%" y2="100.999999%" id="linearGradient-1">
            <stop stop-color="#F5BB9B" offset="0%"></stop>
            <stop stop-color="#EF8196" offset="100%"></stop>
        </linearGradient>
        <linearGradient x1="3.48958333%" y1="43.4951243%" x2="118.212891%" y2="61.0022462%" id="linearGradient-2">
            <stop stop-color="#711BB6" offset="0%"></stop>
            <stop stop-color="#4B45EB" offset="100%"></stop>
        </linearGradient>
    </defs>
    <g id="Style-Guide" stroke="none" stroke-width="1" fill="none" fill-rule="evenodd">
        <g transform="translate(-392.000000, -51.000000)" id="M_Logo_symbol">
            <g transform="translate(392.000000, 51.000000)">
                <rect id="logo-base" fill="url(#linearGradient-1)" fill-rule="nonzero" x="0" y="0" width="240" height="240" rx="40"></rect>
                <g id="ic_M_logo" transform="translate(76.000000, 76.000000)">
                    <path d="M18.012338,75.3275415 C18.012338,78.8831993 18.0292854,82.43644 18.0074959,85.9896807 C17.9857064,89.0860761 16.353917,90.7756783 13.3130749,90.814353 C10.4392854,90.8530278 7.56791698,90.8530278 4.6941275,90.8119359 C1.74044329,90.7732611 0.0336011866,89.0909104 0.0214959235,86.1540483 C-0.0075567081,78.7961812 -0.0075567081,11.946913 0.0239169761,4.58904593 C0.0360222393,1.85522607 1.67991698,0.148703673 4.44475908,0.0665198748 C7.50254856,-0.0253326052 10.5676012,-0.0204982642 13.6253907,0.0713542159 C16.3829696,0.155955184 17.9687591,1.84314021 18.0002328,4.61563481 C18.0438117,8.35499762 18.009917,71.5857615 18.012338,75.3275415" id="Fill-1" fill-opacity="0.3" fill="#FFFFFF"></path>
                    <path d="M90.0114211,75.7729064 C90.0114211,79.2246259 90.0307895,82.6763454 90.0065789,86.128065 C89.9872105,89.1350251 88.353,90.7738667 85.3145789,90.8149586 C82.4407895,90.848799 79.567,90.8512162 76.6932105,90.8125414 C73.7395263,90.7738667 72.0326842,89.1398594 72.0205789,86.2875982 C71.9939474,79.140025 71.9915263,11.6018632 72.023,4.45670714 C72.0375263,1.80023672 73.6814211,0.144474912 76.4438421,0.0647082845 C79.5040526,-0.0247270251 82.5691053,-0.019892684 85.6244737,0.0695426256 C88.3820526,0.149309253 89.9678421,1.78815087 89.9993158,4.48087884 C90.0428947,8.11388615 90.0114211,72.1374819 90.0114211,75.7729064" id="Fill-4" fill-opacity="0.3" fill="#FFFFFF"></path>
                    <path d="M91.982176,92 L0.0178240349,92 C0.382656612,84.7907575 6.30736212,78.8823236 14.0334517,77.6486817 C16.3398067,65.3607739 28.2484597,56 42.5925926,56 C56.9918786,56 68.93692,65.4328966 71.1779109,77.7905521 C72.3952414,77.5426502 73.6620753,77.4117647 74.962963,77.4117647 C84.1087072,77.4117647 91.5713008,83.8809588 91.9821756,91.9999926 Z" id="Combined-Shape" fill="url(#linearGradient-2)" fill-rule="nonzero"></path>
                    <path d="M89.3461785,2.41594031 C88.401968,0.60178646 86.7411259,0.0110172297 84.7631259,0.023324922 C81.639968,0.0454787682 78.514389,0.104555691 75.3936522,0.00363261434 C73.3115469,-0.0628289241 71.8637574,0.783940307 70.6362838,2.44055569 C62.5184943,13.3845557 54.3595469,24.2965557 46.2102838,35.2184018 C45.7502838,35.7870172 45.3193364,36.3359403 44.8980732,36.8848634 C44.474389,36.3359403 44.0458627,35.7870172 43.5858627,35.2184018 C35.4341785,24.2965557 27.2752311,13.3845557 19.1598627,2.44055569 C17.929968,0.783940307 16.4821785,-0.0628289241 14.4000732,0.00363261434 C11.2793364,0.104555691 8.15375745,0.0454787682 5.0330206,0.023324922 C3.05259955,0.0110172297 1.41112587,0.705171076 0.46691534,2.51686338 C-0.516032029,4.40732492 0.183652182,6.09840185 1.35544166,7.67378646 C14.4920732,25.3254788 27.6190206,42.9845557 40.7556522,60.636248 C40.7701785,60.6534788 40.7774417,60.6707095 40.7895469,60.6879403 C40.8500732,60.7667095 40.9105996,60.8208634 40.9735469,60.8947095 C42.2349153,62.4996326 43.5616522,63.3193249 44.8980732,63.3094788 C46.2320732,63.3193249 47.5588101,62.4996326 48.8225996,60.8947095 C48.8831259,60.8208634 48.9460732,60.7667095 49.0041785,60.6879403 C49.0187048,60.6707095 49.028389,60.6534788 49.0404943,60.636248 C62.1771259,42.9845557 75.3016522,25.3254788 88.4407048,7.67378646 C89.6124943,6.09840185 90.3291259,4.30394031 89.3461785,2.41594031" id="Fill-6" fill="#FFFFFF"></path>
                </g>
            </g>
        </g>
    </g>
</svg>