<?xml version="1.0" encoding="UTF-8"?>
<svg width="18px" height="18px" viewBox="0 0 18 18" version="1.1" xmlns="http://www.w3.org/2000/svg" xmlns:xlink="http://www.w3.org/1999/xlink">
    <!-- Generator: sketchtool 49.2 (51160) - http://www.bohemiancoding.com/sketch -->
    <title>56072365-9238-4BCB-9E9C-1CD8D4279396@1x</title>
    <desc>Created with sketchtool.</desc>
    <defs></defs>
    <g id="Company-Screens" stroke="none" stroke-width="1" fill="none" fill-rule="evenodd">
        <g id="A_DG_Home_Company-NewList_selected_z-Copy" transform="translate(-1199.000000, -142.000000)" fill="#dde0e8" stroke="#dde0e8">
            <g id="HEading" transform="translate(465.000000, 117.000000)">
                <g id="secondary-search-" transform="translate(532.000000, 26.000000)">
                    <path d="M209.105033,1.26315374 C211.786708,1.26315374 213.946911,3.42356769 213.946911,6.10503255 C213.946911,8.78649741 211.786708,10.9469114 209.105033,10.9469114 C206.423568,10.9469114 204.263154,8.78649741 204.263154,6.10503255 C204.263154,3.42356769 206.423568,1.26315374 209.105033,1.26315374 M209.105033,0 C205.740833,0 203,2.74083309 203,6.10503255 C203,9.46923201 205.740833,12.2100651 209.105033,12.2100651 C210.561659,12.2100651 211.902708,11.6974352 212.953651,10.8416485 L217.920372,15.8151059 C218.166897,16.0616314 218.56858,16.0616314 218.815106,15.8151059 C219.061631,15.5685804 219.061631,15.1668975 218.815106,14.920372 L213.841649,9.95344094 C214.697435,8.90249703 215.210065,7.56165934 215.210065,6.10503255 C215.210065,2.74083309 212.469232,0 209.105033,0" id="ic_search"></path>
                </g>
            </g>
        </g>
    </g>
</svg>