<?xml version="1.0" encoding="UTF-8"?>
<svg width="85px" height="28px" viewBox="0 0 85 28" version="1.1" xmlns="http://www.w3.org/2000/svg" xmlns:xlink="http://www.w3.org/1999/xlink">
    <!-- Generator: sketchtool 58 (101010) - https://sketch.com -->
    <title>CF70CEAE-CD68-4617-B2D7-91FF2DCCE764</title>
    <desc>Created with sketchtool.</desc>
    <g id="Home-screen" stroke="none" stroke-width="1" fill="none" fill-rule="evenodd">
        <g id="DG_Home_Sep-2019_v2" transform="translate(-219.000000, -830.000000)">
            <g id="Section-1">
                <g id="Trusted-Clients" transform="translate(0.000000, 706.000000)">
                    <g id="logos" transform="translate(219.000000, 118.000000)">
                        <g id="google_logo-copy" style="mix-blend-mode: luminosity;" transform="translate(0.000000, 6.000000)">
                            <path d="M20.8211786,9.55889634 L10.8535767,9.55889634 L10.8535767,12.4173782 L17.9476242,12.4173782 C17.601452,16.4256112 14.1803051,18.1350096 10.9510767,18.1350096 C6.81952365,18.1350096 3.21433376,14.9662893 3.21433376,10.524991 C3.21433376,6.19850916 6.65106003,2.86649237 10.9601505,2.86649237 C14.2846533,2.86649237 16.2437277,4.93235613 16.2437277,4.93235613 L18.296878,2.85981698 C18.296878,2.85981698 15.6615523,0 10.8552031,0 C4.73478638,0 0,5.03515701 0,10.4739243 C0,15.8032988 4.45392809,21 11.0111689,21 C16.7783942,21 21,17.1488888 21,11.4540372 C21,10.2525519 20.8210074,9.55814536 20.8210074,9.55814536 L20.8211786,9.55889634" id="Fill-1" fill="#2485FC"></path>
                            <path d="M30.0065053,8 C25.9249706,8 23,11.2048339 23,14.9425807 C23,18.7356266 25.8370845,22 30.0544118,22 C33.872202,22 37,19.0692381 37,15.0241014 C37,10.3877237 33.3616871,8 30.0065053,8 Z M30.047088,10.7495472 C32.0541657,10.7495472 33.9561246,12.379354 33.9561246,15.0055818 C33.9561246,17.5760779 32.062265,19.2522701 30.0378686,19.2522701 C27.8134882,19.2522701 26.0586954,17.4629702 26.0586954,14.9851584 C26.0586954,12.5604822 27.791689,10.7495472 30.047088,10.7495472 L30.047088,10.7495472 Z" id="Fill-2" fill="#FD2C25"></path>
                            <path d="M44.0064191,8 C39.9249706,8 37,11.2048339 37,14.9425807 C37,18.7356266 39.8370845,22 44.0544118,22 C47.872202,22 51,19.0692381 51,15.0241014 C51,10.3877237 47.3616871,8 44.0064191,8 Z M44.047088,10.7495472 C46.0541657,10.7495472 47.9561246,12.379354 47.9561246,15.0055818 C47.9561246,17.5760779 46.062265,19.2522701 44.0378686,19.2522701 C41.8134882,19.2522701 40.0586954,17.4629702 40.0586954,14.9851584 C40.0586954,12.5604822 41.791689,10.7495472 44.047088,10.7495472 L44.047088,10.7495472 Z" id="Fill-3" fill="#FFBA00"></path>
                            <path d="M59.5054033,8 C55.862994,8 53,11.2471818 53,14.8918089 C53,19.0434538 56.3192167,21.7964937 59.4425743,21.7964937 C61.3738554,21.7964937 62.4007333,21.0161843 63.1588705,20.1205041 L63.1588705,21.4805669 C63.1588705,23.860293 61.7394367,25.2852465 59.5968824,25.2852465 C57.5270423,25.2852465 56.4888551,23.7187441 56.1280488,22.8298003 L53.5238267,23.9379743 C54.4477488,25.9263946 56.3075724,28 59.6184118,28 C63.2398781,28 66,25.6781725 66,20.8087215 L66,8.24412913 L63.159038,8.24412913 L63.159038,9.58313011 C62.2853792,8.62486144 61.0907896,8 59.5054033,8 L59.5054033,8 Z M59.769034,10.7037536 C61.554803,10.7037536 63.3884897,12.2558453 63.3884897,14.9064754 C63.3884897,17.6005935 61.5586566,19.0854068 59.7294936,19.0854068 C57.7877409,19.0854068 55.9809451,17.4805328 55.9809451,14.9320566 C55.9809451,12.2839845 57.8574393,10.7037536 59.7689502,10.7037536 L59.769034,10.7037536 L59.769034,10.7037536 Z" id="Fill-4" fill="#2485FC"></path>
                            <path d="M79.103177,8 C75.7855771,8 73,10.8209033 73,14.9834019 C73,19.38787 76.1048555,22 79.4218892,22 C82.1902364,22 83.8893608,20.3814234 84.9034156,18.9312487 L82.6415297,17.3228731 C82.0545815,18.2963704 81.0732876,19.2478233 79.4357217,19.2478233 C77.5962507,19.2478233 76.7505308,18.1712793 76.2265162,17.1285367 L85,13.2380053 L84.5445004,12.0978351 C83.697001,9.86504143 81.7198528,8.00043224 79.1035006,8.00043224 L79.103177,8 Z M79.2174766,10.6893285 C80.4129709,10.6893285 81.2733321,11.368555 81.6387187,12.1829869 L75.779672,14.8001309 C75.5270481,12.7739493 77.3232421,10.6893285 79.2174766,10.6893285 L79.2174766,10.6893285 Z" id="Fill-5" fill="#FD2C25"></path>
                            <polygon id="Fill-6" fill="#00AB47" points="69 22 72 22 72 1 69 1"></polygon>
                        </g>
                    </g>
                </g>
            </g>
        </g>
    </g>
</svg>