<?xml version="1.0" encoding="UTF-8"?>
<svg width="11px" height="8px" viewBox="0 0 11 8" version="1.1" xmlns="http://www.w3.org/2000/svg" xmlns:xlink="http://www.w3.org/1999/xlink">
    <!-- Generator: sketchtool 49.2 (51160) - http://www.bohemiancoding.com/sketch -->
    <title>9D07D96E-F464-4F99-AB09-A17642E0F463</title>
    <desc>Created with sketchtool.</desc>
    <defs></defs>
    <g id="Company-Screens" stroke="none" stroke-width="1" fill="none" fill-rule="evenodd">
        <g id="A_DG_Home_Company-NewList_selected_z" transform="translate(-1207.000000, -446.000000)" fill="#FFFFFF">
            <g id="List" transform="translate(465.000000, 384.000000)">
                <g id="L1">
                    <g id="1-copy" transform="translate(18.000000, 15.000000)">
                        <g id="content" transform="translate(75.000000, 0.000000)">
                            <g id="social-logos" transform="translate(575.000000, 43.000000)">
                                <path d="M83.4386629,7.25575528 L83.4386629,6.12298959 L82.6313466,6.12298959 L82.6313466,7.25575528 L81.4683065,7.25575528 L81.4683065,8.06307159 L82.6313466,8.06307159 L82.6313466,9.22611164 L83.4386629,9.22611164 L83.4386629,8.06307159 L84.5714286,8.06307159 L84.5714286,7.25575528 L83.4386629,7.25575528 Z M77.5502996,7.1926837 L77.5502996,8.48691265 C77.5502996,8.48691265 78.8041627,8.48436455 79.316304,8.48436455 C79.038789,9.32195522 78.6099022,9.77861873 77.5502996,9.77861873 C76.4780826,9.77861873 75.6430148,8.91075371 75.6430148,7.83853674 C75.6430148,6.76631977 76.4806055,5.89845475 77.5502996,5.89845475 C78.1179439,5.89845475 78.4837591,6.09776096 78.8192999,6.37527594 C79.0892463,6.10530432 79.0665405,6.06746137 79.7502365,5.42163355 C79.1699779,4.89432986 78.3979817,4.57142857 77.5528225,4.57142857 C75.7489751,4.57142857 74.2857143,6.03468937 74.2857143,7.83853674 C74.2857143,9.64238411 75.7489751,11.1056449 77.5528225,11.1056449 C80.2497635,11.1056449 80.9082308,8.75685904 80.6887417,7.1926837 L77.5502996,7.1926837 Z" id="ic_gplus-copy"></path>
                            </g>
                        </g>
                    </g>
                </g>
            </g>
        </g>
    </g>
</svg>