<?xml version="1.0" encoding="UTF-8"?>
<svg width="594px" height="532px" viewBox="0 0 594 532" version="1.1" xmlns="http://www.w3.org/2000/svg" xmlns:xlink="http://www.w3.org/1999/xlink">
    <!-- Generator: Sketch 58 (84663) - https://sketch.com -->
    <title>home page_lense</title>
    <desc>Created with Sketch.</desc>
    <defs>
        <filter x="-113.3%" y="-160.4%" width="326.7%" height="420.8%" filterUnits="objectBoundingBox" id="filter-1">
            <feOffset dx="0" dy="31" in="SourceAlpha" result="shadowOffsetOuter1"></feOffset>
            <feGaussianBlur stdDeviation="6.5" in="shadowOffsetOuter1" result="shadowBlurOuter1"></feGaussianBlur>
            <feColorMatrix values="0 0 0 0 0.725005661   0 0 0 0 0.725005661   0 0 0 0 0.725005661  0 0 0 0.5 0" type="matrix" in="shadowBlurOuter1" result="shadowMatrixOuter1"></feColorMatrix>
            <feMerge>
                <feMergeNode in="shadowMatrixOuter1"></feMergeNode>
                <feMergeNode in="SourceGraphic"></feMergeNode>
            </feMerge>
        </filter>
        <path d="M0.168,12.398 C-0.012,6.322 8.416,1.144 18.988,0.834 C29.562,0.524 38.278,5.196 38.456,11.272 C38.636,17.346 30.208,22.524 19.636,22.836" id="path-2"></path>
        <linearGradient x1="-0.00233305676%" y1="49.9964245%" x2="100.002684%" y2="49.9964245%" id="linearGradient-4">
            <stop stop-color="#B3BAE1" offset="0%"></stop>
            <stop stop-color="#B3BAE1" offset="100%"></stop>
        </linearGradient>
        <polygon id="path-5" points="0 0.617450287 7.29663452 0.617450287 7.29663452 8.99960167 0 8.99960167"></polygon>
    </defs>
    <g id="home-page_lense" stroke="none" stroke-width="1" fill="none" fill-rule="evenodd">
        <g id="lense_1" filter="url(#filter-1)" transform="translate(411.000000, 329.000000)">
            <path d="M34.0094,18.2874 C33.9634,16.7394 34.4774,15.2474 35.4434,13.8854 C38.1834,10.0194 44.5634,7.1874 52.0714,6.9674 C59.5794,6.7454 66.1154,9.1974 69.0774,12.8974 C70.1234,14.1994 70.7214,15.6574 70.7694,17.2074 C70.9434,23.1594 62.8574,25.4694 52.7074,25.7674 C42.5534,26.0674 34.1834,24.2414 34.0094,18.2874 M30.5394,18.3914 C30.5574,19.0394 30.6594,19.6774 30.8374,20.2974 C32.5934,26.4194 41.8054,30.8834 52.7654,30.5614 C63.7254,30.2394 72.6594,25.2434 74.0534,19.0254 C74.1954,18.3974 74.2394,13.1894 74.2394,13.1894 C74.2394,13.1894 68.5014,1.7674 52.0114,1.9954 C42.0354,2.1354 30.5394,14.4774 30.5394,14.4774 C30.5394,14.4774 30.5014,17.1614 30.5394,18.3914" id="Fill-1" fill="#B4BBE1"></path>
            <g id="Group-5" transform="translate(33.000000, 2.078600)">
                <mask id="mask-3" fill="white">
                    <use xlink:href="#path-2"></use>
                </mask>
                <g id="Clip-4"></g>
                <path d="M0.168,12.398 C0.346,18.472 9.062,23.146 19.636,22.836 C30.208,22.524 38.636,17.346 38.456,11.272 C38.278,5.196 29.562,0.524 18.988,0.834 C8.416,1.144 -0.012,6.322 0.168,12.398" id="Fill-3" fill="url(#linearGradient-4)" mask="url(#mask-3)"></path>
            </g>
            <path d="M41.3004,5.0414 C60.3704,5.4594 66.1064,14.8434 67.7004,20.1554 C70.1324,18.2294 71.5344,15.8654 71.4604,13.3454 C71.2764,7.2734 62.6164,2.8154 52.0424,3.1234 C48.1584,3.2414 44.2824,3.8154 41.3004,5.0414" id="Fill-6" fill="#FFFFFF"></path>
            <path d="M35.0582,14.7112 C35.2162,20.0872 42.9322,24.2232 52.2902,23.9472 C61.6522,23.6732 69.1062,19.0932 68.9482,13.7092 C68.9402,13.5532 68.9342,13.4012 68.9142,13.2452 C68.3922,18.2912 61.2122,22.4532 52.2902,22.7212 C43.2122,22.9952 35.6822,19.1072 35.0922,13.9712 C35.0582,14.2112 35.0502,14.4632 35.0582,14.7112" id="Fill-8" fill="#FFFFFF"></path>
            <path d="M32.4702,10.6878 L37.4282,5.5358 L51.7342,1.9958 L66.2222,4.6878 L71.4762,9.5398 L72.8422,12.5658 L70.7682,13.2938 C70.7682,13.2938 68.3242,3.4498 51.7902,3.9358 C35.2582,4.4218 33.3962,14.3918 33.3962,14.3918 L31.2822,13.7898 L32.4702,10.6878 Z" id="Fill-10" fill="#B4BBE1"></path>
            <g id="Group-14" transform="translate(30.000000, 0.078600)" fill="#81C5E8">
                <path d="M4.0094,14.2948 C3.9634,12.7468 4.4774,11.2548 5.4434,9.8928 C8.1834,6.0248 14.5634,3.1948 22.0714,2.9748 C29.5794,2.7528 36.1154,5.2048 39.0774,8.9048 C40.1234,10.2068 40.7214,11.6648 40.7694,13.2148 C40.9434,19.1668 32.8574,24.2328 22.7074,24.5308 C12.5534,24.8308 4.1834,20.2488 4.0094,14.2948 M0.5394,14.3988 C0.5574,15.0468 0.6594,15.6848 0.8374,16.3048 C2.5934,22.4268 11.8054,26.8908 22.7654,26.5688 C33.7254,26.2468 42.6594,21.2508 44.0534,15.0328 C44.1954,14.4048 44.2574,13.7608 44.2394,13.1108 C44.0314,6.0328 34.0814,0.5828 22.0114,0.9368 C9.9434,1.2928 0.3294,7.3188 0.5394,14.3988" id="Fill-12"></path>
            </g>
            <g id="Group-17" transform="translate(30.000000, 0.078600)" fill="#FFFFFF">
                <path d="M4.0094,14.2948 C3.9634,12.7468 4.4774,11.2548 5.4434,9.8928 C8.1834,6.0248 14.5634,3.1948 22.0714,2.9748 C29.5794,2.7528 36.1154,5.2048 39.0774,8.9048 C40.1234,10.2068 40.7214,11.6648 40.7694,13.2148 C40.9434,19.1668 32.8574,24.2328 22.7074,24.5308 C12.5534,24.8308 4.1834,20.2488 4.0094,14.2948 M0.5394,14.3988 C0.5574,15.0468 0.6594,15.6848 0.8374,16.3048 C2.5934,22.4268 11.8054,26.8908 22.7654,26.5688 C33.7254,26.2468 42.6594,21.2508 44.0534,15.0328 C44.1954,14.4048 44.2574,13.7608 44.2394,13.1108 C44.0314,6.0328 34.0814,0.5828 22.0114,0.9368 C9.9434,1.2928 0.3294,7.3188 0.5394,14.3988" id="Fill-15"></path>
            </g>
            <path d="M27.9176,29.6272 L28.3336,30.2472 C28.3376,30.2512 28.3396,30.2512 28.3396,30.2512 L30.2116,33.0212 L30.6936,33.7352 L38.9036,28.6112 L38.9056,28.6112 C39.0156,28.5592 39.1156,28.4992 39.2056,28.4232 C39.4596,28.2272 39.6536,27.9552 39.7736,27.6392 C39.8316,27.4812 39.8756,27.3112 39.8976,27.1332 L39.9016,27.1312 C39.9716,26.6212 39.8876,26.0512 39.6296,25.5052 C39.3096,24.8372 38.7916,24.3472 38.2216,24.1152 C37.9176,23.9892 37.6016,23.9372 37.2916,23.9712 C37.1096,23.9892 36.9296,24.0372 36.7596,24.1192 C36.7296,24.1312 36.6996,24.1492 36.6716,24.1652 L36.5596,24.2352 C36.5456,24.2412 36.5336,24.2512 36.5216,24.2592 L27.9176,29.6272 Z" id="Fill-18" fill="#CDD5F7"></path>
            <path d="M27.9176,29.6272 L28.3336,30.2472 C28.3376,30.2512 28.3396,30.2512 28.3396,30.2512 L38.2216,24.1152 C37.9176,23.9892 37.6016,23.9372 37.2916,23.9712 C37.1096,23.9892 36.9296,24.0372 36.7596,24.1192 C36.7296,24.1312 36.6996,24.1492 36.6716,24.1652 L36.5596,24.2352 C36.5456,24.2412 36.5336,24.2512 36.5216,24.2592 L27.9176,29.6272 Z" id="Fill-20" fill="#FFFFFF"></path>
            <path d="M30.2124,33.0218 L30.6924,33.7338 L38.9044,28.6118 L38.9064,28.6118 C39.0144,28.5598 39.1144,28.4978 39.2044,28.4238 C39.4584,28.2278 39.6544,27.9558 39.7724,27.6398 C39.8324,27.4798 39.8764,27.3118 39.8984,27.1338 L30.2124,33.0218 Z" id="Fill-22" fill="#B4BBE1"></path>
            <path d="M1.7788,43.973 L2.9728,46.075 L6.0368,51.475 L31.0308,36.029 C31.0308,36.029 31.0328,36.029 31.0328,36.027 L31.0388,36.025 C31.2308,35.935 31.4028,35.829 31.5568,35.701 C32.0028,35.357 32.3408,34.885 32.5508,34.333 C32.9608,33.257 32.9088,31.891 32.3008,30.615 C32.0708,30.137 31.7828,29.711 31.4568,29.349 C31.4568,29.349 31.4528,29.347 31.4528,29.343 C30.5508,28.347 29.3468,27.817 28.2268,27.941 C27.9048,27.973 27.5908,28.055 27.2988,28.199 C27.2428,28.219 27.1928,28.249 27.1448,28.277 L26.9508,28.399 C26.9248,28.413 26.9048,28.429 26.8828,28.443 C26.8648,28.457 26.8488,28.473 26.8308,28.485 L1.7788,43.973 Z" id="Fill-24" fill="#2D2D2D"></path>
            <path d="M1.7788,43.973 L2.9728,46.075 L5.9788,45.171 L31.4588,29.357 C31.4588,29.357 31.4588,29.355 31.4568,29.349 C31.4568,29.349 31.4528,29.347 31.4528,29.343 C30.5508,28.347 29.3468,27.817 28.2268,27.941 C27.9048,27.973 27.5908,28.055 27.2988,28.199 C27.2428,28.219 27.1928,28.249 27.1448,28.277 L26.9508,28.399 C26.9248,28.413 26.9048,28.429 26.8828,28.443 C26.8648,28.457 26.8488,28.473 26.8308,28.485 L1.7788,43.973 Z" id="Fill-26" fill="#3A3A3A"></path>
            <g id="Group-30" transform="translate(0.000000, 43.078600)">
                <mask id="mask-6" fill="white">
                    <use xlink:href="#path-5"></use>
                </mask>
                <g id="Clip-29"></g>
                <path d="M0.5152,6.3046 C1.5532,8.4646 3.7852,9.5486 5.5132,8.7226 L5.5192,8.7226 C5.7092,8.6326 5.8832,8.5246 6.0392,8.3986 C6.4812,8.0526 6.8212,7.5786 7.0292,7.0266 C7.4412,5.9506 7.3912,4.5866 6.7812,3.3106 C5.9212,1.5186 4.2392,0.4686 2.7052,0.6346 C2.3872,0.6666 2.0732,0.7506 1.7792,0.8926 C1.7252,0.9166 1.6732,0.9426 1.6252,0.9726 L1.4312,1.0966 C1.4052,1.1066 1.3852,1.1226 1.3632,1.1406 C-0.0328,2.1326 -0.4308,4.3306 0.5152,6.3046" id="Fill-28" fill="#4B4C4C" mask="url(#mask-6)"></path>
            </g>
        </g>
    </g>
</svg>