<?xml version="1.0" encoding="UTF-8"?>
<svg width="594px" height="532px" viewBox="0 0 594 532" version="1.1" xmlns="http://www.w3.org/2000/svg" xmlns:xlink="http://www.w3.org/1999/xlink">
    <!-- Generator: Sketch 58 (84663) - https://sketch.com -->
    <title>home page_main user</title>
    <desc>Created with Sketch.</desc>
    <g id="home-page_main-user" stroke="none" stroke-width="1" fill="none" fill-rule="evenodd">
        <g id="main-Usser" transform="translate(100.925746, 246.000000)">
            <ellipse id="Oval-2-Copy-11" fill="#B3CBFF" opacity="0.300000012" cx="28.9840389" cy="151.5" rx="28.9798751" ry="24.5"></ellipse>
            <ellipse id="Oval-2-Copy-10" fill="#83B3FF" opacity="0.5" cx="29.4836919" cy="149.608031" rx="18.4783787" ry="15.4510831"></ellipse>
            <g id="Group-38" transform="translate(12.238639, 0.207517)">
                <path d="M15.6742435,153.147583 C15.6742435,153.147583 14.2352428,157.980583 17.9816411,159.017583 C21.7270402,160.054583 22.3765891,157.961583 23.7106626,157.275583 C25.0447362,156.589583 33.3969361,152.247583 34.9648472,150.273583 C36.5317591,148.299583 31.7900519,145.293583 24.4681366,149.948583 L15.6742435,153.147583 Z" id="Fill-4" fill="#121A46"></path>
                <path d="M0.455312184,144.587083 C0.455312184,144.587083 -1.31645742,149.026083 2.1301491,150.327083 C5.57775493,151.627083 6.83688054,148.108083 7.86216853,147.457083 C9.06233508,146.693083 12.9736189,144.165083 14.6224739,142.437083 C16.2713288,140.708083 13.7940492,136.933083 6.4831262,140.701083 L0.455312184,144.587083 Z" id="Fill-6" fill="#121A46"></path>
                <path d="M3.72843918,74.1011829 C3.72843918,74.1011829 2.71814077,104.292183 3.00694022,110.065183 C-0.0229556858,117.139183 -0.353725984,138.394183 0.460708436,145.164183 C0.460708436,146.230183 8.63403252,146.407183 8.63403252,142.621183 C8.63403252,138.836183 11.9067598,118.054183 12.7951429,115.069183 C13.6835259,112.086183 16.6654551,102.268183 16.6654551,102.268183 L16.6654551,74.1011829 L7.04713453,72.6711829 L3.72843918,74.1011829 Z" id="Fill-8" fill="#549BFF"></path>
                <path d="M3.26136076,88.0383609 C9.91900591,91.9258674 13.2478285,94.5087142 13.2478285,95.7869012 C13.2478285,97.7041817 16.0239848,101.887339 12.1980575,108.325129 C9.64743931,112.616988 8.33295169,124.331516 8.25459463,143.468712 C10.1837225,127.101882 11.4982102,117.86349 12.1980575,115.753537 C12.8979048,113.643583 14.4136855,109.415328 16.7453996,103.068772 L18.4622074,85.3753932 C19.1358906,78.4429005 18.0188707,74.592409 15.1111478,73.8239186 C10.7495634,72.6711829 6.71749307,77.7505485 5.76166406,79.7598978 C5.12444473,81.099464 4.29101029,82.9712958 3.26136076,85.3753932 L3.26136076,88.0383609 Z" id="Path-21" fill="#016BFF"></path>
                <path d="M24.8653608,151.211583 C24.8653608,146.873583 25.3410304,127.196583 26.6281366,119.002583 C27.9152428,110.809583 33.7588144,96.0834829 32.5046853,86.5544829 C31.2515556,77.0264829 28.6457355,73.5435829 28.4508708,71.1575829 L14.3566585,71.1575829 C14.3566585,71.1575829 15.9195731,111.869583 15.9195731,115.623583 C15.9195731,119.376583 14.717408,146.287583 15.1740908,152.647583 C15.263029,153.879583 24.8653608,155.550583 24.8653608,151.211583 Z" id="Fill-12" fill="#549BFF"></path>
                <path d="M14.4105211,20.6241829 L14.4105211,25.5811829 C14.4105211,27.1691829 18.8754204,29.1771829 22.7787098,27.3611829 L22.7787098,23.1741829 C22.7787098,23.1741829 27.203637,23.8001829 28.1649694,23.1741829 C29.1273011,22.5491829 29.9927001,8.65618292 27.347537,7.03618292 C23.0205419,3.68618292 12.1980575,5.09818292 12.1980575,11.8171829 C12.1980575,13.9351829 14.4105211,16.5331829 14.4105211,20.6241829" id="Fill-18" fill="#FCD1C5"></path>
                <path d="M8.15306652,24.2565829 C4.05691107,25.6475829 1.03500962,30.4085829 1.03500962,38.1365829 C1.03500962,45.8645829 5.21910399,48.2535829 5.21910399,59.6285829 C5.21910399,71.0035829 1.09296937,73.7775829 1.75650858,82.3435829 C2.42004778,90.9105829 21.1908125,93.4923551 24.7263573,88.7273551 C25.9490318,86.6770026 26.6650569,84.5775262 27.8524808,79.0583089 C29.552271,71.1575829 32.9619967,68.3823602 33.3676154,65.018102 C34.1160956,58.810102 33.3395759,38.6635829 31.8306238,34.8885829 C30.796342,32.3015829 22.7459326,26.6535829 16.2534413,25.4595829 C16.2534413,25.4595829 12.9067653,22.6415829 8.15306652,24.2565829 Z" id="Fill-14" fill="#80B6FF"></path>
                <path d="M25.5917958,56.6098943 C28.8555293,63.3548943 31.4757097,63.6868943 32.7758069,63.2488943 C34.7234544,62.5928943 35.6338222,60.1058943 34.444648,54.7638943 C33.2554738,49.4228943 29.3272018,32.7108943 23.6621358,35.0078943 C17.8231906,37.3748943 22.327063,49.8648943 25.5917958,56.6098943" id="Fill-16" fill="#B3D3FF" transform="translate(27.906294, 49.085174) rotate(24.000000) translate(-27.906294, -49.085174) "></path>
                <path d="M15.4026309,16.0346636 C16.6917357,17.5346636 16.6300574,11.5787668 23.3558091,10.0869829 C30.0815608,8.59519905 31.0964628,5.87097002 30.3572859,4.21196034 C29.6181089,2.55295066 25.93202,-0.792017078 21.576045,0.170982922 C17.22007,1.13298292 5.72755091,7.69893454 12.1980575,15.2319345 L15.4026309,16.0346636 Z" id="Fill-20" fill="#121A46"></path>
                <path d="M10.3078701,10.0870829 C9.64932745,13.3090829 13.1518951,21.9680829 14.6028875,21.9680829 C17.7287168,21.9230829 20.4698132,16.9770829 22.9710762,16.0810829 C25.4713399,15.1860829 27.7337688,9.76408292 25.641222,8.52808292 C23.5486751,7.29308292 10.3078701,10.0870829 10.3078701,10.0870829" id="Fill-22" fill="#443073"></path>
                <path d="M14.2471345,24.2152265 C14.2471345,23.4417863 16.6654551,22.2923412 22.7787098,26.8086829 C22.7787098,26.8086829 24.1497577,27.1446829 24.7263573,28.9976829 C22.3373463,28.64557 12.7321866,25.7606829 14.2471345,25.8176829 L14.2471345,24.2152265 Z" id="Fill-26" fill="#FFFFFF"></path>
                <path d="M23.8179881,17.4556829 C23.0485225,16.9866829 21.5955315,14.8906829 23.0595148,14.1276829 C23.6141297,13.8386829 24.7503406,14.0936829 25.2230124,15.3616829" id="Fill-28" fill="#FCD1C5"></path>
                <polygon id="Path-19" fill="#E2B1A6" points="23.2408889 22.5383539 20.6535905 17.7924829 28.1649694 23.1730894"></polygon>
                <path d="M27.8524808,80.6374934 L27.8524808,84.148511 L31.3863645,87.8789555 C32.5046853,83.6952582 32.7842656,80.9997673 32.2251051,79.7924829 C31.6659447,78.5851985 30.2084033,78.8668687 27.8524808,80.6374934 Z" id="Path-23" fill="#FCD1C5"></path>
                <polygon id="Path-20" fill="#016BFF" points="12.2485225 90.7427241 13.2478285 75.2604733 14.2471345 90.7427241"></polygon>
                <path d="M30.6343151,56.8955332 L32.9595099,76.8167751 C33.1901209,78.7925487 31.8666013,80.6148581 29.9163973,81.0067341 C28.0168806,81.3884249 26.1675966,80.157984 25.7859058,78.2584674 C25.784755,78.2527404 25.7836185,78.2470106 25.7824584,78.2412853 C23.8301881,68.267958 22.7132721,61.7869299 22.4317106,58.7982009 C22.4306624,58.7870741 22.4296229,58.7759655 22.4285921,58.7648752 C22.1916748,56.2156618 24.0661505,53.9570479 26.6153627,53.7201186 C26.7579781,53.7068636 26.9011311,53.7002254 27.0443611,53.7002254 C28.8783973,53.7002254 30.421691,55.0738637 30.6343151,56.8955332 Z" id="Path-2" fill="#B3D3FF"></path>
                <polygon id="Path-24" fill="#FFFFFF" points="24.8356148 78.0255772 33.2408507 76.7924829 33.8356148 80.5501486 25.9189621 81.633701"></polygon>
                <circle id="Oval" fill="#B3D3FF" cx="27.3356148" cy="80.2924829" r="1"></circle>
            </g>
        </g>
    </g>
</svg>