<?xml version="1.0" encoding="UTF-8"?>
<svg width="594px" height="532px" viewBox="0 0 594 532" version="1.1" xmlns="http://www.w3.org/2000/svg" xmlns:xlink="http://www.w3.org/1999/xlink">
    <!-- Generator: Sketch 58 (84663) - https://sketch.com -->
    <title>home page_icons</title>
    <desc>Created with Sketch.</desc>
    <g id="home-page_icons" stroke="none" stroke-width="1" fill="none" fill-rule="evenodd">
        <g id="icons" transform="translate(164.885496, 24.000000)">
            <g id="Group-25" transform="translate(0.490457, 0.000000)" fill="#FF9D00">
                <path d="M1.41686886,10.5536561 L2.21403103,10.0898568 C2.21289991,10.4718758 2.48295542,10.9376559 2.81493989,11.1297973 L2.01778126,11.5933137 C1.68579679,11.4014553 1.41574128,10.9356751 1.41686886,10.5536561" id="Fill-1"></path>
                <polygon id="Fill-3" points="1.43703466 3.46389336 2.23419329 3.00037701 2.21411586 10.0900832 1.41695724 10.5535995"></polygon>
                <path d="M0.764045014,0.625973458 L1.56092086,0.162457105 C1.88922919,-0.028552381 2.34365768,-0.0016695644 2.84587609,0.288664855 L2.04871747,0.752181208 C1.54649905,0.462129766 1.09207056,0.435246949 0.764045014,0.625973458" id="Fill-5"></path>
                <polygon id="Fill-7" points="1.64168301 2.07662684 2.43884164 1.61311048 8.33905972 9.55712427 7.54161831 10.0206406"></polygon>
                <polygon id="Fill-9" points="2.01778126 11.5932571 2.81493989 11.1297407 13.6479835 17.3883434 12.8508248 17.8521427"></polygon>
                <path d="M14.0757457,17.4303372 L13.2785871,17.8941365 C13.169151,17.9575234 13.0178634,17.9484681 12.85074,17.851973 L13.6478986,17.3884566 C13.815022,17.4846688 13.9663096,17.494007 14.0757457,17.4303372" id="Fill-11"></path>
                <path d="M14.928499,18.8985635 L14.1313404,19.3623628 C14.455407,19.1739001 14.6564641,18.7732046 14.6581608,18.2038549 L15.4553194,17.7400555 C15.4536227,18.3094053 15.2525657,18.7101008 14.928499,18.8985635" id="Fill-13"></path>
                <polygon id="Fill-15" points="7.54167486 10.020584 8.33883349 9.55706767 14.0750388 8.33998352 13.2775974 8.80349988"></polygon>
                <polygon id="Fill-17" points="14.681066 10.1300112 15.4779418 9.66621191 15.4553194 17.7401121 14.6581608 18.2039115"></polygon>
                <polygon id="Fill-19" points="2.04871747 0.752124612 2.84587609 0.288608259 13.6786369 6.54721093 12.8814783 7.01072729"></polygon>
                <path d="M12.8813652,7.01075558 L13.6785238,6.54723923 C14.6753255,7.12281448 15.4812504,8.52043797 15.4781488,9.66621191 L14.6809812,10.1300112 C14.6840917,8.98395432 13.8778841,7.58661381 12.8813652,7.01075558" id="Fill-21"></path>
                <path d="M2.04484337,2.13687264 C1.89214183,2.04858381 1.75216541,2.02990733 1.64159818,2.07659854 L7.54153347,10.0206123 L13.2777388,8.80352818 C13.1680199,8.62581861 13.0254984,8.48093438 12.8776042,8.39547532 L2.04484337,2.13687264 L2.04484337,2.13687264 Z M13.4539111,17.5079012 L13.4739885,10.4391353 L7.88426361,11.6327324 C7.7821798,11.6525408 7.66454305,11.6242431 7.54718909,11.5566116 C7.42983512,11.4886971 7.31276393,11.3814488 7.2109629,11.243639 L1.43714777,3.46375187 L1.41678403,10.553741 C1.41565645,10.935477 1.68571196,11.4012572 2.01769643,11.5931156 L12.85074,17.8520013 C13.1830073,18.0438597 13.45278,17.8899202 13.4539111,17.5079012 L13.4539111,17.5079012 Z M12.8812803,7.01086878 C13.8780821,7.586727 14.6840069,8.98406751 14.6811865,10.1301244 L14.6579911,18.2037417 C14.6548805,19.3497986 13.8435828,19.812466 12.8467811,19.2366078 L2.01402028,12.9780051 C1.01552184,12.401015 0.211293695,11.0048064 0.214395289,9.85903245 L0.237309514,1.78513221 C0.240420101,0.639075294 1.05002108,0.175275964 2.0488023,0.751983124 L12.8812803,7.01086878 Z" id="Fill-23"></path>
            </g>
            <g id="Group-94" transform="translate(291.797363, 102.857000)" fill="#2E97FF">
                <path d="M3.0793272,11.68125 L3.38755066,11.5020938 C3.69227654,11.9916563 4.02651319,12.4595625 4.38457703,12.8964063 L4.07657217,13.0753438 C3.71828973,12.6387188 3.38427169,12.1708125 3.0793272,11.68125" id="Fill-26"></path>
                <polygon id="Fill-28" points="3.45995038 11.7746781 3.9596034 11.3651781 3.9596034 11.3796781 3.45995038 11.7891781"></polygon>
                <path d="M2.25466551,10.2373062 L2.56288897,10.01894 C2.79788203,9.89213807 3.04708397,9.79710337 3.30721582,9.73730625 L2.99899237,9.95593946 C2.73907911,10.0157366 2.48987717,10.1107713 2.25466551,10.2373062" id="Fill-30"></path>
                <path d="M1.28059195,6.62650625 L1.58859681,6.44735 C1.68893338,7.57085 2.0251374,8.782725 2.56288897,9.9679125 L2.25466551,10.1470688 C1.71713255,8.9621 1.38092852,7.750225 1.28059195,6.62650625" id="Fill-32"></path>
                <path d="M4.54227377,11.4654969 L4.85027863,11.2863406 C5.20659368,12.3824969 5.7500288,13.4699031 6.43358536,14.4514344 L6.1255805,14.6308094 C5.44202394,13.6488406 4.89837023,12.5618719 4.54227377,11.4654969" id="Fill-34"></path>
                <path d="M3.89885184,8.13918437 L4.2068567,7.96002812 C4.23767904,8.51937187 4.31156523,9.10059062 4.42720368,9.69471562 L4.11898022,9.87387187 C4.00334178,9.27974687 3.92945559,8.69874687 3.89885184,8.13918437" id="Fill-36"></path>
                <polygon id="Fill-38" points="1.28463602 5.19973125 1.59264087 5.020575 2.9702467 5.8163875 2.66224185 5.9957625"></polygon>
                <path d="M8.25992956,14.9212875 L7.95170611,15.1320036 C7.7702696,15.2566816 7.57462422,15.3532813 7.36630014,15.4212875 L7.674305,15.2103138 C7.88262908,15.1423076 8.07827446,15.0454503 8.25992956,14.9212875" id="Fill-40"></path>
                <polygon id="Fill-42" points="7.37846804 12.6128625 7.86601874 12.4337063 7.85357063 15.1667687 7.36636572 15.345925"></polygon>
                <path d="M4.11895836,9.87378437 L4.42718182,9.69484687 C5.0713907,9.75675312 5.75166829,9.95669062 6.44571756,10.2852531 L6.1372755,10.4644094 C5.44366343,10.1358469 4.76316724,9.93590937 4.11895836,9.87378437" id="Fill-44"></path>
                <path d="M2.27558536,2.8146125 L2.58359022,2.63545625 C2.04102949,3.19633125 1.69892332,4.01620625 1.59268459,5.0204875 L1.28467974,5.19964375 C1.39091846,4.1953625 1.73302464,3.3754875 2.27558536,2.8146125" id="Fill-46"></path>
                <path d="M4.13218355,5.23753125 L4.44018841,5.058375 C4.32301978,5.51775 4.2473848,6.0125625 4.21525087,6.5358125 L3.90724601,6.71496875 C3.93937994,6.19171875 4.01479632,5.697125 4.13218355,5.23753125" id="Fill-48"></path>
                <path d="M10.0337009,15.3647594 L10.3417058,15.1856031 C10.1648598,15.4881344 9.95981471,15.7556656 9.72591464,15.9853531 L9.41769119,16.1645094 C9.65180985,15.9348219 9.85641777,15.6675094 10.0337009,15.3647594" id="Fill-50"></path>
                <polygon id="Fill-52" points="10.0321926 15.5858531 10.5297284 15.1768531 10.5318456 15.1968531 10.0346626 15.6063531"></polygon>
                <path d="M9.41760375,16.249825 L9.7258272,16.033844 C10.0795191,16.0069453 10.4096024,15.9114811 10.7119237,15.749825 L10.4039188,15.965806 C10.1015975,16.1274621 9.77129563,16.2229263 9.41760375,16.249825" id="Fill-54"></path>
                <polygon id="Fill-56" points="7.38291091 10.1510719 7.87764816 9.97191562 7.87308352 11.0037594 7.37799514 11.1829156"></polygon>
                <polygon id="Fill-58" points="3.90718043 6.71494687 4.21518529 6.53579062 6.45253782 7.82838437 6.14431437 8.00754062"></polygon>
                <path d="M3.10472831,2.2295 L3.41295177,2.05034375 C3.53536676,2.24634375 3.66062353,2.43775 3.79287543,2.62653125 L3.48465198,2.80590625 C3.35261867,2.61690625 3.2273619,2.4255 3.10472831,2.2295" id="Fill-60"></path>
                <path d="M7.37806072,11.1828719 L7.68628418,11.0039344 C8.37967765,11.4751219 9.05886225,12.0604969 9.70001076,12.7410281 L9.3917873,12.9201844 C8.75063879,12.2396531 8.0716728,11.6542781 7.37806072,11.1828719" id="Fill-62"></path>
                <path d="M10.5050423,14.2772 L10.8130472,14.0980438 C11.0707745,14.4445437 11.315823,14.8046062 11.5468813,15.1745125 L11.2386579,15.3536687 C11.0075996,14.9837625 10.7627696,14.6237 10.5050423,14.2772" id="Fill-64"></path>
                <polygon id="Fill-66" points="7.38994978 7.69249687 7.88468702 7.51334062 7.88012238 8.54496562 7.385034 8.72434062"></polygon>
                <path d="M4.56297502,4.13929687 L4.87119847,3.96014062 C5.3772533,4.50482813 5.91107009,4.97732812 6.45953296,5.36495312 L6.15130951,5.54410937 C5.60306523,5.15648437 5.06881124,4.68398437 4.56297502,4.13929687" id="Fill-68"></path>
                <path d="M5.57377307,3.05622187 L5.88177793,2.87706562 C5.46512977,3.11944062 5.122805,3.48519062 4.87119847,3.96009688 L4.56297502,4.13925313 C4.81458154,3.66434687 5.15690632,3.29859688 5.57377307,3.05622187" id="Fill-70"></path>
                <path d="M10.8619695,12.1621281 L11.1699743,11.9829719 C11.1286593,12.7450969 11.0093046,13.4555969 10.8130035,14.0980656 L10.5049986,14.2772219 C10.7010812,13.6347531 10.8206544,12.9242531 10.8619695,12.1621281" id="Fill-72"></path>
                <polygon id="Fill-74" points="7.38512144 8.72429688 7.6931263 8.54514063 9.93747398 9.84167187 9.62946912 10.0210469"></polygon>
                <path d="M7.39216031,6.26099688 L7.70016516,6.08184062 C8.24753505,6.32552812 8.78244483,6.46902812 9.28849965,6.50577812 L8.9804948,6.68493438 C8.47443997,6.64840312 7.93931159,6.50468437 7.39216031,6.26099688" id="Fill-76"></path>
                <polygon id="Fill-78" points="7.40429287 3.5294 7.89183518 3.35024375 7.87972448 6.081775 7.39218217 6.26093125"></polygon>
                <polygon id="Fill-80" points="10.8658168 10.7353312 11.1740402 10.556175 12.5529577 11.3528625 12.2449528 11.5322375"></polygon>
                <path d="M10.5221367,8.21565937 L10.8303602,8.03650312 C11.0220708,8.90275313 11.1370534,9.74887813 11.1739965,10.5560656 L10.8657731,10.7354406 C10.8290486,9.92803438 10.7140659,9.08190938 10.5221367,8.21565937" id="Fill-82"></path>
                <path d="M1.97673976,0.838403125 L2.28496322,0.659246875 C3.51348508,-0.055190625 5.21483484,0.045215625 7.09215614,1.12977812 L6.78393269,1.30893437 C4.90661138,0.224371875 3.20526162,0.123746875 1.97673976,0.838403125" id="Fill-84"></path>
                <path d="M9.45048092,5.0775375 L9.75848577,4.89838125 C9.99063706,5.39888125 10.1932776,5.90485 10.3664074,6.4119125 L10.0584025,6.59106875 C9.88505413,6.084225 9.6826322,5.5780375 9.45048092,5.0775375" id="Fill-86"></path>
                <path d="M10.0584681,6.77079688 L10.3664729,6.49108376 C10.4952273,6.42892529 10.6198282,6.35788704 10.7402759,6.27079688 L10.4320524,6.55050999 C10.3116048,6.63760015 10.1872224,6.70829688 10.0584681,6.77079688" id="Fill-88"></path>
                <path d="M11.8565475,17.1406156 L11.5485427,17.3197719 C12.7617627,16.6145219 13.5137405,15.1143344 13.5198612,12.9823969 C13.5264192,8.69095938 10.5145732,3.46917812 6.78397641,1.30902187 L7.09219986,1.12986562 C10.8227967,3.29002187 13.8346426,8.51202188 13.8280954,12.8032406 C13.8219639,14.9351781 13.0697675,16.4351469 11.8565475,17.1406156" id="Fill-90"></path>
                <path d="M10.0584681,6.59104687 C10.1872224,6.55101562 10.3116048,6.50573437 10.4320524,6.44995312 C10.1314799,5.96760938 9.80292679,5.50779688 9.4505465,5.07751563 C9.68247918,5.57801562 9.88511971,6.08420313 10.0584681,6.59104687 M9.41753817,16.1646406 C9.77144865,16.1423281 10.1015319,16.0631406 10.4038532,15.9290469 C10.2840614,15.7328281 10.1603348,15.5407656 10.0322363,15.3557031 L10.0337665,15.3646719 C9.85648334,15.6674219 9.65187543,15.9349531 9.41753817,16.1646406 M4.10625781,1.99007812 C3.74710097,2.01217187 3.41133414,2.09157812 3.10464087,2.22960937 C3.22727446,2.42560937 3.35253123,2.61701562 3.48478314,2.80579687 C3.66031749,2.49582812 3.86951596,2.22282812 4.10625781,1.99007812 M3.07928348,11.6813594 C3.38422797,12.1709219 3.71824601,12.6386094 4.07652845,13.0754531 C3.84175399,12.5683906 3.6347415,12.0567344 3.45986294,11.5444219 L3.45986294,11.5507656 C3.32848543,11.5872969 3.20126128,11.6325781 3.07928348,11.6813594 M7.378017,11.1828281 C8.07162908,11.6542344 8.75081367,12.2396094 9.39174358,12.9203594 C9.510661,12.4616406 9.58607738,11.9666094 9.61821131,11.4437969 L7.38107738,10.1509844 L7.378017,11.1828281 M6.14446738,8.00767187 L6.14709056,6.97735937 C5.45391568,6.50420313 4.77473109,5.91904687 4.13227099,5.23764062 C4.01488376,5.69701562 3.93946738,6.19182812 3.90711485,6.71485937 L6.14446738,8.00767187 M6.13747224,10.4644531 L6.14031402,9.43414062 L3.89880812,8.13914062 C3.92941187,8.69870312 4.00329806,9.27970312 4.1189365,9.87382812 C4.76314539,9.93595312 5.44364157,10.1358906 6.13747224,10.4644531 M7.38807252,7.69245312 L7.38523074,8.72429687 L9.62935982,10.0210469 C9.59744448,9.45907812 9.5222467,8.87873437 9.40507807,8.28373437 C8.76196218,8.22270312 8.08190319,8.02254687 7.38807252,7.69245312 M7.39987682,3.52942188 L7.39222588,6.26095312 C7.93937717,6.50464062 8.47450555,6.64835937 8.98034178,6.68510937 C8.62402672,5.59201562 8.0805916,4.50635937 7.39987682,3.52942188 M7.3664313,15.3458594 C8.05042505,15.1559844 8.59823213,14.7027344 8.95957495,14.0224219 C8.45505031,13.4753281 7.92101492,13.0012969 7.37408223,12.6127969 L7.3664313,15.3458594 M6.15124393,5.54410937 L6.15911346,2.81104687 C5.47227793,3.00092188 4.92425226,3.45745312 4.56290944,4.13929687 C5.06896426,4.68398437 5.60299965,5.15648437 6.15124393,5.54410937 M6.12566794,14.6307656 L6.13331888,11.8959531 C5.5846374,11.6498594 5.04972762,11.5063594 4.54236121,11.4654531 C4.89845767,12.5618281 5.44211138,13.6490156 6.12566794,14.6307656 M2.27549792,2.81454688 C1.7329372,3.37564062 1.39104962,4.19551562 1.2845923,5.19979687 L2.66219813,5.99560937 C2.70351319,5.24135937 2.8226492,4.53873437 3.01479702,3.90217187 C2.75575815,3.55326562 2.5078678,3.18817187 2.27549792,2.81454688 M2.25473109,10.1470469 C2.48994275,10.0433594 2.73914469,9.96548437 2.99905795,9.91648437 C2.80997051,9.05964062 2.69629944,8.22248437 2.65804476,7.42229687 L1.28065753,6.62648437 C1.3809941,7.75020312 1.71719813,8.96207812 2.25473109,10.1470469 M11.2386797,15.3537344 C11.7867054,14.7926406 12.132965,13.9688281 12.2407339,12.9586406 L10.862035,12.1621719 C10.8205014,12.9242969 10.7009282,13.6347969 10.5050642,14.2772656 C10.7627915,14.6237656 11.0076214,14.9838281 11.2386797,15.3537344 M11.2594466,7.98098437 C11.0272953,8.08620312 10.7809351,8.16407812 10.5221149,8.21570312 C10.7140441,9.08195312 10.8290267,9.92807812 10.8657512,10.7352656 L12.2448872,11.5321719 C12.1445507,10.3986094 11.8041933,9.17492187 11.2594466,7.98098437 M6.7840857,1.30910937 C10.5146825,3.46926562 13.5263099,8.69104687 13.5199805,12.9824844 C13.507729,17.2737031 10.4720559,19.0048906 6.73992887,16.8488906 C3.00933206,14.6933281 -0.00666724497,9.46607812 0.00553712067,5.17442187 C0.0175971548,0.884734375 3.0532703,-0.846453125 6.7840857,1.30910937" id="Fill-92"></path>
            </g>
            <g id="Page-1" transform="translate(171.880638, 20.000000)" fill="#61D000">
                <g id="Group-13" transform="translate(0.000000, 3.789474)">
                    <path d="M0.18799905,0.364061197 L0.563251616,0.151448084 C0.609403777,0.125325562 0.668514044,0.119443669 0.737209759,0.138127328 L0.361779685,0.350913437 C0.293261478,0.331883785 0.234151211,0.338111671 0.18799905,0.364061197" id="Fill-1"></path>
                    <polygon id="Fill-3" points="0.361868439 0.310954737 0.737121005 0.136307368 2.23688871 0.469117895 1.86145864 0.643765263"></polygon>
                    <path d="M1.86149414,0.670388884 L2.2367467,0.469089474 C2.26674561,0.476460079 2.29727704,0.488580629 2.32745345,0.504632169 L1.95202338,0.705931579 C1.92184696,0.689716248 1.89149304,0.677759489 1.86149414,0.670388884" id="Fill-5"></path>
                    <path d="M2.59197633,1.20618947 L2.21672377,1.38083684 C2.29802257,1.34289474 2.33725191,1.25109474 2.31382081,1.12433684 L2.68907338,0.949689474 C2.71285949,1.07658947 2.67327514,1.16824737 2.59197633,1.20618947" id="Fill-7"></path>
                    <path d="M1.95198787,0.674545263 C2.12363841,0.75384 2.28659104,0.944687368 2.31374981,1.12430842 C2.35049403,1.32197684 2.23440359,1.43438211 2.04482472,1.39061368 L0.538666715,1.04515579 C0.508667811,1.03876105 0.478136382,1.02838737 0.447959969,1.01446105 C0.276486943,0.935166316 0.113711823,0.744176842 0.086198035,0.564697895 C0.0561991307,0.380671579 0.172644582,0.268266316 0.361868439,0.310897895 L1.86145864,0.643708421 C1.89145754,0.650103158 1.92181146,0.660476842 1.95198787,0.674545263" id="Fill-9"></path>
                    <path d="M1.95198787,0.674545263 L2.32741795,0.499897895 C2.49889097,0.579192632 2.6618436,0.770182105 2.68900237,0.949803158 L2.31374981,1.12430842 C2.28659104,0.944687368 2.12363841,0.75384 1.95198787,0.674545263" id="Fill-11"></path>
                </g>
                <g id="Group-26" transform="translate(0.000000, 1.894737)">
                    <path d="M0.174741809,0.32441004 L0.619485591,0.118848799 C0.697536652,0.0828881259 0.803989043,0.0882404121 0.920539684,0.141596015 C0.941156945,0.151129775 0.961984587,0.162001606 0.983232989,0.174546027 L0.538489207,0.380107268 C0.517240805,0.367562847 0.496202783,0.356523757 0.475795902,0.347157256 C0.359245261,0.293634394 0.25279287,0.288282108 0.174741809,0.32441004" id="Fill-14"></path>
                    <path d="M3.02699266,1.96277414 L2.58224888,2.16237113 C2.64788751,2.13281323 2.69375039,2.07467188 2.70910815,1.99216962 L3.15406231,1.79257263 C3.13849417,1.87523729 3.09263129,1.93321624 3.02699266,1.96277414" id="Fill-16"></path>
                    <polygon id="Fill-18" points="2.70113474 2.04096184 3.14587852 1.77714406 3.15387297 1.79753681 2.70912919 2.06135459"></polygon>
                    <polygon id="Fill-20" points="0.538384017 0.371861053 0.983127799 0.17226406 2.77135966 1.17447158 2.32661587 1.37423098"></polygon>
                    <path d="M0.430711421,1.10665083 C0.187722269,0.966169624 0.0177350524,0.701935038 0.0547619709,0.503637293 L0.0482401841,0.48869594 C0.0806387377,0.307126015 0.260724205,0.243950075 0.475732788,0.339769624 C0.496350049,0.349026767 0.517177691,0.359583158 0.538426093,0.371926015 L2.32665795,1.37413353 C2.56838482,1.51282827 2.73837204,1.77836211 2.70113474,1.97665985 L2.70912919,1.99208842 C2.67546835,2.1725215 2.49622441,2.23585985 2.2824781,2.14036511 C2.26101932,2.13094556 2.23956054,2.11990195 2.217681,2.10723429 L0.430711421,1.10665083 Z" id="Fill-22"></path>
                    <path d="M2.32661587,1.37421474 L2.77135966,1.17461774 C3.01329691,1.31331248 3.18307374,1.57884632 3.14604682,1.77698165 L2.70109266,1.97674105 C2.73832996,1.7782809 2.56834274,1.51290947 2.32661587,1.37421474" id="Fill-24"></path>
                </g>
                <g id="Group-35" transform="translate(0.946711, 0.000000)">
                    <path d="M0.157078286,0.363371517 L0.55734769,0.157904025 C0.632516542,0.119452012 0.734193301,0.129817337 0.837952825,0.182647059 C0.901003777,0.21474613 0.964812097,0.262727554 1.02388686,0.325086687 L0.623617459,0.53055418 C0.564353351,0.468195046 0.500545031,0.420380805 0.437304737,0.388114551 C0.333734556,0.33528483 0.232057796,0.324919505 0.157078286,0.363371517" id="Fill-27"></path>
                    <polygon id="Fill-29" points="0.62357959 0.53055418 1.02384899 0.325086687 2.46587916 1.86600929 2.06560976 2.07164396"></polygon>
                    <path d="M2.06566656,2.07161053 C2.24421625,2.26320186 2.31976379,2.52417399 2.2260394,2.67045882 C2.15674016,2.78431022 2.0137868,2.79434118 1.86647857,2.71944334 C1.80361696,2.68751146 1.74018733,2.6398644 1.68149125,2.57834118 L0.239271734,1.03725139 C0.053527039,0.829610526 -0.0218311553,0.567635294 0.0790882355,0.437232817 C0.148008795,0.323715789 0.290583469,0.313183282 0.437323671,0.388248297 C0.500563965,0.420347368 0.564372285,0.46816161 0.623636393,0.530520743 L2.06566656,2.07161053 Z" id="Fill-31"></path>
                    <path d="M2.54826195,2.53886935 L2.14799255,2.74433684 C2.17923401,2.72828731 2.20574192,2.70371146 2.22600153,2.67044211 C2.31972592,2.52415728 2.24436773,2.26335232 2.06562869,2.07159381 L2.4658981,1.86612632 C2.64463713,2.05788483 2.71999532,2.31885697 2.62627094,2.4651418 C2.60620066,2.49841115 2.57950342,2.52281981 2.54826195,2.53886935" id="Fill-33"></path>
                </g>
                <g id="Group-72" transform="translate(2.840133, 0.947368)">
                    <path d="M1.6492566,9.03681249 L1.28537532,9.24915514 C1.34045669,9.21684588 1.38039068,9.157929 1.39691509,9.07516893 L1.76079636,8.86282628 C1.74427195,8.94575913 1.70451009,9.00450323 1.6492566,9.03681249" id="Fill-36"></path>
                    <path d="M6.01099508,13.3368245 L6.37487635,13.0968806 C6.42066274,13.0668144 6.48348992,13.0744286 6.54769414,13.1164041 L6.18364073,13.356348 C6.11960864,13.3143725 6.05678146,13.3067583 6.01099508,13.3368245" id="Fill-38"></path>
                    <path d="M8.07083162,15.3276719 L7.70695034,15.547135 C7.7255403,15.5357064 7.73999916,15.5165994 7.74791711,15.4887424 L8.11179839,15.269458 C8.10388044,15.2969578 8.08959371,15.316422 8.07083162,15.3276719" id="Fill-40"></path>
                    <path d="M7.08074406,13.2190642 L6.71686278,13.4314069 C6.60377385,13.4974076 6.44472641,13.4816849 6.27896592,13.3857938 C6.25555634,13.3721445 6.23197463,13.3569401 6.18360631,13.3242853 L6.54765971,13.1121154 C6.59602804,13.1445975 6.61943762,13.1598018 6.64301933,13.1732784 C6.80860769,13.2693423 6.96765513,13.2852377 7.08074406,13.2190642" id="Fill-42"></path>
                    <path d="M0.553791499,3.13978584 L0.917844904,2.92744319 C1.09978554,2.82135826 1.3318158,2.80511724 1.58846054,2.88701343 L1.22440713,3.09935608 C0.967762393,3.01728711 0.735904266,3.03370091 0.553791499,3.13978584" id="Fill-44"></path>
                    <polygon id="Fill-46" points="8.85296981 12.8107409 9.21685108 12.5983983 8.11178117 15.2693543 7.7478999 15.481697"></polygon>
                    <path d="M1.66152941,0.349968704 L2.02541069,0.124764798 C2.09873776,0.0795041273 2.19771209,0.0833522005 2.30615353,0.147120272 L1.94227225,0.372140936 C1.83383081,0.308372865 1.73485648,0.304708033 1.66152941,0.349968704" id="Fill-48"></path>
                    <path d="M1.94225504,0.356300254 L2.30613632,0.143957604 C2.54694516,0.289781198 2.72527109,0.616847623 2.70255002,0.876703884 L2.33866875,1.08887376 C2.36138981,0.829017495 2.18271963,0.502296624 1.94225504,0.356300254" id="Fill-50"></path>
                    <path d="M2.33861711,1.08890831 L2.70249838,0.876565662 C3.85197765,3.17294171 6.32375396,5.64019397 7.41402075,6.64921031 L7.05013948,6.86138018 C5.95987268,5.85253662 3.48792424,3.38511158 2.33861711,1.08890831" id="Fill-52"></path>
                    <path d="M10.1234387,12.6219305 L9.75955746,12.8342731 C9.96886665,12.7121199 10.1179306,12.4809446 10.1740447,12.1499043 L10.537926,11.9375617 C10.4818119,12.268602 10.3327479,12.4997773 10.1234387,12.6219305" id="Fill-54"></path>
                    <path d="M11.0572056,12.3528134 L10.6933243,12.565156 C10.7403156,12.5375117 10.7719874,12.4839509 10.7805939,12.4093114 L11.1444751,12.1971415 C11.1360408,12.2716083 11.1041969,12.3253419 11.0572056,12.3528134" id="Fill-56"></path>
                    <path d="M7.16278087,6.74515325 L7.52666215,6.5328106 C7.6304561,6.47216595 7.77125784,6.48045924 7.92892825,6.57168537 C7.94941163,6.58343419 7.97006715,6.59691078 7.99106692,6.61159681 L7.62701351,6.82376668 C7.60618587,6.80908065 7.58535823,6.79577684 7.56504697,6.78402802 C7.40737656,6.69262911 7.26657482,6.6845086 7.16278087,6.74515325" id="Fill-58"></path>
                    <polygon id="Fill-60" points="10.9380233 11.1713831 11.3020767 10.9590404 11.1444063 12.1971588 10.780525 12.4093286"></polygon>
                    <polygon id="Fill-62" points="7.62706515 6.82378396 7.99094643 6.61144131 9.43683229 7.66140574 9.07277888 7.87357561"></polygon>
                    <path d="M9.07284774,7.87361016 L9.43672901,7.66126751 C10.2507283,8.25354628 10.8351072,9.45814592 10.7237396,10.3522657 L10.3598583,10.5644356 C10.4712259,9.67048857 9.88684705,8.46606171 9.07284774,7.87361016" id="Fill-64"></path>
                    <polygon id="Fill-66" points="10.3854883 10.4016453 10.7493696 10.1893026 11.0349321 10.3968075 10.6710508 10.6089774"></polygon>
                    <path d="M10.6710852,10.609012 L11.0349665,10.3966693 C11.1996942,10.513812 11.3268977,10.76382 11.3021111,10.9590577 L10.9380577,11.1714004 C10.9628443,10.9761626 10.8358129,10.7261546 10.6710852,10.609012" id="Fill-68"></path>
                    <path d="M10.6710852,10.609012 C10.8358129,10.7261546 10.9628443,10.9761626 10.9380577,11.1714004 L10.7805594,12.4093459 C10.7617973,12.5733111 10.6313234,12.636029 10.4698661,12.542384 C10.4554072,12.5342635 10.4406041,12.524588 10.4256289,12.5135303 L10.1510827,12.3061982 L10.1739759,12.1498352 C10.0534854,12.8596022 9.50594219,13.1106468 8.85288374,12.8107064 L7.74798596,15.4816624 C7.72509277,15.5588936 7.6488395,15.5683964 7.5670781,15.5210555 L7.44658761,15.4376044 L6.3303293,14.6233074 L5.86351472,14.2829372 C5.75920438,14.2098526 5.68260686,14.0358664 5.72133594,13.9365198 L5.95732517,13.3724036 C5.99416083,13.281523 6.08762703,13.2687376 6.18367516,13.3243717 C6.23204348,13.3568537 6.25562519,13.3720581 6.27886265,13.3857074 C6.52294195,13.5272116 6.75273452,13.494384 6.84275813,13.2823869 L7.46431693,11.8536958 L7.05791972,11.5572109 C6.81504532,11.3795964 6.6267359,11.0533938 6.5955805,10.7648566 C5.4535028,10.1463158 2.85865406,8.68704319 1.3969323,9.07509982 C1.35699831,9.27500254 1.18194284,9.33547441 0.980035209,9.21850454 C0.950945363,9.20157241 0.921339129,9.18101198 0.891560765,9.15682323 C0.681735185,8.97678984 0.562449601,8.66147223 0.58637557,8.43392523 L0.882093655,5.84901198 C0.389459685,5.26761815 0.0813482928,4.44934737 0.165691635,3.8302882 C0.243321936,3.19602468 0.677776212,2.92459238 1.22445877,3.09926969 L1.53756191,0.561178947 C1.56131575,0.333631942 1.7344778,0.241023593 1.94223783,0.356265699 C2.18287455,0.502262069 2.3613726,0.829155717 2.33865153,1.0888392 C3.48795867,3.38504247 5.95990711,5.85264029 7.0501739,6.86148385 C7.14759907,6.69319927 7.33917895,6.65311506 7.56501255,6.78390708 C7.5853238,6.79582868 7.60615144,6.80913249 7.62697908,6.82381851 L9.07286495,7.87361016 C9.88669214,8.46606171 10.4712431,9.67048857 10.3597034,10.5644356 L10.3855228,10.4016799 L10.6710852,10.609012 Z" id="Fill-70"></path>
                </g>
            </g>
            <g id="Group-113" transform="translate(41.970854, 119.857000)" fill="#0019FF">
                <polygon id="Fill-95" points="0.435961079 6.27441277 1.06522622 5.90832766 2.85181532 4.89168936 2.22255018 5.25807234"></polygon>
                <path d="M2.22255018,5.25804255 L2.85181532,4.89195745 C3.02178239,4.79514894 3.27777483,4.85502128 3.53882759,5.00604255 C3.75284917,5.12965957 3.97044275,5.31434043 4.1466608,5.52404255 L3.517098,5.88982979 C3.34087994,5.68042553 3.12328637,5.49574468 2.90956245,5.37212766 C2.64850969,5.22140426 2.39221959,5.16123404 2.22255018,5.25804255" id="Fill-97"></path>
                <polygon id="Fill-99" points="3.51697893 5.88985957 4.14654173 5.52377447 5.34494355 7.22730638 4.71538075 7.59339149"></polygon>
                <path d="M8.84879543,6.61011489 L8.21953029,6.9762 C8.00848536,7.0989234 7.79535677,7.21211489 7.60366011,7.3208383 C6.8502684,7.74858298 5.77569548,8.35207234 5.0732046,7.94607234 C4.93865974,7.86832766 4.81780749,7.75364681 4.71541052,7.59339149 L5.34497332,7.22730638 C5.44707263,7.3875617 5.56822254,7.50224255 5.7027674,7.57998723 C6.40496062,7.98598723 7.47953354,7.38279574 8.23352058,6.95475319 C8.42462191,6.84602979 8.6377505,6.7328383 8.84879543,6.61011489" id="Fill-101"></path>
                <polygon id="Fill-103" points="8.51451693 1.68065532 9.14378207 1.31457021 10.9250132 0.303591489 10.2951527 0.669378723"></polygon>
                <path d="M9.99820149,9.70691489 L9.36893635,10.073 C11.4094342,8.88597872 13.0888637,7.28610638 13.1189279,5.22065957 L13.7484907,4.85487234 C13.7181288,6.92002128 12.0386994,8.52019149 9.99820149,9.70691489" id="Fill-105"></path>
                <path d="M10.2952718,0.672177526 L10.9248346,0.303757768 C11.084681,0.210828456 11.3162649,0.253695848 11.5433838,0.385895289 L10.9141186,0.754015275 C10.6867021,0.621815834 10.4554159,0.579248214 10.2952718,0.672177526" id="Fill-107"></path>
                <path d="M10.9141484,0.750965957 L11.5434135,0.384880851 C11.7660674,0.51326383 11.984554,0.72713617 12.1277312,0.983008511 C12.9725062,2.50215745 13.6104036,3.8315617 13.7482228,4.85475319 L13.1189577,5.2208383 C12.9808408,4.19764681 12.3432411,2.86824255 11.498466,1.34939149 C11.3549912,1.0929234 11.1368023,0.879646809 10.9141484,0.750965957" id="Fill-109"></path>
                <path d="M10.9141484,0.750965957 C11.1368023,0.879646809 11.3549912,1.0929234 11.498466,1.34939149 C12.3432411,2.86824255 12.9808408,4.19764681 13.1189577,5.2208383 C13.0882981,7.32828511 11.3398102,8.95139149 9.24245822,10.1455617 C7.27726974,11.2619872 5.02096428,12.1833064 3.30224295,11.1902 C3.19478565,11.1282426 3.08970969,11.0585404 2.98671738,10.9813915 C2.16426725,10.3442426 1.32633851,9.11581702 0.426495312,7.61305106 C0.13656899,7.12573191 0.13865265,6.44181702 0.436020612,6.27441277 L2.22260971,5.25807234 C2.39227912,5.16126383 2.64827156,5.22143404 2.90932432,5.37215745 C3.1233459,5.49577447 3.34093948,5.68045532 3.51685986,5.88985957 L4.71555935,7.59339149 C4.81795632,7.75364681 4.93880857,7.86832766 5.07335343,7.94607234 C5.77554665,8.35207234 6.85041723,7.74858298 7.60380894,7.3208383 C8.50008015,6.81207234 9.86636538,6.20679574 9.2954427,4.97509362 L8.42119875,3.09551915 C8.21878613,2.53194468 8.22086979,1.84832766 8.5143681,1.68062553 L10.2953015,0.669646809 C10.4554457,0.577306383 10.6867318,0.619604255 10.9141484,0.750965957" id="Fill-111"></path>
            </g>
        </g>
    </g>
</svg>