<?xml version="1.0" encoding="UTF-8"?>
<svg width="594px" height="532px" viewBox="0 0 594 532" version="1.1" xmlns="http://www.w3.org/2000/svg" xmlns:xlink="http://www.w3.org/1999/xlink">
    <!-- Generator: Sketch 58 (84663) - https://sketch.com -->
    <title>home page_laptop</title>
    <desc>Created with Sketch.</desc>
    <defs>
        <filter x="-10.0%" y="-15.5%" width="120.0%" height="130.9%" filterUnits="objectBoundingBox" id="filter-1">
            <feGaussianBlur stdDeviation="10" in="SourceGraphic"></feGaussianBlur>
        </filter>
        <polygon id="path-2" points="0.8872 0.276 220.7852 0.276 220.7852 294.1574 0.8872 294.1574"></polygon>
    </defs>
    <g id="home-page_laptop" stroke="none" stroke-width="1" fill="none" fill-rule="evenodd">
        <g id="laptop_1" transform="translate(82.000000, 21.000000)">
            <polygon id="Rectangle" fill="#D8D8D8" filter="url(#filter-1)" points="163.306608 222.07 341.970701 341.7352 214.793893 416.199167 41.3907005 314.953473"></polygon>
            <g id="Group-34" transform="translate(0.000000, 0.724000)">
                <g id="Group-3" transform="translate(154.000000, 0.000000)">
                    <mask id="mask-3" fill="white">
                        <use xlink:href="#path-2"></use>
                    </mask>
                    <g id="Clip-2"></g>
                    <path d="M220.7852,129.0674 L220.7852,291.3294 L215.6952,294.1574 L3.6892,165.9874 L0.8872,3.5614 C0.8872,3.5614 4.3712,1.6594 5.6452,0.9154 C6.9112,0.1734 8.5272,-0.0106 9.9812,0.8294 L215.1312,119.2734 C218.6312,121.2934 220.7852,125.0254 220.7852,129.0674" id="Fill-1" fill="#B4BBE1" mask="url(#mask-3)"></path>
                </g>
                <path d="M369.6954,131.8956 L369.6954,294.1576 L152.5974,168.8156 L152.5974,7.2896 C152.5974,4.0616 156.0914,2.0416 158.8894,3.6556 L364.0394,122.0996 C367.5394,124.1196 369.6954,127.8536 369.6954,131.8956" id="Fill-4" fill="#DAE3F2"></path>
                <polygon id="Fill-6" fill="#016BFF" points="359.1426 129.253 359.1426 277.483 158.8846 162.133 158.8846 13.903"></polygon>
                <polygon id="Fill-8" fill="#75BCFC" points="299.0058 107.213 299.0058 122.795 185.5898 57.469 185.5898 41.885"></polygon>
                <polygon id="Fill-10" fill="#2875DF" points="188.7168 54.838 188.7168 47.922 295.8788 109.652 295.8788 116.564"></polygon>
                <g id="Group-22" transform="translate(179.000000, 88.000000)" fill="#75BCFC">
                    <path d="M0.681234512,19.9251956 L16.504528,28.8359607 C17.2198243,29.2390273 18,28.8619396 18,28.1124875 L18,10.1705097 C18,9.73988967 17.7307502,9.30612065 17.3195765,9.0746722 L1.49628295,0.163907163 C0.780986709,-0.239159513 0,0.138715496 0,0.887380356 L0,18.8293581 C0,19.2599782 0.269249831,19.6937472 0.681234512,19.9251956" id="Fill-12"></path>
                    <path d="M22.1147342,13.2666769 L22.1147342,31.1200831 C22.1147342,31.8263348 22.4872206,32.4802268 23.0947165,32.8404214 L120.555982,90.6268532 C121.506099,91.1901934 122.732998,90.8766491 123.296338,89.9265325 C123.479402,89.6177823 123.576,89.265456 123.576,88.9065148 L123.576,74.673488 C123.576,73.2687733 122.839155,71.9670066 121.634793,71.2440024 L23.6294324,12.4093055 C23.1559193,12.1250455 22.5416228,12.2784655 22.2573628,12.7519786 C22.1640356,12.9074408 22.1147342,13.0853528 22.1147342,13.2666769 Z" id="Path-22"></path>
                </g>
                <g id="Group-22-Copy" transform="translate(179.000000, 113.000000)" fill="#75BCFC">
                    <path d="M0.681234512,19.9251956 L16.504528,28.8359607 C17.2198243,29.2390273 18,28.8619396 18,28.1124875 L18,10.1705097 C18,9.73988967 17.7307502,9.30612065 17.3195765,9.0746722 L1.49628295,0.163907163 C0.780986709,-0.239159513 0,0.138715496 0,0.887380356 L0,18.8293581 C0,19.2599782 0.269249831,19.6937472 0.681234512,19.9251956" id="Fill-12"></path>
                    <path d="M22.1147342,13.2666769 L22.1147342,31.1200831 C22.1147342,31.8263348 22.4872206,32.4802268 23.0947165,32.8404214 L120.555982,90.6268532 C121.506099,91.1901934 122.732998,90.8766491 123.296338,89.9265325 C123.479402,89.6177823 123.576,89.265456 123.576,88.9065148 L123.576,74.673488 C123.576,73.2687733 122.839155,71.9670066 121.634793,71.2440024 L23.6294324,12.4093055 C23.1559193,12.1250455 22.5416228,12.2784655 22.2573628,12.7519786 C22.1640356,12.9074408 22.1147342,13.0853528 22.1147342,13.2666769 Z" id="Path-22"></path>
                </g>
                <g id="Group-22-Copy-2" transform="translate(179.000000, 138.000000)" fill="#75BCFC">
                    <path d="M0.681234512,19.9251956 L16.504528,28.8359607 C17.2198243,29.2390273 18,28.8619396 18,28.1124875 L18,10.1705097 C18,9.73988967 17.7307502,9.30612065 17.3195765,9.0746722 L1.49628295,0.163907163 C0.780986709,-0.239159513 0,0.138715496 0,0.887380356 L0,18.8293581 C0,19.2599782 0.269249831,19.6937472 0.681234512,19.9251956" id="Fill-12"></path>
                    <path d="M22.1147342,13.2666769 L22.1147342,31.1200831 C22.1147342,31.8263348 22.4872206,32.4802268 23.0947165,32.8404214 L120.555982,90.6268532 C121.506099,91.1901934 122.732998,90.8766491 123.296338,89.9265325 C123.479402,89.6177823 123.576,89.265456 123.576,88.9065148 L123.576,74.673488 C123.576,73.2687733 122.839155,71.9670066 121.634793,71.2440024 L23.6294324,12.4093055 C23.1559193,12.1250455 22.5416228,12.2784655 22.2573628,12.7519786 C22.1640356,12.9074408 22.1147342,13.0853528 22.1147342,13.2666769 Z" id="Path-22"></path>
                </g>
                <g id="Group-22-Copy-3" transform="translate(179.000000, 163.000000)" fill="#75BCFC">
                    <path d="M16.504528,18.8359607 C17.2198243,19.2390273 18,18.8619396 18,18.1124875 L18,10.1705097 C18,9.73988967 17.7307502,9.30612065 17.3195765,9.0746722 L1.49628295,0.163907163 C0.780986709,-0.239159513 0,0.138715496 0,0.887380356 L0,8.8293581 C0,9.25997816 0.269249831,9.69374718 0.681234512,9.92519562 L16.504528,18.8359607 Z" id="Fill-12"></path>
                    <path d="M22.1147342,13.2666769 L22.1147342,20.6799448 C22.1147342,21.0383233 22.3065124,21.3693015 22.6174339,21.5475233 L122.0787,78.5592127 C122.55785,78.8338641 123.168927,78.6680849 123.443578,78.1889345 C123.530348,78.0375589 123.576,77.8661148 123.576,77.6916343 L123.576,72.9753846 C123.576,72.624206 123.391789,72.2987643 123.090698,72.1180132 L23.6294324,12.4093055 C23.1559193,12.1250455 22.5416228,12.2784655 22.2573628,12.7519786 C22.1640356,12.9074408 22.1147342,13.0853528 22.1147342,13.2666769 Z" id="Path-22"></path>
                </g>
                <path d="M307.286776,200.789164 L337.17522,217.688891 C338.526335,218.453328 340,217.738161 340,216.316787 L340,182.288898 C340,181.472205 339.491417,180.649539 338.714756,180.210585 L308.826312,163.310858 C307.475197,162.546422 306,163.263081 306,164.682963 L306,198.710852 C306,199.527545 306.508583,200.35021 307.286776,200.789164" id="Fill-12-Copy" fill="#75BCFC"></path>
                <g id="Group-33" transform="translate(0.000000, 175.000000)" fill="#B4BBE1">
                    <path d="M152.5978,0.0372 L369.6958,119.1572 L369.6958,125.3772 L217.9978,211.5252 C214.5098,213.5072 210.2318,213.4912 206.7578,211.4852 L3.8378,94.3292 C1.9578,93.2432 1.0138,91.3512 1.0038,89.4532 C0.9938,87.5232 1.0038,83.1812 1.0038,83.1812 L152.5978,0.0372 Z" id="Fill-31"></path>
                </g>
            </g>
            <g id="Group-37" transform="translate(1.000000, 168.724000)" fill="#DAE3F2">
                <path d="M2.872,85.274 C-0.936,87.438 -0.956,92.916 2.838,95.106 L2.838,95.106 L205.758,212.264 C209.232,214.268 213.51,214.286 216.998,212.304 L216.998,212.304 L368.696,126.158 L151.598,0.816 L2.872,85.274 Z" id="Fill-35"></path>
            </g>
            <polygon id="Fill-38" fill="#B4BBE1" points="75.0156 235.2172 157.0036 188.6572 336.3576 292.2052 254.3696 338.7652"></polygon>
            <g id="Group-42" transform="translate(84.000000, 191.724000)" fill="#FFFFFF">
                <path d="M94.76,13.674 L102.214,17.978 L93.248,23.072 L85.792,18.766 L94.76,13.674 Z M85.132,8.118 L92.588,12.42 L83.618,17.514 L76.166,13.208 L85.132,8.118 Z M72.142,0.616 L82.962,6.86 L73.992,11.954 L63.174,5.708 L72.142,0.616 Z M46.978,14.95 L196.314,101.17 L187.344,106.262 L38.008,20.044 L46.978,14.95 Z M104.388,19.232 L111.842,23.536 L102.874,28.63 L95.418,24.326 L104.388,19.232 Z M34.394,22.118 L176.92,104.406 L167.952,109.498 L25.426,27.21 L34.394,22.118 Z M114.014,24.79 L121.47,29.092 L112.5,34.186 L105.044,29.884 L114.014,24.79 Z M21.812,29.286 L170.18,114.946 L161.212,120.038 L12.844,34.378 L21.812,29.286 Z M133.268,35.906 L140.722,40.21 L131.754,45.304 L124.298,41 L133.268,35.906 Z M123.64,30.346 L131.096,34.65 L122.126,39.744 L114.672,35.442 L123.64,30.346 Z M171.778,58.14 L179.232,62.442 L170.262,67.536 L162.806,63.232 L171.778,58.14 Z M162.15,52.578 L169.602,56.886 L160.636,61.978 L153.18,57.672 L162.15,52.578 Z M152.52,47.022 L159.976,51.326 L151.008,56.418 L143.554,52.116 L152.52,47.022 Z M142.894,41.464 L150.35,45.77 L141.38,50.862 L133.926,46.558 L142.894,41.464 Z M9.23,36.452 L16.212,40.482 L7.244,45.576 L0.262,41.546 L9.23,36.452 Z M181.402,63.696 L188.858,68.002 L179.888,73.096 L172.434,68.79 L181.402,63.696 Z M16.972,41.276 L25.3,46.086 L16.33,51.178 L8,46.368 L16.972,41.276 Z M191.032,69.256 L198.484,73.56 L189.518,78.654 L182.06,74.348 L191.032,69.256 Z M27.47,47.338 L35.8,52.148 L26.832,57.242 L18.504,52.432 L27.47,47.338 Z M200.658,74.814 L208.112,79.118 L199.144,84.212 L191.688,79.906 L200.658,74.814 Z M37.972,53.4 L46.304,58.21 L37.334,63.304 L29.002,58.494 L37.972,53.4 Z M48.968,59.276 L120.622,101.454 L111.654,106.548 L40,64.37 L48.968,59.276 Z M230.748,92.186 L243.112,99.324 L234.142,104.416 L221.78,97.28 L230.748,92.186 Z M219.91,85.93 L228.576,90.934 L219.606,96.028 L210.944,91.024 L219.91,85.93 Z M210.282,80.372 L217.74,84.674 L208.77,89.768 L201.318,85.466 L210.282,80.372 Z M218.748,99.186 L231.112,106.324 L222.142,111.416 L209.78,104.28 L218.748,99.186 Z M207.91,92.93 L216.576,97.934 L207.606,103.028 L198.944,98.024 L207.91,92.93 Z M198.282,87.372 L205.74,91.674 L196.77,96.768 L189.318,92.466 L198.282,87.372 Z M188.658,81.814 L196.112,86.118 L187.144,91.212 L179.688,86.906 L188.658,81.814 Z M179.032,76.256 L186.484,80.56 L177.518,85.654 L170.06,81.348 L179.032,76.256 Z M169.402,70.696 L176.858,75.002 L167.888,80.096 L160.434,75.79 L169.402,70.696 Z M159.778,65.14 L167.232,69.442 L158.262,74.536 L150.806,70.232 L159.778,65.14 Z M150.15,59.578 L157.602,63.886 L148.636,68.978 L141.18,64.672 L150.15,59.578 Z M140.52,54.022 L147.976,58.326 L139.008,63.418 L131.554,59.116 L140.52,54.022 Z M130.894,48.464 L138.35,52.77 L129.38,57.862 L121.926,53.558 L130.894,48.464 Z M121.268,42.906 L128.722,47.21 L119.754,52.304 L112.298,48 L121.268,42.906 Z M111.64,37.346 L119.096,41.65 L110.126,46.744 L102.672,42.442 L111.64,37.346 Z M102.014,31.79 L109.47,36.092 L100.5,41.186 L93.044,36.884 L102.014,31.79 Z M92.388,26.232 L99.842,30.536 L90.874,35.63 L83.418,31.326 L92.388,26.232 Z M82.76,20.674 L90.214,24.978 L81.248,30.072 L73.792,25.766 L82.76,20.674 Z M73.132,15.118 L80.588,19.42 L71.618,24.514 L64.166,20.208 L73.132,15.118 Z M60.142,7.616 L70.962,13.86 L61.992,18.954 L51.174,12.708 L60.142,7.616 Z M209.178,104.436 L221.56,111.584 L230.53,106.49 L218.148,99.342 L209.178,104.436 Z M189.516,107.516 L208.978,118.752 L217.948,113.66 L198.484,102.422 L189.516,107.516 Z M170.126,110.752 L196.394,125.92 L205.364,120.828 L179.092,105.658 L170.126,110.752 Z M135.298,119.508 L143.872,124.458 L152.84,119.364 L144.268,114.418 L135.298,119.508 Z M125.298,113.508 L133.872,118.458 L142.84,113.364 L134.268,108.418 L125.298,113.508 Z M114.298,107.508 L122.872,112.458 L131.84,107.364 L123.268,102.418 L114.298,107.508 Z M163.384,121.292 L183.812,133.088 L192.782,127.994 L172.354,116.2 L163.384,121.292 Z M146.042,125.712 L154.486,130.588 L163.456,125.494 L155.012,120.618 L146.042,125.712 Z M165.434,126.858 L156.658,131.84 L171.23,140.256 L180.2,135.162 L165.244,126.526 L165.434,126.858 Z" id="Fill-40"></path>
            </g>
            <g id="Group-51" transform="translate(86.000000, 274.724000)">
                <path d="M30.2696,0.548 L76.6776,27.342 C77.5196,27.83 77.5156,29.046 76.6696,29.524 L50.9396,44.138 C49.7716,44.802 48.3376,44.796 47.1716,44.124 L0.7636,17.33 C-0.0804,16.842 -0.0744,15.626 0.7716,15.146 L26.5016,0.534 C27.6696,-0.13 29.1036,-0.124 30.2696,0.548" id="Fill-43" fill="#F7F5FA"></path>
                <path d="M76.6778,28.2394 L30.2698,1.4454 C29.1038,0.7734 27.6698,0.7674 26.5018,1.4314 L0.7718,16.0414 C0.4998,16.1974 0.3238,16.4314 0.2258,16.6894 C0.0198,16.1414 0.1938,15.4734 0.7718,15.1454 L26.5018,0.5334 C27.6698,-0.1306 29.1038,-0.1246 30.2698,0.5474 L76.6778,27.3434 C77.2498,27.6734 77.4218,28.3354 77.2158,28.8794 C77.1198,28.6234 76.9458,28.3934 76.6778,28.2394" id="Fill-45" fill="#B4BBE1"></path>
            </g>
        </g>
    </g>
</svg>