<?xml version="1.0" encoding="UTF-8"?>
<svg width="16px" height="18px" viewBox="0 0 16 18" version="1.1" xmlns="http://www.w3.org/2000/svg" xmlns:xlink="http://www.w3.org/1999/xlink">
    <!-- Generator: sketchtool 49.3 (51167) - http://www.bohemiancoding.com/sketch -->
    <title>EAFF99C3-06BA-4331-A934-163105C06712</title>
    <desc>Created with sketchtool.</desc>
    <defs></defs>
    <g id="Company-Screens" stroke="none" stroke-width="1" fill="none" fill-rule="evenodd">
        <g id="DG_C_Detail" transform="translate(-1077.000000, -237.000000)" fill="#FEC505">
            <g id="Buttons" transform="translate(1013.000000, 225.000000)">
                <g id="Add-an-executive" transform="translate(52.000000, 0.000000)">
                    <g id="Add_Executive" transform="translate(12.000000, 12.000000)">
                        <path d="M10.707016,15.7551205 L3.29389604,15.7551205 C2.56790644,15.7551205 2.11005873,14.9333659 2.52777636,14.3405352 C3.51187533,12.946015 5.12984714,12.0303196 6.96123799,12.0175509 C6.97400665,12.0175509 6.98677532,12.0211991 6.99954398,12.0211991 C7.01322468,12.0211991 7.0250813,12.0175509 7.03876201,12.0175509 C8.87106491,12.0303196 10.4899488,12.946015 11.4731357,14.3405352 C11.8908533,14.9333659 11.4330056,15.7551205 10.707016,15.7551205 M6.99954398,6.54891568 C8.00553208,6.54891568 8.82363845,7.3679341 8.82363845,8.37301016 C8.82363845,9.36531755 8.02559712,10.1724794 7.03876201,10.1934564 C7.0250813,10.1934564 7.01231264,10.1916324 6.99954398,10.1916324 C6.98677532,10.1916324 6.97400665,10.1934564 6.96123799,10.1934564 C5.97349083,10.1724794 5.1754495,9.36531755 5.1754495,8.37301016 C5.1754495,7.3679341 5.99446792,6.54891568 6.99954398,6.54891568 M9.75939892,10.7343005 C11.7020595,11.5277816 13.2260905,13.1849714 13.9073898,15.2078922 C14.3004821,16.3753126 13.390259,17.579215 12.1580832,17.579215 L1.84191684,17.579215 C0.609741021,17.579215 -0.300482124,16.3753126 0.0926102361,15.2078922 C0.773909524,13.1840593 2.29794046,11.5268695 4.23968903,10.7343005 C3.69337274,10.0967794 3.35135502,9.27776102 3.35135502,8.37301016 C3.35135502,6.08194749 5.46456847,4.28339034 7.84865996,4.82149821 C9.09542853,5.10149671 10.1260419,6.06917883 10.4881247,7.29497032 C10.881217,8.6229111 10.5163981,9.85143873 9.75939892,10.7343005 Z M16,3.20007343 C16,3.64248359 15.6415918,4.00009179 15.1999816,4.00009179 L13.5999449,4.00009179 L13.5999449,5.60012851 C13.5999449,6.04253866 13.2415367,6.40014687 12.7999266,6.40014687 C12.3583164,6.40014687 11.9999082,6.04253866 11.9999082,5.60012851 L11.9999082,4.00009179 L10.3998715,4.00009179 C9.95826136,4.00009179 9.59985313,3.64248359 9.59985313,3.20007343 C9.59985313,2.75766328 9.95826136,2.40005508 10.3998715,2.40005508 L11.9999082,2.40005508 L11.9999082,0.800018358 C11.9999082,0.357608206 12.3583164,-8.8817842e-16 12.7999266,-8.8817842e-16 C13.2415367,-8.8817842e-16 13.5999449,0.357608206 13.5999449,0.800018358 L13.5999449,2.40005508 L15.1999816,2.40005508 C15.6415918,2.40005508 16,2.75766328 16,3.20007343 Z" id="Combined-Shape-Copy-2"></path>
                    </g>
                </g>
            </g>
        </g>
    </g>
</svg>