<?xml version="1.0" encoding="UTF-8"?>
<svg width="8px" height="12px" viewBox="0 0 8 12" version="1.1" xmlns="http://www.w3.org/2000/svg" xmlns:xlink="http://www.w3.org/1999/xlink">
    <!-- Generator: sketchtool 49.2 (51160) - http://www.bohemiancoding.com/sketch -->
    <title>C785DA11-D9B0-43A4-9F60-828FBCBB0D4A</title>
    <desc>Created with sketchtool.</desc>
    <defs></defs>
    <g id="Company-Screens" stroke="none" stroke-width="1" fill="none" fill-rule="evenodd">
        <g id="A_DG_Home_Company-NewList_selected_z" transform="translate(-541.000000, -345.000000)" fill="#8D95A5">
            <g id="Action-Bar" transform="translate(465.000000, 324.000000)">
                <g id="All-dropdown" transform="translate(0.000000, 20.000000)">
                    <path d="M85.7557801,7.59514034 C86.0828487,7.27040794 86.0808462,6.74309325 85.7531101,6.41936208 L82.478962,3.20762401 C81.8498556,2.57818382 80.9060291,3.52201036 81.5354692,4.15145055 L83.4976718,6.11432055 C83.6291667,6.24548173 83.58578,6.3519459 83.4018874,6.3519459 L74.6674869,6.3519459 C74.2987004,6.3519459 74,6.65064631 74,7.01943285 C74,7.38788564 74.2987004,7.68691979 74.6674869,7.68691979 L83.4018874,7.68691979 C83.5861138,7.68691979 83.6318366,7.79071401 83.4976718,7.92487889 L81.5354692,9.88741514 C80.9060291,10.5165216 81.8498556,11.4606819 82.478962,10.8312417 L85.7557801,7.59514034 Z" id="assending" transform="translate(80.000000, 7.019412) rotate(270.000000) translate(-80.000000, -7.019412) "></path>
                </g>
            </g>
        </g>
    </g>
</svg>