<?xml version="1.0" encoding="UTF-8"?>
<svg width="14px" height="11px" viewBox="0 0 14 11" version="1.1" xmlns="http://www.w3.org/2000/svg" xmlns:xlink="http://www.w3.org/1999/xlink">
    <!-- Generator: sketchtool 52.6 (67491) - http://www.bohemiancoding.com/sketch -->
    <title>FDF411D7-E990-4F13-909D-5FC90426DA18</title>
    <desc>Created with sketchtool.</desc>
    <g id="Contacts" stroke="none" stroke-width="1" fill="none" fill-rule="evenodd">
        <g id="Contacts_Activities" transform="translate(-1008.000000, -566.000000)" fill="#8E9CAF">
            <g id="Right-Panel" transform="translate(120.000000, 415.000000)">
                <g id="activities_timeline-copy" transform="translate(270.000000, 0.000000)">
                    <g id="a2" transform="translate(0.000000, 133.000000)">
                        <g id="ic_attachment" transform="translate(624.835822, 23.785867) rotate(-34.000000) translate(-624.835822, -23.785867) translate(617.335822, 20.285867)">
                            <path d="M14.2367716,3.75705459 C14.2367716,2.06339605 12.8572594,0.683883856 11.1636009,0.683883856 L2.45628381,0.683883856 C1.2355521,0.683883856 0.236771614,1.68266434 0.236771614,2.90339605 C0.236771614,4.12412776 1.2355521,5.12290825 2.45628381,5.12290825 L11.1636009,5.12290825 C11.9114058,5.12290825 12.5294545,4.50485947 12.5294545,3.75705459 C12.5294545,3.00924971 11.9114058,2.39120093 11.1636009,2.39120093 L3.65140576,2.39120093 C3.36850332,2.38693264 3.135796,2.61281069 3.13169844,2.89571312 C3.12743015,3.17861556 3.3533082,3.41132288 3.63621064,3.41559117 L3.65140576,3.41559117 L11.1636009,3.41559117 C11.3616497,3.41559117 11.5050643,3.55900581 11.5050643,3.75705459 C11.5050643,3.95510337 11.3616497,4.098518 11.1636009,4.098518 L2.45628381,4.098518 C1.7853082,4.098518 1.26116186,3.57437166 1.26116186,2.90339605 C1.26116186,2.23242044 1.7853082,1.7082741 2.45628381,1.7082741 L11.1636009,1.7082741 C12.3075033,1.7082741 13.2123814,2.61315215 13.2123814,3.75705459 C13.2123814,4.90095703 12.3075033,5.80583508 11.1636009,5.80583508 L3.30994235,5.80583508 C3.02703991,5.80190825 2.79450332,6.02795703 2.79057649,6.31068873 C2.78647893,6.59359117 3.01252771,6.82629849 3.29543015,6.83022532 L3.30994235,6.83022532 L11.1636009,6.83022532 C12.8572594,6.83022532 14.2367716,5.45071312 14.2367716,3.75705459" id="Fill-1"></path>
                        </g>
                    </g>
                </g>
            </g>
        </g>
    </g>
</svg>