<?xml version="1.0" encoding="UTF-8"?>
<svg width="47px" height="44px" viewBox="0 0 47 44" version="1.1" xmlns="http://www.w3.org/2000/svg" xmlns:xlink="http://www.w3.org/1999/xlink">
    <!-- Generator: sketchtool 49.3 (51167) - http://www.bohemiancoding.com/sketch -->
    <title>2C646D21-E247-443D-8D6B-F8F7DA81B415@1x</title>
    <desc>Created with sketchtool.</desc>
    <defs></defs>
    <g id="Home-screen" stroke="none" stroke-width="1" fill="none" fill-rule="evenodd">
        <g id="DG_Home_New-landing_11" transform="translate(-1021.000000, -1353.000000)" fill="#C5C7CB">
            <g id="section-2" transform="translate(0.000000, 1265.000000)">
                <g id="Group-4" transform="translate(694.000000, 57.000000)">
                    <g id="Companies-Count" transform="translate(327.000000, 22.000000)">
                        <g id="ic_companies" transform="translate(0.000000, 9.000000)">
                            <path d="M41.8956522,26.0278296 L38.5706004,26.0278296 L38.5706004,28.0247375 L35.2455487,28.0247375 L35.2455487,43.931972 L33.2505176,43.931972 L33.2505176,9.98453909 L23.2753623,9.98453909 L23.2753623,7.98763127 L23.2753623,1.99690782 L21.2803313,1.99690782 L21.2803313,7.98763127 L21.2803313,9.98453909 L11.305176,9.98453909 L11.305176,43.931972 L9.31014493,43.931972 L9.31014493,21.965986 L1.99503106,21.965986 L1.99503106,43.931972 L0,43.931972 L0,19.9690782 L1.99503106,19.9690782 L9.31014493,19.9690782 L9.31014493,7.98763127 L11.305176,7.98763127 L19.2853002,7.98763127 L19.2853002,0 L21.2803313,0 L23.2753623,0 L25.2703934,0 L25.2703934,7.98763127 L33.2505176,7.98763127 L35.2455487,7.98763127 L35.2455487,26.0278296 L36.5755694,26.0278296 L36.5755694,24.0309218 L43.2256729,24.0309218 L43.2256729,26.0278296 L46.5507246,26.0278296 L46.5507246,26.6254376 L46.5507246,43.931972 L44.5556936,43.931972 L44.5556936,28.0247375 L41.8956522,28.0247375 L41.8956522,26.0278296 Z M17.9552795,38.0092765 L17.9552795,44 L15.9602484,44 L15.9602484,36.6780047 L15.9602484,36.0123687 L28.5954451,36.0123687 L28.5954451,36.6780047 L28.5954451,44 L26.6004141,44 L26.6004141,38.0092765 L17.9552795,38.0092765 Z M16.0327346,16.983701 L16.0327346,14.6679536 L18.3456406,14.6679536 L18.3456406,16.983701 L16.0327346,16.983701 Z M21.2836563,16.983701 L21.2836563,14.6679536 L23.5965623,14.6679536 L23.5965623,16.983701 L21.2836563,16.983701 Z M16.0327346,22.4039745 L16.0327346,20.0888927 L18.3456406,20.0888927 L18.3456406,22.4039745 L16.0327346,22.4039745 Z M16.0327346,32.9975704 L16.0327346,30.681823 L18.3456406,30.681823 L18.3456406,32.9975704 L16.0327346,32.9975704 Z M4.51409027,27.6598358 L4.51409027,25.344754 L6.82766128,25.344754 L6.82766128,27.6598358 L4.51409027,27.6598358 Z M4.51409027,31.8606642 L4.51409027,29.5449168 L6.82766128,29.5449168 L6.82766128,31.8606642 L4.51409027,31.8606642 Z M4.51409027,36.0621583 L4.51409027,33.7464109 L6.82766128,33.7464109 L6.82766128,36.0621583 L4.51409027,36.0621583 Z M4.51409027,40.2629867 L4.51409027,37.9472393 L6.82766128,37.9472393 L6.82766128,40.2629867 L4.51409027,40.2629867 Z M38.8219743,40.3455256 L38.8219743,38.0304438 L41.1348803,38.0304438 L41.1348803,40.3455256 L38.8219743,40.3455256 Z M38.8219743,36.6718808 L38.8219743,34.3561334 L41.1348803,34.3561334 L41.1348803,36.6718808 L38.8219743,36.6718808 Z M38.8219743,32.9975704 L38.8219743,30.681823 L41.1348803,30.681823 L41.1348803,32.9975704 L38.8219743,32.9975704 Z M21.2836563,22.4039745 L21.2836563,20.0888927 L23.5965623,20.0888927 L23.5965623,22.4039745 L21.2836563,22.4039745 Z M21.2836563,27.577297 L21.2836563,25.2622152 L23.5965623,25.2622152 L23.5965623,27.577297 L21.2836563,27.577297 Z M21.2836563,32.9975704 L21.2836563,30.681823 L23.5965623,30.681823 L23.5965623,32.9975704 L21.2836563,32.9975704 Z M26.5611785,27.577297 L26.5611785,25.2622152 L28.8747495,25.2622152 L28.8747495,27.577297 L26.5611785,27.577297 Z M26.5611785,32.9975704 L26.5611785,30.681823 L28.8747495,30.681823 L28.8747495,32.9975704 L26.5611785,32.9975704 Z M26.5611785,16.983701 L26.5611785,14.6679536 L28.8747495,14.6679536 L28.8747495,16.983701 L26.5611785,16.983701 Z" id="Combined-Shape"></path>
                        </g>
                    </g>
                </g>
            </g>
        </g>
    </g>
</svg>