<?xml version="1.0" encoding="UTF-8"?>
<svg width="50px" height="50px" viewBox="0 0 50 50" version="1.1" xmlns="http://www.w3.org/2000/svg" xmlns:xlink="http://www.w3.org/1999/xlink">
    <!-- Generator: sketchtool 49.3 (51167) - http://www.bohemiancoding.com/sketch -->
    <title>B1DC7AB2-1CA2-445A-AD76-D5C3F6C9BE1C</title>
    <desc>Created with sketchtool.</desc>
    <defs></defs>
    <g id="Secondary-Screens" stroke="none" stroke-width="1" fill="none" fill-rule="evenodd">
        <g id="Contact" transform="translate(-174.000000, -842.000000)">
            <g id="SDES-Copy" transform="translate(174.000000, 471.000000)">
                <g id="address" transform="translate(0.000000, 367.000000)">
                    <g id="Title">
                        <g id="ic_connect" transform="translate(0.000000, 4.000000)">
                            <rect id="Path" fill="#1E2533" x="0" y="0" width="50" height="50" rx="2.85714286"></rect>
                            <path d="M33.6769231,28.8768862 C34.9094154,28.8768862 35.8923077,29.8601477 35.8923077,31.0922708 C35.8923077,32.3243938 34.9094154,33.3076554 33.6769231,33.3076554 C32.4444308,33.3076554 31.4615385,32.3243938 31.4615385,31.0922708 C31.4615385,29.8601477 32.4444308,28.8768862 33.6769231,28.8768862 M16.6923077,28.8768862 C17.9244308,28.8768862 18.9076923,29.8601477 18.9076923,31.0922708 C18.9076923,32.3243938 17.9244308,33.3076554 16.6923077,33.3076554 C15.4601846,33.3076554 14.4769231,32.3243938 14.4769231,31.0922708 C14.4769231,29.8601477 15.4601846,28.8768862 16.6923077,28.8768862 M21.6422154,17.7538092 C22.1008,19.2720862 23.5223385,20.3845785 25.1846154,20.3845785 C26.8468923,20.3845785 28.2684308,19.2720862 28.7270154,17.7538092 C32.0670769,19.1417477 34.4153846,22.4411938 34.4153846,26.2922708 C34.4153846,26.6906708 34.3854769,27.0850092 34.3345231,27.4690092 C34.12,27.43024 33.9021538,27.3999631 33.6769231,27.3999631 C31.6465231,27.3999631 29.9846154,29.0618708 29.9846154,31.0922708 C29.9846154,32.0219938 30.3350154,32.8760246 30.9076923,33.5269785 C29.3340308,34.7757169 27.3523692,35.52304 25.1846154,35.52304 C23.0168615,35.52304 21.0352,34.7757169 19.4615385,33.5269785 C20.0342154,32.8760246 20.3846154,32.0219938 20.3846154,31.0922708 C20.3846154,29.0618708 18.7227077,27.3999631 16.6923077,27.3999631 C16.4670769,27.3999631 16.2488615,27.43024 16.0347077,27.4690092 C15.9841231,27.0850092 15.9538462,26.6906708 15.9538462,26.2922708 C15.9538462,22.4411938 18.3021538,19.1417477 21.6422154,17.7538092 M25.1846154,14.4768862 C26.4167385,14.4768862 27.4,15.4601477 27.4,16.6922708 C27.4,17.9243938 26.4167385,18.9076554 25.1846154,18.9076554 C23.9524923,18.9076554 22.9692308,17.9243938 22.9692308,16.6922708 C22.9692308,15.4601477 23.9524923,14.4768862 25.1846154,14.4768862 M25.1846154,12.9999631 C23.3056,12.9999631 21.7496615,14.4207631 21.5270154,16.2421785 C17.4148923,17.73904 14.4769231,21.6717169 14.4769231,26.2922708 C14.4769231,26.88784 14.5223385,27.4693785 14.6153846,28.0346708 C13.6369231,28.7003938 13,29.8265477 13,31.0922708 C13,33.12304 14.6619077,34.7845785 16.6923077,34.7845785 C17.2494769,34.7845785 17.7748923,34.6619938 18.2500923,34.4386092 C20.1184,36.0311015 22.5398154,36.9999631 25.1846154,36.9999631 C27.8294154,36.9999631 30.2508308,36.0311015 32.1191385,34.4386092 C32.5939692,34.6619938 33.1193846,34.7845785 33.6769231,34.7845785 C35.7073231,34.7845785 37.3692308,33.12304 37.3692308,31.0922708 C37.3692308,29.8265477 36.7319385,28.7003938 35.7538462,28.0346708 C35.8472615,27.4693785 35.8923077,26.88784 35.8923077,26.2922708 C35.8923077,21.6717169 32.9543385,17.73904 28.8422154,16.2421785 C28.6195692,14.4207631 27.0636308,12.9999631 25.1846154,12.9999631" id="Fill-1" stroke="#FFFFFF" fill="#FFFFFF"></path>
                        </g>
                    </g>
                </g>
            </g>
        </g>
    </g>
</svg>