<?xml version="1.0" encoding="UTF-8"?>
<svg width="18px" height="24px" viewBox="0 0 18 24" version="1.1" xmlns="http://www.w3.org/2000/svg" xmlns:xlink="http://www.w3.org/1999/xlink">
    <!-- Generator: sketchtool 54.1 (76490) - https://sketchapp.com -->
    <title>16C2BEE3-4227-4E3E-A680-C0DBDA39A64B</title>
    <desc>Created with sketchtool.</desc>
    <g id="Page-1" stroke="none" stroke-width="1" fill="none" fill-rule="evenodd">
        <g id="Import_CSV_step-1" transform="translate(-670.000000, -419.000000)" fill="#0155FF" fill-rule="nonzero">
            <g id="Single-Copy" transform="translate(458.000000, 403.000000)">
                <g id="Group-3" transform="translate(107.000000, 16.000000)">
                    <path d="M122.973333,5.6596218 C122.973333,5.44605117 122.893333,5.23248053 122.733333,5.07230256 L118.253333,0.266963293 C118.093333,0.0800889878 117.853333,0 117.613333,0 L106.413333,0 C105.64,0 105,0.640711902 105,1.41490545 L105,22.5850945 C105,23.3592881 105.64,24 106.413333,24 L121.586667,24 C122.36,24 123,23.3592881 123,22.5850945 L122.973333,5.6596218 Z M111.826667,18.5005562 C111.586667,18.6874305 111.106667,18.9810901 110.44,18.9810901 C109.16,18.9810901 108.333333,18.1001112 108.333333,16.8987764 C108.333333,15.7241379 109.186667,14.8431591 110.44,14.8431591 C111.053333,14.8431591 111.48,15.0567297 111.72,15.2169077 C111.88,15.323693 111.88,15.483871 111.8,15.6440489 L111.666667,15.8843159 C111.56,16.0711902 111.426667,16.0711902 111.24,15.9644049 C111.053333,15.8576196 110.786667,15.7508343 110.493333,15.7508343 C109.693333,15.7508343 109.373333,16.3114572 109.373333,16.8987764 C109.373333,17.4860957 109.72,18.1001112 110.493333,18.1001112 C110.84,18.1001112 111.133333,17.9399333 111.32,17.8064516 C111.48,17.6996663 111.64,17.6996663 111.746667,17.8598443 L111.906667,18.0734149 C111.986667,18.2335929 111.96,18.3937709 111.826667,18.5005562 Z M114.04,18.9810901 C113.48,18.9810901 112.973333,18.7408231 112.76,18.5806452 C112.653333,18.4738598 112.546667,18.3670745 112.706667,18.1535039 L112.893333,17.9132369 C113,17.753059 113.133333,17.7263626 113.32,17.8331479 C113.453333,17.9132369 113.693333,18.0734149 114.04,18.0734149 C114.333333,18.0734149 114.466667,17.9399333 114.466667,17.8064516 C114.466667,17.2458287 112.706667,17.3259177 112.706667,16.0711902 C112.706667,15.323693 113.32,14.8431591 114.146667,14.8431591 C114.6,14.8431591 115.026667,15.003337 115.24,15.1368187 C115.4,15.243604 115.426667,15.403782 115.346667,15.56396 L115.213333,15.8309232 C115.106667,16.0444939 114.946667,16.0177976 114.786667,15.9377086 C114.6,15.8576196 114.413333,15.7508343 114.146667,15.7508343 C113.826667,15.7508343 113.72,15.8843159 113.72,16.0177976 C113.72,16.6051168 115.48,16.4716352 115.48,17.7263626 C115.426667,18.3937709 114.946667,18.9810901 114.04,18.9810901 Z M119.666667,15.243604 L118.466667,18.6607341 C118.413333,18.8209121 118.28,18.9010011 118.12,18.9010011 L117.64,18.9010011 C117.453333,18.9010011 117.346667,18.8209121 117.293333,18.6607341 L116.093333,15.243604 C116.013333,15.0300334 116.12,14.8965517 116.333333,14.8965517 L116.76,14.8965517 C116.946667,14.8965517 117.053333,14.9766407 117.106667,15.163515 L117.746667,17.192436 C117.826667,17.432703 117.906667,17.8331479 117.906667,17.8331479 L117.906667,17.8331479 C117.906667,17.8331479 117.986667,17.432703 118.066667,17.192436 L118.706667,15.163515 C118.76,14.9766407 118.866667,14.8965517 119.053333,14.8965517 L119.453333,14.8965517 C119.64,14.8965517 119.746667,15.0300334 119.666667,15.243604 Z M121.746667,5.92658509 L118.813333,5.92658509 C118.04,5.92658509 117.4,5.28587319 117.4,4.51167964 L117.4,1.36151279 C117.4,1.2814238 117.506667,1.25472747 117.56,1.30812013 L121.826667,5.76640712 C121.853333,5.81979978 121.826667,5.92658509 121.746667,5.92658509 Z" id="ic_csv"></path>
                </g>
            </g>
        </g>
    </g>
</svg>