<?xml version="1.0" encoding="UTF-8"?>
<svg width="70px" height="69px" viewBox="0 0 70 69" version="1.1" xmlns="http://www.w3.org/2000/svg" xmlns:xlink="http://www.w3.org/1999/xlink">
    <!-- Generator: sketchtool 54.1 (76490) - https://sketchapp.com -->
    <title>5FC1EC1B-91FA-464F-8256-593C6183F48F</title>
    <desc>Created with sketchtool.</desc>
    <defs>
        <linearGradient x1="3.48958333%" y1="8.75463668%" x2="118.212891%" y2="119.76177%" id="linearGradient-1">
            <stop stop-color="#711BB6" offset="0%"></stop>
            <stop stop-color="#4B45EB" offset="100%"></stop>
        </linearGradient>
        <rect id="path-2" x="0" y="0" width="70" height="69" rx="19.6"></rect>
        <linearGradient x1="3.48958333%" y1="43.4562234%" x2="118.212891%" y2="61.0680424%" id="linearGradient-4">
            <stop stop-color="#4B45EB" offset="0%"></stop>
            <stop stop-color="#711BB6" offset="100%"></stop>
        </linearGradient>
    </defs>
    <g id="Page-1" stroke="none" stroke-width="1" fill="none" fill-rule="evenodd">
        <g id="Create-Campaign_Step-2D" transform="translate(-257.000000, -198.000000)">
            <g id="Group" transform="translate(99.000000, 137.000000)">
                <g id="Gmail-">
                    <g id="Contacts" transform="translate(158.000000, 61.000000)">
                        <mask id="mask-3" fill="white">
                            <use xlink:href="#path-2"></use>
                        </mask>
                        <use id="main_pic-copy" fill="url(#linearGradient-1)" fill-rule="nonzero" xlink:href="#path-2"></use>
                        <g id="ic_contact-copy" opacity="0.300000012" mask="url(#mask-3)">
                            <g transform="translate(12.000000, 9.000000)" id="ic_contact">
                                <g>
                                    <rect id="Rectangle" fill="#000000" fill-rule="nonzero" opacity="0" x="0" y="0" width="48" height="48"></rect>
                                    <path d="M3.45573303,44.6 L44.544267,44.6 C44.5813561,44.1778242 44.6,43.7530862 44.6,43.3263165 C44.6,33.8745462 35.4114769,26.1368423 24,26.1368423 C12.5885231,26.1368423 3.4,33.8745462 3.4,43.3263165 C3.4,43.7530862 3.41864392,44.1778242 3.45573296,44.6 Z M23.2695648,20.6 C28.0192137,20.6 31.8695648,16.7496488 31.8695648,12 C31.8695648,7.25035115 28.0192137,3.4 23.2695648,3.4 C18.519916,3.4 14.6695648,7.25035115 14.6695648,12 C14.6695648,16.7496488 18.519916,20.6 23.2695648,20.6 Z" id="ic_contacts" stroke="#B3BCC9" stroke-width="2" fill-rule="nonzero"></path>
                                </g>
                            </g>
                        </g>
                        <path d="M68.109921,69 L2.35674563,69 C2.70535742,63.8760945 6.90847658,59.6974812 12.3703021,58.8169444 C14.0198472,49.943416 22.537123,43.1836735 32.7962963,43.1836735 C43.0949161,43.1836735 51.6382174,49.9954983 53.2410131,58.919394 C54.1116691,58.7403754 55.0177307,58.6458583 55.9481481,58.6458583 C62.4220649,58.6458583 67.7167992,63.2218853 68.109921,69 Z" id="Combined-Shape" fill="url(#linearGradient-4)" fill-rule="nonzero" mask="url(#mask-3)"></path>
                        <g id="ic_contact" mask="url(#mask-3)">
                            <g transform="translate(22.000000, 19.000000)">
                                <g>
                                    <rect id="Rectangle" fill="#000000" fill-rule="nonzero" opacity="0" x="0" y="0" width="28" height="28"></rect>
                                    <path d="M2.80035562,25.2 L25.1996444,25.2 C25.1514143,20.204462 20.2032905,16.0631579 14,16.0631579 C7.79670945,16.0631579 2.84858569,20.204462 2.80035562,25.2 Z M13.573913,11.2 C15.893509,11.2 17.773913,9.31959595 17.773913,7 C17.773913,4.68040405 15.893509,2.8 13.573913,2.8 C11.2543171,2.8 9.37391304,4.68040405 9.37391304,7 C9.37391304,9.31959595 11.2543171,11.2 13.573913,11.2 Z" id="ic_contacts" stroke="#FFFFFF" stroke-width="2.8" fill-rule="nonzero"></path>
                                </g>
                            </g>
                        </g>
                    </g>
                </g>
            </g>
        </g>
    </g>
</svg>