<?xml version="1.0" encoding="UTF-8"?>
<svg width="34px" height="45px" viewBox="0 0 34 45" version="1.1" xmlns="http://www.w3.org/2000/svg" xmlns:xlink="http://www.w3.org/1999/xlink">
    <!-- Generator: sketchtool 54.1 (76490) - https://sketchapp.com -->
    <title>3E46AF34-620E-4F20-872D-86DB9325B7F2</title>
    <desc>Created with sketchtool.</desc>
    <g id="Page-1" stroke="none" stroke-width="1" fill="none" fill-rule="evenodd">
        <g id="Import_CSV_step-1" transform="translate(-669.000000, -298.000000)" fill="#0155FF" fill-rule="nonzero">
            <g id="Single" transform="translate(458.000000, 278.000000)">
                <g id="Group-3" transform="translate(116.000000, 20.000000)">
                    <path d="M128.94963,10.6117909 C128.94963,10.2113459 128.798519,9.810901 128.496296,9.5105673 L120.034074,0.500556174 C119.731852,0.150166852 119.278519,0 118.825185,0 L97.6696296,0 C96.2088889,0 95,1.20133482 95,2.65294772 L95,42.3470523 C95,43.7986652 96.2088889,45 97.6696296,45 L126.33037,45 C127.791111,45 129,43.7986652 129,42.3470523 L128.94963,10.6117909 Z M107.894815,34.6885428 C107.441481,35.0389321 106.534815,35.5895439 105.275556,35.5895439 C102.857778,35.5895439 101.296296,33.9377086 101.296296,31.6852058 C101.296296,29.4827586 102.908148,27.8309232 105.275556,27.8309232 C106.434074,27.8309232 107.24,28.2313682 107.693333,28.5317019 C107.995556,28.7319244 107.995556,29.0322581 107.844444,29.3325918 L107.592593,29.7830923 C107.391111,30.1334816 107.139259,30.1334816 106.786667,29.9332592 C106.434074,29.7330367 105.93037,29.5328142 105.376296,29.5328142 C103.865185,29.5328142 103.260741,30.5839822 103.260741,31.6852058 C103.260741,32.7864294 103.915556,33.9377086 105.376296,33.9377086 C106.031111,33.9377086 106.585185,33.6373749 106.937778,33.3870968 C107.24,33.1868743 107.542222,33.1868743 107.743704,33.487208 L108.045926,33.8876529 C108.197037,34.1879867 108.146667,34.4883204 107.894815,34.6885428 Z M112.075556,35.5895439 C111.017778,35.5895439 110.060741,35.1390434 109.657778,34.8387097 C109.456296,34.6384872 109.254815,34.4382647 109.557037,34.0378198 L109.90963,33.5873192 C110.111111,33.2869855 110.362963,33.2369299 110.715556,33.4371524 C110.967407,33.5873192 111.420741,33.8876529 112.075556,33.8876529 C112.62963,33.8876529 112.881481,33.6373749 112.881481,33.3870968 C112.881481,32.3359288 109.557037,32.4860957 109.557037,30.1334816 C109.557037,28.7319244 110.715556,27.8309232 112.277037,27.8309232 C113.133333,27.8309232 113.939259,28.131257 114.342222,28.381535 C114.644444,28.5817575 114.694815,28.8820912 114.543704,29.1824249 L114.291852,29.6829811 C114.09037,30.083426 113.788148,30.0333704 113.485926,29.8832036 C113.133333,29.7330367 112.780741,29.5328142 112.277037,29.5328142 C111.672593,29.5328142 111.471111,29.7830923 111.471111,30.0333704 C111.471111,31.134594 114.795556,30.8843159 114.795556,33.2369299 C114.694815,34.4883204 113.788148,35.5895439 112.075556,35.5895439 Z M122.703704,28.5817575 L120.437037,34.9888765 C120.336296,35.2892102 120.084444,35.4393771 119.782222,35.4393771 L118.875556,35.4393771 C118.522963,35.4393771 118.321481,35.2892102 118.220741,34.9888765 L115.954074,28.5817575 C115.802963,28.1813126 116.004444,27.9310345 116.407407,27.9310345 L117.213333,27.9310345 C117.565926,27.9310345 117.767407,28.0812013 117.868148,28.4315907 L119.077037,32.2358176 C119.228148,32.6863181 119.379259,33.4371524 119.379259,33.4371524 L119.379259,33.4371524 C119.379259,33.4371524 119.53037,32.6863181 119.681481,32.2358176 L120.89037,28.4315907 C120.991111,28.0812013 121.192593,27.9310345 121.545185,27.9310345 L122.300741,27.9310345 C122.653333,27.9310345 122.854815,28.1813126 122.703704,28.5817575 Z M126.632593,11.1123471 L121.091852,11.1123471 C119.631111,11.1123471 118.422222,9.91101224 118.422222,8.45939933 L118.422222,2.55283648 C118.422222,2.40266963 118.623704,2.35261402 118.724444,2.45272525 L126.783704,10.8120133 C126.834074,10.9121246 126.783704,11.1123471 126.632593,11.1123471 Z" id="ic_csv"></path>
                </g>
            </g>
        </g>
    </g>
</svg>