<?xml version="1.0" encoding="UTF-8"?>
<svg width="13px" height="13px" viewBox="0 0 13 13" version="1.1" xmlns="http://www.w3.org/2000/svg" xmlns:xlink="http://www.w3.org/1999/xlink">
    <!-- Generator: sketchtool 52.6 (67491) - http://www.bohemiancoding.com/sketch -->
    <title>CA5B7655-D1FE-4003-B01E-CC9438309C0A</title>
    <desc>Created with sketchtool.</desc>
    <g id="Import" stroke="none" stroke-width="1" fill="none" fill-rule="evenodd" opacity="0.5">
        <g transform="translate(-572.000000, -309.000000)" fill="#FFFFFF" fill-rule="nonzero" id="Content">
            <g transform="translate(120.000000, 90.000000)">
                <g id="Group" transform="translate(0.000000, 58.000000)">
                    <g id="Linkedin" transform="translate(402.000000, 0.000000)">
                        <g id="Hover-">
                            <g id="hover-btn" transform="translate(50.000000, 60.000000)">
                                <g id="Group-2" transform="translate(0.000000, 100.000000)">
                                    <g id="Create-contact-list">
                                        <path d="M5.57142857,6.57142857 L5.57142857,1.92857143 C5.57142857,1.41573559 5.98716416,1 6.5,1 C7.01283584,1 7.42857143,1.41573559 7.42857143,1.92857143 L7.42857143,6.57142857 L12.0714286,6.57142857 C12.5842644,6.57142857 13,6.98716416 13,7.5 C13,8.01283584 12.5842644,8.42857143 12.0714286,8.42857143 L7.42857143,8.42857143 L7.42857143,13.0714286 C7.42857143,13.5842644 7.01283584,14 6.5,14 C5.98716416,14 5.57142857,13.5842644 5.57142857,13.0714286 L5.57142857,8.42857143 L0.928571429,8.42857143 C0.415735589,8.42857143 5.73042333e-14,8.01283584 5.72414291e-14,7.5 C5.71786248e-14,6.98716416 0.415735589,6.57142857 0.928571429,6.57142857 L5.57142857,6.57142857 Z" id="ic_create"></path>
                                    </g>
                                </g>
                            </g>
                        </g>
                    </g>
                </g>
            </g>
        </g>
    </g>
</svg>