<?xml version="1.0" encoding="UTF-8"?>
<svg width="50px" height="50px" viewBox="0 0 50 50" version="1.1" xmlns="http://www.w3.org/2000/svg" xmlns:xlink="http://www.w3.org/1999/xlink">
    <!-- Generator: sketchtool 49.3 (51167) - http://www.bohemiancoding.com/sketch -->
    <title>93A48D38-0331-436C-91A8-FA8E679B8E12</title>
    <desc>Created with sketchtool.</desc>
    <defs></defs>
    <g id="Secondary-Screens" stroke="none" stroke-width="1" fill="none" fill-rule="evenodd">
        <g id="Contact" transform="translate(-174.000000, -475.000000)">
            <g id="SDES-Copy" transform="translate(174.000000, 471.000000)">
                <g id="sales">
                    <g id="Title">
                        <g id="ic_call" transform="translate(0.000000, 4.000000)">
                            <rect id="Rectangle-4" fill="#1E2533" x="0" y="0" width="50" height="50" rx="2.85714286"></rect>
                            <path d="M36.5686727,33.794177 C35.8278855,36.043846 32.9255355,37.1670804 30.8519713,36.9798747 C28.0200202,36.7254669 24.9384733,35.2230208 22.5993137,33.5669701 C19.159373,31.1364956 15.9402285,27.3731802 14.0634609,23.3810579 C12.7354838,20.5601714 12.4394889,17.0928651 14.4122549,14.5199863 C15.1418423,13.5695572 15.9306287,13.0623416 17.1162083,13.0047398 C18.7609799,12.9247374 18.9913759,13.8639662 19.5561662,15.3312111 C19.9769589,16.4272447 20.5369492,17.545679 20.8521438,18.6801138 C21.4393337,20.8017788 19.3865691,20.8897815 19.1273736,22.6226346 C18.9657763,23.7154681 20.2905535,25.181113 20.8889432,25.9603369 C22.0617229,27.4867837 23.4712986,28.8036241 25.0616712,29.8052548 C25.9720555,30.3780723 27.4424301,31.4149041 28.4856121,30.8420866 C30.0919844,29.9620596 29.9383871,27.2531766 32.1863483,28.1700047 C33.3495282,28.6436192 34.4743088,29.3268401 35.5862896,29.9252585 C37.30306,30.8500868 37.2230614,31.8053161 36.5686727,33.794177 C36.0790811,35.2790225 37.0582642,32.3077315 36.5686727,33.794177" id="Fill-1" fill="#FFFFFF"></path>
                        </g>
                    </g>
                </g>
            </g>
        </g>
    </g>
</svg>