<?xml version="1.0" encoding="UTF-8"?>
<svg width="14px" height="15px" viewBox="0 0 14 15" version="1.1" xmlns="http://www.w3.org/2000/svg" xmlns:xlink="http://www.w3.org/1999/xlink">
    <!-- Generator: sketchtool 52.6 (67491) - http://www.bohemiancoding.com/sketch -->
    <title>D4C325C3-1B89-489D-979A-3F09A212EB77</title>
    <desc>Created with sketchtool.</desc>
    <g id="Contacts" stroke="none" stroke-width="1" fill="none" fill-rule="evenodd">
        <g id="Contacts_selected" transform="translate(-576.000000, -146.000000)">
            <g id="Selection-Actions" transform="translate(553.000000, 138.000000)">
                <g id="ic_assign-to">
                    <g id="ic_contact" transform="translate(23.000000, 8.000000)">
                        <path d="M9.2005771,8.60495291 C8.50790794,8.38487565 7.7650891,8.26869806 7,8.26869806 C3.56180934,8.26869806 0.816402204,10.6010341 0.789670575,13.4210526 L7.05310669,13.4210526 C7.01016222,13.1621616 6.98830409,12.8983019 6.98830409,12.6315789 C6.98830409,10.9419745 7.86659328,9.44431091 9.2005771,8.60495291 Z M6.76328502,5.52631579 C8.04283061,5.52631579 9.08492245,4.46855339 9.08492245,3.15789474 C9.08492245,1.84723608 8.04283061,0.789473684 6.76328502,0.789473684 C5.48373944,0.789473684 4.4416476,1.84723608 4.4416476,3.15789474 C4.4416476,4.46855339 5.48373944,5.52631579 6.76328502,5.52631579 Z" id="Combined-Shape" stroke="#3E4651" stroke-width="1.57894737" fill-rule="nonzero"></path>
                        <path d="M12.8294319,11.7648425 L11.9544695,12.6268425 L11.9544695,10.1250647 C11.9544695,9.75706475 11.6519883,9.45839808 11.2777778,9.45839808 C10.9035673,9.45839808 10.601086,9.75706475 10.601086,10.1250647 L10.601086,12.6268425 L9.72612364,11.7648425 C9.46153718,11.5041759 9.033868,11.5041759 8.76928154,11.7648425 C8.50469507,12.0255092 8.50469507,12.4468425 8.76928154,12.7075092 L10.79868,14.7068425 C10.8609357,14.7688425 10.9360485,14.8175092 11.0192815,14.8515092 C11.1018379,14.8855092 11.1898079,14.9028425 11.2777778,14.9028425 C11.3657477,14.9028425 11.4537176,14.8855092 11.536274,14.8515092 C11.6195071,14.8175092 11.6946199,14.7688425 11.7568755,14.7068425 L13.786274,12.7075092 C14.0508605,12.4468425 14.0508605,12.0255092 13.786274,11.7648425 C13.5216876,11.5041759 13.0940184,11.5041759 12.8294319,11.7648425 Z" id="ic_sort" fill="#3E4651" transform="translate(11.277778, 12.180620) rotate(-90.000000) translate(-11.277778, -12.180620) "></path>
                    </g>
                </g>
            </g>
        </g>
    </g>
</svg>