<?xml version="1.0" encoding="UTF-8"?>
<svg width="75px" height="70px" viewBox="0 0 75 70" version="1.1" xmlns="http://www.w3.org/2000/svg" xmlns:xlink="http://www.w3.org/1999/xlink">
    <!-- Generator: Sketch 48.2 (47327) - http://www.bohemiancoding.com/sketch -->
    <title>ic_companies@1x</title>
    <desc>Created with Sketch.</desc>
    <defs></defs>
    <g id="DG_Home_New-landing_2" stroke="none" stroke-width="1" fill="none" fill-rule="evenodd" transform="translate(-908.000000, -1339.000000)" opacity="0.300000012">
        <g id="section-4" transform="translate(0.000000, 1265.000000)" fill="#FFFFFF">
            <g id="Group-5" transform="translate(202.000000, 70.000000)">
                <g id="Group-4" transform="translate(390.000000, 0.000000)">
                    <g id="Group-8" transform="translate(316.000000, 0.000000)">
                        <g id="ic_companies" transform="translate(0.000000, 4.000000)">
                            <path d="M66.6521739,41.4079108 L61.3623188,41.4079108 L61.3623188,44.5848096 L56.0724638,44.5848096 L56.0724638,69.8917736 L52.8985507,69.8917736 L52.8985507,15.884494 L37.0289855,15.884494 L37.0289855,12.7075952 L37.0289855,3.1768988 L33.8550725,3.1768988 L33.8550725,12.7075952 L33.8550725,15.884494 L17.9855072,15.884494 L17.9855072,69.8917736 L14.8115942,69.8917736 L14.8115942,34.9458868 L3.17391304,34.9458868 L3.17391304,69.8917736 L0,69.8917736 L0,31.768988 L3.17391304,31.768988 L14.8115942,31.768988 L14.8115942,12.7075952 L17.9855072,12.7075952 L30.6811594,12.7075952 L30.6811594,0 L33.8550725,0 L37.0289855,0 L40.2028986,0 L40.2028986,12.7075952 L52.8985507,12.7075952 L56.0724638,12.7075952 L56.0724638,41.4079108 L58.1884058,41.4079108 L58.1884058,38.231012 L68.7681159,38.231012 L68.7681159,41.4079108 L74.057971,41.4079108 L74.057971,42.3586507 L74.057971,69.8917736 L70.884058,69.8917736 L70.884058,44.5848096 L66.6521739,44.5848096 L66.6521739,41.4079108 Z M28.5652174,60.4693036 L28.5652174,70 L25.3913043,70 L25.3913043,58.3513711 L25.3913043,57.2924048 L45.4927536,57.2924048 L45.4927536,58.3513711 L45.4927536,70 L42.3188406,70 L42.3188406,60.4693036 L28.5652174,60.4693036 Z M25.5066232,27.0195243 L25.5066232,23.3353807 L29.1862464,23.3353807 L29.1862464,27.0195243 L25.5066232,27.0195243 Z M33.8603623,27.0195243 L33.8603623,23.3353807 L37.5399855,23.3353807 L37.5399855,27.0195243 L33.8603623,27.0195243 Z M25.5066232,35.6426866 L25.5066232,31.9596019 L29.1862464,31.9596019 L29.1862464,35.6426866 L25.5066232,35.6426866 Z M25.5066232,52.4961348 L25.5066232,48.8119911 L29.1862464,48.8119911 L29.1862464,52.4961348 L25.5066232,52.4961348 Z M7.18150725,44.0042843 L7.18150725,40.3211996 L10.8621884,40.3211996 L10.8621884,44.0042843 L7.18150725,44.0042843 Z M7.18150725,50.6874204 L7.18150725,47.0032767 L10.8621884,47.0032767 L10.8621884,50.6874204 L7.18150725,50.6874204 Z M7.18150725,57.3716155 L7.18150725,53.6874718 L10.8621884,53.6874718 L10.8621884,57.3716155 L7.18150725,57.3716155 Z M7.18150725,64.0547516 L7.18150725,60.3706079 L10.8621884,60.3706079 L10.8621884,64.0547516 L7.18150725,64.0547516 Z M61.7622319,64.1860634 L61.7622319,60.5029787 L65.4418551,60.5029787 L65.4418551,64.1860634 L61.7622319,64.1860634 Z M61.7622319,58.3416286 L61.7622319,54.6574849 L65.4418551,54.6574849 L65.4418551,58.3416286 L61.7622319,58.3416286 Z M61.7622319,52.4961348 L61.7622319,48.8119911 L65.4418551,48.8119911 L65.4418551,52.4961348 L61.7622319,52.4961348 Z M33.8603623,35.6426866 L33.8603623,31.9596019 L37.5399855,31.9596019 L37.5399855,35.6426866 L33.8603623,35.6426866 Z M33.8603623,43.8729725 L33.8603623,40.1898878 L37.5399855,40.1898878 L37.5399855,43.8729725 L33.8603623,43.8729725 Z M33.8603623,52.4961348 L33.8603623,48.8119911 L37.5399855,48.8119911 L37.5399855,52.4961348 L33.8603623,52.4961348 Z M42.2564203,43.8729725 L42.2564203,40.1898878 L45.9371014,40.1898878 L45.9371014,43.8729725 L42.2564203,43.8729725 Z M42.2564203,52.4961348 L42.2564203,48.8119911 L45.9371014,48.8119911 L45.9371014,52.4961348 L42.2564203,52.4961348 Z M42.2564203,27.0195243 L42.2564203,23.3353807 L45.9371014,23.3353807 L45.9371014,27.0195243 L42.2564203,27.0195243 Z" id="Combined-Shape"></path>
                        </g>
                    </g>
                </g>
            </g>
        </g>
    </g>
</svg>