<?xml version="1.0" encoding="UTF-8"?>
<svg width="14px" height="14px" viewBox="0 0 14 14" version="1.1" xmlns="http://www.w3.org/2000/svg" xmlns:xlink="http://www.w3.org/1999/xlink">
    <!-- Generator: sketchtool 58 (101010) - https://sketch.com -->
    <title>39DFBB01-EE3F-4605-A554-C0E3B547D69B</title>
    <desc>Created with sketchtool.</desc>
    <g id="Home-screen" stroke="none" stroke-width="1" fill="none" fill-rule="evenodd">
        <g id="DG_Home_Sep-2019_v2" transform="translate(-1247.000000, -98.000000)" fill="#1E2533">
            <g id="Section-1">
                <g id="Haeder">
                    <g id="Numaber-n-email" transform="translate(1044.000000, 85.000000)">
                        <path d="M216.748392,25.1299366 C216.316267,26.4422435 214.623229,27.0974636 213.41365,26.9882602 C211.761678,26.8398557 209.964109,25.9634288 208.5996,24.9973992 C206.592968,23.5796224 204.715133,21.3843551 203.620352,19.0556171 C202.845699,17.4101 202.673035,15.3875047 203.823815,13.8866587 C204.249408,13.3322417 204.709533,13.0363659 205.401121,13.0027649 C206.360572,12.9560968 206.494969,13.5039803 206.82443,14.3598732 C207.069893,14.9992261 207.396554,15.6516461 207.580417,16.3133997 C207.922945,17.5510376 206.725499,17.6023726 206.574301,18.6132035 C206.480036,19.2506897 207.252823,20.1056493 207.601884,20.5601965 C208.286005,21.4506238 209.108258,22.2187807 210.035975,22.8030653 C210.567032,23.1372089 211.424751,23.7420274 212.033274,23.4078838 C212.970324,22.8945348 212.880726,21.314353 214.192037,21.8491694 C214.870558,22.1254445 215.52668,22.5239901 216.175336,22.8730674 C217.176785,23.4125506 217.130119,23.9697677 216.748392,25.1299366 C216.462797,25.9960965 217.033987,24.2628434 216.748392,25.1299366" id="ic_call"></path>
                    </g>
                </g>
            </g>
        </g>
    </g>
</svg>