<?xml version="1.0" encoding="UTF-8"?>
<svg width="180px" height="87px" viewBox="0 0 180 87" version="1.1" xmlns="http://www.w3.org/2000/svg" xmlns:xlink="http://www.w3.org/1999/xlink">
    <!-- Generator: sketchtool 58 (101010) - https://sketch.com -->
    <title>3AA77166-AF0C-44A2-98FB-7E5D8C5CBC1A</title>
    <desc>Created with sketchtool.</desc>
    <defs>
        <path d="M24.3447138,0.721066667 C19.6719404,1.40292125 15.202852,3.47026949 11.4194304,6.29735186 L11.4194304,6.29735186 C6.05826707,10.3024306 2.70999074,16.5845333 1.22864532,23.1106224 L1.22864532,23.1106224 C-0.252700101,29.637256 -0.0130706949,36.4345619 0.728146626,43.0859118 L0.728146626,43.0859118 C1.01733575,45.6788109 1.39801974,48.3185466 2.57056999,50.6489426 L2.57056999,50.6489426 L58.6307803,40.9586562 C59.3736314,31.4382888 58.3475819,21.4637148 53.53212,13.2182848 L53.53212,13.2182848 C48.715569,4.97231017 42.7978119,0.534264653 32.1942107,0.214577241 L32.1942107,0.214577241 C31.9714642,0.207497281 31.7296564,0.204229607 31.4709656,0.204229607 L31.4709656,0.204229607 C29.4891215,0.204229607 26.5503936,0.399200806 24.3447138,0.721066667" id="path-1"></path>
        <linearGradient x1="0%" y1="13.083091%" x2="101.999998%" y2="87.6552464%" id="linearGradient-3">
            <stop stop-color="#4A4A4A" offset="0%"></stop>
            <stop stop-color="#FFFFFF" offset="100%"></stop>
        </linearGradient>
        <polygon id="path-4" points="0 0.0330035045 179.917461 0.0330035045 179.917461 3.81206816 0 3.81206816"></polygon>
        <path d="M1.2324576,0.215666465 C0.694925277,0.215666465 0.260324673,0.650811682 0.260324673,1.18725478 L0.260324673,1.18725478 L0.260324673,1.85494945 C0.260324673,2.39193716 0.694925277,2.82708238 1.2324576,2.82708238 L1.2324576,2.82708238 L87.1494026,2.82708238 C87.6858457,2.82708238 88.1209909,2.39193716 88.1209909,1.85494945 L88.1209909,1.85494945 L88.1209909,1.18725478 C88.1209909,0.650811682 87.6858457,0.215666465 87.1494026,0.215666465 L87.1494026,0.215666465 L1.2324576,0.215666465 Z" id="path-6"></path>
        <polygon id="path-8" points="3.11790534 0.190069688 0.348007251 38.1555368 58.4347198 38.1555368 61.7672024 0.190069688"></polygon>
        <polygon id="path-10" points="2.77316576 0.190069688 0.00326767372 38.1555368 58.0899803 38.1555368 61.4230075 0.190069688"></polygon>
    </defs>
    <g id="Home-screen" stroke="none" stroke-width="1" fill="none" fill-rule="evenodd">
        <g id="DG_Home_Sep-2019_v2" transform="translate(-984.000000, -1068.000000)">
            <g id="Advance-Search-panel" transform="translate(0.000000, 916.000000)">
                <g id="3" transform="translate(912.000000, 114.000000)">
                    <g id="Data-as-a-service_" transform="translate(72.000000, 38.000000)">
                        <g id="Group-73" transform="translate(90.000000, 44.000000) scale(-1, 1) translate(-90.000000, -44.000000) ">
                            <g id="Group-3" transform="translate(34.310574, 36.105420)">
                                <mask id="mask-2" fill="white">
                                    <use xlink:href="#path-1"></use>
                                </mask>
                                <g id="Clip-2"></g>
                                <path d="M24.3447138,0.721066667 C19.6719404,1.40292125 15.202852,3.47026949 11.4194304,6.29735186 L11.4194304,6.29735186 C6.05826707,10.3024306 2.70999074,16.5845333 1.22864532,23.1106224 L1.22864532,23.1106224 C-0.252700101,29.637256 -0.0130706949,36.4345619 0.728146626,43.0859118 L0.728146626,43.0859118 C1.01733575,45.6788109 1.39801974,48.3185466 2.57056999,50.6489426 L2.57056999,50.6489426 L58.6307803,40.9586562 C59.3736314,31.4382888 58.3475819,21.4637148 53.53212,13.2182848 L53.53212,13.2182848 C48.715569,4.97231017 42.7978119,0.534264653 32.1942107,0.214577241 L32.1942107,0.214577241 C31.9714642,0.207497281 31.7296564,0.204229607 31.4709656,0.204229607 L31.4709656,0.204229607 C29.4891215,0.204229607 26.5503936,0.399200806 24.3447138,0.721066667" id="Fill-1" fill="url(#linearGradient-3)" mask="url(#mask-2)"></path>
                            </g>
                            <g id="Group-61" transform="translate(0.000000, 0.001089)">
                                <path d="M64.5739033,9.15691747 C69.4510735,6.27957521 72.971491,6.27957521 75.1351559,9.15691747 C78.3806532,13.4729309 78.5811008,27.2199671 65.8230742,21.9178913 C57.3177231,18.3831741 56.9013328,14.1295162 64.5739033,9.15691747 Z" id="Path-18" fill="#944F06" transform="translate(68.057846, 15.057848) rotate(-145.000000) translate(-68.057846, -15.057848) "></path>
                                <path d="M64.1198284,19.5849524 C64.1198284,19.5849524 60.8773185,18.6409024 58.4608811,14.0584331 C58.4608811,14.0584331 68.5412591,0.644631845 83.4608811,9.75854083" id="Fill-6" fill="#6B3904" transform="translate(70.960881, 13.084952) rotate(-21.000000) translate(-70.960881, -13.084952) "></path>
                                <path d="M94.8285448,19.9444856 C94.0862382,23.1527966 91.548345,25.3061936 89.1585863,24.7534121 C86.7693722,24.2006307 85.4339828,21.1518911 86.1762894,17.9430355 C86.9185959,14.7347245 89.4570338,12.5813275 91.8457033,13.134109 C94.2349174,13.6868905 95.5703067,16.7356301 94.8285448,19.9444856" id="Fill-8" fill="#016BFF"></path>
                                <path d="M72.7659198,24.4774026 C73.5485277,26.780568 74.1383428,29.2030034 73.933024,31.6259835 C73.7277051,34.0495082 72.6259545,36.4899158 70.6092552,37.8492681 C70.2018852,38.1232081 69.7150018,38.4222002 69.6638083,38.9107174 C69.6387561,39.148713 69.7280725,39.3823517 69.8212012,39.6029196 C70.8935428,42.1511605 72.6346683,44.4140246 74.8223758,46.1039565 C76.3527364,47.2863098 78.1973382,48.2126953 80.1296226,48.1342711 C81.133343,48.0934252 82.1103774,47.7829962 83.0275045,47.3707247 C86.3610763,45.8741301 89.0291319,42.9588205 90.2261897,39.505434 C88.3712403,39.2903122 86.6617023,38.0812729 85.8420608,36.4038671 C85.0218747,34.7264612 85.1182711,32.6351501 86.087681,31.0394361" id="Fill-10" fill="#F2BC9E"></path>
                                <path d="M72.7659198,24.4774026 C72.7659198,24.4774026 75.0968604,27.1547166 77.2671404,28.502632 C79.4374203,29.8505474 82.3658006,31.9979537 85.653625,31.9320556 C85.653625,31.9320556 83.8346199,33.4095887 79.5027738,32.9744435 C76.0406735,32.6258916 73.933024,31.6259835 73.933024,31.6259835 C73.933024,31.6259835 74.2783082,27.8708818 72.7659198,24.4774026" id="Fill-12" fill="#ECA781"></path>
                                <path d="M85.7988186,0.911212085 C87.2975916,2.00261511 88.8889487,2.94533897 89.8006297,4.55956979 C90.4993673,5.79638429 90.7738518,7.22272387 90.9878845,8.62727895 C92.0226478,15.3924528 91.8276766,22.6330731 88.5676275,28.6510389 C87.6668388,30.3142848 86.3151111,31.9993152 84.4340202,32.2040894 C83.6339848,32.2912274 82.830137,32.0929885 82.0693137,31.8293962 C80.5482116,31.3016669 79.124595,30.5076222 77.8420331,29.5344 C74.5661902,27.0477003 71.8768947,24.3752878 71.0381918,20.3484246 C70.2000335,16.3221059 71.2195477,10.9756471 73.2313455,7.38883061" id="Fill-14" fill="#FFCEB3"></path>
                                <path d="M80.8925154,25.0002304 C82.7828647,25.0797438 85.6627745,25.0748423 87.4463797,24.8929418 C87.0351974,25.8988407 86.4595422,26.9542993 85.4487418,27.3535001 C84.5909775,27.6922489 83.5899801,27.4651456 82.8122738,26.9695484 C82.035112,26.4739513 81.4425739,25.7403585 80.8925154,25.0002304" id="Fill-16" fill="#FFFFFF"></path>
                                <path d="M88.1979991,4.58255243 C88.9424841,5.04819593 89.7321719,5.5655776 90.062207,6.37977297 C90.4826477,7.41780399 90.0224503,8.59362191 89.4751149,9.57120097 C87.183931,13.6655961 83.201726,16.7791446 78.6759979,18.0154145 C77.6564837,18.294256 76.5661699,18.4799687 75.5499234,18.1864227 C74.3397949,17.8367816 73.3850895,16.8156336 72.9564797,15.6305573 C72.5284144,14.4454809 72.5872325,13.1209838 72.9537566,11.9152122" id="Fill-22" fill="#F2BC9E"></path>
                                <path d="M93.0165652,10.4515123 C92.1974684,5.10069656 89.2434913,2.06121539 86.0193866,1.00412294 L86.0253773,1.01610441 C85.9491316,0.982883061 85.8766982,0.94203714 85.7988186,0.91099424 C84.7852951,0.510159597 83.6895352,0.353855871 82.6003107,0.305385378 C78.840852,0.137100181 74.9762833,1.28133059 72.1285056,3.74025507 C71.0833946,4.64213301 70.185329,5.70412697 69.3836597,6.8271175 C68.065698,8.67389776 66.9726611,10.7771904 66.8332404,13.0422329 C66.6959981,15.2729648 67.4965781,17.4650293 68.5645628,19.4283566 C69.1690825,20.5404549 69.9952593,21.6993898 71.2369753,21.9482776 C72.2581233,22.1525072 73.2836283,21.6803284 74.1996661,21.1841866 C78.5854289,18.8107662 82.5109942,15.5904738 85.6958869,11.752591 C86.542759,10.7319876 87.3427944,9.64439686 87.9865262,8.48546191 C88.5855997,10.4798321 89.8278603,12.2601697 90.9268879,14.5529874 C91.6103763,15.9782377 91.4317435,19.0335127 91.2198893,20.6036299 C92.3613967,17.407845 93.52959,13.8052347 93.0165652,10.4515123" id="Fill-24" fill="#944F06"></path>
                                <g id="specks" transform="translate(81.000000, 17.998911) scale(-1, 1) rotate(-10.000000) translate(-81.000000, -17.998911) translate(69.000000, 13.998911)" fill="#262626">
                                    <path d="M23.8678143,2.25724441 C23.6824705,2.43982188 23.5234068,2.6611279 23.3878569,2.8907329 C22.4915675,3.07469354 21.6008107,3.29046691 20.7225024,3.53666986 C19.1221832,3.96959977 17.5453778,4.51871535 16.0238989,5.16741863 L15.8081255,4.67501273 C17.351735,4.02215995 18.9492879,3.46059592 20.5689714,3.01521754 C21.6561372,2.71368808 22.759901,2.46333564 23.8678143,2.25724441" id="Fill-65"></path>
                                    <path d="M8.88816276,4.11178889 C8.76229496,4.10902257 8.65579144,4.12423736 8.60461442,4.18233019 C8.50087722,4.30128218 8.56173637,4.65952131 8.67100622,4.93477067 C8.87848062,5.45483983 9.3681202,6.00257224 9.95043168,6.36772718 C10.3225024,6.60148167 12.1565761,6.72873264 13.0376507,6.79097496 C13.3488623,6.8117224 13.6144296,6.82970351 13.7928575,6.84906779 C14.0003319,6.86843206 14.2147221,6.8891795 14.3820848,6.82970351 C14.9740784,6.61946279 15.7445,5.68029534 15.5093624,4.99977932 C15.4664843,4.87944417 15.3074206,4.78815543 15.0363208,4.73421209 L15.0349376,4.73282893 C14.6061572,4.64430652 12.9173156,4.46172905 12.1648751,4.3856551 L11.7236462,4.34139389 C10.9338603,4.26255362 10.1855693,4.189246 9.40684876,4.15190061 C9.33354114,4.14913429 9.2533177,4.14083531 9.17032794,4.13253633 C9.07627288,4.1228542 8.97668517,4.11317206 8.88816276,4.11178889 M14.1386482,7.39956652 C14.0238457,7.39818336 13.9104264,7.38711806 13.8080723,7.37743592 C13.6324107,7.36083797 13.3737592,7.34147369 13.0680803,7.32072625 C11.5078728,7.2114564 10.1800367,7.09803707 9.72220984,6.81310556 C9.18277641,6.47423071 8.49811089,5.84212538 8.19381511,5.08000275 C8.11220851,4.87529468 7.87292137,4.1781807 8.1979646,3.8005773 C8.43448541,3.52809425 8.83283625,3.56682281 9.15649632,3.60278504 C9.22980394,3.61108401 9.29896207,3.61799983 9.36397071,3.62076615 C10.1565229,3.65811154 10.9463088,3.73695181 11.7084314,3.8116426 L12.1496603,3.8559038 C12.7541024,3.9153798 14.5881761,4.11178889 15.0750493,4.21137661 C15.5674552,4.31373064 15.8759005,4.53918615 15.9962356,4.87944417 C16.3489421,5.89468556 15.4097747,7.04962637 14.6061572,7.33317472 C14.4553924,7.38850122 14.2935624,7.40233285 14.1386482,7.39956652" id="Fill-67"></path>
                                    <path d="M0.634416252,0.541846083 L0.631649927,0.543229245 C0.576323421,0.601322077 0.514081101,0.938813765 0.566641282,1.38419214 C0.653780529,2.12556732 1.02308496,2.82959711 1.33982921,3.24316275 C1.59018165,3.56820597 2.95398002,4.08412564 3.68705623,4.35937501 C3.92772653,4.45066374 4.13381777,4.52812085 4.27213403,4.58621368 C4.40491765,4.64154019 4.59164461,4.70931516 4.67186804,4.69133405 C5.09234949,4.6152601 5.87521955,3.83792269 5.80606142,3.01355775 C5.72030533,2.84204558 4.77283891,2.25005196 4.36342277,2.05640919 L4.36203961,2.05640919 C3.99965099,1.88351386 3.63449605,1.72168383 3.26795795,1.56815277 L2.94429789,1.43121967 C2.33155683,1.17256825 1.75201168,0.927748463 1.14065378,0.71750774 C1.08256095,0.6967603 1.01755231,0.67048021 0.9511605,0.641433794 C0.861254928,0.602705239 0.693892246,0.532163944 0.634416252,0.541846083 M4.72581138,5.22385167 C4.46301048,5.26949604 4.22234018,5.16852516 4.02869741,5.0855354 C3.89453063,5.0302089 3.69397204,4.95413495 3.46021756,4.86561254 C2.28591246,4.42300049 1.20566243,3.99145374 0.895833994,3.58757025 C0.440773481,2.99419347 0.106048118,2.18780964 0.0230583589,1.48516301 C-0.0101375448,1.19746518 -0.0543987498,0.49343539 0.263728661,0.172541654 C0.563874957,-0.128987805 0.945627849,0.0342253884 1.19874662,0.142112075 C1.25268996,0.167009003 1.30386698,0.189139606 1.35366083,0.205737558 C1.98023352,0.421510932 2.59435773,0.680162348 3.18911768,0.930514789 L3.51277774,1.06744789 C3.88623165,1.22374527 4.25830241,1.38834163 4.62899,1.56538645 C4.66495223,1.58336756 6.3067663,2.39805037 6.3510275,2.93056799 C6.44508256,4.05507923 5.43537383,5.0966007 4.73411036,5.22246851 C4.73134404,5.22246851 4.72719455,5.22385167 4.72581138,5.22385167" id="Fill-69"></path>
                                    <path d="M8.24250243,4.58192588 C7.41537117,4.50446877 6.60068836,4.17804239 5.95060192,3.66350588 L6.28256095,3.24440759 C6.85242397,3.69531862 7.5661359,3.98163329 8.29229629,4.04940826 L8.24250243,4.58192588 Z" id="Fill-71"></path>
                                </g>
                                <path d="M71.2911098,17.3926503 C72.0579239,12.2907224 73.0060939,6.45030026 77.5203851,3.44186199 C79.5790195,2.06998365 82.0531932,1.42407347 84.5083053,1.87228939 C87.0206018,2.33139754 89.3809515,3.77952161 90.9799331,5.76626723 C92.8239903,8.05690651 93.0761458,10.9242902 93.0696105,13.9904574 C93.0690659,14.3030648 92.6279299,15.6852908 92.9220205,15.8524868 C93.2188342,16.0196827 93.7928556,14.9811071 93.8282554,14.7098902 C94.1953241,11.8779063 93.7089853,8.72732423 92.3703283,6.15403118 C91.0866771,3.6858483 88.6070574,1.78624064 86.0119799,0.868568943 C83.4403206,-0.0414781873 80.7009208,0.168197543 78.2670485,1.37614759 C75.8723883,2.56340238 73.9444608,4.58500318 72.6324898,6.89252544 C70.9757793,9.80565656 70.1926268,13.1081855 69.6986634,16.3960098 C69.6523714,16.7031712 69.7721861,17.1769838 70.0630091,17.3409121 C70.363635,17.5108312 70.5439017,17.2281774 70.584203,16.9591389 L71.2911098,17.3926503 Z" id="Fill-36" fill="#80B6FF"></path>
                                <path d="M75.605964,19.9226467 C76.1108196,23.1772497 74.5554069,26.1197899 72.1318822,26.4955724 C69.7089022,26.8718995 67.3349372,24.5382358 66.8306262,21.2836328 C66.3257706,18.0290298 67.8806387,15.0864896 70.304708,14.7112517 C72.7276881,14.3349246 75.1011084,16.6680437 75.605964,19.9226467" id="Fill-38" fill="#80B6FF"></path>
                                <path d="M70.875734,21.9750725 C71.5112965,22.6689086 72.2710307,23.272339 73.0269525,23.8262097 C74.7925855,25.1218423 76.7804204,26.1386335 78.8804454,26.7638484 C80.3792184,27.2093412 81.9351757,27.4506045 83.4987575,27.4778935 C83.8483986,27.4843704 83.8701831,26.9403028 83.5194528,26.9337674 C79.2638524,26.8591555 75.09539,25.0951563 71.9437187,22.2517356 C71.7138923,22.0447829 71.4846105,21.8329287 71.2754794,21.6047362 C71.0385731,21.3460454 70.6388276,21.7158371 70.875734,21.9750725" id="Fill-40" fill="#016BFF"></path>
                                <path d="M84.8654621,27.2584108 C84.8404099,27.9048656 84.2968868,28.4075427 83.6509767,28.3824906 C83.0050665,28.3585276 82.5013001,27.8144599 82.5263523,27.1680052 C82.5514045,26.522095 83.0949275,26.0188732 83.7413823,26.0439254 C84.3867479,26.068433 84.8905142,26.611956 84.8654621,27.2584108" id="Fill-42" fill="#016BFF"></path>
                                <path d="M74.098695,20.292275 C74.5234926,23.0294964 73.2153339,25.5047592 71.1773947,25.8206344 C69.1389109,26.1365095 67.1429069,24.1742714 66.7175647,21.4375947 C66.2933117,18.6998287 67.6014705,16.2245659 69.6394096,15.9086908 C71.6778934,15.592271 73.6744421,17.5555983 74.098695,20.292275" id="Fill-44" fill="#016BFF"></path>
                                <path d="M70.9879241,37.6800026 C73.7725267,40.5457524 76.800571,43.1751405 80.0284881,45.5300441 C80.2376192,45.6825355 80.4799716,45.8421069 80.7348502,45.7963595 C80.9238307,45.7625935 81.0730544,45.6220835 81.2092075,45.4870197 C83.4459302,43.27426 85.4370327,40.8137017 87.1340446,38.1647075 C90.1272337,38.3749279 93.2413267,38.6221818 95.8266012,40.1438286 C96.0297416,40.2636433 96.2366943,40.3992517 96.3483398,40.6062044 C96.5345972,40.9514886 96.402801,41.3724739 96.2895217,41.7482564 C95.0940977,45.7293722 96.5079112,49.9561081 97.0901018,54.0722878 C98.2228953,62.0895252 96.1522794,70.357829 97.7055136,78.3053561 C97.7708671,78.639748 97.8269622,79.0329581 97.5944127,79.2829351 C97.4958379,79.3885899 97.3585956,79.4495865 97.224621,79.5062261 C93.6868196,80.9941069 89.753085,81.1923458 85.9146576,81.2135857 C78.7312216,81.253887 71.5439733,80.7473975 64.4367829,79.7006527 C63.4962375,79.5623212 62.4424127,79.3422978 61.9359233,78.5379055 C61.5045904,77.8538725 61.6205928,76.9743236 61.7349614,76.1737436 C62.1946141,72.9469158 62.3716131,69.6803313 62.2637799,66.4224606 C61.9914738,58.1601476 59.9001626,50.0753782 58.8430701,41.8762402 C58.8163841,41.6676537 58.7951442,41.4372827 58.9160482,41.2657299 C59.0260599,41.1105154 59.2226649,41.0473403 59.40511,40.9934237 C63.0431201,39.9238052 66.6805855,38.8547313 70.3185956,37.7851127" id="Fill-46" fill="#B3D3FF"></path>
                                <path d="M95.6800461,40.396692 C96.3651683,39.8444552 97.447313,40.377086 98.0757955,40.9930425 C98.8633049,41.7647581 99.5522394,42.6748052 99.9748586,43.4465208 C104.687933,52.063921 107.23454,60.9029784 109.704902,70.4091859 C110.188517,72.2690369 110.671588,74.1294324 111.155204,75.9892834 C111.321311,76.6281136 111.478704,77.3431895 111.155749,77.9183001 C110.879086,78.4122634 110.321947,78.667142 109.794218,78.8702824 C106.487332,80.1441305 102.887445,80.6538876 99.3572682,80.3461817 C98.7102688,80.2900866 98.0447526,80.2002256 97.4870696,79.8680121 C96.5084014,79.2847323 96.0808807,78.1078252 95.7655502,77.0131545 C94.1780054,71.5114812 93.594181,65.7712677 93.2701367,60.0544725 C93.193891,58.7081909 93.1312606,57.3597309 93.1726511,56.0123601 C93.3164288,51.2491811 94.7378668,46.6286904 96.1467788,42.0768209" id="Fill-48" fill="#B3D3FF"></path>
                                <path d="M97.1426024,70.5917944 C95.8932618,71.8106367 94.5143035,72.9189227 92.8270946,73.2435116 C91.2907434,73.5386915 89.7010201,73.1324107 88.2583422,72.5278911 C86.8156642,71.9228268 85.4606688,71.1189791 83.9994741,70.5591177 C82.0628328,69.8173557 79.9557279,69.5199974 77.8883796,69.6969964 C76.0051103,69.8587463 74.1283764,70.4071708 72.2543655,70.1615507 C69.518778,69.8037404 67.2864122,67.8262532 65.476121,65.7447451 C64.1390978,64.2073046 62.9338709,62.5571293 61.8637077,60.8241731 C62.0793742,62.6878363 62.2389456,64.556401 62.3004868,66.4347688 C62.40832,69.6926395 62.2307764,72.959224 61.7716682,76.1855072 C61.6572997,76.9860873 61.5412972,77.8656361 61.9726302,78.5496691 C62.4796642,79.3540615 63.533489,79.5740848 64.4734898,79.712961 C71.5806801,80.7597058 78.7679285,81.2656506 85.9519091,81.2253493 C89.7897919,81.2041094 93.7235264,81.0064151 97.2613279,79.5179898 C97.3953025,79.4618947 97.5325448,79.4008981 97.6311196,79.2941541 C97.8642137,79.0447217 97.807574,78.6520562 97.7422205,78.3171197 C97.2444449,75.7688788 97.1208179,73.1874166 97.1426024,70.5917944" id="Fill-50" fill="#80B6FF"></path>
                                <path d="M58.4937558,73.3505279 C58.4937558,73.3505279 74.9328777,74.7311201 81.4099516,77.0990943 C87.8875701,79.4659793 90.418928,80.4195954 91.471119,81.9646605 C92.5233099,83.5102701 85.6187153,82.8202464 85.6187153,82.8202464 L53.3967294,80.8868727" id="Fill-52" fill="#F2BC9E"></path>
                                <path d="M59.5829804,40.9561722 C62.1023568,44.2619688 62.287525,48.6395624 62.2281623,52.7954987 C62.2009316,54.7599152 62.0506187,56.7297779 61.6203749,58.6457239 C60.5643717,63.3468172 57.8827008,67.4940397 55.2495004,71.5290721 C57.2286215,71.7126065 59.1810565,72.1744377 61.0321937,72.8971382 C61.2908845,72.9984361 61.5931443,73.172712 61.5762613,73.4499197 C61.5637353,73.6666754 61.3567826,73.8115422 61.1737929,73.9275447 C58.8679045,75.3887394 56.9786444,77.5012905 55.7832205,79.955858 C55.6018646,80.3294621 55.4275886,80.7221275 55.1171596,80.9971567 C54.5796273,81.4747817 53.7855826,81.4834955 53.067239,81.4660679 C48.3176752,81.3511547 43.5136503,81.2275277 38.9307379,79.9765533 C38.4661836,79.8496587 37.9645957,79.6830073 37.7026372,79.2778158 C37.4020112,78.8143507 37.5196475,78.2054742 37.6530775,77.6690311 C40.6326513,65.725139 46.427326,54.4941445 54.4347604,45.1447853 C55.8894199,43.4461396 58.0901981,40.5362762 59.5829804,40.9561722" id="Fill-54" fill="#B3D3FF"></path>
                                <path d="M55.5387985,67.2810419 C55.3656118,66.2195925 53.3870353,65.9919446 51.961785,65.780635 C50.53599,65.5693254 49.0769737,65.800241 47.6931139,66.2027095 C46.8309926,66.4526866 45.8158353,67.0261633 45.9209455,67.9176936 C46.0167973,68.7329782 47.0613636,69.4213681 46.6953842,70.1555055 C46.5826494,70.3815196 46.3582692,70.5263865 46.1458704,70.6630841 C45.0021846,71.4037569 43.929843,72.2538966 42.9484516,73.198799 C41.7720891,74.3305033 40.6545447,75.8603192 41.0020073,77.454944 C41.1005822,77.9080614 41.3260516,78.3442958 41.6903973,78.6313065 C42.2960061,79.1089315 43.1766442,79.0882362 43.8911755,78.7995917 C44.6067961,78.5109472 45.2020573,77.9962886 45.8098446,77.5224759 C47.4828935,76.2175849 49.3503691,75.1637601 51.3311239,74.4056598 C52.0478337,74.1311752 52.7885064,73.8910012 53.4218905,73.4580344 C54.0552746,73.0250676 54.5802808,72.3546499 54.622216,71.588925 C54.6646958,70.8226555 54.0835944,70.0117279 53.3167803,69.9910326 C53.8935248,69.7230833 54.4822506,69.4475095 54.9353681,69.0014721 C55.3884855,68.5554346 55.6863884,67.8991768 55.5387985,67.2810419" id="Fill-56" fill="#80B6FF"></path>
                                <g id="Group-60" transform="translate(0.000000, 82.940987)">
                                    <mask id="mask-5" fill="white">
                                        <use xlink:href="#path-4"></use>
                                    </mask>
                                    <g id="Clip-59"></g>
                                    <path d="M178.027657,3.81206816 L1.88969571,3.81206816 C0.84621857,3.81206816 -0.000108922457,2.96574066 -0.000108922457,1.92226352 C-0.000108922457,0.878786385 0.84621857,0.0330035045 1.88969571,0.0330035045 L178.027657,0.0330035045 C179.071134,0.0330035045 179.917461,0.878786385 179.917461,1.92226352 C179.917461,2.96574066 179.071134,3.81206816 178.027657,3.81206816" id="Fill-58" fill="#944F06" mask="url(#mask-5)"></path>
                                </g>
                            </g>
                            <g id="Group-64" transform="translate(58.818127, 80.219015)">
                                <mask id="mask-7" fill="white">
                                    <use xlink:href="#path-6"></use>
                                </mask>
                                <g id="Clip-63"></g>
                                <path d="M1.2324576,0.215666465 C0.694925277,0.215666465 0.260324673,0.650811682 0.260324673,1.18725478 L0.260324673,1.18725478 L0.260324673,1.85494945 C0.260324673,2.39193716 0.694925277,2.82708238 1.2324576,2.82708238 L1.2324576,2.82708238 L87.1494026,2.82708238 C87.6858457,2.82708238 88.1209909,2.39193716 88.1209909,1.85494945 L88.1209909,1.85494945 L88.1209909,1.18725478 C88.1209909,0.650811682 87.6858457,0.215666465 87.1494026,0.215666465 L87.1494026,0.215666465 L1.2324576,0.215666465 Z" id="Fill-62" fill="#016BFF" mask="url(#mask-7)"></path>
                            </g>
                            <g id="Group-67" transform="translate(87.137966, 44.819216)">
                                <mask id="mask-9" fill="white">
                                    <use xlink:href="#path-8"></use>
                                </mask>
                                <g id="Clip-66"></g>
                                <polygon id="Fill-65" fill="#3A8AF6" mask="url(#mask-9)" points="3.11790534 0.190069688 0.348007251 38.1555368 58.4347198 38.1555368 61.7672024 0.190069688"></polygon>
                            </g>
                            <g id="Group-70" transform="translate(88.771803, 44.819216)">
                                <mask id="mask-11" fill="white">
                                    <use xlink:href="#path-10"></use>
                                </mask>
                                <g id="Clip-69"></g>
                                <polygon id="Fill-68" fill="#016BFF" mask="url(#mask-11)" points="2.77316576 0.190069688 0.00326767372 38.1555368 58.0899803 38.1555368 61.4230075 0.190069688"></polygon>
                            </g>
                            <path d="M124.078581,63.9921283 C124.078581,66.0621996 122.400631,67.74015 120.33056,67.74015 C118.259944,67.74015 119.241833,59.0506903 116.581993,63.9921283 C113.922154,68.9335662 118.259944,65.4767939 120.33056,65.4767939 C122.400631,65.4767939 124.078581,61.9215123 124.078581,63.9921283 C121.95263,61.6691442 122.116205,60.8735746 124.569307,61.6054195" id="Fill-71" fill="#FFFFFF"></path>
                        </g>
                        <g id="Group-27" transform="translate(6.000000, 1.000000)">
                            <g id="call" transform="translate(0.000000, 35.000000)" fill="#B3D3FF">
                                <path d="M10.361,3.78785 C11.264,4.94285 9.9735,5.84585 9.9735,5.84585 C9.3775,6.60035 10.912,8.01685 10.912,8.01685 C10.912,8.01685 12.418,9.46235 13.1355,8.82185 C13.1355,8.82185 13.9585,7.47885 15.166,8.31035 C16.373,9.14185 16.249,10.26885 15.1585,11.16685 C15.1585,11.16685 13.6095,12.37035 9.9735,8.94735 C6.3855,5.38635 7.5105,3.96785 7.5105,3.96785 C8.3405,2.82535 9.458,2.63285 10.361,3.78785" id="Fill-1"></path>
                                <path d="M3.966,0.5 C2.055,0.5 0.5,2.055 0.5,3.966 L0.5,10.538 C0.5,12.449 2.055,14.004 3.966,14.004 L15.1595,14.004 L17.63,17.2125 L17.9805,14.004 L18.205,14.004 C20.116,14.004 21.671,12.449 21.671,10.538 L21.671,3.966 C21.671,2.055 20.116,0.5 18.205,0.5 L3.966,0.5 Z M17.9925,18.502 L14.9135,14.504 L3.966,14.504 C1.7795,14.504 1.77635684e-14,12.725 1.77635684e-14,10.538 L1.77635684e-14,3.966 C1.77635684e-14,1.779 1.7795,-4.61852778e-14 3.966,-4.61852778e-14 L18.205,-4.61852778e-14 C20.392,-4.61852778e-14 22.171,1.779 22.171,3.966 L22.171,10.538 C22.171,12.6495 20.5125,14.381 18.43,14.498 L17.9925,18.502 Z" id="Fill-3"></path>
                            </g>
                            <g id="chat" transform="translate(121.000000, 20.000000)" fill="#FFFFFF" stroke="#B3D3FF">
                                <path d="M33.5636,7.10542736e-15 C37.5466,7.10542736e-15 40.7876,3.241 40.7876,7.224 L40.7876,19.3809 C40.7876,23.3639 37.5466,26.6049 33.5636,26.6049 L13.2573,26.6049 L7.6993,33.8233 L6.9097,26.5986 C3.0709,26.4334 -1.70530257e-13,23.2589 -1.70530257e-13,19.3809 L-1.70530257e-13,7.224 C-1.70530257e-13,3.241 3.241,7.10542736e-15 7.224,7.10542736e-15 L33.5636,7.10542736e-15 Z M12.37005,14.04921 C11.41945,14.04921 10.64805,14.81991 10.64805,15.77121 C10.64805,16.72251 11.41945,17.49391 12.37005,17.49391 C13.32135,17.49391 14.09275,16.72251 14.09275,15.77121 C14.09275,14.81991 13.32135,14.04921 12.37005,14.04921 Z M19.47596,14.04921 C18.52466,14.04921 17.75326,14.81991 17.75326,15.77121 C17.75326,16.72251 18.52466,17.49391 19.47596,17.49391 C20.42656,17.49391 21.19866,16.72251 21.19866,15.77121 C21.19866,14.81991 20.42656,14.04921 19.47596,14.04921 Z M26.58124,14.04921 C25.62994,14.04921 24.85854,14.81991 24.85854,15.77121 C24.85854,16.72251 25.62994,17.49391 26.58124,17.49391 C27.53254,17.49391 28.30394,16.72251 28.30394,15.77121 C28.30394,14.81991 27.53254,14.04921 26.58124,14.04921 Z" id="Combined-Shape"></path>
                            </g>
                            <g id="question" transform="translate(44.000000, 26.000000)" fill="#B3D3FF">
                                <path d="M5.30193,5.15478 C5.27283,5.18358 5.23863,5.19828 5.19873,5.19828 L4.89003,5.19828 C4.85013,5.19828 4.81593,5.18358 4.78683,5.15478 C4.75833,5.12598 4.74363,5.09148 4.74363,5.05188 L4.74363,4.74288 C4.74363,4.70328 4.75833,4.66878 4.78683,4.63998 C4.81593,4.61118 4.85013,4.59648 4.89003,4.59648 L5.19873,4.59648 C5.23863,4.59648 5.27283,4.61118 5.30193,4.63998 C5.33103,4.66878 5.34513,4.70328 5.34513,4.74288 L5.34513,5.05188 C5.34513,5.09148 5.33103,5.12598 5.30193,5.15478 M5.68383,1.48338 C5.87013,1.57188 6.01623,1.69458 6.12273,1.85178 C6.22953,2.00898 6.28293,2.18328 6.28293,2.37468 C6.28293,2.51928 6.25833,2.64678 6.20943,2.75688 C6.16053,2.86698 6.10113,2.96088 6.03063,3.03858 C5.96013,3.11628 5.86743,3.20388 5.75163,3.30138 C5.59623,3.43518 5.48073,3.55428 5.40483,3.65898 C5.32893,3.76398 5.29113,3.89388 5.29113,4.04928 L5.29113,4.12488 C5.29113,4.16478 5.27643,4.19928 5.24763,4.22808 C5.21883,4.25688 5.18433,4.27128 5.14473,4.27128 L4.94433,4.27128 C4.90443,4.27128 4.87023,4.25688 4.84113,4.22808 C4.81233,4.19928 4.79763,4.16478 4.79763,4.12488 L4.79763,4.01118 C4.79763,3.86688 4.82313,3.73938 4.87383,3.62928 C4.92423,3.51918 4.98483,3.42588 5.05533,3.34998 C5.12553,3.27438 5.22063,3.18228 5.33973,3.07368 C5.49153,2.94378 5.60463,2.82918 5.67843,2.72988 C5.75253,2.63028 5.78973,2.51208 5.78973,2.37468 C5.78973,2.20128 5.71743,2.06418 5.57253,1.96278 C5.42823,1.86168 5.25483,1.81098 5.05263,1.81098 C4.85763,1.81098 4.69503,1.85988 4.56483,1.95738 C4.43463,2.05488 4.34463,2.20488 4.29393,2.40708 C4.28673,2.44338 4.26963,2.47218 4.24263,2.49378 C4.21533,2.51568 4.18533,2.52648 4.15323,2.52648 L3.92013,2.52648 C3.88743,2.52648 3.85833,2.51478 3.83313,2.49138 C3.80793,2.46768 3.79683,2.43978 3.80073,2.40708 C3.81153,2.23728 3.86493,2.07138 3.96063,1.90878 C4.05663,1.74618 4.19703,1.61238 4.38333,1.50768 C4.56963,1.40298 4.79253,1.35048 5.05263,1.35048 C5.28723,1.35048 5.49783,1.39488 5.68383,1.48338" id="Fill-14"></path>
                                <path d="M1.8276,0.3 C0.9852,0.3 0.3,0.9852 0.3,1.8276 L0.3,4.794 C0.3,5.6367 0.9852,6.3219 1.8276,6.3219 L1.962,6.3219 L2.1138,7.7115 L3.1839,6.3219 L8.2554,6.3219 C9.0975,6.3219 9.783,5.6367 9.783,4.794 L9.783,1.8276 C9.783,0.9852 9.0975,0.3 8.2554,0.3 L1.8276,0.3 Z M1.8963,8.4852 L1.6926,6.6168 C0.7476,6.5475 0,5.7564 0,4.794 L0,1.8276 C0,0.8199 0.8199,5.32907052e-14 1.8276,5.32907052e-14 L8.2554,5.32907052e-14 C9.2631,5.32907052e-14 10.083,0.8199 10.083,1.8276 L10.083,4.794 C10.083,5.802 9.2631,6.6219 8.2554,6.6219 L3.3318,6.6219 L1.8963,8.4852 Z" id="Fill-16"></path>
                            </g>
                            <g id="chat" transform="translate(55.000000, 0.000000)" fill="#B3D3FF">
                                <path d="M2.7784,0.4 C1.4672,0.4 0.4,1.4668 0.4,2.7788 L0.4,7.3388 C0.4,8.65 1.4672,9.7172 2.7784,9.7172 L2.9576,9.7172 L3.1968,11.9016 L4.8788,9.7172 L12.6584,9.7172 C13.97,9.7172 15.0368,8.65 15.0368,7.3388 L15.0368,2.7788 C15.0368,1.4668 13.97,0.4 12.6584,0.4 L2.7784,0.4 Z M2.9068,12.9332 L2.5984,10.1116 C1.15,10.0184 4.97379915e-14,8.8104 4.97379915e-14,7.3388 L4.97379915e-14,2.7788 C4.97379915e-14,1.2464 1.2464,4.26325641e-14 2.7784,4.26325641e-14 L12.6584,4.26325641e-14 C14.1904,4.26325641e-14 15.4368,1.2464 15.4368,2.7788 L15.4368,7.3388 C15.4368,8.8708 14.1904,10.1172 12.6584,10.1172 L5.0756,10.1172 L2.9068,12.9332 Z" id="Fill-19"></path>
                                <path d="M5.355,5.98456 C5.355,6.34176 5.0658,6.63096 4.709,6.63096 C4.3522,6.63096 4.063,6.34176 4.063,5.98456 C4.063,5.62776 4.3522,5.33856 4.709,5.33856 C5.0658,5.33856 5.355,5.62776 5.355,5.98456" id="Fill-21"></path>
                                <path d="M8.0202,5.98456 C8.0202,6.34176 7.731,6.63096 7.3742,6.63096 C7.0174,6.63096 6.7282,6.34176 6.7282,5.98456 C6.7282,5.62776 7.0174,5.33856 7.3742,5.33856 C7.731,5.33856 8.0202,5.62776 8.0202,5.98456" id="Fill-23"></path>
                                <path d="M10.68584,5.98456 C10.68584,6.34176 10.39624,6.63096 10.03944,6.63096 C9.68264,6.63096 9.39344,6.34176 9.39344,5.98456 C9.39344,5.62776 9.68264,5.33856 10.03944,5.33856 C10.39624,5.33856 10.68584,5.62776 10.68584,5.98456" id="Fill-25"></path>
                            </g>
                        </g>
                    </g>
                </g>
            </g>
        </g>
    </g>
</svg>