<?xml version="1.0" encoding="UTF-8"?>
<svg width="108px" height="108px" viewBox="0 0 108 108" version="1.1" xmlns="http://www.w3.org/2000/svg" xmlns:xlink="http://www.w3.org/1999/xlink">
    <!-- Generator: sketchtool 49.3 (51167) - http://www.bohemiancoding.com/sketch -->
    <title>793DAB5F-3900-4FD7-A8B7-126654248271</title>
    <desc>Created with sketchtool.</desc>
    <defs>
        <rect id="path-1" x="0" y="0" width="108" height="108" rx="4"></rect>
        <radialGradient cx="50%" cy="0%" fx="50%" fy="0%" r="129.645915%" gradientTransform="translate(0.500000,0.000000),scale(0.417804,1.000000),rotate(90.000000),translate(-0.500000,-0.000000)" id="radialGradient-2">
            <stop stop-color="#7A89A3" offset="0%"></stop>
            <stop stop-color="#FFFFFF" stop-opacity="0.5" offset="100%"></stop>
        </radialGradient>
        <path d="M77.8656716,69.3283582 C75.1791045,66.4626866 67.4776119,67.1791045 63.7164179,65.119403 C62.0149254,68.2537313 56.8208955,63.0746269 53.8656716,63.0746269 C50.9104478,63.0746269 45.7164179,68.2537313 44.0149254,65.119403 C40.2537313,67.0895522 32.641791,66.3731343 29.8656716,69.3283582 C28.4328358,70.9402985 27.6268657,80.6119403 27.6268657,85 L80.1044776,85 C80.1044776,80.7014925 79.3880597,70.9402985 77.8656716,69.3283582 Z" id="path-3"></path>
    </defs>
    <g id="Home-screen" stroke="none" stroke-width="1" fill="none" fill-rule="evenodd">
        <g id="Profile_with-White-Header-Copy" transform="translate(-147.000000, -330.000000)">
            <g id="New-layout" transform="translate(27.000000, 229.000000)">
                <g id="COmpany-Profile">
                    <g id="Placeholder_Executive" transform="translate(120.000000, 101.000000)">
                        <g id="executive_placeholder">
                            <g id="Rectangle-4-Copy-12">
                                <use fill="#2153A7" xlink:href="#path-1"></use>
                                <use fill="#B3BCC9" xlink:href="#path-1"></use>
                            </g>
                            <path d="M42.2238806,49.9850746 C45,56.6119403 50.2835821,60.1940299 53.8656716,60.1940299 C57.358209,60.1940299 62.1940299,56.7014925 65.0597015,50.1641791 C65.7761194,48.5522388 66.3134328,46.5820896 66.761194,44.5223881 C67.2089552,42.9104478 67.4776119,40.9402985 67.4776119,38.3432836 C67.4776119,31.5373134 61.3880597,25.8059701 53.8656716,25.8059701 C46.3432836,25.8059701 40.2537313,31.5373134 40.2537313,38.3432836 C40.2537313,40.1343284 40.3432836,41.6567164 40.6119403,42.9104478 C40.880597,45.4179104 41.4179104,48.0149254 42.2238806,49.9850746 Z" id="Shape" fill="#EFF5FF" fill-rule="nonzero"></path>
                            <g id="Shape" fill-rule="nonzero">
                                <use fill="#D0DAE8" fill-rule="evenodd" xlink:href="#path-3"></use>
                                <use fill="url(#radialGradient-2)" fill-rule="evenodd" xlink:href="#path-3"></use>
                            </g>
                            <polygon id="Path-3" fill="#9BA4B1" points="44 65 45.5 60.5 53.5 62.75 49.5 73.5"></polygon>
                            <polygon id="Path-3-Copy" fill="#9BA4B1" transform="translate(58.750000, 67.000000) scale(-1, 1) translate(-58.750000, -67.000000) " points="54 65 55.5 60.5 63.5 62.75 59.5 73.5"></polygon>
                        </g>
                    </g>
                </g>
            </g>
        </g>
    </g>
</svg>