<?xml version="1.0" encoding="UTF-8"?>
<svg width="13px" height="14px" viewBox="0 0 13 14" version="1.1" xmlns="http://www.w3.org/2000/svg" xmlns:xlink="http://www.w3.org/1999/xlink">
    <!-- Generator: sketchtool 52.6 (67491) - http://www.bohemiancoding.com/sketch -->
    <title>4884982D-0182-48A8-96BF-E2078C4EF79C</title>
    <desc>Created with sketchtool.</desc>
    <g id="Import" stroke="none" stroke-width="1" fill="none" fill-rule="evenodd" opacity="0.5">
        <g transform="translate(-691.000000, -308.000000)" fill="#FFFFFF" fill-rule="nonzero" id="Content">
            <g transform="translate(120.000000, 90.000000)">
                <g id="Group" transform="translate(0.000000, 58.000000)">
                    <g id="Linkedin" transform="translate(402.000000, 0.000000)">
                        <g id="Hover-">
                            <g id="hover-btn" transform="translate(50.000000, 60.000000)">
                                <g id="Group-2" transform="translate(0.000000, 100.000000)">
                                    <g id="download-contact-file" transform="translate(119.000000, 0.000000)">
                                        <path d="M6.39111509,5.25675528 L3.2878468,8.22736454 C2.4149965,9.04811103 3.72427194,10.279521 4.59743089,9.45877449 L5.65975323,8.45606704 C5.90159817,8.22779382 6.097737,8.30346591 6.097737,8.62518407 L6.097737,12.6173872 C6.097737,13.0944394 6.51229329,13.485904 7.02367438,13.485904 C7.53401492,13.485904 7.94961176,13.0970558 7.94961176,12.6173872 L7.94961176,8.62518407 C7.94961176,8.3052007 8.14574412,8.22774962 8.38768567,8.45606704 L9.45022652,9.45877449 C10.3230768,10.279521 11.6326609,9.04811103 10.7598106,8.22736454 L7.6883477,5.26085629 C7.32924563,4.91402508 6.74975593,4.91344566 6.39111509,5.25675528 Z M1.85714286,2.03235918 L1.85714286,3.77280252 C1.85714286,4.25364742 1.44140725,4.64344926 0.928571429,4.64344926 C0.415735605,4.64344926 -2.07478479e-12,4.25364742 -2.07478479e-12,3.77280252 L-2.07478479e-12,1.15952663 C-2.07478479e-12,0.517891674 0.557920536,4.61852778e-14 1.23822505,4.61852778e-14 L11.7617749,4.61852778e-14 C12.444953,4.61852778e-14 13,0.521407345 13,1.15952663 L13,3.77280252 C13,4.25364742 12.5842644,4.64344926 12.0714286,4.64344926 C11.5585927,4.64344926 11.1428571,4.25364742 11.1428571,3.77280252 L11.1428571,2.03235918 C11.1428571,1.86837348 11.0045345,1.74129347 10.8339048,1.74129347 L2.16609519,1.74129347 C1.99561304,1.74129347 1.85714286,1.87160804 1.85714286,2.03235918 Z" id="ic_download" transform="translate(6.500000, 6.742952) rotate(-180.000000) translate(-6.500000, -6.742952) "></path>
                                    </g>
                                </g>
                            </g>
                        </g>
                    </g>
                </g>
            </g>
        </g>
    </g>
</svg>