<?xml version="1.0" encoding="UTF-8"?>
<svg width="189px" height="137px" viewBox="0 0 189 137" version="1.1" xmlns="http://www.w3.org/2000/svg" xmlns:xlink="http://www.w3.org/1999/xlink"> 
    <defs></defs>
    <g id="DG_Home_Company-Detail_blurred" stroke="none" stroke-width="1" fill="none" fill-rule="evenodd" transform="translate(-585.000000, -266.000000)">
        <g id="Common-Alert" transform="translate(516.000000, 247.000000)">
            <g id="Illustration_DGAlert" transform="translate(66.000000, 13.000000)">
                <path d="M21.2253445,32.3250632 L160.225345,32.3250632 C166.576619,32.3250632 171.725345,37.4737886 171.725345,43.8250632 C171.725345,50.1763378 166.576619,55.3250632 160.225345,55.3250632 L21.2253445,55.3250632 C14.8740699,55.3250632 9.72534454,50.1763378 9.72534454,43.8250632 C9.72534454,37.4737886 14.8740699,32.3250632 21.2253445,32.3250632 Z M40.7028877,64.8081779 L179.702888,64.8081779 C186.054162,64.8081779 191.202888,69.9569033 191.202888,76.3081779 C191.202888,82.6594525 186.054162,87.8081779 179.702888,87.8081779 L40.7028877,87.8081779 C34.351613,87.8081779 29.2028877,82.6594525 29.2028877,76.3081779 C29.2028877,69.9569033 34.351613,64.8081779 40.7028877,64.8081779 Z M34.3377044,96.027326 L173.337704,96.027326 C179.688979,96.027326 184.837704,101.176051 184.837704,107.527326 C184.837704,113.878601 179.688979,119.027326 173.337704,119.027326 L34.3377044,119.027326 C27.9864297,119.027326 22.8377044,113.878601 22.8377044,107.527326 C22.8377044,101.176051 27.9864297,96.027326 34.3377044,96.027326 Z" id="Combined-Shape" fill="#0164CF" opacity="0.100000001" transform="translate(100.464116, 75.676195) rotate(-23.000000) translate(-100.464116, -75.676195) "></path>
                <circle id="Oval-2" fill="#F0F6FD" cx="107" cy="72" r="66"></circle>
                <path d="M132.832946,61.953731 C134.122388,63.2353791 135.143354,64.7418777 135.8845,66.4432468 C136.625646,68.159606 137,69.9958854 137,71.907115 L137,84.6523933 C137,86.5636229 136.625646,88.4073974 135.8845,90.120009 C135.143354,91.8213781 134.122388,93.3316243 132.832946,94.6057774 C131.547285,95.8799304 130.02718,96.8992529 128.310445,97.6300172 C126.578584,98.3607814 124.706813,98.7317848 122.740508,98.7317848 C120.887644,98.7317848 119.125532,98.5294193 117.510893,98.1321834 C115.873566,97.7274524 114.413963,97.1390935 113.185022,96.3858442 C111.92205,95.6176048 110.874614,94.6807275 110.069185,93.60894 C109.222162,92.4846872 108.707897,91.2255242 108.541518,89.8651784 L108.530174,88.3099622 L115.665592,88.3099622 L115.877348,89.2093643 C116.039946,89.6403279 116.255483,90.0450588 116.527741,90.4160622 C116.754622,90.730853 117.091163,91.0194112 117.533581,91.2742418 C118.010032,91.5515575 118.656644,91.7726605 119.439385,91.9300559 C120.275064,92.0911988 121.386783,92.166149 122.710257,92.1324214 C123.814413,92.1324214 124.827816,91.9338034 125.742904,91.5515575 C126.665555,91.1655641 127.478547,90.6334178 128.155409,89.9663612 C128.824709,89.295557 129.365443,88.4935901 129.754923,87.5791979 C130.140621,86.6685532 130.341033,85.6792108 130.341033,84.6523933 L130.341033,71.9408426 C130.341033,70.9140251 130.140621,69.9321777 129.754923,69.021533 C129.365443,68.1071408 128.820928,67.2939314 128.144065,66.6081372 C127.470984,65.9298381 126.661774,65.3901968 125.742904,65.0116984 C124.827816,64.6257049 123.814413,64.4308345 122.740508,64.4308345 C121.734667,64.4308345 120.770422,64.6257049 119.870459,65.0079508 C118.962934,65.3901968 118.149942,65.9335856 117.457954,66.6193797 C116.762185,67.3089214 116.206326,68.1221309 115.794158,69.0402706 C115.397115,69.9396728 115.196704,70.9140251 115.196704,71.9370951 C115.196704,72.9714076 115.393334,73.9157799 115.794158,74.8301721 C116.206326,75.7520593 116.762185,76.5652688 117.457954,77.2548104 C118.149942,77.9406046 118.962934,78.4802459 119.870459,78.8662393 C120.770422,79.2484853 121.734667,79.4396082 122.740508,79.4396082 L125.810969,79.4396082 L125.810969,86.0427192 L122.740508,86.0427192 C120.808235,86.0427192 118.95159,85.6679683 117.22351,84.937204 C115.506775,84.2064397 113.990451,83.2021073 112.701009,81.9466918 C111.411567,80.6875287 110.383038,79.1847776 109.649455,77.479661 C108.904528,75.7670493 108.530174,73.8932948 108.530174,71.907115 C108.530174,69.9958854 108.904528,68.159606 109.649455,66.4432468 C110.383038,64.7456252 111.407785,63.2353791 112.701009,61.953731 C113.98667,60.6795779 115.506775,59.6640029 117.22351,58.9332387 C118.955371,58.2024744 120.808235,57.831471 122.740508,57.831471 C124.706813,57.831471 126.578584,58.2024744 128.310445,58.9332387 C130.02718,59.6640029 131.547285,60.6795779 132.832946,61.953731 Z M105.995125,56.8919047 C107.240084,59.4554291 107.875727,62.3675028 107.875727,65.5569169 C107.875727,68.4577471 107.311546,71.1936722 106.194469,73.6897354 C105.088675,76.1633116 103.614282,78.3333125 101.820188,80.1435205 C100.018571,81.9537284 97.938625,83.3966479 95.6442903,84.4348003 C93.3273884,85.4767005 90.92774,86.0088942 88.5205691,86.0088942 L81.5472961,86.0088942 L81.5472961,87.1032642 L77.1542094,82.7145405 L81.5472961,78.3333125 L81.5472961,79.4051955 L87.395969,79.4051955 C89.1863023,79.4051955 90.946546,79.0641418 92.6278044,78.3857823 C94.3203464,77.7036749 95.8361117,76.7442272 97.1374885,75.5299262 C98.4238204,74.319373 99.4731964,72.8352273 100.244243,71.1262111 C101.011529,69.4284383 101.398933,67.5207864 101.398933,65.4519773 C101.398933,63.7017348 101.060425,61.9702315 100.398453,60.313685 C99.7364807,58.6421472 98.784896,57.1430102 97.5813106,55.8462566 C96.3777252,54.5569987 94.8958106,53.4963593 93.173179,52.6943209 C91.4768758,51.8997783 89.5323331,51.4987591 87.395969,51.4987591 L77,51.4987591 L77,45 L88.5205691,45 C90.5704256,45 92.7632077,45.4722282 95.0387364,46.4016931 C97.2992203,47.3311581 99.4017335,48.691625 101.293619,50.4456154 C103.185505,52.2033536 104.768972,54.3771023 105.995125,56.8919047 Z" id="Combined-Shape" fill="#0164CF"></path>
                <rect id="Rectangle-7" fill="#55ACEE" x="50" y="23" width="21" height="3" rx="1.5"></rect>
                <rect id="Rectangle-7-Copy" fill="#55ACEE" x="44" y="28" width="21" height="3" rx="1.5"></rect>
                <rect id="Rectangle-8" fill="#0164CF" x="169" y="20" width="18" height="3" rx="1.5"></rect>
                <path d="M170.791667,118.791667 L170.791667,114.958333 C170.791667,114.42906 171.220727,114 171.75,114 C172.279273,114 172.708333,114.42906 172.708333,114.958333 L172.708333,118.791667 L176.541667,118.791667 C177.07094,118.791667 177.5,119.220727 177.5,119.75 C177.5,120.279273 177.07094,120.708333 176.541667,120.708333 L172.708333,120.708333 L172.708333,124.541667 C172.708333,125.07094 172.279273,125.5 171.75,125.5 C171.220727,125.5 170.791667,125.07094 170.791667,124.541667 L170.791667,120.708333 L166.958333,120.708333 C166.42906,120.708333 166,120.279273 166,119.75 C166,119.220727 166.42906,118.791667 166.958333,118.791667 L170.791667,118.791667 Z" id="Combined-Shape" fill="#3C5A99"></path>
                <path d="M73.7916667,10.7916667 L73.7916667,6.95833333 C73.7916667,6.42906045 74.2207271,6 74.75,6 C75.2792729,6 75.7083333,6.42906045 75.7083333,6.95833333 L75.7083333,10.7916667 L79.5416667,10.7916667 C80.0709396,10.7916667 80.5,11.2207271 80.5,11.75 C80.5,12.2792729 80.0709396,12.7083333 79.5416667,12.7083333 L75.7083333,12.7083333 L75.7083333,16.5416667 C75.7083333,17.0709396 75.2792729,17.5 74.75,17.5 C74.2207271,17.5 73.7916667,17.0709396 73.7916667,16.5416667 L73.7916667,12.7083333 L69.9583333,12.7083333 C69.4290604,12.7083333 69,12.2792729 69,11.75 C69,11.2207271 69.4290604,10.7916667 69.9583333,10.7916667 L73.7916667,10.7916667 Z" id="Combined-Shape-Copy" fill="#8D95A5"></path>
                <circle id="Oval-3" fill="#FFD794" cx="163" cy="38" r="6"></circle>
                <circle id="Oval-4" fill="#DA4B42" cx="50" cy="116" r="4"></circle>
            </g>
        </g>
    </g>
</svg>