<?xml version="1.0" encoding="UTF-8"?>
<svg width="11px" height="6px" viewBox="0 0 11 6" version="1.1" xmlns="http://www.w3.org/2000/svg" xmlns:xlink="http://www.w3.org/1999/xlink">
    <!-- Generator: sketchtool 52.6 (67491) - http://www.bohemiancoding.com/sketch -->
    <title>5DA5C3C5-B599-4E0C-BF95-AF40827CD481</title>
    <desc>Created with sketchtool.</desc>
    <g id="Contact" stroke="none" stroke-width="1" fill="none" fill-rule="evenodd">
        <g id="Admin_contacts_CRP" transform="translate(-748.000000, -294.000000)" fill="#9CB7C1" fill-rule="nonzero">
            <g id="Group-2" transform="translate(329.000000, 166.000000)">
                <g id="CF1" transform="translate(408.500000, 116.000000)">
                    <path d="M12,14 C11.4477153,14 11,13.5522847 11,13 C11,12.4477153 11.4477153,12 12,12 C12.5522847,12 13,12.4477153 13,13 C13,13.5522847 12.5522847,14 12,14 Z M12,18 C11.4477153,18 11,17.5522847 11,17 C11,16.4477153 11.4477153,16 12,16 C12.5522847,16 13,16.4477153 13,17 C13,17.5522847 12.5522847,18 12,18 Z M16,14 C15.4477153,14 15,13.5522847 15,13 C15,12.4477153 15.4477153,12 16,12 C16.5522847,12 17,12.4477153 17,13 C17,13.5522847 16.5522847,14 16,14 Z M16,18 C15.4477153,18 15,17.5522847 15,17 C15,16.4477153 15.4477153,16 16,16 C16.5522847,16 17,16.4477153 17,17 C17,17.5522847 16.5522847,18 16,18 Z M20,14 C19.4477153,14 19,13.5522847 19,13 C19,12.4477153 19.4477153,12 20,12 C20.5522847,12 21,12.4477153 21,13 C21,13.5522847 20.5522847,14 20,14 Z M20,18 C19.4477153,18 19,17.5522847 19,17 C19,16.4477153 19.4477153,16 20,16 C20.5522847,16 21,16.4477153 21,17 C21,17.5522847 20.5522847,18 20,18 Z" id="ic_draga"></path>
                </g>
            </g>
        </g>
    </g>
</svg>
