<?xml version="1.0" encoding="UTF-8"?>
<svg width="16px" height="16px" viewBox="0 0 16 16" version="1.1" xmlns="http://www.w3.org/2000/svg" xmlns:xlink="http://www.w3.org/1999/xlink">
    <!-- Generator: sketchtool 49.2 (51160) - http://www.bohemiancoding.com/sketch -->
    <title>CE0251EB-3F1B-4913-B88E-3F109A5D9A15</title>
    <desc>Created with sketchtool.</desc>
    <defs></defs>
    <g id="Company-Screens" stroke="none" stroke-width="1" fill="none" fill-rule="evenodd">
        <g id="A_DG_Home_Company-NewList_selected_z" transform="translate(-580.000000, -342.000000)" fill-rule="nonzero">
            <g id="Action-Bar" transform="translate(465.000000, 324.000000)">
                <g id="action-buttons" transform="translate(115.000000, 18.000000)">
                    <g id="ic_excel_original-copy">
                        <path d="M15.5607843,2.13333333 L8.53333333,2.13333333 L8.53333333,14.9333333 L15.5607843,14.9333333 C15.804412,14.9333333 16,14.7297621 16,14.4761905 L16,2.59047619 C16,2.33690499 15.804412,2.13333333 15.5607843,2.13333333 Z" id="Shape" fill="#135715"></path>
                        <polygon id="Shape" fill="#FFFFFF" points="11.7333333 4.26666667 14.9333333 4.26666667 14.9333333 5.33333333 11.7333333 5.33333333"></polygon>
                        <polygon id="Shape" fill="#FFFFFF" points="11.7333333 8.53333333 14.9333333 8.53333333 14.9333333 9.6 11.7333333 9.6"></polygon>
                        <polygon id="Shape" fill="#FFFFFF" points="11.7333333 10.6666667 14.9333333 10.6666667 14.9333333 11.7333333 11.7333333 11.7333333"></polygon>
                        <polygon id="Shape" fill="#FFFFFF" points="11.7333333 6.4 14.9333333 6.4 14.9333333 7.46666667 11.7333333 7.46666667"></polygon>
                        <polygon id="Shape" fill="#FFFFFF" points="8.53333333 4.26666667 10.6666667 4.26666667 10.6666667 5.33333333 8.53333333 5.33333333"></polygon>
                        <polygon id="Shape" fill="#FFFFFF" points="8.53333333 8.53333333 10.6666667 8.53333333 10.6666667 9.6 8.53333333 9.6"></polygon>
                        <polygon id="Shape" fill="#FFFFFF" points="8.53333333 10.6666667 10.6666667 10.6666667 10.6666667 11.7333333 8.53333333 11.7333333"></polygon>
                        <polygon id="Shape" fill="#FFFFFF" points="8.53333333 6.4 10.6666667 6.4 10.6666667 7.46666667 8.53333333 7.46666667"></polygon>
                        <polygon id="Shape" fill="#6FDE00" points="9.6 16 0 14.2222222 0 1.77777778 9.6 0"></polygon>
                        <path d="M5.92977997,11.7333333 L4.93891392,9.64761905 C4.90037132,9.57083322 4.86182871,9.42797608 4.82168027,9.21904762 L4.80722689,9.21904762 C4.78795559,9.31726202 4.74298922,9.46726202 4.67393361,9.66726202 L3.67824964,11.7333333 L2.13333333,11.7333333 L3.96731918,8.53333333 L2.28911001,5.33333333 L3.86614474,5.33333333 L4.68999283,7.2511907 C4.7542305,7.4029763 4.81043857,7.58333333 4.86182871,7.79047619 L4.87788834,7.79047619 C4.91000717,7.66726202 4.97103276,7.47976213 5.05935967,7.23333333 L5.97474634,5.33333333 L7.42009404,5.33333333 L5.69370682,8.5047619 L7.46666667,11.7315477 L5.92977997,11.7315477 L5.92977997,11.7333333 Z" id="Shape" fill="#FFFFFF"></path>
                    </g>
                </g>
            </g>
        </g>
    </g>
</svg>