<?xml version="1.0" encoding="UTF-8"?>
<svg width="68px" height="73px" viewBox="0 0 68 73" version="1.1" xmlns="http://www.w3.org/2000/svg" xmlns:xlink="http://www.w3.org/1999/xlink">
    <!-- Generator: Sketch 48.2 (47327) - http://www.bohemiancoding.com/sketch -->
    <title>ic_executives</title>
    <desc>Created with Sketch.</desc>
    <defs></defs>
    <g id="DG_Home_New-landing_2" stroke="none" stroke-width="1" fill="none" fill-rule="evenodd" transform="translate(-591.000000, -1339.000000)" opacity="0.300000012">
        <g id="section-4" transform="translate(0.000000, 1265.000000)">
            <g id="Group-5" transform="translate(202.000000, 70.000000)">
                <g id="Group-4" transform="translate(390.000000, 0.000000)">
                    <g id="Group-6" transform="translate(0.000000, 1.000000)">
                        <g id="ic_executives" transform="translate(0.000000, 4.000000)">
                            <path d="M26.2250993,43 L26.9268192,43 C26.9268192,43 33.8437717,40.9411765 37.0516337,33.0980392 C37.0516337,33.0980392 40.3597414,30.3529412 38.3548276,27.6078431 C38.3548276,27.6078431 37.1518794,27.1176471 36.1494225,30.3529412 L37.0516337,25.5490196 C37.0516337,25.5490196 36.8511423,23.9803922 35.347457,23.8823529 C35.347457,23.8823529 31.2373838,24.9607843 25.3228882,22.6078431 C25.3228882,22.6078431 21.3130606,20.9411765 19.7091296,18 C19.7091296,18 17.6039701,18.2941176 15.7995478,22.9019608 C15.7995478,22.9019608 15.8997934,27.3137255 16.5012676,29.4705882 C16.1002848,28.4901961 15.398565,27.0196078 14.4963538,27.8039216 C14.4963538,27.8039216 12.7921771,29.372549 15.6993021,32.7058824 C15.6993021,32.8039216 19.8093753,41.5294118 26.2250993,43 Z" id="Shape"></path>
                            <path d="M9,43.8673594 C17.799435,46.9313545 20.9632768,42.4836196 20.9632768,42.4836196 L23.6327684,44.163875 C26.4011299,45.6464533 28.279661,44.6580678 28.279661,44.6580678 C29.7627119,43.9661979 32.0367232,42.5824582 32.0367232,42.5824582 C36.1892655,47.1290316 44,43.8673594 44,43.8673594 C40.6384181,42.3847811 39.3531073,39.8149787 38.8587571,37.6405306 C40.9350282,39.2219474 43.9011299,38.0358848 43.9011299,38.0358848 C41.6271186,38.8265932 39.1553672,34.7742126 38.759887,33.9835041 C38.759887,33.8846656 38.8587571,33.8846656 38.8587571,33.8846656 C41.0338983,31.4137018 40.6384181,29.1404151 40.6384181,29.1404151 C40.539548,26.6694513 38.9576271,26.8671284 38.9576271,26.8671284 C40.2429379,18.0704972 37.5734463,14.9076636 37.5734463,14.9076636 C30.3559322,6.6052252 20.0734463,11.3494757 20.0734463,11.3494757 C10.9774011,15.1053407 14.5367232,26.9659669 14.5367232,26.9659669 C12.559322,26.7682898 12.6581921,28.942738 12.6581921,28.942738 C12.460452,32.1055717 14.5367232,34.0823427 14.5367232,34.0823427 C14.5367232,34.0823427 14.6355932,34.1811812 14.6355932,34.1811812 C14.240113,34.8730511 11.6694915,38.9254318 9.49435028,38.2335619 C9.49435028,38.2335619 12.2627119,39.320786 14.3389831,37.9370462 C12.7570621,42.9778124 9,43.8673594 9,43.8673594 Z M14.5367232,27.9543525 C15.4265537,27.0648055 16.2175141,28.6462223 16.5141243,29.6346078 C16.019774,27.4601597 15.8220339,23.0124249 15.8220339,23.0124249 C17.5028249,18.3670129 19.6779661,18.0704972 19.6779661,18.0704972 C21.259887,21.1344924 25.2146893,22.7159092 25.2146893,22.7159092 C31.0480226,25.0880344 35.1016949,24.0008104 35.1016949,24.0008104 C36.5847458,24.0996489 36.7824859,25.6810658 36.7824859,25.6810658 L35.9915254,30.5241548 C36.980226,27.2624826 38.1666667,27.7566754 38.1666667,27.7566754 C40.1440678,30.5241548 36.8813559,33.2916343 36.8813559,33.2916343 C33.7175141,41.1987185 26.8954802,43.274328 26.8954802,43.274328 L26.1045198,43.274328 C19.7768362,41.7917498 15.7231638,32.9951186 15.7231638,32.9951186 C12.8559322,29.5357693 14.5367232,27.9543525 14.5367232,27.9543525 Z" id="Shape" fill="#FFFFFF" fill-rule="nonzero"></path>
                            <polygon id="Shape" fill="#FFFFFF" fill-rule="nonzero" points="28.3 47 24.7 47 23 48.7 25.4 51.4 23 57.5 26.5 61 30 57.6 27.6 51.3 30 48.6"></polygon>
                            <path d="M46.2215541,50.4264849 C46.2215541,50.4264849 35.7548363,47.100779 35.3561042,47 C35.3561042,47 35.7548363,57.0778968 26.4843147,63.0238559 C26.4843147,63.0238559 17.5128423,57.5817916 17.7122083,47 C17.7122083,47 8.04295469,49.8218111 5.25182992,51.1319377 C5.25182992,51.1319377 2.36102213,52.7444012 1.96229002,53.6514119 C1.96229002,53.6514119 -0.430102631,58.1864654 0.0683125054,66.5511198 C0.0683125054,66.5511198 16.1172799,74.3111003 53,66.5511198 C52.900317,66.6518987 53.099683,55.6669912 50.9066564,53.6514119 C50.9066564,53.6514119 49.511094,51.8373905 46.2215541,50.4264849 Z" id="Shape" stroke="#FFFFFF" stroke-width="2" fill-rule="nonzero"></path>
                            <path d="M40.4,10.9156317 C43.1,10.8177277 48.3,8.17432147 48.3,8.17432147 C50.2,6.9015703 51.5,8.46803328 51.5,8.46803328 C54.2,10.7198238 54.8,18.062619 54.8,18.062619 L55.7,17.9647151 C55.8,17.9647151 55.9,17.9647151 56,17.9647151 C56.5,17.9647151 56.8,18.160523 57.2,18.3563308 C57.6,18.6500426 57.9,19.3353702 58,19.8248899 C58.1,20.1186017 58.1,20.3144096 58.1,20.5102174 C58.1,20.6081214 58.1,20.7060253 58.1,20.7060253 C57.8,21.9787765 57.3,22.664104 56.7,22.9578158 C56.1,23.2515276 55.6,23.3494316 55.4,23.3494316 L55,23.3494316 L54.9,23.6431434 C54.3,27.0697812 52.8,29.4194756 51.4,30.8880347 C50.7,31.6712662 50.1,32.1607858 49.6,32.4544977 C49.3,32.6503055 49.2,32.7482095 49,32.7482095 L48.8,32.8461134 C46.9,33.7272488 45.1,34.1188646 43.7,34.1188646 C43.4,34.1188646 43.1,34.1188646 42.9,34.0209606 C43.1,34.3146724 43.4,34.6083843 43.7,35 C43.8,35 43.8,35 43.9,35 C45.5,35 47.2,34.7062882 49.3,33.7272488 C49.3,33.7272488 50.6,33.0419213 52.1,31.4754583 C53.5,29.9089953 55.1,27.5593008 55.8,24.1326631 C56.1,24.1326631 56.6,23.9368552 57.2,23.6431434 C58,23.1536237 58.7,22.3703922 59,20.8039292 C59,20.8039292 59,20.0206978 58.7,19.0416584 C58.5,18.6500426 58.3,18.160523 57.9,17.7689072 C57.6,17.4751954 57.1,17.2793875 56.6,17.1814836 L56.7,17.1814836 L57.4,12.8737104 C57.9,6.11833881 53.1,4.45397189 53.1,4.45397189 C53,2.20218136 51,0.831526248 51,0.831526248 C47.1,-1.42026429 39.1,1.61475774 39.1,1.61475774 C32.9,3.08331678 31.5,7.29318604 31.5,7.29318604 C31.3,7.78270572 31.1,8.37012934 31,8.95755296 C33.2,9.05545689 35.5,9.74078445 37.8,11.1114396 C39.1,11.0135356 40.4,10.9156317 40.4,10.9156317 Z" id="Shape" stroke="#FFFFFF" fill="#FFFFFF" fill-rule="nonzero"></path>
                            <path d="M55.4089193,36 L47,49.8 C47.2967854,49.9 47.3957138,49.9 47.3957138,49.9 C50.6603531,51.3 52.0453516,53.1 52.0453516,53.1 C53.1335647,54.1 53.628207,57.1 53.8260639,60 C57.6842739,59.1 61.7403409,57.7 65.9942648,55.8 L65.9942648,46.8 C66.0931932,46.8 65.0049801,39.9 55.4089193,36 Z" id="Shape" stroke="#FFFFFF" stroke-width="2" fill-rule="nonzero"></path>
                            <path d="M43,41.2629462 C43.8205128,42.6918197 44.9487179,44.0107799 46.8974359,45 C47,44.67026 47,44.4504333 47,44.1206932 C47,42.3620797 45.6666667,41.0431195 44.1282051,41.0431195 C43.8205128,40.9332062 43.4102564,41.0431195 43,41.2629462 Z" id="Shape" fill="#FFFFFF" fill-rule="nonzero"></path>
                        </g>
                    </g>
                </g>
            </g>
        </g>
    </g>
</svg>