<?xml version="1.0" encoding="UTF-8"?>
<svg width="85px" height="104px" viewBox="0 0 85 104" version="1.1" xmlns="http://www.w3.org/2000/svg" xmlns:xlink="http://www.w3.org/1999/xlink">
    <!-- Generator: sketchtool 58 (101010) - https://sketch.com -->
    <title>1A432961-D083-4EA6-9B14-9D0B76E1B785@1x</title>
    <desc>Created with sketchtool.</desc>
    <defs>
        <path d="M0.274177541,4.46443261 C0.274177541,4.46443261 0.402146362,14.887522 2.5970143,20.5740279 L2.5970143,20.5740279 C2.5970143,20.5740279 4.18880746,25.6739618 4.37004837,31.8549716 L4.37004837,31.8549716 C4.37004837,31.8549716 3.98122003,32.9319943 4.51915231,33.8104047 L4.51915231,33.8104047 C5.05824268,34.6917103 8.46476111,35.5000564 9.0223809,32.6080189 L9.0223809,32.6080189 C9.5747893,29.7431966 9.34693531,24.4542047 8.73546438,22.27555 L8.73546438,22.27555 C8.12833629,20.1131085 8.93581376,14.2332018 8.93581376,14.2332018 L8.93581376,14.2332018 C8.93581376,14.2332018 9.83767547,14.8660974 11.0409298,19.0879104 L11.0409298,19.0879104 C12.261845,23.370523 13.1573372,25.0205101 13.5820663,26.2208693 L13.5820663,26.2208693 C13.9384682,27.2292752 14.3197689,32.6253903 14.3035557,36.557681 L14.3035557,36.557681 C14.2980548,37.8779024 15.3857897,38.876175 16.5039246,38.5530682 L16.5039246,38.5530682 C17.0444625,38.3970157 17.5407036,38.1080725 17.8053269,37.5921439 L17.8053269,37.5921439 C18.5797989,36.0805484 18.7080572,28.3775203 18.4651481,25.9623259 L18.4651481,25.9623259 C18.2242656,23.56624 17.2118064,16.0172377 17.2960573,13.7198789 L17.2960573,13.7198789 C17.3797293,11.440181 17.780428,9.60171486 17.2711584,7.35675958 L17.2711584,7.35675958 C16.7659422,5.12859658 2.96036469,0.239145353 2.96036469,0.239145353 L2.96036469,0.239145353 L0.274177541,4.46443261 Z" id="path-1"></path>
        <radialGradient cx="-152.554671%" cy="1.90031704%" fx="-152.554671%" fy="1.90031704%" r="78.5453002%" gradientTransform="translate(-1.525547,0.019003),scale(1.000000,0.476923),translate(1.525547,-0.019003)" id="radialGradient-3">
            <stop stop-color="#01C8EF" offset="0%"></stop>
            <stop stop-color="#112864" offset="100%"></stop>
        </radialGradient>
        <path d="M15.036626,0.349163796 L7.95809723,1.46498243 C7.95809723,1.46498243 5.05013606,2.14304346 4.07010335,2.3781355 L4.07010335,2.3781355 C3.90768139,2.417221 3.77536973,2.53418798 3.71196437,2.69284616 L3.71196437,2.69284616 C3.41983645,3.4270745 2.67750148,5.72038 3.16795212,9.10344712 L3.16795212,9.10344712 C3.77913352,13.3183116 3.53072346,16.1923986 3.53072346,16.1923986 L3.53072346,16.1923986 L2.03678881,23.8299948 C2.03678881,23.8299948 0.144761109,31.2987995 0.294444096,31.5060974 L0.294444096,31.5060974 C0.444416606,31.7131058 4.35383513,34.9731259 5.59733305,34.5116275 L5.59733305,34.5116275 C6.35095939,34.2322386 6.49977381,33.8428312 6.50006333,33.579945 L6.50006333,33.579945 C6.77163517,34.7200835 8.02410829,38.8602512 11.8840185,38.8136382 L11.8840185,38.8136382 C16.3582949,38.7594975 20.0143815,38.7751317 20.7405032,36.8046435 L20.7405032,36.8046435 C21.461124,34.8477628 20.3641243,26.7619863 19.5427498,23.6226969 L19.5427498,23.6226969 C18.7306399,20.5172816 16.8467189,14.4271817 16.8467189,14.4271817 L16.8467189,14.4271817 L22.9692452,7.23747642 L17.617427,3.08312211 C17.617427,3.08312211 16.3362912,0.697169503 15.8192045,0.395487351 L15.8192045,0.395487351 C15.6275408,0.283731774 15.4703302,0.248410064 15.3481519,0.248410064 L15.3481519,0.248410064 C15.1417225,0.248410064 15.036626,0.349163796 15.036626,0.349163796" id="path-4"></path>
        <path d="M3.9690601,5.67724119 C2.73135261,8.76123186 0.830639246,11.9914313 0.385933118,14.333087 L0.385933118,14.333087 C-0.062247277,16.6941407 0.0964108988,19.2399095 0.537932282,19.4199923 L0.537932282,19.4199923 C0.963529944,19.5937057 8.70882834,22.6973839 11.1503692,23.6840756 L11.1503692,23.6840756 C11.2855761,23.7385058 11.4332324,23.6478853 11.4592894,23.4955966 L11.4592894,23.4955966 L12.144878,19.4851348 L7.34459965,17.5149361 C7.34459965,17.5149361 6.44389602,16.3345541 5.59183213,15.8927432 L5.59183213,15.8927432 C5.59183213,15.8927432 6.57562863,14.0319839 6.52090893,13.5261885 L6.52090893,13.5261885 C6.46676828,13.0212618 6.67696141,7.84923687 6.15147858,5.77162543 L6.15147858,5.77162543 C5.62975954,3.70964819 6.79856074,0.135785921 6.79856074,0.135785921 L6.79856074,0.135785921 C6.79856074,0.135785921 6.15350524,0.234223475 3.9690601,5.67724119" id="path-6"></path>
        <path d="M15.0099899,3.99366949 C13.0038905,7.38194801 11.5371709,11.3541929 11.5371709,11.3541929 L11.5371709,11.3541929 L11.4688437,11.8043999 C11.2913665,12.9844925 10.1034569,13.6631325 9.06580924,13.1735505 L9.06580924,13.1735505 C6.87557365,12.1405352 3.64711139,10.5855114 3.04837944,10.1205387 L3.04837944,10.1205387 C3.04837944,10.1205387 1.10597488,11.2453325 0.547196993,13.9208073 L0.547196993,13.9208073 C0.0975689877,16.0725365 0.204981731,16.079485 0.204981731,16.079485 L0.204981731,16.079485 C0.204981731,16.079485 8.90888819,20.4260821 12.2902182,20.3832328 L12.2902182,20.3832328 C15.6715482,20.3403835 19.7028556,8.66974284 20.1119504,6.31650625 L20.1119504,6.31650625 C20.516992,3.98295716 20.9475116,0.937762467 19.4949786,0.288943174 L19.4949786,0.288943174 C19.4949786,0.288943174 16.9917695,0.646213592 15.0099899,3.99366949" id="path-8"></path>
        <path d="M0.240013919,4.57618819 C0.240013919,4.57618819 -0.556751227,7.07505446 1.49654035,6.36138219 L1.49654035,6.36138219 C3.544331,5.6500261 5.39061419,4.46385357 6.03277447,4.91492919 L6.03277447,4.91492919 C6.52235654,5.25888158 6.50469569,6.31621672 6.46821589,6.80261405 L6.46821589,6.80261405 C6.45576643,6.96851028 6.49948429,7.1329589 6.59328949,7.27048196 L6.59328949,7.27048196 L7.20620802,8.16684275 C7.27569336,8.26817552 7.31709503,8.38659011 7.32607022,8.50963705 L7.32607022,8.50963705 L7.37355187,9.13558409 C7.38542228,9.29308418 7.5107854,9.4184473 7.66596931,9.42771201 L7.66596931,9.42771201 L7.80696663,9.43552911 C7.96388767,9.44508334 8.10170025,9.33332777 8.12775725,9.17582768 L8.12775725,9.17582768 L8.27917737,8.25630511 C8.27917737,8.25630511 8.75196715,7.02467759 9.77658628,7.50789018 L9.77658628,7.50789018 C9.77658628,7.50789018 10.4482778,6.57997147 10.1995782,4.60716707 L10.1995782,4.60716707 C9.95232627,2.64825973 9.06320354,0.626526081 5.26351394,0.304577374 L5.26351394,0.304577374 C5.13525559,0.29357553 5.00960295,0.28836413 4.88713505,0.28836413 L4.88713505,0.28836413 C1.38681143,0.28836413 0.240013919,4.57618819 0.240013919,4.57618819" id="path-10"></path>
        <path d="M0.685878136,0.413437728 C0.821374535,0.889701778 0.712224658,1.96643491 0.815873612,2.39492779 L0.815873612,2.39492779 C0.821085012,2.41548387 0.830060201,2.43314473 0.839614434,2.45080558 L0.839614434,2.45080558 C0.785763302,2.67721196 0.621893726,3.32979504 0.445864217,3.63205623 L0.445864217,3.63205623 C0.230459686,4.00148659 0.00955423322,4.41637192 0.00955423322,4.41637192 L0.00955423322,4.41637192 L0.0191084664,9.72707798 C0.0191084664,9.72707798 1.90129241,5.69142778 2.30575495,4.88163413 L2.30575495,4.88163413 C2.30575495,4.88163413 2.24206006,2.96412848 2.06603055,2.60309427 L2.06603055,2.60309427 C2.32370533,1.74929325 3.24554407,1.31095661 3.24554407,1.31095661 L3.24554407,1.31095661 L2.19399937,0.299655496 C2.19399937,0.299655496 1.59555695,0.167922887 1.1505613,0.167922887 L1.1505613,0.167922887 C0.858143856,0.167922887 0.632027004,0.224958764 0.685878136,0.413437728" id="path-12"></path>
        <polygon id="path-14" points="0.108356072 0.232995646 8.12720531 0.232995646 8.12720531 9.5914528 0.108356072 9.5914528"></polygon>
        <path d="M0.0997000801,3.63296828 C0.112357018,5.61483647 2.15149988,14.44555 2.71355902,16.3145131 L2.71355902,16.3145131 C2.99691794,17.2552976 3.44004306,19.3086906 3.92400036,20.3149711 L3.92400036,20.3149711 C4.5164781,21.5456915 4.90780938,22.9049374 5.06401304,24.3294051 L5.06401304,24.3294051 C5.26488546,26.1597284 5.49508033,28.4455086 5.39231476,29.4865923 L5.39231476,29.4865923 C5.23556302,31.0724705 5.92696975,31.5819136 5.92696975,31.5819136 L5.92696975,31.5819136 C7.71755696,33.6199603 9.9222209,31.0831581 10.0512944,30.408742 L10.0512944,30.408742 C10.1167904,30.065916 10.074862,29.6422479 10.0181354,29.3092874 L10.0181354,29.3092874 C9.95072122,28.9138455 9.91262945,28.514293 9.91728815,28.1128222 L9.91728815,28.1128222 C9.94852888,25.543135 9.52897133,19.8913029 9.52897133,19.8913029 L9.52897133,19.8913029 C10.3987791,22.5404622 11.5829124,24.8462474 12.1641545,25.9076102 L12.1641545,25.9076102 C12.3968157,26.3321005 12.5297259,26.817702 12.5494568,27.3227605 L12.5494568,27.3227605 C12.5757648,27.9903256 12.6182413,29.18131 12.6799006,31.2626553 L12.6799006,31.2626553 C12.8023972,35.38698 12.0115134,36.9898488 12.0115134,36.9898488 L12.0115134,36.9898488 C13.9224048,39.4907516 16.3923409,36.6968984 16.3923409,36.6968984 L16.3923409,36.6968984 C16.3923409,36.6968984 17.0908727,35.076765 17.6647156,31.1190575 L17.6647156,31.1190575 C18.2273229,27.2364374 16.3517828,21.542403 16.0558179,18.4862921 L16.0558179,18.4862921 C15.7647859,15.4770423 16.5792372,7.0127222 16.5792372,7.0127222 L16.5792372,7.0127222 L14.2805771,6.58055874 C14.2805771,6.58055874 7.49229484,3.58117443 7.59862295,3.28219515 L7.59862295,3.28219515 C7.70495105,2.98376394 2.41430569,0.263627931 2.41430569,0.263627931 L2.41430569,0.263627931 C2.41430569,0.263627931 0.0871451997,1.67137916 0.0997000801,3.63296828" id="path-16"></path>
        <path d="M5.27447691,0.469433104 C4.54771883,0.862134586 3.62091045,1.9007519 3.07584189,4.40110663 L3.07584189,4.40110663 C2.52310017,6.93681271 0.243622901,13.5960214 0.0534380942,14.8434583 L0.0534380942,14.8434583 C0.0183607811,15.0742013 0.000548083017,15.5625432 0,16.2259977 L0,16.2259977 L0,16.3046476 C0.00274041509,19.1078182 0.296512912,24.8522763 0.844595929,27.649692 L0.844595929,27.649692 C0.898034023,27.9229114 1.15234454,28.0799372 1.3956934,27.9933401 L1.3956934,27.9933401 C2.03421012,27.7656116 3.20683373,27.3033036 3.87302864,26.7681005 L3.87302864,26.7681005 C4.8168276,26.0092796 4.70008591,20.1014927 4.70008591,20.1014927 L4.70008591,20.1014927 L4.13912294,12.6524964 L5.20295208,6.65866057 C5.20295208,6.65866057 6.67263669,1.99420006 6.46683152,1.69330248 L6.46683152,1.69330248 C6.26102635,1.39295299 6.3174789,0.0967366525 6.3174789,0.0967366525 L6.3174789,0.0967366525 C6.3174789,0.0967366525 6.31501252,0.0967366525 6.30953169,0.0967366525 L6.30953169,0.0967366525 C6.25527147,0.0967366525 5.93272462,0.113179143 5.27447691,0.469433104" id="path-18"></path>
        <path d="M5.06812366,0.297060995 L3.57706381,0.371052203 C3.57706381,0.371052203 2.59572117,0.79389825 1.70810072,1.89636724 L1.70810072,1.89636724 C0.637420549,3.22601664 0.909817808,6.49204334 0.669209364,8.55776823 L0.669209364,8.55776823 C0.42503838,10.6473347 0.496837255,18.5194511 0.484505387,19.3917252 L0.484505387,19.3917252 C0.483957304,19.4594135 0.48505347,19.5454625 0.48861601,19.6460357 L0.48861601,19.6460357 C0.579871832,22.3795998 0.466692689,25.1619432 0.210189837,27.9744312 L0.210189837,27.9744312 C0.0887894488,29.3040806 0.104409815,30.5682341 0.499303629,30.9817627 L0.499303629,30.9817627 C1.37431817,31.8965133 2.84318065,27.3529051 3.00075452,26.8549717 L3.00075452,26.8549717 C2.99116307,26.9832231 3.00870172,27.4658102 3.22272814,29.2484502 L3.22272814,29.2484502 C3.53595758,31.8581475 3.81164334,34.2771119 7.14809871,36.0553672 L7.14809871,36.0553672 C10.5152467,37.8506132 13.4146059,35.9684961 13.7667492,35.2228291 L13.7667492,35.2228291 C14.1177964,34.4799026 15.4921146,32.1760356 15.6231064,30.2034849 L15.6231064,30.2034849 C15.7530021,28.2512132 14.6225809,20.3777266 14.6225809,20.3777266 L14.6225809,20.3777266 C14.6225809,20.3777266 17.8247559,14.8377034 19.1363185,12.1589477 L19.1363185,12.1589477 C20.4292464,9.5188318 19.3939176,7.54491081 19.3939176,7.54491081 L19.3939176,7.54491081 C18.2127987,5.3668289 15.5466488,2.5543409 15.5466488,2.5543409 L15.5466488,2.5543409 C15.5466488,2.5543409 15.2778141,1.83032324 14.5104979,0.697983722 L14.5104979,0.697983722 C14.1769894,0.206079214 12.3299496,0.0676882526 10.3565767,0.0676882526 L10.3565767,0.0676882526 C7.81675999,0.0676882526 5.06812366,0.297060995 5.06812366,0.297060995" id="path-20"></path>
        <path d="M1.3633565,0.194843513 C1.3633565,0.194843513 1.03313649,0.578501624 1.18084486,0.863230752 L1.18084486,0.863230752 C1.32882727,1.14823392 0.756354564,2.79220893 0.606453858,3.0983133 L0.606453858,3.0983133 C0.45600507,3.40496574 0.134006298,4.63184958 0.134006298,4.63184958 L0.134006298,4.63184958 C0.134006298,4.63184958 1.04492027,8.48213277 1.26661985,7.56491584 L1.26661985,7.56491584 C1.48722327,6.65235762 2.52748483,4.76558183 2.52748483,4.76558183 L2.52748483,4.76558183 C2.69410207,3.76807074 2.41074315,2.12025915 2.41074315,2.12025915 L2.41074315,2.12025915 C2.41074315,2.12025915 2.47075824,1.88129496 2.95855213,1.49708876 L2.95855213,1.49708876 C3.4449758,1.11343065 3.61104496,0.889538737 3.48087524,0.717714711 L3.48087524,0.717714711 C3.35097957,0.546164726 2.48720073,0.109342562 2.17506745,0.0358994376 L2.17506745,0.0358994376 C2.13231698,0.0260339433 2.086278,0.0216492792 2.03859478,0.0216492792 L2.03859478,0.0216492792 C1.73577891,0.0216492792 1.3633565,0.194843513 1.3633565,0.194843513" id="path-22"></path>
        <path d="M4.2761437,0.175934648 C2.44198388,0.189636724 0.75936902,1.27292281 0.109616603,3.56802044 L0.109616603,3.56802044 C0.109616603,3.56802044 -0.137020754,4.46194384 1.05067514,4.8875303 L1.05067514,4.8875303 C2.2413855,5.31393889 3.76807074,5.78720858 4.46358809,5.77131417 L4.46358809,5.77131417 C5.15910544,5.75541976 5.51179686,6.14866933 5.52495085,7.07465558 L5.52495085,7.07465558 C5.53262402,7.59752678 5.59702377,7.80771662 5.65238015,7.89157332 L5.65238015,7.89157332 C5.7074625,7.97543002 5.72774157,8.07764751 5.72390499,8.17849478 L5.72390499,8.17849478 L5.71705395,8.35662176 C5.71294333,8.46952686 5.79515578,8.5925715 5.90120984,8.62573052 L5.90120984,8.62573052 C6.0705675,8.67889457 6.25883401,8.62984114 6.26349272,8.59010513 L6.26349272,8.59010513 C6.26376676,8.589283 6.26376676,8.58846088 6.26376676,8.58763875 L6.26376676,8.58763875 C6.33501755,8.01461796 6.64441042,7.50161225 7.11576181,7.19057514 L7.11576181,7.19057514 C7.63205601,6.84939346 8.23494733,6.67702136 8.31688574,7.651787 L8.31688574,7.651787 C8.31688574,7.651787 10.3828847,2.85003169 6.99792396,0.920779469 L6.99792396,0.920779469 C6.1478472,0.436274082 5.2314524,0.182785686 4.34794257,0.175934648 L4.34794257,0.175934648 L4.2761437,0.175934648 Z" id="path-24"></path>
    </defs>
    <g id="Home-screen" stroke="none" stroke-width="1" fill="none" fill-rule="evenodd">
        <g id="DG_Home_Sep-2019_v2" transform="translate(-674.000000, -1058.000000)">
            <g id="Advance-Search-panel" transform="translate(0.000000, 916.000000)">
                <g id="2" transform="translate(560.000000, 114.000000)">
                    <g id="ic_executive" transform="translate(114.000000, 28.000000)">
                        <path d="M66.880907,99.2431297 C52.7703224,105.416558 29.8926228,105.416088 15.7820382,99.2431297 C1.67145354,93.069701 1.67083264,83.060287 15.7807964,76.8868583 C29.891381,70.7139001 52.7690806,70.7139001 66.8796652,76.8873288 C80.9908707,83.0607575 80.9914916,93.0701715 66.880907,99.2431297" id="Fill-1" fill="#EAEAEA"></path>
                        <path d="M66.5099727,83.5296205 C51.5259565,89.7030492 27.2321493,89.7025787 12.248133,83.5296205 C-2.73588323,77.3561919 -2.73654256,67.3467778 12.2468143,61.1733491 C27.2308306,55.000391 51.5246378,55.000391 66.508654,61.1738196 C81.4933296,67.3472483 81.4939889,77.3566624 66.5099727,83.5296205" id="Fill-1-Copy-3" fill="#EAEAEA"></path>
                        <g id="woman" transform="translate(67.315534, 43.529126) scale(-1, 1) translate(-67.315534, -43.529126) translate(49.815534, 3.029126)">
                            <path d="M33.3600021,58.4744737 C32.6014757,57.7956175 31.7394888,57.0736066 30.8802681,56.8390222 C29.6979407,56.5159154 27.9728602,56.9994691 26.797172,57.2921463 C23.8388637,58.0285421 21.1073941,59.4543062 18.4246118,60.8612592 C14.7249283,62.802113 10.9090592,64.7999532 7.76098098,67.5900689 C6.82430323,68.4205197 4.92494427,70.4167001 6.27712409,71.681464 C6.51613459,71.9049831 6.82596303,72.0366602 7.09153026,72.2280899 C7.88823195,72.8051454 8.18699508,73.864648 8.19640059,74.8489065 C8.20525283,75.8326118 7.97952068,76.805805 7.96956191,77.7895103 C7.9618162,78.5413975 8.11617715,79.3602298 8.68438037,79.8526357 C9.22989972,80.3240176 10.0448592,80.3760245 10.7331209,80.1596978 C11.4213826,79.9433712 12.0117165,79.4979928 12.5777066,79.0504014 C14.1406804,77.8149605 15.7528948,76.2885022 15.9144482,74.3022806 C15.9371321,74.023435 15.9327059,73.7302045 16.0649363,73.4840016 C16.1883144,73.2532901 16.4134933,73.0978226 16.6303732,72.9512073 C20.0976853,70.6214082 23.6944615,68.4841452 27.3980178,66.5510371 C29.2995898,65.5590329 30.794512,64.2278771 32.5489155,62.9990754 C33.0833696,62.624515 33.6211432,62.2471882 34.0892055,61.7924043 C34.6208932,61.2756547 35.0773369,60.4866988 34.7431648,59.8249937 C34.6208932,59.5837702 34.409546,59.4011927 34.2031781,59.2252544 C33.9425902,59.0039484 33.6593185,58.742254 33.3600021,58.4744737" id="Fill-1" fill="#EAEAEA"></path>
                            <path d="M2.40283016,40.7538364 C2.49356563,40.5944961 2.65622556,40.4058327 2.68997473,40.2243618 C2.736449,39.9687533 2.62136986,39.6013853 2.60311212,39.3380311 C2.56161724,38.7299928 2.59425987,38.1335731 2.6097513,37.5266413 C2.61639048,37.2749057 2.66784413,37.1421221 2.42828036,37.0464072 C2.19590903,36.9534587 1.92148956,37.0508334 1.6658811,36.9108573 C1.54139646,36.8428057 0.947189786,36.469905 0.955488762,36.3155441 C0.918420003,37.018744 0.876925123,37.7485006 0.7585264,38.442295 C0.648979918,39.0857423 0.321447001,39.7042926 0.147168506,40.3427605 C-0.0879691448,41.2075138 -0.0780103737,42.8457316 0.45035776,43.620856 C0.824918207,44.1713547 1.43959569,44.5929427 2.11734539,44.6266918 C2.17433169,44.4601591 2.18761005,44.2786881 2.15496742,44.1060694 C2.37959303,44.1995712 2.61307089,44.2714957 2.85152813,44.3218428 C2.99371725,44.109389 3.00588908,43.8172651 2.88251097,43.5931927 C3.05512967,43.5777013 3.15195106,43.3658008 3.11266924,43.1970549 C3.07338742,43.0277558 2.94392339,42.8977385 2.81943876,42.7765735 C2.95941482,42.7123947 2.92455912,42.4883224 2.8045006,42.3926075 C2.48747972,42.1408719 2.26894002,42.2758686 2.18041761,41.8078064 C2.09742785,41.3723868 2.22025269,41.0763899 2.40283016,40.7538364" id="Fill-3" fill="#F2BC9E"></path>
                            <path d="M1.7806836,38.9454342 C1.53005453,38.8458465 1.22409895,38.919984 1.03875515,39.1152866 C0.685772044,39.4865275 1.00334619,40.2135178 1.09463492,40.6500439 C1.20473467,41.176199 1.30764197,41.7322303 1.27610587,42.253406 C1.25397526,42.6196675 1.20860753,43.0335098 1.45149089,43.3079292 C1.52286208,43.3887059 1.62189653,43.4523314 1.72978322,43.4534457 C1.96049475,43.4550978 2.09493816,43.1906371 2.12481447,42.9621386 C2.19784546,42.4061072 1.98317861,41.8467562 2.02412023,41.2874052 C2.05565634,40.8608379 2.23380769,40.4564011 2.27862216,40.0309403 C2.32398989,39.6049262 2.17903445,39.1025615 1.7806836,38.9454342" id="Fill-5" fill="#FFCEB3"></path>
                            <path d="M6.29753957,13.4639266 C6.15756351,13.4484352 6.02367336,13.4462221 5.89586913,13.4561809 C3.67893603,13.6348855 3.26564703,17.5420434 2.92704881,19.2079245 C2.61445405,20.7426817 2.57074611,22.3161676 2.29577337,23.8564575 C2.16796914,24.571276 1.87307887,25.1964655 1.74250831,25.9173699 C1.59755287,26.7179444 1.47583455,27.5234983 1.41442213,28.3351382 C1.34249767,29.2828812 1.2738928,30.221772 1.20473467,31.1711749 C1.15494082,31.8627562 1.10514696,32.5537843 1.05535311,33.2453656 C1.00500598,33.949672 0.954658864,34.6545317 0.903758479,35.3588381 C0.844005852,36.1942684 0.78369996,37.0335715 0.850645033,37.8678952 C0.857284213,37.9503317 0.868349515,38.0388541 0.925889081,38.0975002 C0.986748238,38.1594659 1.08190983,38.1688714 1.16877244,38.1738508 C1.44263865,38.1893422 1.71705812,38.1959814 1.99147759,38.1921085 C2.27419604,38.1887889 2.57849182,38.1666583 2.79703152,37.9879537 C3.06204548,37.7705205 3.11847852,37.3948536 3.16107993,37.0545956 C3.51019018,34.2456688 4.15695704,31.4738109 5.08644235,28.7998808 C5.21369331,28.4330661 5.33928448,28.0214369 5.2629339,27.6573885 C5.61702354,26.0147445 5.24467615,24.2620008 5.29336348,22.5596042 C5.33983774,20.9130874 5.76751164,19.3041926 6.00320255,17.6798064 C6.22118899,16.1810113 6.68316531,15.0374124 6.29753957,13.4639266" id="Fill-7" fill="#B3D3FF"></path>
                            <path d="M14.9609512,65.5080771 C14.7850129,65.0859359 14.6920644,64.6294922 14.689298,64.1724953 C14.541023,64.4275505 14.2295348,64.5315643 13.9418369,64.5962963 C13.4107025,64.7135885 12.8646299,64.7650422 12.3213236,64.7484442 L11.942337,64.8397329 C11.758653,65.6486065 11.1146525,66.2804352 10.408133,66.7153015 C9.24240351,67.4328863 8.01415507,67.9219726 6.99061471,68.8680559 C6.80139806,69.0439941 6.60941508,69.2464892 6.57400612,69.5020976 C6.53195797,69.8063934 6.73279319,70.1029435 6.99338103,70.2661567 C7.79008272,70.7652018 9.11072643,70.5228717 9.90742812,70.1682288 C11.2773124,69.5574241 12.2842548,68.1930725 13.7542801,67.8937561 C14.0746206,67.8284708 14.4126655,67.8157457 14.7053427,67.670237 C15.1020338,67.4738279 15.3615151,67.0290028 15.3377247,66.5863907 C15.3172539,66.2040846 15.108673,65.8616135 14.9609512,65.5080771" id="Fill-9" fill="#212121"></path>
                            <path d="M14.4835941,64.5868908 C14.4548243,64.4175917 14.4160958,64.2444197 14.3154015,64.1055502 C14.2147073,63.9666807 14.0360027,63.8709658 13.8705764,63.9157803 C13.7571571,63.9467631 13.6697412,64.0347323 13.5884112,64.1193818 C13.2708371,64.4496811 12.9527097,64.7799803 12.6556063,65.1285373 C12.4392797,65.382486 12.2810459,65.7343625 12.0392691,65.9529022 C11.4190589,66.5122532 10.5000856,66.9100508 9.74266578,67.2425631 C9.34320841,67.4173949 8.99465142,67.5844809 8.70308073,67.9147802 C8.60736587,68.0237734 8.51109775,68.1543439 8.52658917,68.2987461 C8.5514861,68.5261381 8.82756537,68.6307051 9.0566171,68.6301541 C9.61928767,68.6295986 10.1244187,68.3098114 10.6057593,68.0176875 C11.6298529,67.3974773 12.7026339,66.8574906 13.8108238,66.4038133 C14.1167794,66.2787754 14.4404394,66.190253 14.4985323,65.8079468 C14.5599447,65.4101492 14.5510924,64.9835819 14.4835941,64.5868908" id="Fill-11" fill="#F2BC9E"></path>
                            <path d="M15.1041362,55.9091496 C14.6211358,51.9217683 13.6053411,48.0195898 12.5569038,44.1423083 C12.1485942,42.6318947 11.7308791,41.0882851 11.8337864,39.5269711 C11.891326,38.6539189 12.1109722,37.796358 12.1497008,36.9221992 C12.1884293,36.0474872 12.0163639,35.1091496 11.4099854,34.4784275 C10.9806517,34.030836 10.386445,33.7890592 9.81049608,33.5594542 C8.37200692,32.9857183 6.93351776,32.4125357 5.49502859,31.8387998 L4.52958106,32.0125251 C4.0792233,34.0728842 3.7450512,36.1802708 3.86732278,38.2859976 C4.16663918,43.4523868 7.13379971,48.0406139 8.62429578,52.9962091 C9.32362282,55.3215821 9.69763,57.7332645 10.3576752,60.0702562 C10.9867376,62.2954882 11.8708552,64.4393903 12.7533129,66.5772065 C13.3442,64.0360601 14.8861498,61.7532885 15.1965315,59.1634547 C15.3265487,58.0834813 15.2347067,56.989123 15.1041362,55.9091496" id="Fill-13" fill="#F2BC9E"></path>
                            <path d="M14.4185301,70.3734901 C14.0323511,69.6752696 14.2055231,68.8824408 14.1275127,68.1222546 C14.0887841,67.7471408 14.0760591,67.0893087 13.8569661,66.770628 C13.5283266,66.2942668 12.0942636,66.7208342 11.6013044,66.816549 C11.0331012,66.9266488 11.1769501,67.1175252 11.2621529,67.6647043 C11.3324176,68.110636 11.4015757,68.5521415 11.4502631,69.0008395 C11.7036585,72.4886224 8.90579705,75.6953467 9.29086953,79.1715111 C9.30304136,79.2793978 9.31908605,79.3900508 9.37717888,79.4818928 C9.44357069,79.5864599 9.55754329,79.653405 9.67538875,79.6943466 C10.4831557,79.9687661 11.5371257,79.2550541 12.1125213,78.7521362 C12.6857039,78.2503248 13.1747903,77.5880665 13.4237595,76.862736 C13.5327528,76.5435021 13.4774263,76.2613369 13.4918111,75.9288246 C13.5128352,75.4314393 13.522794,74.9323942 13.5543301,74.4355622 C13.577014,74.0903248 13.587526,73.7041458 13.6926464,73.3716335 C13.8044059,73.0208634 14.0766123,72.7409113 14.2979183,72.4454677 C14.5585062,72.0963575 14.8323724,71.7051991 14.7986232,71.270886 C14.7737263,70.9439064 14.578977,70.6622945 14.4185301,70.3734901" id="Fill-15" fill="#212121"></path>
                            <path d="M19.052125,35.3940811 C19.0299944,35.3498199 19.0050975,35.3160708 18.9757744,35.297813 C18.8186472,35.1998851 18.1989903,35.4488544 18.014753,35.492009 C17.6695156,35.5722325 17.3242782,35.6535624 16.9795941,35.7348924 C16.3062705,35.8942327 15.6335002,36.0568927 14.9612831,36.2217657 C13.9427222,36.4712882 12.7703535,37.2939934 11.7932874,37.7083889 C11.1520532,37.9805953 11.0170565,38.8060668 10.896998,39.4921154 C10.6723724,40.7767969 10.1915851,41.9995127 9.77331666,43.2355068 C9.15974571,45.0491097 8.67729858,46.9080803 8.33095465,48.7913946 C8.07368639,50.1906019 7.68584759,51.5527405 7.43743157,52.9541609 C6.80892246,54.1934747 7.18071658,55.6989089 7.57353478,57.0411299 C7.85459343,58.0021513 8.13565208,58.9631728 8.41671073,59.9241942 C8.66568001,60.773456 8.90635031,61.6260375 9.16859795,62.4714265 C9.38547786,63.1724134 9.72462934,63.8014757 9.93763639,64.5174007 C10.2972587,65.7257316 11.8419747,71.3446916 13.8807565,68.6569299 C14.2785541,68.1324346 14.1380247,67.079018 14.2436984,66.4145466 C14.5181178,64.6966586 15.029888,62.9776641 14.8561628,61.2216007 C14.7936438,60.5925384 14.643709,59.9767544 14.4910078,59.3631834 C14.4860285,59.3410528 14.4804958,59.3194755 14.4749632,59.2973449 C14.2940455,58.5703546 14.1125745,57.842811 13.9316569,57.116374 C13.8414747,56.7523256 13.7557186,56.3871706 13.6600037,56.0253353 C13.6035707,55.8128815 13.570928,55.7022285 13.5133885,55.6463487 C14.2038633,54.4230797 14.6697125,53.0830717 15.1975273,51.7779194 C16.2946519,49.0652608 17.7231823,46.4914717 18.7240388,43.7411911 C19.2490874,42.2982758 19.0880872,40.7419412 19.1494997,39.2293145 C19.1771629,38.5521181 19.2529602,37.877688 19.2607059,37.2004916 C19.2640255,36.8663195 19.252407,36.5321474 19.2070392,36.2007416 C19.1871217,36.0519133 19.1561388,35.6043219 19.052125,35.3940811" id="Fill-17" fill="#FFCEB3"></path>
                            <path d="M17.2853284,35.5388706 C13.487717,35.6854858 9.67516744,35.0188014 5.91683788,34.3537768 C5.52346642,34.2840654 5.10132518,34.1999691 4.82579918,33.909505 C4.59564091,33.6660684 4.41859609,33.2627381 4.08497726,33.2981471 C3.79893922,34.377014 3.60253012,35.4802245 3.49851629,36.5911807 C3.35688044,38.1093401 3.38896981,39.6474169 3.67002846,41.1456587 C3.84098737,42.0585461 4.103235,42.9520692 4.36492938,43.8439324 C5.25126001,46.8619934 5.87755606,50.0100716 7.1721963,52.883177 C7.66515547,53.9775353 8.38329352,54.1993946 9.43505041,54.5595702 C10.4740822,54.9153196 11.632066,54.876591 12.6710978,54.5208416 C13.5319782,54.2248448 14.3192744,53.718054 14.9699141,53.0840122 C16.1876505,51.8961521 16.794029,49.6006554 17.4031738,48.0553861 C18.0228307,46.4830068 18.7487145,44.8464487 19.1691959,43.2098907 C19.5902306,41.570013 19.7484644,39.6966575 19.7064163,38.0086458 C19.695351,37.5710132 19.6638149,37.1333805 19.6051688,36.6996207 C19.5636739,36.3925586 19.5620141,35.8332076 19.3705844,35.5759394 C19.0723745,35.1748222 17.7550504,35.5206128 17.2853284,35.5388706" id="Fill-19" fill="#212121"></path>
                            <path d="M19.3430318,21.3398207 C19.8426301,19.4930219 20.3571666,17.612474 21.3967517,16.0063455 C20.3671254,15.2865477 19.3264338,14.581688 18.2752302,13.8939795 C17.7468621,13.5476356 17.2765868,13.3656114 16.705064,13.1127693 C16.1296683,12.8582673 15.5957675,12.5074973 14.9982413,12.3094284 C14.5080484,12.1467685 14.052158,11.9315483 13.5674978,11.7733145 C12.939542,11.5686065 12.3624865,11.7047097 11.7312111,11.8148094 C10.203093,12.0825897 8.71093709,12.517456 7.24367815,13.0148413 C6.50838888,13.2638106 5.77863226,13.5304844 5.05053544,13.7993712 C4.38053145,14.0466807 4.21953132,14.3426775 4.09338689,15.0536231 C3.93294002,15.9571049 3.88480596,16.8810576 3.94787818,17.7978178 C3.99933183,18.5480452 4.31082006,19.3735167 4.18744195,20.1209778 C4.1564591,20.3101944 4.06295731,20.4817066 3.97941428,20.6548786 C3.12683282,22.4231137 3.38410108,24.3302184 4.30971353,26.0038452 C4.60128421,26.5311068 4.9609065,27.0284921 5.1462503,27.6016747 C5.43118181,28.4857923 5.27073494,29.4479202 5.04832238,30.3497423 C4.8469339,31.1669147 4.59630483,31.9713621 4.29864822,32.7586583 C4.13156218,33.2012704 3.98273387,33.3722293 4.15147972,33.8043293 C4.54319138,34.8079521 5.33104083,35.3418529 6.20132677,35.9343998 C6.96427929,36.4539157 7.73719058,36.9690055 8.57926001,37.3490986 C11.6775444,38.7471994 15.3207948,38.153546 18.5098146,36.9756446 C19.0276707,36.7842149 19.6180045,36.4826855 19.6849496,35.9355063 C19.7164857,35.6787913 19.6196643,35.4253959 19.5283756,35.1830658 C18.7405261,33.0889576 18.201646,30.7818423 18.1347009,28.5389057 C18.0627764,26.0979003 18.7056704,23.6978364 19.3430318,21.3398207" id="Fill-21" fill="#80B6FF"></path>
                            <path d="M9.18408937,15.1831424 C9.21341242,14.3858875 9.32959808,13.6030174 9.05739167,12.836192 C8.90579705,12.4090714 8.71160101,11.9913563 8.64742226,11.5426583 C6.92621466,11.9675659 5.63600053,13.3418763 5.1076324,15.0066509 C5.46946775,14.9352797 5.85232717,15.0348674 6.16492193,15.2307232 C6.47751669,15.4265791 6.7259327,15.7120638 6.92732119,16.021339 C5.95855406,16.1541226 5.10209975,16.8982641 4.83376619,17.8377082 C5.74278069,17.8548594 6.6025546,18.3079835 7.26259981,18.9337263 C7.92209177,19.5589158 8.40287911,20.3473185 8.82944647,21.1495529 C9.15974571,21.7703163 9.46680782,22.4237223 9.52932677,23.1241559 C9.61231653,22.4718564 9.69530629,21.8201101 9.77884932,21.1678106 C9.80706583,20.9448448 9.83583562,20.7191126 9.81038542,20.4955936 C9.77884932,20.216748 9.66542998,19.9550536 9.57192818,19.6900396 C9.06513739,18.2598494 9.12876287,16.699642 9.18408937,15.1831424" id="Fill-23" fill="#FFFFFF"></path>
                            <path d="M16.3803527,15.921198 C17.0265663,15.2871563 17.9018316,14.889912 18.8053135,14.8218604 C18.706279,14.8290528 18.2304711,13.9864301 18.155227,13.8851826 C17.91511,13.5642889 17.6467764,13.2633127 17.3419274,13.0027248 C16.9673669,12.6818311 16.5341604,12.4217965 16.0622253,12.2718617 C15.9360809,12.2320266 14.7908222,11.8270366 14.7648187,11.9017274 C14.7283032,12.0068477 14.7476675,12.1213736 14.7537534,12.2314733 C14.7852895,12.8594292 14.2989695,13.3380035 13.9083644,13.7662306 C13.4004671,14.3239218 12.9229993,14.9076164 12.4455316,15.4913111 C11.8037441,16.2758409 11.156424,17.0681165 10.7027466,17.9749179 C10.221406,18.9381524 9.97464982,19.9987615 9.73231972,21.0483054 C9.57408592,21.7315877 9.41529884,22.423169 9.42747067,23.1247091 C10.1312238,21.3642197 11.7362458,20.1553355 13.2676835,19.0388467 C13.8425259,18.6194717 14.4234542,18.1967772 15.0779668,17.9168251 C15.6151871,17.6872201 16.188923,17.5594159 16.758786,17.4321649 C17.4653055,17.2750376 18.1723782,17.1179104 18.8788977,16.9607831 C18.5325538,16.0075074 17.3004325,15.4946307 16.3803527,15.921198" id="Fill-25" fill="#FFFFFF"></path>
                            <path d="M15.5780077,12.5124213 C15.3495092,12.3392494 15.0535124,12.3779779 14.8620827,12.179909 C14.7818593,12.0974725 14.7398111,11.9868195 14.7016359,11.8783796 C14.3940205,11.0119665 14.1992712,10.1057183 14.1240271,9.18951137 C13.1497274,10.4824918 11.6614443,11.2670217 10.2235084,12.0100567 L8.75514297,11.9005102 C8.74905706,11.8828057 8.74297114,11.8656545 8.73688522,11.84795 C8.76067562,12.1765894 8.78446602,12.5046756 8.80825642,12.8327618 C8.82817396,13.1033084 8.60797446,13.1625078 8.48293656,13.3627897 C8.33521479,13.601247 8.25001197,13.8994568 8.20907036,14.1749828 C8.15429711,14.5445639 8.18527996,14.9213374 8.22954116,15.2914717 C8.45914616,17.2063221 9.05224631,19.076358 9.96679346,20.7743285 C10.2694294,19.8752728 11.0141242,19.2080351 11.7289427,18.5839521 C12.9317409,17.5344083 14.2562575,16.5462769 15.3129937,15.3479048 C15.5215747,15.1116606 15.7240697,14.8643511 15.8524272,14.5761 C16.0095545,14.22533 16.1191009,13.7605873 16.0621146,13.3760681 C16.0156404,13.0623668 15.8551935,12.7647102 15.6228222,12.5494901 C15.6084373,12.5362117 15.5934991,12.5240399 15.5780077,12.5124213" id="Fill-27" fill="#F2BC9E"></path>
                            <path d="M18.6466371,6.68476978 C19.1086134,5.90245299 19.3033627,4.93589892 18.8911802,4.14417662 C18.6577024,3.69603192 18.2560319,3.35466738 17.8200591,3.09850565 C17.5118904,2.91648145 17.1721857,2.76931294 16.8142232,2.75050193 C16.0468445,2.71011358 15.200349,3.34028248 14.8849879,4.02743769 C14.2149839,5.48971725 15.4039505,7.80734459 17.091409,7.79351297 C17.3105019,7.79129991 17.5323612,7.75367788 17.7298768,7.65851629 C17.9904647,7.53292512 18.1951728,7.31549195 18.3727708,7.08754675 C18.471252,6.96029578 18.5636473,6.82529911 18.6466371,6.68476978" id="Fill-29" fill="#6B3904"></path>
                            <path d="M16.3025083,7.59627397 C16.364474,7.14093683 16.1896422,6.80178534 15.5428754,6.90967203 C15.0936242,6.98436281 14.8684453,7.3694353 14.5525309,7.65492007 C14.4474106,7.39599202 14.3716132,7.11659316 14.2864104,6.84715308 C13.9511318,5.78543743 13.7774066,4.67282139 13.7713207,3.55854555 C13.7707674,3.39643889 13.7680011,3.2188408 13.6623274,3.09546269 C13.5594201,2.97651071 13.3895678,2.94608113 13.2341003,2.92229073 C12.1463812,2.75797101 11.0586621,2.59365128 9.97094294,2.42877829 L9.7324857,1.85338263 L7.88347387,3.1856449 C7.51223301,3.98124006 7.43311611,4.78734725 7.32799574,5.65099402 C7.28871392,5.97078122 7.24998537,6.29056843 7.21125682,6.60980237 C7.07238729,7.75063492 6.95896795,8.84167363 7.46299242,9.90394255 C7.7119617,10.4278846 8.00187259,10.9341221 8.21985902,11.4730023 C8.38307222,11.8746727 8.46218912,12.4334704 8.88156404,12.6641819 C9.44368134,12.9740104 10.3167336,12.6641819 10.8849368,12.4799447 C11.6495491,12.2331885 12.3920309,11.8923772 13.0376912,11.4093768 C13.3513925,11.1742391 13.6601144,10.9053523 13.9052108,10.5977369 C14.1243038,10.3233175 14.1137917,10.0018705 14.2985823,9.74515547 C14.5176752,9.44141295 15.0089746,9.45026519 15.3160367,9.27432691 C15.6872776,9.06242639 16.2173055,8.2198037 16.3025083,7.59627397" id="Fill-31" fill="#FFCEB3"></path>
                            <path d="M17.0006182,3.02481075 C16.7250922,2.18329459 16.3433393,1.42089533 15.5848129,0.929595957 C13.8779902,-0.175827637 11.39383,-0.353425722 9.63002101,0.714375848 C8.39623993,1.46183695 7.51544195,2.76754249 7.28583695,4.19164676 L7.32677856,4.77202181 C7.31073387,4.54850273 7.80424631,4.13632026 7.96303338,4.0184748 C8.25183774,3.80380795 8.60924697,3.68208964 8.95503764,3.58803458 C9.71301077,3.38221998 10.5252039,3.37115467 11.2864966,3.56811704 C12.2049166,3.80657428 13.0414534,4.34434792 13.6456188,5.07521107 C14.6149392,6.24923953 14.0057944,7.93669797 13.485172,9.16826599 C13.2445017,9.73702248 13.0895874,10.4413289 13.4624881,10.9337348 C13.6340003,11.159467 13.9017806,11.3143812 14.0107738,11.5760755 C14.1230866,11.8444091 14.0373305,12.1487049 14.0135401,12.4397223 C13.990303,12.7296332 14.0799319,13.0848294 14.359884,13.1661593 C14.2105025,12.7572964 14.1723272,12.307492 14.2508908,11.8792648 C14.2940455,11.6435739 14.3720559,11.4139689 14.3930799,11.1755116 C14.4218497,10.8452124 14.3399665,10.5259785 14.313963,10.2001053 C14.2862998,9.85984732 14.3554579,9.53563399 14.4096779,9.19371619 C14.4627913,8.86231041 14.5159048,8.52813832 14.6215784,8.20945764 C14.7134204,7.93393164 14.843991,7.671684 15.0083107,7.43322676 C15.1632249,7.20860114 15.3673797,6.99338103 15.6346067,6.94082085 C15.9018338,6.88770741 16.2249406,7.07637079 16.2183014,7.34913047 C16.7920372,6.80471765 16.8462572,6.21493709 17.0459859,5.50841761 C17.2772507,4.69069185 17.2656321,3.83423753 17.0006182,3.02481075" id="Fill-33" fill="#944F06"></path>
                            <polygon id="Fill-35" fill="#171717" points="17.3677095 65.8528166 32.223983 56.5574103 31.8339311 45.5839511 16.9782109 54.8788041"></polygon>
                            <polygon id="Fill-37" fill="#292929" points="17.3677095 65.8528166 14.4492363 64.344616 14.0597377 53.3706035 16.9782109 54.8788041"></polygon>
                            <polygon id="Fill-39" fill="#4F4F4F" points="14.0597377 53.3708248 16.9782109 54.8790254 31.8339311 45.5841724 28.9160112 44.0759718"></polygon>
                            <polygon id="Fill-41" fill="#D49B00" points="16.6653395 54.0964873 19.152266 52.5490049 19.1378811 52.1473345 16.6509546 53.6942636"></polygon>
                            <polygon id="Fill-43" fill="#FFBD07" points="16.6653395 54.0964873 15.332524 53.4104386 15.3181391 53.0082149 16.6509546 53.6942636"></polygon>
                            <polygon id="Fill-45" fill="#FFCC3D" points="15.3183604 53.0083256 16.651176 53.6943743 19.1381024 52.1468919 17.8052869 51.4608432"></polygon>
                            <polygon id="Fill-47" fill="#D49B00" points="28.1296555 47.1136736 30.616582 45.5661912 30.6021971 45.1645208 28.1152706 46.7114499"></polygon>
                            <polygon id="Fill-49" fill="#FFBD07" points="28.1296555 47.1136736 26.7973933 46.427625 26.7830084 46.0254013 28.1152706 46.7114499"></polygon>
                            <polygon id="Fill-51" fill="#FFCC3D" points="26.7829531 46.0255119 28.1152153 46.7115606 30.6021418 45.1640782 29.2698795 44.4780295"></polygon>
                            <polygon id="Fill-53" fill="#FFBD07" points="25.3649347 48.6999952 24.5676797 48.2441048 24.5046075 46.4736566 25.3018625 46.9289937"></polygon>
                            <polygon id="Fill-55" fill="#D49B00" points="20.6451964 48.9263359 20.7398048 51.5991595 21.6349876 51.0392552 21.5719154 49.268807 25.3020285 46.9290491 25.3651007 48.7000505 26.2597303 48.139593 26.165122 45.4667695"></polygon>
                            <polygon id="Fill-57" fill="#FFBD07" points="20.7399707 51.5992148 19.9427158 51.1433244 19.8475542 48.4705009 20.6453624 48.9263913"></polygon>
                            <polygon id="Fill-59" fill="#FFCC3D" points="20.6451964 48.9263359 19.8479415 48.4704455 25.367867 45.0108791 26.165122 45.4667695"></polygon>
                            <path d="M22.8044793,41.2346791 C22.7845618,41.232466 22.7624312,41.2346791 22.7386408,41.2440846 C22.7126373,41.6966554 22.6866339,42.1542056 22.5632558,42.5907317 C22.4459636,43.0078936 22.1792898,43.3415124 21.975135,43.7110935 C21.7471898,44.1227227 21.5330762,44.5260529 21.3770555,44.9719846 C21.0572683,45.8848719 20.918952,46.8492129 20.8049794,47.8063615 C20.9571273,47.7383099 21.0705466,47.6082926 21.1850725,47.4871275 C21.2990451,47.3654092 21.4274026,47.2442442 21.588956,47.2044091 C22.0536986,47.0904365 22.1206437,47.8146605 22.2335098,48.1150834 C22.279984,48.237355 22.3281181,48.3634994 22.325905,48.4946232 C22.323692,48.5991903 22.2899428,48.698778 22.2578534,48.7978125 C22.1654582,49.082744 22.0846815,49.3709951 22.0155233,49.6620125 C21.9862003,49.7853906 21.9601968,49.9220471 22.0205027,50.0332534 C22.2440218,50.4448826 22.8282697,49.8296518 22.968799,49.6188578 C22.9782045,49.7499816 23.0434898,49.9082155 23.2055965,49.890511 C23.3267615,49.8772326 23.4213699,49.7815178 23.4993802,49.6869094 C23.6033941,49.5624248 23.6980024,49.4301944 23.7832052,49.2918782 C23.7964836,49.2691943 23.8108685,49.2459572 23.8346589,49.2371049 C23.8711744,49.22272 23.9104562,49.2459572 23.9453119,49.2636617 C24.1289959,49.3549504 24.3602607,49.2791531 24.509089,49.1375172 C24.6778348,48.9765171 24.7171166,48.7386131 24.8676047,48.5748467 C24.8902886,48.7137162 25.0662269,48.7646166 25.179093,48.6888193 C25.2050964,48.671668 25.2299934,48.650644 25.2532305,48.6290666 C25.5940418,48.3114925 25.6017875,47.7100934 25.5348424,47.2879521 C25.435808,46.667742 25.3494986,46.0453188 25.2753611,45.4212358 C25.127086,44.1741764 25.0291581,42.921031 24.9815773,41.6651193 C24.5660753,41.8991504 24.1721506,41.7884974 23.7378375,41.6689922 C23.5015933,41.6037069 23.2327065,41.5185041 23.023019,41.38904 C22.9450086,41.3414592 22.8896821,41.2446379 22.8044793,41.2346791" id="Fill-61" fill="#FFCEB3"></path>
                            <path d="M25.8482671,28.066528 C25.4615348,26.2252619 24.8999707,24.4127655 24.3301077,22.6091214 C24.1314856,21.9811656 23.9334167,21.3532097 23.7353478,20.7252539 C23.5975848,20.2898343 23.460375,19.8549679 23.3231653,19.4201016 C22.9596702,18.2698635 22.5596595,17.0615327 21.6611571,16.2576385 C21.3745658,16.0009235 21.0304349,15.7895763 20.6492353,15.7414422 C19.922245,15.6501535 19.6019045,16.2061849 19.2998218,16.7566836 C18.2486182,18.673747 18.8566565,21.3249932 19.5947121,23.226012 C20.1883655,24.7530235 20.8268334,26.2617774 21.4426174,27.7799367 C21.7336348,28.4969682 22.0434632,29.2162128 22.3117968,29.9393302 C22.4628381,30.3465333 22.4490065,30.7670148 22.5270169,31.1830701 C22.7289586,32.2575108 22.779859,33.2705392 22.7970102,34.3615779 C22.8202474,35.8238574 22.8434845,37.2877968 22.7593882,38.7489698 C22.7173401,39.4870254 22.6719723,40.243892 22.5358691,40.9714356 C22.4008725,41.6917867 22.6520548,41.9092198 23.3613406,42.1803197 C23.6866605,42.3042511 24.0379838,42.3960931 24.3815614,42.3380003 C25.1306823,42.210196 25.3414763,41.2973087 25.4443836,40.667693 C25.5838064,39.8112387 25.5555898,38.9044373 25.670669,38.0269589 C25.8515866,36.6493289 25.9307036,35.2838707 26.1558824,33.9112201 C26.2327863,33.4437111 26.3163293,32.9756489 26.3412262,32.5026073 C26.3633568,32.0810193 26.3379066,31.6583248 26.3080303,31.2372901 C26.2316797,30.1689352 26.0679133,29.1133055 25.8482671,28.066528" id="Fill-63" fill="#B3D3FF"></path>
                            <g id="specks" transform="translate(6.789962, 5.897504)" fill="#262626">
                                <path d="M9.54712572,0.902897763 C9.47298821,0.975928751 9.40936272,1.06445116 9.35514275,1.15629316 C8.99662699,1.22987741 8.64032429,1.31618676 8.28900097,1.41466794 C7.6488733,1.58783991 7.01815113,1.80748614 6.40955956,2.06696745 L6.32325021,1.87000509 C6.94069402,1.60886398 7.57971516,1.38423837 8.22758855,1.20608702 C8.66245489,1.08547523 9.10396041,0.985334257 9.54712572,0.902897763" id="Fill-65"></path>
                                <path d="M3.5552651,1.64471556 C3.50491798,1.64360903 3.46231657,1.64969494 3.44184577,1.67293208 C3.40035089,1.72051287 3.42469455,1.86380852 3.46840249,1.97390827 C3.55139225,2.18193593 3.74724808,2.4010289 3.98017267,2.54709087 C4.12900097,2.64059267 4.86263045,2.69149305 5.21506029,2.71638998 C5.33954493,2.72468896 5.44577182,2.7318814 5.51714301,2.73962712 C5.60013277,2.74737283 5.68588886,2.7556718 5.75283393,2.7318814 C5.98963138,2.64778511 6.29780002,2.27211814 6.20374496,1.99991173 C6.18659374,1.95177767 6.12296826,1.91526217 6.0145283,1.89368484 L6.01397504,1.89313157 C5.84246287,1.85772261 5.16692623,1.78469162 4.86595004,1.75426204 L4.68945848,1.73655756 C4.37354413,1.70502145 4.07422773,1.6756984 3.7627395,1.66076024 C3.73341645,1.65965371 3.70132708,1.65633412 3.66813118,1.65301453 C3.63050915,1.64914168 3.59067407,1.64526882 3.5552651,1.64471556 M5.65545928,2.95982661 C5.60953828,2.95927334 5.56417054,2.95484722 5.52322893,2.95097437 C5.45296427,2.94433519 5.3495037,2.93658948 5.22723212,2.9282905 C4.60314913,2.88458256 4.07201467,2.83921483 3.88888394,2.72524222 C3.67311056,2.58969228 3.39924436,2.33685015 3.27752604,2.0320011 C3.2448834,1.95011787 3.14916855,1.67127228 3.27918584,1.52023092 C3.37379416,1.4112377 3.5331345,1.42672912 3.66259853,1.44111401 C3.69192157,1.44443361 3.71958483,1.44719993 3.74558829,1.44830646 C4.06260917,1.46324462 4.37852352,1.49478073 4.68337257,1.52465704 L4.85986412,1.54236152 C5.10164095,1.56615192 5.83527042,1.64471556 6.03001973,1.68455064 C6.22698209,1.72549226 6.3503602,1.81567446 6.39849426,1.95177767 C6.53957685,2.35787422 6.16390987,2.81985055 5.84246287,2.93326989 C5.78215698,2.95540049 5.71742497,2.96093314 5.65545928,2.95982661" id="Fill-67"></path>
                                <path d="M0.253766501,0.216738433 L0.252659971,0.217291698 C0.230529368,0.240528831 0.20563244,0.375525506 0.226656513,0.553676856 C0.261512212,0.850226929 0.409233983,1.13183885 0.535931682,1.2972651 C0.636072659,1.42728239 1.18159201,1.63365026 1.47482249,1.74375 C1.57109061,1.7802655 1.65352711,1.81124834 1.70885361,1.83448547 C1.76196706,1.85661608 1.83665784,1.88372606 1.86874722,1.87653362 C2.0369398,1.84610404 2.35008782,1.53516908 2.32242457,1.2054231 C2.28812213,1.13681823 1.90913557,0.900020784 1.74536911,0.822563676 L1.74481584,0.822563676 C1.5998604,0.753405543 1.45379842,0.688673531 1.30718318,0.627261109 L1.17771915,0.572487868 C0.932622732,0.469027301 0.700804671,0.371099385 0.456261514,0.287003096 C0.433024381,0.27870412 0.407020923,0.268192084 0.3804642,0.256573518 C0.344501971,0.241082096 0.277556899,0.212865578 0.253766501,0.216738433 M1.89032455,2.08954067 C1.78520419,2.10779841 1.68893607,2.06741006 1.61147896,2.03421416 C1.55781225,2.01208356 1.47758882,1.98165398 1.38408702,1.94624502 C0.914364985,1.7692002 0.482264971,1.5965815 0.358333598,1.4350281 C0.176309392,1.19767739 0.0424192473,0.875123857 0.00922334355,0.594065205 C-0.00405501794,0.478986072 -0.0217594999,0.197374156 0.105491464,0.0690166615 C0.225549983,-0.0515951219 0.37825114,0.0136901554 0.479498646,0.0568448302 C0.501075984,0.0668036013 0.521546791,0.0756558423 0.541464333,0.082295023 C0.792093406,0.168604373 1.03774309,0.272064939 1.27564707,0.372205915 L1.40511109,0.426979157 C1.55449266,0.489498109 1.70332096,0.555336651 1.851596,0.626154579 C1.86598089,0.633347025 2.52270652,0.959220146 2.540411,1.17222719 C2.57803303,1.62203169 2.17414953,2.03864028 1.89364414,2.0889874 C1.89253761,2.0889874 1.89087782,2.08954067 1.89032455,2.08954067" id="Fill-69"></path>
                                <path d="M3.29700097,1.83277035 C2.96614847,1.80178751 2.64027535,1.67121695 2.38024077,1.46540235 L2.51302438,1.29776304 C2.74096959,1.47812745 3.02645436,1.59265332 3.31691852,1.6197633 L3.29700097,1.83277035 Z" id="Fill-71"></path>
                            </g>
                            <path d="M11.5951632,68.3273499 C11.4645926,68.2272089 11.3273829,68.099958 11.302486,68.0258205 C11.4850634,68.5735529 11.672067,69.13733 11.6814725,69.7210246 C11.6903248,70.2488395 11.6001426,70.7683554 11.5016614,71.287318 C11.2936337,72.3805698 11.008149,73.4633095 10.908008,74.5753723 C10.8803447,74.8785615 10.8930698,75.2387371 11.1436989,75.4113558 C11.4081596,75.59338 11.7821668,75.4445517 12.0073457,75.2154999 C12.3509233,74.8641766 12.4942189,74.3695577 12.6253427,73.8954095 C12.8687794,73.0162713 13.112216,72.1371331 13.3550993,71.2574417 C13.487883,70.7772076 13.5592542,70.2599048 13.728,69.7929491 C13.9138971,69.2806256 14.1302237,68.7505977 14.0654917,68.2083979 C14.0881756,68.4003809 13.579725,68.5663604 13.4463881,68.5895976 C13.112216,68.6482436 12.7337827,68.6139412 12.4001639,68.5691267 C12.2192462,68.5447831 11.9785759,68.5375906 11.8103833,68.4667727 C11.7633558,68.4468552 11.680366,68.3931885 11.5951632,68.3273499" id="Fill-73" fill="#FFCEB3"></path>
                        </g>
                        <g id="man-1" transform="translate(0.119428, 7.749983)">
                            <g id="Group-8" transform="translate(0.000000, 48.434606)">
                                <g id="Group-3"></g>
                                <path d="M35.959615,23.5819032 C35.959615,23.5819032 35.5988703,24.0054742 35.2236495,24.5051895 C34.8475601,25.0057735 33.7942783,25.7041011 33.3504408,26.015627 C32.9068927,26.3271529 30.8625763,28.0755775 30.4138169,29.807789 C29.9621622,31.5495547 31.4149847,31.7805934 32.9077613,31.4771741 C34.3990902,31.1737548 35.7986406,29.6016492 36.2057089,29.0362123 C36.6119085,28.4719335 38.0169599,27.1939824 39.8305271,26.1247768 C41.6377247,25.0593351 40.5421727,23.6325696 40.5421727,23.6325696 L35.959615,23.5819032 Z" id="Fill-4" fill="#98685A"></path>
                                <path d="M49.5456478,27.3001791 C49.5456478,27.3001791 49.8580422,28.0758092 49.9602436,29.076398 C50.0624449,30.0801715 50.2239983,32.2669328 50.2807447,32.9096721 C50.3377806,33.5541486 50.3841041,35.1355189 49.4214427,36.6575373 C48.4538595,38.1873727 47.9498013,38.7933427 46.622921,38.1896888 C45.2989359,37.5871931 45.3047263,35.0330281 45.5236051,33.7275724 C45.7419049,32.4279072 45.926041,29.5387649 45.8991154,29.2370828 C45.8724794,28.9359797 45.9917625,28.2741319 45.9917625,28.2741319 L49.5456478,27.3001791 Z" id="Fill-6" fill="#98685A"></path>
                            </g>
                            <g id="Group-11" transform="translate(31.601350, 39.955224)">
                                <mask id="mask-2" fill="white">
                                    <use xlink:href="#path-1"></use>
                                </mask>
                                <g id="Clip-10"></g>
                                <path d="M0.274177541,4.46443261 C0.274177541,4.46443261 0.402146362,14.887522 2.5970143,20.5740279 L2.5970143,20.5740279 C2.5970143,20.5740279 4.18880746,25.6739618 4.37004837,31.8549716 L4.37004837,31.8549716 C4.37004837,31.8549716 3.98122003,32.9319943 4.51915231,33.8104047 L4.51915231,33.8104047 C5.05824268,34.6917103 8.46476111,35.5000564 9.0223809,32.6080189 L9.0223809,32.6080189 C9.5747893,29.7431966 9.34693531,24.4542047 8.73546438,22.27555 L8.73546438,22.27555 C8.12833629,20.1131085 8.93581376,14.2332018 8.93581376,14.2332018 L8.93581376,14.2332018 C8.93581376,14.2332018 9.83767547,14.8660974 11.0409298,19.0879104 L11.0409298,19.0879104 C12.261845,23.370523 13.1573372,25.0205101 13.5820663,26.2208693 L13.5820663,26.2208693 C13.9384682,27.2292752 14.3197689,32.6253903 14.3035557,36.557681 L14.3035557,36.557681 C14.2980548,37.8779024 15.3857897,38.876175 16.5039246,38.5530682 L16.5039246,38.5530682 C17.0444625,38.3970157 17.5407036,38.1080725 17.8053269,37.5921439 L17.8053269,37.5921439 C18.5797989,36.0805484 18.7080572,28.3775203 18.4651481,25.9623259 L18.4651481,25.9623259 C18.2242656,23.56624 17.2118064,16.0172377 17.2960573,13.7198789 L17.2960573,13.7198789 C17.3797293,11.440181 17.780428,9.60171486 17.2711584,7.35675958 L17.2711584,7.35675958 C16.7659422,5.12859658 2.96036469,0.239145353 2.96036469,0.239145353 L2.96036469,0.239145353 L0.274177541,4.46443261 Z" id="Fill-9" fill="url(#radialGradient-3)" mask="url(#mask-2)"></path>
                            </g>
                            <path d="M48.8973496,53.6751032 C48.9810215,51.3954052 49.3817203,49.5569391 48.8724507,47.3116943 C48.6819451,46.4723694 46.5950689,45.2514542 44.0736199,44.0586227 C39.8434108,43.6414212 34.4863812,43.15734 34.1166613,43.2181397 C33.7825527,43.2728594 32.9050108,43.6315774 32.1768624,43.945709 L31.8754698,44.4196569 C31.8754698,44.4196569 31.8832869,45.0432877 31.9270048,46.0638536 C32.913407,46.3855128 34.8219374,46.0534308 34.8219374,46.0534308 C35.0845341,46.7769468 36.7290203,49.3626697 38.7964985,50.4854369 C40.8720832,51.6128364 46.9448118,51.2257452 47.2988974,51.6545276 C47.6541412,52.0844681 47.8038242,57.8960476 47.7751615,58.6433045 C47.7464988,59.3922984 48.4375883,64.1520437 49.0832229,68.4245231 C49.7271203,72.6883168 48.9320923,77.9515412 48.9057458,78.1217803 C49.1087008,77.9712287 49.2841513,77.7859345 49.4066192,77.5473682 C50.1810911,76.0357727 50.3093495,68.3327445 50.0664403,65.9172607 C49.8255579,63.5214643 48.8130987,55.9727515 48.8973496,53.6751032" id="Fill-12" fill="#06033E"></path>
                            <g id="Group-16" transform="translate(28.706128, 11.292525)">
                                <mask id="mask-5" fill="white">
                                    <use xlink:href="#path-4"></use>
                                </mask>
                                <g id="Clip-15"></g>
                                <path d="M15.036626,0.349163796 L7.95809723,1.46498243 C7.95809723,1.46498243 5.05013606,2.14304346 4.07010335,2.3781355 L4.07010335,2.3781355 C3.90768139,2.417221 3.77536973,2.53418798 3.71196437,2.69284616 L3.71196437,2.69284616 C3.41983645,3.4270745 2.67750148,5.72038 3.16795212,9.10344712 L3.16795212,9.10344712 C3.77913352,13.3183116 3.53072346,16.1923986 3.53072346,16.1923986 L3.53072346,16.1923986 L2.03678881,23.8299948 C2.03678881,23.8299948 0.144761109,31.2987995 0.294444096,31.5060974 L0.294444096,31.5060974 C0.444416606,31.7131058 4.35383513,34.9731259 5.59733305,34.5116275 L5.59733305,34.5116275 C6.35095939,34.2322386 6.49977381,33.8428312 6.50006333,33.579945 L6.50006333,33.579945 C6.77163517,34.7200835 8.02410829,38.8602512 11.8840185,38.8136382 L11.8840185,38.8136382 C16.3582949,38.7594975 20.0143815,38.7751317 20.7405032,36.8046435 L20.7405032,36.8046435 C21.461124,34.8477628 20.3641243,26.7619863 19.5427498,23.6226969 L19.5427498,23.6226969 C18.7306399,20.5172816 16.8467189,14.4271817 16.8467189,14.4271817 L16.8467189,14.4271817 L22.9692452,7.23747642 L17.617427,3.08312211 C17.617427,3.08312211 16.3362912,0.697169503 15.8192045,0.395487351 L15.8192045,0.395487351 C15.6275408,0.283731774 15.4703302,0.248410064 15.3481519,0.248410064 L15.3481519,0.248410064 C15.1417225,0.248410064 15.036626,0.349163796 15.036626,0.349163796" id="Fill-14" fill="#112864" mask="url(#mask-5)"></path>
                            </g>
                            <g id="Group-21" transform="translate(35.365139, 0.869725)">
                                <path d="M9.04632439,10.7590799 C9.04632439,10.7590799 10.1300061,12.0833546 8.60306587,13.880998 C7.65777583,14.9933424 6.02458099,17.4073786 4.62213537,19.9369343 C3.73967164,21.5284379 2.92061329,22.3807913 2.45274538,23.7597856 C2.45274538,23.7597856 2.39281428,22.122248 2.33809458,19.6123799 C2.28713867,17.2643547 2.26455594,14.8453965 2.36733633,14.2394265 C2.5781085,12.9959286 7.86044138,10.1612166 9.04632439,10.7590799" id="Fill-17" fill="#F0F6FF"></path>
                                <path d="M5.05462366,14.7617825 C5.05462366,14.7617825 4.50337335,15.1147101 4.31257821,15.0854684 C4.12236211,15.0562266 3.51204927,14.4456242 3.51204927,14.4456242 C3.51204927,14.4456242 1.98424053,14.4172511 1.81979191,13.74527 C1.65621185,13.0747365 1.54966768,12.4004393 1.39708947,12.0535917 C1.2450903,11.7070336 0.599745276,10.0498084 0.598587187,9.38014351 C0.597718621,8.71221575 0.630434631,7.523148 0.351914257,6.89575335 C0.0742624491,6.26951679 -0.256082402,0.0835850646 5.64235376,0.255850785 C11.5445537,0.428695549 9.77673104,6.63923666 9.77673104,6.63923666 C9.77673104,6.63923666 10.2147782,6.82742611 9.95941956,7.63808832 C9.70377144,8.45106671 9.64499843,8.53531767 9.51384487,8.93978021 C9.3826913,9.3448218 9.31870689,9.60481275 8.94001183,9.93457856 L8.8470752,10.689942 C8.8470752,10.689942 9.14325643,11.8474519 8.40294812,12.9765885 C7.65974458,14.1109366 5.05462366,14.7617825 5.05462366,14.7617825" id="Fill-19" fill="#FCD1C5"></path>
                            </g>
                            <g id="Group-24" transform="translate(25.810906, 13.608702)">
                                <mask id="mask-7" fill="white">
                                    <use xlink:href="#path-6"></use>
                                </mask>
                                <g id="Clip-23"></g>
                                <path d="M3.9690601,5.67724119 C2.73135261,8.76123186 0.830639246,11.9914313 0.385933118,14.333087 L0.385933118,14.333087 C-0.062247277,16.6941407 0.0964108988,19.2399095 0.537932282,19.4199923 L0.537932282,19.4199923 C0.963529944,19.5937057 8.70882834,22.6973839 11.1503692,23.6840756 L11.1503692,23.6840756 C11.2855761,23.7385058 11.4332324,23.6478853 11.4592894,23.4955966 L11.4592894,23.4955966 L12.144878,19.4851348 L7.34459965,17.5149361 C7.34459965,17.5149361 6.44389602,16.3345541 5.59183213,15.8927432 L5.59183213,15.8927432 C5.59183213,15.8927432 6.57562863,14.0319839 6.52090893,13.5261885 L6.52090893,13.5261885 C6.46676828,13.0212618 6.67696141,7.84923687 6.15147858,5.77162543 L6.15147858,5.77162543 C5.62975954,3.70964819 6.79856074,0.135785921 6.79856074,0.135785921 L6.79856074,0.135785921 C6.79856074,0.135785921 6.15350524,0.234223475 3.9690601,5.67724119" id="Fill-22" fill="#06033E" mask="url(#mask-7)"></path>
                            </g>
                            <g id="Group-29" transform="translate(31.311828, 27.216247)">
                                <path d="M3.91691715,1.14532095 C3.91691715,1.14532095 3.26259693,0.68005874 3.10046449,0.613758152 C2.93833205,0.547747086 2.06194829,0.231878345 1.89489397,0.152838779 C1.77097846,0.0946448133 1.25823461,0.139231235 1.00171792,0.166446324 C0.908202248,0.176290079 0.826556982,0.232746912 0.781101994,0.319024533 C0.572356474,0.71538045 -0.0101622299,1.87202171 0.0471631694,2.31499071 C0.0471631694,2.31499071 1.63027066,3.37985343 1.80340495,3.85611748 L2.0581845,3.91402192 C2.0581845,3.91402192 3.15113088,1.49332665 3.91691715,1.14532095" id="Fill-25" fill="#FCD1C5"></path>
                                <path d="M16.9371946,7.69888798 C16.7408985,6.94873592 16.4811971,6.02139625 16.20065,5.04831207 L6.43593416,9.51274468 C6.43593416,9.51274468 9.38645509,13.4027652 14.5749828,13.1514599 C15.9930626,13.0825536 17.0191293,12.5330405 17.7704395,12.0616983 C17.5139228,10.3335402 17.2107931,8.74522128 16.9371946,7.69888798" id="Fill-27" fill="#06033E"></path>
                            </g>
                            <g id="Group-32" transform="translate(32.180395, 18.241058)">
                                <mask id="mask-9" fill="white">
                                    <use xlink:href="#path-8"></use>
                                </mask>
                                <g id="Clip-31"></g>
                                <path d="M15.0099899,3.99366949 C13.0038905,7.38194801 11.5371709,11.3541929 11.5371709,11.3541929 L11.5371709,11.3541929 L11.4688437,11.8043999 C11.2913665,12.9844925 10.1034569,13.6631325 9.06580924,13.1735505 L9.06580924,13.1735505 C6.87557365,12.1405352 3.64711139,10.5855114 3.04837944,10.1205387 L3.04837944,10.1205387 C3.04837944,10.1205387 1.10597488,11.2453325 0.547196993,13.9208073 L0.547196993,13.9208073 C0.0975689877,16.0725365 0.204981731,16.079485 0.204981731,16.079485 L0.204981731,16.079485 C0.204981731,16.079485 8.90888819,20.4260821 12.2902182,20.3832328 L12.2902182,20.3832328 C15.6715482,20.3403835 19.7028556,8.66974284 20.1119504,6.31650625 L20.1119504,6.31650625 C20.516992,3.98295716 20.9475116,0.937762467 19.4949786,0.288943174 L19.4949786,0.288943174 C19.4949786,0.288943174 16.9917695,0.646213592 15.0099899,3.99366949" id="Fill-30" fill="#06033E" mask="url(#mask-9)"></path>
                            </g>
                            <path d="M41.1695963,31.3785049 C41.1695963,31.3785049 41.4683832,31.0831923 41.8534478,30.7375027 C42.2379333,30.3921027 42.8540365,28.9682325 42.9585541,28.8428693 C43.0627821,28.7177957 44.352314,27.6705939 44.9768134,27.6526435 C45.6016024,27.6344036 45.1450259,28.3703691 45.0020019,28.4743075 C44.8589779,28.578246 44.2506917,28.8981681 44.2506917,28.8981681 C44.2506917,28.8981681 43.6256133,29.4552088 43.5546803,29.5371436 C43.4840369,29.6187889 45.3039736,29.404832 45.5952329,29.5924424 C45.8867818,29.7797632 45.8251135,30.271372 45.6221585,30.4054207 C45.4194929,30.5397591 45.2628614,30.5348372 45.2628614,30.5348372 C45.2628614,30.5348372 45.4745021,31.1156187 44.9287528,31.3854535 C44.3827139,31.6558672 44.2550346,31.5056052 44.2550346,31.5056052 C44.2550346,31.5056052 44.2162386,32.5131425 43.3074283,32.3133722 L41.1695963,31.3785049 Z" id="Fill-33" fill="#FCD1C5"></path>
                            <g id="Group-37" transform="translate(35.365139, 0.001158)">
                                <mask id="mask-11" fill="white">
                                    <use xlink:href="#path-10"></use>
                                </mask>
                                <g id="Clip-36"></g>
                                <path d="M0.240013919,4.57618819 C0.240013919,4.57618819 -0.556751227,7.07505446 1.49654035,6.36138219 L1.49654035,6.36138219 C3.544331,5.6500261 5.39061419,4.46385357 6.03277447,4.91492919 L6.03277447,4.91492919 C6.52235654,5.25888158 6.50469569,6.31621672 6.46821589,6.80261405 L6.46821589,6.80261405 C6.45576643,6.96851028 6.49948429,7.1329589 6.59328949,7.27048196 L6.59328949,7.27048196 L7.20620802,8.16684275 C7.27569336,8.26817552 7.31709503,8.38659011 7.32607022,8.50963705 L7.32607022,8.50963705 L7.37355187,9.13558409 C7.38542228,9.29308418 7.5107854,9.4184473 7.66596931,9.42771201 L7.66596931,9.42771201 L7.80696663,9.43552911 C7.96388767,9.44508334 8.10170025,9.33332777 8.12775725,9.17582768 L8.12775725,9.17582768 L8.27917737,8.25630511 C8.27917737,8.25630511 8.75196715,7.02467759 9.77658628,7.50789018 L9.77658628,7.50789018 C9.77658628,7.50789018 10.4482778,6.57997147 10.1995782,4.60716707 L10.1995782,4.60716707 C9.95232627,2.64825973 9.06320354,0.626526081 5.26351394,0.304577374 L5.26351394,0.304577374 C5.13525559,0.29357553 5.00960295,0.28836413 4.88713505,0.28836413 L4.88713505,0.28836413 C1.38681143,0.28836413 0.240013919,4.57618819 0.240013919,4.57618819" id="Fill-35" fill="#000000" mask="url(#mask-11)"></path>
                            </g>
                            <g id="Group-42" transform="translate(37.681317, 15.924880)" fill="#C4CCD6">
                                <path d="M3.82218548,1.99579246 L3.23445537,1.5258979 C3.23445537,1.5258979 2.6927593,1.99144963 2.4816976,2.48566406 C2.2706359,2.98103657 2.48546139,4.56095932 2.48546139,4.56095932 L2.30595762,4.88174994 L2.08447312,4.46252177 L1.89715224,2.5956825 C1.89715224,2.5956825 2.09605401,1.22421575 2.115452,1.18947308 C2.13484998,1.1544409 3.24574674,1.31107242 3.24574674,1.31107242 C3.24574674,1.31107242 3.6322589,1.61391266 3.82218548,1.99579246" id="Fill-38"></path>
                                <path d="M1.00359982,0.154489056 C1.00359982,0.154489056 0.378521349,0.197338344 0.0965267077,0.43822083 C0.0965267077,0.43822083 0.752294533,0.471515885 0.856522532,0.483675819 C0.960750531,0.495835752 1.00359982,0.154489056 1.00359982,0.154489056" id="Fill-40"></path>
                            </g>
                            <g id="Group-45" transform="translate(37.681317, 15.924880)">
                                <mask id="mask-13" fill="white">
                                    <use xlink:href="#path-12"></use>
                                </mask>
                                <g id="Clip-44"></g>
                                <path d="M0.685878136,0.413437728 C0.821374535,0.889701778 0.712224658,1.96643491 0.815873612,2.39492779 L0.815873612,2.39492779 C0.821085012,2.41548387 0.830060201,2.43314473 0.839614434,2.45080558 L0.839614434,2.45080558 C0.785763302,2.67721196 0.621893726,3.32979504 0.445864217,3.63205623 L0.445864217,3.63205623 C0.230459686,4.00148659 0.00955423322,4.41637192 0.00955423322,4.41637192 L0.00955423322,4.41637192 L0.0191084664,9.72707798 C0.0191084664,9.72707798 1.90129241,5.69142778 2.30575495,4.88163413 L2.30575495,4.88163413 C2.30575495,4.88163413 2.24206006,2.96412848 2.06603055,2.60309427 L2.06603055,2.60309427 C2.32370533,1.74929325 3.24554407,1.31095661 3.24554407,1.31095661 L3.24554407,1.31095661 L2.19399937,0.299655496 C2.19399937,0.299655496 1.59555695,0.167922887 1.1505613,0.167922887 L1.1505613,0.167922887 C0.858143856,0.167922887 0.632027004,0.224958764 0.685878136,0.413437728" id="Fill-43" fill="#016BFF" mask="url(#mask-13)"></path>
                            </g>
                            <g id="Group-56" transform="translate(34.236002, 4.343991)">
                                <path d="M9.23648258,6.34073926 C8.05117862,9.90475777 4.64118593,10.9713576 4.64118593,10.9713576 C4.64118593,10.9713576 5.25149876,11.58196 5.44200438,11.6112017 C5.63251,11.6404435 6.18376031,11.2875159 6.18376031,11.2875159 C6.18376031,11.2875159 8.78888123,10.6366699 9.53208477,9.50232188 C10.2723931,8.37318523 9.97621185,7.2156754 9.97621185,7.2156754 L10.0691485,6.46031193 C9.53295334,6.64010523 9.23648258,6.34073926 9.23648258,6.34073926" id="Fill-46" fill="#E2B1A6"></path>
                                <path d="M12.0431978,10.5173289 C12.0431978,10.5173289 11.5837261,12.21943 11.5226369,12.2837039 C11.4615477,12.3482674 10.3147502,12.2116129 10.3147502,12.2116129 L10.8819242,13.2990584 C10.8819242,13.2990584 5.10740356,19.7664057 3.88851502,23.308131 C3.88851502,23.308131 6.65808456,18.826327 11.4551782,13.5668664 L10.7637991,12.5046094 L11.9453393,12.7417281 L12.0431978,10.5173289 Z" id="Fill-48" fill="#06033E"></path>
                                <path d="M2.61337231,9.02322052 L2.30763684,9.37904332 L2.66345965,9.72125859 L1.59628075,10.7062132 C1.59628075,10.7062132 1.221639,17.7213365 2.51319762,22.4680533 C2.51319762,22.4680533 0.748849219,18.111323 1.20832098,10.5177342 L2.36235654,9.71807384 L1.98887288,9.33908926 L2.61337231,9.02322052 Z" id="Fill-50" fill="#06033E"></path>
                                <path d="M6.30110366,49.8442899 C6.30110366,49.8442899 6.3158693,49.8544232 6.34366343,49.8810593 L4.75071218,48.0185628 C5.48494053,49.1563851 4.63287664,54.4219257 4.54312475,55.6405248 C4.45279382,56.8637561 5.40445335,59.4072088 5.76461899,62.4147656 C6.12767986,65.4483794 5.39055629,69.8323249 5.38852963,69.8453534 C5.8598718,69.5349856 6.23364499,69.0187674 6.38767081,68.2193966 C6.9400792,65.3542847 6.71222521,60.0655824 6.10075429,57.8869277 C5.4936262,55.7244862 6.30110366,49.8442899 6.30110366,49.8442899" id="Fill-52" fill="#06033E"></path>
                                <path d="M10.9060414,3.1650569 C10.9060414,3.1650569 11.5754168,2.23974388 11.3296124,0.27272993 C11.3620389,0.71772558 11.1689276,0.830349723 11.1689276,0.830349723 L8.08464739,3.45718481 L8.33566315,3.82400947 C8.40485896,3.92534224 8.44626064,4.04375683 8.45552535,4.16651425 L8.50271747,4.79275081 C8.51487741,4.95054042 8.64024053,5.07561402 8.79542444,5.08458921 L8.93613223,5.09298535 C9.09305328,5.10196054 9.23115537,4.99049448 9.25721237,4.8329944 L9.40834297,3.91347183 C9.40834297,3.91347183 9.88142228,2.68184431 10.9060414,3.1650569" id="Fill-54" fill="#877069"></path>
                                <polygon id="Path-9" fill="#06033E" points="0.699148701 3.33245279 1.45146768 3.33245279 1.45146768 3.5599652 0.796440989 3.5599652"></polygon>
                                <path d="M3.45486864,3.58854051 L3.67693218,3.58854051 L3.88069445,4.19548846 C3.7078104,3.84302103 3.51685648,3.84302103 3.30783268,4.19548846 C3.09880889,4.54795589 3.14782087,4.34563991 3.45486864,3.58854051 Z" id="Path-10" fill="#06033E"></path>
                                <path d="M1.48575588,3.97255268 L1.78816765,4.95951412 L2.54570278,5.04392852 L2.76190121,4.09114425 L1.48575588,3.97255268 Z" id="Path-7" stroke="#112864" stroke-width="1.12913665"></path>
                                <path d="M4.46419764,4.22002635 L4.76443732,5.18685784 L5.52348626,5.27144093 L5.73819813,4.32520791 L4.46419764,4.22002635 Z" id="Path-7-Copy" stroke="#112864" stroke-width="1.12913665"></path>
                                <polygon id="Path-8" fill="#06033E" points="6.43265211 3.81605293 9.51338274 3.73321227 9.3649086 4.05116422 9.3649086 4.19548846 6.21025159 4.7241896"></polygon>
                            </g>
                        </g>
                        <g id="man2" transform="translate(0.000000, 3.387410)">
                            <g id="Group-6" transform="translate(0.548083, 63.675737)">
                                <g id="Group-3" transform="translate(9.591453, 6.851038)">
                                    <mask id="mask-15" fill="white">
                                        <use xlink:href="#path-14"></use>
                                    </mask>
                                    <g id="Clip-2"></g>
                                    <path d="M7.75104484,0.233209324 C7.75104484,0.233209324 8.22924727,1.27840364 8.1072988,1.95528616 C7.98480224,2.63436102 6.50196364,4.9924882 6.06897806,6.30569511 C5.63297802,7.62767135 3.37597215,9.59446725 2.10524168,9.59145626 C0.834511202,9.58843834 -0.33564604,9.00801843 0.275192483,7.44324141 C0.881098258,5.89079627 1.39602225,5.30763594 1.8980663,4.59649822 C2.39791801,3.88810092 3.3696692,1.85937164 3.50915632,1.02683353 C3.64836941,0.198132011 7.75104484,0.233209324 7.75104484,0.233209324" id="Fill-1" fill="#121A46" mask="url(#mask-15)"></path>
                                </g>
                                <path d="M11.1770844,0.827605356 C11.1770844,0.827605356 11.3798751,2.17260108 11.1970894,2.65573626 C11.0134816,3.1399676 10.6205061,3.58062635 9.50597925,3.93030332 C8.38953415,4.2808024 7.36078232,4.40275088 5.51045406,5.60524502 C3.64943817,6.81486423 1.11921292,7.32019678 0.373271939,5.99739841 C-0.3677363,4.68336938 2.27923063,2.71602539 3.24550099,2.2024716 C4.20903093,1.69028802 5.70091291,1.42967455 6.50878727,0.646463919 C7.31337314,-0.134006298 7.45011985,0.0498755546 7.45011985,0.0498755546 L11.1770844,0.827605356 Z" id="Fill-4" fill="#121A46"></path>
                            </g>
                            <g id="Group-9" transform="translate(1.644249, 34.627337)">
                                <mask id="mask-17" fill="white">
                                    <use xlink:href="#path-16"></use>
                                </mask>
                                <g id="Clip-8"></g>
                                <path d="M0.0997000801,3.63296828 C0.112357018,5.61483647 2.15149988,14.44555 2.71355902,16.3145131 L2.71355902,16.3145131 C2.99691794,17.2552976 3.44004306,19.3086906 3.92400036,20.3149711 L3.92400036,20.3149711 C4.5164781,21.5456915 4.90780938,22.9049374 5.06401304,24.3294051 L5.06401304,24.3294051 C5.26488546,26.1597284 5.49508033,28.4455086 5.39231476,29.4865923 L5.39231476,29.4865923 C5.23556302,31.0724705 5.92696975,31.5819136 5.92696975,31.5819136 L5.92696975,31.5819136 C7.71755696,33.6199603 9.9222209,31.0831581 10.0512944,30.408742 L10.0512944,30.408742 C10.1167904,30.065916 10.074862,29.6422479 10.0181354,29.3092874 L10.0181354,29.3092874 C9.95072122,28.9138455 9.91262945,28.514293 9.91728815,28.1128222 L9.91728815,28.1128222 C9.94852888,25.543135 9.52897133,19.8913029 9.52897133,19.8913029 L9.52897133,19.8913029 C10.3987791,22.5404622 11.5829124,24.8462474 12.1641545,25.9076102 L12.1641545,25.9076102 C12.3968157,26.3321005 12.5297259,26.817702 12.5494568,27.3227605 L12.5494568,27.3227605 C12.5757648,27.9903256 12.6182413,29.18131 12.6799006,31.2626553 L12.6799006,31.2626553 C12.8023972,35.38698 12.0115134,36.9898488 12.0115134,36.9898488 L12.0115134,36.9898488 C13.9224048,39.4907516 16.3923409,36.6968984 16.3923409,36.6968984 L16.3923409,36.6968984 C16.3923409,36.6968984 17.0908727,35.076765 17.6647156,31.1190575 L17.6647156,31.1190575 C18.2273229,27.2364374 16.3517828,21.542403 16.0558179,18.4862921 L16.0558179,18.4862921 C15.7647859,15.4770423 16.5792372,7.0127222 16.5792372,7.0127222 L16.5792372,7.0127222 L14.2805771,6.58055874 C14.2805771,6.58055874 7.49229484,3.58117443 7.59862295,3.28219515 L7.59862295,3.28219515 C7.70495105,2.98376394 2.41430569,0.263627931 2.41430569,0.263627931 L2.41430569,0.263627931 C2.41430569,0.263627931 0.0871451997,1.67137916 0.0997000801,3.63296828" id="Fill-7" fill="#549BFF" mask="url(#mask-17)"></path>
                            </g>
                            <g id="Group-14" transform="translate(1.644249, 34.627337)">
                                <path d="M2.41444271,0.263600527 C2.41444271,0.263600527 7.70508807,2.98373654 7.59875997,3.28216774 C7.49243186,3.58087299 14.2807141,6.58080538 14.2807141,6.58080538 L16.5791002,7.0126948 C16.5791002,7.0126948 15.7649229,15.4767408 16.055955,18.4865387 C16.3516458,21.5423756 18.2271858,27.236136 17.6645786,31.1187561 C17.0910097,35.0770116 16.3924779,36.696871 16.3924779,36.696871 C16.3924779,36.696871 15.9918293,37.1493135 15.3870196,37.5266687 C15.706278,36.3584297 16.7443472,32.2743891 16.6799475,28.7392537 C16.6054082,24.6519246 14.9233414,18.1472753 14.8244124,16.0749734 C14.7712484,14.9541437 13.9784463,14.0635088 13.0036806,14.0202102 C11.4367113,13.9506037 9.13805112,13.6746439 7.56943753,12.7289266 C8.06106799,14.9423599 9.52883431,19.8915495 9.52883431,19.8915495 C9.52883431,19.8915495 9.97798835,25.9360831 9.91249243,28.3635428 C9.90591543,28.609632 9.92756471,28.8551732 9.9777143,29.0952336 C10.0495132,29.4421701 10.1317256,29.9869647 10.0511574,30.4087145 C10.0045704,30.6520634 9.68777839,31.1371169 9.21697508,31.5618812 C9.16846973,29.0308338 8.72123399,22.6955422 8.55598696,21.2516175 C8.37237915,19.6476526 6.81856379,13.2802981 6.81856379,13.2802981 C6.00274222,12.5968386 5.60812245,10.9827341 5.45630346,10.176504 C4.77256989,8.59555855 4.67829961,7.10723912 3.38811219,7.07956093 C3.28205813,7.0773686 1.66165069,9.16885339 0.61590829,7.51802734 C0.314736673,5.76388764 0.103724711,4.2887222 0.0998371008,3.63294087 C0.0872822205,1.67135176 2.41444271,0.263600527 2.41444271,0.263600527" id="Fill-10" fill="#016BFF"></path>
                                <path d="M0.361542962,3.92046523 L0.638872969,4.97689524 C0.638872969,4.97689524 1.0992627,5.04513158 1.73229859,4.29645017 C2.3628681,3.55023515 1.7772414,2.84156381 1.7772414,2.84156381 L0.59009358,3.11724956 L0.361542962,3.92046523 Z" id="Fill-12" fill="#E2B1A6"></path>
                            </g>
                            <g id="Group-17" transform="translate(0.000000, 10.785726)">
                                <mask id="mask-19" fill="white">
                                    <use xlink:href="#path-18"></use>
                                </mask>
                                <g id="Clip-16"></g>
                                <path d="M5.27447691,0.469433104 C4.54771883,0.862134586 3.62091045,1.9007519 3.07584189,4.40110663 L3.07584189,4.40110663 C2.52310017,6.93681271 0.243622901,13.5960214 0.0534380942,14.8434583 L0.0534380942,14.8434583 C0.0183607811,15.0742013 0.000548083017,15.5625432 0,16.2259977 L0,16.2259977 L0,16.3046476 C0.00274041509,19.1078182 0.296512912,24.8522763 0.844595929,27.649692 L0.844595929,27.649692 C0.898034023,27.9229114 1.15234454,28.0799372 1.3956934,27.9933401 L1.3956934,27.9933401 C2.03421012,27.7656116 3.20683373,27.3033036 3.87302864,26.7681005 L3.87302864,26.7681005 C4.8168276,26.0092796 4.70008591,20.1014927 4.70008591,20.1014927 L4.70008591,20.1014927 L4.13912294,12.6524964 L5.20295208,6.65866057 C5.20295208,6.65866057 6.67263669,1.99420006 6.46683152,1.69330248 L6.46683152,1.69330248 C6.26102635,1.39295299 6.3174789,0.0967366525 6.3174789,0.0967366525 L6.3174789,0.0967366525 C6.3174789,0.0967366525 6.31501252,0.0967366525 6.30953169,0.0967366525 L6.30953169,0.0967366525 C6.25527147,0.0967366525 5.93272462,0.113179143 5.27447691,0.469433104" id="Fill-15" fill="#B3D3FF" mask="url(#mask-19)"></path>
                            </g>
                            <g id="Group-20" transform="translate(2.740415, 10.511684)">
                                <mask id="mask-21" fill="white">
                                    <use xlink:href="#path-20"></use>
                                </mask>
                                <g id="Clip-19"></g>
                                <path d="M5.06812366,0.297060995 L3.57706381,0.371052203 C3.57706381,0.371052203 2.59572117,0.79389825 1.70810072,1.89636724 L1.70810072,1.89636724 C0.637420549,3.22601664 0.909817808,6.49204334 0.669209364,8.55776823 L0.669209364,8.55776823 C0.42503838,10.6473347 0.496837255,18.5194511 0.484505387,19.3917252 L0.484505387,19.3917252 C0.483957304,19.4594135 0.48505347,19.5454625 0.48861601,19.6460357 L0.48861601,19.6460357 C0.579871832,22.3795998 0.466692689,25.1619432 0.210189837,27.9744312 L0.210189837,27.9744312 C0.0887894488,29.3040806 0.104409815,30.5682341 0.499303629,30.9817627 L0.499303629,30.9817627 C1.37431817,31.8965133 2.84318065,27.3529051 3.00075452,26.8549717 L3.00075452,26.8549717 C2.99116307,26.9832231 3.00870172,27.4658102 3.22272814,29.2484502 L3.22272814,29.2484502 C3.53595758,31.8581475 3.81164334,34.2771119 7.14809871,36.0553672 L7.14809871,36.0553672 C10.5152467,37.8506132 13.4146059,35.9684961 13.7667492,35.2228291 L13.7667492,35.2228291 C14.1177964,34.4799026 15.4921146,32.1760356 15.6231064,30.2034849 L15.6231064,30.2034849 C15.7530021,28.2512132 14.6225809,20.3777266 14.6225809,20.3777266 L14.6225809,20.3777266 C14.6225809,20.3777266 17.8247559,14.8377034 19.1363185,12.1589477 L19.1363185,12.1589477 C20.4292464,9.5188318 19.3939176,7.54491081 19.3939176,7.54491081 L19.3939176,7.54491081 C18.2127987,5.3668289 15.5466488,2.5543409 15.5466488,2.5543409 L15.5466488,2.5543409 C15.5466488,2.5543409 15.2778141,1.83032324 14.5104979,0.697983722 L14.5104979,0.697983722 C14.1769894,0.206079214 12.3299496,0.0676882526 10.3565767,0.0676882526 L10.3565767,0.0676882526 C7.81675999,0.0676882526 5.06812366,0.297060995 5.06812366,0.297060995" id="Fill-18" fill="#80B6FF" mask="url(#mask-21)"></path>
                                <path d="M15.2657837,32.4754946 C14.0017659,30.2212782 13.3697571,29.0941701 13.3697571,29.0941701 C13.3697571,29.0941701 13.5684515,28.7380111 13.9658404,28.0256933 L13.3697571,27.6143921 L15.0652784,24.1156528 L14.8477438,22.0999609 L12.1930025,26.9572166 C11.3537461,28.0580479 11.507059,29.3062436 12.6529411,30.7018037 C13.7988233,32.0973637 14.6697708,32.688594 15.2657837,32.4754946 Z" id="Path-13" fill="#016BFF" mask="url(#mask-21)"></path>
                            </g>
                            <g id="Group-25" transform="translate(7.125079, 9.689560)">
                                <path d="M8.01812569,0.254886007 C8.01812569,0.254886007 8.37903836,0.454114184 8.52756885,0.870657277 C8.67637339,1.28829654 9.11100323,2.42995346 9.34832317,2.74921182 C9.34832317,2.74921182 5.50297272,6.47124359 4.05767781,8.39446689 C2.59676253,10.3385174 2.13500258,11.9348091 2.13500258,11.9348091 L0.127648535,9.50269075 L0.756847838,8.79100496 L1.10296226,7.20649695 L1.70283913,5.41645782 L2.13281025,3.65519304 L6.90524312,0.900801843 L8.01812569,0.254886007 Z" id="Fill-21" fill="#F0F6FF"></path>
                                <path d="M4.21204539,5.29322135 C4.21204539,5.29322135 4.98950115,5.82458784 5.25970608,6.56587012 C5.25970608,6.56587012 4.5230825,6.02957089 4.28521447,5.98051746 C4.28521447,5.98051746 3.72534767,6.53380726 3.62175998,6.75605493 C3.51789825,6.97830259 3.62148594,9.00648379 3.62148594,9.00648379 L3.34963676,9.42439709 L3.03037841,9.46166674 C3.03037841,9.46166674 2.99886363,8.00513612 2.9596757,7.931693 C2.92021372,7.85824987 2.86567946,6.69987642 2.88787682,6.60889464 C2.91034822,6.51791286 3.93608559,5.52889705 3.93608559,5.52889705 L4.29316168,5.28390394 L4.21204539,5.29322135 Z" id="Fill-23" fill="#C4CCD6"></path>
                            </g>
                            <g id="Group-28" transform="translate(7.947204, 14.348265)">
                                <mask id="mask-23" fill="white">
                                    <use xlink:href="#path-22"></use>
                                </mask>
                                <g id="Clip-27"></g>
                                <path d="M1.3633565,0.194843513 C1.3633565,0.194843513 1.03313649,0.578501624 1.18084486,0.863230752 L1.18084486,0.863230752 C1.32882727,1.14823392 0.756354564,2.79220893 0.606453858,3.0983133 L0.606453858,3.0983133 C0.45600507,3.40496574 0.134006298,4.63184958 0.134006298,4.63184958 L0.134006298,4.63184958 C0.134006298,4.63184958 1.04492027,8.48213277 1.26661985,7.56491584 L1.26661985,7.56491584 C1.48722327,6.65235762 2.52748483,4.76558183 2.52748483,4.76558183 L2.52748483,4.76558183 C2.69410207,3.76807074 2.41074315,2.12025915 2.41074315,2.12025915 L2.41074315,2.12025915 C2.41074315,2.12025915 2.47075824,1.88129496 2.95855213,1.49708876 L2.95855213,1.49708876 C3.4449758,1.11343065 3.61104496,0.889538737 3.48087524,0.717714711 L3.48087524,0.717714711 C3.35097957,0.546164726 2.48720073,0.109342562 2.17506745,0.0358994376 L2.17506745,0.0358994376 C2.13231698,0.0260339433 2.086278,0.0216492792 2.03859478,0.0216492792 L2.03859478,0.0216492792 C1.73577891,0.0216492792 1.3633565,0.194843513 1.3633565,0.194843513" id="Fill-26" fill="#016BFF" mask="url(#mask-23)"></path>
                            </g>
                            <g id="Group-33" transform="translate(7.399121, 0.646190)">
                                <path d="M10.607078,12.6617042 L9.96198432,14.0568496 L8.80278874,13.993546 L8.95022307,15.2231702 C8.95022307,15.2231702 4.17477575,18.4842642 2.33760147,21.91636 L2.4513287,22.2849459 C2.4513287,22.2849459 4.60584304,18.6234773 9.22810116,15.624093 L9.38266057,15.5273563 L9.1398598,14.3374681 L10.170804,14.5356001 L10.607078,12.6617042 Z" id="Fill-29" fill="#016BFF"></path>
                                <path d="M2.75540516,13.0359627 C2.75540516,13.0359627 2.96559499,13.6446089 3.57999605,13.6939364 C4.19439712,13.7432639 7.50865512,12.4338935 7.98658351,10.4654534 C7.98658351,10.4654534 7.78105238,9.52384676 7.76104735,9.35503719 C7.76104735,9.35503719 7.99233838,9.16320813 8.0353629,8.87025776 C8.07783933,8.57785547 8.3403711,7.92152606 8.41902101,7.71654301 C8.49739688,7.511834 8.66428816,7.10214195 8.56645534,6.80727328 C8.56645534,6.80727328 9.50915813,1.42646826 6.58047653,0.510621543 C3.6674153,-0.400292432 1.53920894,0.483217392 0.56718371,3.5149386 C0.56718371,3.5149386 0.33095993,4.33733717 0.14022704,4.94653144 C0.0193747347,5.33320401 0.00786499129,5.74673265 0.116111387,6.13614563 C0.176674561,6.3531865 0.224631825,6.58612179 0.209833583,6.74424374 C0.174482228,7.12132485 -0.0107698313,7.97578628 0.138582791,9.03550479 C0.138582791,9.03550479 -0.100929488,9.61674683 0.288483496,9.82858092 C0.678444563,10.0409631 0.587462782,11.7718093 0.587462782,11.7718093 L1.68472498,12.9197691 C1.68472498,12.9197691 1.92012664,13.1757239 2.75540516,13.0359627" id="Fill-31" fill="#FCD1C5"></path>
                            </g>
                            <g id="Group-36" transform="translate(7.673162, 0.098107)">
                                <mask id="mask-25" fill="white">
                                    <use xlink:href="#path-24"></use>
                                </mask>
                                <g id="Clip-35"></g>
                                <path d="M4.2761437,0.175934648 C2.44198388,0.189636724 0.75936902,1.27292281 0.109616603,3.56802044 L0.109616603,3.56802044 C0.109616603,3.56802044 -0.137020754,4.46194384 1.05067514,4.8875303 L1.05067514,4.8875303 C2.2413855,5.31393889 3.76807074,5.78720858 4.46358809,5.77131417 L4.46358809,5.77131417 C5.15910544,5.75541976 5.51179686,6.14866933 5.52495085,7.07465558 L5.52495085,7.07465558 C5.53262402,7.59752678 5.59702377,7.80771662 5.65238015,7.89157332 L5.65238015,7.89157332 C5.7074625,7.97543002 5.72774157,8.07764751 5.72390499,8.17849478 L5.72390499,8.17849478 L5.71705395,8.35662176 C5.71294333,8.46952686 5.79515578,8.5925715 5.90120984,8.62573052 L5.90120984,8.62573052 C6.0705675,8.67889457 6.25883401,8.62984114 6.26349272,8.59010513 L6.26349272,8.59010513 C6.26376676,8.589283 6.26376676,8.58846088 6.26376676,8.58763875 L6.26376676,8.58763875 C6.33501755,8.01461796 6.64441042,7.50161225 7.11576181,7.19057514 L7.11576181,7.19057514 C7.63205601,6.84939346 8.23494733,6.67702136 8.31688574,7.651787 L8.31688574,7.651787 C8.31688574,7.651787 10.3828847,2.85003169 6.99792396,0.920779469 L6.99792396,0.920779469 C6.1478472,0.436274082 5.2314524,0.182785686 4.34794257,0.175934648 L4.34794257,0.175934648 L4.2761437,0.175934648 Z" id="Fill-34" fill="#000000" mask="url(#mask-25)"></path>
                            </g>
                            <g id="Group-49" transform="translate(5.513801, 12.155933)">
                                <path d="M3.03982941,5.29067277 C3.18973012,4.98429436 3.76220283,3.34059339 3.61422041,3.05559022 C3.46651204,2.7708611 3.79673206,2.38720298 3.79673206,2.38720298 C3.79673206,2.38720298 4.29603569,2.15508983 4.60844301,2.22825891 C4.64023182,2.23593207 4.67859763,2.24771586 4.72080003,2.26224006 C4.71970386,2.27237959 4.71888173,2.28060084 4.71888173,2.28060084 C4.71888173,2.28060084 4.30151652,3.0336669 4.20998665,3.21727471 C4.11790871,3.40115657 3.72520722,5.33013474 3.51364718,5.76394245 C3.30181309,6.19857229 2.89732783,7.71018525 2.89732783,7.71018525 L2.77263894,7.63975658 C2.65069047,7.17525622 2.56738185,6.82420905 2.56738185,6.82420905 C2.56738185,6.82420905 2.88938062,5.59732522 3.03982941,5.29067277" id="Fill-37" fill="#0857C5"></path>
                                <path d="M3.3711456,0.36450261 C3.3711456,0.36450261 3.8907283,1.15949703 3.93046431,1.55000618 C3.66135555,1.50862591 3.57009973,1.40997097 3.57009973,1.40997097 L3.13409969,0.953965895 C3.25687029,0.64594324 3.3711456,0.36450261 3.3711456,0.36450261" id="Fill-39" fill="#E2B1A6"></path>
                                <path d="M0.241344931,25.1668486 C0.241344931,25.1668486 0.341644123,16.9867095 1.65457699,13.4170449 L0.977968506,14.5655528 C0.977968506,14.5655528 -0.130529396,19.3111296 0.0506120411,25.7456242 L0.241344931,25.1668486 Z" id="Fill-43" fill="#016BFF"></path>
                            </g>
                            <g id="Group-67" transform="translate(9.208223, 4.482771)">
                                <path d="M1.7708391,9.85732787 C1.15643804,9.8080004 0.946248201,9.19935421 0.946248201,9.19935421 C0.946248201,9.19935421 4.35477648,7.81407438 4.70774195,5.70861347 C4.70774195,5.70861347 4.74446351,7.92752757 3.84505928,9.10234351 C2.93990018,9.60493564 2.05858268,9.88034736 1.7708391,9.85732787" id="Fill-53" fill="#E2B1A6"></path>
                                <path d="M1.96486049,50.0357044 C1.96486049,50.0357044 1.96650474,50.059546 1.96951919,50.098734 C1.96403836,50.0740702 1.96184603,50.0524209 1.96486049,50.0357044" id="Fill-55" fill="#1E262D"></path>
                                <path d="M5.17547599,67.8315489 C4.92746843,67.6693163 4.68274936,67.44241 4.44762175,67.1343873 C4.44762175,67.1343873 5.2382315,65.5312445 5.11600899,61.4071938 C5.05434965,59.3302332 5.01214726,58.1397969 4.98583927,57.4714097 C4.9655602,56.9636108 4.83237603,56.4758169 4.59861862,56.0488602 C4.04478073,55.0379211 2.94888874,52.9045079 2.09524944,50.4219659 C2.09141286,50.4047013 2.08730223,50.3860665 2.08373969,50.369624 C2.69403013,51.5203243 5.46486383,55.0806716 5.84139686,57.8304041 C6.21327119,60.5445112 5.44211838,66.0946738 5.17547599,67.8315489" id="Fill-57" fill="#016BFF"></path>
                                <path d="M2.08368489,50.3697062 C2.07710789,50.3571003 2.0719011,50.3461386 2.06587219,50.3340808 C2.03189104,50.2348778 1.99790989,50.1359488 1.96475087,50.0356496 C1.97735678,49.9611103 2.02065534,50.0934724 2.08368489,50.3697062" id="Fill-59" fill="#1E262D"></path>
                                <path d="M6.78171549,3.26706806 C6.78171549,3.26706806 7.38488085,1.86205724 7.40515992,0.267683746 C7.36624603,0.527201054 7.26320642,0.810559974 7.00259294,0.984028249 C6.4246394,1.36933061 4.00677117,3.03331065 4.00594905,3.03385873 C4.0300647,3.31201086 4.07637772,3.44464695 4.1172099,3.50685438 C4.17256629,3.59071108 4.19257132,3.69292856 4.18873473,3.79404988 L4.18215774,3.97190282 C4.17777307,4.08508196 4.26025957,4.20785256 4.36631363,4.24101158 C4.53539724,4.29417563 4.72366376,4.2451222 4.72859651,4.20511214 C4.72887055,4.20456406 4.72887055,4.20374193 4.72914459,4.20291981 C4.80012134,3.62989901 5.10924016,3.11689331 5.58059156,2.8058562 C6.09688576,2.46467452 6.69977708,2.29257645 6.78171549,3.26706806" id="Fill-65" fill="#380031"></path>
                            </g>
                            <polygon id="Path-12" fill="#E2B1A6" points="18.2667411 39.6058542 18.0061988 42.9871788 16.1101721 39.6058542 16.7062555 38.5373775"></polygon>
                            <path d="M21.8764597,18.3002436 C22.1589088,18.1203853 22.3756547,18.834285 22.5266974,20.4419426 L23.7118697,32.9398766 L18.6904873,40.6845422 L16.1101721,38.1260763 L19.4134625,31.1746181 C17.995885,28.4444351 17.5267971,25.8263994 18.0061988,23.320511 C18.7253012,19.5616784 21.4527861,18.570031 21.8764597,18.3002436 Z" id="Path-11" fill="#B3D3FF"></path>
                        </g>
                        <g id="Lense" transform="translate(14.320342, 0.754770)">
                            <path d="M28.7907154,55.4650623 C15.4058934,55.4650623 4.51654661,44.5465996 4.51654661,31.1259893 C4.51654661,17.7053789 15.4058934,6.78691623 28.7907154,6.78691623 C42.1755375,6.78691623 53.0656405,17.7053789 53.0656405,31.1259893 C53.0656405,44.5465996 42.1755375,55.4650623 28.7907154,55.4650623 L28.7907154,55.4650623 Z M50.3602475,50.4126306 L50.6605978,50.0352453 C55.1771444,44.7518519 57.6612451,38.1098716 57.6612451,31.1659831 C57.6612451,15.2403257 44.7145642,2.25827331 28.8306225,2.25827331 C12.9474336,2.25827331 0,15.2403257 0,31.1659831 C0,47.0916404 12.9474336,60.0736928 28.8306225,60.0736928 C35.3043394,60.0736928 41.4769531,57.9603355 46.5964586,53.9600519 L46.896809,53.7336207 L65.8663048,69.1309387 L68.8028128,65.5080404 L50.3602475,50.4126306 Z" id="Fill-1-Copy-2" fill="#80B6FF"></path>
                            <path d="M28.7907154,53.206789 C15.4058934,53.206789 4.51654661,42.2883263 4.51654661,28.867716 C4.51654661,15.4471056 15.4058934,4.52864293 28.7907154,4.52864293 C42.1755375,4.52864293 53.0656405,15.4471056 53.0656405,28.867716 C53.0656405,42.2883263 42.1755375,53.206789 28.7907154,53.206789 L28.7907154,53.206789 Z M50.3602475,48.1543573 L50.6605978,47.776972 C55.1771444,42.4935786 57.6612451,35.8515983 57.6612451,28.9077098 C57.6612451,12.9820524 44.7145642,7.10542736e-15 28.8306225,7.10542736e-15 C12.9474336,7.10542736e-15 0,12.9820524 0,28.9077098 C0,44.8333671 12.9474336,57.8154195 28.8306225,57.8154195 C35.3043394,57.8154195 41.4769531,55.7020622 46.5964586,51.7017786 L46.896809,51.4753474 L65.8663048,66.8726654 L68.8028128,63.2497671 L50.3602475,48.1543573 Z" id="Fill-1" fill="#016BFF"></path>
                            <polygon id="Path-5" fill="#005CDD" points="68.8028128 63.2497671 68.8028128 65.5080404 65.8663048 69.1309387 65.8663048 66.8726654"></polygon>
                            <polygon id="Path-6" fill="#4E99FF" points="46.896809 51.4753474 46.896809 53.7336207 65.8663048 69.1309387 65.8663048 66.8726654"></polygon>
                        </g>
                    </g>
                </g>
            </g>
        </g>
    </g>
</svg>