<?xml version="1.0" encoding="UTF-8"?>
<svg width="12px" height="12px" viewBox="0 0 12 12" version="1.1" xmlns="http://www.w3.org/2000/svg" xmlns:xlink="http://www.w3.org/1999/xlink">
    <!-- Generator: sketchtool 54.1 (76490) - https://sketchapp.com -->
    <title>B2F1D195-E239-4DDD-9609-92ECA878CA96</title>
    <desc>Created with sketchtool.</desc>
    <g id="Contacts" stroke="#1d1e1f" stroke-width="1" fill="none" fill-rule="evenodd">
        <g id="Contacts_filters-options" transform="translate(-1249.000000, -195.000000)">
            <g id="All-members_list" transform="translate(354.000000, 178.000000)">
                <g id="Heading-Table">
                    <g id="ic_edit-columns" transform="translate(894.000000, 16.000000)">
                        <rect id="Rectangle" fill="#D8D8D8" fill-rule="nonzero" opacity="0" x="0" y="0" width="14" height="14" rx="1"></rect>
                        <path d="M7.47682119,12.0463576 L12.0463576,12.0463576 L12.0463576,7.47682119 L7.47682119,7.47682119 L7.47682119,12.0463576 Z M1.95364238,12.0463576 L6.52317881,12.0463576 L6.52317881,1.95364238 L1.95364238,1.95364238 L1.95364238,12.0463576 Z M7.47682119,6.52317881 L12.0463576,6.52317881 L12.0463576,1.95364238 L7.47682119,1.95364238 L7.47682119,6.52317881 Z M12.5231788,1 L1.47682119,1 C1.21345695,1 1,1.21345695 1,1.47682119 L1,12.5231788 C1,12.786543 1.21345695,13 1.47682119,13 L12.5231788,13 C12.7863841,13 13,12.786543 13,12.5231788 L13,1.47682119 C13,1.21345695 12.7863841,1 12.5231788,1 L12.5231788,1 Z" id="ic_columns" fill="#1D1E1F"></path>
                    </g>
                </g>
            </g>
        </g>
    </g>
</svg>