<?xml version="1.0" encoding="UTF-8"?>
<svg width="16px" height="16px" viewBox="0 0 16 16" version="1.1" xmlns="http://www.w3.org/2000/svg" xmlns:xlink="http://www.w3.org/1999/xlink">
    <!-- Generator: sketchtool 53.2 (72643) - https://sketchapp.com -->
    <title>1B44C544-12CD-4258-9259-52B1400B0509</title>
    <desc>Created with sketchtool.</desc>
    <g id="ADMIN_Marketing-" stroke="none" stroke-width="1" fill="none" fill-rule="evenodd">
        <g id="Domain_details" transform="translate(-713.000000, -513.000000)" stroke="#2523AD" stroke-width="0.5">
            <g id="Domain-Settings" transform="translate(390.000000, 458.000000)">
                <g id="Inbound" transform="translate(44.000000, 54.000000)">
                    <g id="ic_edit" transform="translate(276.000000, 0.000000)">
                        <g id="ic_pencil">
                            <g transform="translate(10.000000, 10.000000) rotate(-135.000000) translate(-10.000000, -10.000000) translate(7.000000, 1.000000)">
                                <path d="M0.151215263,13.6568693 L0.151215263,5.75829108 C0.151215263,5.05994852 0.557152408,4.49383003 1.05563113,4.49383003 L1.05563113,4.49383003 C1.55512622,4.49383003 1.960047,5.0601042 1.960047,5.75829108 L1.960047,13.6568693 L0.151215263,13.6568693" id="Path" fill="#2523AD" transform="translate(1.055631, 9.075350) scale(-1, 1) translate(-1.055631, -9.075350) "></path>
                                <path d="M1.96004711,5.8656296 C1.96004711,5.10800562 2.40067374,4.49383003 2.94240921,4.49383003 L3.10425478,4.49383003 C3.64679839,4.49383003 4.08661687,5.10927104 4.08661687,5.8656296 L4.08661687,13.6568693 L1.96004711,13.6568693 L1.96004711,5.8656296 Z" id="Path" fill="#2523AD"></path>
                                <path d="M4.08661687,13.6568693 L4.08661687,5.75829108 C4.08661687,5.05994852 4.49255404,4.49383003 4.99103274,4.49383003 L4.99103274,4.49383003 C5.49052783,4.49383003 5.89544861,5.0601042 5.89544861,5.75829108 L5.89544861,13.6568693 L4.08661687,13.6568693" id="Path" fill="#2523AD"></path>
                                <polyline id="Path" stroke-linecap="round" points="0.503593146 4.72570824 3.02594203 0.0609296077 5.62710771 4.83278455"></polyline>
                                <path d="M2.04508132,2.06512182 L4.15403488,2.06512182" id="Path"></path>
                                <polygon id="Path" fill="#2523AD" points="4.03280145 2.11947261 3.03252731 0.393417337 2.08564371 2.15561573"></polygon>
                                <path d="M5.89544861,13.4572091 L5.89544861,17.055796 C5.89544861,17.4880188 5.55966217,17.8384046 5.14544861,17.8384046 L0.901215377,17.8384046 C0.487001814,17.8384046 0.151215377,17.4880188 0.151215377,17.055796 L0.151215377,13.7914925" id="Path"></path>
                                <path d="M5.81329444,14.9984295 L0.28125,14.9984295" id="Path" stroke-linecap="square"></path>
                                <polygon id="Path" fill="#2523AD" points="5.73131998 15.0140765 5.78571178 17.2385934 5.32307541 17.7213444 0.741920526 17.6961848 0.26054136 17.1938761 0.282109708 15.0319143"></polygon>
                            </g>
                        </g>
                    </g>
                </g>
            </g>
        </g>
    </g>
</svg>