<?xml version="1.0" encoding="UTF-8"?>
<svg width="44px" height="46px" viewBox="0 0 44 46" version="1.1" xmlns="http://www.w3.org/2000/svg" xmlns:xlink="http://www.w3.org/1999/xlink">
    <!-- Generator: sketchtool 49.3 (51167) - http://www.bohemiancoding.com/sketch -->
    <title>DEC16640-BC3F-42DB-AB74-8CAA5793FCC6</title>
    <desc>Created with sketchtool.</desc>
    <defs></defs>
    <g id="Home-screen" stroke="none" stroke-width="1" fill="none" fill-rule="evenodd">
        <g id="DG_Home_New-landing_11" transform="translate(-726.000000, -1352.000000)">
            <g id="section-2" transform="translate(0.000000, 1265.000000)">
                <g id="Group-4" transform="translate(694.000000, 57.000000)">
                    <g id="Executives-Count">
                        <g id="ic_executives" transform="translate(33.000000, 31.000000)">
                            <path d="M16.4843482,27.0285714 L16.9254292,27.0285714 C16.9254292,27.0285714 21.2732279,25.7344538 23.2895983,20.8044818 C23.2895983,20.8044818 25.3689803,19.0789916 24.1087488,17.3535014 C24.1087488,17.3535014 23.3526099,17.0453782 22.7224941,19.0789916 L23.2895983,16.0593838 C23.2895983,16.0593838 23.1635752,15.0733894 22.2184015,15.0117647 C22.2184015,15.0117647 19.6349269,15.6896359 15.917244,14.2106443 C15.917244,14.2106443 13.396781,13.1630252 12.3885958,11.3142857 C12.3885958,11.3142857 11.0653527,11.4991597 9.9311443,14.3955182 C9.9311443,14.3955182 9.99415588,17.1686275 10.3722253,18.5243697 C10.120179,17.9081232 9.679098,16.9837535 9.11199382,17.4767507 C9.11199382,17.4767507 8.04079704,18.4627451 9.86813273,20.5579832 C9.86813273,20.6196078 12.4516073,26.1042017 16.4843482,27.0285714 Z" id="Shape"></path>
                            <path d="M5.65714286,27.5737687 C11.1882163,29.4997085 13.1769169,26.7039895 13.1769169,26.7039895 L14.854883,27.76015 C16.594996,28.6920564 17.7757869,28.0707855 17.7757869,28.0707855 C18.7079903,27.6358958 20.1373688,26.7661166 20.1373688,26.7661166 C22.7475383,29.6239627 27.6571429,27.5737687 27.6571429,27.5737687 C25.5441485,26.6418624 24.7362389,25.0265581 24.4255044,23.6597621 C25.7305892,24.6537955 27.594996,23.9082704 27.594996,23.9082704 C26.1656174,24.4052872 24.6119451,21.8580765 24.3633575,21.3610597 C24.3633575,21.2989327 24.4255044,21.2989327 24.4255044,21.2989327 C25.7927361,19.7457554 25.5441485,18.3168323 25.5441485,18.3168323 C25.4820016,16.7636551 24.4876513,16.8879093 24.4876513,16.8879093 C25.2955609,11.3585983 23.6175948,9.37053139 23.6175948,9.37053139 C19.0808717,4.15185584 12.6175948,7.13395615 12.6175948,7.13395615 C6.90008071,9.49478557 9.13736885,16.9500364 9.13736885,16.9500364 C7.89443099,16.8257822 7.95657789,18.1925782 7.95657789,18.1925782 C7.8322841,20.180645 9.13736885,21.4231868 9.13736885,21.4231868 C9.13736885,21.4231868 9.19951574,21.4853139 9.19951574,21.4853139 C8.95092817,21.9202036 7.33510896,24.4674142 5.96787732,24.0325246 C5.96787732,24.0325246 7.70799031,24.7159226 9.01307506,23.8461433 C8.01872478,27.0146249 5.65714286,27.5737687 5.65714286,27.5737687 Z M9.13736885,17.5713073 C9.69669088,17.0121635 10.193866,18.0061969 10.3803067,18.6274678 C10.0695722,17.2606718 9.94527845,14.4649528 9.94527845,14.4649528 C11.0017756,11.5449795 12.3690073,11.3585983 12.3690073,11.3585983 C13.3633575,13.2845381 15.8492333,14.2785715 15.8492333,14.2785715 C19.5158999,15.7696217 22.0639225,15.0862237 22.0639225,15.0862237 C22.9961259,15.1483508 23.1204197,16.1423842 23.1204197,16.1423842 L22.6232446,19.1866116 C23.2447135,17.1364176 23.9904762,17.4470531 23.9904762,17.4470531 C25.233414,19.1866116 23.1825666,20.9261701 23.1825666,20.9261701 C21.193866,25.8963373 16.9057304,27.2010062 16.9057304,27.2010062 L16.4085553,27.2010062 C12.4311542,26.2690999 9.88313156,20.7397888 9.88313156,20.7397888 C8.08087167,18.5653407 9.13736885,17.5713073 9.13736885,17.5713073 Z" id="Shape" fill="#C5C7CB" fill-rule="nonzero"></path>
                            <polygon id="Shape" fill="#C5C7CB" fill-rule="nonzero" points="17.7885714 29.5428571 15.5257143 29.5428571 14.4571429 30.6114286 15.9657143 32.3085714 14.4571429 36.1428571 16.6571429 38.3428571 18.8571429 36.2057143 17.3485714 32.2457143 18.8571429 30.5485714"></polygon>
                            <path d="M29.0535483,31.6966477 C29.0535483,31.6966477 22.4744685,29.6062039 22.2238369,29.5428571 C22.2238369,29.5428571 22.4744685,35.8775351 16.6472836,39.6149951 C16.6472836,39.6149951 11.0080723,36.194269 11.1333881,29.5428571 C11.1333881,29.5428571 5.05557152,31.316567 3.30115024,32.1400751 C3.30115024,32.1400751 1.48407106,33.1536236 1.23343944,33.7237446 C1.23343944,33.7237446 -0.270350225,36.5743497 0.0429392891,41.8321324 C0.0429392891,41.8321324 10.1308617,46.7098345 33.3142857,41.8321324 C33.2516278,41.8954792 33.3769436,34.9906802 31.9984698,33.7237446 C31.9984698,33.7237446 31.1212591,32.5835026 29.0535483,31.6966477 Z" id="Shape" stroke="#C5C7CB" stroke-width="2" fill-rule="nonzero"></path>
                            <path d="M25.3942857,6.8612542 C27.0914286,6.79971458 30.36,5.13814492 30.36,5.13814492 C31.5542857,4.3381299 32.3714286,5.32276377 32.3714286,5.32276377 C34.0685714,6.73817497 34.4457143,11.3536462 34.4457143,11.3536462 L35.0114286,11.2921066 C35.0742857,11.2921066 35.1371429,11.2921066 35.2,11.2921066 C35.5142857,11.2921066 35.7028571,11.4151859 35.9542857,11.5382651 C36.2057143,11.7228839 36.3942857,12.1536613 36.4571429,12.4613594 C36.52,12.6459782 36.52,12.7690574 36.52,12.8921367 C36.52,12.9536763 36.52,13.0152159 36.52,13.0152159 C36.3314286,13.8152309 36.0171429,14.2460082 35.64,14.4306271 C35.2628571,14.615246 34.9485714,14.6767856 34.8228571,14.6767856 L34.5714286,14.6767856 L34.5085714,14.8614044 C34.1314286,17.015291 33.1885714,18.4922418 32.3085714,19.4153361 C31.8685714,19.907653 31.4914286,20.2153511 31.1771429,20.39997 C30.9885714,20.5230492 30.9257143,20.5845888 30.8,20.5845888 L30.6742857,20.6461284 C29.48,21.199985 28.3485714,21.4461434 27.4685714,21.4461434 C27.28,21.4461434 27.0914286,21.4461434 26.9657143,21.3846038 C27.0914286,21.5692227 27.28,21.7538415 27.4685714,22 C27.5314286,22 27.5314286,22 27.5942857,22 C28.6,22 29.6685714,21.8153811 30.9885714,21.199985 C30.9885714,21.199985 31.8057143,20.7692077 32.7485714,19.7845738 C33.6285714,18.7999399 34.6342857,17.3229891 35.0742857,15.1691025 C35.2628571,15.1691025 35.5771429,15.0460233 35.9542857,14.8614044 C36.4571429,14.5537063 36.8971429,14.0613894 37.0857143,13.0767555 C37.0857143,13.0767555 37.0857143,12.5844386 36.8971429,11.9690424 C36.7714286,11.7228839 36.6457143,11.4151859 36.3942857,11.1690274 C36.2057143,10.9844085 35.8914286,10.8613293 35.5771429,10.7997897 L35.64,10.7997897 L36.08,8.09204654 C36.3942857,3.84581296 33.3771429,2.79963947 33.3771429,2.79963947 C33.3142857,1.38422828 32.0571429,0.522673642 32.0571429,0.522673642 C29.6057143,-0.892737551 24.5771429,1.01499058 24.5771429,1.01499058 C20.68,1.93808483 19.8,4.58428837 19.8,4.58428837 C19.6742857,4.89198645 19.5485714,5.26122416 19.4857143,5.63046186 C20.8685714,5.69200148 22.3142857,6.1227788 23.76,6.98433343 C24.5771429,6.92279382 25.3942857,6.8612542 25.3942857,6.8612542 Z" id="Shape" stroke="#C5C7CB" fill="#C5C7CB" fill-rule="nonzero"></path>
                            <path d="M34.8284636,22.6285714 L29.5428571,31.3028571 C29.729408,31.3657143 29.7915916,31.3657143 29.7915916,31.3657143 C31.8436505,32.2457143 32.714221,33.3771429 32.714221,33.3771429 C33.3982406,34.0057143 33.7091587,35.8914286 33.8335259,37.7142857 C36.2586865,37.1485714 38.8082143,36.2685714 41.4821093,35.0742857 L41.4821093,29.4171429 C41.5442929,29.4171429 40.8602732,25.08 34.8284636,22.6285714 Z" id="Shape" stroke="#C5C7CB" stroke-width="2" fill-rule="nonzero"></path>
                            <path d="M27.0285714,25.9367091 C27.5443223,26.8348581 28.2534799,27.6639188 29.4783883,28.2857143 C29.5428571,28.0784491 29.5428571,27.9402723 29.5428571,27.7330072 C29.5428571,26.6275929 28.7047619,25.7985323 27.7377289,25.7985323 C27.5443223,25.7294439 27.2864469,25.7985323 27.0285714,25.9367091 Z" id="Shape" fill="#C5C7CB" fill-rule="nonzero"></path>
                        </g>
                    </g>
                </g>
            </g>
        </g>
    </g>
</svg>