<?xml version="1.0" encoding="UTF-8"?>
<svg width="18px" height="18px" viewBox="0 0 18 18" version="1.1" xmlns="http://www.w3.org/2000/svg" xmlns:xlink="http://www.w3.org/1999/xlink">
    <!-- Generator: Sketch 55.2 (78181) - https://sketchapp.com -->
    <title>ic_failed</title>
    <desc>Created with Sketch.</desc>
    <g id="Campaign-Flow_LOGIN-to-Send-" stroke="none" stroke-width="1" fill="none" fill-rule="evenodd">
        <g id="Campaign_landing-Copy" transform="translate(-42.000000, -290.000000)">
            <g id="Campaigns-Tabs" transform="translate(25.000000, 129.000000)">
                <g id="Campaigns">
                    <g id="ic_failed" transform="translate(17.000000, 161.000000)">
                        <g id="Group-2" transform="translate(1.020243, 1.020243)">
                            <path d="M8.05546425,1.79010317 C11.5264743,1.79010317 14.3208253,4.58445421 14.3208253,8.05546425 C14.3208253,11.5264743 11.5264743,14.3208253 8.05546425,14.3208253 C4.58445421,14.3208253 1.79010317,11.5264743 1.79010317,8.05546425 C1.79010317,4.58445421 4.58445421,1.79010317 8.05546425,1.79010317 M8.05546425,-3.55271368e-15 C3.61735097,-3.55271368e-15 8.17124146e-14,3.61735097 8.17124146e-14,8.05546425 C8.17124146e-14,12.4935775 3.61735097,16.1109285 8.05546425,16.1109285 C12.4935775,16.1109285 16.1109285,12.4935775 16.1109285,8.05546425 C16.1109285,3.61735097 12.4935775,-3.55271368e-15 8.05546425,-3.55271368e-15" id="ic_scheduled-Status" stroke="#F39EA9" stroke-width="0.5" fill="#F39EA9"></path>
                            <g id="Group" transform="translate(7.433198, 3.935223)" fill="#D2394C" stroke="#D2394C" stroke-width="0.538461538">
                                <path d="M0.619433198,7.8340081 C0.277329689,7.8340081 2.60014232e-13,7.55667841 2.60014232e-13,7.2145749 C2.60014232e-13,6.87247139 0.277329689,6.5951417 0.619433198,6.5951417 C0.961536707,6.5951417 1.2388664,6.87247139 1.2388664,7.2145749 C1.2388664,7.55667841 0.961536707,7.8340081 0.619433198,7.8340081 Z M0.619433198,0 C0.961536707,-6.28433951e-17 1.2388664,0.277329689 1.2388664,0.619433198 L1.2388664,4.33603239 C1.2388664,4.6781359 0.961536707,4.95546559 0.619433198,4.95546559 C0.277329689,4.95546559 -2.7948709e-16,4.6781359 0,4.33603239 L0,0.619433198 C-4.18955967e-17,0.277329689 0.277329689,6.28433951e-17 0.619433198,0 Z" id="Combined-Shape"></path>
                            </g>
                        </g>
                    </g>
                </g>
            </g>
        </g>
    </g>
</svg>