<?xml version="1.0" encoding="UTF-8"?>
<svg width="60px" height="52px" viewBox="0 0 60 52" version="1.1" xmlns="http://www.w3.org/2000/svg" xmlns:xlink="http://www.w3.org/1999/xlink">
    <!-- Generator: sketchtool 49.3 (51167) - http://www.bohemiancoding.com/sketch -->
    <title>2CA3A992-EB19-4155-8DA9-9D9D131C3D14</title>
    <desc>Created with sketchtool.</desc>
    <defs>
        <polygon id="path-1" points="1.33928571 0.194196429 0 0.194196429 0 3.98881696 1.33928571 3.98881696"></polygon>
    </defs>
    <g id="Secondary-Screens" stroke="none" stroke-width="1" fill="none" fill-rule="evenodd">
        <g id="Career" transform="translate(-277.000000, -1012.000000)">
            <g id="About-Dataguru_dark" transform="translate(0.000000, 339.000000)">
                <g id="Benefits" transform="translate(203.000000, 414.000000)">
                    <g id="4" transform="translate(74.000000, 259.000000)">
                        <g id="ic_fun">
                            <g id="Illustration_Key-Executives">
                                <ellipse id="Oval-3-Copy-2" fill="#FFD794" cx="57.9900498" cy="16" rx="1.99004975" ry="2"></ellipse>
                                <ellipse id="Oval-3-Copy-3" fill="#FFD794" cx="1.99004975" cy="42" rx="1.99004975" ry="2"></ellipse>
                                <ellipse id="Oval-3-Copy" fill="#B8E986" cx="53.9900498" cy="50" rx="1.99004975" ry="2"></ellipse>
                                <ellipse id="Oval-4" fill="#FBAAB4" cx="2.98507463" cy="3" rx="2.98507463" ry="3"></ellipse>
                            </g>
                            <g id="Group-4" transform="translate(1.000000, 1.000000)">
                                <path d="M10.9375,8.03569196 C11.3839286,8.48212054 11.3839286,9.37497768 10.9375,9.82140625 C10.4910714,10.2678348 9.82142857,10.2678348 9.375,9.82140625 C8.70535714,9.37497768 8.70535714,8.48212054 9.375,8.03569196 C9.82142857,7.58926339 10.4910714,7.58926339 10.9375,8.03569196" id="Fill-1" fill="#0155FF"></path>
                                <path d="M12.9464286,12.723192 C12.9464286,13.3928348 12.2767857,13.8392634 11.6071429,13.8392634 C10.9375,13.8392634 10.4910714,13.3928348 10.4910714,12.723192 C10.4910714,12.0535491 10.9375,11.3839063 11.6071429,11.3839063 C12.2767857,11.3839063 12.9464286,12.0535491 12.9464286,12.723192" id="Fill-3" fill="#0155FF"></path>
                                <path d="M10.9375,17.1874777 C10.4910714,17.6339062 9.82142857,17.6339062 9.375,17.1874777 C8.70535714,16.7410491 8.70535714,15.848192 9.375,15.4017634 C9.82142857,14.9553348 10.4910714,14.9553348 10.9375,15.4017634 C11.3839286,15.848192 11.3839286,16.7410491 10.9375,17.1874777" id="Fill-5" fill="#0155FF"></path>
                                <path d="M6.47321429,18.973192 C5.80357143,18.973192 5.13392857,18.5267634 5.13392857,17.8571205 C5.13392857,17.1874777 5.80357143,16.7410491 6.47321429,16.7410491 C7.14285714,16.7410491 7.58928571,17.1874777 7.58928571,17.8571205 C7.58928571,18.5267634 7.14285714,18.973192 6.47321429,18.973192" id="Fill-7" fill="#0155FF"></path>
                                <path d="M1.78571429,17.1874777 C1.33928571,16.7410491 1.33928571,15.848192 1.78571429,15.4017634 C2.45535714,14.9553348 3.125,14.9553348 3.57142857,15.4017634 C4.01785714,15.848192 4.01785714,16.7410491 3.57142857,17.1874777 C3.125,17.6339062 2.45535714,17.6339062 1.78571429,17.1874777" id="Fill-9" fill="#0155FF"></path>
                                <path d="M0,12.723192 C0,12.0535491 0.446428571,11.3839063 1.11607143,11.3839063 C1.78571429,11.3839063 2.45535714,12.0535491 2.45535714,12.723192 C2.45535714,13.3928348 1.78571429,13.8392634 1.11607143,13.8392634 C0.446428571,13.8392634 0,13.3928348 0,12.723192" id="Fill-11" fill="#0155FF"></path>
                                <path d="M1.78571429,8.03569196 C2.45535714,7.58926339 3.125,7.58926339 3.57142857,8.03569196 C4.01785714,8.48212054 4.01785714,9.37497768 3.57142857,9.82140625 C3.125,10.2678348 2.45535714,10.2678348 1.78571429,9.82140625 C1.33928571,9.37497768 1.33928571,8.48212054 1.78571429,8.03569196" id="Fill-13" fill="#0155FF"></path>
                                <path d="M6.47321429,6.24997768 C7.14285714,6.24997768 7.58928571,6.69640625 7.58928571,7.36604911 C7.58928571,8.03569196 7.14285714,8.70533482 6.47321429,8.70533482 C5.80357143,8.70533482 5.13392857,8.03569196 5.13392857,7.36604911 C5.13392857,6.69640625 5.80357143,6.24997768 6.47321429,6.24997768" id="Fill-15" fill="#0155FF"></path>
                                <path d="M6.47321429,10.9374777 C7.36607143,10.9374777 8.03571429,11.8303348 8.03571429,12.723192 C8.03571429,13.6160491 7.36607143,14.285692 6.47321429,14.285692 C5.58035714,14.285692 4.91071429,13.6160491 4.91071429,12.723192 C4.91071429,11.8303348 5.58035714,10.9374777 6.47321429,10.9374777" id="Fill-17" fill="#0155FF"></path>
                                <path d="M29.0178571,35.0446205 C29.4642857,35.4910491 29.4642857,36.160692 29.0178571,36.6071205 C28.5714286,36.8303348 27.9017857,36.8303348 27.6785714,36.6071205 C27.2321429,36.160692 27.2321429,35.4910491 27.6785714,35.0446205 C27.9017857,34.598192 28.5714286,34.598192 29.0178571,35.0446205" id="Fill-19" fill="#0155FF"></path>
                                <path d="M30.5803571,38.8392634 C30.5803571,39.5089063 30.1339286,39.9553348 29.6875,39.9553348 C29.0178571,39.9553348 28.5714286,39.5089063 28.5714286,38.8392634 C28.5714286,38.3928348 29.0178571,37.9464063 29.6875,37.9464063 C30.1339286,37.9464063 30.5803571,38.3928348 30.5803571,38.8392634" id="Fill-21" fill="#0155FF"></path>
                                <path d="M29.0178571,42.6339062 C28.5714286,43.0803348 27.9017857,43.0803348 27.6785714,42.6339062 C27.2321429,42.1874777 27.2321429,41.5178348 27.6785714,41.2946205 C27.9017857,40.848192 28.5714286,40.848192 29.0178571,41.2946205 C29.4642857,41.5178348 29.4642857,42.1874777 29.0178571,42.6339062" id="Fill-23" fill="#0155FF"></path>
                                <path d="M25.2232143,44.1964063 C24.7767857,44.1964063 24.3303571,43.7499777 24.3303571,43.3035491 C24.3303571,42.6339063 24.7767857,42.1874777 25.2232143,42.1874777 C25.8928571,42.1874777 26.3392857,42.6339063 26.3392857,43.3035491 C26.3392857,43.7499777 25.8928571,44.1964063 25.2232143,44.1964063" id="Fill-25" fill="#0155FF"></path>
                                <path d="M21.4285714,42.6339062 C20.9821429,42.1874777 20.9821429,41.5178348 21.4285714,41.2946205 C21.875,40.848192 22.5446429,40.848192 22.9910714,41.2946205 C23.2142857,41.5178348 23.2142857,42.1874777 22.9910714,42.6339062 C22.5446429,43.0803348 21.875,43.0803348 21.4285714,42.6339062" id="Fill-27" fill="#0155FF"></path>
                                <path d="M19.8660714,38.8392634 C19.8660714,38.3928348 20.3125,37.9464063 20.9821429,37.9464063 C21.4285714,37.9464063 21.875,38.3928348 21.875,38.8392634 C21.875,39.5089063 21.4285714,39.9553348 20.9821429,39.9553348 C20.3125,39.9553348 19.8660714,39.5089063 19.8660714,38.8392634" id="Fill-29" fill="#0155FF"></path>
                                <path d="M21.4285714,35.0446205 C21.875,34.598192 22.5446429,34.598192 22.9910714,35.0446205 C23.2142857,35.4910491 23.2142857,36.160692 22.9910714,36.6071205 C22.5446429,36.8303348 21.875,36.8303348 21.4285714,36.6071205 C20.9821429,36.160692 20.9821429,35.4910491 21.4285714,35.0446205" id="Fill-31" fill="#0155FF"></path>
                                <path d="M25.2232143,33.4821205 C25.8928571,33.4821205 26.3392857,33.9285491 26.3392857,34.598192 C26.3392857,35.0446205 25.8928571,35.4910491 25.2232143,35.4910491 C24.7767857,35.4910491 24.3303571,35.0446205 24.3303571,34.598192 C24.3303571,33.9285491 24.7767857,33.4821205 25.2232143,33.4821205" id="Fill-33" fill="#0155FF"></path>
                                <path d="M25.2232143,37.4999777 C25.8928571,37.4999777 26.5625,38.1696205 26.5625,38.8392634 C26.5625,39.5089063 25.8928571,40.1785491 25.2232143,40.1785491 C24.5535714,40.1785491 23.8839286,39.5089063 23.8839286,38.8392634 C23.8839286,38.1696205 24.5535714,37.4999777 25.2232143,37.4999777" id="Fill-35" fill="#0155FF"></path>
                                <g id="Group-39" transform="translate(30.133929, 0.029018)">
                                    <mask id="mask-2" fill="white">
                                        <use xlink:href="#path-1"></use>
                                    </mask>
                                    <g id="Clip-38"></g>
                                    <path d="M1.33928571,3.31917411 C1.33928571,3.76560268 1.11607143,3.98881696 0.669642857,3.98881696 C0.223214286,3.98881696 0,3.76560268 0,3.31917411 L0,0.640602679 C0,0.417388393 0.223214286,0.194174107 0.669642857,0.194174107 C1.11607143,0.194174107 1.33928571,0.417388393 1.33928571,0.640602679 L1.33928571,3.31917411 Z" id="Fill-37" fill="#016BFF" mask="url(#mask-2)"></path>
                                </g>
                                <path d="M29.2410714,3.79462054 C29.4642857,4.01783482 29.4642857,4.46426339 29.2410714,4.68747768 C28.7946429,4.91069196 28.5714286,4.91069196 28.3482143,4.68747768 L26.3392857,2.90176339 C26.1160714,2.67854911 26.3392857,2.23212054 26.5625,2.00890625 C26.7857143,1.78569196 27.2321429,1.78569196 27.4553571,2.00890625 L29.2410714,3.79462054 Z" id="Fill-40" fill="#0155FF"></path>
                                <path d="M27.9017857,5.58033482 C28.3482143,5.58033482 28.5714286,6.02676339 28.5714286,6.24997768 C28.5714286,6.69640625 28.3482143,6.91962054 27.9017857,6.91962054 L25.2232143,6.91962054 C25,6.91962054 24.7767857,6.69640625 24.7767857,6.24997768 C24.7767857,6.02676339 25,5.58033482 25.2232143,5.58033482 L27.9017857,5.58033482 Z" id="Fill-42" fill="#0155FF"></path>
                                <path d="M28.3482143,7.81247768 C28.5714286,7.58926339 28.7946429,7.58926339 29.2410714,8.03569196 C29.4642857,8.25890625 29.4642857,8.48212054 29.2410714,8.70533482 L27.4553571,10.7142634 C27.2321429,10.9374777 26.7857143,10.9374777 26.5625,10.4910491 C26.3392857,10.2678348 26.1160714,10.0446205 26.3392857,9.82140625 L28.3482143,7.81247768 Z" id="Fill-44" fill="#0155FF"></path>
                                <path d="M30.1339286,9.15176339 C30.1339286,8.92854911 30.3571429,8.70533482 30.8035714,8.70533482 C31.25,8.70533482 31.4732143,8.92854911 31.4732143,9.15176339 L31.4732143,11.8303348 C31.4732143,12.0535491 31.25,12.2767634 30.8035714,12.2767634 C30.3571429,12.2767634 30.1339286,12.0535491 30.1339286,11.8303348 L30.1339286,9.15176339 Z" id="Fill-46" fill="#0155FF"></path>
                                <path d="M32.3660714,8.70533482 C32.1428571,8.48212054 32.1428571,8.25890625 32.3660714,8.03569196 C32.5892857,7.58926339 33.0357143,7.58926339 33.2589286,7.81247768 L35.2678571,9.82140625 C35.4910714,10.0446205 35.2678571,10.2678348 35.0446429,10.4910491 C34.8214286,10.9374777 34.375,10.9374777 34.1517857,10.7142634 L32.3660714,8.70533482 Z" id="Fill-48" fill="#0155FF"></path>
                                <path d="M33.7053571,6.91962054 C33.2589286,6.91962054 33.0357143,6.69640625 33.0357143,6.24997768 C33.0357143,6.02676339 33.2589286,5.58033482 33.7053571,5.58033482 L36.3839286,5.58033482 C36.6071429,5.58033482 36.8303571,6.02676339 36.8303571,6.24997768 C36.8303571,6.69640625 36.6071429,6.91962054 36.3839286,6.91962054 L33.7053571,6.91962054 Z" id="Fill-50" fill="#0155FF"></path>
                                <path d="M33.2589286,4.68747768 C33.0357143,4.91069196 32.5892857,4.91069196 32.3660714,4.68747768 C32.1428571,4.46426339 32.1428571,4.01783482 32.3660714,3.79462054 L34.1517857,2.00890625 C34.375,1.78569196 34.8214286,1.78569196 35.0446429,2.00890625 C35.2678571,2.23212054 35.4910714,2.67854911 35.2678571,2.90176339 L33.2589286,4.68747768 Z" id="Fill-52" fill="#0155FF"></path>
                                <path d="M51.7857143,16.2946205 C51.7857143,16.5178348 51.5625,16.7410491 51.1160714,16.7410491 C50.8928571,16.7410491 50.4464286,16.5178348 50.4464286,16.2946205 L50.4464286,13.6160491 C50.4464286,13.1696205 50.8928571,12.9464063 51.1160714,12.9464063 C51.5625,12.9464063 51.7857143,13.1696205 51.7857143,13.6160491 L51.7857143,16.2946205 Z" id="Fill-54" fill="#0155FF"></path>
                                <path d="M49.5535714,16.5178348 C49.7767857,16.7410491 49.7767857,17.1874777 49.5535714,17.410692 C49.3303571,17.6339062 48.8839286,17.6339062 48.6607143,17.410692 L46.875,15.6249777 C46.6517857,15.4017634 46.6517857,14.9553348 46.875,14.7321205 C47.0982143,14.5089062 47.5446429,14.5089062 47.7678571,14.7321205 L49.5535714,16.5178348 Z" id="Fill-56" fill="#0155FF"></path>
                                <path d="M48.2142857,18.3035491 C48.6607143,18.3035491 48.8839286,18.7499777 48.8839286,18.973192 C48.8839286,19.4196205 48.6607143,19.6428348 48.2142857,19.6428348 L45.5357143,19.6428348 C45.3125,19.6428348 45.0892857,19.4196205 45.0892857,18.973192 C45.0892857,18.7499777 45.3125,18.3035491 45.5357143,18.3035491 L48.2142857,18.3035491 Z" id="Fill-58" fill="#0155FF"></path>
                                <path d="M48.6607143,20.535692 C48.8839286,20.3124777 49.3303571,20.535692 49.5535714,20.7589062 C49.7767857,20.9821205 49.7767857,21.4285491 49.5535714,21.4285491 L47.7678571,23.4374777 C47.5446429,23.660692 47.0982143,23.660692 46.875,23.4374777 C46.6517857,22.9910491 46.6517857,22.7678348 46.875,22.5446205 L48.6607143,20.535692 Z" id="Fill-60" fill="#0155FF"></path>
                                <path d="M50.4464286,21.8749777 C50.4464286,21.6517634 50.8928571,21.4285491 51.1160714,21.4285491 C51.5625,21.4285491 51.7857143,21.6517634 51.7857143,21.8749777 L51.7857143,24.5535491 C51.7857143,24.7767634 51.5625,25.223192 51.1160714,25.223192 C50.8928571,25.223192 50.4464286,24.7767634 50.4464286,24.5535491 L50.4464286,21.8749777 Z" id="Fill-62" fill="#0155FF"></path>
                                <path d="M52.6785714,21.4285491 C52.4553571,21.4285491 52.4553571,20.9821205 52.9017857,20.7589062 C53.125,20.535692 53.3482143,20.3124777 53.5714286,20.535692 L55.5803571,22.5446205 C55.8035714,22.7678348 55.8035714,22.9910491 55.3571429,23.4374777 C55.1339286,23.660692 54.9107143,23.660692 54.6875,23.4374777 L52.6785714,21.4285491 Z" id="Fill-64" fill="#0155FF"></path>
                                <path d="M54.0178571,19.6428348 C53.7946429,19.6428348 53.5714286,19.4196205 53.5714286,18.973192 C53.5714286,18.7499777 53.7946429,18.3035491 54.0178571,18.3035491 L56.6964286,18.3035491 C56.9196429,18.3035491 57.1428571,18.7499777 57.1428571,18.973192 C57.1428571,19.4196205 56.9196429,19.6428348 56.6964286,19.6428348 L54.0178571,19.6428348 Z" id="Fill-66" fill="#0155FF"></path>
                                <path d="M53.5714286,17.410692 C53.3482143,17.6339062 53.125,17.6339062 52.9017857,17.410692 C52.4553571,17.1874777 52.4553571,16.7410491 52.6785714,16.5178348 L54.6875,14.7321205 C54.9107143,14.5089062 55.1339286,14.5089062 55.3571429,14.7321205 C55.8035714,14.9553348 55.8035714,15.4017634 55.5803571,15.6249777 L53.5714286,17.410692 Z" id="Fill-68" fill="#0155FF"></path>
                                <path d="M40.8482143,34.3749777 C38.3928571,35.2678348 35.4910714,33.7053348 34.5982143,31.2499777 L31.6964286,22.5446205 C35.7142857,21.4285491 38.3928571,24.5535491 42.1875,22.7678348 L43.9732143,28.1249777 C44.8660714,30.5803348 43.5267857,33.4821205 40.8482143,34.3749777 Z M31.6964286,16.7410491 C32.1428571,16.7410491 32.5892857,16.9642634 32.8125,17.410692 L33.7053571,20.0892634 C33.9285714,20.3124777 33.7053571,20.9821205 33.2589286,20.9821205 C32.8125,21.2053348 32.3660714,20.9821205 32.1428571,20.535692 L31.25,17.8571205 C31.25,17.410692 31.4732143,16.9642634 31.6964286,16.7410491 Z M21.4285714,27.6785491 C20.3125,30.1339063 17.4107143,31.2499777 14.9553571,30.1339063 C12.5,29.0178348 11.6071429,26.1160491 12.7232143,23.660692 L14.9553571,18.3035491 C18.5267857,20.535692 21.4285714,17.6339063 25.2232143,19.4196205 L21.4285714,27.6785491 Z M17.1875,14.5089063 L18.0803571,11.8303348 C18.3035714,11.6071205 18.75,11.3839063 19.1964286,11.3839063 C19.6428571,11.6071205 19.8660714,12.0535491 19.6428571,12.4999777 L18.5267857,15.1785491 C18.5267857,15.6249777 17.8571429,15.848192 17.6339286,15.6249777 C17.1875,15.4017634 16.9642857,14.9553348 17.1875,14.5089063 Z M50.4464286,44.6428348 L47.5446429,45.0892634 C46.6517857,45.0892634 45.7589286,44.6428348 45.5357143,43.7499777 L43.5267857,37.723192 C43.0803571,36.6071205 43.5267857,35.4910491 44.1964286,34.598192 C46.2053571,32.8124777 46.875,30.1339063 45.9821429,27.4553348 L41.0714286,12.9464063 C40.625,11.6071205 32.5892857,13.8392634 29.2410714,15.848192 L29.6875,14.7321205 C30.5803571,12.9464063 17.8571429,6.91962054 16.9642857,8.92854911 L10.7142857,22.7678348 C9.59821429,25.223192 10.0446429,28.1249777 11.6071429,30.1339063 C12.5,31.0267634 12.7232143,31.9196205 12.0535714,33.035692 L9.375,39.0624777 C9.15178571,39.7321205 8.25892857,40.1785491 7.36607143,40.1785491 L4.46428571,39.285692 C2.90178571,38.8392634 2.67857143,39.9553348 3.79464286,40.848192 C6.91964286,43.0803348 10.4910714,44.6428348 14.2857143,45.535692 C15.625,45.7589063 16.2946429,44.8660491 14.9553571,43.973192 L12.5,42.1874777 C11.8303571,41.9642634 11.6071429,40.848192 12.0535714,40.1785491 L14.7321429,34.1517634 C15.1785714,33.2589063 16.0714286,32.8124777 17.1875,32.5892634 C19.8660714,32.5892634 22.3214286,31.0267634 23.4375,28.5714063 L28.125,18.5267634 L32.5892857,31.9196205 C33.4821429,34.598192 35.9375,36.3839063 38.6160714,36.6071205 C39.7321429,36.8303348 40.4017857,37.4999777 40.8482143,38.3928348 L42.8571429,44.8660491 C43.0803571,45.535692 42.8571429,46.4285491 42.1875,46.8749777 L39.5089286,48.2142634 C38.1696429,48.8839063 38.6160714,49.9999777 40.1785714,49.7767634 C43.9732143,49.3303348 47.5446429,47.9910491 50.8928571,46.2053348 C52.2321429,45.3124777 52.0089286,44.4196205 50.4464286,44.6428348 Z" id="Fill-70" fill="#0155FF"></path>
                            </g>
                        </g>
                    </g>
                </g>
            </g>
        </g>
    </g>
</svg>