<?xml version="1.0" encoding="UTF-8"?>
<svg width="15px" height="15px" viewBox="0 0 15 15" version="1.1" xmlns="http://www.w3.org/2000/svg" xmlns:xlink="http://www.w3.org/1999/xlink">
    <!-- Generator: sketchtool 52.6 (67491) - http://www.bohemiancoding.com/sketch -->
    <title>441FD4F8-4BF7-4E1B-AD9E-BB504F29C37B@1x</title>
    <desc>Created with sketchtool.</desc>
    <g id="Contacts" stroke="none" stroke-width="1" fill="none" fill-rule="evenodd">
        <g id="Contacts_landing-_Card-view" transform="translate(-1181.000000, -627.000000)" stroke="#0155FF">
            <g id="Content" transform="translate(120.000000, 90.000000)">
                <g transform="translate(0.000000, 48.000000)" id="card-view">
                    <g transform="translate(234.000000, 50.000000)">
                        <g id="1-copy-6" transform="translate(0.000000, 332.000000)">
                            <g id="button-bar-copy" transform="translate(20.000000, 107.000000)">
                                <g id="Action-buttons" transform="translate(807.000000, 0.000000)">
                                    <g id="Send-Email">
                                        <g id="ic_follow-up">
                                            <rect id="Rectangle-5" x="0.5" y="0.5" width="14" height="14" rx="7"></rect>
                                            <path d="M4.97151965,4.03579537 L6.20759641,6.8570699 C6.24718992,6.94764315 6.24718992,7.05239559 6.20759641,7.14306529 L4.97151965,9.96424336 L10.9345007,7.00001937 L4.97151965,4.03579537 Z M4.31650925,11 C4.23424876,11 4.15316343,10.9658542 4.09250762,10.9009385 C3.99849564,10.8004302 3.97345591,10.6480279 4.0297727,10.5193541 L5.57174999,7.00001937 L4.0297727,3.4806846 C3.97345591,3.35201079 3.99849564,3.19960853 4.09250762,3.0991002 C4.18642921,2.99859188 4.3293455,2.97158388 4.45002434,3.03167667 L11.817219,6.69405736 C11.9286774,6.74942375 12,6.86883767 12,7.00001937 C12,7.13120106 11.9286774,7.25061499 11.817219,7.30598138 L4.45002434,10.9683621 C4.40726697,10.9896791 4.36170731,11 4.31650925,11 L4.31650925,11 Z" id="Fill-1" stroke-width="0.3" fill="#0155FF" transform="translate(8.000000, 7.000000) rotate(-40.000000) translate(-8.000000, -7.000000) "></path>
                                        </g>
                                    </g>
                                </g>
                            </g>
                        </g>
                    </g>
                </g>
            </g>
        </g>
    </g>
</svg>