<?xml version="1.0" encoding="UTF-8"?>
<svg width="16px" height="16px" viewBox="0 0 16 16" version="1.1" xmlns="http://www.w3.org/2000/svg" xmlns:xlink="http://www.w3.org/1999/xlink">
    <!-- Generator: sketchtool 49.3 (51167) - http://www.bohemiancoding.com/sketch -->
    <title>238AAA47-9D07-42C5-BEBC-99B580FA13BD</title>
    <desc>Created with sketchtool.</desc>
    <defs></defs>
    <g id="Company-Screens" stroke="none" stroke-width="1" fill="none" fill-rule="evenodd">
        <g id="DG_C_Detail" transform="translate(-1025.000000, -237.000000)" fill="#F95C6C">
            <g id="Buttons" transform="translate(1013.000000, 225.000000)">
                <g id="Report-an-Error">
                    <path d="M26.4,14.4 C26.4,13.9576 26.0416,13.6 25.6,13.6 L16.8,13.6 L16.8,20 L25.6,20 C26.0416,20 26.4,19.6424 26.4,19.2 L26.4,14.4 Z M28,13.6 L28,20 C28,20.8832 27.2832,21.6 26.4,21.6 L15.2,21.6 L15.2,12 L26.4,12 C27.2832,12 28,12.7168 28,13.6 Z M12.8,12 L13.6,12 L13.6,27.2 C13.6,27.6424 13.2416,28 12.8,28 C12.3584,28 12,27.6424 12,27.2 L12,12.8 C12,12.3576 12.3584,12 12.8,12 Z" id="ic_flag-copy"></path>
                </g>
            </g>
        </g>
    </g>
</svg>