<?xml version="1.0" encoding="UTF-8"?>
<svg width="189px" height="137px" viewBox="0 0 189 137" version="1.1" xmlns="http://www.w3.org/2000/svg" xmlns:xlink="http://www.w3.org/1999/xlink">
    <!-- Generator: Sketch 48.2 (47327) - http://www.bohemiancoding.com/sketch -->
    <title>Illustration_Org Chart</title>
    <desc>Created with Sketch.</desc>
    <defs></defs>
    <g id="DG_Home_Company-Detail_blurred" stroke="none" stroke-width="1" fill="none" fill-rule="evenodd" transform="translate(-651.000000, -826.000000)">
        <g id="Company-info-Copy-2" transform="translate(124.000000, 688.000000)">
            <g id="Illustration_Org-Chart" transform="translate(524.000000, 132.000000)">
                <path d="M21.2253445,32.3250632 L160.225345,32.3250632 C166.576619,32.3250632 171.725345,37.4737886 171.725345,43.8250632 C171.725345,50.1763378 166.576619,55.3250632 160.225345,55.3250632 L21.2253445,55.3250632 C14.8740699,55.3250632 9.72534454,50.1763378 9.72534454,43.8250632 C9.72534454,37.4737886 14.8740699,32.3250632 21.2253445,32.3250632 Z M40.7028877,64.8081779 L179.702888,64.8081779 C186.054162,64.8081779 191.202888,69.9569033 191.202888,76.3081779 C191.202888,82.6594525 186.054162,87.8081779 179.702888,87.8081779 L40.7028877,87.8081779 C34.351613,87.8081779 29.2028877,82.6594525 29.2028877,76.3081779 C29.2028877,69.9569033 34.351613,64.8081779 40.7028877,64.8081779 Z M34.3377044,96.027326 L173.337704,96.027326 C179.688979,96.027326 184.837704,101.176051 184.837704,107.527326 C184.837704,113.878601 179.688979,119.027326 173.337704,119.027326 L34.3377044,119.027326 C27.9864297,119.027326 22.8377044,113.878601 22.8377044,107.527326 C22.8377044,101.176051 27.9864297,96.027326 34.3377044,96.027326 Z" id="Combined-Shape" fill="#0164CF" opacity="0.100000001" transform="translate(100.464116, 75.676195) rotate(-23.000000) translate(-100.464116, -75.676195) "></path>
                <circle id="Oval-2" fill="#F0F6FD" cx="107" cy="72" r="66"></circle>
                <rect id="Rectangle-7" fill="#55ACEE" x="50" y="23" width="21" height="3" rx="1.5"></rect>
                <rect id="Rectangle-7-Copy" fill="#55ACEE" x="44" y="28" width="21" height="3" rx="1.5"></rect>
                <rect id="Rectangle-8" fill="#0164CF" x="169" y="20" width="18" height="3" rx="1.5"></rect>
                <path d="M170.791667,118.791667 L170.791667,114.958333 C170.791667,114.42906 171.220727,114 171.75,114 C172.279273,114 172.708333,114.42906 172.708333,114.958333 L172.708333,118.791667 L176.541667,118.791667 C177.07094,118.791667 177.5,119.220727 177.5,119.75 C177.5,120.279273 177.07094,120.708333 176.541667,120.708333 L172.708333,120.708333 L172.708333,124.541667 C172.708333,125.07094 172.279273,125.5 171.75,125.5 C171.220727,125.5 170.791667,125.07094 170.791667,124.541667 L170.791667,120.708333 L166.958333,120.708333 C166.42906,120.708333 166,120.279273 166,119.75 C166,119.220727 166.42906,118.791667 166.958333,118.791667 L170.791667,118.791667 Z" id="Combined-Shape" fill="#3C5A99"></path>
                <path d="M73.7916667,10.7916667 L73.7916667,6.95833333 C73.7916667,6.42906045 74.2207271,6 74.75,6 C75.2792729,6 75.7083333,6.42906045 75.7083333,6.95833333 L75.7083333,10.7916667 L79.5416667,10.7916667 C80.0709396,10.7916667 80.5,11.2207271 80.5,11.75 C80.5,12.2792729 80.0709396,12.7083333 79.5416667,12.7083333 L75.7083333,12.7083333 L75.7083333,16.5416667 C75.7083333,17.0709396 75.2792729,17.5 74.75,17.5 C74.2207271,17.5 73.7916667,17.0709396 73.7916667,16.5416667 L73.7916667,12.7083333 L69.9583333,12.7083333 C69.4290604,12.7083333 69,12.2792729 69,11.75 C69,11.2207271 69.4290604,10.7916667 69.9583333,10.7916667 L73.7916667,10.7916667 Z" id="Combined-Shape-Copy" fill="#8D95A5"></path>
                <circle id="Oval-3" fill="#FFD794" cx="163" cy="38" r="6"></circle>
                <circle id="Oval-4" fill="#DA4B42" cx="50" cy="116" r="4"></circle>
                <path d="M133.5,84.1163333 L133.5,67.8333333 L108.166667,67.8333333 L108.166667,57.8836667 C113.613333,56.4681667 118.666667,51.5503333 118.666667,45.6666667 C118.666667,38.681 112.985667,33 106,33 C99.0143333,33 93.3333333,38.681 93.3333333,45.6666667 C93.3333333,51.5503333 98.3866667,56.4681667 103.833333,57.8836667 L103.833333,67.8333333 L78.5,67.8333333 L78.5,84.1163333 C73.0533333,85.5318333 68,90.4496667 68,96.3333333 C68,103.319 73.681,109 80.6666667,109 C87.6523333,109 93.3333333,103.319 93.3333333,96.3333333 C93.3333333,90.4496667 89.28,85.5318333 83.8333333,84.1163333 L83.8333333,73.1666667 L128.166667,73.1666667 L128.166667,84.1163333 C122.72,85.5318333 118.666667,90.4496667 118.666667,96.3333333 C118.666667,103.319 124.347667,109 131.333333,109 C138.319,109 144,103.319 144,96.3333333 C144,90.4496667 138.946667,85.5318333 133.5,84.1163333 Z M98,46 C98,41.588 101.588,38 106,38 C110.412,38 114,41.588 114,46 C114,50.412 110.412,54 106,54 C101.588,54 98,50.412 98,46 Z M88,96.5 C88,100.63625 84.63625,104 80.5,104 C76.36375,104 73,100.63625 73,96.5 C73,92.36375 76.36375,89 80.5,89 C84.63625,89 88,92.36375 88,96.5 Z M131.5,104 C127.36375,104 124,100.63625 124,96.5 C124,92.36375 127.36375,89 131.5,89 C135.63625,89 139,92.36375 139,96.5 C139,100.63625 135.63625,104 131.5,104 Z" id="ic_hierarchy" fill="#0164CF" fill-rule="nonzero"></path>
            </g>
        </g>
    </g>
</svg>