<?xml version="1.0" encoding="UTF-8"?>
<svg width="14px" height="14px" viewBox="0 0 14 14" version="1.1" xmlns="http://www.w3.org/2000/svg" xmlns:xlink="http://www.w3.org/1999/xlink">
    <!-- Generator: sketchtool 52.6 (67491) - http://www.bohemiancoding.com/sketch -->
    <title>E3B3D382-14D4-4E60-9D1F-B3DC72C4CA15@1x</title>
    <desc>Created with sketchtool.</desc>
    <g id="Contacts" stroke="none" stroke-width="1" fill="none" fill-rule="evenodd">
        <g id="Contacts_landing" transform="translate(-362.000000, -146.000000)" fill="#808FA5">
            <g id="Content" transform="translate(120.000000, 90.000000)">
                <g transform="translate(0.000000, 48.000000)" id="grid-list">
                    <g transform="translate(234.000000, 0.000000)">
                        <path d="M8,8 L12,8 L12,12 L8,12 L8,8 Z M8,13 L12,13 L12,17 L8,17 L8,13 Z M8,18 L12,18 L12,22 L8,22 L8,18 Z M13,8 L17,8 L17,12 L13,12 L13,8 Z M18,8 L22,8 L22,12 L18,12 L18,8 Z M13,13 L17,13 L17,17 L13,17 L13,13 Z M13,18 L17,18 L17,22 L13,22 L13,18 Z M18,13 L22,13 L22,17 L18,17 L18,13 Z M18,18 L22,18 L22,22 L18,22 L18,18 Z" id="ic_grid"></path>
                    </g>
                </g>
            </g>
        </g>
    </g>
</svg>