<?xml version="1.0" encoding="UTF-8"?>
<svg width="60px" height="56px" viewBox="0 0 60 56" version="1.1" xmlns="http://www.w3.org/2000/svg" xmlns:xlink="http://www.w3.org/1999/xlink">
    <!-- Generator: sketchtool 49.3 (51167) - http://www.bohemiancoding.com/sketch -->
    <title>511B4582-B238-4586-8C6A-94705F923436</title>
    <desc>Created with sketchtool.</desc>
    <defs></defs>
    <g id="Secondary-Screens" stroke="none" stroke-width="1" fill="none" fill-rule="evenodd">
        <g id="About" transform="translate(-301.000000, -867.000000)">
            <g id="About-Dataguru_dark" transform="translate(-1.000000, 165.000000)">
                <g id="Our-Aim" transform="translate(172.000000, 677.000000)">
                    <g id="1" transform="translate(40.000000, 25.000000)">
                        <g id="ic_1" transform="translate(90.000000, 0.000000)">
                            <path d="M43.8241,16.8916 C40.2681,13.3366 35.5421,11.3786 30.5131,11.3786 C25.4851,11.3786 20.7581,13.3366 17.2031,16.8916 C16.6951,17.3996 15.8091,17.3996 15.3011,16.8916 C15.0471,16.6376 14.9071,16.3006 14.9071,15.9406 C14.9071,15.5816 15.0481,15.2446 15.3011,14.9896 C19.3651,10.9276 24.7671,8.6886 30.5131,8.6886 C36.2611,8.6886 41.6621,10.9276 45.7251,14.9896 C45.9801,15.2436 46.1191,15.5816 46.1191,15.9406 C46.1191,16.3006 45.9791,16.6376 45.7251,16.8916 C45.2181,17.3996 44.3321,17.3996 43.8241,16.8916 Z M46.6481,34.9086 L49.3381,34.9086 L49.3381,35.6186 C49.3381,38.0086 48.3451,40.2186 46.6481,41.7786 L46.6481,34.9086 Z M41.2701,44.9936 L41.2701,32.8916 C41.2701,32.1506 41.8731,31.5476 42.6151,31.5476 C43.3561,31.5476 43.9601,32.1506 43.9601,32.8916 L43.9601,44.9936 C43.9601,45.7346 43.3561,46.3376 42.6151,46.3376 C41.8731,46.3376 41.2701,45.7346 41.2701,44.9936 Z M35.8911,51.7156 C35.8911,52.4566 35.2891,53.0606 34.5481,53.0606 L31.8581,53.0606 C31.1161,53.0606 30.5131,52.4566 30.5131,51.7156 C30.5131,50.9746 31.1161,50.3716 31.8581,50.3716 L34.5481,50.3716 C35.2891,50.3716 35.8911,50.9746 35.8911,51.7156 Z M14.3781,41.7786 C12.6821,40.2186 11.6891,38.0086 11.6891,35.6186 L11.6891,34.9086 L14.3781,34.9086 L14.3781,41.7786 Z M19.7571,32.8916 L19.7571,44.9936 C19.7571,45.7346 19.1541,46.3376 18.4121,46.3376 C17.6701,46.3376 17.0681,45.7346 17.0681,44.9936 L17.0681,32.8916 C17.0681,32.1506 17.6701,31.5476 18.4121,31.5476 C19.1541,31.5476 19.7571,32.1506 19.7571,32.8916 Z M48.8091,15.9406 C48.8091,14.8636 48.3891,13.8496 47.6281,13.0886 C43.0551,8.5176 36.9791,5.9996 30.5131,5.9996 C24.0481,5.9996 17.9711,8.5176 13.4001,13.0886 C12.6381,13.8506 12.2191,14.8636 12.2191,15.9416 C12.2191,16.6846 12.4231,17.3966 12.7981,18.0176 C10.4051,21.4836 9.0001,25.6816 9.0001,30.2026 L9.0001,35.6186 C9.0001,39.5576 11.0441,43.1246 14.3851,45.1186 C14.4511,47.2846 16.2301,49.0276 18.4121,49.0276 C20.6371,49.0276 22.4461,47.2176 22.4461,44.9936 L22.4461,32.8916 C22.4461,30.6676 20.6371,28.8576 18.4121,28.8576 C16.4171,28.8576 14.7611,30.3146 14.4391,32.2196 L11.6891,32.2196 L11.6891,30.2026 C11.6891,26.3296 12.8661,22.7266 14.8791,19.7306 C15.3141,19.8886 15.7761,19.9746 16.2521,19.9746 C17.3291,19.9746 18.3431,19.5556 19.1051,18.7926 C22.1521,15.7456 26.2031,14.0676 30.5131,14.0676 C34.8241,14.0676 38.8751,15.7456 41.9231,18.7936 C42.6841,19.5556 43.6981,19.9746 44.7751,19.9746 C45.2521,19.9746 45.7141,19.8886 46.1481,19.7306 C48.1611,22.7276 49.3381,26.3296 49.3381,30.2026 L49.3381,32.2196 L46.5881,32.2196 C46.2661,30.3146 44.6101,28.8576 42.6151,28.8576 C40.3901,28.8576 38.5811,30.6676 38.5811,32.8916 L38.5811,44.9936 C38.5811,47.2176 40.3901,49.0276 42.6151,49.0276 C44.7971,49.0276 46.5751,47.2846 46.6421,45.1186 C47.6021,44.5446 48.4531,43.8386 49.1801,43.0346 C48.9281,45.2776 48.3691,47.4686 47.4941,49.5746 C47.2971,50.0506 46.8021,50.3716 46.2621,50.3716 L38.3451,50.3716 C37.7901,48.8076 36.3001,47.6826 34.5471,47.6826 L31.8581,47.6826 C29.6331,47.6826 27.8241,49.4926 27.8241,51.7156 C27.8241,53.9406 29.6331,55.7496 31.8581,55.7496 L34.5471,55.7496 C36.2991,55.7496 37.7901,54.6246 38.3451,53.0606 L46.2621,53.0606 C47.9011,53.0606 49.3591,52.0966 49.9781,50.6046 C51.3381,47.3296 52.0271,43.8706 52.0271,40.3256 L52.0271,30.2026 C52.0271,25.6816 50.6221,21.4836 48.2301,18.0166 C48.6041,17.3966 48.8091,16.6846 48.8091,15.9406 Z" id="Fill-1" fill="#0155FF"></path>
                            <g id="Illustration_Key-Executives">
                                <ellipse id="Oval-3-Copy-2" fill="#FFD794" cx="57.9900498" cy="16" rx="1.99004975" ry="2"></ellipse>
                                <ellipse id="Oval-3-Copy-3" fill="#FFD794" cx="1.99004975" cy="42" rx="1.99004975" ry="2"></ellipse>
                                <ellipse id="Oval-3-Copy" fill="#B8E986" cx="53.9900498" cy="50" rx="1.99004975" ry="2"></ellipse>
                                <ellipse id="Oval-4" fill="#FBAAB4" cx="2.98507463" cy="3" rx="2.98507463" ry="3"></ellipse>
                            </g>
                        </g>
                    </g>
                </g>
            </g>
        </g>
    </g>
</svg>