<?xml version="1.0" encoding="UTF-8"?>
<svg width="70px" height="69px" viewBox="0 0 70 69" version="1.1" xmlns="http://www.w3.org/2000/svg" xmlns:xlink="http://www.w3.org/1999/xlink">
    <!-- Generator: sketchtool 54.1 (76490) - https://sketchapp.com -->
    <title>B63AB9F1-BC15-44B3-855E-AA4041E101F7</title>
    <desc>Created with sketchtool.</desc>
    <defs>
        <linearGradient x1="101.999998%" y1="99.5532644%" x2="0%" y2="1.41836735%" id="linearGradient-1">
            <stop stop-color="#81EFD6" offset="0%"></stop>
            <stop stop-color="#9BAFF5" offset="100%"></stop>
        </linearGradient>
        <rect id="path-2" x="0" y="0" width="70" height="69" rx="19.6"></rect>
        <linearGradient x1="101.999998%" y1="57.8618653%" x2="0%" y2="42.2922888%" id="linearGradient-4">
            <stop stop-color="#9BAFF5" offset="0%"></stop>
            <stop stop-color="#81EFD6" offset="100%"></stop>
        </linearGradient>
    </defs>
    <g id="Page-1" stroke="none" stroke-width="1" fill="none" fill-rule="evenodd">
        <g id="Create-Campaign_Step-2D" transform="translate(-648.000000, -194.000000)">
            <g id="Group" transform="translate(99.000000, 137.000000)">
                <g id="CSV-" transform="translate(396.000000, 0.000000)">
                    <g id="Contacts" transform="translate(153.000000, 57.000000)">
                        <mask id="mask-3" fill="white">
                            <use xlink:href="#path-2"></use>
                        </mask>
                        <use id="main_pic-copy" fill="url(#linearGradient-1)" fill-rule="nonzero" xlink:href="#path-2"></use>
                        <path d="M34.5644604,29.0489994 L22.1513872,40.9438564 C18.659986,44.2302739 23.8970877,49.1610622 27.3897236,45.8746447 L31.6390129,41.8596226 C32.6063927,40.9455753 33.390948,41.2485801 33.390948,42.5367978 L33.390948,58.5223016 C33.390948,60.432505 35.0491732,62 37.0946975,62 C39.1360597,62 40.798447,60.4429814 40.798447,58.5223016 L40.798447,42.5367978 C40.798447,41.2555265 41.5829765,40.9453984 42.5507427,41.8596226 L46.8009061,45.8746447 C50.2923073,49.1610622 55.5306437,44.2302739 52.0392425,40.9438564 L39.7533908,29.0654206 C38.3169825,27.6766456 35.9990237,27.6743256 34.5644604,29.0489994 Z M16.4285714,16.1379339 L16.4285714,23.106984 C16.4285714,25.032374 14.765629,26.5932111 12.7142857,26.5932111 C10.6629424,26.5932111 9,25.032374 9,23.106984 L9,12.6429544 C9,10.073732 11.2316821,8 13.9529002,8 L56.0470998,8 C58.7798118,8 61,10.0878094 61,12.6429544 L61,23.106984 C61,25.032374 59.3370576,26.5932111 57.2857143,26.5932111 C55.234371,26.5932111 53.5714286,25.032374 53.5714286,23.106984 L53.5714286,16.1379339 C53.5714286,15.4813055 53.0181379,14.9724542 52.3356192,14.9724542 L17.6643808,14.9724542 C16.9824522,14.9724542 16.4285714,15.4942573 16.4285714,16.1379339 Z" id="ic_download-copy" fill="#FFFFFF" fill-rule="nonzero" opacity="0.200000003" mask="url(#mask-3)" transform="translate(35.000000, 35.000000) rotate(-180.000000) translate(-35.000000, -35.000000) "></path>
                        <path d="M68.109921,69 L2.35674563,69 C2.70535742,63.8760945 6.90847658,59.6974812 12.3703021,58.8169444 C14.0198472,49.943416 22.537123,43.1836735 32.7962963,43.1836735 C43.0949161,43.1836735 51.6382174,49.9954983 53.2410131,58.919394 C54.1116691,58.7403754 55.0177307,58.6458583 55.9481481,58.6458583 C62.4220649,58.6458583 67.7167992,63.2218853 68.109921,69 Z" id="Combined-Shape" fill="url(#linearGradient-4)" fill-rule="nonzero" mask="url(#mask-3)"></path>
                        <path d="M34.7822302,31.5244997 L28.5756936,37.4719282 C26.829993,39.1151369 29.4485439,41.5805311 31.1948618,39.9373223 L33.3195065,37.9298113 C33.8031963,37.4727877 34.195474,37.62429 34.195474,38.2683989 L34.195474,46.2611508 C34.195474,47.2162525 35.0245866,48 36.0473488,48 C37.0680298,48 37.8992235,47.2214907 37.8992235,46.2611508 L37.8992235,38.2683989 C37.8992235,37.6277632 38.2914882,37.4726992 38.7753713,37.9298113 L40.900453,39.9373223 C42.6461537,41.5805311 45.2653218,39.1151369 43.5196212,37.4719282 L37.3766954,31.5327103 C36.6584913,30.8383228 35.4995119,30.8371628 34.7822302,31.5244997 Z M25.7142857,25.068967 L25.7142857,28.553492 C25.7142857,29.516187 24.8828145,30.2966055 23.8571429,30.2966055 C22.8314712,30.2966055 22,29.516187 22,28.553492 L22,23.3214772 C22,22.036866 23.1158411,21 24.4764501,21 L45.5235499,21 C46.8899059,21 48,22.0439047 48,23.3214772 L48,28.553492 C48,29.516187 47.1685288,30.2966055 46.1428571,30.2966055 C45.1171855,30.2966055 44.2857143,29.516187 44.2857143,28.553492 L44.2857143,25.068967 C44.2857143,24.7406527 44.009069,24.4862271 43.6678096,24.4862271 L26.3321904,24.4862271 C25.9912261,24.4862271 25.7142857,24.7471286 25.7142857,25.068967 Z" id="ic_download" fill="#FFFFFF" fill-rule="nonzero" mask="url(#mask-3)" transform="translate(35.000000, 34.500000) rotate(-180.000000) translate(-35.000000, -34.500000) "></path>
                    </g>
                </g>
            </g>
        </g>
    </g>
</svg>