<?xml version="1.0" encoding="UTF-8"?>
<svg width="14px" height="14px" viewBox="0 0 14 14" version="1.1" xmlns="http://www.w3.org/2000/svg" xmlns:xlink="http://www.w3.org/1999/xlink">
    <!-- Generator: sketchtool 52.6 (67491) - http://www.bohemiancoding.com/sketch -->
    <title>196A449C-4933-42C4-B18D-1157EC08201B</title>
    <desc>Created with sketchtool.</desc>
    <g id="Account-Defaults" stroke="none" stroke-width="1" fill="none" fill-rule="evenodd">
        <g id="Admin_account-defaults_General-Info" transform="translate(-467.000000, -214.000000)" fill="#808FA5">
            <g id="Content" transform="translate(120.000000, 90.000000)">
                <g id="Account-defaults_general-info" transform="translate(233.000000, 48.000000)">
                    <g id="Details" transform="translate(21.000000, 72.000000)">
                        <path d="M99.992,9.993 L99.99201,9.993 C100.127157,9.99089246 100.2574,10.0435843 100.353065,10.1390696 C100.448729,10.2345548 100.501664,10.3646996 100.49981,10.49985 L100.49981,13.99985 C100.50236,14.180168 100.407622,14.3478907 100.251874,14.4387939 C100.096125,14.529697 99.9034952,14.529697 99.7477464,14.4387939 C99.5919976,14.3478907 99.4972599,14.180168 99.49981,13.99985 L99.49981,10.49985 C99.4960259,10.2240777 99.7162354,9.99730915 99.992,9.993 Z M100,8.5 C99.7238576,8.5 99.5,8.27614237 99.5,8 C99.5,7.72385763 99.7238576,7.5 100,7.5 C100.276142,7.5 100.5,7.72385763 100.5,8 C100.5,8.27614237 100.276142,8.5 100,8.5 Z M100,4 C103.86005,4 107,7.13995 107,11 C107,14.86005 103.86005,18 100,18 C96.13995,18 93,14.86005 93,11 C93,7.13995 96.13995,4 100,4 Z M100,5 C96.68035,5 94,7.68035 94,11 C94,14.31965 96.68035,17 100,17 C103.31965,17 106,14.31965 106,11 C106,7.68035 103.31965,5 100,5 Z" id="ic_info"></path>
                    </g>
                </g>
            </g>
        </g>
    </g>
</svg>
