<?xml version="1.0" encoding="UTF-8"?>
<svg width="60px" height="52px" viewBox="0 0 60 52" version="1.1" xmlns="http://www.w3.org/2000/svg" xmlns:xlink="http://www.w3.org/1999/xlink">
    <!-- Generator: sketchtool 49.3 (51167) - http://www.bohemiancoding.com/sketch -->
    <title>834C6018-C24E-4062-82AC-55558E91844F</title>
    <desc>Created with sketchtool.</desc>
    <defs>
        <polygon id="path-1" points="9.732 0.3762 9.732 3.3912 0.6888 3.3912 0.6888 0.3762 9.732 0.3762"></polygon>
        <polygon id="path-3" points="24.6750174 0.769 0.558782797 0.769 0.558782797 48.9994 24.6750174 48.9994"></polygon>
    </defs>
    <g id="Secondary-Screens" stroke="none" stroke-width="1" fill="none" fill-rule="evenodd">
        <g id="About" transform="translate(-302.000000, -1037.000000)">
            <g id="About-Dataguru_dark" transform="translate(-1.000000, 165.000000)">
                <g id="Our-Aim" transform="translate(172.000000, 677.000000)">
                    <g id="3" transform="translate(44.000000, 195.000000)">
                        <g id="ic_3" transform="translate(87.000000, 0.000000)">
                            <g id="Group-3" transform="translate(44.000000, 24.231100)">
                                <mask id="mask-2" fill="white">
                                    <use xlink:href="#path-1"></use>
                                </mask>
                                <g id="Clip-2"></g>
                                <path d="M8.2248,3.3912 L2.1968,3.3912 C1.3628,3.3912 0.6888,2.7162 0.6888,1.8842 C0.6888,1.0522 1.3628,0.3762 2.1968,0.3762 L8.2248,0.3762 C9.0588,0.3762 9.7328,1.0522 9.7328,1.8842 C9.7328,2.7162 9.0588,3.3912 8.2248,3.3912" id="Fill-1" fill="#0155FF" mask="url(#mask-2)"></path>
                            </g>
                            <path d="M13.0363,27.6223 L7.0073,27.6223 C6.1753,27.6223 5.5003,26.9473 5.5003,26.1153 C5.5003,25.2833 6.1753,24.6073 7.0073,24.6073 L13.0363,24.6073 C13.8683,24.6073 14.5433,25.2833 14.5433,26.1153 C14.5433,26.9473 13.8683,27.6223 13.0363,27.6223 Z" id="Stroke-4" stroke="#0155FF"></path>
                            <path d="M43.9757,19.3322 C43.4547,19.3322 42.9477,19.0622 42.6687,18.5792 C42.2527,17.8582 42.4997,16.9362 43.2207,16.5192 L48.4417,13.5052 C49.1607,13.0892 50.0847,13.3352 50.5007,14.0572 C50.9167,14.7772 50.6687,15.7002 49.9497,16.1162 L44.7277,19.1302 C44.4917,19.2672 44.2317,19.3322 43.9757,19.3322" id="Fill-6" fill="#0155FF"></path>
                            <path d="M10.0382,38.927 C9.5172,38.927 9.0102,38.656 8.7312,38.173 C8.3152,37.451 8.5612,36.531 9.2832,36.114 L14.6212,33.031 C15.3422,32.615 16.2632,32.86 16.6812,33.582 C17.0972,34.304 16.8512,35.225 16.1292,35.641 L10.7902,38.725 C10.5542,38.862 10.2932,38.927 10.0382,38.927" id="Fill-8" fill="#0155FF"></path>
                            <path d="M49.1935,38.927 C48.9375,38.927 48.6785,38.862 48.4415,38.725 L43.2205,35.71 C42.5005,35.294 42.2535,34.373 42.6695,33.652 C43.0855,32.929 44.0085,32.68 44.7275,33.1 L49.9495,36.114 C50.6715,36.531 50.9185,37.452 50.5015,38.173 C50.2215,38.656 49.7145,38.927 49.1935,38.927 Z" id="Stroke-10" stroke="#0155FF"></path>
                            <path d="M15.3742,19.4001 C15.1192,19.4001 14.8582,19.3351 14.6222,19.1981 L9.2832,16.1161 C8.5612,15.7001 8.3152,14.7771 8.7312,14.0571 C9.1472,13.3351 10.0682,13.0881 10.7912,13.5051 L16.1292,16.5871 C16.8512,17.0041 17.0972,17.9261 16.6812,18.6471 C16.4022,19.1301 15.8952,19.4001 15.3742,19.4001" id="Fill-12" fill="#0155FF"></path>
                            <g id="Group-16" transform="translate(17.000000, 1.231100)">
                                <mask id="mask-4" fill="white">
                                    <use xlink:href="#path-3"></use>
                                </mask>
                                <g id="Clip-15"></g>
                                <path d="M9.9875,39.4654 L12.5785,28.2374 C12.6805,27.7904 12.5735,27.3194 12.2895,26.9614 C12.0025,26.6004 11.5685,26.3914 11.1095,26.3914 L4.8355,26.3914 L15.2445,10.3044 L12.6545,21.5304 C12.5515,21.9794 12.6585,22.4494 12.9435,22.8084 C13.2295,23.1674 13.6635,23.3764 14.1235,23.3764 L20.3965,23.3764 L9.9875,39.4654 Z M24.4915,21.1494 C24.2265,20.6634 23.7185,20.3614 23.1675,20.3614 L16.0175,20.3614 L20.1145,2.6154 C20.2795,1.9024 19.9065,1.1734 19.2325,0.8884 C18.5655,0.6034 17.7805,0.8414 17.3815,1.4564 L0.8005,27.0804 C0.5005,27.5444 0.4785,28.1354 0.7415,28.6184 C1.0055,29.1044 1.5135,29.4054 2.0655,29.4054 L9.2145,29.4054 L5.1195,47.1534 C4.9545,47.8664 5.3255,48.5964 5.9995,48.8814 C6.1905,48.9624 6.3915,48.9994 6.5875,48.9994 C7.0865,48.9994 7.5665,48.7524 7.8535,48.3114 L24.4325,22.6884 C24.7325,22.2254 24.7565,21.6344 24.4915,21.1494 Z" id="Fill-14" fill="#0155FF" mask="url(#mask-4)"></path>
                            </g>
                            <g id="Illustration_Key-Executives">
                                <ellipse id="Oval-3-Copy-2" fill="#FFD794" cx="57.9900498" cy="16" rx="1.99004975" ry="2"></ellipse>
                                <ellipse id="Oval-3-Copy-3" fill="#FFD794" cx="1.99004975" cy="42" rx="1.99004975" ry="2"></ellipse>
                                <ellipse id="Oval-3-Copy" fill="#B8E986" cx="53.9900498" cy="50" rx="1.99004975" ry="2"></ellipse>
                                <ellipse id="Oval-4" fill="#FBAAB4" cx="2.98507463" cy="3" rx="2.98507463" ry="3"></ellipse>
                            </g>
                        </g>
                    </g>
                </g>
            </g>
        </g>
    </g>
</svg>