<?xml version="1.0" encoding="UTF-8"?>
<svg width="23px" height="24px" viewBox="0 0 23 24" version="1.1" xmlns="http://www.w3.org/2000/svg" xmlns:xlink="http://www.w3.org/1999/xlink">
    <!-- Generator: sketchtool 52.5 (67469) - http://www.bohemiancoding.com/sketch -->
    <title>1F1535FF-040A-447B-A0FF-66BBAA27AB1D</title>
    <desc>Created with sketchtool.</desc>
    <defs>
        <polygon id="path-1" points="0.00654970334 0.257034014 4.51220559 0.257034014 4.51220559 23.3846154 0.00654970334 23.3846154"></polygon>
        <polygon id="path-3" points="0 0.233245693 22.4521586 0.233245693 22.4521586 16.0606373 0 16.0606373"></polygon>
    </defs>
    <g id="Members-and-Teams" stroke="none" stroke-width="1" fill="none" fill-rule="evenodd">
        <g id="Admin_a" transform="translate(-15.000000, -20.000000)">
            <g id="Left-Panel_1-Copy">
                <g id="ic_logo_symbol" transform="translate(15.000000, 20.000000)">
                    <g id="Group-3" transform="translate(0.000000, 0.382154)">
                        <mask id="mask-2" fill="white">
                            <use xlink:href="#path-1"></use>
                        </mask>
                        <g id="Clip-2"></g>
                        <path d="M4.50963421,19.4345846 C4.50963421,20.3398154 4.51387105,21.2444308 4.50842368,22.1490462 C4.50297632,22.9373538 4.09502895,23.3675077 3.33481842,23.3773538 C2.61637105,23.3872 1.89852895,23.3872 1.18008158,23.3767385 C0.441660526,23.3668923 0.01495,22.9385846 0.0119236842,22.1908923 C0.00466052632,20.3176615 0.00466052632,3.29858462 0.0125289474,1.42535385 C0.0155552632,0.729353846 0.426528947,0.294892308 1.11773947,0.273969231 C1.88218684,0.250584615 2.64845,0.251815385 3.41289737,0.2752 C4.10229211,0.296738462 4.49873947,0.726276923 4.50660789,1.43212308 C4.51750263,2.38412308 4.50902895,18.4819692 4.50963421,19.4345846" id="Fill-1" fill-opacity="0.3" fill="#FFFFFF" mask="url(#mask-2)"></path>
                    </g>
                    <path d="M22.4292974,19.9153231 C22.4292974,20.7940923 22.4341395,21.6728615 22.4280868,22.5516308 C22.4232447,23.3171692 22.0146921,23.7344 21.2550868,23.7448615 C20.5366395,23.7534769 19.8181921,23.7540923 19.0997447,23.7442462 C18.3613237,23.7344 17.9346132,23.3184 17.9315868,22.5922462 C17.9249289,20.7725538 17.9243237,3.57809231 17.9321921,1.75901538 C17.9358237,1.08270769 18.3467974,0.661169231 19.0374026,0.640861538 C19.8024553,0.618092308 20.5687184,0.619323077 21.3325605,0.642092308 C22.0219553,0.6624 22.4184026,1.07963077 22.4262711,1.76516923 C22.4371658,2.69009231 22.4292974,18.9897846 22.4292974,19.9153231" id="Fill-4" fill-opacity="0.3" fill="#FFFFFF"></path>
                    <g id="Group-8" transform="translate(0.000000, 0.382154)">
                        <mask id="mask-4" fill="white">
                            <use xlink:href="#path-3"></use>
                        </mask>
                        <g id="Clip-7"></g>
                        <path d="M22.3365105,0.837230769 C22.1004579,0.383692308 21.6852474,0.236 21.1907474,0.239076923 C20.4099579,0.244615385 19.6285632,0.259384615 18.8483789,0.234153846 C18.3278526,0.217538462 17.9659053,0.429230769 17.6590368,0.843384615 C15.6295895,3.57938462 13.5898526,6.30738462 11.5525368,9.03784615 C11.4375368,9.18 11.3298,9.31723077 11.2244842,9.45446154 C11.1185632,9.31723077 11.0114316,9.18 10.8964316,9.03784615 C8.85851053,6.30738462 6.81877368,3.57938462 4.78993158,0.843384615 C4.48245789,0.429230769 4.12051053,0.217538462 3.59998421,0.234153846 C2.8198,0.259384615 2.03840526,0.244615385 1.25822105,0.239076923 C0.763115789,0.236 0.352747368,0.409538462 0.116694737,0.862461538 C-0.129042105,1.33507692 0.0458789474,1.75784615 0.338826316,2.15169231 C3.62298421,6.56461538 6.90472105,10.9793846 10.1888789,15.3923077 C10.1925105,15.3966154 10.1943263,15.4009231 10.1973526,15.4052308 C10.2124842,15.4249231 10.2276158,15.4384615 10.2433526,15.4569231 C10.5586947,15.8581538 10.8903789,16.0630769 11.2244842,16.0606154 C11.5579842,16.0630769 11.8896684,15.8581538 12.2056158,15.4569231 C12.2207474,15.4384615 12.2364842,15.4249231 12.2510105,15.4052308 C12.2546421,15.4009231 12.2570632,15.3966154 12.2600895,15.3923077 C15.5442474,10.9793846 18.8253789,6.56461538 22.1101421,2.15169231 C22.4030895,1.75784615 22.5822474,1.30923077 22.3365105,0.837230769" id="Fill-6" fill="#FFFFFF" mask="url(#mask-4)"></path>
                    </g>
                </g>
            </g>
        </g>
    </g>
</svg>