<?xml version="1.0" encoding="UTF-8"?>
<svg width="13px" height="14px" viewBox="0 0 13 14" version="1.1" xmlns="http://www.w3.org/2000/svg" xmlns:xlink="http://www.w3.org/1999/xlink">
    <!-- Generator: sketchtool 50.2 (55047) - http://www.bohemiancoding.com/sketch -->
    <title>7D674967-E322-488A-9888-CC9DF9FC5682</title>
    <desc>Created with sketchtool.</desc>
    <defs></defs>
    <g id="Landing-Screen-after-Login" stroke="none" stroke-width="1" fill="none" fill-rule="evenodd">
        <g id="Profile_with-White-Header" transform="translate(-1279.000000, -125.000000)" fill="#808FA5" fill-rule="nonzero">
            <g id="Profile-dropdown-Copy" transform="translate(1120.000000, 44.000000)">
                <path d="M164.652856,93.7361714 L161.663012,90.6837248 C160.822064,89.8403676 162.083486,88.5750336 162.924731,89.4183908 L163.948225,90.4487218 C164.181231,90.6832837 164.370201,90.605527 164.370201,90.2749458 L164.370201,86.1727615 C164.370201,85.682567 164.769605,85.280318 165.262295,85.280318 C165.753983,85.280318 166.154389,85.6798785 166.154389,86.1727615 L166.154389,90.2749458 C166.154389,90.6037444 166.343353,90.6833292 166.576452,90.4487218 L167.600157,89.4183908 C168.441104,88.5750336 169.702823,89.8403676 168.861876,90.6837248 L165.902675,93.7319574 C165.556698,94.0883434 164.998388,94.0889388 164.652856,93.7361714 Z M160.789264,84.0883486 L160.789264,85.8767394 C160.789264,86.3708311 160.388724,86.7713716 159.894632,86.7713716 C159.40054,86.7713716 159,86.3708311 159,85.8767394 L159,83.1914704 C159,82.5321591 159.537529,82 160.192968,82 L170.331882,82 C170.99009,82 171.52485,82.5357716 171.52485,83.1914704 L171.52485,85.8767394 C171.52485,86.3708311 171.12431,86.7713716 170.630218,86.7713716 C170.136127,86.7713716 169.735586,86.3708311 169.735586,85.8767394 L169.735586,84.0883486 C169.735586,83.9198453 169.602319,83.7892643 169.437926,83.7892643 L161.086924,83.7892643 C160.922673,83.7892643 160.789264,83.9231689 160.789264,84.0883486 Z" id="ic_logout-copy" transform="translate(165.262425, 88.000000) rotate(-90.000000) translate(-165.262425, -88.000000) "></path>
            </g>
        </g>
    </g>
</svg>