<?xml version="1.0" encoding="UTF-8"?>
<svg width="10px" height="12px" viewBox="0 0 10 12" version="1.1" xmlns="http://www.w3.org/2000/svg" xmlns:xlink="http://www.w3.org/1999/xlink">
    <!-- Generator: sketchtool 52.6 (67491) - http://www.bohemiancoding.com/sketch -->
    <title>8C6651C1-21D7-4B8C-9CAD-1114FF59A46C</title>
    <desc>Created with sketchtool.</desc>
    <g id="Account-Defaults" stroke="none" stroke-width="1" fill="none" fill-rule="evenodd">
        <g id="Admin_account-defaults_General-Info" transform="translate(-1124.000000, -324.000000)" fill="#9CB7C1" fill-rule="nonzero">
            <g id="Content" transform="translate(120.000000, 90.000000)">
                <g id="Account-defaults_general-info" transform="translate(233.000000, 48.000000)">
                    <g id="Details" transform="translate(21.000000, 72.000000)">
                        <g id="Currency" transform="translate(491.000000, 58.000000)">
                            <g id="Add-currency" transform="translate(247.000000, 47.000000)">
                                <g id="text" transform="translate(12.000000, 9.000000)">
                                    <g id="Group">
                                        <path d="M9.30555556,3.71428571 L8.47222222,3.71428571 L8.47222222,3.57142857 C8.47222222,1.6 6.91666667,0 5,0 C3.08333333,0 1.52777778,1.6 1.52777778,3.57142857 L1.52777778,3.71428571 L0.694444444,3.71428571 C0.305555556,3.71428571 0,4.02857143 0,4.42857143 L0,11.2857143 C0,11.6857143 0.305555556,12 0.694444444,12 L9.30555556,12 C9.69444444,12 10,11.6857143 10,11.2857143 L10,4.42857143 C10,4.02857143 9.69444444,3.71428571 9.30555556,3.71428571 Z M2.91666667,3.57142857 C2.91666667,2.4 3.86111111,1.42857143 5,1.42857143 C6.13888889,1.42857143 7.08333333,2.4 7.08333333,3.57142857 L7.08333333,3.71428571 L2.91666667,3.71428571 L2.91666667,3.57142857 Z M8.61111111,10.5714286 L1.38888889,10.5714286 L1.38888889,5.14285714 L8.61111111,5.14285714 L8.61111111,10.5714286 Z M3.88888889,7.14285714 C3.88888889,6.51428571 4.38888889,6 5,6 C5.61111111,6 6.11111111,6.51428571 6.11111111,7.14285714 C6.11111111,7.57142857 5.88888889,7.94285714 5.55555556,8.11428571 L5.55555556,9.05714286 C5.55555556,9.37142857 5.30555556,9.62857143 5,9.62857143 C4.69444444,9.62857143 4.44444444,9.37142857 4.44444444,9.05714286 L4.44444444,8.11428571 C4.11111111,7.94285714 3.88888889,7.57142857 3.88888889,7.14285714 Z" id="ic_lock"></path>
                                    </g>
                                </g>
                            </g>
                        </g>
                    </g>
                </g>
            </g>
        </g>
    </g>
</svg>