<?xml version="1.0" encoding="UTF-8"?>
<svg width="17px" height="24px" viewBox="0 0 17 24" version="1.1" xmlns="http://www.w3.org/2000/svg" xmlns:xlink="http://www.w3.org/1999/xlink">
    <!-- Generator: Sketch 47.1 (45422) - http://www.bohemiancoding.com/sketch -->
    <title>ic_locator</title>
    <desc>Created with Sketch.</desc>
    <defs></defs>
    <g id="Page-1" stroke="none" stroke-width="1" fill="none" fill-rule="evenodd">
        <g id="DG_Contact" transform="translate(-190.000000, -1078.000000)" fill="#000000">
            <g id="Map" transform="translate(0.000000, 1016.000000)">
                <path d="M202.142857,71.162 C202.142857,69.1736 200.512071,67.562 198.5,67.562 C196.487929,67.562 194.857143,69.1736 194.857143,71.162 C194.857143,73.1504 196.487929,74.762 198.5,74.762 C200.512071,74.762 202.142857,73.1504 202.142857,71.162 M207,70.4 C207,75.0392 198.5,86 198.5,86 C198.5,86 190,75.0392 190,70.4 C190,65.7608 193.805571,62 198.5,62 C203.194429,62 207,65.7608 207,70.4 M199.714286,71.162 C199.714286,71.8244 199.169071,72.362 198.5,72.362 C197.830929,72.362 197.285714,71.8244 197.285714,71.162 C197.285714,70.5008 197.830929,69.962 198.5,69.962 C199.169071,69.962 199.714286,70.5008 199.714286,71.162" id="ic_locator"></path>
            </g>
        </g>
    </g>
</svg>