<?xml version="1.0" encoding="UTF-8"?>
<svg width="14px" height="14px" viewBox="0 0 14 14" version="1.1" xmlns="http://www.w3.org/2000/svg" xmlns:xlink="http://www.w3.org/1999/xlink">
    <!-- Generator: sketchtool 49.3 (51167) - http://www.bohemiancoding.com/sketch -->
    <title>269F4991-C111-4A96-97A8-33D65686BB6B@1x</title>
    <desc>Created with sketchtool.</desc>
    <defs></defs>
    <g id="Home-screen" stroke="none" stroke-width="1" fill="none" fill-rule="evenodd">
        <g id="DG_Home_New-landing_11" transform="translate(-171.000000, -3143.000000)" fill="#8D95A5">
            <g id="Footer" transform="translate(0.000000, 2994.000000)">
                <g id="social-profiles" transform="translate(171.000000, 149.000000)">
                    <path d="M1.68,0 C2.60615385,0 3.36,0.753846154 3.36,1.68 C3.36,2.60615385 2.60615385,3.36 1.68,3.36 C0.748461538,3.36 0,2.60615385 0,1.68 C0,0.753846154 0.748461538,0 1.68,0 Z M0.226153846,13.9461538 L0.226153846,4.63076923 L3.12307692,4.63076923 L3.12307692,13.9461538 L0.226153846,13.9461538 Z M4.94308231,4.63076923 L7.71615923,4.63076923 L7.71615923,5.90692308 L7.75385154,5.90692308 C8.14154385,5.17461538 9.08385154,4.40461538 10.4946208,4.40461538 C13.4238515,4.40461538 13.9676977,6.33230769 13.9676977,8.84153846 L13.9676977,13.9461538 L11.0761592,13.9461538 L11.0761592,9.41769231 C11.0761592,8.33538462 11.0600054,6.94615385 9.57385154,6.94615385 C8.06615923,6.94615385 7.84000538,8.12538462 7.84000538,9.33692308 L7.84000538,13.9461538 L4.94846692,13.9461538 L4.94846692,4.63076923 L4.94308231,4.63076923 Z" id="ic_linkedin-copy"></path>
                </g>
            </g>
        </g>
    </g>
</svg>