<?xml version="1.0" encoding="UTF-8"?>
<svg width="15px" height="3px" viewBox="0 0 15 3" version="1.1" xmlns="http://www.w3.org/2000/svg" xmlns:xlink="http://www.w3.org/1999/xlink">
    <!-- Generator: sketchtool 52.6 (67491) - http://www.bohemiancoding.com/sketch -->
    <title>030EF0B6-9595-4030-B3CE-F92ACCF79024@1x</title>
    <desc>Created with sketchtool.</desc>
    <g id="Contacts" stroke="none" stroke-width="1" fill="none" fill-rule="evenodd">
        <g id="Contacts_landing-_Card-view" transform="translate(-1271.000000, -248.000000)" fill="#808FA5">
            <g id="Content" transform="translate(120.000000, 90.000000)">
                <g transform="translate(0.000000, 48.000000)" id="card-view">
                    <g transform="translate(234.000000, 50.000000)">
                        <g id="1" transform="translate(0.000000, 40.000000)">
                            <path d="M924.5,17 C923.671573,17 923,16.3284271 923,15.5 C923,14.6715729 923.671573,14 924.5,14 C925.328427,14 926,14.6715729 926,15.5 C926,16.3284271 925.328427,17 924.5,17 Z M924.5,23 C923.671573,23 923,22.3284271 923,21.5 C923,20.6715729 923.671573,20 924.5,20 C925.328427,20 926,20.6715729 926,21.5 C926,22.3284271 925.328427,23 924.5,23 Z M924.5,29 C923.671573,29 923,28.3284271 923,27.5 C923,26.6715729 923.671573,26 924.5,26 C925.328427,26 926,26.6715729 926,27.5 C926,28.3284271 925.328427,29 924.5,29 Z" id="ic_more-copy-2" transform="translate(924.500000, 21.500000) rotate(90.000000) translate(-924.500000, -21.500000) "></path>
                        </g>
                    </g>
                </g>
            </g>
        </g>
    </g>
</svg>