<?xml version="1.0" encoding="UTF-8"?>
<svg width="60px" height="52px" viewBox="0 0 60 52" version="1.1" xmlns="http://www.w3.org/2000/svg" xmlns:xlink="http://www.w3.org/1999/xlink">
    <!-- Generator: sketchtool 49.3 (51167) - http://www.bohemiancoding.com/sketch -->
    <title>41DE4DBE-53A2-4F12-B4C4-C2CE64A95B78</title>
    <desc>Created with sketchtool.</desc>
    <defs></defs>
    <g id="Secondary-Screens" stroke="none" stroke-width="1" fill="none" fill-rule="evenodd">
        <g id="Career" transform="translate(-874.000000, -1013.000000)">
            <g id="About-Dataguru_dark" transform="translate(0.000000, 339.000000)">
                <g id="Benefits" transform="translate(203.000000, 414.000000)">
                    <g id="6" transform="translate(671.000000, 260.000000)">
                        <g id="ic_medicall">
                            <path d="M41.8047964,16.8877115 C40.1688046,16.8877115 38.6025284,17.3729318 37.2760736,18.244841 C37.0260271,13.4316788 36.1178658,8.85276074 34.5813348,5.89589143 C40.2394497,7.44822458 44.6268823,12.105224 45.7906674,17.912995 C44.5878416,17.2502324 43.2204871,16.8877115 41.8047964,16.8877115 M30.4411601,16.8877115 C29.0087377,16.8877115 27.6330173,17.2641755 26.4208961,17.9418107 C26.8958914,9.77300613 29.1909277,5.33816695 30.4411601,5.33816695 C31.6904629,5.33816695 33.9854992,9.77300613 34.4604945,17.9418107 C33.2493028,17.265105 31.8726529,16.8877115 30.4411601,16.8877115 M23.605317,18.2467001 C22.2797918,17.3747909 20.7135155,16.8877115 19.0756646,16.8877115 C17.659974,16.8877115 16.2944785,17.2502324 15.0925823,17.912995 C16.2554378,12.1033649 20.645659,7.44543595 26.3065626,5.89403235 C24.767243,8.85090165 23.856293,13.4298197 23.605317,18.2467001 Z M30.4383714,33.653839 C31.2089608,33.653839 31.8326827,34.2784904 31.8326827,35.0481502 L31.8326827,37.0940695 L33.8776724,37.0940695 C34.6482618,37.0940695 35.2719836,37.718721 35.2719836,38.4883807 C35.2719836,39.2580405 34.6482618,39.882692 33.8776724,39.882692 L31.8326827,39.882692 L31.8326827,41.9276817 C31.8326827,42.6973415 31.2089608,43.3219929 30.4383714,43.3219929 C29.6677821,43.3219929 29.0440602,42.6973415 29.0440602,41.9276817 L29.0440602,39.882692 L26.9990705,39.882692 C26.2284811,39.882692 25.6047592,39.2580405 25.6047592,38.4883807 C25.6047592,37.718721 26.2284811,37.0940695 26.9990705,37.0940695 L29.0440602,37.0940695 L29.0440602,35.0481502 C29.0440602,34.2784904 29.6677821,33.653839 30.4383714,33.653839 Z M31.8354713,2.62111917 L31.8354713,2.39431121 C31.8354713,1.62465142 31.2108199,1 30.4411601,1 C29.6705707,1 29.0468489,1.62465142 29.0468489,2.39431121 L29.0468489,2.62111917 C19.5302101,3.33779513 12,11.2937349 12,20.9907046 L12,21.3039598 C12,21.9165272 12.4006321,22.45752 12.9871723,22.6378509 C13.5718535,22.8163227 14.2076594,22.5913739 14.55066,22.0847741 C15.5685072,20.5770589 17.2602714,19.6772634 19.0765942,19.6772634 C20.8938464,19.6772634 22.5856107,20.5770589 23.6034579,22.0847741 C24.1221417,22.8525748 25.3965421,22.8525748 25.9142963,22.0847741 C26.6644358,20.9739729 27.7817438,20.1968767 29.0440602,19.8622421 L29.0440602,27.6731735 C27.5995538,26.7278305 25.8966351,26.2035694 24.1202826,26.2035694 C19.1593233,26.2035694 15.1232571,30.2405652 15.1232571,35.2015244 C15.1232571,45.9479457 29.4000744,50.7341513 30.0089236,50.931214 C30.1483547,50.977691 30.2952222,51 30.4411601,51 C30.587098,51 30.7330359,50.977691 30.8743261,50.931214 C31.4813162,50.7341513 45.7572039,45.9479457 45.7572039,35.2005949 C45.7553449,30.2396356 41.7174196,26.2035694 36.7564603,26.2035694 C34.9782487,26.2035694 33.27533,26.7269009 31.8326827,27.6713144 L31.8326827,19.860383 C33.0968582,20.1931586 34.2150957,20.9721138 34.9670943,22.0847741 C35.485778,22.8525748 36.7601785,22.8525748 37.2779327,22.0847741 C38.2957799,20.5770589 39.9866146,19.6772634 41.8038669,19.6772634 C43.6211192,19.6772634 45.3128834,20.5770589 46.3307306,22.0847741 C46.5947202,22.4751813 47.0325339,22.6982711 47.4861498,22.6982711 C47.6218628,22.6982711 47.7594348,22.6787507 47.8942183,22.6378509 C48.479829,22.4584495 48.8804611,21.9174568 48.8804611,21.3039598 L48.8804611,20.9897751 C48.8813906,11.2937349 41.3521101,3.33779513 31.8354713,2.62111917" id="ic_medical" fill="#0155FF"></path>
                            <g id="Illustration_Key-Executives">
                                <ellipse id="Oval-3-Copy-2" fill="#FFD794" cx="57.9900498" cy="16" rx="1.99004975" ry="2"></ellipse>
                                <ellipse id="Oval-3-Copy-3" fill="#FFD794" cx="1.99004975" cy="42" rx="1.99004975" ry="2"></ellipse>
                                <ellipse id="Oval-3-Copy" fill="#B8E986" cx="53.9900498" cy="50" rx="1.99004975" ry="2"></ellipse>
                                <ellipse id="Oval-4" fill="#FBAAB4" cx="2.98507463" cy="3" rx="2.98507463" ry="3"></ellipse>
                            </g>
                        </g>
                    </g>
                </g>
            </g>
        </g>
    </g>
</svg>