<?xml version="1.0" encoding="UTF-8"?>
<svg width="87px" height="75px" viewBox="0 0 87 75" version="1.1" xmlns="http://www.w3.org/2000/svg" xmlns:xlink="http://www.w3.org/1999/xlink">
    <!-- Generator: sketchtool 49.3 (51167) - http://www.bohemiancoding.com/sketch -->
    <title>3FDAB535-1EE5-4F43-9961-DA9179EC9273</title>
    <desc>Created with sketchtool.</desc>
    <defs></defs>
    <g id="Home-screen" stroke="none" stroke-width="1" fill="none" fill-rule="evenodd">
        <g id="DG_Home_New-landing_11" transform="translate(-635.000000, -956.000000)">
            <g id="section-3" transform="translate(0.000000, 758.000000)">
                <g id="2.Marketing" transform="translate(525.000000, 199.000000)">
                    <g id="ic_marketing" transform="translate(110.000000, 0.000000)">
                        <g id="Illustration_Key-Executives" transform="translate(0.000000, 10.000000)">
                            <ellipse id="Oval-3-Copy-2" fill="#FFD794" cx="84.1542289" cy="14" rx="1.99004975" ry="2"></ellipse>
                            <ellipse id="Oval-3-Copy-3" fill="#FFD794" cx="15.1542289" cy="44" rx="1.99004975" ry="2"></ellipse>
                            <ellipse id="Oval-3-Copy" fill="#B8E986" cx="64.1542289" cy="62" rx="1.99004975" ry="2"></ellipse>
                            <ellipse id="Oval-4" fill="#FBAAB4" cx="2.98507463" cy="3" rx="2.98507463" ry="3"></ellipse>
                        </g>
                        <g id="Group-6" transform="translate(14.000000, 0.000000)">
                            <path d="M38.6866927,63.0207966 C38.4598771,63.0599028 38.2330615,63.0990089 38.0061676,63.1381151 C37.8888492,63.1536793 37.7794302,63.1772212 37.6621117,63.1927855 C37.6331732,63.1985732 37.3785922,63.2341598 37.3419888,63.2397128 C36.4158771,63.3604726 35.4824916,63.4437687 34.5414413,63.4743497 C33.5872514,63.5134559 32.6330615,63.5056346 31.6788715,63.4665285 C31.2252402,63.4430648 30.7637877,63.4118581 30.3101564,63.372752 C30.0833408,63.3492101 29.8565251,63.3257464 29.6297095,63.3022827 C29.5123911,63.2866402 29.4028939,63.278819 29.2855754,63.2631765 C26.6628566,62.7730462 24.7570838,62.3350574 23.568257,61.9492101 C23.1302682,61.8085061 22.7001006,61.6520816 22.269933,61.4877575 C22.0509385,61.4095453 19.3056872,60.1816123 18.4609944,59.7123385 C11.4062458,55.8251877 6.01741899,49.0911095 3.80401117,41.3089866 C3.15484916,39.0251877 2.80289385,36.9369196 2.68557542,34.6531207 C2.62300559,33.4799363 2.62300559,32.306752 2.69339665,31.1413888 C2.76378771,29.9290983 2.88110615,28.9201598 3.06099441,27.8408302 C3.16267039,27.2385955 2.90456983,26.5503274 2.23976536,26.3939028 C1.66881564,26.2609419 0.910156425,26.5659698 0.792837989,27.2151318 C0.0576424581,31.5715564 0.143675978,36.0140145 1.12915084,40.3235117 C2.13808939,44.7034 4.06993296,48.8877575 6.75261453,52.4855229 C9.28669274,55.8799363 12.4151844,58.7894335 16.0285922,61.0028413 C19.4308268,63.0911095 23.2475866,64.5536793 27.1738436,65.2810536 C31.1548492,66.0084279 35.2218883,66.0162492 39.2028939,65.3045173 C39.6956313,65.2184838 40.1883687,65.1168078 40.6732849,64.9994894 C41.2910838,64.8587855 41.6587598,64.1469754 41.494514,63.552562 C41.3146257,62.9190425 40.6653855,62.5983721 40.0475866,62.7391542 C39.5939553,62.8408302 39.1481453,62.9346849 38.6866927,63.0207966 Z" id="Fill-1" stroke="#14C814" stroke-width="2" fill="#14C814"></path>
                            <path d="M29.465448,2.55482793 C29.6766212,2.53136425 29.8799732,2.50790056 30.0911464,2.48443687 C30.5682413,2.4375095 31.0453363,2.39840335 31.5146101,2.37493966 C33.2978503,2.28108492 37.3395486,2.59252626 37.3492469,2.59393408 C37.5760626,2.62521899 37.8028782,2.65650391 38.0296939,2.69561006 C38.4833251,2.76600112 38.9291352,2.85203464 39.3749453,2.94588939 C40.2743866,3.13359888 41.1581855,3.3525933 42.0341631,3.61851508 C43.8486883,4.15817989 45.2643307,4.72130838 46.8755039,5.5347162 C48.5101408,6.35594525 51.9185542,8.69026927 51.9185542,8.69026927 C52.1803568,8.90165102 52.3738279,9.05687635 52.4989676,9.15594525 C52.8665654,9.46097318 53.2263419,9.76600112 53.5782972,10.0866715 C54.2900291,10.7280123 54.9782972,11.400638 55.6352804,12.1045486 C57.0118168,13.5905821 58.1537162,15.0844369 59.2252246,16.8129285 C59.7805318,17.7123698 60.296733,18.6430961 60.7581855,19.597286 C61.2118168,20.5280123 61.5168447,21.2475654 61.8688,22.2017553 C63.472152,26.5425374 64.0509229,30.8754983 63.6833251,35.4822022 C63.6363978,36.0922581 64.2542749,36.6788503 64.8565095,36.6553866 C65.5369564,36.6241017 65.9749453,36.1391855 66.0296939,35.4822022 C66.717962,26.8162804 63.8710346,18.1660011 58.2553922,11.5414201 C53.2889117,5.65985587 46.1794145,1.64756536 38.5537162,0.427453631 C34.2598615,-0.260814525 29.8877944,-0.120032402 25.6486883,0.865442458 C25.0308112,1.00622458 24.6632134,1.71795642 24.8274592,2.31236983 C24.9995263,2.94588939 25.6486883,3.27438101 26.2665654,3.13359888 C27.1660067,2.9224257 29.3481296,2.56264916 29.465448,2.55482793 Z" id="Fill-3" stroke="#14C814" stroke-width="2" fill="#14C814"></path>
                            <path d="M34.9559196,15.2799363 C31.6397966,14.5056346 28.0341318,16.1011654 26.5246346,19.1983721 C25.0699642,22.1782603 25.820724,25.7212771 27.6196067,28.3883162 C28.4721989,29.6631765 29.5983777,30.8441821 31.0218413,31.4620592 C32.546981,32.1268637 34.150333,32.0799363 35.6363665,31.3447408 C37.1849698,30.5860816 38.3972603,29.1469754 39.2263888,27.6609419 C40.0648246,26.1577017 40.617238,24.4428972 40.6681542,22.720819 C40.6764447,22.6638804 40.6818413,22.6059251 40.6810592,22.5458581 C40.6498525,19.1514447 38.2955844,16.0620592 34.9559196,15.2799363" id="Fill-5" fill="#14C814"></path>
                            <path d="M46.992838,45.3916838 L46.992838,39.6019408 C47.0029274,39.5392145 47.0092626,39.4750022 47.0084804,39.4084436 C46.992838,37.3279966 46.1481453,35.2944771 44.6230056,33.8631922 C43.1760782,32.5022983 41.2755196,31.774924 39.2889274,31.7671028 C38.7100782,31.7671028 37.943676,31.6419631 37.4040112,31.8687788 C37.0520559,32.0173821 36.8565251,32.3145888 36.614067,32.6039743 C35.8319441,33.5347006 35.0498212,34.473248 34.2598771,35.4039743 C33.9105028,35.8188123 33.5633184,36.2337285 33.2161341,36.6486447 C32.6067039,35.9287006 31.9965698,35.2088346 31.389486,34.4888905 C30.8498212,33.8553709 30.3179777,33.2218514 29.7783128,32.5883318 C29.6531732,32.4397285 29.5358547,32.2833039 29.4028939,32.150343 C29.0509385,31.774924 28.5973073,31.774924 28.1358547,31.774924 C27.017419,31.774924 25.9068045,31.7671028 24.8196536,32.1034156 C23.4509385,32.525762 22.1760782,33.3313486 21.2531732,34.4263207 C20.2520559,35.6151475 19.642,37.0073263 19.4542905,38.5481084 C19.3760782,39.1581642 19.3995419,39.7760413 19.3995419,40.3939184 L19.3995419,45.3916838 C19.3995419,46.0252034 19.9392067,46.5648682 20.5727263,46.5648682 L29.1604358,46.5648682 L42.7302682,46.5648682 L45.8196536,46.5648682 C46.453095,46.5648682 46.992838,46.0252034 46.992838,45.3916838 Z" id="Fill-9" fill="#14C814"></path>
                            <path d="M56.9570994,57.5145888 C54.9391441,57.9447564 52.913524,58.3671028 50.8956469,58.7972704 C49.9496693,58.9970246 49.0048648,59.1967788 48.0621721,59.396533 C47.8107196,58.961438 47.5587978,58.5266559 47.3075799,58.091248 C48.4332112,56.8405553 49.5588425,55.5898626 50.6844737,54.3391698 C52.7962056,51.9928011 54.9079374,49.6386112 57.0196693,47.2922425 C57.1631888,47.1327676 57.3053788,46.9736838 57.4479598,46.8143654 C57.9746413,47.7271028 58.5006972,48.6398402 59.0297251,49.5525777 C59.8164626,50.9172257 60.6039039,52.2818737 61.3925184,53.6465218 C61.8944849,54.5152257 62.3960603,55.3843989 62.8970883,56.2541196 C60.9149542,56.672086 58.9333676,57.0906782 56.9570994,57.5145888 M55.5336358,60.4866559 C55.5275352,60.5088682 55.5238592,60.5243542 55.5213564,60.5368682 C55.5127531,60.5482872 55.5018034,60.5643989 55.4866302,60.5883318 C55.4319598,60.6743654 55.3849542,60.7682201 55.3302056,60.8542536 C55.3182391,60.8743542 55.3104961,60.8883542 55.304943,60.8993039 C55.2939151,60.9086112 55.2797587,60.9212816 55.2598927,60.9402872 C55.1959151,60.9978514 55.1374905,61.0553374 55.0796916,61.1129799 C55.0473899,61.1387117 54.9805966,61.1930693 54.9470436,61.2140302 C54.8853341,61.2532927 54.8192447,61.2880972 54.7524514,61.322276 C54.7512782,61.3168793 54.5866413,61.3824994 54.5637251,61.3939184 C54.4621274,61.4252034 54.3604514,61.448667 54.250876,61.4643095 C54.4777698,61.4252034 54.0553453,61.4564883 53.9614905,61.4564883 L53.7582168,61.4564883 C53.7222391,61.4564883 53.6973676,61.4573486 53.6806302,61.4588346 C53.6692894,61.4557844 53.6563844,61.4524994 53.6408983,61.448667 C53.5392223,61.4252034 53.4375464,61.3939184 53.3357922,61.3626335 C53.3135017,61.356924 53.2974682,61.3533263 53.2840939,61.350667 C53.2740827,61.3423765 53.2582056,61.331114 53.2341162,61.3157844 C53.1481609,61.2609575 53.0543061,61.2140302 52.9682726,61.1593598 C52.9450436,61.1446559 52.9286972,61.135114 52.916105,61.1283877 C52.9082838,61.118533 52.898038,61.1062536 52.8821609,61.0888905 C52.8331218,61.0343765 52.7805631,60.9837732 52.7318369,60.9342648 C52.7348872,60.9347341 52.6894458,60.8796726 52.6516693,60.8325106 C53.3073229,60.6936838 53.9628983,60.5550134 54.618552,60.416343 C54.9489989,60.3467341 55.2794458,60.276343 55.6098927,60.2064212 C55.5870547,60.3001196 55.558038,60.3887341 55.5336358,60.4866559 M65.8062726,56.6085777 C65.7891441,56.5682983 65.7702168,56.5286447 65.7480827,56.4900078 C64.9503173,55.1134715 64.1604514,53.7369352 63.3626078,52.3603989 C62.0955687,50.1626335 60.8286078,47.9648682 59.5536693,45.7671028 C59.2564626,45.2587229 58.9670771,44.750343 58.6698704,44.2419631 C58.6669765,44.2368793 58.6632223,44.2324212 58.6602503,44.2274156 C58.4783285,43.9122983 58.2964849,43.597181 58.1146413,43.279952 C57.8017922,42.7324659 57.050876,42.5369352 56.5112894,42.8576056 C55.9638034,43.178276 55.7760156,43.9056503 56.0888648,44.4609575 C56.1316469,44.5348682 56.174038,44.6083095 56.2167419,44.6822201 C55.0817251,45.9433151 53.9467866,47.2044101 52.811848,48.4654268 C50.7001162,50.8117955 48.5883844,53.1659855 46.4766525,55.5123542 C46.3421274,55.6618179 46.2090101,55.8108123 46.0753453,55.9600413 C46.0448425,55.9073263 46.0144961,55.8543765 45.9838369,55.8017397 C45.6709877,55.2542536 44.9202279,55.0587229 44.3804849,55.3793933 C43.8329989,55.7000637 43.6453676,56.4352592 43.9582168,56.9827453 C44.2084961,57.4158067 44.4574458,57.8476168 44.7068648,58.2798179 C44.7325184,58.3790693 44.7716246,58.4766782 44.826295,58.5704547 C45.3581385,59.4933598 45.8900603,60.4084436 46.4219039,61.3313486 C46.4736804,61.4201978 46.5350771,61.4985665 46.6039039,61.5666112 C46.6188425,61.5924994 46.6337028,61.6183095 46.6486413,61.6441978 C46.9614905,62.1916838 47.7124067,62.3872145 48.2519933,62.0665441 C48.4173341,61.9687006 48.5492782,61.8343318 48.645714,61.6801754 C49.1911665,61.5647341 49.7366972,61.4493709 50.2820715,61.3338514 C50.5844402,62.1147229 51.1345855,62.7920413 51.8654011,63.2475497 C52.8274123,63.8497844 54.1961274,63.9905665 55.2755352,63.6307899 C56.5190324,63.2162648 57.5280492,62.199505 57.8486413,60.9168235 C57.9455464,60.5249799 57.9704961,60.1157732 57.9738592,59.706019 C59.0844737,59.4702089 60.1950883,59.2343989 61.3057028,59.0006223 C62.2486302,58.7989911 63.1916358,58.6011922 64.1345631,58.4016726 C64.1744514,58.4710469 64.2143397,58.539952 64.2543061,58.6095609 C64.5671553,59.1570469 65.3179151,59.3525777 65.8576581,59.0319073 C66.4051441,58.7112369 66.5927754,57.9760413 66.2799263,57.4285553 C66.1216246,57.1547341 65.9642615,56.8820078 65.8062726,56.6085777" id="Fill-11" fill="#417505"></path>
                            <path d="M63.1123441,49.8341263 C63.4330927,50.3895117 64.1603888,50.577143 64.7156961,50.2564726 C65.6464223,49.7247073 66.5693274,49.1849642 67.5001318,48.6531207 C68.0476179,48.3402715 68.2431486,47.5894335 67.9224,47.0497687 C67.6017296,46.5022827 66.8665341,46.3145732 66.319048,46.6274223 C65.3884,47.1592659 64.465495,47.6989307 63.5346905,48.2307743 C62.9872045,48.5436235 62.7916737,49.2945397 63.1123441,49.8341263" id="Fill-13" fill="#417505"></path>
                            <path d="M64.3716089,42.6385955 C63.792838,42.3022827 63.1202123,42.5369196 62.768257,43.0609419 C62.1660223,43.9447408 61.5637877,44.8364391 60.9693743,45.7201598 C60.617419,46.2442603 60.8676983,47.0184838 61.3916425,47.3235117 C61.9626704,47.6598246 62.6352961,47.4251877 62.9949944,46.9011654 C63.5973073,46.0173665 64.1995419,45.1257464 64.7938771,44.2419475 C65.1458324,43.7179251 64.8956313,42.9436235 64.3716089,42.6385955" id="Fill-15" fill="#417505"></path>
                            <path d="M68.7983933,51.1637352 C67.7268849,51.2419475 66.6631978,51.3201598 65.5916894,51.3983721 C64.9816335,51.4453777 64.3872983,51.906752 64.418505,52.5715564 C64.4497899,53.166048 64.9347844,53.7917464 65.5916894,53.7447408 C66.6631978,53.6665285 67.7268849,53.5883162 68.7983933,53.5101039 C69.4084492,53.4631765 70.0028626,53.001724 69.9715777,52.3369196 C69.948114,51.7425061 69.4553765,51.1168078 68.7983933,51.1637352" id="Fill-17" fill="#417505"></path>
                            <path d="M2.35705251,14.5525933 L2.35705251,13.7079006 L2.35705251,6.16823575 L2.35705251,5.35482793 C2.35705251,5.2922581 2.35705251,5.22968827 2.36487374,5.17493966 C2.36487374,5.12019106 2.37269497,5.06544246 2.3805162,5.01851508 C2.35705251,5.24533073 2.37269497,5.06544246 2.38833743,5.01851508 C2.42056089,4.90886145 2.44801341,4.79928603 2.48273966,4.6896324 C2.47092961,4.72881676 2.52153296,4.58952067 2.55258324,4.53359888 C2.60404693,4.43810168 2.66301899,4.34299553 2.72824804,4.25398994 C2.76672849,4.21222458 2.80184581,4.16701788 2.84196872,4.12689497 C2.86566704,4.0984257 2.95506369,4.01575531 3.00472849,3.97047039 C3.00652737,3.97461564 3.19306369,3.84181117 3.23303017,3.82186704 C3.26322011,3.80168827 3.39023687,3.73966592 3.45014749,3.71033631 C3.49676201,3.69680559 3.62870615,3.65511844 3.65537654,3.6498 C3.70230391,3.63415754 3.75705251,3.62633631 3.80397989,3.61069385 C3.82767821,3.60443687 3.8454324,3.59943128 3.8606838,3.59497318 C3.97729832,3.59481676 4.09399106,3.57940894 4.2106838,3.57940894 L5.02409162,3.57940894 L12.7123598,3.57940894 L15.8564939,3.57940894 L16.4118011,3.57940894 C16.4900134,3.57940894 16.8576112,3.64197877 16.6307955,3.58723017 C16.748114,3.61851508 16.8654324,3.64197877 16.9827508,3.67326369 C17.0256112,3.68757654 17.0691754,3.70188939 17.1180581,3.71612402 C17.1369855,3.72410168 17.1579464,3.73348715 17.1782816,3.74365475 C17.2643151,3.79058212 17.3503486,3.84533073 17.4363821,3.90007933 C17.4537453,3.90876089 17.5119352,3.95342011 17.5416559,3.9756324 C17.5508849,3.98392291 17.5583933,3.99080559 17.5615218,3.99393408 C17.6397341,4.0799676 17.7257676,4.15817989 17.8039799,4.24421341 C17.8090637,4.24929721 17.8133654,4.25344246 17.817276,4.25735307 C17.8433989,4.29473855 17.8687397,4.33204581 17.8900134,4.36935307 C17.9525832,4.47102905 18.0073318,4.57270503 18.0620804,4.68220223 C18.0636447,4.68509609 18.0646615,4.6870514 18.0660693,4.6896324 C18.0823374,4.73476089 18.0979017,4.7805933 18.1090078,4.83080559 C18.1402927,4.93248156 18.1559352,5.03415754 18.1793989,5.13583352 C18.1338011,4.96493966 18.1587508,5.11761006 18.1757229,5.24345363 C18.1738458,5.2699676 18.1715777,5.29632514 18.1715777,5.32354302 C18.1715777,8.40510726 18.218505,11.4944927 18.1715777,14.576057 C18.1715777,14.6542693 18.1637564,14.7246603 18.1637564,14.7950514 C18.1626615,14.818124 18.162114,14.8363475 18.1619575,14.8513642 C18.1578905,14.8638 18.1533542,14.8786603 18.148114,14.8967274 C18.1246503,14.9749397 18.1011866,15.0609732 18.0777229,15.1470067 C18.0687285,15.1829844 18.0366615,15.2650291 18.0286838,15.2885709 C17.9986503,15.3495765 17.9664268,15.4090961 17.9291196,15.4676771 C17.8978346,15.5224257 17.8587285,15.5771743 17.8196223,15.6397441 C17.772695,15.6944927 17.7335888,15.7414201 17.6866615,15.7883475 C17.6319128,15.8509173 17.569343,15.9056659 17.5067732,15.9604145 C17.4963709,15.9696436 17.4894883,15.9762134 17.4841698,15.9816101 C17.4784603,15.9851296 17.4740804,15.9877106 17.467667,15.9916994 C17.3545721,16.0607609 17.241086,16.1343587 17.119857,16.1973196 C17.1050749,16.1988056 16.9495888,16.2600458 16.9280022,16.2654425 C16.8501028,16.2894536 16.7722034,16.3042358 16.6942257,16.3204257 C16.7438905,16.3056436 16.4627955,16.3436547 16.4039799,16.3436547 C15.723533,16.351476 15.0352648,16.3436547 14.3548179,16.3436547 L11.2106838,16.3436547 C10.9838682,16.3436547 10.7570525,16.3280123 10.5302369,16.3436547 C10.0531419,16.3749397 9.7559352,16.6330402 9.4352648,16.9224257 C8.70390168,17.5801911 7.97465028,18.2360011 7.24532067,18.891733 L7.24532067,17.5168391 C7.24532067,16.8833196 6.70565587,16.3436547 6.07213631,16.3436547 L4.46096313,16.3436547 L4.17157765,16.3436547 L4.12465028,16.3436547 C4.06990168,16.3436547 4.01515307,16.3436547 3.96040447,16.3358335 C3.9472648,16.3358335 3.87225922,16.3259006 3.83276201,16.3214425 C3.76354413,16.3048615 3.63410279,16.2749844 3.60062793,16.2654425 C3.55370056,16.2498 3.50677318,16.2341575 3.45202458,16.2185151 C3.35816983,16.1715877 3.27213631,16.1246603 3.18610279,16.077733 C3.13135419,16.046448 3.07660559,16.0073419 3.01403575,15.9682358 C2.92800223,15.8900235 2.84978994,15.8039899 2.76375642,15.7257777 C2.74756648,15.7103698 2.73606927,15.7002804 2.72715307,15.6930067 C2.72167821,15.6822916 2.71362235,15.6679006 2.70118659,15.6475654 C2.63861676,15.5458894 2.57604693,15.4442134 2.52129832,15.3425374 C2.50948827,15.3188391 2.49767821,15.295219 2.48578994,15.2726156 C2.4734324,15.2371073 2.4505162,15.176962 2.44308603,15.1548279 C2.41696313,15.0568279 2.39561117,14.9588279 2.37128715,14.8608279 C2.39201341,14.9425598 2.35705251,14.7744034 2.35705251,14.6933754 L2.35705251,14.5525933 Z M2.76250503,4.2086902 C2.77890503,4.1857902 2.77470503,4.1917902 2.76250503,4.2086902 Z M3.02224804,3.95861984 C3.04684804,3.93621984 3.05304804,3.93091984 3.02224804,3.95861984 Z M17.123614,3.7178528 C17.010714,3.6776528 17.049914,3.6874528 17.123614,3.7178528 Z M18.058838,4.66957486 C18.051738,4.65337486 18.046438,4.63977486 18.046438,4.63527486 C18.050738,4.64657486 18.054638,4.65817486 18.058838,4.66957486 Z M3.27213631,18.6118112 C3.79928715,18.7113754 4.34403575,18.7100458 4.8833095,18.7030849 L4.8833095,21.5291296 C4.8833095,22.5849955 6.14252737,23.0229844 6.88554413,22.3581799 C8.24370056,21.1358 9.60115307,19.9142022 10.9533654,18.6978447 L14.2609631,18.6978447 C15.7861028,18.6978447 17.4520246,18.8933754 18.7581698,17.9391855 C19.8453207,17.1414201 20.4788402,15.9291296 20.5023039,14.576057 C20.5101251,14.2475654 20.5023039,13.926895 20.5023039,13.5984034 L20.5023039,8.86655978 C20.5179464,7.69337542 20.5179464,6.5045486 20.5179464,5.32354302 C20.4788402,3.03974413 18.6486726,1.23304022 16.3648737,1.20957654 C15.5749296,1.20175531 14.7849855,1.20957654 13.9950413,1.20957654 L5.58722011,1.20957654 C4.76599106,1.20957654 3.87437095,1.13918547 3.06878436,1.34253743 C1.14476201,1.83527486 0.00286256983,3.61069385 0.00286256983,5.5347162 L0.00286256983,13.1682358 C0.00286256983,14.3335989 -0.0675284916,15.4520346 0.487778771,16.5313642 C1.02744358,17.5794089 2.11459441,18.3928168 3.27213631,18.6118112 Z" id="Fill-19" fill="#417505"></path>
                            <path d="M10.5848134,11.4401585 C10.5848134,11.4401585 10.584907,11.4401585 10.584907,11.4400585 C10.6606042,11.4352585 10.765682,11.4394585 10.5848134,11.4401585 M10.701576,11.3751955 C10.676976,11.4352955 10.657976,11.4310955 10.652076,11.4103955 C10.665776,11.4005955 10.682376,11.3888955 10.701576,11.3751955 M10.7118877,11.2396773 C10.7112877,11.2384773 10.7107877,11.2374773 10.7101877,11.2362773 C10.7101877,11.2359773 10.7101877,11.2356773 10.7101877,11.2352773 C10.7218877,11.1233773 10.7163877,11.1712773 10.7118877,11.2396773 M10.7109916,11.2317335 C10.7109916,11.2311335 10.7108916,11.2306335 10.7108916,11.2300335 C10.7109916,11.2302335 10.7109916,11.2303335 10.7110916,11.2304335 C10.7110916,11.2309335 10.7110916,11.2313335 10.7109916,11.2317335 M10.6808581,11.1524469 C10.7167581,11.1725469 10.7324581,11.1814469 10.6808581,11.1524469 M10.6563034,11.1080061 C10.6625034,11.1192061 10.6721034,11.1369061 10.6828034,11.1568061 C10.6820034,11.1563061 10.6814034,11.1560061 10.6805034,11.1555061 C10.6683034,11.1325061 10.6605034,11.1175061 10.6555034,11.1080061 C10.6407034,11.1079061 10.6222034,11.1076061 10.6034034,11.1069061 C10.6027034,11.1066061 10.6017034,11.1061061 10.6010034,11.1058061 C10.6236034,11.1059061 10.6420034,11.1061061 10.6547034,11.1062061 C10.6469034,11.0913061 10.6483034,11.0936061 10.6553034,11.1062061 C10.7002034,11.1070061 10.6877034,11.1081061 10.6563034,11.1080061 M10.5801989,11.103486 C10.5856989,11.103486 10.5905989,11.103586 10.5956989,11.103586 C10.5961989,11.103886 10.5965989,11.104086 10.5971989,11.104386 C10.5913989,11.104086 10.5856989,11.103886 10.5801989,11.103486 M10.5380425,11.0955866 C10.5495425,11.0983866 10.5608425,11.1012866 10.5723425,11.1041866 C10.5523425,11.1021866 10.5380425,11.0994866 10.5380425,11.0955866 M9.79174078,8.75813408 C9.81174078,8.76013408 9.82604078,8.76283408 9.82604078,8.76673408 C9.81454078,8.76383408 9.80324078,8.76103408 9.79174078,8.75813408 M9.76461508,8.75715698 C9.76411508,8.75685698 9.76371508,8.75655698 9.76311508,8.75625698 C9.76881508,8.75655698 9.77451508,8.75685698 9.78011508,8.75715698 C9.77461508,8.75715698 9.76971508,8.75715698 9.76461508,8.75715698 M9.71941872,8.7674162 C9.67461872,8.7667162 9.68711872,8.7656162 9.71851872,8.7657162 C9.71231872,8.7545162 9.70271872,8.7368162 9.69201872,8.7169162 C9.69281872,8.7174162 9.69331872,8.7177162 9.69431872,8.7182162 C9.70651872,8.7413162 9.71431872,8.7563162 9.71931872,8.7657162 C9.73401872,8.7658162 9.75251872,8.7661162 9.77141872,8.7668162 C9.77211872,8.7671162 9.77311872,8.7676162 9.77381872,8.7680162 C9.75121872,8.7678162 9.73281872,8.7677162 9.72011872,8.7675162 C9.72791872,8.7824162 9.72641872,8.7802162 9.71941872,8.7674162 M9.68206235,8.71153668 C9.64696235,8.69193668 9.63196235,8.68343668 9.68206235,8.71153668 M9.64624862,8.63635754 C9.64684862,8.63745754 9.64734862,8.63845754 9.64784862,8.63965754 C9.64794862,8.64005754 9.64794862,8.64025754 9.64794862,8.64065754 C9.63624862,8.75265754 9.64174862,8.70465754 9.64624862,8.63635754 M9.64566201,8.6290838 C9.64566201,8.6296838 9.64576201,8.6301838 9.64576201,8.6308838 C9.64566201,8.6306838 9.64566201,8.6305838 9.64556201,8.6303838 C9.64556201,8.6299838 9.64556201,8.6294838 9.64566201,8.6290838 M9.71531899,8.46083597 C9.70161899,8.47053597 9.68501899,8.48223597 9.66581899,8.49593597 C9.69041899,8.43583597 9.70941899,8.44003597 9.71531899,8.46083597 M9.7882034,8.42080447 C9.78810984,8.42080447 9.78810984,8.42090447 9.78801627,8.42090447 C9.71241743,8.42570447 9.60734626,8.42160447 9.7882034,8.42080447 M10.5462547,11.4397207 L10.5380425,11.4397207 C9.84985251,11.4318994 9.16150615,11.4397207 8.46541676,11.4397207 C7.85543911,11.4397207 7.26094749,11.9793855 7.2922324,12.612905 C7.3157743,13.2542458 7.80061229,13.7860894 8.46541676,13.7860894 C8.6457743,13.7860894 8.82558436,13.7866369 9.00508156,13.7873408 L9.00508156,13.9581564 C9.00508156,14.5682123 9.54482458,15.1626257 10.1782659,15.1313408 C10.8196067,15.1000559 11.3514503,14.6151397 11.3514503,13.9581564 L11.3514503,13.6276313 C12.4517408,13.237352 13.1935844,12.167486 13.0252715,10.9078771 C12.9156961,10.0944693 12.3838525,9.35927374 11.6330145,9.01513966 C11.0855285,8.76486034 10.5380425,8.76486034 9.95927151,8.75703911 L9.8185676,8.75703911 C9.80660112,8.75703911 9.79705922,8.75703911 9.78696983,8.75696089 C9.77304804,8.75351955 9.75912626,8.75 9.74520447,8.74655866 C9.72924916,8.73779888 9.71086927,8.72763128 9.69436648,8.71840223 C9.82498101,8.78699441 9.62334972,8.59326257 9.69334972,8.71785475 C9.69272402,8.7175419 9.69209832,8.71715084 9.69155084,8.71683799 C9.68333855,8.70158659 9.67442235,8.6850838 9.66652291,8.67014525 C9.65901453,8.63322905 9.65322682,8.60796648 9.64939441,8.59545251 C9.65111508,8.59302793 9.65283575,8.57894972 9.65432179,8.54586592 C9.65486927,8.53303911 9.6550257,8.52388827 9.65494749,8.51630168 C9.65846704,8.50496089 9.66190838,8.49502793 9.66527151,8.48681564 C9.67841117,8.47774302 9.69178547,8.46921788 9.70515978,8.46092737 C9.7053162,8.46147486 9.70547263,8.46202235 9.70555084,8.46256983 C9.70930503,8.45951955 9.71298101,8.45646927 9.71665698,8.45349721 C9.72784134,8.44677095 9.73972961,8.43996648 9.75122682,8.43347486 C9.72791955,8.45115084 9.78783017,8.43410056 9.81027709,8.42072626 C9.81324916,8.42072626 9.81543911,8.42072626 9.8185676,8.42072626 C10.5067575,8.42854749 11.1950257,8.42072626 11.8911933,8.42072626 C12.5011709,8.42072626 13.0956626,7.88106145 13.0643777,7.2475419 C13.0330145,6.61402235 12.5481765,6.07435754 11.8911933,6.07435754 C11.7107575,6.07435754 11.5310257,6.07381006 11.3514503,6.07310615 L11.3514503,5.9022905 C11.3514503,5.29223464 10.8117855,4.69782123 10.1782659,4.72910615 C9.54482458,4.76039106 9.00508156,5.24530726 9.00508156,5.9022905 L9.00508156,6.23281564 C7.90486927,6.62309497 7.1630257,7.69296089 7.33133855,8.95256983 C7.44083575,9.76597765 7.97275754,10.5011732 8.72359553,10.8453073 C9.27108156,11.0955866 9.8185676,11.0955866 10.3973385,11.1034078 L10.5380425,11.1034078 C10.5500089,11.1034078 10.5595508,11.103486 10.569562,11.103486 C10.5834838,11.1070056 10.5974838,11.1104469 10.6114056,11.1138883 C10.6272827,11.122648 10.6457408,11.1328156 10.6622436,11.1420447 C10.5316291,11.0733743 10.7332603,11.2671061 10.6632603,11.1426704 C10.663886,11.1429832 10.6645117,11.1432961 10.6650592,11.1436089 C10.6732715,11.1589385 10.6821877,11.1754413 10.6900872,11.1903017 C10.6975955,11.2272961 10.7033832,11.2524022 10.7071374,11.2649944 C10.7054168,11.267419 10.7037743,11.2814972 10.7022883,11.314581 C10.7017408,11.3273296 10.7015844,11.3365587 10.7016626,11.3441453 C10.698143,11.355486 10.6947017,11.365419 10.6913385,11.3736313 C10.6781989,11.3826257 10.6647464,11.3912291 10.6513721,11.3995196 C10.6512939,11.3989721 10.6511374,11.3984246 10.6510592,11.3978771 C10.647305,11.4009274 10.6436291,11.4038994 10.6400313,11.4069497 C10.6287687,11.413676 10.6168804,11.4204804 10.6053832,11.4269721 C10.6286905,11.4093743 10.5687799,11.4263464 10.5462547,11.4397207" id="Fill-24" fill="#417505"></path>
                        </g>
                    </g>
                </g>
            </g>
        </g>
    </g>
</svg>