<?xml version="1.0" encoding="UTF-8"?>
<svg width="16px" height="13px" viewBox="0 0 16 13" version="1.1" xmlns="http://www.w3.org/2000/svg" xmlns:xlink="http://www.w3.org/1999/xlink">
    <!-- Generator: sketchtool 52.6 (67491) - http://www.bohemiancoding.com/sketch -->
    <title>87B94727-AC55-46EC-8AB0-D767D7F8EBA1</title>
    <desc>Created with sketchtool.</desc>
    <g id="Contacts" stroke="none" stroke-width="1" fill="none" fill-rule="evenodd">
        <g id="Contacts_selected" transform="translate(-785.000000, -146.000000)" fill="#3E4651" stroke="#3E4651" stroke-width="0.5">
            <g id="Selection-Actions" transform="translate(553.000000, 138.000000)">
                <g id="ic_merge" transform="translate(210.000000, 0.000000)">
                    <g id="merge" transform="translate(23.000000, 9.000000)">
                        <path d="M14,5.45663971 L13.6025237,5.03092045 L10.873651,2.34483465 L9.99269467,3.15460223 L11.6651171,4.90252892 L7.92163374,4.90252892 C6.07371742,4.90252892 4.62095301,3.45418245 4.62095301,1.70512952 L4.62095301,0 L3.39133322,0 L3.39133322,1.70512952 C3.39133322,2.9417426 3.91781504,4.0916351 4.75576955,4.90252892 L0,4.90252892 L0,6.09747108 L4.75576955,6.09747108 C3.91781504,6.9083649 3.39133322,8.0582574 3.39133322,9.29487048 L3.39133322,11 L4.62443965,11 L4.62443965,9.29487048 C4.62443965,7.50414662 6.07720405,6.09747108 7.92512037,6.09747108 L11.6256019,6.09747108 L9.95317948,7.71700625 L10.7888096,8.57069725 L13.6060103,5.88461145 L14,5.45663971 Z" id="Path"></path>
                    </g>
                </g>
            </g>
        </g>
    </g>
</svg>