<?xml version="1.0" encoding="UTF-8"?>
<svg width="14px" height="14px" viewBox="0 0 14 14" version="1.1" xmlns="http://www.w3.org/2000/svg" xmlns:xlink="http://www.w3.org/1999/xlink">
    <!-- Generator: sketchtool 52.6 (67491) - http://www.bohemiancoding.com/sketch -->
    <title>F588E0E4-1B60-4BCF-8F22-F62AE56C11B1</title>
    <desc>Created with sketchtool.</desc>
    <g id="Contacts" stroke="none" stroke-width="1" fill="none" fill-rule="evenodd">
        <g id="Contacts_selected" transform="translate(-717.000000, -146.000000)" stroke="#3E4651">
            <g id="Selection-Actions" transform="translate(553.000000, 138.000000)">
                <g id="ic_add-to-static-list" transform="translate(140.000000, 0.000000)">
                    <g id="move-to" transform="translate(24.000000, 8.000000)">
                        <g id="move-to-copy-2">
                            <rect id="Rectangle" stroke-width="1.4" x="0.7" y="0.7" width="12.6" height="12.6" rx="4"></rect>
                            <path d="M6.56111888,10.1664336 C6.60811189,10.2134266 6.6551049,10.2369231 6.72559441,10.2604196 C6.77258741,10.2839161 6.84307692,10.2839161 6.89006993,10.2839161 C6.96055944,10.2839161 7.00755245,10.2604196 7.05454545,10.2369231 C7.10153846,10.2134266 7.14853147,10.1899301 7.19552448,10.1429371 L9.61566434,7.7227972 C9.80363636,7.53482517 9.80363636,7.25286713 9.61566434,7.0648951 C9.42769231,6.87692308 9.14573427,6.87692308 8.95776224,7.0648951 L7.36,8.70965035 L7.36,3.46993007 C7.36,3.21146853 7.14853147,3 6.89006993,3 C6.63160839,3 6.42013986,3.21146853 6.42013986,3.46993007 L6.42013986,8.70965035 L4.79888112,7.08839161 C4.61090909,6.90041958 4.32895105,6.90041958 4.14097902,7.08839161 C3.95300699,7.27636364 3.95300699,7.55832168 4.14097902,7.74629371 L6.56111888,10.1664336 Z" id="Fill-3" stroke-width="0.5" fill="#3E4651" transform="translate(6.878322, 6.641958) scale(1, -1) rotate(-90.000000) translate(-6.878322, -6.641958) "></path>
                        </g>
                    </g>
                </g>
            </g>
        </g>
    </g>
</svg>