<?xml version="1.0" encoding="UTF-8"?>
<svg width="60px" height="52px" viewBox="0 0 60 52" version="1.1" xmlns="http://www.w3.org/2000/svg" xmlns:xlink="http://www.w3.org/1999/xlink">
    <!-- Generator: sketchtool 49.3 (51167) - http://www.bohemiancoding.com/sketch -->
    <title>DDCC6835-AB85-4F7C-92E6-2C7805684494</title>
    <desc>Created with sketchtool.</desc>
    <defs></defs>
    <g id="Secondary-Screens" stroke="none" stroke-width="1" fill="none" fill-rule="evenodd">
        <g id="About" transform="translate(-655.000000, -1048.000000)">
            <g id="About-Dataguru_dark" transform="translate(-1.000000, 165.000000)">
                <g id="Our-Aim" transform="translate(172.000000, 677.000000)">
                    <g id="4" transform="translate(370.000000, 206.000000)">
                        <g id="ic_4" transform="translate(114.000000, 0.000000)">
                            <path d="M20.3676,31.7291 C19.7666,31.3151 18.9836,31.2781 18.3456,31.6321 C18.1286,31.6601 18.1566,31.4661 18.1566,31.4661 C18.6676,30.5701 18.3716,29.4301 17.4886,28.8961 C16.6356,28.4191 15.5636,28.6341 14.9596,29.4031 L13.4536,31.2451 C12.7866,32.0601 12.9066,33.2611 13.7216,33.9281 C13.7316,33.9371 13.7426,33.9461 13.7526,33.9541 L13.9836,34.1331 C14.5966,34.6151 15.4406,34.6751 16.1166,34.2861 C16.1596,34.2591 16.2166,34.2731 16.2426,34.3161 C16.2546,34.3351 16.2586,34.3591 16.2546,34.3821 C16.1166,35.0861 16.3856,35.8091 16.9496,36.2521 L17.1386,36.4001 C17.7276,36.8621 18.5316,36.9401 19.1976,36.5981 C19.2446,36.5721 19.3036,36.5881 19.3286,36.6351 C19.3396,36.6541 19.3436,36.6741 19.3406,36.6951 C19.2696,37.3531 19.5426,38.0021 20.0636,38.4131 L20.1926,38.5141 C20.7876,38.9821 21.6016,39.0591 22.2746,38.7121 C22.3276,38.6811 22.3956,38.6991 22.4266,38.7511 C22.4336,38.7651 22.4386,38.7801 22.4406,38.7951 C22.5156,39.2801 22.7726,39.7171 23.1596,40.0201 L23.2426,40.0841 C24.0916,40.7501 25.3186,40.6011 25.9846,39.7521 C26.0436,39.6761 26.0966,39.5971 26.1436,39.5131 L26.4296,39.0061 C26.9096,38.2021 26.7696,37.1721 26.0936,36.5241 C25.5196,36.0021 24.6906,35.8731 23.9836,36.1921 C23.9556,36.2061 23.9236,36.1931 23.9106,36.1661 C23.9066,36.1571 23.9046,36.1471 23.9056,36.1371 C23.9656,35.0781 23.1556,34.1701 22.0966,34.1111 C21.8216,34.0951 21.5456,34.1391 21.2886,34.2391 C21.0036,34.2901 21.0636,34.0421 21.0636,34.0421 C21.4076,33.2031 21.1176,32.2381 20.3676,31.7291 Z M11.8826,31.1951 C12.5796,31.1951 13.1446,30.6291 13.1456,29.9331 C13.1456,29.2361 12.5806,28.6701 11.8836,28.6701 L9.5376,28.6701 L9.5376,14.6851 L17.8296,14.6851 C18.5266,14.6851 19.0926,14.1211 19.0926,13.4231 C19.0926,12.7261 18.5276,12.1611 17.8306,12.1611 L17.8296,12.1611 L9.3036,12.1611 C8.0316,12.1611 6.9996,13.1921 6.9996,14.4641 L6.9996,28.9051 C6.9996,30.1771 8.0316,31.2081 9.3036,31.2081 L11.8826,31.1951 Z M29.0696,39.8691 C28.5026,39.4621 27.7136,39.5931 27.3086,40.1601 C26.9026,40.7271 27.0336,41.5151 27.5996,41.9211 L27.6086,41.9271 C29.1396,43.0141 31.2616,42.6551 32.3486,41.1241 C32.4506,40.9801 32.5416,40.8281 32.6206,40.6691 C33.5706,40.9171 34.5786,40.7361 35.3846,40.1771 C35.8516,39.8481 36.2286,39.4081 36.4816,38.8961 C37.4296,39.1431 38.4386,38.9651 39.2446,38.4081 C39.7106,38.0811 40.0876,37.6421 40.3406,37.1321 C41.2216,37.3671 42.1596,37.2321 42.9396,36.7591 C43.8056,36.2331 44.3936,35.3481 44.5416,34.3451 C44.6916,33.3651 44.3996,32.3691 43.7446,31.6231 L31.0686,16.2471 C30.6446,15.6931 29.8526,15.5881 29.2986,16.0121 C28.7456,16.4361 28.6406,17.2281 29.0646,17.7821 C29.0836,17.8071 29.1036,17.8311 29.1246,17.8541 L41.8666,33.2721 C42.1836,33.6361 42.1456,34.1891 41.7816,34.5061 C41.7356,34.5471 41.6846,34.5831 41.6306,34.6131 C41.2696,34.8041 40.8256,34.7351 40.5386,34.4421 L40.3596,34.2711 C39.8396,33.7691 39.0116,33.7841 38.5096,34.3031 C38.2126,34.6111 38.0846,35.0441 38.1666,35.4641 C38.2326,35.7961 38.0996,36.1351 37.8256,36.3351 C37.4506,36.5711 36.9616,36.5071 36.6606,36.1831 L36.4986,36.0271 C35.9796,35.5251 35.1516,35.5391 34.6496,36.0581 C34.3526,36.3661 34.2246,36.7991 34.3066,37.2191 C34.3716,37.5591 34.2316,37.9061 33.9476,38.1041 C33.5736,38.3401 33.0836,38.2761 32.7826,37.9521 L32.6206,37.8001 C32.1016,37.2981 31.2736,37.3121 30.7706,37.8321 C30.4736,38.1391 30.3456,38.5731 30.4286,38.9931 C30.5226,39.4621 30.2186,39.9181 29.7496,40.0121 C29.5126,40.0601 29.2646,40.0061 29.0696,39.8641 L29.0696,39.8691 Z M52.2946,14.4591 L52.2946,28.9051 C52.2946,29.4721 51.8346,29.9321 51.2676,29.9321 L47.4766,29.9321 C47.1076,29.9321 46.7496,30.0591 46.4626,30.2921 L45.8776,30.7521 C45.7286,30.8751 45.5076,30.8521 45.3856,30.7021 L45.3846,30.7021 L31.6256,13.9941 C31.2786,13.5721 30.6796,13.4591 30.2026,13.7271 L23.8916,17.2601 C22.6186,17.9771 21.0836,18.0531 19.7456,17.4671 C19.0376,17.1431 18.7276,16.3061 19.0516,15.5991 C19.1306,15.4271 19.2426,15.2731 19.3816,15.1461 L26.7886,9.5031 C28.8176,7.9611 31.4976,7.5761 33.8786,8.4851 L45.6946,12.9901 C46.4616,13.2891 47.2786,13.4451 48.1026,13.4511 L51.2676,13.4511 C51.8276,13.4501 52.2846,13.8991 52.2946,14.4591 Z" id="Fill-1" fill="#0155FF"></path>
                            <g id="Illustration_Key-Executives">
                                <ellipse id="Oval-3-Copy-2" fill="#FFD794" cx="57.9900498" cy="16" rx="1.99004975" ry="2"></ellipse>
                                <ellipse id="Oval-3-Copy-3" fill="#FFD794" cx="1.99004975" cy="42" rx="1.99004975" ry="2"></ellipse>
                                <ellipse id="Oval-3-Copy" fill="#B8E986" cx="53.9900498" cy="50" rx="1.99004975" ry="2"></ellipse>
                                <ellipse id="Oval-4" fill="#FBAAB4" cx="2.98507463" cy="3" rx="2.98507463" ry="3"></ellipse>
                            </g>
                        </g>
                    </g>
                </g>
            </g>
        </g>
    </g>
</svg>