<?xml version="1.0" encoding="UTF-8"?>
<svg width="60px" height="55px" viewBox="0 0 60 55" version="1.1" xmlns="http://www.w3.org/2000/svg" xmlns:xlink="http://www.w3.org/1999/xlink">
    <!-- Generator: sketchtool 49.3 (51167) - http://www.bohemiancoding.com/sketch -->
    <title>D1F421A3-0603-4557-B131-526644BA495F</title>
    <desc>Created with sketchtool.</desc>
    <defs>
        <polygon id="path-1" points="3.4884 10 0.8454 10 0.8454 0.2191 3.4884 0.2191 3.4884 10"></polygon>
        <polygon id="path-3" points="10.333 0.512 10.333 3.155 0.5521 3.155 0.5521 0.512 10.333 0.512"></polygon>
        <polygon id="path-5" points="0.8453 0.667 3.4883 0.667 3.4883 10.4485 0.8453 10.4485 0.8453 0.667"></polygon>
    </defs>
    <g id="Secondary-Screens" stroke="none" stroke-width="1" fill="none" fill-rule="evenodd">
        <g id="About" transform="translate(-1005.000000, -938.000000)">
            <g id="About-Dataguru_dark" transform="translate(-1.000000, 165.000000)">
                <g id="Our-Aim" transform="translate(172.000000, 677.000000)">
                    <g id="5" transform="translate(733.000000, 95.000000)">
                        <g id="ic_5" transform="translate(101.000000, 0.000000)">
                            <path d="M23.5123,18.4403 C23.7403,18.2893 23.9673,18.1873 24.2203,18.0613 C24.3463,18.0103 24.4483,17.9603 24.5743,17.8843 C24.5993,17.8583 24.8023,17.7833 24.7263,17.8083 C24.6503,17.8583 24.7773,17.7833 24.7773,17.7833 C24.8273,17.7573 24.8783,17.7323 24.9533,17.7073 C25.2823,17.5803 25.6363,17.4543 25.9903,17.3533 C27.9883,16.7463 30.1123,16.5693 32.2113,16.8723 C33.8293,17.1253 35.4233,17.6563 36.8633,18.3903 C37.1413,18.5413 37.4963,18.4653 37.6473,18.1873 C37.8003,17.9343 37.7233,17.5303 37.4453,17.4033 C34.9173,16.1393 32.0853,15.4563 29.2273,15.6333 C27.3813,15.7603 25.5863,16.1903 23.9173,16.9483 C23.5883,17.1003 23.2593,17.2523 22.9563,17.4543 C22.7033,17.6313 22.5763,17.9603 22.7543,18.2383 C22.8803,18.4913 23.2593,18.6173 23.5123,18.4403" id="Fill-1" fill="#0155FF"></path>
                            <path d="M23.5123,18.4403 C23.7403,18.2893 23.9673,18.1873 24.2203,18.0613 C24.3463,18.0103 24.4483,17.9603 24.5743,17.8843 C24.5993,17.8583 24.8023,17.7833 24.7263,17.8083 C24.6503,17.8583 24.7773,17.7833 24.7773,17.7833 C24.8273,17.7573 24.8783,17.7323 24.9533,17.7073 C25.2823,17.5803 25.6363,17.4543 25.9903,17.3533 C27.9883,16.7463 30.1123,16.5693 32.2113,16.8723 C33.8293,17.1253 35.4233,17.6563 36.8633,18.3903 C37.1413,18.5413 37.4963,18.4653 37.6473,18.1873 C37.8003,17.9343 37.7233,17.5303 37.4453,17.4033 C34.9173,16.1393 32.0853,15.4563 29.2273,15.6333 C27.3813,15.7603 25.5863,16.1903 23.9173,16.9483 C23.5883,17.1003 23.2593,17.2523 22.9563,17.4543 C22.7033,17.6313 22.5763,17.9603 22.7543,18.2383 C22.8803,18.4913 23.2593,18.6173 23.5123,18.4403 Z" id="Stroke-3" stroke="#0155FF"></path>
                            <path d="M22.3155,36.1751 C22.0375,35.4921 21.8855,34.7841 21.7595,34.0511 C21.7335,33.9001 21.7085,33.7231 21.6835,33.5711 C21.6835,33.5451 21.6585,33.3941 21.6835,33.5711 C21.6835,33.5201 21.6835,33.4951 21.6585,33.4451 C21.6585,33.3431 21.6325,33.2421 21.6325,33.1411 C21.5825,32.7621 21.5825,32.3831 21.5825,31.9781 C21.5825,31.5731 21.6075,31.1431 21.6585,30.7391 C21.6585,30.6881 21.6585,30.6371 21.6835,30.5871 C21.6585,30.7141 21.6835,30.5621 21.6835,30.5361 C21.7085,30.4351 21.7085,30.3341 21.7335,30.2331 C21.7845,30.0061 21.8095,29.7781 21.8855,29.5751 C22.1385,28.6651 22.4415,27.9321 22.9985,27.1481 C23.2515,26.7941 23.5545,26.4401 23.9085,26.1111 C24.3135,25.7321 24.7175,25.4031 25.1985,25.1001 C26.3865,24.3411 27.7525,23.8101 29.1685,23.6841 C30.7115,23.5321 32.2535,23.7591 33.6945,24.3161 C34.8325,24.7461 35.8695,25.4031 36.7045,26.2881 C37.1595,26.7431 37.5125,27.2751 37.8415,27.8311 C38.0185,28.1341 38.1955,28.4631 38.3475,28.7921 C38.4225,28.9681 38.5245,29.1461 38.6005,29.3221 C38.5495,29.2211 38.5755,29.2981 38.6005,29.3221 C38.6755,29.5001 38.7265,29.6761 38.7775,29.8541 C38.8285,30.0061 38.8525,30.1571 38.8775,30.3091 C38.9035,30.3851 38.9035,30.4861 38.9285,30.5871 C38.9285,30.6371 38.9545,30.6881 38.9545,30.7391 C38.9285,30.5871 38.9545,30.8151 38.9545,30.8401 C38.9795,31.0421 38.9795,31.2441 38.9795,31.4721 L38.9795,31.8011 L38.9795,31.9781 L38.9795,32.0791 C38.9795,32.0291 38.9795,32.0291 38.9795,32.0791 C38.9035,32.5851 38.8025,32.8631 38.4995,33.2671 C38.5495,33.1921 38.4485,33.3431 38.4485,33.3431 C38.3975,33.3941 38.3735,33.4191 38.3225,33.4701 C38.2465,33.5451 38.1695,33.6211 38.1205,33.6471 C37.8675,33.8491 37.5635,33.9761 37.2595,34.0511 C36.6025,34.2531 35.8435,34.2031 35.2115,33.8741 C34.7315,33.6211 34.3775,33.2671 34.1245,32.7871 C34.0745,32.6861 34.0485,32.6351 33.9985,32.4841 C33.9725,32.4081 33.9475,32.3061 33.9475,32.2311 C33.9215,32.1301 33.8465,31.9271 33.9475,32.1551 C33.8965,32.0291 33.9475,31.8511 33.9215,31.7251 C33.9215,31.5231 33.8715,31.3211 33.8465,31.0931 C33.2905,28.3111 29.3195,27.4511 27.5245,29.5251 C26.1595,31.0931 26.5385,33.3941 27.2715,35.1641 C28.1065,37.2121 29.6995,38.8301 31.6715,39.8171 C32.3035,40.1461 32.9865,40.3991 33.6695,40.6261 C34.3775,40.8541 34.6805,39.7401 33.9725,39.5131 C32.7585,39.1091 31.5195,38.5281 30.5585,37.7181 C29.7505,37.0611 29.1935,36.3531 28.6885,35.4671 C28.5865,35.2651 28.4855,35.0631 28.3845,34.8611 L28.3585,34.8101 C28.3335,34.7591 28.3085,34.7091 28.3085,34.6841 C28.2575,34.5821 28.2325,34.4821 28.2075,34.3801 C28.0815,34.0261 27.9795,33.6471 27.9035,33.2671 C27.8785,33.0911 27.8535,32.9391 27.8285,32.7871 C27.8285,32.7371 27.8285,32.7111 27.8025,32.6861 C27.7775,32.5591 27.8025,32.7371 27.8025,32.6861 C27.8025,32.6101 27.7775,32.5341 27.7775,32.4581 C27.7015,31.8261 27.8025,31.1941 28.1315,30.6371 C28.8395,29.4741 30.2305,29.2721 31.3935,29.7531 C31.8235,29.9291 32.2275,30.2331 32.4805,30.6371 C32.7845,31.1181 32.7585,31.6491 32.8355,32.2311 C32.8605,32.3831 32.8355,32.2811 32.8355,32.2561 C32.8355,32.3321 32.8605,32.3831 32.8605,32.4581 C32.8855,32.5341 32.8855,32.6351 32.9105,32.7111 C32.9615,32.8881 33.0375,33.0911 33.1135,33.2421 C33.1885,33.4191 33.3155,33.6211 33.4415,33.7741 C33.9215,34.4051 34.5795,34.8611 35.3635,35.0881 C36.7285,35.4921 38.3975,35.1391 39.3335,34.0261 C40.4715,32.6601 40.3445,30.6631 39.8135,29.0451 C39.4605,27.9831 38.8525,26.9711 38.1695,26.1111 C37.4125,25.1251 36.4515,24.2911 35.3375,23.7091 C32.4555,22.1921 28.9915,21.9891 26.0325,23.3551 C23.9845,24.2911 22.2145,25.8831 21.3295,27.9831 C20.6465,29.6011 20.4445,31.3961 20.6215,33.1661 C20.7225,34.2291 20.9245,35.2901 21.2785,36.3021 C21.3045,36.3531 21.3295,36.4031 21.3295,36.4531 C21.4555,36.7571 21.7085,36.9591 22.0375,36.8591 C22.1895,36.8331 22.4415,36.4791 22.3155,36.1751" id="Fill-5" fill="#0155FF"></path>
                            <path d="M22.3155,36.1751 C22.0375,35.4921 21.8855,34.7841 21.7595,34.0511 C21.7335,33.9001 21.7085,33.7231 21.6835,33.5711 C21.6835,33.5451 21.6585,33.3941 21.6835,33.5711 C21.6835,33.5201 21.6835,33.4951 21.6585,33.4451 C21.6585,33.3431 21.6325,33.2421 21.6325,33.1411 C21.5825,32.7621 21.5825,32.3831 21.5825,31.9781 C21.5825,31.5731 21.6075,31.1431 21.6585,30.7391 C21.6585,30.6881 21.6585,30.6371 21.6835,30.5871 C21.6585,30.7141 21.6835,30.5621 21.6835,30.5361 C21.7085,30.4351 21.7085,30.3341 21.7335,30.2331 C21.7845,30.0061 21.8095,29.7781 21.8855,29.5751 C22.1385,28.6651 22.4415,27.9321 22.9985,27.1481 C23.2515,26.7941 23.5545,26.4401 23.9085,26.1111 C24.3135,25.7321 24.7175,25.4031 25.1985,25.1001 C26.3865,24.3411 27.7525,23.8101 29.1685,23.6841 C30.7115,23.5321 32.2535,23.7591 33.6945,24.3161 C34.8325,24.7461 35.8695,25.4031 36.7045,26.2881 C37.1595,26.7431 37.5125,27.2751 37.8415,27.8311 C38.0185,28.1341 38.1955,28.4631 38.3475,28.7921 C38.4225,28.9681 38.5245,29.1461 38.6005,29.3221 C38.5495,29.2211 38.5755,29.2981 38.6005,29.3221 C38.6755,29.5001 38.7265,29.6761 38.7775,29.8541 C38.8285,30.0061 38.8525,30.1571 38.8775,30.3091 C38.9035,30.3851 38.9035,30.4861 38.9285,30.5871 C38.9285,30.6371 38.9545,30.6881 38.9545,30.7391 C38.9285,30.5871 38.9545,30.8151 38.9545,30.8401 C38.9795,31.0421 38.9795,31.2441 38.9795,31.4721 L38.9795,31.8011 L38.9795,31.9781 L38.9795,32.0791 C38.9795,32.0291 38.9795,32.0291 38.9795,32.0791 C38.9035,32.5851 38.8025,32.8631 38.4995,33.2671 C38.5495,33.1921 38.4485,33.3431 38.4485,33.3431 C38.3975,33.3941 38.3735,33.4191 38.3225,33.4701 C38.2465,33.5451 38.1695,33.6211 38.1205,33.6471 C37.8675,33.8491 37.5635,33.9761 37.2595,34.0511 C36.6025,34.2531 35.8435,34.2031 35.2115,33.8741 C34.7315,33.6211 34.3775,33.2671 34.1245,32.7871 C34.0745,32.6861 34.0485,32.6351 33.9985,32.4841 C33.9725,32.4081 33.9475,32.3061 33.9475,32.2311 C33.9215,32.1301 33.8465,31.9271 33.9475,32.1551 C33.8965,32.0291 33.9475,31.8511 33.9215,31.7251 C33.9215,31.5231 33.8715,31.3211 33.8465,31.0931 C33.2905,28.3111 29.3195,27.4511 27.5245,29.5251 C26.1595,31.0931 26.5385,33.3941 27.2715,35.1641 C28.1065,37.2121 29.6995,38.8301 31.6715,39.8171 C32.3035,40.1461 32.9865,40.3991 33.6695,40.6261 C34.3775,40.8541 34.6805,39.7401 33.9725,39.5131 C32.7585,39.1091 31.5195,38.5281 30.5585,37.7181 C29.7505,37.0611 29.1935,36.3531 28.6885,35.4671 C28.5865,35.2651 28.4855,35.0631 28.3845,34.8611 L28.3585,34.8101 C28.3335,34.7591 28.3085,34.7091 28.3085,34.6841 C28.2575,34.5821 28.2325,34.4821 28.2075,34.3801 C28.0815,34.0261 27.9795,33.6471 27.9035,33.2671 C27.8785,33.0911 27.8535,32.9391 27.8285,32.7871 C27.8285,32.7371 27.8285,32.7111 27.8025,32.6861 C27.7775,32.5591 27.8025,32.7371 27.8025,32.6861 C27.8025,32.6101 27.7775,32.5341 27.7775,32.4581 C27.7015,31.8261 27.8025,31.1941 28.1315,30.6371 C28.8395,29.4741 30.2305,29.2721 31.3935,29.7531 C31.8235,29.9291 32.2275,30.2331 32.4805,30.6371 C32.7845,31.1181 32.7585,31.6491 32.8355,32.2311 C32.8605,32.3831 32.8355,32.2811 32.8355,32.2561 C32.8355,32.3321 32.8605,32.3831 32.8605,32.4581 C32.8855,32.5341 32.8855,32.6351 32.9105,32.7111 C32.9615,32.8881 33.0375,33.0911 33.1135,33.2421 C33.1885,33.4191 33.3155,33.6211 33.4415,33.7741 C33.9215,34.4051 34.5795,34.8611 35.3635,35.0881 C36.7285,35.4921 38.3975,35.1391 39.3335,34.0261 C40.4715,32.6601 40.3445,30.6631 39.8135,29.0451 C39.4605,27.9831 38.8525,26.9711 38.1695,26.1111 C37.4125,25.1251 36.4515,24.2911 35.3375,23.7091 C32.4555,22.1921 28.9915,21.9891 26.0325,23.3551 C23.9845,24.2911 22.2145,25.8831 21.3295,27.9831 C20.6465,29.6011 20.4445,31.3961 20.6215,33.1661 C20.7225,34.2291 20.9245,35.2901 21.2785,36.3021 C21.3045,36.3531 21.3295,36.4031 21.3295,36.4531 C21.4555,36.7571 21.7085,36.9591 22.0375,36.8591 C22.1895,36.8331 22.4415,36.4791 22.3155,36.1751 Z" id="Stroke-7" stroke="#0155FF"></path>
                            <path d="M20.443,25.075 C20.468,25.024 20.494,24.999 20.545,24.949 C20.595,24.898 21.373,23.991 20.646,24.797 C20.608,24.839 20.772,24.645 20.646,24.797 C20.671,24.746 20.721,24.721 20.747,24.67 C21.075,24.265 21.455,23.861 21.834,23.482 C22.416,22.926 22.922,22.521 23.579,22.091 C24.362,21.585 25.197,21.156 26.057,20.852 C27.068,20.498 28.13,20.27 29.218,20.195 C29.698,20.169 30.179,20.169 30.634,20.195 C30.861,20.195 31.114,20.22 31.342,20.22 C31.468,20.22 31.62,20.245 31.746,20.27 C31.822,20.27 31.899,20.296 31.974,20.296 C32.126,20.321 31.848,20.27 31.999,20.296 C32.05,20.296 32.101,20.296 32.126,20.321 C32.884,20.448 33.643,20.624 34.376,20.877 C36.551,21.636 38.498,23.179 39.889,25.075 C40.066,25.328 40.395,25.454 40.673,25.277 C40.926,25.125 41.052,24.746 40.875,24.493 C39.51,22.596 37.714,21.054 35.565,20.118 C34.123,19.487 32.581,19.133 31.013,19.056 C29.521,18.981 27.979,19.082 26.537,19.487 C24.666,20.017 22.946,21.004 21.48,22.268 C20.747,22.926 20.013,23.659 19.483,24.493 C19.052,25.125 20.039,25.707 20.443,25.075" id="Fill-9" fill="#0155FF"></path>
                            <path d="M20.443,25.075 C20.468,25.024 20.494,24.999 20.545,24.949 C20.595,24.898 21.373,23.991 20.646,24.797 C20.608,24.839 20.772,24.645 20.646,24.797 C20.671,24.746 20.721,24.721 20.747,24.67 C21.075,24.265 21.455,23.861 21.834,23.482 C22.416,22.926 22.922,22.521 23.579,22.091 C24.362,21.585 25.197,21.156 26.057,20.852 C27.068,20.498 28.13,20.27 29.218,20.195 C29.698,20.169 30.179,20.169 30.634,20.195 C30.861,20.195 31.114,20.22 31.342,20.22 C31.468,20.22 31.62,20.245 31.746,20.27 C31.822,20.27 31.899,20.296 31.974,20.296 C32.126,20.321 31.848,20.27 31.999,20.296 C32.05,20.296 32.101,20.296 32.126,20.321 C32.884,20.448 33.643,20.624 34.376,20.877 C36.551,21.636 38.498,23.179 39.889,25.075 C40.066,25.328 40.395,25.454 40.673,25.277 C40.926,25.125 41.052,24.746 40.875,24.493 C39.51,22.596 37.714,21.054 35.565,20.118 C34.123,19.487 32.581,19.133 31.013,19.056 C29.521,18.981 27.979,19.082 26.537,19.487 C24.666,20.017 22.946,21.004 21.48,22.268 C20.747,22.926 20.013,23.659 19.483,24.493 C19.052,25.125 20.039,25.707 20.443,25.075 Z" id="Stroke-11" stroke="#0155FF"></path>
                            <path d="M30.0616,31.8939 C30.0376,32.9809 30.4156,34.0689 30.9476,35.0039 C31.7066,36.3699 32.9186,37.4319 34.4116,37.8869 C35.5746,38.2409 36.7376,38.1899 37.9516,38.0639 C38.2546,38.0389 38.5336,37.8109 38.5336,37.4819 C38.5336,37.1789 38.2806,36.8749 37.9516,36.9009 C36.9646,37.0009 35.9796,37.0779 35.0686,36.8499 C34.6646,36.7479 34.3856,36.6479 34.0826,36.4959 C33.9306,36.4199 33.7796,36.3189 33.6266,36.2439 C33.5516,36.1929 33.5006,36.1419 33.4246,36.1169 C33.3746,36.0909 33.3496,36.0659 33.3246,36.0399 C33.2986,36.0149 33.2986,36.0149 33.3246,36.0399 C33.2986,36.0149 33.2736,36.0149 33.2736,35.9909 C33.0206,35.7879 32.7676,35.5349 32.5656,35.2829 C32.5146,35.2319 32.4636,35.1559 32.4146,35.1049 C32.4896,35.1809 32.3376,35.0039 32.3376,34.9789 C32.2366,34.8519 32.1616,34.7009 32.0596,34.5749 C31.9086,34.3219 31.7816,34.0689 31.6556,33.7899 C31.6556,33.7649 31.6296,33.7399 31.6296,33.7139 C31.6806,33.8409 31.6556,33.7649 31.6296,33.7399 C31.6046,33.6639 31.5796,33.6139 31.5536,33.5379 C31.5026,33.4109 31.4786,33.2849 31.4276,33.1579 C31.3516,32.9309 31.3006,32.7029 31.2496,32.4759 C31.2496,32.4499 31.2256,32.2729 31.2256,32.3989 C31.2496,32.5259 31.2256,32.3489 31.2256,32.3239 L31.2256,31.8689 C31.2256,31.1609 30.0866,31.1609 30.0616,31.8939" id="Fill-13" fill="#0155FF"></path>
                            <path d="M30.0616,31.8939 C30.0376,32.9809 30.4156,34.0689 30.9476,35.0039 C31.7066,36.3699 32.9186,37.4319 34.4116,37.8869 C35.5746,38.2409 36.7376,38.1899 37.9516,38.0639 C38.2546,38.0389 38.5336,37.8109 38.5336,37.4819 C38.5336,37.1789 38.2806,36.8749 37.9516,36.9009 C36.9646,37.0009 35.9796,37.0779 35.0686,36.8499 C34.6646,36.7479 34.3856,36.6479 34.0826,36.4959 C33.9306,36.4199 33.7796,36.3189 33.6266,36.2439 C33.5516,36.1929 33.5006,36.1419 33.4246,36.1169 C33.3746,36.0909 33.3496,36.0659 33.3246,36.0399 C33.2986,36.0149 33.2986,36.0149 33.3246,36.0399 C33.2986,36.0149 33.2736,36.0149 33.2736,35.9909 C33.0206,35.7879 32.7676,35.5349 32.5656,35.2829 C32.5146,35.2319 32.4636,35.1559 32.4146,35.1049 C32.4896,35.1809 32.3376,35.0039 32.3376,34.9789 C32.2366,34.8519 32.1616,34.7009 32.0596,34.5749 C31.9086,34.3219 31.7816,34.0689 31.6556,33.7899 C31.6556,33.7649 31.6296,33.7399 31.6296,33.7139 C31.6806,33.8409 31.6556,33.7649 31.6296,33.7399 C31.6046,33.6639 31.5796,33.6139 31.5536,33.5379 C31.5026,33.4109 31.4786,33.2849 31.4276,33.1579 C31.3516,32.9309 31.3006,32.7029 31.2496,32.4759 C31.2496,32.4499 31.2256,32.2729 31.2256,32.3989 C31.2496,32.5259 31.2256,32.3489 31.2256,32.3239 L31.2256,31.8689 C31.2256,31.1609 30.0866,31.1609 30.0616,31.8939 Z" id="Stroke-15" stroke="#0155FF"></path>
                            <path d="M36.9815,32.2225 C37.0325,30.7565 36.4515,29.3145 35.5405,28.1765 C34.0985,26.3565 31.5705,25.4965 29.2945,25.7995 C27.0945,26.0775 24.9195,27.5695 24.0095,29.6185 C23.4285,30.9585 23.3275,32.4255 23.5295,33.8415 C23.9085,36.4205 25.2485,38.7715 27.1205,40.5675 C27.6505,41.0725 28.4605,40.2645 27.9295,39.7585 C26.3615,38.2405 25.1985,36.3445 24.7435,34.1945 C24.6925,34.0175 24.6675,33.8415 24.6425,33.6885 C24.6425,33.6645 24.6425,33.6135 24.6165,33.5885 C24.5915,33.4365 24.6425,33.7145 24.6165,33.5625 C24.6165,33.4875 24.5915,33.3855 24.5915,33.3095 C24.5655,33.0825 24.5405,32.8295 24.5405,32.6015 C24.5405,32.0965 24.5915,31.6155 24.6925,31.1355 C24.8945,30.1995 25.3505,29.3405 26.0075,28.6825 C26.3355,28.3535 26.5885,28.1765 26.9175,27.9235 C27.3735,27.6205 27.8285,27.3675 28.3585,27.1905 C29.5725,26.7855 30.8365,26.8365 32.0255,27.2155 C32.9105,27.4935 33.6685,27.9495 34.2765,28.5815 C34.6045,28.9095 34.7825,29.1375 35.0355,29.5675 C35.1355,29.7195 35.2115,29.8965 35.2875,30.0735 C35.3125,30.1235 35.3375,30.1495 35.3375,30.1995 C35.3885,30.3265 35.3125,30.1235 35.3635,30.2505 C35.3885,30.3265 35.4395,30.4275 35.4645,30.5035 C35.5655,30.8065 35.6675,31.1105 35.7175,31.4385 C35.7175,31.5145 35.7435,31.5655 35.7435,31.6405 C35.7175,31.4385 35.7435,31.6405 35.7435,31.6915 C35.7675,31.8935 35.7675,32.0965 35.7675,32.2735 C35.8185,32.9815 36.9815,32.9815 36.9815,32.2225" id="Fill-17" fill="#0155FF"></path>
                            <path d="M36.9815,32.2225 C37.0325,30.7565 36.4515,29.3145 35.5405,28.1765 C34.0985,26.3565 31.5705,25.4965 29.2945,25.7995 C27.0945,26.0775 24.9195,27.5695 24.0095,29.6185 C23.4285,30.9585 23.3275,32.4255 23.5295,33.8415 C23.9085,36.4205 25.2485,38.7715 27.1205,40.5675 C27.6505,41.0725 28.4605,40.2645 27.9295,39.7585 C26.3615,38.2405 25.1985,36.3445 24.7435,34.1945 C24.6925,34.0175 24.6675,33.8415 24.6425,33.6885 C24.6425,33.6645 24.6425,33.6135 24.6165,33.5885 C24.5915,33.4365 24.6425,33.7145 24.6165,33.5625 C24.6165,33.4875 24.5915,33.3855 24.5915,33.3095 C24.5655,33.0825 24.5405,32.8295 24.5405,32.6015 C24.5405,32.0965 24.5915,31.6155 24.6925,31.1355 C24.8945,30.1995 25.3505,29.3405 26.0075,28.6825 C26.3355,28.3535 26.5885,28.1765 26.9175,27.9235 C27.3735,27.6205 27.8285,27.3675 28.3585,27.1905 C29.5725,26.7855 30.8365,26.8365 32.0255,27.2155 C32.9105,27.4935 33.6685,27.9495 34.2765,28.5815 C34.6045,28.9095 34.7825,29.1375 35.0355,29.5675 C35.1355,29.7195 35.2115,29.8965 35.2875,30.0735 C35.3125,30.1235 35.3375,30.1495 35.3375,30.1995 C35.3885,30.3265 35.3125,30.1235 35.3635,30.2505 C35.3885,30.3265 35.4395,30.4275 35.4645,30.5035 C35.5655,30.8065 35.6675,31.1105 35.7175,31.4385 C35.7175,31.5145 35.7435,31.5655 35.7435,31.6405 C35.7175,31.4385 35.7435,31.6405 35.7435,31.6915 C35.7675,31.8935 35.7675,32.0965 35.7675,32.2735 C35.8185,32.9815 36.9815,32.9815 36.9815,32.2225 Z" id="Stroke-19" stroke="#0155FF"></path>
                            <path d="M23.9308,46.8617 L23.9168,46.9027 C23.6788,47.6197 22.8818,47.9777 22.1828,47.6917 C16.9688,45.5537 12.7788,41.3647 10.6408,36.1507 C10.3548,35.4517 10.7138,34.6557 11.4308,34.4167 L11.4718,34.4027 C12.1278,34.1837 12.8298,34.5217 13.0928,35.1617 C14.9618,39.7147 18.6198,43.3717 23.1718,45.2407 C23.8118,45.5047 24.1498,46.2057 23.9308,46.8617" id="Fill-21" fill="#0155FF"></path>
                            <g id="Group-25" transform="translate(28.000000, 45.333300)">
                                <mask id="mask-2" fill="white">
                                    <use xlink:href="#path-1"></use>
                                </mask>
                                <g id="Clip-24"></g>
                                <path d="M3.4884,1.5401 L3.4884,8.6791 C3.4884,9.4081 2.8964,10.0001 2.1674,10.0001 C1.4374,10.0001 0.8454,9.4081 0.8454,8.6791 L0.8454,1.5401 C0.8454,0.8111 1.4374,0.2191 2.1674,0.2191 C2.8964,0.2191 3.4884,0.8111 3.4884,1.5401" id="Fill-23" fill="#0155FF" mask="url(#mask-2)"></path>
                            </g>
                            <path d="M49.6915,36.1507 C47.5545,41.3647 43.3655,45.5537 38.1505,47.6917 C37.4515,47.9777 36.6555,47.6197 36.4165,46.9027 L36.4025,46.8617 C36.1835,46.2057 36.5215,45.5047 37.1615,45.2407 C41.7135,43.3717 45.3715,39.7137 47.2415,35.1617 C47.5035,34.5217 48.2055,34.1837 48.8615,34.4027 L48.9035,34.4167 C49.6195,34.6557 49.9785,35.4517 49.6915,36.1507" id="Fill-26" fill="#0155FF"></path>
                            <g id="Group-30" transform="translate(47.000000, 26.333300)">
                                <mask id="mask-4" fill="white">
                                    <use xlink:href="#path-3"></use>
                                </mask>
                                <g id="Clip-29"></g>
                                <path d="M10.3331,1.833 C10.3331,2.563 9.7411,3.155 9.0121,3.155 L1.8731,3.155 C1.1441,3.155 0.5521,2.563 0.5521,1.833 C0.5521,1.104 1.1441,0.512 1.8731,0.512 L9.0121,0.512 C9.7411,0.512 10.3331,1.104 10.3331,1.833" id="Fill-28" fill="#0155FF" mask="url(#mask-4)"></path>
                            </g>
                            <path d="M11.4601,29.4881 L4.3211,29.4881 C3.5921,29.4881 3.0001,28.8961 3.0001,28.1661 C3.0001,27.4371 3.5921,26.8451 4.3211,26.8451 L11.4601,26.8451 C12.1891,26.8451 12.7811,27.4371 12.7811,28.1661 C12.7811,28.8961 12.1891,29.4881 11.4601,29.4881" id="Fill-31" fill="#0164CF"></path>
                            <g id="Group-35" transform="translate(28.000000, 0.333300)">
                                <mask id="mask-6" fill="white">
                                    <use xlink:href="#path-5"></use>
                                </mask>
                                <g id="Clip-34"></g>
                                <path d="M0.8453,9.1265 L0.8453,1.9885 C0.8453,1.2585 1.4373,0.6665 2.1673,0.6665 C2.8963,0.6665 3.4883,1.2585 3.4883,1.9885 L3.4883,9.1265 C3.4883,9.8565 2.8963,10.4485 2.1673,10.4485 C1.4373,10.4485 0.8453,9.8565 0.8453,9.1265" id="Fill-33" fill="#0155FF" mask="url(#mask-6)"></path>
                            </g>
                            <path d="M36.4024,9.472 L36.4164,9.43 C36.6554,8.714 37.4514,8.355 38.1504,8.641 C43.3654,10.779 47.5544,14.968 49.6914,20.183 C49.9784,20.882 49.6194,21.678 48.9034,21.917 L48.8614,21.931 C48.2054,22.15 47.5044,21.811 47.2414,21.172 C45.3714,16.619 41.7144,12.962 37.1614,11.092 C36.5214,10.829 36.1834,10.128 36.4024,9.472" id="Fill-36" fill="#0155FF"></path>
                            <path d="M10.6412,20.1829 C12.7792,14.9679 16.9682,10.7789 22.1832,8.6409 C22.8822,8.3549 23.6782,8.7139 23.9172,9.4299 L23.9312,9.4719 C24.1492,10.1279 23.8112,10.8289 23.1722,11.0919 C18.6202,12.9619 14.9622,16.6199 13.0922,21.1719 C12.8292,21.8109 12.1282,22.1499 11.4722,21.9309 L11.4302,21.9169 C10.7142,21.6779 10.3542,20.8819 10.6412,20.1829" id="Fill-38" fill="#0155FF"></path>
                            <g id="Illustration_Key-Executives" transform="translate(0.000000, 2.000000)">
                                <ellipse id="Oval-3-Copy-2" fill="#FFD794" cx="57.9900498" cy="16" rx="1.99004975" ry="2"></ellipse>
                                <ellipse id="Oval-3-Copy-3" fill="#FFD794" cx="1.99004975" cy="42" rx="1.99004975" ry="2"></ellipse>
                                <ellipse id="Oval-3-Copy" fill="#B8E986" cx="53.9900498" cy="50" rx="1.99004975" ry="2"></ellipse>
                                <ellipse id="Oval-4" fill="#FBAAB4" cx="2.98507463" cy="3" rx="2.98507463" ry="3"></ellipse>
                            </g>
                        </g>
                    </g>
                </g>
            </g>
        </g>
    </g>
</svg>