<?xml version="1.0" encoding="UTF-8"?>
<svg width="50px" height="50px" viewBox="0 0 50 50" version="1.1" xmlns="http://www.w3.org/2000/svg" xmlns:xlink="http://www.w3.org/1999/xlink">
    <!-- Generator: Sketch 48.2 (47327) - http://www.bohemiancoding.com/sketch -->
    <title>News default icon</title>
    <desc>Created with Sketch.</desc>
    <defs>
        <rect id="path-1" x="0" y="0" width="50" height="50" rx="4"></rect>
    </defs>
    <g id="A_DG_Home_NewsList" stroke="none" stroke-width="1" fill="none" fill-rule="evenodd" transform="translate(-485.000000, -720.000000)">
        <g id="List" transform="translate(465.000000, 409.000000)">
            <g id="L1-Copy" transform="translate(0.000000, 294.000000)">
                <g id="1" transform="translate(20.000000, 17.000000)">
                    <g id="News-default-icon">
                        <g id="LN1-Copy">
                            <use fill="#FFFFFF" fill-rule="evenodd" xlink:href="#path-1"></use>
                            <rect stroke="#E9EEF1" stroke-width="1" x="0.5" y="0.5" width="49" height="49" rx="4"></rect>
                        </g>
                        <rect id="LN1-Copy-6" fill="#E9EEF1" x="3" y="3" width="44" height="44"></rect>
                        <path d="M28.6,30.2 L33.4,30.2 L33.4,29.4 L28.6,29.4 L28.6,30.2 Z M28.6,28.2 L33.4,28.2 L33.4,27.4 L28.6,27.4 L28.6,28.2 Z M28.6,26.2 L33.4,26.2 L33.4,25.4 L28.6,25.4 L28.6,26.2 Z M21.4,30.2 L26.2,30.2 L26.2,29.4 L21.4,29.4 L21.4,30.2 Z M21.4,28.2 L26.2,28.2 L26.2,27.4 L21.4,27.4 L21.4,28.2 Z M21.4,26.2 L26.2,26.2 L26.2,25.4 L21.4,25.4 L21.4,26.2 Z M28.6,23 L33.4,23 L33.4,22.2 L28.6,22.2 L28.6,23 Z M28.6,21 L33.4,21 L33.4,20.2 L28.6,20.2 L28.6,21 Z M29.8,19 L33.4,19 L33.4,18.2 L29.8,18.2 L29.8,19 Z M21.4,23.4 L26.2,23.4 L26.2,18.6 L21.4,18.6 L21.4,23.4 Z M35.4,30.6 C35.4,31.72 34.52,32.6 33.4,32.6 L18.96,32.6 C19.24,32.12 19.4,31.6 19.4,31 L19.4,18.2 L19.4,16.6 L35.4,16.6 L35.4,30.6 Z M14.6,31 L14.6,19 L17.8,19 L17.8,31 C17.8,31.88 17.08,32.6 16.2,32.6 C15.32,32.6 14.6,31.88 14.6,31 Z M36.2,15 L18.6,15 C18.16,15 17.8,15.36 17.8,15.8 L17.8,17.4 L13.8,17.4 C13.36,17.4 13,17.76 13,18.2 L13,31 C13,32.76 14.44,34.2 16.2,34.2 L33.4,34.2 C35.4,34.2 37,32.6 37,30.6 L37,15.8 C37,15.36 36.64,15 36.2,15 Z" id="ic_news" fill="#BABEC1"></path>
                    </g>
                </g>
            </g>
        </g>
    </g>
</svg>