<?xml version="1.0" encoding="UTF-8"?>
<svg width="34px" height="34px" viewBox="0 0 34 34" version="1.1" xmlns="http://www.w3.org/2000/svg" xmlns:xlink="http://www.w3.org/1999/xlink">
    <!-- Generator: sketchtool 57.1 (101010) - https://sketch.com -->
    <title>61261BA9-9AA0-475C-87FF-0194A0EEC0FA</title>
    <desc>Created with sketchtool.</desc>
    <g id="Home-screen" stroke="none" stroke-width="1" fill="none" fill-rule="evenodd">
        <g id="DG_Home_Nov-2019_Demo-Popup" transform="translate(-309.000000, -423.000000)">
            <g id="One-Time-Alert">
                <g id="Request-A-Demo-Popup" transform="translate(284.000000, 130.000000)">
                    <g id="Side-panel">
                        <g id="ic_smartSearch" transform="translate(27.000000, 295.000000)">
                            <ellipse id="Oval" stroke="#FFFFFF" stroke-width="2" fill="#F6F6F6" cx="15" cy="14.7" rx="16" ry="15.7"></ellipse>
                            <path d="M22.377551,20.0918367 L19.1403061,16.8316327 C19.8979592,15.8214286 20.3571429,14.5357143 20.3571429,13.1581633 C20.3571429,9.7372449 17.5790816,6.95918367 14.1581633,6.95918367 C10.7372449,6.95918367 7.95918367,9.7372449 7.95918367,13.1581633 C7.95918367,16.5790816 10.7372449,19.3571429 14.1581633,19.3571429 C15.5357143,19.3571429 16.8214286,18.8979592 17.8316327,18.1403061 L21.0688776,21.377551 C21.4362245,21.744898 22.0102041,21.744898 22.377551,21.377551 C22.744898,21.0331633 22.744898,20.4362245 22.377551,20.0918367 Z M14.1581633,17.5204082 C11.747449,17.5204082 9.79591837,15.5688776 9.79591837,13.1581633 C9.79591837,10.747449 11.747449,8.79591837 14.1581633,8.79591837 C16.5688776,8.79591837 18.5204082,10.747449 18.5204082,13.1581633 C18.5204082,15.5688776 16.5688776,17.5204082 14.1581633,17.5204082 Z M15.3061224,10.8622449 C15.3061224,11.505102 14.8010204,12.0102041 14.1581633,12.0102041 C13.5153061,12.0102041 13.0102041,11.505102 13.0102041,10.8622449 C13.0102041,10.2193878 13.5153061,9.71428571 14.1581633,9.71428571 C14.8010204,9.71428571 15.3061224,10.2193878 15.3061224,10.8622449 Z" id="ic_smart-search" fill="#016BFF" fill-rule="nonzero"></path>
                        </g>
                    </g>
                </g>
            </g>
        </g>
    </g>
</svg>