<?xml version="1.0" encoding="UTF-8"?>
<svg width="34px" height="34px" viewBox="0 0 34 34" version="1.1" xmlns="http://www.w3.org/2000/svg" xmlns:xlink="http://www.w3.org/1999/xlink">
    <!-- Generator: sketchtool 57.1 (101010) - https://sketch.com -->
    <title>3DAAC956-CD2E-4BDD-8E93-38BB0EAC0D83</title>
    <desc>Created with sketchtool.</desc>
    <g id="Home-screen" stroke="none" stroke-width="1" fill="none" fill-rule="evenodd">
        <g id="DG_Home_Nov-2019_Demo-Popup" transform="translate(-309.000000, -379.000000)">
            <g id="One-Time-Alert">
                <g id="Request-A-Demo-Popup" transform="translate(284.000000, 130.000000)">
                    <g id="Side-panel">
                        <g id="ic_radius-search" transform="translate(27.000000, 251.000000)">
                            <ellipse id="Oval" stroke="#FFFFFF" stroke-width="2" fill="#F6F6F6" cx="15" cy="14.7553009" rx="16" ry="15.7"></ellipse>
                            <path d="M8.91769823,12.4701584 C8.42087655,12.2571802 7.89645366,12.1240688 7.31682837,12.1240688 C5.32954165,12.1240688 3.67346939,13.6947834 3.67346939,15.63821 C3.67346939,17.5816366 6.76480428,21.1756447 7.34442958,21.1756447 C7.75844764,21.1756447 9.49732352,19.2854627 10.4081633,17.528392 C9.63532954,16.2505225 8.86249582,14.6798079 8.86249582,13.375316 C8.86249582,13.0558486 8.89009702,12.7630035 8.91769823,12.4701584 Z M8.91769823,15.5050986 C8.91769823,16.3570116 8.22766812,17.0225687 7.34442958,17.0225687 C6.48879224,17.0225687 5.77116092,16.3570116 5.77116092,15.5050986 C5.77116092,14.6798079 6.46119103,13.9876285 7.34442958,13.9876285 C8.20006691,13.9876285 8.91769823,14.6798079 8.91769823,15.5050986 Z" id="Shape" fill="#0164CF" fill-rule="nonzero"></path>
                            <path d="M22.6952726,12.1240688 C22.1133783,12.1240688 21.5869026,12.2575728 21.0881361,12.4711793 C21.1435546,12.7648883 21.1435546,13.0585973 21.1435546,13.3523062 C21.1435546,14.6606461 20.3954049,16.2359941 19.5918367,17.5176332 C20.5062419,19.3065877 22.2519246,21.1756447 22.6675633,21.1756447 C23.2217483,21.1756447 26.3251841,17.5977356 26.3251841,15.6485762 C26.3806026,13.6994168 24.7180477,12.1240688 22.6952726,12.1240688 Z M22.6952726,17.0370185 C21.8362859,17.0370185 21.1158454,16.3694982 21.1158454,15.5150721 C21.1158454,14.6873469 21.8085766,13.9931257 22.6952726,13.9931257 C23.5542593,13.9931257 24.2746997,14.6606461 24.2746997,15.5150721 C24.2746997,16.3694982 23.5819685,17.0370185 22.6952726,17.0370185 Z" id="Shape" fill="#0164CF" fill-rule="nonzero"></path>
                            <path d="M20.1774623,12.9539381 C19.8846495,10.1280802 17.5421473,7.9 14.6938776,7.9 C11.8456078,7.9 9.50310559,10.1280802 9.21029281,12.9539381 C9.18367347,13.1441401 9.18367347,13.334342 9.18367347,13.5517157 C9.18367347,14.5842407 9.68944099,15.8884828 10.4081633,17.1927249 C11.8456078,19.8283807 14.1348713,22.3825215 14.6938776,22.3825215 C15.2528838,22.3825215 17.5421473,19.8283807 18.9795918,17.1927249 C19.6983141,15.8884828 20.2040816,14.5842407 20.2040816,13.5517157 C20.2040816,13.334342 20.2040816,13.1441401 20.1774623,12.9539381 Z M14.6938776,15.7526242 C13.3895297,15.7526242 12.324756,14.6657558 12.324756,13.334342 C12.324756,12.0029282 13.3895297,10.9160598 14.6938776,10.9160598 C15.9982254,10.9160598 17.0629991,12.0029282 17.0629991,13.334342 C17.0629991,14.6657558 15.9982254,15.7526242 14.6938776,15.7526242 Z" id="Shape" fill="#0164CF" fill-rule="nonzero"></path>
                        </g>
                    </g>
                </g>
            </g>
        </g>
    </g>
</svg>