<?xml version="1.0" encoding="UTF-8"?>
<svg width="17px" height="17px" viewBox="0 0 17 17" version="1.1" xmlns="http://www.w3.org/2000/svg" xmlns:xlink="http://www.w3.org/1999/xlink">
    <!-- Generator: sketchtool 49.2 (51160) - http://www.bohemiancoding.com/sketch -->
    <title>7041EBFC-D10B-41AD-BE20-559F0789C3A2</title>
    <desc>Created with sketchtool.</desc>
    <defs></defs>
    <g id="Company-Screens" stroke="none" stroke-width="1" fill="none" fill-rule="evenodd">
        <g id="A_DG_Home_Company-NewList_selected_z-Copy" transform="translate(-718.000000, -342.000000)" fill="#CACDD6">
            <g id="Action-Bar" transform="translate(465.000000, 324.000000)">
                <g id="action-buttons" transform="translate(115.000000, 18.000000)">
                    <g id="ic_printer_grey" transform="translate(139.000000, 1.000000)">
                        <path d="M11.323,10 C11.3321667,11.3356667 11.3333333,12.6665 11.3333333,14 L3.66666667,14 C3.66166667,12.6671667 3.674,11.3381667 3.68233333,10.0051667 C6.18866667,9.99066667 9.14966667,10.0005 11.323,10 Z M3.66666667,1 L9.02083333,1.00516667 L9.02083333,3.17183333 L11.349,3.17183333 L11.3388333,5.33333333 L3.66683333,5.33333333 L3.66666667,1 Z M2.66666667,0 L2.66666667,5.33333333 C1.18166667,5.33333333 0,6.70833333 0,8.33333333 L0,12.5 C0,12.7616667 0.238333333,13 0.5,13 C1.13083333,13.0001667 1.9515,13 2.66666667,13 L2.66666667,14.5 C2.66666667,14.7616667 2.905,15 3.16666667,15 L11.8335,15 C12.0951667,15 12.3333333,14.7616667 12.3333333,14.5 L12.3333333,13 L14.5,13 C14.7618333,13 15,12.7616667 15,12.5 L15,8.33333333 C15,6.71016667 13.8211667,5.3365 12.3386667,5.33333333 L12.3541667,2.00316667 C11.6655,1.32133333 10.8703333,0.592166667 10.2136667,0.00516666667 C7.59466667,0.00483333333 4.912,0.000166666667 2.66683333,0 L2.66666667,0 Z" id="ic_printer" stroke="#CACDD6" stroke-width="0.5"></path>
                        <path d="M2.66666667,6.33333333 L12.3333333,6.33333333 C13.1816667,6.33333333 14,7.18983333 14,8.33333333 L14,12 L12.3333333,12 L12.3231667,9.5 C12.323,9.23816667 12.0848333,9 11.8231667,9 C8.84483333,8.995 6.12083333,9.00316667 3.1825,9.00516667 C2.85433333,9.003 2.68766667,9.16966667 2.6825,9.5 L2.66683333,12 L1.00016667,12 L1.00016667,8.33333333 C1.02083333,7.33633333 1.6875,6.33633333 2.66666667,6.33333333 Z" id="Path"></path>
                    </g>
                </g>
            </g>
        </g>
    </g>
</svg>