<?xml version="1.0" encoding="UTF-8"?>
<svg width="34px" height="34px" viewBox="0 0 34 34" version="1.1" xmlns="http://www.w3.org/2000/svg" xmlns:xlink="http://www.w3.org/1999/xlink">
    <!-- Generator: sketchtool 57.1 (101010) - https://sketch.com -->
    <title>B14F61E0-E730-4DD8-BAAB-C1A8CB4AFF42</title>
    <desc>Created with sketchtool.</desc>
    <g id="Home-screen" stroke="none" stroke-width="1" fill="none" fill-rule="evenodd">
        <g id="DG_Home_Nov-2019_Demo-Popup" transform="translate(-309.000000, -465.000000)">
            <g id="One-Time-Alert">
                <g id="Request-A-Demo-Popup" transform="translate(284.000000, 130.000000)">
                    <g id="Side-panel">
                        <g id="ic_socialIntelli" transform="translate(27.000000, 337.000000)">
                            <circle id="Oval" stroke="#FFFFFF" stroke-width="2" fill="#F6F6F6" cx="15" cy="15" r="16"></circle>
                            <path d="M15.3061224,6.73469388 C14.5507607,6.73469388 13.9285714,7.35688316 13.9285714,8.1122449 C13.9285714,8.70694699 14.3142543,9.21991416 14.8469388,9.41087372 L14.8469388,10.2072704 C13.4345573,10.3406991 12.2032572,11.0841349 11.410236,12.1731505 L10.6999362,11.7426658 C10.7082947,11.6818515 10.7142857,11.6190692 10.7142857,11.5561224 C10.7142857,10.8007607 10.0920962,10.1785714 9.33673469,10.1785714 C8.58137296,10.1785714 7.95918367,10.8007607 7.95918367,11.5561224 C7.95918367,12.3114842 8.58137296,12.9336735 9.33673469,12.9336735 C9.69988929,12.9336735 10.0293761,12.7866947 10.2766263,12.553412 L10.9438776,12.9551977 C10.6508369,13.5770173 10.4846939,14.2685232 10.4846939,15 C10.4846939,15.7291786 10.6525661,16.4173094 10.9438776,17.0376276 L10.2694515,17.4394133 C10.0229939,17.2102397 9.69625783,17.0663265 9.33673469,17.0663265 C8.58137296,17.0663265 7.95918367,17.6885204 7.95918367,18.4438776 C7.95918367,19.1992347 8.58137296,19.8214286 9.33673469,19.8214286 C10.0920962,19.8214286 10.7142857,19.1992347 10.7142857,18.4438776 C10.7142857,18.3783791 10.7089739,18.3133365 10.6999362,18.2501594 L11.410236,17.8196747 C12.2031197,18.9111986 13.4325617,19.6591124 14.8469388,19.7927296 L14.8469388,20.5891263 C14.3142543,20.780087 13.9285714,21.2930567 13.9285714,21.8877551 C13.9285714,22.6431122 14.5507607,23.2653061 15.3061224,23.2653061 C16.061484,23.2653061 16.6836735,22.6431122 16.6836735,21.8877551 C16.6836735,21.2930567 16.2979906,20.780087 15.7653061,20.5891263 L15.7653061,19.7927296 C17.1796834,19.6591124 18.4091252,18.9111986 19.2020089,17.8196747 L19.9123087,18.2501594 C19.903271,18.3133365 19.8979592,18.3783791 19.8979592,18.4438776 C19.8979592,19.1992347 20.5201487,19.8214286 21.2755102,19.8214286 C22.0308719,19.8214286 22.6530612,19.1992347 22.6530612,18.4438776 C22.6530612,17.6885204 22.0308719,17.0663265 21.2755102,17.0663265 C20.9159871,17.0663265 20.589251,17.2102397 20.3427934,17.4394133 L19.6683673,17.0376276 C19.9596787,16.4173094 20.127551,15.7291786 20.127551,15 C20.127551,14.2685232 19.961408,13.5770173 19.6683673,12.9551977 L20.3356186,12.553412 C20.5828688,12.7866947 20.9123556,12.9336735 21.2755102,12.9336735 C22.0308719,12.9336735 22.6530612,12.3114842 22.6530612,11.5561224 C22.6530612,10.8007607 22.0308719,10.1785714 21.2755102,10.1785714 C20.5201487,10.1785714 19.8979592,10.8007607 19.8979592,11.5561224 C19.8979592,11.6190692 19.9039502,11.6818515 19.9123087,11.7426658 L19.2020089,12.1731505 C18.4089877,11.0841349 17.1776876,10.3406991 15.7653061,10.2072704 L15.7653061,9.41087372 C16.2979906,9.21991416 16.6836735,8.70694699 16.6836735,8.1122449 C16.6836735,7.35688316 16.061484,6.73469388 15.3061224,6.73469388 Z M15.3061224,7.65306122 C15.5651617,7.65306122 15.7653061,7.85320561 15.7653061,8.1122449 C15.7653061,8.37128418 15.5651617,8.57142857 15.3061224,8.57142857 C15.0470832,8.57142857 14.8469388,8.37128418 14.8469388,8.1122449 C14.8469388,7.85320561 15.0470832,7.65306122 15.3061224,7.65306122 Z M9.33673469,11.0969388 C9.59577398,11.0969388 9.79591837,11.2970832 9.79591837,11.5561224 C9.79591837,11.8151617 9.59577398,12.0153061 9.33673469,12.0153061 C9.07769541,12.0153061 8.87755102,11.8151617 8.87755102,11.5561224 C8.87755102,11.2970832 9.07769541,11.0969388 9.33673469,11.0969388 Z M21.2755102,11.0969388 C21.5345495,11.0969388 21.7346939,11.2970832 21.7346939,11.5561224 C21.7346939,11.8151617 21.5345495,12.0153061 21.2755102,12.0153061 C21.0164709,12.0153061 20.8163265,11.8151617 20.8163265,11.5561224 C20.8163265,11.2970832 21.0164709,11.0969388 21.2755102,11.0969388 Z M13.6774554,11.455676 C13.5902975,11.5878093 13.5070018,11.7248359 13.433514,11.8718112 C13.0714617,12.5959156 12.8474395,13.5197682 12.7949617,14.5408163 L11.4317602,14.5408163 C11.5919276,13.161415 12.4660434,12.0111512 13.6774554,11.455676 Z M16.9347895,11.455676 C18.1462017,12.0111512 19.0203173,13.161415 19.1804847,14.5408163 L17.8172832,14.5408163 C17.7648054,13.5197682 17.5407832,12.5959156 17.1787309,11.8718112 C17.1052431,11.7248359 17.0219474,11.5878093 16.9347895,11.455676 Z M14.8469388,11.513074 L14.8469388,14.5408163 L13.7133291,14.5408163 C13.7671029,13.6456922 13.9741472,12.8496966 14.2586097,12.2807717 C14.4428893,11.9122123 14.6476616,11.6655852 14.8469388,11.513074 Z M15.7653061,11.513074 C15.9645833,11.6655852 16.1693556,11.9122123 16.3536352,12.2807717 C16.6380977,12.8496966 16.845142,13.6456922 16.8989158,14.5408163 L15.7653061,14.5408163 L15.7653061,11.513074 Z M11.4317602,15.4591837 L12.7949617,15.4591837 C12.8474395,16.4802318 13.0714617,17.4040883 13.433514,18.1281888 C13.5070018,18.2751634 13.5902975,18.4121909 13.6774554,18.544324 C12.4660434,17.9888481 11.5919276,16.838579 11.4317602,15.4591837 Z M13.7133291,15.4591837 L14.8469388,15.4591837 L14.8469388,18.486926 C14.6476616,18.3344118 14.4428893,18.0877877 14.2586097,17.7192283 C13.9741472,17.1503034 13.7671029,16.3542986 13.7133291,15.4591837 Z M15.7653061,15.4591837 L16.8989158,15.4591837 C16.845142,16.3542986 16.6380977,17.1503034 16.3536352,17.7192283 C16.1693556,18.0877877 15.9645833,18.3344118 15.7653061,18.486926 L15.7653061,15.4591837 Z M17.8172832,15.4591837 L19.1804847,15.4591837 C19.0203173,16.838579 18.1462017,17.9888481 16.9347895,18.544324 C17.0219474,18.4121909 17.1052431,18.2751634 17.1787309,18.1281888 C17.5407832,17.4040883 17.7648054,16.4802318 17.8172832,15.4591837 Z M9.33673469,17.9846939 C9.59577398,17.9846939 9.79591837,18.1848291 9.79591837,18.4438776 C9.79591837,18.702926 9.59577398,18.9030612 9.33673469,18.9030612 C9.07769541,18.9030612 8.87755102,18.702926 8.87755102,18.4438776 C8.87755102,18.1848291 9.07769541,17.9846939 9.33673469,17.9846939 Z M21.2755102,17.9846939 C21.5345495,17.9846939 21.7346939,18.1848291 21.7346939,18.4438776 C21.7346939,18.702926 21.5345495,18.9030612 21.2755102,18.9030612 C21.0164709,18.9030612 20.8163265,18.702926 20.8163265,18.4438776 C20.8163265,18.1848291 21.0164709,17.9846939 21.2755102,17.9846939 Z M15.3061224,21.4285714 C15.5651617,21.4285714 15.7653061,21.6287066 15.7653061,21.8877551 C15.7653061,22.1468036 15.5651617,22.3469388 15.3061224,22.3469388 C15.0470832,22.3469388 14.8469388,22.1468036 14.8469388,21.8877551 C14.8469388,21.6287066 15.0470832,21.4285714 15.3061224,21.4285714 Z" id="ic_social" fill="#016BFF" fill-rule="nonzero"></path>
                        </g>
                    </g>
                </g>
            </g>
        </g>
    </g>
</svg>