<?xml version="1.0" encoding="UTF-8"?>
<svg width="79px" height="55px" viewBox="0 0 79 55" version="1.1" xmlns="http://www.w3.org/2000/svg" xmlns:xlink="http://www.w3.org/1999/xlink">
    <!-- Generator: sketchtool 49.3 (51167) - http://www.bohemiancoding.com/sketch -->
    <title>2DD33112-7195-4FBD-A4F1-3A0DFE06458C</title>
    <desc>Created with sketchtool.</desc>
    <defs></defs>
    <g id="Secondary-Screens" stroke="none" stroke-width="1" fill="none" fill-rule="evenodd">
        <g id="Career" transform="translate(-576.000000, -1004.000000)">
            <g id="About-Dataguru_dark" transform="translate(0.000000, 339.000000)">
                <g id="Benefits" transform="translate(203.000000, 414.000000)">
                    <g id="5" transform="translate(373.000000, 251.000000)">
                        <g id="ic_pantry">
                            <path d="M35.0002,21.8861 L41.1882,27.5281 C41.5195333,27.8301 41.9803667,28.0011 42.4633667,28.0011 L42.4668667,28.0011 C42.9510333,28.0001 43.4130333,27.8281 43.7432,27.5241 L49.0002,22.6961 L49.0002,46.0011 L35.0002,46.0011 L35.0002,21.8861 Z M58.0002,26.2243969 C58.0002,23.0677299 60.9157455,20.4991 64.5002,20.4991 C68.0846545,20.4991 71.0002,23.0677299 71.0002,26.2243969 L71.0002,45.9991 L58.0002,45.9991 L58.0002,26.2243969 Z M17.0002,28.4996 C22.2379868,28.4996 26.4997,32.7613132 26.4997,37.9991 C26.4997,43.2368868 22.2379868,47.4986 17.0002,47.4986 C11.7624132,47.4986 7.5007,43.2368868 7.5007,37.9991 C7.5007,32.7613132 11.7624132,28.4996 17.0002,28.4996 Z M74.0002,46.0001 L74.0002,27.0001 C74.0002,23.3891 71.9742,20.2421 69.0002,18.6361 L69.0002,3.5001 C69.0002,2.6721 68.3292,2.0001 67.5002,2.0001 L61.5002,2.0001 C60.6712,2.0001 60.0002,2.6721 60.0002,3.5001 L60.0002,18.6361 C57.0262,20.2421 55.0002,23.3891 55.0002,27.0001 L55.0002,46.0001 L52.0002,46.0001 L52.0002,17.0071 C52.0002,15.9031 51.1042,15.0071 50.0002,15.0071 L34.0002,15.0071 C32.8962,15.0071 32.0002,15.9031 32.0002,17.0071 L32.0002,46.0001 L25.9262,46.0001 C27.8322,43.8761 29.0002,41.0771 29.0002,37.9991 C29.0002,31.3711 23.6282,25.9991 17.0002,25.9991 C10.3722,25.9991 5.0002,31.3711 5.0002,37.9991 C5.0002,41.0771 6.1692,43.8761 8.0742,46.0001 L4.0002,46.0001 C2.3432,46.0001 1.0002,47.3431 1.0002,49.0001 C1.0002,50.6571 79.0002,50.6571 79.0002,49.0001 C79.0002,47.3431 77.6572,46.0001 76.0002,46.0001 L74.0002,46.0001 Z" id="Fill-1" fill="#0155FF"></path>
                            <path d="M18.0002,23.9999 C18.0002,18.6659 15.3342,15.9999 10.0002,15.9999 C10.0002,15.9999 10.0002,23.9999 18.0002,23.9999" id="Fill-4" fill="#016BFF"></path>
                            <g id="Illustration_Key-Executives">
                                <ellipse id="Oval-3-Copy-2" fill="#FFD794" cx="72.9900498" cy="13" rx="1.99004975" ry="2"></ellipse>
                                <ellipse id="Oval-3-Copy-3" fill="#FFD794" cx="1.99004975" cy="42" rx="1.99004975" ry="2"></ellipse>
                                <ellipse id="Oval-3-Copy" fill="#B8E986" cx="65.9900498" cy="53" rx="1.99004975" ry="2"></ellipse>
                                <ellipse id="Oval-4" fill="#FBAAB4" cx="12.9850746" cy="3" rx="2.98507463" ry="3"></ellipse>
                            </g>
                        </g>
                    </g>
                </g>
            </g>
        </g>
    </g>
</svg>