<?xml version="1.0" encoding="UTF-8"?>
<svg width="50px" height="50px" viewBox="0 0 50 50" version="1.1" xmlns="http://www.w3.org/2000/svg" xmlns:xlink="http://www.w3.org/1999/xlink">
    <!-- Generator: sketchtool 54.1 (76490) - https://sketchapp.com -->
    <title>304CFC35-45BD-4A0A-8756-AA8A5BAA87FF</title>
    <desc>Created with sketchtool.</desc>
    <g id="Page-1" stroke="none" stroke-width="1" fill="none" fill-rule="evenodd">
        <g id="Create-Campaign_Landing" transform="translate(-448.000000, -443.000000)" fill-rule="nonzero">
            <g id="Upload-HTML-Copy" transform="translate(415.000000, 417.000000)">
                <g id="ic_text-editor" transform="translate(33.000000, 26.000000)">
                    <path d="M49,10 C49.553,10 50,9.552 50,9 L50,1 C50,0.448 49.553,0 49,0 L41,0 C40.447,0 40,0.448 40,1 L40,4 L10,4 L10,1 C10,0.448 9.553,0 9,0 L1,0 C0.447,0 0,0.448 0,1 L0,9 C0,9.552 0.447,10 1,10 L4,10 L4,40 L1,40 C0.447,40 0,40.448 0,41 L0,49 C0,49.552 0.447,50 1,50 L9,50 C9.553,50 10,49.552 10,49 L10,46 L40,46 L40,49 C40,49.552 40.447,50 41,50 L49,50 C49.553,50 50,49.552 50,49 L50,41 C50,40.448 49.553,40 49,40 L46,40 L46,10 L49,10 Z M2,8 L2,2 L8,2 L8,8 L2,8 Z M8,48 L2,48 L2,42 L8,42 L8,48 Z M40,41 L40,44 L10,44 L10,41 C10,40.448 9.553,40 9,40 L6,40 L6,10 L9,10 C9.553,10 10,9.552 10,9 L10,6 L40,6 L40,9 C40,9.552 40.447,10 41,10 L44,10 L44,40 L41,40 C40.447,40 40,40.448 40,41 Z M48,42 L48,48 L42,48 L42,42 L48,42 Z M42,8 L42,2 L48,2 L48,8 L42,8 Z" id="Shape" fill="#0155FF" opacity="0.5"></path>
                    <path d="M36,13 L14,13 C13.447,13 13,13.448 13,14 L13,17 C13,17.552 13.447,18 14,18 C14.553,18 15,17.552 15,17 L15,15 L24,15 L24,35 L22,35 C21.447,35 21,35.448 21,36 C21,36.552 21.447,37 22,37 L28,37 C28.553,37 29,36.552 29,36 C29,35.448 28.553,35 28,35 L26,35 L26,15 L35,15 L35,17.334 C35,17.886 35.447,18.334 36,18.334 C36.553,18.334 37,17.886 37,17.334 L37,14 C37,13.448 36.553,13 36,13 Z" id="Path" fill="#4B45EB"></path>
                </g>
            </g>
        </g>
    </g>
</svg>