<?xml version="1.0" encoding="UTF-8"?>
<svg width="13px" height="16px" viewBox="0 0 13 16" version="1.1" xmlns="http://www.w3.org/2000/svg" xmlns:xlink="http://www.w3.org/1999/xlink">
    <!-- Generator: sketchtool 49.2 (51160) - http://www.bohemiancoding.com/sketch -->
    <title>E3E2F5F8-6C82-4075-81FA-7697BA9A92FA</title>
    <desc>Created with sketchtool.</desc>
    <defs>
        <path d="M10.4787097,10.1058065 C10.4696774,10.04 10.4167742,9.95741935 10.36,9.90193548 C10.1974194,9.74193548 9.84,9.65806452 9.29548387,9.65032258 C8.92645161,9.64645161 8.48258065,9.67870968 8.01548387,9.74451613 C7.80645161,9.62451613 7.59096774,9.49290323 7.42193548,9.33419355 C6.96645161,8.90967742 6.58709677,8.32 6.34967742,7.67096774 C6.36516129,7.61032258 6.37806452,7.55741935 6.39096774,7.50322581 C6.39096774,7.50322581 6.64645161,6.04774194 6.57935484,5.55483871 C6.57032258,5.48774194 6.56387097,5.4683871 6.54580645,5.41548387 L6.52387097,5.35870968 C6.45419355,5.19741935 6.31741935,5.02709677 6.10322581,5.03612903 L5.97677419,5.03225806 L5.97419355,5.03225806 C5.73419355,5.03225806 5.54064516,5.15483871 5.48903226,5.33677419 C5.33419355,5.90967742 5.49419355,6.76774194 5.78451613,7.87741935 L5.70967742,8.05806452 C5.50193548,8.56645161 5.24129032,9.07741935 5.0116129,9.52774194 L4.98193548,9.58580645 C4.73935484,10.0593548 4.52,10.4619355 4.32,10.8025806 L4.11483871,10.9109677 C4.09935484,10.9187097 3.74709677,11.1058065 3.66451613,11.1548387 C2.96387097,11.5741935 2.49935484,12.0490323 2.42193548,12.4258065 C2.39741935,12.5470968 2.41548387,12.7006452 2.54064516,12.7716129 L2.73935484,12.8722581 C2.82580645,12.9148387 2.91741935,12.9367742 3.01032258,12.9367742 C3.50967742,12.9367742 4.08903226,12.3148387 4.88774194,10.9212903 C5.80903226,10.6219355 6.85935484,10.3716129 7.77935484,10.2348387 C8.48,10.6283871 9.34193548,10.9032258 9.88645161,10.9032258 C9.98322581,10.9032258 10.0670968,10.8941935 10.1341935,10.876129 C10.2387097,10.8477419 10.3264516,10.7883871 10.3806452,10.7083871 C10.4864516,10.5496774 10.5070968,10.3303226 10.4787097,10.1058065 Z M2.90193548,12.5587097 C2.99225806,12.3096774 3.35354839,11.8167742 3.88645161,11.3806452 C3.92,11.3535484 4.00258065,11.276129 4.07741935,11.203871 C3.52,12.0929032 3.14709677,12.4464516 2.90193548,12.5587097 Z M6.05806452,5.29032258 C6.21806452,5.29032258 6.30967742,5.69419355 6.31741935,6.07354839 C6.32516129,6.45290323 6.23612903,6.71870968 6.12645161,6.91612903 C6.03483871,6.62451613 5.99096774,6.16516129 5.99096774,5.86451613 C5.99096774,5.86451613 5.98451613,5.29032258 6.05806452,5.29032258 Z M5.11612903,10.4696774 C5.2283871,10.2696774 5.34451613,10.0580645 5.46322581,9.83483871 C5.75354839,9.28645161 5.93677419,8.85806452 6.07225806,8.50580645 C6.34322581,8.99870968 6.68129032,9.41806452 7.07741935,9.75354839 C7.12774194,9.79483871 7.18064516,9.83741935 7.23483871,9.88 C6.4283871,10.0387097 5.73032258,10.2335484 5.11612903,10.4696774 Z M10.203871,10.4245161 C10.1548387,10.4541935 10.0141935,10.4722581 9.92387097,10.4722581 C9.63225806,10.4722581 9.26967742,10.3393548 8.76258065,10.1212903 C8.95741935,10.1070968 9.13677419,10.0993548 9.29677419,10.0993548 C9.58967742,10.0993548 9.67612903,10.0980645 9.96387097,10.1716129 C10.2503226,10.2451613 10.2541935,10.3935484 10.203871,10.4245161 Z" id="path-1"></path>
    </defs>
    <g id="Company-Screens" stroke="none" stroke-width="1" fill="none" fill-rule="evenodd">
        <g id="A_DG_Home_Company-NewList_selected_z" transform="translate(-652.000000, -342.000000)" fill-rule="nonzero">
            <g id="Action-Bar" transform="translate(465.000000, 324.000000)">
                <g id="action-buttons" transform="translate(115.000000, 18.000000)">
                    <g id="ic_pdf_original-copy" transform="translate(72.000000, 0.000000)">
                        <path d="M11.6129032,16 L1.29032258,16 C0.57883871,16 0,15.4211613 0,14.7096774 L0,1.29032258 C0,0.57883871 0.57883871,0 1.29032258,0 L6.54025806,0 C6.88490323,0 7.20903226,0.134322581 7.45251613,0.377935484 L12.5252903,5.45070968 C12.7690323,5.69445161 12.9032258,6.01832258 12.9032258,6.36296774 L12.9032258,14.7096774 C12.9032258,15.4211613 12.3243871,16 11.6129032,16 Z" id="Shape" fill="#FD4233"></path>
                        <g id="Shape">
                            <use fill="#FF402F" fill-rule="evenodd" xlink:href="#path-1"></use>
                            <use fill="#FFFFFF" fill-rule="evenodd" xlink:href="#path-1"></use>
                        </g>
                    </g>
                </g>
            </g>
        </g>
    </g>
</svg>