<?xml version="1.0" encoding="UTF-8"?>
<svg width="439px" height="228px" viewBox="0 0 439 228" version="1.1" xmlns="http://www.w3.org/2000/svg" xmlns:xlink="http://www.w3.org/1999/xlink">
    <!-- Generator: Sketch 48.2 (47327) - http://www.bohemiancoding.com/sketch -->
    <title>ic_privacyPolicy</title>
    <desc>Created with Sketch.</desc>
    <defs>
        <polygon id="path-1" points="24.8273611 0.0976432032 0.0659817931 0.0976432032 0.0659817931 33.9192636 24.8273611 33.9192636 24.8273611 0.0976432032"></polygon>
        <polygon id="path-3" points="0 60.1502907 349.59499 60.1502907 349.59499 0.230834996 0 0.230834996"></polygon>
        <filter x="-47.6%" y="-24.2%" width="195.3%" height="181.0%" filterUnits="objectBoundingBox" id="filter-5">
            <feOffset dx="0" dy="20" in="SourceAlpha" result="shadowOffsetOuter1"></feOffset>
            <feGaussianBlur stdDeviation="13.5" in="shadowOffsetOuter1" result="shadowBlurOuter1"></feGaussianBlur>
            <feColorMatrix values="0 0 0 0 0.792156863   0 0 0 0 0.803921569   0 0 0 0 0.839215686  0 0 0 1 0" type="matrix" in="shadowBlurOuter1" result="shadowMatrixOuter1"></feColorMatrix>
            <feMerge>
                <feMergeNode in="shadowMatrixOuter1"></feMergeNode>
                <feMergeNode in="SourceGraphic"></feMergeNode>
            </feMerge>
        </filter>
    </defs>
    <g id="DG_Privacy-Policy_New-Copy" stroke="none" stroke-width="1" fill="none" fill-rule="evenodd" transform="translate(-176.000000, -797.000000)">
        <g id="ic_privacyPolicy" transform="translate(166.000000, 790.000000)">
            <g id="Logo" opacity="0.300000012" transform="translate(230.000000, 115.500000) rotate(-13.000000) translate(-230.000000, -115.500000) translate(10.000000, 48.000000)">
                <g id="Group" stroke="#E7EBF2" stroke-linecap="square">
                    <path d="M59.2533333,0.55785124 L59.2533333,134.442149" id="Line-99"></path>
                    <path d="M0.586666667,40.7231405 L439.570168,40.7231405" id="Line-100"></path>
                    <path d="M0.586666667,74.1942149 L439.570168,74.1942149" id="Line-100-Copy"></path>
                    <path d="M0.586666667,86.4669421 L439.570168,86.4669421" id="Line-100-Copy-2"></path>
                    <path d="M96.8,0.55785124 L96.8,134.442149" id="Line-99-Copy"></path>
                    <path d="M100.32,0.55785124 L100.32,134.442149" id="Line-99-Copy-2"></path>
                    <path d="M135.52,0.55785124 L135.52,134.442149" id="Line-99-Copy-3"></path>
                    <path d="M139.04,0.55785124 L139.04,134.442149" id="Line-99-Copy-4"></path>
                    <path d="M164.853333,0.55785124 L164.853333,134.442149" id="Line-99-Copy-5"></path>
                    <path d="M168.373333,0.55785124 L168.373333,134.442149" id="Line-99-Copy-6"></path>
                    <path d="M203.573333,0.55785124 L203.573333,134.442149" id="Line-99-Copy-7"></path>
                    <path d="M207.093333,0.55785124 L207.093333,134.442149" id="Line-99-Copy-8"></path>
                    <path d="M242.293333,0.55785124 L242.293333,134.442149" id="Line-99-Copy-9"></path>
                    <path d="M245.813333,0.55785124 L245.813333,134.442149" id="Line-99-Copy-10"></path>
                    <path d="M281.013333,0.55785124 L281.013333,134.442149" id="Line-99-Copy-11"></path>
                    <path d="M284.533333,0.55785124 L284.533333,134.442149" id="Line-99-Copy-12"></path>
                    <path d="M304.48,0.55785124 L304.48,134.442149" id="Line-99-Copy-13"></path>
                    <path d="M308,0.55785124 L308,134.442149" id="Line-99-Copy-14"></path>
                    <path d="M343.2,0.55785124 L343.2,134.442149" id="Line-99-Copy-15"></path>
                    <path d="M346.72,0.55785124 L346.72,134.442149" id="Line-99-Copy-16"></path>
                    <path d="M410.08,0.55785124 L410.08,134.442149" id="Line-99-Copy-17"></path>
                </g>
                <g id="ic_header_logo" transform="translate(59.840000, 40.165289)">
                    <path d="M332.990446,46.0581374 L304.296135,46.0581374 C295.125685,46.0581374 287.691445,38.9890465 287.691445,30.2690237 L287.691445,30.2226258 C287.691445,21.5028339 295.125685,14.4337429 304.296135,14.4337429 L332.990446,14.4337429 C342.160653,14.4337429 349.594893,21.5028339 349.594893,30.2226258 L349.594893,30.2690237 C349.594893,38.9890465 342.160653,46.0581374 332.990446,46.0581374 Z" id="Fill-1" fill="#000000"></path>
                    <path d="M28.4488099,6.33489712 C26.2384927,4.3744155 23.7747354,2.85459789 21.1262389,1.8190721 C18.4624486,0.77708293 15.8955189,0.249163294 13.4958499,0.249163294 L0.000169931034,0.249163294 L0.000169931034,7.51469478 L12.1779134,7.51469478 C14.6783272,7.51469478 16.9546748,7.96413052 18.9423823,8.8491519 C20.9587354,9.74802337 22.6942168,10.9340536 24.1002748,12.3733098 C25.5116734,13.8187985 26.6232651,15.4962764 27.4042196,17.3593457 C28.1817754,19.2177982 28.5762582,21.1517338 28.5762582,23.1078296 C28.5762582,25.4175645 28.1210858,27.5507107 27.2226361,29.4477127 C26.3171465,31.3592573 25.0909727,33.0141134 23.5785865,34.3658832 C22.0564899,35.7278096 20.2826527,36.8023465 18.3058692,37.5601778 C16.3353975,38.3166241 14.273163,38.7002719 12.1779134,38.7002719 L5.09810097,38.7002719 L5.09810097,46.0800667 L13.4958499,46.0800667 C16.3135492,46.0800667 19.1200817,45.4872824 21.8375217,44.3185648 C24.5258306,43.1618507 26.957301,41.5492374 29.0646886,39.524122 C31.1696486,37.5026999 32.8934775,35.0768549 34.188352,32.3130675 C35.4951217,29.5236575 36.1573672,26.4648629 36.1573672,23.2216312 C36.1573672,19.6600781 35.4169534,16.403458 33.956032,13.5420274 C32.5169589,10.7260712 30.6639823,8.30138045 28.4488099,6.33489712" id="Fill-3" fill="#000000"></path>
                    <path d="M69.7433865,19.0662089 C68.2404679,17.6611163 66.4722141,16.5459524 64.4896044,15.7521109 C62.4943713,14.9527293 60.3415879,14.547383 58.0938858,14.547383 C55.839872,14.547383 53.6747079,14.9631168 51.6583548,15.7835044 C49.6565672,16.5978903 47.878603,17.7335985 46.3744706,19.1601587 C44.8739796,20.5837182 43.6774223,22.2598111 42.8180568,24.1404238 C41.9521368,26.0369641 41.5127437,28.085163 41.5127437,30.2282351 C41.5127437,32.3680755 41.949952,34.423892 42.8124734,36.3377449 C43.6711106,38.2412103 44.8659686,39.9283833 46.3642748,41.3519427 C47.8623382,42.7778105 49.6373892,43.9139803 51.6386913,44.7290587 C53.6511603,45.549908 55.8131686,45.9661034 58.0640265,45.9661034 L61.4961479,45.9661034 L61.4961479,38.5865395 L58.0640265,38.5865395 C56.861643,38.5865395 55.7231051,38.3642454 54.6828844,37.9256589 C53.6108623,37.4729915 52.6672596,36.8642796 51.8782941,36.1154508 C51.086901,35.3650063 50.4450472,34.471444 49.9704541,33.4576167 C49.5082417,32.4735671 49.2734941,31.3960294 49.2734941,30.2568586 C49.2734941,29.1146871 49.5089699,28.0258384 49.9750665,27.0187053 C50.4479603,25.9921821 51.0886003,25.0914639 51.8790223,24.3417119 C52.6643465,23.5963457 53.6006665,23.0000989 54.6610361,22.5693608 C55.7114527,22.1427777 56.8560596,21.926947 58.0640265,21.926947 C59.2739354,21.926947 60.4318941,22.1446244 61.5034306,22.5721308 C62.5798223,23.0037922 63.5234251,23.5995774 64.3077782,24.3437894 C65.0923741,25.0877706 65.7199051,25.9822562 66.1741065,27.0030085 C66.6249092,28.0168359 66.8538306,29.1133021 66.8538306,30.2617062 L66.8538306,45.9661034 L74.614581,45.9661034 L74.614581,30.2282351 C74.614581,28.0519228 74.1756734,25.9767162 73.3107244,24.061709 C72.4496596,22.155012 71.249461,20.474764 69.7433865,19.0662089" id="Fill-5" fill="#000000"></path>
                    <path d="M138.282156,19.0662089 C136.779238,17.6611163 135.011226,16.5459524 133.028617,15.7521109 C131.033141,14.9527293 128.880358,14.547383 126.632655,14.547383 C124.378642,14.547383 122.213478,14.9631168 120.197124,15.7835044 C118.195337,16.5978903 116.417373,17.7335985 114.91324,19.1601587 C113.412992,20.5837182 112.216192,22.2598111 111.356826,24.1404238 C110.491149,26.0369641 110.051513,28.085163 110.051513,30.2282351 C110.051513,32.3680755 110.488722,34.423892 111.351486,36.3377449 C112.210123,38.2412103 113.404738,39.9283833 114.903044,41.3519427 C116.401108,42.7778105 118.176159,43.9139803 120.177461,44.7290587 C122.18993,45.549908 124.351938,45.9661034 126.602796,45.9661034 L130.034918,45.9661034 L130.034918,38.5865395 L126.602796,38.5865395 C125.400413,38.5865395 124.261875,38.3642454 123.221654,37.9256589 C122.149632,37.4729915 121.206272,36.8642796 120.417306,36.1154508 C119.625671,35.3650063 118.98406,34.471444 118.509224,33.4576167 C118.047011,32.4735671 117.812264,31.3960294 117.812264,30.2568586 C117.812264,29.1146871 118.04774,28.0258384 118.513836,27.0187053 C118.98673,25.9921821 119.627613,25.0914639 120.417792,24.3417119 C121.203116,23.5963457 122.139436,23.0000989 123.199806,22.5693608 C124.250465,22.1427777 125.394829,21.926947 126.602796,21.926947 C127.812705,21.926947 128.970664,22.1446244 130.0422,22.5721308 C131.118835,23.0037922 132.062195,23.5995774 132.846548,24.3437894 C133.631144,25.0877706 134.258675,25.9822562 134.712876,27.0030085 C135.163679,28.0168359 135.392843,29.1133021 135.392843,30.2617062 L135.392843,45.9661034 L143.153593,45.9661034 L143.153593,30.2282351 C143.153593,28.0519228 142.714686,25.9767162 141.849737,24.061709 C140.988915,22.155012 139.788473,20.474764 138.282156,19.0662089" id="Fill-7" fill="#000000"></path>
                    <path d="M176.787145,19.0468188 C175.287868,17.6211818 173.513788,16.4847811 171.513214,15.6694719 C169.499288,14.8493152 167.317617,14.4338122 165.028888,14.4338122 C162.778759,14.4338122 160.617479,14.8493152 158.604524,15.6694719 C156.60395,16.4843195 154.828899,17.6207201 153.328894,19.0472804 C151.829617,20.4740715 150.635001,22.1617062 149.777821,24.0626324 C148.915057,25.9776395 148.477848,28.0332251 148.477848,30.1712189 C148.477848,32.3865423 148.915057,34.4806774 149.777821,36.3940687 C150.635972,38.2993807 151.833743,39.9798595 153.33739,41.3888763 C154.832541,42.7911989 156.604436,43.9149037 158.604039,44.7290587 C160.616265,45.549908 162.778273,45.9661034 165.028888,45.9661034 L168.604966,45.9661034 L168.604966,38.5865395 L165.028888,38.5865395 C163.85952,38.5865395 162.734577,38.3707087 161.686345,37.9452799 C160.627189,37.5150034 159.680673,36.9090616 158.873986,36.1438435 C158.063901,35.3756247 157.413308,34.4654423 156.939686,33.4373032 C156.468006,32.4172434 156.238599,31.3581724 156.238599,30.2000732 C156.238599,29.0583634 156.474074,27.9692838 156.940657,26.9614583 C157.413308,25.9353967 158.063901,25.0249835 158.873986,24.2567646 C159.680673,23.4917774 160.627674,22.8858356 161.686345,22.4555591 C162.735062,22.0292069 163.860248,21.8131453 165.028888,21.8131453 C166.280066,21.8131453 167.457931,22.0305919 168.528254,22.4583292 C169.59979,22.8879131 170.539509,23.4896999 171.320221,24.2456845 C172.112585,25.0145959 172.744728,25.9227008 173.19893,26.9452998 C173.650218,27.9607429 173.879139,29.0576708 173.879139,30.2053824 L173.879139,44.4125839 C173.879139,45.5630655 173.649732,46.6636868 173.197959,47.6830541 C172.745699,48.7042682 172.117683,49.601293 171.333087,50.3489675 C170.547034,51.0947954 169.602946,51.6924272 168.527768,52.1238578 C167.457931,52.5532109 166.28128,52.7708883 164.990775,52.77135 C163.449015,52.8066677 162.157539,52.729338 161.186505,52.5451317 C160.270091,52.3706204 159.521909,52.1247811 158.962836,51.8154622 C158.447945,51.5296885 158.053948,51.2074429 157.791283,50.8581895 C157.477396,50.4399165 157.222014,49.9856332 157.033876,49.5066506 L156.789661,48.4983634 L148.477848,48.4983634 L148.489743,50.2383975 C148.682979,51.7577535 149.281865,53.1667703 150.269892,54.4273602 C151.206941,55.6228547 152.427288,56.6664597 153.898648,57.5281667 C155.33141,58.3660977 157.027564,59.0219 158.941473,59.4780299 C160.820668,59.924234 162.868822,60.1502214 165.028888,60.1502214 C167.317617,60.1502214 169.499288,59.7347184 171.513214,58.9143309 C173.513788,58.0990217 175.287868,56.9628518 176.78763,55.5365224 C178.286422,54.1101929 179.481766,52.4232508 180.339917,50.5218629 C181.202681,48.606625 181.63989,46.5512702 181.63989,44.4125839 L181.63989,30.1712189 C181.63989,28.0332251 181.202681,25.9776395 180.339432,24.061709 C179.48128,22.160552 178.286422,20.4729174 176.787145,19.0468188" id="Fill-9" fill="#016BFF"></path>
                    <path d="M212.501817,30.3496312 C212.501817,31.4934186 212.264642,32.5866532 211.797332,33.5993263 C211.324924,34.6244645 210.676273,35.5240285 209.867886,36.2742422 C209.05246,37.0320735 208.092835,37.6465563 207.014502,38.1006087 C205.969668,38.5410419 204.827975,38.764721 203.621707,38.764721 C202.371743,38.764721 201.198005,38.5396569 200.129139,38.0952995 C199.043765,37.6440171 198.090937,37.0336894 197.296146,36.2790898 C196.510093,35.5325694 195.879892,34.6332362 195.423263,33.6034813 C194.971004,32.585499 194.741111,31.4828002 194.741111,30.3265477 L194.741111,14.440945 L186.980361,14.440945 L186.980361,30.2923842 C186.980361,32.4760832 187.429464,34.5547524 188.313591,36.4713753 C189.190435,38.3697623 190.390391,40.0527803 191.882143,41.4733388 C193.375594,42.8962058 195.142634,44.040224 197.132041,44.8728458 C199.14451,45.7163169 201.327395,46.144285 203.621707,46.144285 C205.867224,46.144285 208.035059,45.7237036 210.065249,44.893621 C212.081359,44.0700017 213.861751,42.934986 215.355688,41.5204292 C216.849139,40.1084115 218.051037,38.4288561 218.927881,36.5286224 C219.813464,34.6106144 220.262568,32.5321761 220.262568,30.3496312 L220.262568,23.5035269 L212.501817,23.5035269 L212.501817,30.3496312 Z" id="Fill-11" fill="#016BFF"></path>
                    <path d="M235.692621,15.9003531 C233.714624,16.7154315 231.952196,17.850678 230.454861,19.2749299 C228.956555,20.6991818 227.762668,22.3755056 226.905973,24.2563491 C226.04151,26.1533511 225.60333,28.2008575 225.60333,30.3423138 L225.60333,46.0233967 L233.364081,46.0233967 L233.364081,30.3762465 C233.364081,29.224149 233.591788,28.1267595 234.041134,27.1127013 C234.491209,26.0926415 235.114613,25.1986176 235.894111,24.4553289 C236.67458,23.7113477 237.611871,23.1153317 238.679281,22.6859786 C239.744505,22.2577797 240.893482,22.0410256 242.093923,22.0410256 L243.727932,22.0410256 L243.727932,14.6612308 L242.093923,14.6612308 C239.841366,14.6612308 237.687854,15.077888 235.692621,15.9003531" id="Fill-13" fill="#016BFF"></path>
                    <path d="M274.589447,23.4962556 L274.589447,30.3423599 C274.589447,31.4861473 274.352757,32.5796127 273.885447,33.592055 C273.413038,34.6171932 272.763902,35.5167572 271.955516,36.2669709 C271.140575,37.0248022 270.180465,37.6395158 269.102131,38.0933374 C268.057298,38.5340014 266.916089,38.7574497 265.709822,38.7574497 C264.459858,38.7574497 263.285634,38.5326164 262.216768,38.0880282 C261.131394,37.6367458 260.178567,37.0264181 259.383775,36.2720493 C258.597722,35.5252981 257.967521,34.6259649 257.510892,33.59621 C257.058633,32.5782277 256.82874,31.4755289 256.82874,30.3195073 L256.82874,14.4336737 L249.06799,14.4336737 L249.06799,30.2851129 C249.06799,32.4688119 249.517094,34.547481 250.40122,36.464104 C251.278065,38.362491 252.478506,40.045509 253.969772,41.4662984 C255.463709,42.8889345 257.230263,44.0329527 259.220156,44.8655745 C261.232139,45.7092764 263.41551,46.1370137 265.709822,46.1370137 C267.955339,46.1370137 270.123174,45.7164323 272.152878,44.8863497 C274.169474,44.0627304 275.94938,42.9279456 277.443317,41.5131579 C278.936768,40.101371 280.138666,38.4215848 281.015996,36.5213511 C281.901094,34.6033431 282.350197,32.5249048 282.350197,30.3423599 L282.350197,23.4962556 L274.589447,23.4962556 Z" id="Fill-15" fill="#016BFF"></path>
                    <g id="Group-19" transform="translate(79.867586, 0.133192)">
                        <mask id="mask-2" fill="white">
                            <use xlink:href="#path-1"></use>
                        </mask>
                        <g id="Clip-18"></g>
                        <polygon id="Fill-17" fill="#000000" mask="url(#mask-2)" points="24.8273611 0.0975508692 0.0659817931 0.0975508692 0.0659817931 7.02260074 8.80529214 7.02260074 8.80529214 33.9192636 16.0880508 33.9192636 16.0880508 7.02260074 24.8273611 7.02260074"></polygon>
                    </g>
                    <mask id="mask-4" fill="white">
                        <use xlink:href="#path-3"></use>
                    </mask>
                    <g id="Clip-21"></g>
                    <polygon id="Fill-20" fill="#016BFF" mask="url(#mask-4)" points="88.6729269 46.0495041 95.9556855 46.0495041 95.9556855 39.1244543 88.6729269 39.1244543"></polygon>
                    <polygon id="Fill-22" fill="#016BFF" mask="url(#mask-4)" points="283.8771 23.4964865 278.541508 18.4229641 273.206159 23.4964865"></polygon>
                    <polygon id="Fill-23" fill="#000000" mask="url(#mask-4)" points="5.32986262 47.2979752 0.180224 42.4012724 5.32986262 37.5045697"></polygon>
                    <path d="M302.19518,37.2163029 C302.619279,36.8130342 303.123732,36.6115152 303.709751,36.6115152 C304.295285,36.6115152 304.800223,36.8130342 305.224565,37.2163029 C305.648422,37.6195717 305.860593,38.0997085 305.860593,38.6564825 C305.860593,39.2137182 305.648422,39.6887766 305.224565,40.0823502 C304.800223,40.4756931 304.295285,40.6728262 303.709751,40.6728262 C303.123732,40.6728262 302.619279,40.4756931 302.19518,40.0823502 C301.771081,39.6887766 301.559153,39.2137182 301.559153,38.6564825 C301.559153,38.0997085 301.771081,37.6195717 302.19518,37.2163029" id="Fill-24" fill="#FFFFFF" mask="url(#mask-4)"></path>
                    <path d="M311.373544,20.4238418 C311.7974,20.0205731 312.302095,19.8190541 312.887872,19.8190541 C313.473406,19.8190541 313.978344,20.0205731 314.402686,20.4238418 C314.826785,20.8271106 315.038713,21.3074782 315.038713,21.8640214 C315.038713,22.4212571 314.826785,22.9009322 314.402686,23.3042009 C313.978344,23.7074696 313.473406,23.9092194 312.887872,23.9092194 C312.302095,23.9092194 311.7974,23.7074696 311.373544,23.3042009 C310.949444,22.9009322 310.737273,22.4212571 310.737273,21.8640214 C310.737273,21.3074782 310.949444,20.8271106 311.373544,20.4238418 Z M314.735751,28.0568626 L314.735751,40.0101912 L316.765213,40.0101912 L316.765213,40.41346 L309.010774,40.41346 L309.010774,40.0101912 L311.040236,40.0101912 L311.040236,28.4599005 L309.010774,28.4599005 L309.010774,28.0568626 L314.735751,28.0568626 Z" id="Fill-25" fill="#FFFFFF" mask="url(#mask-4)"></path>
                    <path d="M320.73303,40.0102143 L320.73303,28.4599236 L318.733912,28.4599236 L318.733912,28.0568857 L324.368097,28.0568857 L324.368097,30.9372448 L324.428787,30.9372448 C324.50914,30.7643494 324.650668,30.500505 324.852886,30.1450191 C325.054376,29.7899949 325.347385,29.4393565 325.731187,29.0935657 C326.114503,28.7480057 326.60973,28.4456119 327.215413,28.1863842 C327.821338,27.9271565 328.578503,27.797658 329.487391,27.797658 C330.820136,27.797658 331.85453,28.1626082 332.592274,28.8920467 C333.329046,29.6221778 333.697796,30.6203083 333.697796,31.8875925 L333.697796,40.0102143 L335.727501,40.0102143 L335.727501,40.413483 L328.124058,40.413483 L328.124058,40.0102143 L330.002282,40.0102143 L330.002282,30.9083904 C330.002282,30.1018529 329.830652,29.511377 329.487391,29.1369627 C329.143645,28.7625483 328.679247,28.5753411 328.093956,28.5753411 C327.609167,28.5753411 327.144527,28.6859111 326.700522,28.9063585 C326.256031,29.1274984 325.867374,29.4587467 325.53431,29.900334 C325.201002,30.3421522 324.933239,30.889462 324.73175,31.5420325 C324.529532,32.1950647 324.428787,32.9632836 324.428787,33.8462274 L324.428787,40.0102143 L326.337112,40.0102143 L326.337112,40.413483 L318.733912,40.413483 L318.733912,40.0102143 L320.73303,40.0102143 Z" id="Fill-26" fill="#FFFFFF" mask="url(#mask-4)"></path>
                </g>
            </g>
            <g id="Illustration" transform="translate(127.000000, 31.000000)">
                <g id="ic_privacy" filter="url(#filter-5)" transform="translate(55.000000, 33.000000)">
                    <path d="M52.7414332,0.0100681782 C51.7795459,0.0346748267 50.8520034,0.38037095 50.1005739,0.994319393 C50.1005739,0.994319393 46.0800251,4.28462059 41.4725599,8.05123188 C33.0211581,14.9592131 23.4422568,20.286993 13.1714407,23.7817035 C7.7268512,25.6356954 3.01249377,27.2353792 3.01249377,27.2353792 C1.21361114,27.8484987 0.000765545474,29.5690126 0.00176171802,31.506332 L0.00176171802,50.8399505 C0.00176171802,84.3341881 20.5398704,114.277472 51.3470334,125.724033 C51.8267245,125.902783 52.3331855,125.994965 52.8437891,125.99646 L52.8611992,125.99646 C53.3718036,125.99496 53.8782646,125.902774 54.3579549,125.724019 C85.1659987,114.279708 105.703227,84.3359744 105.703227,50.839937 L105.703227,31.5063185 C105.704223,29.5689991 104.491377,27.8484852 102.692495,27.2353657 C102.692495,27.2353657 97.9776967,25.6356819 92.5335476,23.78169 C82.2627315,20.2870695 72.6838302,14.9591996 64.2324284,8.05121838 C59.6250954,4.28478707 55.6044144,0.994305895 55.6044144,0.994305895 C54.7930783,0.331373391 53.7784823,-0.017243832 52.7399049,0.0100546799 L52.7414332,0.0100681782 Z" id="Shape" fill="#016BFF"></path>
                    <path d="M52.8532627,10.2741773 C54.363011,11.5078772 55.5990324,12.5158854 58.7369605,15.0813727 C67.9996334,22.6525705 78.4985919,28.4842871 89.7564105,32.3146554 C93.5811003,33.6171066 95.1785381,34.1636078 96.8962132,34.7489392 L96.8962132,50.8398155 C96.8962132,79.9835503 79.2948885,105.8274 52.8532627,116.423567 C26.4116369,105.82695 8.81031218,79.9831003 8.81031218,50.8398155 L8.81031218,34.7489392 C10.5278111,34.1636528 12.125381,33.6171066 15.9501149,32.3146554 C27.207493,28.4841971 37.706892,22.6525705 46.9695649,15.0813727 C50.1076252,12.5160654 51.3436906,11.5080571 52.8532627,10.2741773 Z" id="Path" fill="#FFFFFF"></path>
                    <path d="M52.8691578,49.4858458 C50.5269278,49.4859642 48.2807915,50.4371788 46.6254111,52.1300057 C44.9700307,53.8228325 44.0411703,56.1184363 44.0433909,58.5112607 C44.0468702,61.7326481 45.7323223,64.7074408 48.4648627,66.3150793 L48.4648627,76.5089972 C48.4423996,78.1316548 49.2769059,79.6409695 50.6488331,80.4589952 C52.0207602,81.2770209 53.7175554,81.2770209 55.0894825,80.4589952 C56.4614096,79.6409695 57.295916,78.1316548 57.2734528,76.5089972 L57.2734528,66.3060804 C60.0032718,64.7000499 61.6883021,61.7294312 61.6949246,58.5112607 C61.6971453,56.1184363 60.7682849,53.8228325 59.1129045,52.1300057 C57.4575241,50.4371788 55.2113878,49.4859642 52.8691578,49.4858458 Z" id="Shape" fill="#000000"></path>
                </g>
                <circle id="Oval" fill="#B8E986" cx="5" cy="29" r="5"></circle>
                <circle id="Oval-Copy" fill="#BD10E0" cx="175" cy="153" r="4"></circle>
                <path d="M129.636364,7.36363636 L137,7.36363636 L137,10.6363636 L129.636364,10.6363636 L129.636364,18 L126.363636,18 L126.363636,10.6363636 L119,10.6363636 L119,7.36363636 L126.363636,7.36363636 L126.363636,0 L129.636364,0 L129.636364,7.36363636 Z" id="Combined-Shape" fill="#D0021B"></path>
                <path d="M36,42 L58,42 L58,46 L36,46 L36,42 Z M60,42 L64,42 L64,46 L60,46 L60,42 Z M65,42 L69,42 L69,46 L65,46 L65,42 Z" id="Combined-Shape" fill="#FEC505"></path>
                <path d="M146,112 L168,112 L168,116 L146,116 L146,112 Z M170,112 L174,112 L174,116 L170,116 L170,112 Z M175,112 L179,112 L179,116 L175,116 L175,112 Z" id="Combined-Shape-Copy-2" fill="#F95C6C"></path>
                <path d="M72.6818182,154.318182 L78,154.318182 L78,156.681818 L72.6818182,156.681818 L72.6818182,162 L70.3181818,162 L70.3181818,156.681818 L65,156.681818 L65,154.318182 L70.3181818,154.318182 L70.3181818,149 L72.6818182,149 L72.6818182,154.318182 Z" id="Combined-Shape-Copy" fill="#07D868" transform="translate(71.500000, 155.500000) rotate(-315.000000) translate(-71.500000, -155.500000) "></path>
            </g>
        </g>
    </g>
</svg>