<?xml version="1.0" encoding="UTF-8"?>
<svg width="44px" height="42px" viewBox="0 0 44 42" version="1.1" xmlns="http://www.w3.org/2000/svg" xmlns:xlink="http://www.w3.org/1999/xlink">
    <!-- Generator: sketchtool 58 (101010) - https://sketch.com -->
    <title>BC54975D-4FAC-428F-8740-425407A48AC3</title>
    <desc>Created with sketchtool.</desc>
    <g id="Home-screen" stroke="none" stroke-width="1" fill="none" fill-rule="evenodd">
        <g id="DG_Home_Sep-2019_v2" transform="translate(-772.000000, -3389.000000)">
            <g id="About-Dataguru_dark" transform="translate(132.000000, 3012.000000)">
                <g id="Blue-Box" transform="translate(640.000000, 377.000000)">
                    <g id="ic_quote_white">
                        <path d="M2,0 L43,0 C45.209139,-4.05812251e-16 47,1.790861 47,4 L47,31 L47,31 L6,31 C3.790861,31 2,29.209139 2,27 L2,0 L2,0 Z" id="Rectangle-7"></path>
                        <path d="M17.04,7.57773512 C13.3599816,8.27639505 10.7733408,10.9635083 9.28,15.6391555 C8.5333296,17.9501075 8.16,20.2341538 8.16,22.4913628 C8.16,22.7600781 8.1733332,22.9884827 8.2,23.1765835 C8.2266668,23.3646842 8.2666664,23.7811868 8.32,24.4261036 L17.04,24.4261036 L17.04,42 L0,42 L0,25.7965451 C0,17.8425706 1.5733176,11.7159524 4.72,7.41650672 C7.8666824,3.11706104 11.973308,0.644916852 17.04,0 L17.04,7.57773512 Z M44,7.57773512 C41.066652,8.06142276 38.8400076,9.72743298 37.32,12.5758157 C35.7999924,15.4241985 35.04,18.7024767 35.04,22.4107486 C35.04,22.733207 35.0533332,23.0556606 35.08,23.378119 C35.1066668,23.7005774 35.1733328,24.0499021 35.28,24.4261036 L44,24.4261036 L44,42 L26.88,42 L26.88,25.7965451 C26.88,19.4011197 28.21332,13.691004 30.88,8.66602687 C33.54668,3.64104973 37.9199696,0.752402994 44,0 L44,7.57773512 Z" id="“" fill="#B8E986" opacity="0.300000012"></path>
                    </g>
                </g>
            </g>
        </g>
    </g>
</svg>