<?xml version="1.0" encoding="UTF-8"?>
<svg width="77px" height="77px" viewBox="0 0 77 77" version="1.1" xmlns="http://www.w3.org/2000/svg" xmlns:xlink="http://www.w3.org/1999/xlink">
    <!-- Generator: Sketch 48.2 (47327) - http://www.bohemiancoding.com/sketch -->
    <title>ic_RadiusSearch_F</title>
    <desc>Created with Sketch.</desc>
    <defs>
        <ellipse id="path-1" cx="24.5" cy="24.6404011" rx="24.5" ry="24.6404011"></ellipse>
        <filter x="-44.9%" y="-36.5%" width="189.8%" height="189.3%" filterUnits="objectBoundingBox" id="filter-2">
            <feMorphology radius="2" operator="dilate" in="SourceAlpha" result="shadowSpreadOuter1"></feMorphology>
            <feOffset dx="0" dy="4" in="shadowSpreadOuter1" result="shadowOffsetOuter1"></feOffset>
            <feGaussianBlur stdDeviation="6" in="shadowOffsetOuter1" result="shadowBlurOuter1"></feGaussianBlur>
            <feComposite in="shadowBlurOuter1" in2="SourceAlpha" operator="out" result="shadowBlurOuter1"></feComposite>
            <feColorMatrix values="0 0 0 0 0.792156863   0 0 0 0 0.803921569   0 0 0 0 0.839215686  0 0 0 1 0" type="matrix" in="shadowBlurOuter1"></feColorMatrix>
        </filter>
    </defs>
    <g id="DG_NewFeatures-Copy" stroke="none" stroke-width="1" fill="none" fill-rule="evenodd" transform="translate(-832.000000, -2197.000000)">
        <g id="4-copy" transform="translate(172.000000, 2081.000000)">
            <g id="Content" transform="translate(674.000000, 125.813754)">
                <g id="ic_RadiusSearch_F">
                    <g id="Oval">
                        <use fill="black" fill-opacity="1" filter="url(#filter-2)" xlink:href="#path-1"></use>
                        <use fill="#E7EBF2" fill-rule="evenodd" xlink:href="#path-1"></use>
                        <ellipse stroke="#FFFFFF" stroke-width="2" cx="24.5" cy="24.6404011" rx="25.5" ry="25.6404011"></ellipse>
                    </g>
                    <g id="ic_radius-search" transform="translate(6.000000, 13.074499)" fill="#016BFF" fill-rule="nonzero">
                        <path d="M8.56557377,7.61693073 C7.75409836,7.26196696 6.89754098,7.04011461 5.95081967,7.04011461 C2.70491803,7.04011461 0,9.65797236 0,12.8970167 C0,16.136061 5.04918033,22.1260745 5.99590164,22.1260745 C6.67213115,22.1260745 9.51229508,18.9757711 11,16.0473201 C9.73770492,13.9175375 8.47540984,11.2996798 8.47540984,9.12552671 C8.47540984,8.59308107 8.5204918,8.1050059 8.56557377,7.61693073 Z M8.56557377,12.6751643 C8.56557377,14.0950194 7.43852459,15.2042811 5.99590164,15.2042811 C4.59836066,15.2042811 3.42622951,14.0950194 3.42622951,12.6751643 C3.42622951,11.2996798 4.55327869,10.1460475 5.99590164,10.1460475 C7.39344262,10.1460475 8.56557377,11.2996798 8.56557377,12.6751643 Z" id="Shape"></path>
                        <path d="M31.0689452,7.04011461 C30.118518,7.04011461 29.2586076,7.2626214 28.4439557,7.61863225 C28.5344726,8.10814717 28.5344726,8.59766209 28.5344726,9.08717702 C28.5344726,11.2677435 27.3124947,13.8933235 26,16.0293886 C27.4935285,19.0109795 30.3448101,22.1260745 31.0236867,22.1260745 C31.9288555,22.1260745 36.9978007,16.1628927 36.9978007,12.9142937 C37.0883176,9.66569465 34.3728112,7.04011461 31.0689452,7.04011461 Z M31.0689452,15.2283642 C29.6659336,15.2283642 28.4892141,14.1158303 28.4892141,12.6917869 C28.4892141,11.3122448 29.6206751,10.1552096 31.0689452,10.1552096 C32.4719568,10.1552096 33.6486762,11.2677435 33.6486762,12.6917869 C33.6486762,14.1158303 32.5172152,15.2283642 31.0689452,15.2283642 Z" id="Shape"></path>
                        <path d="M26.9565217,8.42323013 C26.4782609,3.71346705 22.6521739,0 18,0 C13.3478261,0 9.52173913,3.71346705 9.04347826,8.42323013 C9,8.74023342 9,9.0572367 9,9.41952617 C9,11.1404011 9.82608696,13.314138 11,15.4878748 C13.3478261,19.8806346 17.0869565,24.1375358 18,24.1375358 C18.9130435,24.1375358 22.6521739,19.8806346 25,15.4878748 C26.173913,13.314138 27,11.1404011 27,9.41952617 C27,9.0572367 27,8.74023342 26.9565217,8.42323013 Z M18,13.087707 C15.8695652,13.087707 14.1304348,11.2762597 14.1304348,9.0572367 C14.1304348,6.83821371 15.8695652,5.02676637 18,5.02676637 C20.1304348,5.02676637 21.8695652,6.83821371 21.8695652,9.0572367 C21.8695652,11.2762597 20.1304348,13.087707 18,13.087707 Z" id="Shape"></path>
                    </g>
                </g>
            </g>
        </g>
    </g>
</svg>