<?xml version="1.0" encoding="UTF-8"?>
<svg width="133px" height="134px" viewBox="0 0 133 134" version="1.1" xmlns="http://www.w3.org/2000/svg" xmlns:xlink="http://www.w3.org/1999/xlink">
    <!-- Generator: Sketch 48.2 (47327) - http://www.bohemiancoding.com/sketch -->
    <title>ic_radius search</title>
    <desc>Created with Sketch.</desc>
    <defs>
        <ellipse id="path-1" cx="24.5" cy="25.5659026" rx="24.5" ry="24.6404011"></ellipse>
        <filter x="-141.8%" y="-118.7%" width="383.7%" height="382.1%" filterUnits="objectBoundingBox" id="filter-2">
            <feMorphology radius="4" operator="dilate" in="SourceAlpha" result="shadowSpreadOuter1"></feMorphology>
            <feOffset dx="0" dy="11" in="shadowSpreadOuter1" result="shadowOffsetOuter1"></feOffset>
            <feGaussianBlur stdDeviation="20" in="shadowOffsetOuter1" result="shadowBlurOuter1"></feGaussianBlur>
            <feComposite in="shadowBlurOuter1" in2="SourceAlpha" operator="out" result="shadowBlurOuter1"></feComposite>
            <feColorMatrix values="0 0 0 0 0.258823529   0 0 0 0 0.77254902   0 0 0 0 0.498039216  0 0 0 1 0" type="matrix" in="shadowBlurOuter1"></feColorMatrix>
        </filter>
    </defs>
    <g id="DG_Home_New-landing_2" stroke="none" stroke-width="1" fill="none" fill-rule="evenodd" transform="translate(-804.000000, -1693.000000)">
        <g id="1.-Feature" transform="translate(0.000000, 1483.000000)">
            <g id="Content" transform="translate(846.000000, 240.000000)">
                <g id="Group-19">
                    <g id="ic_radius-search" transform="translate(0.000000, 0.074499)">
                        <g id="Oval">
                            <use fill="black" fill-opacity="1" filter="url(#filter-2)" xlink:href="#path-1"></use>
                            <use fill="#F6F6F6" fill-rule="evenodd" xlink:href="#path-1"></use>
                            <ellipse stroke="#FFFFFF" stroke-width="4" cx="24.5" cy="25.5659026" rx="26.5" ry="26.6404011"></ellipse>
                        </g>
                        <path d="M14.5655738,21.6169307 C13.7540984,21.261967 12.897541,21.0401146 11.9508197,21.0401146 C8.70491803,21.0401146 6,23.6579724 6,26.8970167 C6,30.136061 11.0491803,36.1260745 11.9959016,36.1260745 C12.6721311,36.1260745 15.5122951,32.9757711 17,30.0473201 C15.7377049,27.9175375 14.4754098,25.2996798 14.4754098,23.1255267 C14.4754098,22.5930811 14.5204918,22.1050059 14.5655738,21.6169307 Z M14.5655738,26.6751643 C14.5655738,28.0950194 13.4385246,29.2042811 11.9959016,29.2042811 C10.5983607,29.2042811 9.42622951,28.0950194 9.42622951,26.6751643 C9.42622951,25.2996798 10.5532787,24.1460475 11.9959016,24.1460475 C13.3934426,24.1460475 14.5655738,25.2996798 14.5655738,26.6751643 Z" id="Shape" fill="#0164CF" fill-rule="nonzero"></path>
                        <path d="M37.0689452,21.0401146 C36.118518,21.0401146 35.2586076,21.2626214 34.4439557,21.6186322 C34.5344726,22.1081472 34.5344726,22.5976621 34.5344726,23.087177 C34.5344726,25.2677435 33.3124947,27.8933235 32,30.0293886 C33.4935285,33.0109795 36.3448101,36.1260745 37.0236867,36.1260745 C37.9288555,36.1260745 42.9978007,30.1628927 42.9978007,26.9142937 C43.0883176,23.6656947 40.3728112,21.0401146 37.0689452,21.0401146 Z M37.0689452,29.2283642 C35.6659336,29.2283642 34.4892141,28.1158303 34.4892141,26.6917869 C34.4892141,25.3122448 35.6206751,24.1552096 37.0689452,24.1552096 C38.4719568,24.1552096 39.6486762,25.2677435 39.6486762,26.6917869 C39.6486762,28.1158303 38.5172152,29.2283642 37.0689452,29.2283642 Z" id="Shape" fill="#0164CF" fill-rule="nonzero"></path>
                        <path d="M32.9565217,22.4232301 C32.4782609,17.713467 28.6521739,14 24,14 C19.3478261,14 15.5217391,17.713467 15.0434783,22.4232301 C15,22.7402334 15,23.0572367 15,23.4195262 C15,25.1404011 15.826087,27.314138 17,29.4878748 C19.3478261,33.8806346 23.0869565,38.1375358 24,38.1375358 C24.9130435,38.1375358 28.6521739,33.8806346 31,29.4878748 C32.173913,27.314138 33,25.1404011 33,23.4195262 C33,23.0572367 33,22.7402334 32.9565217,22.4232301 Z M24,27.087707 C21.8695652,27.087707 20.1304348,25.2762597 20.1304348,23.0572367 C20.1304348,20.8382137 21.8695652,19.0267664 24,19.0267664 C26.1304348,19.0267664 27.8695652,20.8382137 27.8695652,23.0572367 C27.8695652,25.2762597 26.1304348,27.087707 24,27.087707 Z" id="Shape" fill="#0164CF" fill-rule="nonzero"></path>
                    </g>
                </g>
            </g>
        </g>
    </g>
</svg>