<?xml version="1.0" encoding="UTF-8"?>
<svg width="87px" height="68px" viewBox="0 0 87 68" version="1.1" xmlns="http://www.w3.org/2000/svg" xmlns:xlink="http://www.w3.org/1999/xlink">
    <!-- Generator: sketchtool 49.3 (51167) - http://www.bohemiancoding.com/sketch -->
    <title>CD92969E-8751-4FD8-91E2-2F55124C4F79</title>
    <desc>Created with sketchtool.</desc>
    <defs></defs>
    <g id="Home-screen" stroke="none" stroke-width="1" fill="none" fill-rule="evenodd">
        <g id="DG_Home_New-landing_11" transform="translate(-1021.000000, -958.000000)">
            <g id="section-3" transform="translate(0.000000, 758.000000)">
                <g id="3.Research" transform="translate(924.000000, 200.000000)">
                    <g id="ic_research" transform="translate(97.000000, 0.000000)">
                        <g id="Illustration_Key-Executives" transform="translate(0.000000, 4.000000)">
                            <ellipse id="Oval-3-Copy-2" fill="#FFD794" cx="84.1542289" cy="14" rx="1.99004975" ry="2"></ellipse>
                            <ellipse id="Oval-3-Copy-3" fill="#FFD794" cx="15.1542289" cy="44" rx="1.99004975" ry="2"></ellipse>
                            <ellipse id="Oval-3-Copy" fill="#B8E986" cx="64.1542289" cy="62" rx="1.99004975" ry="2"></ellipse>
                            <ellipse id="Oval-4" fill="#FBAAB4" cx="2.98507463" cy="3" rx="2.98507463" ry="3"></ellipse>
                        </g>
                        <g id="Group-8" transform="translate(9.000000, 0.000000)">
                            <path d="M43.2806105,37.554443 C35.4612366,45.3587947 22.8004465,45.3587947 14.981788,37.554443 C7.15168413,29.7400766 7.1402387,17.0578263 14.9538898,9.22843772 C22.7689716,1.39904916 35.4505066,1.38688839 43.2806105,9.20125483 C51.109999,17.0156213 51.1214444,29.6978716 43.3077934,37.5272602 L43.2806105,37.554443 Z M56.9221308,42.1183077 C56.2239596,41.4194212 55.0915775,41.4179906 54.392691,42.114731 C54.3919757,42.1161617 54.390545,42.1168771 54.3898297,42.1183077 L52.3940331,44.1141044 L47.0497332,38.7705198 C52.8969166,31.9540517 54.3690848,22.4099949 50.8489002,14.1485414 L57.7590777,7.23836381 L57.7590777,10.5289246 C57.7590777,11.5160928 58.5595424,12.3172728 59.547426,12.3172728 C60.5353095,12.3172728 61.3357742,11.5160928 61.3357742,10.5289246 L61.3357742,2.91771448 C61.3357742,1.92983092 60.5353095,1.12936625 59.547426,1.12936625 L51.9433693,1.12936625 C50.9554857,1.12936625 50.1550211,1.92983092 50.1550211,2.91771448 C50.1550211,3.90559804 50.9554857,4.70606271 51.9433693,4.70606271 L55.23393,4.70606271 L49.1177791,10.8222137 C42.0559496,-0.1367843 27.4465752,-3.29643796 16.4875772,3.76610688 C6.6523773,10.104013 2.94334307,22.6896925 7.77045262,33.348248 L0.524780917,40.594635 C-0.174820912,41.2942369 -0.174820912,42.4280496 0.524780917,43.1269361 C1.22366741,43.826538 2.35748019,43.826538 3.05708201,43.1269361 L9.60172121,36.5815816 C10.4415295,37.8391481 11.3993688,39.0123045 12.4630784,40.0867441 C21.1895024,48.7931387 35.145772,49.3203437 44.5038406,41.2956675 L49.8467098,46.6392521 L47.8509132,48.6350487 C47.1520267,49.3325045 47.150596,50.4648866 47.8480518,51.1644884 L47.8509132,51.1673498 L58.474417,61.7686781 C60.9680898,64.2587742 65.0083261,64.2587742 67.5019989,61.7686781 C69.992095,59.2750053 69.992095,55.234769 67.5019989,52.7410962 L56.9221308,42.1183077 Z" id="Fill-1" fill="#F5A623"></path>
                            <path d="M43.7741946,21.2160936 L35.5113104,29.4854158 C34.8145699,30.1850177 33.6821878,30.1864483 32.982586,29.4882772 L32.9797246,29.4854158 L28.2584853,24.7784833 L24.8177033,21.3377013 L17.8138163,28.340873 C17.1149298,29.0404748 15.981117,29.0404748 15.2815152,28.340873 C14.5826287,27.6412711 14.5826287,26.5074583 15.2815152,25.8085719 L23.5730129,17.546403 C24.2704687,16.8475165 25.4021355,16.8460859 26.1017373,17.5428263 C26.1024527,17.544257 26.1038834,17.5456877 26.105314,17.546403 L30.8115312,22.2533356 L34.2523132,25.6941176 L41.2554849,18.6909459 C41.9550867,17.9913441 43.0888995,17.9913441 43.7885014,18.6909459 C44.4873878,19.3898324 44.4873878,20.5236452 43.7885014,21.223247 L43.7741946,21.2160936 Z" id="Path" fill="#8B572A"></path>
                            <path d="M64.9983114,59.2149168 C63.9009809,60.309386 62.1247935,60.309386 61.027463,59.2149168 L51.7280522,49.915506 L55.7196454,45.9239128 L65.0555385,55.2233236 C66.1421389,56.3320995 66.1235401,58.112579 65.0140489,59.198464 C65.0090415,59.2041867 65.0040341,59.2099095 64.9983114,59.2149168 Z" id="Path" fill="#FFFFFF"></path>
                        </g>
                    </g>
                </g>
            </g>
        </g>
    </g>
</svg>