<?xml version="1.0" encoding="UTF-8"?>
<svg width="88px" height="87px" viewBox="0 0 88 87" version="1.1" xmlns="http://www.w3.org/2000/svg" xmlns:xlink="http://www.w3.org/1999/xlink">
    <!-- Generator: Sketch 48.2 (47327) - http://www.bohemiancoding.com/sketch -->
    <title>ic_RadiusSearch_F</title>
    <desc>Created with Sketch.</desc>
    <defs>
        <ellipse id="path-1" cx="30" cy="29.5684814" rx="30" ry="29.5684814"></ellipse>
        <filter x="-36.7%" y="-30.4%" width="173.3%" height="174.4%" filterUnits="objectBoundingBox" id="filter-2">
            <feMorphology radius="2" operator="dilate" in="SourceAlpha" result="shadowSpreadOuter1"></feMorphology>
            <feOffset dx="0" dy="4" in="shadowSpreadOuter1" result="shadowOffsetOuter1"></feOffset>
            <feGaussianBlur stdDeviation="6" in="shadowOffsetOuter1" result="shadowBlurOuter1"></feGaussianBlur>
            <feComposite in="shadowBlurOuter1" in2="SourceAlpha" operator="out" result="shadowBlurOuter1"></feComposite>
            <feColorMatrix values="0 0 0 0 0.878431373   0 0 0 0 0.878431373   0 0 0 0 0.878431373  0 0 0 1 0" type="matrix" in="shadowBlurOuter1"></feColorMatrix>
        </filter>
    </defs>
    <g id="DG_NewFeatures-Copy" stroke="none" stroke-width="1" fill="none" fill-rule="evenodd" transform="translate(-846.000000, -2339.000000)">
        <g id="4-copy" transform="translate(123.000000, 2222.000000)">
            <g id="Content" transform="translate(737.000000, 127.000000)">
                <g id="ic_RadiusSearch_F">
                    <g id="Oval">
                        <use fill="black" fill-opacity="1" filter="url(#filter-2)" xlink:href="#path-1"></use>
                        <use fill="#76DB7E" fill-rule="evenodd" xlink:href="#path-1"></use>
                        <ellipse stroke="#FFFFFF" stroke-width="2" cx="30" cy="29.5684814" rx="31" ry="30.5684814"></ellipse>
                    </g>
                    <g id="ic_radius-search" transform="translate(7.346939, 15.689398)" fill="#FFFFFF" fill-rule="nonzero">
                        <g id="Group-7">
                            <path d="M10.4884577,9.14031687 C9.49481432,8.71436036 8.44596855,8.44813754 7.28671797,8.44813754 C3.31214453,8.44813754 0,11.5895668 0,15.47642 C0,19.3632732 6.18266979,26.5512894 7.34192037,26.5512894 C8.16995651,26.5512894 11.6477083,22.7709253 13.4693878,19.2567841 C11.9237203,16.701045 10.3780529,13.5596157 10.3780529,10.9506321 C10.3780529,10.3116973 10.4332553,9.72600708 10.4884577,9.14031687 Z M10.4884577,15.2101972 C10.4884577,16.9140233 9.10839746,18.2451374 7.34192037,18.2451374 C5.6306457,18.2451374 4.19538307,16.9140233 4.19538307,15.2101972 C4.19538307,13.5596157 5.57544329,12.175257 7.34192037,12.175257 C9.05319505,12.175257 10.4884577,13.5596157 10.4884577,15.2101972 Z" id="Shape"></path>
                            <path d="M38.0436063,8.44813754 C36.8798179,8.44813754 35.8268665,8.71514568 34.8293335,9.1423587 C34.9401705,9.72977661 34.9401705,10.3171945 34.9401705,10.9046124 C34.9401705,13.5212922 33.4438711,16.6719882 31.8367347,19.2352664 C33.6655451,22.8131754 37.1569104,26.5512894 37.9881878,26.5512894 C39.0965578,26.5512894 45.3034294,19.3954713 45.3034294,15.4971524 C45.4142664,11.5988336 42.0891566,8.44813754 38.0436063,8.44813754 Z M38.0436063,18.2740371 C36.3256329,18.2740371 34.884752,16.9389964 34.884752,15.2301443 C34.884752,13.5746938 36.2702144,12.1862515 38.0436063,12.1862515 C39.7615797,12.1862515 41.2024606,13.5212922 41.2024606,15.2301443 C41.2024606,16.9389964 39.8169982,18.2740371 38.0436063,18.2740371 Z" id="Shape"></path>
                            <path d="M33.0079858,10.1078762 C32.4223602,4.45616046 27.7373558,0 22.0408163,0 C16.3442768,0 11.6592724,4.45616046 11.0736469,10.1078762 C11.0204082,10.4882801 11.0204082,10.868684 11.0204082,11.3034314 C11.0204082,13.3684814 12.0319432,15.9769655 13.4693878,18.5854497 C16.3442768,23.8567615 20.9228039,28.965043 22.0408163,28.965043 C23.1588287,28.965043 27.7373558,23.8567615 30.6122449,18.5854497 C32.0496894,15.9769655 33.0612245,13.3684814 33.0612245,11.3034314 C33.0612245,10.868684 33.0612245,10.4882801 33.0079858,10.1078762 Z M22.0408163,15.7052484 C19.4321207,15.7052484 17.3025732,13.5315116 17.3025732,10.868684 C17.3025732,8.20585645 19.4321207,6.03211964 22.0408163,6.03211964 C24.649512,6.03211964 26.7790594,8.20585645 26.7790594,10.868684 C26.7790594,13.5315116 24.649512,15.7052484 22.0408163,15.7052484 Z" id="Shape"></path>
                        </g>
                    </g>
                </g>
            </g>
        </g>
    </g>
</svg>