<?xml version="1.0" encoding="UTF-8"?>
<svg width="189px" height="137px" viewBox="0 0 189 137" version="1.1" xmlns="http://www.w3.org/2000/svg" xmlns:xlink="http://www.w3.org/1999/xlink">
    <!-- Generator: Sketch 48.2 (47327) - http://www.bohemiancoding.com/sketch -->
    <title>Illustration_Org Chart Copy</title>
    <desc>Created with Sketch.</desc>
    <defs></defs>
    <g id="DG_Home_Company-Detail_blurred" stroke="none" stroke-width="1" fill="none" fill-rule="evenodd" transform="translate(-447.000000, -1485.000000)">
        <g id="Radius-Map-alert" transform="translate(378.000000, 1466.000000)">
            <g id="Illustration_Org-Chart-Copy" transform="translate(66.000000, 13.000000)">
                <path d="M21.2253445,32.3250632 L160.225345,32.3250632 C166.576619,32.3250632 171.725345,37.4737886 171.725345,43.8250632 C171.725345,50.1763378 166.576619,55.3250632 160.225345,55.3250632 L21.2253445,55.3250632 C14.8740699,55.3250632 9.72534454,50.1763378 9.72534454,43.8250632 C9.72534454,37.4737886 14.8740699,32.3250632 21.2253445,32.3250632 Z M40.7028877,64.8081779 L179.702888,64.8081779 C186.054162,64.8081779 191.202888,69.9569033 191.202888,76.3081779 C191.202888,82.6594525 186.054162,87.8081779 179.702888,87.8081779 L40.7028877,87.8081779 C34.351613,87.8081779 29.2028877,82.6594525 29.2028877,76.3081779 C29.2028877,69.9569033 34.351613,64.8081779 40.7028877,64.8081779 Z M34.3377044,96.027326 L173.337704,96.027326 C179.688979,96.027326 184.837704,101.176051 184.837704,107.527326 C184.837704,113.878601 179.688979,119.027326 173.337704,119.027326 L34.3377044,119.027326 C27.9864297,119.027326 22.8377044,113.878601 22.8377044,107.527326 C22.8377044,101.176051 27.9864297,96.027326 34.3377044,96.027326 Z" id="Combined-Shape" fill="#0164CF" opacity="0.100000001" transform="translate(100.464116, 75.676195) rotate(-23.000000) translate(-100.464116, -75.676195) "></path>
                <circle id="Oval-2" fill="#F0F6FD" cx="107" cy="72" r="66"></circle>
                <rect id="Rectangle-7" fill="#55ACEE" x="50" y="23" width="21" height="3" rx="1.5"></rect>
                <rect id="Rectangle-7-Copy" fill="#55ACEE" x="44" y="28" width="21" height="3" rx="1.5"></rect>
                <rect id="Rectangle-8" fill="#0164CF" x="169" y="20" width="18" height="3" rx="1.5"></rect>
                <path d="M170.791667,118.791667 L170.791667,114.958333 C170.791667,114.42906 171.220727,114 171.75,114 C172.279273,114 172.708333,114.42906 172.708333,114.958333 L172.708333,118.791667 L176.541667,118.791667 C177.07094,118.791667 177.5,119.220727 177.5,119.75 C177.5,120.279273 177.07094,120.708333 176.541667,120.708333 L172.708333,120.708333 L172.708333,124.541667 C172.708333,125.07094 172.279273,125.5 171.75,125.5 C171.220727,125.5 170.791667,125.07094 170.791667,124.541667 L170.791667,120.708333 L166.958333,120.708333 C166.42906,120.708333 166,120.279273 166,119.75 C166,119.220727 166.42906,118.791667 166.958333,118.791667 L170.791667,118.791667 Z" id="Combined-Shape" fill="#3C5A99"></path>
                <path d="M73.7916667,10.7916667 L73.7916667,6.95833333 C73.7916667,6.42906045 74.2207271,6 74.75,6 C75.2792729,6 75.7083333,6.42906045 75.7083333,6.95833333 L75.7083333,10.7916667 L79.5416667,10.7916667 C80.0709396,10.7916667 80.5,11.2207271 80.5,11.75 C80.5,12.2792729 80.0709396,12.7083333 79.5416667,12.7083333 L75.7083333,12.7083333 L75.7083333,16.5416667 C75.7083333,17.0709396 75.2792729,17.5 74.75,17.5 C74.2207271,17.5 73.7916667,17.0709396 73.7916667,16.5416667 L73.7916667,12.7083333 L69.9583333,12.7083333 C69.4290604,12.7083333 69,12.2792729 69,11.75 C69,11.2207271 69.4290604,10.7916667 69.9583333,10.7916667 L73.7916667,10.7916667 Z" id="Combined-Shape-Copy" fill="#8D95A5"></path>
                <circle id="Oval-3" fill="#FFD794" cx="163" cy="38" r="6"></circle>
                <circle id="Oval-4" fill="#DA4B42" cx="50" cy="116" r="4"></circle>
                <g id="ic_radius-search" transform="translate(67.000000, 45.000000)" fill="#0164CF" fill-rule="nonzero">
                    <path d="M18.5201595,16.4690394 C16.7656181,15.7015502 14.9136021,15.2218694 12.8666371,15.2218694 C5.84847142,15.2218694 0,20.8821024 0,27.8854415 C0,34.8887806 10.9171467,47.8401611 12.9641117,47.8401611 C14.4262295,47.8401611 20.5671245,41.0286943 23.7837838,34.6969083 C21.0544971,30.091973 18.3252105,24.43174 18.3252105,19.7308686 C18.3252105,18.5796348 18.422685,17.5243371 18.5201595,16.4690394 Z M18.5201595,27.4057607 C18.5201595,30.4757176 16.0832964,32.8741214 12.9641117,32.8741214 C9.94240142,32.8741214 7.4080638,30.4757176 7.4080638,27.4057607 C7.4080638,24.43174 9.84492689,21.9374001 12.9641117,21.9374001 C15.9858219,21.9374001 18.5201595,24.43174 18.5201595,27.4057607 Z" id="Shape"></path>
                    <path d="M67.1760977,15.2218694 C65.1211199,15.2218694 63.2618543,15.7029652 61.5004448,16.4727184 C61.6961569,17.531129 61.6961569,18.5895397 61.6961569,19.6479503 C61.6961569,24.3626886 59.0540427,30.0396184 56.2162162,34.6581376 C59.445467,41.1048206 65.6104003,47.8401611 67.0782416,47.8401611 C69.0353633,47.8401611 79.9952447,34.9467951 79.9952447,27.9227972 C80.1909569,20.8987992 74.3195918,15.2218694 67.1760977,15.2218694 Z M67.1760977,32.9261929 C64.142559,32.9261929 61.5983009,30.5207142 61.5983009,27.4417014 C61.5983009,24.4589078 64.044703,21.9572099 67.1760977,21.9572099 C70.2096363,21.9572099 72.7538945,24.3626886 72.7538945,27.4417014 C72.7538945,30.5207142 70.3074924,32.9261929 67.1760977,32.9261929 Z" id="Shape"></path>
                    <path d="M58.2843713,18.2123895 C57.2502938,8.02911794 48.9776733,0 38.9189189,0 C28.8601645,0 20.5875441,8.02911794 19.5534665,18.2123895 C19.4594595,18.897802 19.4594595,19.5832145 19.4594595,20.3665431 C19.4594595,24.0873538 21.2455934,28.7873253 23.7837838,33.4872968 C28.8601645,42.9851558 36.9447709,52.1892666 38.9189189,52.1892666 C40.893067,52.1892666 48.9776733,42.9851558 54.0540541,33.4872968 C56.5922444,28.7873253 58.3783784,24.0873538 58.3783784,20.3665431 C58.3783784,19.5832145 58.3783784,18.897802 58.2843713,18.2123895 Z M38.9189189,28.2977449 C34.3125734,28.2977449 30.5522914,24.381102 30.5522914,19.5832145 C30.5522914,14.7853269 34.3125734,10.868684 38.9189189,10.868684 C43.5252644,10.868684 47.2855464,14.7853269 47.2855464,19.5832145 C47.2855464,24.381102 43.5252644,28.2977449 38.9189189,28.2977449 Z" id="Shape"></path>
                </g>
            </g>
        </g>
    </g>
</svg>