<?xml version="1.0" encoding="UTF-8"?>
<svg width="144px" height="143px" viewBox="0 0 144 143" version="1.1" xmlns="http://www.w3.org/2000/svg" xmlns:xlink="http://www.w3.org/1999/xlink">
    <!-- Generator: sketchtool 51.2 (57519) - http://www.bohemiancoding.com/sketch -->
    <title>4243EE17-4673-4CBE-A99F-97756908360E</title>
    <desc>Created with sketchtool.</desc>
    <defs>
        <ellipse id="path-1" cx="30" cy="29.5106017" rx="30" ry="29.4"></ellipse>
        <filter x="-115.8%" y="-99.5%" width="331.7%" height="336.4%" filterUnits="objectBoundingBox" id="filter-2">
            <feMorphology radius="4" operator="dilate" in="SourceAlpha" result="shadowSpreadOuter1"></feMorphology>
            <feOffset dx="0" dy="11" in="shadowSpreadOuter1" result="shadowOffsetOuter1"></feOffset>
            <feGaussianBlur stdDeviation="20" in="shadowOffsetOuter1" result="shadowBlurOuter1"></feGaussianBlur>
            <feComposite in="shadowBlurOuter1" in2="SourceAlpha" operator="out" result="shadowBlurOuter1"></feComposite>
            <feColorMatrix values="0 0 0 0 0.952941176   0 0 0 0 0.956862745   0 0 0 0 0.964705882  0 0 0 1 0" type="matrix" in="shadowBlurOuter1"></feColorMatrix>
        </filter>
    </defs>
    <g id="Home-screen" stroke="none" stroke-width="1" fill="none" fill-rule="evenodd">
        <g id="Feature-1_v2" transform="translate(-804.000000, -203.000000)">
            <g id="Feature-1">
                <g id="Content" transform="translate(846.000000, 234.000000)">
                    <g id="Group-19">
                        <g id="ic_radius-search-copy">
                            <g id="Oval-Copy">
                                <use fill="black" fill-opacity="1" filter="url(#filter-2)" xlink:href="#path-1"></use>
                                <ellipse stroke="#FFFFFF" stroke-width="4" fill="#F6F6F6" fill-rule="evenodd" cx="30" cy="29.5106017" rx="32" ry="31.4"></ellipse>
                            </g>
                            <path d="M17.8353965,24.9403169 C16.8417531,24.5143604 15.7929073,24.2481375 14.6336567,24.2481375 C10.6590833,24.2481375 7.34693878,27.3895668 7.34693878,31.27642 C7.34693878,35.1632732 13.5296086,42.3512894 14.6888592,42.3512894 C15.5168953,42.3512894 18.994647,38.5709253 20.8163265,35.0567841 C19.2706591,32.501045 17.7249916,29.3596157 17.7249916,26.7506321 C17.7249916,26.1116973 17.780194,25.5260071 17.8353965,24.9403169 Z M17.8353965,31.0101972 C17.8353965,32.7140233 16.4553362,34.0451374 14.6888592,34.0451374 C12.9775845,34.0451374 11.5423218,32.7140233 11.5423218,31.0101972 C11.5423218,29.3596157 12.9223821,27.975257 14.6888592,27.975257 C16.4001338,27.975257 17.8353965,29.3596157 17.8353965,31.0101972 Z" id="Shape" fill="#0155FF" fill-rule="nonzero"></path>
                            <path d="M45.3905451,24.2481375 C44.2267567,24.2481375 43.1738052,24.5151457 42.1762723,24.9423587 C42.2871093,25.5297766 42.2871093,26.1171945 42.2871093,26.7046124 C42.2871093,29.3212922 40.7908099,32.4719882 39.1836735,35.0352664 C41.0124839,38.6131754 44.5038492,42.3512894 45.3351266,42.3512894 C46.4434965,42.3512894 52.6503682,35.1954713 52.6503682,31.2971524 C52.7612052,27.3988336 49.4360954,24.2481375 45.3905451,24.2481375 Z M45.3905451,34.0740371 C43.6725717,34.0740371 42.2316908,32.7389964 42.2316908,31.0301443 C42.2316908,29.3746938 43.6171532,27.9862515 45.3905451,27.9862515 C47.1085185,27.9862515 48.5493994,29.3212922 48.5493994,31.0301443 C48.5493994,32.7389964 47.163937,34.0740371 45.3905451,34.0740371 Z" id="Shape" fill="#0155FF" fill-rule="nonzero"></path>
                            <path d="M40.3549246,25.9078762 C39.769299,20.2561605 35.0842946,15.8 29.3877551,15.8 C23.6912156,15.8 19.0062112,20.2561605 18.4205856,25.9078762 C18.3673469,26.2882801 18.3673469,26.668684 18.3673469,27.1034314 C18.3673469,29.1684814 19.378882,31.7769655 20.8163265,34.3854497 C23.6912156,39.6567615 28.2697427,44.765043 29.3877551,44.765043 C30.5057675,44.765043 35.0842946,39.6567615 37.9591837,34.3854497 C39.3966282,31.7769655 40.4081633,29.1684814 40.4081633,27.1034314 C40.4081633,26.668684 40.4081633,26.2882801 40.3549246,25.9078762 Z M29.3877551,31.5052484 C26.7790594,31.5052484 24.649512,29.3315116 24.649512,26.668684 C24.649512,24.0058565 26.7790594,21.8321196 29.3877551,21.8321196 C31.9964508,21.8321196 34.1259982,24.0058565 34.1259982,26.668684 C34.1259982,29.3315116 31.9964508,31.5052484 29.3877551,31.5052484 Z" id="Shape" fill="#0155FF" fill-rule="nonzero"></path>
                        </g>
                    </g>
                </g>
            </g>
        </g>
    </g>
</svg>