<?xml version="1.0" encoding="UTF-8"?>
<svg width="19px" height="18px" viewBox="0 0 19 18" version="1.1" xmlns="http://www.w3.org/2000/svg" xmlns:xlink="http://www.w3.org/1999/xlink">
    <!-- Generator: Sketch 55.2 (78181) - https://sketchapp.com -->
    <title>ic_scheduled Status</title>
    <desc>Created with Sketch.</desc>
    <g id="Campaign-Flow_LOGIN-to-Send-" stroke="none" stroke-width="1" fill="none" fill-rule="evenodd">
        <g id="Campaign_landing-Copy" transform="translate(-42.000000, -256.000000)" fill="#FACF88" stroke="#FACF88">
            <g id="Campaigns-Tabs" transform="translate(25.000000, 129.000000)">
                <g id="Campaigns">
                    <g id="ic_scheduled-Status" transform="translate(17.000000, 127.000000)">
                        <g id="Group" transform="translate(1.000000, 1.000000)">
                            <path d="M8.49989877,4.4 C8.05287133,4.4 7.69006645,4.7584 7.69006645,5.2 L7.69006645,8.8 C7.72286466,9.1096 7.85203292,9.2804 8.04436809,9.4624 L10.2207924,11.6248 C10.537032,11.9376 11.0557296,11.9376 11.372374,11.6248 C11.6882086,11.3124 11.6882086,10.8 11.372374,10.4876 L9.30973109,8.45 L9.30973109,5.2 C9.30973109,4.7584 8.94692621,4.4 8.49989877,4.4 M8.49989877,3.2 C11.6404285,3.2 14.168725,5.6976 14.168725,8.8 C14.168725,11.9024 11.6404285,14.4 8.49989877,14.4 C5.35936905,14.4 2.83107255,11.9024 2.83107255,8.8 C2.83107255,5.6976 5.35936905,3.2 8.49989877,3.2 M8.49989877,1.6 C4.48434523,1.6 1.21140792,4.8332 1.21140792,8.8 C1.21140792,12.7668 4.48434523,16 8.49989877,16 C12.5154523,16 15.7883896,12.7668 15.7883896,8.8 C15.7883896,4.8332 12.5154523,1.6 8.49989877,1.6 M13.3337879,0 C13.1264708,0 12.9098407,0.0812 12.7515184,0.2376 C12.4352789,0.55 12.4352789,1.05 12.7515184,1.3624 L15.6239937,4.2 C15.9402332,4.5124 16.4463784,4.5124 16.7626179,4.2 C17.0788574,3.8876 17.0788574,3.3748 16.7626179,3.0624 L13.9031,0.2376 C13.7447778,0.0812 13.5407,0 13.3337879,0 M3.66600967,0 C3.45909751,0 3.25501977,0.0812 3.09669755,0.2376 L0.23717964,3.0624 C-0.07905988,3.3748 -0.07905988,3.8876 0.23717964,4.2 C0.55341916,4.5124 1.05956436,4.5124 1.37580388,4.2 L4.24827911,1.3624 C4.56451863,1.05 4.56451863,0.55 4.24827911,0.2376 C4.08995689,0.0812 3.87332674,0 3.66600967,0" id="ic_scheduled-Status" stroke-width="0.5"></path>
                        </g>
                    </g>
                </g>
            </g>
        </g>
    </g>
</svg>