<?xml version="1.0" encoding="UTF-8"?>
<svg width="14px" height="14px" viewBox="0 0 14 14" version="1.1" xmlns="http://www.w3.org/2000/svg" xmlns:xlink="http://www.w3.org/1999/xlink">
    <!-- Generator: sketchtool 53.2 (72643) - https://sketchapp.com -->
    <title>752B2E32-5DB1-4470-8142-BBC3284BEE24</title>
    <desc>Created with sketchtool.</desc>
    <g id="Marketing-" stroke="none" stroke-width="1" fill="none" fill-rule="evenodd">
        <g id="Domain" transform="translate(-408.000000, -462.000000)" fill="#2523AE">
            <g id="Content" transform="translate(390.000000, 179.000000)">
                <g id="All-members_list" transform="translate(8.000000, 8.000000)">
                    <g id="List" transform="translate(1.000000, 44.000000)">
                        <g id="1-copy-4" transform="translate(0.000000, 212.000000)">
                            <g id="Group-5" transform="translate(9.000000, 11.000000)">
                                <path d="M8.22690668,8.44931312 L8.46068214,10.0061582 C8.82212222,10.1106111 9.17195642,10.2565135 9.50023685,10.4355756 L10.7652771,9.50213169 C10.962577,9.35457129 11.2311701,9.33135955 11.4135481,9.51373757 L12.4862624,10.5864519 C12.6686405,10.7688299 12.6454287,11.037423 12.4995263,11.2347229 L11.5644244,12.4997631 C11.7451445,12.8280436 11.8893889,13.1778778 11.9954998,13.5409758 L13.5506869,13.7747513 C13.7944102,13.8112269 14,13.985315 14,14.2423022 L14,15.7576978 C14,16.016343 13.7944102,16.1904311 13.5506869,16.2269067 L11.9954998,16.4606821 C11.8893889,16.8221222 11.7451445,17.1719564 11.5644244,17.5002369 L12.4995263,18.7652771 C12.6454287,18.962577 12.6686405,19.2311701 12.4862624,19.4135481 L11.4135481,20.4862624 C11.2311701,20.6686405 10.962577,20.6454287 10.7652771,20.4995263 L9.50023685,19.5644244 C9.17195642,19.7451445 8.82212222,19.8893889 8.46068214,19.9954998 L8.22690668,21.5506869 C8.19043108,21.7944102 8.01634297,22 7.75769777,22 L6.24230223,22 C5.98531502,22 5.81122691,21.7944102 5.7747513,21.5506869 L5.54097584,19.9954998 C5.17787778,19.8893889 4.82804358,19.7451445 4.49976315,19.5644244 L3.23472288,20.4995263 C3.03742302,20.6454287 2.76882994,20.6686405 2.58645192,20.4862624 L1.51373757,19.4135481 C1.33135955,19.2311701 1.35457129,18.962577 1.50213169,18.7652771 L2.43557556,17.5002369 C2.2565135,17.1719564 2.11061108,16.8221222 2.00615822,16.4606821 L0.449313122,16.2269067 C0.20724775,16.1904311 0,16.016343 0,15.7576978 L0,14.2423022 C0,13.985315 0.20724775,13.8112269 0.449313122,13.7747513 L2.00615822,13.5409758 C2.11061108,13.1778778 2.2565135,12.8280436 2.43557556,12.4997631 L1.50213169,11.2347229 C1.35457129,11.037423 1.33135955,10.7688299 1.51373757,10.5864519 L2.58645192,9.51373757 C2.76882994,9.33135955 3.03742302,9.35457129 3.23472288,9.50213169 L4.49976315,10.4355756 C4.82804358,10.2565135 5.17787778,10.1106111 5.54097584,10.0061582 L5.7747513,8.44931312 C5.81122691,8.20724775 5.98531502,8 6.24230223,8 L7.75769777,8 C8.01634297,8 8.19043108,8.20724775 8.22690668,8.44931312 Z M8.30285896,13.6979081 C7.58284113,12.9778903 6.41690318,12.9778903 5.69790811,13.6979081 C4.97789028,14.4169032 4.97789028,15.5828411 5.69790811,16.302859 C6.41690318,17.021854 7.58284113,17.021854 8.30285896,16.302859 C9.02185403,15.5828411 9.02185403,14.4169032 8.30285896,13.6979081 Z" id="ic_settings_blue"></path>
                            </g>
                        </g>
                    </g>
                </g>
            </g>
        </g>
    </g>
</svg>