<?xml version="1.0" encoding="UTF-8"?>
<svg width="87px" height="76px" viewBox="0 0 87 76" version="1.1" xmlns="http://www.w3.org/2000/svg" xmlns:xlink="http://www.w3.org/1999/xlink">
    <!-- Generator: sketchtool 49.3 (51167) - http://www.bohemiancoding.com/sketch -->
    <title>5AFCBDBF-5B49-49B8-A04B-C6A23C9CACA7</title>
    <desc>Created with sketchtool.</desc>
    <defs>
        <path d="M23.6773665,65.8160815 L19.3474696,42.3769063 C19.2623149,42.0117516 18.8978819,41.7851537 18.5327273,41.8703083 C18.4829335,41.8818547 18.4338613,41.8991743 18.3876757,41.9222671 C12.6830366,44.9380403 7.28004688,48.4928856 2.25159327,52.537731 C0.819119044,53.727731 -0.00716961603,55.4957722 4.68788142e-05,57.3576279 L4.68788142e-05,63.8524733 C4.68788142e-05,65.1442258 1.04716028,66.1913392 2.33819121,66.1913392 L23.3454077,66.1913392 C23.5330366,66.1884526 23.682418,66.0340197 23.6795314,65.8463908 C23.6795314,65.8362877 23.6788098,65.8261846 23.6773665,65.8160815 Z" id="path-1"></path>
        <path d="M44.9588098,19.4861846 C46.1495314,19.3707207 47.5574696,20.0635042 46.2361294,24.7542258 C45.2698407,28.1820609 44.3677788,29.1418547 43.6814902,29.1923702 C43.3885005,30.9005145 42.7815933,32.5393805 41.8917995,34.0274217 L41.8917995,38.0975248 C41.8867479,38.315463 41.783552,38.5196898 41.6103562,38.6531949 C35.4534521,43.2177316 32.375,45.5 32.375,45.5 C32.375,45.5 30.2755412,45.4973186 30.1875,45.4294836 C30.1860567,45.4280403 27.2270088,43.1786588 21.3103562,38.6813392 C21.1241706,38.5456691 21.0137582,38.3284526 21.0144799,38.0975248 L21.0144799,34.0851537 C20.1246861,32.5769063 19.5185005,30.9185557 19.2247891,29.1923702 C18.5392221,29.1339166 17.6371603,28.1748444 16.67015,24.7542258 C15.3423149,20.0707207 16.7495314,19.3772155 17.9474696,19.4861846 C17.7223149,18.8590712 17.5483974,18.2146382 17.4278819,17.5593805 C16.9595314,15.5293805 16.9595314,13.4192774 17.4278819,11.3892774 C18.0275727,8.99267945 19.2760263,6.80752481 21.0361294,5.0748444 C22.0283974,4.01979285 23.1483974,3.09391656 24.37015,2.31814336 C25.3667479,1.61525677 26.4578819,1.05670007 27.6103562,0.6576279 C28.5528304,0.326390787 29.5364386,0.12649388 30.5330366,0.0665969726 C33.105717,-0.204021584 35.6978819,0.354535117 37.9306654,1.66144233 C39.4150984,2.42783409 40.6628304,3.58608151 41.5389129,5.00989594 C41.5389129,5.00989594 47.499016,5.42845264 45.479119,17.5593805 C45.3578819,18.2146382 45.1832428,18.8590712 44.9588098,19.4861846 Z" id="path-2"></path>
    </defs>
    <g id="Home-screen" stroke="none" stroke-width="1" fill="none" fill-rule="evenodd">
        <g id="DG_Home_New-landing_11" transform="translate(-259.000000, -955.000000)">
            <g id="section-3" transform="translate(0.000000, 758.000000)">
                <g id="1.Sales-Professional" transform="translate(153.000000, 197.000000)">
                    <g id="ic_SP" transform="translate(106.000000, 0.000000)">
                        <g id="Group-10" transform="translate(8.000000, 0.000000)">
                            <path d="M45.479119,17.5593805 C45.3578819,18.2146382 45.1832428,18.8590712 44.9588098,19.4861846 C46.1495314,19.3707207 47.5574696,20.0635042 46.2361294,24.7542258 C45.2698407,28.1820609 44.3677788,29.1418547 43.6814902,29.1923702 C43.3885005,30.9005145 42.7815933,32.5393805 41.8917995,34.0274217 L41.8917995,38.0975248 C41.8867479,38.315463 41.783552,38.5196898 41.6103562,38.6531949 L32.6330366,45.1473186 C32.5421087,45.2122671 32.5204592,45.3385557 32.5846861,45.4294836 C32.5861294,45.4316485 32.5882943,45.4345351 32.5897376,45.4367001 L35.7000469,49.3906176 C35.8754077,49.6251537 35.8920056,49.9412361 35.7433458,50.1923702 L33.6577788,53.5401021 C33.6419025,53.5848444 33.6419025,53.6331949 33.6577788,53.6779372 L35.4474696,65.8593805 C35.471284,66.033298 35.3500469,66.1927825 35.1761294,66.2173186 C35.1638613,66.2187619 35.15015,66.2202052 35.1371603,66.2202052 L27.8052015,66.2202052 C27.6298407,66.2180403 27.4898407,66.0729887 27.4920056,65.8983495 C27.4920056,65.8853599 27.4934489,65.8716485 27.4948922,65.8593805 L29.284583,53.7068032 C29.3004592,53.6620609 29.3004592,53.6137104 29.284583,53.5689681 L27.1773665,50.2212361 C27.0287067,49.9701021 27.0460263,49.6540197 27.2206654,49.4194836 L30.3309747,45.465566 C30.3995314,45.3775248 30.3829335,45.2497928 30.2948922,45.1819578 C30.2927273,45.1797928 30.2905623,45.1783495 30.2876757,45.1761846 L21.3103562,38.6813392 C21.1241706,38.5456691 21.0137582,38.3284526 21.0144799,38.0975248 L21.0144799,34.0851537 C20.1246861,32.5769063 19.5185005,30.9185557 19.2247891,29.1923702 C18.5392221,29.1339166 17.6371603,28.1748444 16.67015,24.7542258 C15.3423149,20.0707207 16.7495314,19.3772155 17.9474696,19.4861846 C17.7223149,18.8590712 17.5483974,18.2146382 17.4278819,17.5593805 C16.9595314,15.5293805 16.9595314,13.4192774 17.4278819,11.3892774 C18.0275727,8.99267945 19.2760263,6.80752481 21.0361294,5.0748444 C22.0283974,4.01979285 23.1483974,3.09391656 24.37015,2.31814336 C25.3667479,1.61525677 26.4578819,1.05670007 27.6103562,0.6576279 C28.5528304,0.326390787 29.5364386,0.12649388 30.5330366,0.0665969726 C33.105717,-0.204021584 35.6978819,0.354535117 37.9306654,1.66144233 C39.4150984,2.42783409 40.6628304,3.58608151 41.5389129,5.00989594 C41.5389129,5.00989594 47.499016,5.42845264 45.479119,17.5593805 Z" id="ic_sales-professionals" fill="#0A96FA"></path>
                            <path d="M68.7371603,52.3349475 C69.5923149,53.0890712 69.6738613,54.3938135 68.9197376,55.2482465 C68.8634489,55.3131949 68.8021087,55.3738135 68.7371603,55.4308238 L68.1244799,55.965566 C67.459119,56.5501021 67.2411809,57.4940197 67.5832428,58.3109269 L67.8928304,59.0325764 C68.3337582,60.0840197 67.837985,61.2927825 66.7865417,61.7337104 C66.7078819,61.7669063 66.6263355,61.7950506 66.5433458,61.8181434 L65.7639644,62.0346382 C64.9080881,62.2727825 64.3011809,63.0312361 64.255717,63.9181434 L64.2131397,64.7256691 C64.1734489,65.837731 63.2605623,66.718865 62.1485005,66.7181434 C62.0258201,66.7289681 61.9031397,66.7289681 61.7804592,66.7181434 L60.9794283,66.5738135 C60.1098407,66.4215454 59.2395314,66.8386588 58.8144799,67.6122671 L58.4247891,68.3339166 C57.8770572,69.3341227 56.623552,69.7007207 55.6233458,69.1537104 C55.546851,69.1111331 55.4717995,69.0642258 55.4017995,69.0129887 L54.7443768,68.5367001 C54.0241706,68.0185557 53.0542737,68.0185557 52.3347891,68.5367001 L51.6708716,69.0057722 C50.7399438,69.6631949 49.4517995,69.4423702 48.7936551,68.5114423 C48.742418,68.4392774 48.6955108,68.3627825 48.6536551,68.2841227 L48.2639644,67.5624733 C47.8432428,66.7830918 46.9722118,66.3587619 46.099016,66.508865 L45.2987067,66.6452568 C45.1810778,66.6553599 45.0620056,66.6553599 44.9443768,66.6452568 C43.8431397,66.6430918 42.9374696,65.7756691 42.8876757,64.6758753 L42.8515933,63.8676279 C42.8104592,62.9792774 42.205717,62.2179372 41.3505623,61.9769063 L40.5711809,61.7531949 C39.4749953,61.4414423 38.8385005,60.2997928 39.1502531,59.2036073 C39.1740675,59.1206176 39.2022118,59.0390712 39.2361294,58.9604114 L39.5543768,58.2387619 C39.9022118,57.4225764 39.6900469,56.4757722 39.026851,55.885463 L38.4206654,55.3442258 C37.5662324,54.5908238 37.4846861,53.2868032 38.2380881,52.4316485 C38.2950984,52.3667001 38.3564386,52.3053599 38.4206654,52.2483495 L39.0340675,51.7150506 C39.6994283,51.1297928 39.9173665,50.186597 39.5753046,49.3696898 L39.2649953,48.6480403 C38.8247891,47.596597 39.3198407,46.3871124 40.371284,45.9469063 C40.4506654,45.9137104 40.5314902,45.885566 40.6144799,45.8624733 L41.3938613,45.6459784 C42.2497376,45.4078341 42.8573665,44.6493805 42.9021087,43.7617516 L42.9454077,42.9542258 C43.0038613,41.815463 43.9737582,40.9393805 45.1117995,40.9971124 C45.1983974,41.002164 45.2849953,41.0115454 45.37015,41.0267001 L46.1719025,41.1717516 C47.0414902,41.3240197 47.9110778,40.9061846 48.336851,40.1325764 L48.7265417,39.4109269 C49.2728304,38.4107207 50.5277788,38.0441227 51.5272634,38.5911331 C51.6044799,38.6337104 51.6780881,38.6806176 51.7495314,38.7325764 L52.4062324,39.208865 C53.1264386,39.7262877 54.0970572,39.7262877 54.8165417,39.208865 L55.4804592,38.7397928 C56.4113871,38.0816485 57.6995314,38.3031949 58.3569541,39.2334011 C58.4089129,39.3062877 58.4558201,39.3827825 58.4976757,39.4614423 L58.8873665,40.1830918 C59.3080881,40.9624733 60.179119,41.3860815 61.0523149,41.2359784 L61.8526242,41.0995867 C62.9755108,40.9025764 64.0449953,41.6538135 64.2420056,42.7767001 C64.2564386,42.8611331 64.2665417,42.9470093 64.2708716,43.0336073 L64.3134489,43.7913392 C64.354583,44.6789681 64.9593252,45.44103 65.8144799,45.6820609 L66.5938613,45.9050506 C67.6893252,46.2211331 68.3222118,47.3642258 68.0061294,48.4596898 C67.9830366,48.5412361 67.9548922,48.6206176 67.9216964,48.6978341 L67.6041706,49.4194836 C67.2556139,50.2356691 67.4677788,51.1831949 68.1309747,51.7727825 L68.7371603,52.3349475 Z M58.9082943,49.7305145 C58.2162324,49.0413392 57.0969541,49.0413392 56.4041706,49.7305145 L51.9010778,54.1903083 L50.7399438,53.0356691 C50.0471603,52.3464939 48.9278819,52.3464939 48.2350984,53.0356691 C47.5466448,53.727731 47.5466448,54.8470093 48.2350984,55.5397928 L49.3969541,56.7016485 L50.6021087,57.956597 C51.2948922,58.6457722 52.4141706,58.6457722 53.1062324,57.956597 L54.3619025,56.708865 L58.8649953,52.2346382 C59.5664386,51.5534011 59.5852015,50.4348444 58.9082943,49.7305145 Z" id="Combined-Shape" fill="#0155FF"></path>
                            <g id="Path">
                                <use fill="#FFFFFF" fill-rule="evenodd" xlink:href="#path-1"></use>
                                <path stroke="#0A96FA" stroke-width="3" d="M21.9443439,64.6915051 L18.0841129,43.7868258 C12.8346252,46.6392716 7.85154168,49.9582249 3.21009636,53.6915385 C2.12192777,54.5955133 1.49455713,55.938366 1.50004688,57.3576279 L1.50004688,63.8524733 C1.50004688,64.3157587 1.8755474,64.6913392 2.33819121,64.6913392 L21.9443439,64.6915051 Z"></path>
                            </g>
                            <g id="Path-Copy-5">
                                <use fill="#FFFFFF" fill-rule="evenodd" xlink:href="#path-2"></use>
                                <path stroke="#0A96FA" stroke-width="3" d="M17.7160241,20.948099 C17.7195886,20.9420404 17.7297819,20.9380086 17.729369,20.9389255 C17.7290758,20.9395766 17.7287832,20.9402293 17.7284911,20.9408835 Z M17.7284911,20.9408835 C17.533745,21.3770949 17.5905875,22.5014829 18.1135794,24.3461677 C18.5320268,25.8263471 18.9429162,26.8423519 19.316154,27.4251172 C19.4019465,27.5590716 19.4751375,27.6536739 19.530677,27.7130087 L20.5088241,27.7964086 L20.7035361,28.9407606 C20.9667415,30.4876578 21.5099115,31.9728679 22.3064108,33.3229762 L22.5144799,33.6756643 L22.5144799,34.0851537 L22.5144733,37.7124634 C25.3250412,39.8488131 27.445177,41.4603973 28.8748856,42.5472199 C29.8921281,43.3205086 29.8921281,43.3205086 30.5397092,43.8128349 C30.627299,43.8788575 30.6973501,43.9316601 30.7555504,43.9757062 C30.9064842,43.9813067 31.0930733,43.9860289 31.3064483,43.9898166 C31.4904789,43.9930833 31.685684,43.9955188 31.8833439,43.9972378 C32.147745,43.8012191 32.6021189,43.4643605 33.7905091,42.583325 C36.4179793,40.6354005 36.4825289,40.5875455 40.3917995,37.6896387 L40.3917995,33.613156 L40.6044046,33.2576071 C41.3995458,31.9278576 41.9414788,30.4639367 42.2030806,28.9387858 L42.4014067,27.782535 L43.3835978,27.7102391 C43.4374562,27.6517012 43.5080412,27.5598268 43.5906174,27.4308769 C43.9633631,26.8488022 44.3741392,25.8309782 44.7923195,24.3475157 C45.3080383,22.516728 45.367132,21.3931438 45.1777926,20.9475471 C45.1965882,20.9529024 45.1973924,20.9700852 45.1035852,20.9791816 L42.7496345,21.2074435 L43.5465281,18.9807535 C43.7449236,18.4263945 43.8981074,17.8596303 43.9994901,17.3130104 C44.9158369,11.8096917 44.2206166,8.66959159 42.684445,7.20927606 C42.1493634,6.70061677 41.6581395,6.52196306 41.433832,6.50621075 L40.665183,6.45223128 L40.2613809,5.79596982 C39.5281071,4.60424886 38.4839919,3.63523424 37.1729346,2.95598628 C35.2165222,1.81084639 32.9448857,1.32117193 30.6230263,1.56389516 C29.7683648,1.61526149 28.921721,1.78668613 28.1011744,2.07505424 C27.080084,2.42863156 26.1149717,2.92308681 25.1742045,3.58443573 C24.0578789,4.29326619 23.0349105,5.13905488 22.0884296,6.14379912 C20.5250501,7.68282093 19.4158427,9.62401635 18.8894862,11.7264907 C18.47233,13.5345964 18.47233,15.4140615 18.9031378,17.2880504 C19.0087952,17.8625229 19.1613702,18.4282091 19.3592351,18.9793137 L20.1540573,21.1930974 L17.8115848,20.980017 C17.7209133,20.9717692 17.7104955,20.9574961 17.7160241,20.948099 Z M22.5144726,38.0973081 L22.5144725,38.1022123 C22.5144777,38.1005769 22.5144777,38.0989421 22.5144726,38.097308 Z M31.0799296,44.2289879 C31.0864376,44.2343344 31.0930625,44.2397908 31.0998388,44.2453842 L31.1030072,44.2412721 C31.0951965,44.2371144 31.0875047,44.23302 31.0799296,44.2289879 Z M30.4531618,43.9590106 C30.4531363,43.9590178 30.4537749,43.9591372 30.4545892,43.9592893 C30.4548431,43.9593152 30.4550992,43.9593411 30.4553575,43.9593671 Z M43.3294574,27.7637658 C43.326255,27.7658661 43.3233404,27.7679292 43.3207218,27.76994 C43.3280664,27.7643001 43.336132,27.7574528 43.3448833,27.7493704 Z M45.1777926,20.9475471 C45.1758409,20.9429538 45.1738628,20.9384326 45.1718585,20.9339834 C45.1717821,20.9338139 45.1799712,20.9373072 45.1855483,20.9425413 Z"></path>
                            </g>
                        </g>
                        <g id="Illustration_Key-Executives" transform="translate(0.000000, 12.000000)">
                            <ellipse id="Oval-3-Copy-2" fill="#FFD794" cx="84.1542289" cy="14" rx="1.99004975" ry="2"></ellipse>
                            <ellipse id="Oval-3-Copy-3" fill="#FFD794" cx="5.15422886" cy="44" rx="1.99004975" ry="2"></ellipse>
                            <ellipse id="Oval-3-Copy" fill="#B8E986" cx="64.1542289" cy="62" rx="1.99004975" ry="2"></ellipse>
                            <ellipse id="Oval-4" fill="#FBAAB4" cx="2.98507463" cy="3" rx="2.98507463" ry="3"></ellipse>
                        </g>
                    </g>
                </g>
            </g>
        </g>
    </g>
</svg>