<?xml version="1.0" encoding="UTF-8"?>
<svg width="66px" height="73px" viewBox="0 0 66 73" version="1.1" xmlns="http://www.w3.org/2000/svg" xmlns:xlink="http://www.w3.org/1999/xlink">
    <!-- Generator: sketchtool 58 (101010) - https://sketch.com -->
    <title>2DFBE57E-B2D1-46CA-B76B-D781DF41421B</title>
    <desc>Created with sketchtool.</desc>
    <defs>
        <path d="M44.5326904,10.7925752 L19.1109504,37.1327422 C18.1521136,38.1262195 16.5694502,38.1543012 15.5759729,37.1954644 C15.5535977,37.1738693 15.5316273,37.1518587 15.5100733,37.1294439 L3.46072244,24.598921 C1.52772386,22.5887311 1.52722836,19.4107925 3.4596,17.4 C5.29672274,15.4883218 8.33572633,15.4278827 10.2474045,17.2650054 C10.2926935,17.3085281 10.3371239,17.3529355 10.3806702,17.3982018 L17.3088,24.6 L17.3088,24.6 L37.611243,3.59040477 C39.4578061,1.67952428 42.5038159,1.62738469 44.4146964,3.47394774 C44.4573714,3.51518635 44.4992797,3.55721096 44.5404,3.6 C46.4717821,5.60976285 46.4683765,8.78695737 44.5326904,10.7925752 Z" id="path-1"></path>
        <filter x="-53.1%" y="-42.0%" width="206.2%" height="268.7%" filterUnits="objectBoundingBox" id="filter-2">
            <feMorphology radius="2.5" operator="dilate" in="SourceAlpha" result="shadowSpreadOuter1"></feMorphology>
            <feOffset dx="0" dy="23" in="shadowSpreadOuter1" result="shadowOffsetOuter1"></feOffset>
            <feGaussianBlur stdDeviation="4.5" in="shadowOffsetOuter1" result="shadowBlurOuter1"></feGaussianBlur>
            <feComposite in="shadowBlurOuter1" in2="SourceAlpha" operator="out" result="shadowBlurOuter1"></feComposite>
            <feColorMatrix values="0 0 0 0 0.860620471   0 0 0 0 0.860620471   0 0 0 0 0.860620471  0 0 0 0.5 0" type="matrix" in="shadowBlurOuter1"></feColorMatrix>
        </filter>
    </defs>
    <g id="Data-Search" stroke="none" stroke-width="1" fill="none" fill-rule="evenodd">
        <g id="Eventbright-Detail-_Download/Create" transform="translate(-775.000000, -179.000000)">
            <g id="Successfull_Message_Create" transform="translate(703.000000, 54.000000)">
                <g id="Content" transform="translate(81.000000, 114.000000)">
                    <g id="Group">
                        <g id="Assign-To">
                            <g id="ic_successfull" transform="translate(0.000000, 12.000000)">
                                <g id="Path">
                                    <use fill="black" fill-opacity="1" filter="url(#filter-2)" xlink:href="#path-1"></use>
                                    <use stroke="#FFFFFF" stroke-width="5" fill="#410093" fill-rule="evenodd" xlink:href="#path-1"></use>
                                </g>
                            </g>
                        </g>
                    </g>
                </g>
            </g>
        </g>
    </g>
</svg>