<?xml version="1.0" encoding="UTF-8"?>
<svg width="70px" height="69px" viewBox="0 0 70 69" version="1.1" xmlns="http://www.w3.org/2000/svg" xmlns:xlink="http://www.w3.org/1999/xlink">
    <!-- Generator: sketchtool 54.1 (76490) - https://sketchapp.com -->
    <title>2EFD7E0A-74E2-4FDF-AFB2-EA9F099ECBA0</title>
    <desc>Created with sketchtool.</desc>
    <defs>
        <linearGradient x1="101.999998%" y1="99.5532644%" x2="0%" y2="1.41836735%" id="linearGradient-1">
            <stop stop-color="#EF8196" offset="0%"></stop>
            <stop stop-color="#F5BB9B" offset="100%"></stop>
        </linearGradient>
        <rect id="path-2" x="0" y="0" width="70" height="69" rx="19.6"></rect>
        <linearGradient x1="0%" y1="42.2922888%" x2="150.469015%" y2="65.5870993%" id="linearGradient-4">
            <stop stop-color="#2523AE" offset="0%"></stop>
            <stop stop-color="#D76D6D" offset="100%"></stop>
        </linearGradient>
        <linearGradient x1="0%" y1="43.8594231%" x2="100%" y2="56.6667186%" id="linearGradient-5">
            <stop stop-color="#845EC2" offset="0%"></stop>
            <stop stop-color="#FF9671" offset="100%"></stop>
        </linearGradient>
        <path d="M68.109921,69 L2.35674563,69 C2.70535742,63.8760945 6.90847658,59.6974812 12.3703021,58.8169444 C14.0198472,49.943416 22.537123,43.1836735 32.7962963,43.1836735 C43.0949161,43.1836735 51.6382174,49.9954983 53.2410131,58.919394 C54.1116691,58.7403754 55.0177307,58.6458583 55.9481481,58.6458583 C62.4220649,58.6458583 67.7167992,63.2218853 68.109921,69 Z" id="path-6"></path>
    </defs>
    <g id="Page-1" stroke="none" stroke-width="1" fill="none" fill-rule="evenodd">
        <g id="Create-Campaign_Step-2D" transform="translate(-1045.000000, -200.000000)">
            <g id="Group" transform="translate(99.000000, 137.000000)">
                <g id="Opt-out-list" transform="translate(793.000000, 0.000000)">
                    <g id="Contacts" transform="translate(153.000000, 63.000000)">
                        <mask id="mask-3" fill="white">
                            <use xlink:href="#path-2"></use>
                        </mask>
                        <use id="main_pic-copy" fill="url(#linearGradient-1)" fill-rule="nonzero" xlink:href="#path-2"></use>
                        <path d="M36.3618469,64.3238095 C29.2285474,64.3238095 22.5319806,61.4285714 17.7279217,56.4 C12.7782854,51.0666667 10.0123121,44.2095238 10.0123121,36.7428571 C9.86673457,35.2190476 11.0313549,34 12.4871303,34 C13.9429057,34 15.107526,35.0666667 15.107526,36.5904762 C15.107526,42.5333333 17.2911891,48.1714286 21.3673603,52.4380952 C25.4435314,56.7047619 30.8299004,58.9904762 36.5074244,58.9904762 C42.039371,58.9904762 47.2801624,56.8571429 51.210756,52.8952381 L45.0964993,52.5904762 C43.6407239,52.5904762 42.6216811,51.3714286 42.6216811,49.847619 C42.6216811,48.3238095 43.7863015,47.1047619 45.2420769,47.2571429 L57.6161678,47.8666667 C58.3440555,48.0190476 59.0719432,48.3238095 59.5086758,48.9333333 C59.9454084,49.5428571 60.090986,50.3047619 59.9454084,51.0666667 L57.4705902,63.8666667 C57.1794352,65.0857143 56.1603924,66 54.9957721,66 C54.8501945,66 54.704617,66 54.5590394,66 C53.103264,65.6952381 52.2297988,64.1714286 52.5209539,62.8 L53.5399967,57.6190476 C48.7359378,61.8857143 42.7672587,64.3238095 36.3618469,64.3238095 Z M36.3809169,8.65106396 C43.2508386,8.65106396 49.8345136,11.5487011 54.4144614,16.5814392 C59.280656,21.9191918 62,28.7820165 62,36.2548701 C62,37.7799423 60.9981364,39 59.5669027,39 C58.135669,39 56.9906821,37.9324495 56.9906821,36.4073773 C56.9906821,30.4595959 54.8438315,24.8168289 50.8363772,20.5466268 C46.8289228,16.2764248 41.5333582,13.9888165 35.9515468,13.9888165 C31.0853522,13.9888165 26.2191577,15.8189031 22.4979501,19.1740619 L28.6522549,19.4790763 C30.0834886,19.4790763 31.0853522,20.699134 31.0853522,22.2242062 C31.0853522,23.7492784 29.9403653,24.8168289 28.6522549,24.8168289 C28.6522549,24.8168289 28.5091316,24.8168289 28.5091316,24.8168289 L16.3436452,24.2068 C15.6280283,24.0542928 14.9124115,23.7492784 14.4830414,23.1392495 C14.0536713,22.5292206 13.9105479,21.7666846 14.0536713,21.0041485 L16.4867685,8.19354231 C16.7730153,6.66847015 18.204249,5.75342685 19.4923593,6.05844129 C20.923593,6.36345572 21.7823332,7.88852788 21.4960865,9.26109283 L20.4942229,14.4463382 C25.0741707,10.6336578 30.5128587,8.65106396 36.3809169,8.65106396 Z" id="Combined-Shape-Copy-4" fill="#FFFFFF" fill-rule="nonzero" opacity="0.200000003" mask="url(#mask-3)"></path>
                        <g id="Combined-Shape" fill-rule="nonzero" mask="url(#mask-3)">
                            <use fill="url(#linearGradient-4)" xlink:href="#path-6"></use>
                            <use fill="url(#linearGradient-5)" xlink:href="#path-6"></use>
                        </g>
                        <path d="M36.092626,52.0188163 C31.7380934,52.0188163 27.6501649,50.3240445 24.7175205,47.3804934 C21.6960082,44.2585453 20.0075159,40.244612 20.0075159,35.8738847 C19.9186479,34.9818995 20.629592,34.2683113 21.5182721,34.2683113 C22.4069523,34.2683113 23.1178963,34.892701 23.1178963,35.7846861 C23.1178963,39.2634283 24.4509165,42.5637735 26.9392208,45.061332 C29.4275251,47.5588904 32.7156416,48.8968682 36.181494,48.8968682 C39.5584784,48.8968682 42.7577268,47.648089 45.1571631,45.3289275 L41.4247067,45.1505305 C40.5360265,45.1505305 39.9139505,44.4369423 39.9139505,43.5449572 C39.9139505,42.652972 40.6248946,41.9393838 41.5135747,42.0285824 L49.0673556,42.3853764 C49.5116957,42.4745749 49.9560357,42.652972 50.2226398,43.0097661 C50.4892438,43.3665601 50.5781118,43.8125527 50.4892438,44.2585453 L48.9784876,51.7512208 C48.8007516,52.4648089 48.1786755,53 47.4677314,53 C47.3788634,53 47.2899954,53 47.2011274,53 C46.3124473,52.821603 45.7792392,51.9296178 45.9569752,51.1268311 L46.5790513,48.0940815 C43.6464069,50.59164 40.0028185,52.0188163 36.092626,52.0188163 Z M36.092626,19.550556 C40.3582905,19.550556 44.446219,21.2453278 47.2899954,24.1888789 C50.3115078,27.310827 52,31.3247603 52,35.6954876 C52,36.5874728 51.3779239,37.3010609 50.4892438,37.3010609 C49.6005637,37.3010609 48.8896196,36.6766713 48.8896196,35.7846861 C48.8896196,32.305944 47.5565994,29.0055988 45.0682951,26.5080403 C42.5799908,24.0104818 39.2918744,22.6725041 35.826022,22.6725041 C32.8045096,22.6725041 29.7829972,23.7428863 27.4724289,25.7052537 L31.2937534,25.8836507 C32.1824335,25.8836507 32.8045096,26.5972388 32.8045096,27.489224 C32.8045096,28.3812092 32.0935655,29.0055988 31.2937534,29.0055988 C31.2937534,29.0055988 31.2048854,29.0055988 31.2048854,29.0055988 L23.6511044,28.6488047 C23.2067644,28.5596062 22.7624243,28.3812092 22.4958203,28.0244151 C22.2292162,27.6676211 22.1403482,27.2216285 22.2292162,26.7756359 L23.7399724,19.2829604 C23.9177084,18.3909752 24.8063886,17.8557841 25.6062007,18.0341812 C26.4948808,18.2125782 27.0280888,19.1045634 26.8503528,19.90735 L26.2282767,22.9400996 C29.0720531,20.7101367 32.4490375,19.550556 36.092626,19.550556 Z" id="Combined-Shape" fill="#FFFFFF" fill-rule="nonzero" mask="url(#mask-3)"></path>
                    </g>
                </g>
            </g>
        </g>
    </g>
</svg>