<?xml version="1.0" encoding="UTF-8"?>
<svg width="16px" height="16px" viewBox="0 0 16 16" version="1.1" xmlns="http://www.w3.org/2000/svg" xmlns:xlink="http://www.w3.org/1999/xlink">
    <!-- Generator: sketchtool 55 (78076) - https://sketchapp.com -->
    <title>DB685E74-7539-4D95-BB5C-2BF40ED68C4B</title>
    <desc>Created with sketchtool.</desc>
    <g id="Campaign-Flow_LOGIN-to-Send-" stroke="none" stroke-width="1" fill="none" fill-rule="evenodd">
        <g id="Campaigns_List-View" transform="translate(-115.000000, -482.000000)" fill="#1d1e1f" fill-rule="nonzero">
            <g id="Campaigns-Tabs" transform="translate(104.000000, 425.000000)">
                <g id="Campaigns">
                    <g id="ic_Sent-status" transform="translate(10.000000, 56.000000)">
                        <g id="Group">
                            <path d="M16.5395346,1.03607375 L1.15587335,9.34633241 C1.0552572,9.40654296 0.995570366,9.51689454 1.00025705,9.63404252 C1.00494374,9.7511905 1.07325534,9.85642299 1.17835997,9.90840605 L3.80367326,10.8948453 C3.9560966,10.9542751 4.07986433,11.069974 4.1494051,11.2180376 L6.18725535,15.4167276 C6.22660695,15.6022119 6.56952795,15.6499882 6.57233878,15.4616935 L6.26033688,11.9936992 C6.27903563,11.7360577 6.37724726,11.4905688 6.54141967,11.2911072 L14.5185494,3.47828368 C14.5649303,3.43404553 14.6299568,3.41516995 14.6928207,3.42769706 C14.7496376,3.44411957 14.7949891,3.48702473 14.8145271,3.54283868 C14.8340652,3.59865264 14.8253727,3.66047007 14.7911997,3.70873387 L7.91591454,12.1567006 C7.76664246,12.3604546 7.67008203,12.5979544 7.63483174,12.8480511 L7.238505,15.8439036 C7.27223494,16.1052678 7.47742538,16.2036307 7.6404534,15.9703702 L9.12175972,14.2307523 C9.16929377,14.162586 9.24227404,14.1164238 9.32424114,14.1026767 C9.40620825,14.0889296 9.49025929,14.1087554 9.55743805,14.1576827 L13.3745424,16.9399472 C13.4596569,17.0024992 13.5708208,17.0172766 13.6693254,16.9791336 C13.76783,16.9409907 13.8400417,16.8552066 13.8608156,16.7516525 L16.9920779,1.38174903 C17.0193739,1.26286363 16.9748627,1.13897741 16.8781419,1.0646355 C16.7814212,0.990293588 16.6502361,0.979135415 16.5423455,1.03607375 L16.5395346,1.03607375 Z" id="ic_sent"></path>
                        </g>
                    </g>
                </g>
            </g>
        </g>
    </g>
</svg>