<?xml version="1.0" encoding="UTF-8"?>
<svg width="24px" height="12px" viewBox="0 0 24 12" version="1.1" xmlns="http://www.w3.org/2000/svg" xmlns:xlink="http://www.w3.org/1999/xlink">
    <!-- Generator: Sketch 48.2 (47327) - http://www.bohemiancoding.com/sketch -->
    <title>asendind decending icon copy</title>
    <desc>Created with Sketch.</desc>
    <defs></defs>
    <g id="A_DG_Home_Company-NewList" stroke="none" stroke-width="1" fill="none" fill-rule="evenodd" transform="translate(-582.000000, -518.000000)">
        <g id="sorting-n-select-all" transform="translate(465.000000, 509.000000)" fill="#8D95A5">
            <g id="All-dropdown">
                <g id="asendind-decending-icon-copy" transform="translate(128.000000, 15.000000) scale(1, -1) rotate(-360.000000) translate(-128.000000, -15.000000) translate(113.000000, 0.000000)">
                    <path d="M29.7557801,15.5951403 C30.0828487,15.2704079 30.0808462,14.7430933 29.7531101,14.4193621 L26.478962,11.207624 C25.8498556,10.5781838 24.9060291,11.5220104 25.5354692,12.1514506 L27.4976718,14.1143205 C27.6291667,14.2454817 27.58578,14.3519459 27.4018874,14.3519459 L18.6674869,14.3519459 C18.2987004,14.3519459 18,14.6506463 18,15.0194328 C18,15.3878856 18.2987004,15.6869198 18.6674869,15.6869198 L27.4018874,15.6869198 C27.5861138,15.6869198 27.6318366,15.790714 27.4976718,15.9248789 L25.5354692,17.8874151 C24.9060291,18.5165216 25.8498556,19.4606819 26.478962,18.8312417 L29.7557801,15.5951403 Z" id="Fill-1" transform="translate(24.000000, 15.019412) rotate(270.000000) translate(-24.000000, -15.019412) "></path>
                    <path d="M4.7,10 L17.3,10 C17.6865993,10 18,10.3134007 18,10.7 C18,11.0865993 17.6865993,11.4 17.3,11.4 L4.7,11.4 C4.31340068,11.4 4,11.0865993 4,10.7 C4,10.3134007 4.31340068,10 4.7,10 Z M4.7,14.2 L14.5,14.2 C14.8865993,14.2 15.2,14.5134007 15.2,14.9 C15.2,15.2865993 14.8865993,15.6 14.5,15.6 L4.7,15.6 C4.31340068,15.6 4,15.2865993 4,14.9 C4,14.5134007 4.31340068,14.2 4.7,14.2 Z M4.7,18.4 L11.7,18.4 C12.0865993,18.4 12.4,18.7134007 12.4,19.1 C12.4,19.4865993 12.0865993,19.8 11.7,19.8 L4.7,19.8 C4.31340068,19.8 4,19.4865993 4,19.1 C4,18.7134007 4.31340068,18.4 4.7,18.4 Z" id="Combined-Shape"></path>
                </g>
            </g>
        </g>
    </g>
</svg>