<?xml version="1.0" encoding="UTF-8"?>
<svg width="60px" height="53px" viewBox="0 0 60 53" version="1.1" xmlns="http://www.w3.org/2000/svg" xmlns:xlink="http://www.w3.org/1999/xlink">
    <!-- Generator: sketchtool 49.3 (51167) - http://www.bohemiancoding.com/sketch -->
    <title>7F1F7E7F-3666-48E7-898F-A88F47AC69C2</title>
    <desc>Created with sketchtool.</desc>
    <defs></defs>
    <g id="Secondary-Screens" stroke="none" stroke-width="1" fill="none" fill-rule="evenodd">
        <g id="Career" transform="translate(-596.000000, -831.000000)">
            <g id="About-Dataguru_dark" transform="translate(0.000000, 339.000000)">
                <g id="Benefits" transform="translate(203.000000, 414.000000)">
                    <g id="2" transform="translate(393.000000, 78.000000)">
                        <g id="ic_salaryy">
                            <path d="M37.3866114,40.4206991 C37.7675667,40.4206991 38.0614466,40.713024 38.0614466,41.0955343 C38.0614466,41.4764896 37.7675667,41.7688145 37.3866114,41.7688145 C37.0056561,41.7688145 36.7148861,41.4764896 36.7148861,41.0955343 C36.7148861,40.713024 37.0056561,40.4206991 37.3866114,40.4206991 Z M37.3866114,38.8657793 C36.1644445,38.8657793 35.1599663,39.8733673 35.1599663,41.0955343 C35.1599663,42.3177012 36.1644445,43.3237343 37.3866114,43.3237343 C38.6087783,43.3237343 39.6163664,42.3177012 39.6163664,41.0955343 C39.6163664,39.8733673 38.6087783,38.8657793 37.3866114,38.8657793 Z M13.4828298,27.9533524 C12.5747567,27.9533524 11.755314,28.1928101 11.1831035,28.7650205 C10.612448,29.337231 10.3729903,30.1566737 10.3729903,31.0631919 L10.3729903,33.3955716 C10.3574411,34.4482523 11.9434593,34.4482523 11.9279101,33.3955716 L11.9279101,31.0631919 C11.9279101,30.4163453 12.0771824,30.0695982 12.2824318,29.8643488 C12.4892361,29.6590994 12.8344283,29.5082722 13.4828298,29.5082722 L34.4742467,29.5082722 C35.5253724,29.5238214 35.5253724,27.9393581 34.4742467,27.9533524 L13.4828298,27.9533524 Z M40.2772073,24.5185346 C40.3549532,24.6911307 40.4342541,24.8621719 40.4871214,25.0440975 L40.2772073,25.0440975 L40.2772073,24.5185346 Z M17.9889873,24.1189203 L17.9889873,25.0440975 L17.5769336,25.0440975 C17.6733386,24.7175644 17.8163912,24.4096903 17.9889873,24.1189203 Z M31.3644072,23.8017166 L31.3644072,25.0440975 L30.5869473,25.0440975 L30.5869473,24.1764523 C30.8668328,24.1158104 31.1311692,23.9851972 31.3644072,23.8017166 Z M29.137762,18.9830203 C30.0940377,18.9830203 31.0487584,19.3235477 31.8168888,19.996828 C33.2754035,21.2796368 33.595717,23.3818883 32.6487709,25.0440975 L32.141867,25.0440975 L32.141867,21.3573828 L32.1325375,21.3573828 L31.3550776,21.3573828 L31.3550776,22.147282 C31.3550776,22.8734295 31.0129953,23.2419455 30.5869473,23.3741137 L30.5869473,21.3573828 L29.8094874,21.3573828 L29.8094874,23.3741137 C29.3834394,23.2419455 29.0382472,22.8749845 29.0382472,22.147282 L29.0382472,21.8984948 L29.0382472,21.3636024 L28.2607873,21.3636024 L28.2607873,21.5828461 L25.922188,23.9572086 L26.4741845,24.5045404 L28.3120997,22.6417465 C28.4893605,23.4860679 29.1175481,24.02718 29.8094874,24.1764523 L29.8094874,25.0440975 L25.6158688,25.0440975 C24.6720325,23.3803334 24.9985656,21.2765269 26.4601902,19.996828 C27.2283206,19.3235477 28.1830413,18.9830203 29.137762,18.9830203 Z M40.2772073,10.8072521 L45.9169012,12.3201891 C45.9744333,13.057221 46.3025213,13.6278766 46.910495,14.0508148 C45.9277857,17.7157607 44.9466313,21.3791516 43.963922,25.0440975 L42.0669199,25.0440975 C41.8181327,23.8514741 41.2008296,22.767695 40.2772073,21.9622465 L40.2772073,16.1312974 C40.7887759,15.8762906 41.1246385,15.3553925 41.1013147,14.7738525 C41.0779909,14.2311855 40.7499029,13.7631546 40.2772073,13.5283617 L40.2772073,10.8072521 Z M17.9889873,10.7497201 L17.9889873,13.445951 C17.4090023,13.6309864 16.9891739,14.1565493 16.9627403,14.7738525 C16.9363066,15.4315835 17.356135,16.0348924 17.9827676,16.2339221 L17.9889873,16.2339221 L17.9889873,21.7865406 C17.9609988,21.8036447 17.9330102,21.8223038 17.9081315,21.8440726 C16.9129828,22.6604055 16.2583616,23.7970519 15.9971351,25.0440975 L14.0985781,25.0440975 C13.1174237,21.3791516 12.1362693,17.7126508 11.15356,14.0477049 C11.7615337,13.6247668 12.0880668,13.0541112 12.1471538,12.3170792 C14.0939133,11.7946262 16.0422278,11.2721732 17.9889873,10.7497201 Z M29.1346522,9.92094788 C28.3727415,9.92094788 27.7538835,10.5413609 27.7538835,11.3048265 C27.7538835,12.069847 28.3727415,12.6809305 29.1346522,12.6809305 C29.8981178,12.6809305 30.5169759,12.069847 30.5169759,11.3048265 C30.5169759,10.5413609 29.8981178,9.92094788 29.1346522,9.92094788 Z M40.2772073,8.02239084 L41.3827552,8.31938052 L43.5518683,8.90092051 L45.7225363,9.48090559 L47.8916493,10.0640005 L50.0592075,10.6439856 C50.3966251,10.7341709 50.5769958,11.0482647 50.4883654,11.3841274 L46.8280842,25.0440975 L45.5779287,25.0440975 C46.5621929,21.3682672 47.5464572,17.6924369 48.5322763,14.0181615 C48.6442305,13.5952233 48.3861138,13.1629556 47.9616207,13.0603309 C47.5262432,12.9561513 47.1794961,12.3388481 47.3085544,11.9065804 C47.432948,11.488307 47.1872707,11.0482647 46.7643325,10.9347556 C44.604549,10.3563254 42.4401006,9.77634034 40.2772073,9.19791019 L40.2772073,8.02239084 Z M17.9889873,7.96485881 L17.9889873,9.14037816 C15.7592324,9.73746735 13.5279225,10.3345565 11.2997225,10.9316457 C10.8767843,11.0451549 10.631107,11.4851972 10.7555006,11.9034706 C10.8845589,12.3357383 10.5378118,12.9530414 10.1024343,13.057221 C9.67638625,13.1598458 9.41982449,13.5921134 9.53177872,14.0150516 C10.5175978,17.690882 11.5018621,21.3682672 12.4861263,25.0440975 L11.2390806,25.0440975 L7.57568965,11.3810175 C7.48705922,11.0451549 7.66742992,10.7310611 8.0048475,10.6408757 L10.1724057,10.0608907 L12.3415187,9.47779575 L14.5121867,8.89781067 L16.6812998,8.3178256 L17.9889873,7.96485881 Z M23.7142019,7.24493096 L34.5535476,7.24493096 C34.8069995,7.93687026 35.2719205,8.40334619 35.9591951,8.65990795 L35.9591951,25.0440975 L34.3654023,25.0440975 C35.184845,22.8967533 34.6328485,20.4011071 32.8431358,18.8275283 C31.7857904,17.9007961 30.4609988,17.43743 29.137762,17.43743 C27.8160802,17.43743 26.4928435,17.902351 25.4354981,18.8275283 C23.6442305,20.3979973 23.0829045,22.8951984 23.8992374,25.0440975 L22.3116643,25.0440975 L22.3116643,8.65990795 C22.9989388,8.40334619 23.46075,7.93531534 23.7142019,7.24493096 Z M20.1487709,4.55491977 L38.1189786,4.55491977 C38.4672806,4.55491977 38.7222875,4.81148153 38.7222875,5.15822864 L38.7222875,25.0440975 L37.5141148,25.0440975 L37.5141148,8.2074263 C37.5141148,7.77826844 37.1658128,7.42996641 36.7366549,7.42996641 C36.2048724,7.42996641 35.786599,7.01324792 35.786599,6.46747108 C35.786599,6.03831322 35.4382969,5.6900112 35.0091391,5.6900112 L23.2586104,5.6900112 C22.8294526,5.6900112 22.4811505,6.03831322 22.4811505,6.46747108 C22.4811505,7.01324792 22.064432,7.42996641 21.5342044,7.42996641 C21.1034916,7.42996641 20.7567445,7.77826844 20.7567445,8.2074263 L20.7567445,25.0440975 L19.5439071,25.0440975 L19.5439071,5.15822864 C19.5439071,4.81148153 19.8004689,4.55491977 20.1487709,4.55491977 Z M20.1487709,3 C18.9654769,3 17.9889873,3.97648961 17.9889873,5.15822864 L17.9889873,6.35551686 L16.2770207,6.81421819 L14.1079076,7.39420326 L11.9403494,7.97729817 L9.76812652,8.55728324 L7.60056837,9.14037816 C6.45770234,9.44669735 5.76731796,10.6393208 6.07208224,11.7821868 L9.69504529,25.2991044 C8.42467584,25.810673 7.51504778,27.0375047 7.51504778,28.4726956 C7.50260842,31.9432765 7.5243773,36.9656674 7.5243773,40.4238089 L22,46.0246299 C21.9891156,42.5664884 23.4084588,32.3987821 32.4637354,34 C38.1189786,35 46.0786129,34 47.1779412,34 L47.1779412,26.5990173 C48.2772694,26.5990173 49.118481,27.4324543 49.118481,28.4726956 L49.118481,36.1726583 L34.7650167,36.1726583 L32.4637354,38.4288469 L32.4637354,40.5606419 L32.4637354,43.7668864 L34.7650167,46.0246299 L49.118481,46.0246299 L49.118481,49.5714019 C49.118481,50.6116432 48.2772694,51.4450802 47.1779412,51.4450802 L11.0136173,51.4450802 C9.91428898,51.4450802 9.32324549,50.5719168 9.06996754,49.5714019 C7.60056837,43.7668864 38.1189786,50.150454 38.1189786,48 L22,46.0246299 L7.5243773,40.4082597 L7.5243773,43.1231496 C7.51815762,45.2720488 7.51504778,47.4131733 7.51504778,49.5714019 C7.51504778,51.4668491 9.10106594,53 11.0136173,53 L47.1779412,53 C49.0904925,53 50.6734008,51.4668491 50.6734008,49.5714019 L50.6734008,28.4726956 C50.6734008,26.9955218 49.7077956,25.7484762 48.3767843,25.2664511 L51.9919728,11.7852967 C52.298292,10.6424307 51.6063527,9.44980719 50.4634866,9.143488 L48.2959285,8.56039308 L46.1237056,7.98040801 L43.9561474,7.3973131 L41.7870343,6.81732803 L40.2772073,6.41304889 L40.2772073,5.15822864 C40.2772073,3.97648961 39.3007176,3 38.1189786,3 L20.1487709,3 Z" id="ic_salary" fill="#0155FF"></path>
                            <g id="Illustration_Key-Executives">
                                <ellipse id="Oval-3-Copy-2" fill="#FFD794" cx="57.9900498" cy="16" rx="1.99004975" ry="2"></ellipse>
                                <ellipse id="Oval-3-Copy-3" fill="#FFD794" cx="1.99004975" cy="42" rx="1.99004975" ry="2"></ellipse>
                                <ellipse id="Oval-3-Copy" fill="#B8E986" cx="53.9900498" cy="50" rx="1.99004975" ry="2"></ellipse>
                                <ellipse id="Oval-4" fill="#FBAAB4" cx="2.98507463" cy="3" rx="2.98507463" ry="3"></ellipse>
                            </g>
                        </g>
                    </g>
                </g>
            </g>
        </g>
    </g>
</svg>