<?xml version="1.0" encoding="UTF-8"?>
<svg width="88px" height="88px" viewBox="0 0 88 88" version="1.1" xmlns="http://www.w3.org/2000/svg" xmlns:xlink="http://www.w3.org/1999/xlink">
    <!-- Generator: Sketch 48.2 (47327) - http://www.bohemiancoding.com/sketch -->
    <title>ic_SI_F</title>
    <desc>Created with Sketch.</desc>
    <defs>
        <circle id="path-1" cx="30" cy="30" r="30"></circle>
        <filter x="-36.7%" y="-30.0%" width="173.3%" height="173.3%" filterUnits="objectBoundingBox" id="filter-2">
            <feMorphology radius="2" operator="dilate" in="SourceAlpha" result="shadowSpreadOuter1"></feMorphology>
            <feOffset dx="0" dy="4" in="shadowSpreadOuter1" result="shadowOffsetOuter1"></feOffset>
            <feGaussianBlur stdDeviation="6" in="shadowOffsetOuter1" result="shadowBlurOuter1"></feGaussianBlur>
            <feComposite in="shadowBlurOuter1" in2="SourceAlpha" operator="out" result="shadowBlurOuter1"></feComposite>
            <feColorMatrix values="0 0 0 0 0.504164577   0 0 0 0 0.0481250286   0 0 0 0 0.905479379  0 0 0 1 0" type="matrix" in="shadowBlurOuter1"></feColorMatrix>
        </filter>
    </defs>
    <g id="DG_NewFeatures-Copy" stroke="none" stroke-width="1" fill="none" fill-rule="evenodd" transform="translate(-226.000000, -3019.000000)">
        <g id="5" transform="translate(240.000000, 2702.000000)">
            <g id="content" transform="translate(0.000000, 327.000000)">
                <g id="ic_SI_F">
                    <g id="Oval">
                        <use fill="black" fill-opacity="1" filter="url(#filter-2)" xlink:href="#path-1"></use>
                        <use fill="#FEC505" fill-rule="evenodd" xlink:href="#path-1"></use>
                        <circle stroke="#FFFFFF" stroke-width="2" cx="30" cy="30" r="31"></circle>
                    </g>
                    <path d="M30.6122449,13.4693878 C29.1015214,13.4693878 27.8571429,14.7137663 27.8571429,16.2244898 C27.8571429,17.413894 28.6285085,18.4398283 29.6938776,18.8217474 L29.6938776,20.4145408 C26.8691146,20.6813982 24.4065144,22.1682698 22.8204719,24.346301 L21.3998724,23.4853316 C21.4165895,23.3637031 21.4285714,23.2381384 21.4285714,23.1122449 C21.4285714,21.6015214 20.1841924,20.3571429 18.6734694,20.3571429 C17.1627459,20.3571429 15.9183673,21.6015214 15.9183673,23.1122449 C15.9183673,24.6229684 17.1627459,25.8673469 18.6734694,25.8673469 C19.3997786,25.8673469 20.0587521,25.5733895 20.5532526,25.106824 L21.8877551,25.9103954 C21.3016737,27.1540347 20.9693878,28.5370463 20.9693878,30 C20.9693878,31.4583572 21.3051323,32.8346189 21.8877551,34.0752551 L20.5389031,34.8788265 C20.0459878,34.4204795 19.3925157,34.1326531 18.6734694,34.1326531 C17.1627459,34.1326531 15.9183673,35.3770408 15.9183673,36.8877551 C15.9183673,38.3984694 17.1627459,39.6428571 18.6734694,39.6428571 C20.1841924,39.6428571 21.4285714,38.3984694 21.4285714,36.8877551 C21.4285714,36.7567583 21.4179478,36.6266729 21.3998724,36.5003189 L22.8204719,35.6393495 C24.4062393,37.8223973 26.8651234,39.3182248 29.6938776,39.5854592 L29.6938776,41.1782526 C28.6285085,41.560174 27.8571429,42.5861134 27.8571429,43.7755102 C27.8571429,45.2862245 29.1015214,46.5306122 30.6122449,46.5306122 C32.1229679,46.5306122 33.3673469,45.2862245 33.3673469,43.7755102 C33.3673469,42.5861134 32.5959813,41.560174 31.5306122,41.1782526 L31.5306122,39.5854592 C34.3593669,39.3182248 36.8182505,37.8223973 38.4040179,35.6393495 L39.8246173,36.5003189 C39.806542,36.6266729 39.7959184,36.7567583 39.7959184,36.8877551 C39.7959184,38.3984694 41.0402974,39.6428571 42.5510204,39.6428571 C44.0617439,39.6428571 45.3061224,38.3984694 45.3061224,36.8877551 C45.3061224,35.3770408 44.0617439,34.1326531 42.5510204,34.1326531 C41.8319741,34.1326531 41.178502,34.4204795 40.6855867,34.8788265 L39.3367347,34.0752551 C39.9193575,32.8346189 40.255102,31.4583572 40.255102,30 C40.255102,28.5370463 39.9228161,27.1540347 39.3367347,25.9103954 L40.6712372,25.106824 C41.1657377,25.5733895 41.8247112,25.8673469 42.5510204,25.8673469 C44.0617439,25.8673469 45.3061224,24.6229684 45.3061224,23.1122449 C45.3061224,21.6015214 44.0617439,20.3571429 42.5510204,20.3571429 C41.0402974,20.3571429 39.7959184,21.6015214 39.7959184,23.1122449 C39.7959184,23.2381384 39.8079003,23.3637031 39.8246173,23.4853316 L38.4040179,24.346301 C36.8179754,22.1682698 34.3553752,20.6813982 31.5306122,20.4145408 L31.5306122,18.8217474 C32.5959813,18.4398283 33.3673469,17.413894 33.3673469,16.2244898 C33.3673469,14.7137663 32.1229679,13.4693878 30.6122449,13.4693878 Z M30.6122449,15.3061224 C31.1303235,15.3061224 31.5306122,15.7064112 31.5306122,16.2244898 C31.5306122,16.7425684 31.1303235,17.1428571 30.6122449,17.1428571 C30.0941663,17.1428571 29.6938776,16.7425684 29.6938776,16.2244898 C29.6938776,15.7064112 30.0941663,15.3061224 30.6122449,15.3061224 Z M18.6734694,22.1938776 C19.191548,22.1938776 19.5918367,22.5941663 19.5918367,23.1122449 C19.5918367,23.6303235 19.191548,24.0306122 18.6734694,24.0306122 C18.1553908,24.0306122 17.755102,23.6303235 17.755102,23.1122449 C17.755102,22.5941663 18.1553908,22.1938776 18.6734694,22.1938776 Z M42.5510204,22.1938776 C43.069099,22.1938776 43.4693878,22.5941663 43.4693878,23.1122449 C43.4693878,23.6303235 43.069099,24.0306122 42.5510204,24.0306122 C42.0329418,24.0306122 41.6326531,23.6303235 41.6326531,23.1122449 C41.6326531,22.5941663 42.0329418,22.1938776 42.5510204,22.1938776 Z M27.3549107,22.911352 C27.1805949,23.1756187 27.0140036,23.4496719 26.8670281,23.7436224 C26.1429234,25.1918313 25.6948791,27.0395363 25.5899235,29.0816327 L22.8635204,29.0816327 C23.1838552,26.3228301 24.9320868,24.0223024 27.3549107,22.911352 Z M33.8695791,22.911352 C36.2924034,24.0223024 38.0406346,26.3228301 38.3609694,29.0816327 L35.6345663,29.0816327 C35.5296107,27.0395363 35.0815664,25.1918313 34.3574617,23.7436224 C34.2104862,23.4496719 34.0438948,23.1756187 33.8695791,22.911352 Z M29.6938776,23.026148 L29.6938776,29.0816327 L27.4266582,29.0816327 C27.5342059,27.2913843 27.9482945,25.6993932 28.5172194,24.5615434 C28.8857786,23.8244245 29.2953231,23.3311704 29.6938776,23.026148 Z M31.5306122,23.026148 C31.9291667,23.3311704 32.3387112,23.8244245 32.7072704,24.5615434 C33.2761953,25.6993932 33.6902839,27.2913843 33.7978316,29.0816327 L31.5306122,29.0816327 L31.5306122,23.026148 Z M22.8635204,30.9183673 L25.5899235,30.9183673 C25.6948791,32.9604637 26.1429234,34.8081765 26.8670281,36.2563776 C27.0140036,36.5503267 27.1805949,36.8243818 27.3549107,37.088648 C24.9320868,35.9776962 23.1838552,33.677158 22.8635204,30.9183673 Z M27.4266582,30.9183673 L29.6938776,30.9183673 L29.6938776,36.973852 C29.2953231,36.6688237 28.8857786,36.1755755 28.5172194,35.4384566 C27.9482945,34.3006068 27.5342059,32.7085973 27.4266582,30.9183673 Z M31.5306122,30.9183673 L33.7978316,30.9183673 C33.6902839,32.7085973 33.2761953,34.3006068 32.7072704,35.4384566 C32.3387112,36.1755755 31.9291667,36.6688237 31.5306122,36.973852 L31.5306122,30.9183673 Z M35.6345663,30.9183673 L38.3609694,30.9183673 C38.0406346,33.677158 36.2924034,35.9776962 33.8695791,37.088648 C34.0438948,36.8243818 34.2104862,36.5503267 34.3574617,36.2563776 C35.0815664,34.8081765 35.5296107,32.9604637 35.6345663,30.9183673 Z M18.6734694,35.9693878 C19.191548,35.9693878 19.5918367,36.3696582 19.5918367,36.8877551 C19.5918367,37.405852 19.191548,37.8061224 18.6734694,37.8061224 C18.1553908,37.8061224 17.755102,37.405852 17.755102,36.8877551 C17.755102,36.3696582 18.1553908,35.9693878 18.6734694,35.9693878 Z M42.5510204,35.9693878 C43.069099,35.9693878 43.4693878,36.3696582 43.4693878,36.8877551 C43.4693878,37.405852 43.069099,37.8061224 42.5510204,37.8061224 C42.0329418,37.8061224 41.6326531,37.405852 41.6326531,36.8877551 C41.6326531,36.3696582 42.0329418,35.9693878 42.5510204,35.9693878 Z M30.6122449,42.8571429 C31.1303235,42.8571429 31.5306122,43.2574133 31.5306122,43.7755102 C31.5306122,44.2936071 31.1303235,44.6938776 30.6122449,44.6938776 C30.0941663,44.6938776 29.6938776,44.2936071 29.6938776,43.7755102 C29.6938776,43.2574133 30.0941663,42.8571429 30.6122449,42.8571429 Z" id="ic_social" fill="#FFFFFF" fill-rule="nonzero"></path>
                </g>
            </g>
        </g>
    </g>
</svg>