<?xml version="1.0" encoding="UTF-8"?>
<svg width="60px" height="55px" viewBox="0 0 60 55" version="1.1" xmlns="http://www.w3.org/2000/svg" xmlns:xlink="http://www.w3.org/1999/xlink">
    <!-- Generator: sketchtool 49.3 (51167) - http://www.bohemiancoding.com/sketch -->
    <title>5E135B03-F229-42A1-9BF5-4EB10AD8C8AC</title>
    <desc>Created with sketchtool.</desc>
    <defs></defs>
    <g id="Secondary-Screens" stroke="none" stroke-width="1" fill="none" fill-rule="evenodd">
        <g id="About" transform="translate(-656.000000, -868.000000)">
            <g id="About-Dataguru_dark" transform="translate(-1.000000, 165.000000)">
                <g id="Our-Aim" transform="translate(172.000000, 677.000000)">
                    <g id="2" transform="translate(382.000000, 26.000000)">
                        <g id="ic_2" transform="translate(103.000000, 0.000000)">
                            <path d="M43.3102,35.0985 L45.8202,35.0985 C46.4722,35.0985 47.0252,35.6505 47.0252,36.3035 C47.0252,36.9555 46.4982,37.5085 45.8202,37.5085 L43.3102,37.5085 C42.8082,39.7425 40.9002,41.4495 38.5912,41.7005 C38.4152,41.7245 38.2142,41.7245 38.0132,41.7245 L36.7082,41.7245 L40.5242,45.5655 L43.0592,48.1255 C43.5362,48.6025 43.5362,49.3555 43.0592,49.8315 C42.8322,50.0585 42.5062,50.1835 42.2062,50.1835 C41.9042,50.1835 41.5782,50.0585 41.3522,49.8315 L32.8932,41.3735 C32.5672,41.0225 32.4662,40.4945 32.6422,40.0425 C32.8432,39.5915 33.2702,39.2895 33.7722,39.2895 L37.3862,39.2895 L37.9892,39.2895 C39.2182,39.2895 40.2732,38.5365 40.7492,37.4835 L36.4832,37.4835 L33.2192,37.4835 C32.5672,37.4835 32.0152,36.9315 32.0152,36.2785 C32.0152,35.6255 32.5412,35.0735 33.2192,35.0735 L33.2192,35.0985 L35.2782,35.0985 L40.7752,35.0985 C40.2972,34.0445 39.2442,33.2915 38.0132,33.2915 L34.3742,33.2915 L33.7722,33.2915 L33.2192,33.2915 C32.5672,33.2915 32.0152,32.7395 32.0152,32.0865 C32.0152,31.4335 32.5412,30.8815 33.2192,30.8815 L33.7722,30.8815 L38.0132,30.8815 L45.8202,30.8815 C46.4722,30.8815 47.0252,31.4335 47.0252,32.0865 C47.0252,32.7395 46.4982,33.2915 45.8202,33.2915 L42.5322,33.2915 C42.8832,33.8435 43.1592,34.4465 43.3102,35.0985 M39.1592,24.2755 C30.9132,24.2755 24.2342,30.9545 24.2342,39.2005 C24.2342,47.4465 30.9132,54.1245 39.1592,54.1245 C47.3942,54.1245 54.0832,47.4465 54.0832,39.2005 C54.0832,30.9545 47.3942,24.2755 39.1592,24.2755" id="Fill-1" fill="#0155FF"></path>
                            <path d="M7.8053,31.6772 C7.6093,31.2442 7.1763,30.4882 6.4193,30.2772 C6.2503,30.2372 6.0683,30.2172 5.8793,30.2172 C5.4053,30.2172 4.7433,30.3662 4.2973,30.7912 C3.7223,31.3392 3.6353,32.3662 3.8853,33.0022 C4.6013,34.8552 5.6763,36.6192 7.0823,38.2482 C10.5113,42.2232 14.8703,44.5762 20.0493,45.2382 C20.7453,45.3262 21.4493,45.3732 22.1523,45.3872 C21.6653,44.0492 21.3273,42.6352 21.1723,41.1762 C15.3433,40.6882 10.1843,37.0722 7.8053,31.6772" id="Fill-3" fill="#0155FF"></path>
                            <g id="Group-7" transform="translate(2.000000, 4.125100)" fill="#0155FF">
                                <path d="M37.5592,10.2923 C34.8892,6.0333 30.7112,2.9633 25.7892,1.6523 C23.8492,1.1313 21.9362,0.8753 20.0982,0.8753 C14.8652,0.8753 10.1122,2.9573 5.9682,7.0743 C4.5952,8.4403 3.4532,10.0153 2.5262,11.8473 L2.4792,11.8003 C2.4732,11.8003 2.4662,11.7873 2.4582,11.7793 C2.2832,11.6573 1.7282,11.2043 0.7352,10.3593 L0.7212,10.3463 C0.5592,10.2513 0.4162,10.2713 0.3432,10.2923 C0.3152,10.2983 0.2812,10.3123 0.2612,10.3263 C0.1202,10.4003 0.0252,10.5353 0.0052,10.6913 C-0.0018,10.7183 -0.0018,10.7593 0.0052,10.8063 L0.2272,12.4623 L1.0382,18.4663 L1.1542,19.2983 C1.1882,19.5823 1.3502,19.8253 1.6002,19.9533 C1.6342,19.9733 1.6682,19.9943 1.7012,20.0073 L1.7352,20.0273 C1.8162,20.0613 1.8972,20.0813 1.9852,20.0883 C2.2072,20.1083 2.4382,20.0413 2.6272,19.8983 L4.4052,18.5063 L8.6042,15.2273 L9.3812,14.6193 C9.5572,14.4773 9.6042,14.2203 9.4972,14.0173 C9.4292,13.9093 9.3212,13.8283 9.1852,13.8013 L9.1652,13.7943 C7.9082,13.7003 7.1642,13.6393 6.9412,13.6053 C6.9412,13.6053 6.8262,13.6053 6.6302,13.5913 C6.5422,13.5853 6.4402,13.5783 6.3182,13.5643 C6.7652,12.7123 7.2862,11.9213 7.9072,11.1713 C11.2342,7.1213 15.4732,5.0723 20.5172,5.0723 C20.9562,5.0723 21.4152,5.0863 21.8682,5.1203 C28.4392,5.5663 34.2602,10.5283 35.9572,17.0253 C36.3572,16.9983 36.7552,16.9853 37.1622,16.9853 C38.2222,16.9853 39.2642,17.0723 40.2712,17.2553 C39.8112,14.7943 38.8982,12.4283 37.5592,10.2923" id="Fill-5"></path>
                            </g>
                            <path d="M22.3268,27.6679 C21.3878,27.6679 20.6168,26.9039 20.6168,25.9579 C20.6168,25.0189 21.3878,24.2539 22.3268,24.2539 C23.2728,24.2539 24.0368,25.0189 24.0368,25.9579 C24.0368,26.9039 23.2728,27.6679 22.3268,27.6679 M24.5718,22.7519 L24.0778,14.6739 C24.0718,13.7209 23.2858,12.9429 22.3268,12.9429 C21.3668,12.9429 20.5898,13.7199 20.5768,14.6739 L20.0828,22.7519 C19.0478,23.4829 18.4128,24.6869 18.4128,25.9569 C18.4128,26.1469 18.4268,26.3349 18.4538,26.5319 L14.5788,30.9189 C14.2478,31.2369 14.0588,31.6559 14.0388,32.1159 C14.0178,32.5829 14.1808,33.0279 14.4978,33.3739 C14.8288,33.7319 15.3028,33.9409 15.7898,33.9409 C16.2228,33.9409 16.6348,33.7789 16.9528,33.4949 L21.4618,29.7829 C21.7458,29.8439 22.0358,29.8769 22.3268,29.8769 C22.8608,29.8769 23.3748,29.7689 23.8408,29.5729 C25.0648,29.0589 25.9778,27.9369 26.1938,26.5849 C26.2278,26.3819 26.2478,26.1719 26.2478,25.9559 C26.2478,24.6869 25.6128,23.4829 24.5718,22.7519" id="Fill-8" fill="#0155FF"></path>
                            <g id="Illustration_Key-Executives">
                                <ellipse id="Oval-3-Copy-2" fill="#FFD794" cx="57.9900498" cy="16" rx="1.99004975" ry="2"></ellipse>
                                <ellipse id="Oval-3-Copy-3" fill="#FFD794" cx="1.99004975" cy="42" rx="1.99004975" ry="2"></ellipse>
                                <ellipse id="Oval-3-Copy" fill="#B8E986" cx="53.9900498" cy="50" rx="1.99004975" ry="2"></ellipse>
                                <ellipse id="Oval-4" fill="#FBAAB4" cx="2.98507463" cy="3" rx="2.98507463" ry="3"></ellipse>
                            </g>
                        </g>
                    </g>
                </g>
            </g>
        </g>
    </g>
</svg>