<?xml version="1.0" encoding="UTF-8"?>
<svg width="20px" height="20px" viewBox="0 0 20 20" version="1.1" xmlns="http://www.w3.org/2000/svg" xmlns:xlink="http://www.w3.org/1999/xlink">
    <!-- Generator: sketchtool 58 (101010) - https://sketch.com -->
    <title>E1971118-A8F0-44BE-B932-35903F9EE99D@1x</title>
    <desc>Created with sketchtool.</desc>
    <g id="Home-screen" stroke="none" stroke-width="1" fill="none" fill-rule="evenodd">
        <g id="DG_Home_Sep-2019_v2" transform="translate(-501.000000, -35.000000)" fill="#1E2533" stroke="#1E2533">
            <g id="Section-1">
                <g id="Haeder">
                    <g id="search-bar-copy" transform="translate(480.000000, 25.000000)">
                        <path d="M28.8681616,12.421048 C31.8850464,12.421048 34.3152753,14.8515136 34.3152753,17.8681616 C34.3152753,20.8848096 31.8850464,23.3152753 28.8681616,23.3152753 C25.8515136,23.3152753 23.421048,20.8848096 23.421048,17.8681616 C23.421048,14.8515136 25.8515136,12.421048 28.8681616,12.421048 M28.8681616,11 C25.0834372,11 22,14.0834372 22,17.8681616 C22,21.652886 25.0834372,24.7363232 28.8681616,24.7363232 C30.5068668,24.7363232 32.015546,24.1596146 33.1978579,23.1968546 L38.7854185,28.7919941 C39.0627597,29.0693353 39.5146529,29.0693353 39.7919941,28.7919941 C40.0693353,28.5146529 40.0693353,28.0627597 39.7919941,27.7854185 L34.1968546,22.1976211 C35.1596146,21.0153092 35.7363232,19.5068668 35.7363232,17.8681616 C35.7363232,14.0834372 32.652886,11 28.8681616,11" id="ic_search"></path>
                    </g>
                </g>
            </g>
        </g>
    </g>
</svg>