<?xml version="1.0" encoding="UTF-8"?>
<svg width="18px" height="14px" viewBox="0 0 18 14" version="1.1" xmlns="http://www.w3.org/2000/svg" xmlns:xlink="http://www.w3.org/1999/xlink">
    <!-- Generator: Sketch 47.1 (45422) - http://www.bohemiancoding.com/sketch -->
    <title>ic_twitter copy@1x</title>
    <desc>Created with Sketch.</desc>
    <defs></defs>
    <g id="Page-1" stroke="none" stroke-width="1" fill="none" fill-rule="evenodd">
        <g id="DG_Contact" transform="translate(-467.000000, -845.000000)" fill="#02E2FE">
            <g id="SDES-Copy" transform="translate(171.000000, 413.000000)">
                <g id="address" transform="translate(0.000000, 377.000000)">
                    <g id="Title">
                        <g id="social-profiles" transform="translate(92.000000, 55.000000)">
                            <path d="M221.226462,1.65684615 C220.592692,1.93846154 219.912077,2.12853846 219.195923,2.21307692 C219.926077,1.77584615 220.486615,1.08338462 220.751,0.258461538 C220.067692,0.662846154 219.311154,0.957923077 218.506692,1.11569231 C217.861615,0.429153846 216.943,0 215.925846,0 C213.973923,0 212.392462,1.582 212.392462,3.53392308 C212.392462,3.81069231 212.423154,4.081 212.483462,4.33946154 C209.546154,4.19192308 206.942154,2.78492308 205.198615,0.646692308 C204.894923,1.169 204.720462,1.77584615 204.720462,2.42361538 C204.720462,3.65023077 205.344538,4.73146154 206.292231,5.36576923 C205.713385,5.34692308 205.168462,5.18861538 204.691923,4.92369231 C204.691385,4.93823077 204.691385,4.95384615 204.691385,4.96784615 C204.691385,6.68069231 205.909385,8.10869231 207.526385,8.43392308 C207.230231,8.51361538 206.917923,8.55723077 206.595385,8.55723077 C206.367077,8.55723077 206.146308,8.53515385 205.930923,8.49476923 C206.38,9.898 207.685769,10.92 209.231692,10.9490769 C208.022846,11.8967692 206.499,12.4621538 204.843231,12.4621538 C204.557846,12.4621538 204.276231,12.446 204,12.4131538 C205.563692,13.4146923 207.421385,14 209.417462,14 C215.917769,14 219.473231,8.61484615 219.473231,3.94423077 C219.473231,3.79130769 219.468385,3.63838462 219.462462,3.48653846 C220.153308,2.98846154 220.752077,2.36653846 221.226462,1.65684615" id="ic_twitter-copy"></path>
                        </g>
                    </g>
                </g>
            </g>
        </g>
    </g>
</svg>