<?xml version="1.0" encoding="UTF-8"?>
<svg width="50px" height="50px" viewBox="0 0 50 50" version="1.1" xmlns="http://www.w3.org/2000/svg" xmlns:xlink="http://www.w3.org/1999/xlink">
    <!-- Generator: sketchtool 49.3 (51167) - http://www.bohemiancoding.com/sketch -->
    <title>3CABEED9-0901-4E01-86A1-32E6A642BB18</title>
    <desc>Created with sketchtool.</desc>
    <defs></defs>
    <g id="Secondary-Screens" stroke="none" stroke-width="1" fill="none" fill-rule="evenodd">
        <g id="Contact" transform="translate(-174.000000, -592.000000)">
            <g id="SDES-Copy" transform="translate(174.000000, 471.000000)">
                <g id="director-sales" transform="translate(0.000000, 117.000000)">
                    <g id="Title">
                        <g id="ic_tele" transform="translate(0.000000, 4.000000)">
                            <rect id="Rectangle-4" fill="#1E2533" x="0" y="0" width="50" height="50" rx="2.85714286"></rect>
                            <path d="M20.7464253,32.2286232 C21.6490779,32.2286232 22.3809516,31.4967495 22.3809516,30.5938442 C22.3809516,29.6911916 21.6490779,28.9595705 20.7464253,28.9595705 C19.8437726,28.9595705 19.1118989,29.6911916 19.1118989,30.5938442 C19.1118989,31.4967495 19.8437726,32.2286232 20.7464253,32.2286232 Z M29.9220042,32.2286232 C30.8249095,32.2286232 31.5565305,31.4967495 31.5565305,30.5938442 C31.5565305,29.6911916 30.8249095,28.9595705 29.9220042,28.9595705 C29.0193516,28.9595705 28.2877305,29.6911916 28.2877305,30.5938442 C28.2877305,31.4967495 29.0193516,32.2286232 29.9220042,32.2286232 Z M25.3342147,32.2286232 C26.2368674,32.2286232 26.9687411,31.4967495 26.9687411,30.5938442 C26.9687411,29.6911916 26.2368674,28.9595705 25.3342147,28.9595705 C24.4315621,28.9595705 23.6996884,29.6911916 23.6996884,30.5938442 C23.6996884,31.4967495 24.4315621,32.2286232 25.3342147,32.2286232 Z M25.3342147,36.8035284 C26.2368674,36.8035284 26.9687411,36.0719074 26.9687411,35.1692547 C26.9687411,34.2663495 26.2368674,33.5347284 25.3342147,33.5347284 C24.4315621,33.5347284 23.6996884,34.2663495 23.6996884,35.1692547 C23.6996884,36.0719074 24.4315621,36.8035284 25.3342147,36.8035284 Z M29.9220042,27.6307284 C30.8249095,27.6307284 31.5565305,26.8988547 31.5565305,25.9962021 C31.5565305,25.0932968 30.8249095,24.3616758 29.9220042,24.3616758 C29.0193516,24.3616758 28.2877305,25.0932968 28.2877305,25.9962021 C28.2877305,26.8988547 29.0193516,27.6307284 29.9220042,27.6307284 Z M25.3342147,27.6307284 C26.2368674,27.6307284 26.9687411,26.8988547 26.9687411,25.9962021 C26.9687411,25.0932968 26.2368674,24.3616758 25.3342147,24.3616758 C24.4315621,24.3616758 23.6996884,25.0932968 23.6996884,25.9962021 C23.6996884,26.8988547 24.4315621,27.6307284 25.3342147,27.6307284 Z M20.7565305,27.6307284 C21.6591832,27.6307284 22.3910568,26.8988547 22.3910568,25.9962021 C22.3910568,25.0932968 21.6591832,24.3616758 20.7565305,24.3616758 C19.8538779,24.3616758 19.1220042,25.0932968 19.1220042,25.9962021 C19.1220042,26.8948126 19.8475621,27.6251705 20.7464253,27.6307284 L20.7565305,27.6307284 Z M14.1881095,20.9107284 C13.6686989,19.2191074 14.2477305,17.3827284 15.6432674,16.2951495 C17.9641937,14.4537179 20.7757305,13.3360758 23.7274779,13.0814232 L23.9801095,13.0589389 C24.8845305,12.9803705 25.7940042,12.9803705 26.6986779,13.0589389 L26.9636884,13.0814232 C29.9103832,13.3373389 32.71712,14.4532126 35.03552,16.2900968 C36.43232,17.3779284 37.0123621,19.2153179 36.4929516,20.9079495 C36.4661726,20.9923284 36.4358568,21.0764547 36.4020042,21.1605811 L36.2706358,21.4968337 C35.9929937,22.2112758 35.2618779,22.6425179 34.5022147,22.5399495 L30.8441095,22.0576758 C30.0786358,21.9540968 29.5071832,21.3015495 29.5051621,20.5290021 L29.5051621,18.3917389 C28.5014568,17.6707284 27.3211621,17.2339284 26.0895832,17.1285811 L25.9609937,17.1285811 C25.5406147,17.0927074 25.1179621,17.0927074 24.6975832,17.1285811 L24.5737937,17.1285811 C23.3422147,17.2341811 22.1621726,17.6707284 21.1582147,18.3917389 L21.1582147,20.5267284 C21.1574568,21.2995284 20.5852463,21.9525811 19.8192674,22.0548968 L16.1788463,22.5399495 C15.4191832,22.6425179 14.68832,22.2112758 14.4104253,21.4968337 L14.2790568,21.1583074 C14.2386358,21.0774653 14.20832,20.9948547 14.1881095,20.9107284 Z" id="Fill-1" fill="#FFFFFF"></path>
                        </g>
                    </g>
                </g>
            </g>
        </g>
    </g>
</svg>