<?xml version="1.0" encoding="UTF-8"?>
<svg width="18px" height="14px" viewBox="0 0 18 14" version="1.1" xmlns="http://www.w3.org/2000/svg" xmlns:xlink="http://www.w3.org/1999/xlink">
    <!-- Generator: sketchtool 49.3 (51167) - http://www.bohemiancoding.com/sketch -->
    <title>C4E93665-A7AC-4545-A530-DA1B18D6B075@1x</title>
    <desc>Created with sketchtool.</desc>
    <defs></defs>
    <g id="Home-screen" stroke="none" stroke-width="1" fill="none" fill-rule="evenodd">
        <g id="DG_Home_New-landing_11" transform="translate(-233.000000, -3143.000000)" fill="#8D95A5">
            <g id="Footer" transform="translate(0.000000, 2994.000000)">
                <g id="social-profiles" transform="translate(171.000000, 149.000000)">
                    <path d="M79.2264615,1.65684615 C78.5926923,1.93846154 77.9120769,2.12853846 77.1959231,2.21307692 C77.9260769,1.77584615 78.4866154,1.08338462 78.751,0.258461538 C78.0676923,0.662846154 77.3111538,0.957923077 76.5066923,1.11569231 C75.8616154,0.429153846 74.943,0 73.9258462,0 C71.9739231,0 70.3924615,1.582 70.3924615,3.53392308 C70.3924615,3.81069231 70.4231538,4.081 70.4834615,4.33946154 C67.5461538,4.19192308 64.9421538,2.78492308 63.1986154,0.646692308 C62.8949231,1.169 62.7204615,1.77584615 62.7204615,2.42361538 C62.7204615,3.65023077 63.3445385,4.73146154 64.2922308,5.36576923 C63.7133846,5.34692308 63.1684615,5.18861538 62.6919231,4.92369231 C62.6913846,4.93823077 62.6913846,4.95384615 62.6913846,4.96784615 C62.6913846,6.68069231 63.9093846,8.10869231 65.5263846,8.43392308 C65.2302308,8.51361538 64.9179231,8.55723077 64.5953846,8.55723077 C64.3670769,8.55723077 64.1463077,8.53515385 63.9309231,8.49476923 C64.38,9.898 65.6857692,10.92 67.2316923,10.9490769 C66.0228462,11.8967692 64.499,12.4621538 62.8432308,12.4621538 C62.5578462,12.4621538 62.2762308,12.446 62,12.4131538 C63.5636923,13.4146923 65.4213846,14 67.4174615,14 C73.9177692,14 77.4732308,8.61484615 77.4732308,3.94423077 C77.4732308,3.79130769 77.4683846,3.63838462 77.4624615,3.48653846 C78.1533077,2.98846154 78.7520769,2.36653846 79.2264615,1.65684615" id="ic_twitter-copy"></path>
                </g>
            </g>
        </g>
    </g>
</svg>