<?xml version="1.0" encoding="UTF-8"?>
<svg width="66px" height="67px" viewBox="0 0 66 67" version="1.1" xmlns="http://www.w3.org/2000/svg" xmlns:xlink="http://www.w3.org/1999/xlink">
    <!-- Generator: sketchtool 49.3 (51167) - http://www.bohemiancoding.com/sketch -->
    <title>07B8A95B-0B36-4DF0-B3CD-1F5E2DD37E99</title>
    <desc>Created with sketchtool.</desc>
    <defs></defs>
    <g id="Secondary-Screens" stroke="none" stroke-width="1" fill="none" fill-rule="evenodd">
        <g id="Career" transform="translate(-885.000000, -823.000000)">
            <g id="About-Dataguru_dark" transform="translate(0.000000, 339.000000)">
                <g id="Benefits" transform="translate(203.000000, 414.000000)">
                    <g id="3" transform="translate(682.000000, 70.000000)">
                        <g id="ic_techh">
                            <path d="M47.498782,54.0572473 L63.3946407,54.0572473 L63.3946407,32.0109622 L47.498782,32.0109622 L47.498782,54.0572473 Z M47.498782,58.8075518 L63.3946407,58.8075518 L63.3946407,56.1887942 L47.498782,56.1887942 L47.498782,58.8075518 Z M9.34808799,49.9159562 C6.39256568,49.9159562 4,47.8453106 4,45.2874543 L4,43.8258222 L45.3069428,43.8258222 L45.3069428,49.9159562 L9.34808799,49.9159562 Z M65.5870889,30.9147381 C65.5870889,30.3057247 65.0998782,29.818514 64.4908648,29.818514 L57.182704,29.818514 L57.182704,18.1863581 C57.182704,14.227771 53.954933,11 49.9963459,11 L8.1863581,11 C4.22777101,11 1,14.227771 1,18.1863581 L1,45.2874543 C1,49.2460414 4.22777101,52.4738124 8.1863581,52.4738124 L27.6906212,52.4738124 L27.6906212,58.320341 L20.5042631,58.320341 C19.773447,58.320341 19.1644336,58.9293544 19.1644336,59.5992692 C19.1644336,60.3300853 19.773447,60.8781973 20.5042631,60.8781973 L37.4957369,60.8781973 C38.226553,60.8781973 38.8355664,60.2691839 38.8355664,59.5992692 C38.8355664,58.8684531 38.226553,58.320341 37.4957369,58.320341 L30.3093788,58.320341 L30.3093788,52.4738124 L45.3069428,52.4738124 L45.3069428,59.9037759 C45.3069428,60.5127893 45.7941535,61 46.4031669,61 L64.4908648,61 C65.0998782,61 65.5870889,60.5127893 65.5870889,59.9037759 L65.5870889,30.9147381 Z M55.5383678,34.3252132 C56.1437272,34.3252132 56.634592,34.816078 56.634592,35.4214373 C56.634592,36.0267966 56.1437272,36.5176614 55.5383678,36.5176614 C54.9330085,36.5176614 54.4421437,36.0267966 54.4421437,35.4214373 C54.4421437,34.816078 54.9330085,34.3252132 55.5383678,34.3252132 Z M51.4579781,33.5334957 C52.501218,33.5334957 53.3459196,34.3788063 53.3459196,35.4214373 C53.3459196,36.4640682 52.501218,37.3093788 51.4579781,37.3093788 C50.4153471,37.3093788 49.5700365,36.4640682 49.5700365,35.4214373 C49.5700365,34.3788063 50.4153471,33.5334957 51.4579781,33.5334957 Z" id="ic_tech" fill="#0155FF"></path>
                            <g id="Illustration_Key-Executives">
                                <ellipse id="Oval-3-Copy-2" fill="#FFD794" cx="63.9900498" cy="23" rx="1.99004975" ry="2"></ellipse>
                                <ellipse id="Oval-3-Copy-3" fill="#FFD794" cx="5.99004975" cy="56" rx="1.99004975" ry="2"></ellipse>
                                <ellipse id="Oval-3-Copy" fill="#B8E986" cx="58.9900498" cy="65" rx="1.99004975" ry="2"></ellipse>
                                <ellipse id="Oval-4" fill="#FBAAB4" cx="2.98507463" cy="3" rx="2.98507463" ry="3"></ellipse>
                            </g>
                        </g>
                    </g>
                </g>
            </g>
        </g>
    </g>
</svg>