<?xml version="1.0" encoding="UTF-8"?>
<svg width="49px" height="45px" viewBox="0 0 49 45" version="1.1" xmlns="http://www.w3.org/2000/svg" xmlns:xlink="http://www.w3.org/1999/xlink">
    <!-- Generator: sketchtool 54.1 (76490) - https://sketchapp.com -->
    <title>8F2CDC9F-9CE6-4208-A9CA-0A11BE50FA06</title>
    <desc>Created with sketchtool.</desc>
    <g id="Page-1" stroke="none" stroke-width="1" fill="none" fill-rule="evenodd">
        <g id="Create-Campaign_Landing" transform="translate(-298.000000, -445.000000)">
            <g id="Upload-HTML" transform="translate(258.000000, 417.000000)">
                <g id="ic_upload-HTML" transform="translate(42.000000, 30.000000)">
                    <rect id="Rectangle" stroke="#0155FF" stroke-width="3" opacity="0.5" fill-rule="nonzero" x="0" y="0" width="36" height="41" rx="4"></rect>
                    <path d="M23.9047619,25.2563095 L25.6309524,23.5896429 L29.797619,27.7563095 L25.6309524,31.9825 L23.9047619,30.3158333 L26.4642857,27.7563095 L23.9047619,25.2563095 Z M15.1495833,35.8922619 L19.9433333,19 L22.2338095,19.65 L17.4400595,36.5422619 L15.1495833,35.8922619 Z M11.2261905,23.5896429 L12.8928571,25.2563095 L10.3928571,27.7563095 L12.8928571,30.3158333 L11.2261905,31.9825 L7,27.7563095 L11.2261905,23.5896429 Z" id="Combined-Shape" fill="#0155FF" fill-rule="nonzero"></path>
                    <circle id="Oval" fill="#F3F4F6" cx="36" cy="16" r="11"></circle>
                    <path d="M35.056574,22.6066632 L30.4292153,18.0558315 C29.1276871,16.7984871 31.0799795,14.9120258 32.381968,16.1693703 L33.9660226,17.7054702 C34.3266434,18.0551739 34.6191108,17.9392479 34.6191108,17.446391 L34.6191108,11.3305263 C34.6191108,10.599705 35.2372657,10 35.9997985,10 C36.7607797,10 37.3804862,10.5956969 37.3804862,11.3305263 L37.3804862,17.446391 C37.3804862,17.9365902 37.6729439,18.0552416 38.0337088,17.7054702 L39.6180893,16.1693703 C40.9196175,14.9120258 42.8723702,16.7984871 41.5708419,18.0558315 L36.990909,22.6003806 C36.4554432,23.1317095 35.591352,23.1325971 35.056574,22.6066632 Z" id="ic_download" fill="#7ED321" fill-rule="nonzero" transform="translate(36.000000, 16.500000) rotate(-180.000000) translate(-36.000000, -16.500000) "></path>
                </g>
            </g>
        </g>
    </g>
</svg>