<?xml version="1.0" encoding="UTF-8"?>
<svg width="50px" height="43px" viewBox="0 0 50 43" version="1.1" xmlns="http://www.w3.org/2000/svg" xmlns:xlink="http://www.w3.org/1999/xlink">
    <!-- Generator: sketchtool 54.1 (76490) - https://sketchapp.com -->
    <title>B7A6A520-70B8-4756-B75C-7721402797A9</title>
    <desc>Created with sketchtool.</desc>
    <g id="Page-1" stroke="none" stroke-width="1" fill="none" fill-rule="evenodd">
        <g id="Create-Campaign_Landing" transform="translate(-129.000000, -446.000000)" fill="#0155FF" fill-rule="nonzero">
            <g id="Upload-FIle" transform="translate(79.000000, 417.000000)">
                <g id="ic_HTML" transform="translate(50.000000, 29.000000)">
                    <path d="M45.2380952,-1.77635684e-14 C47.8571429,-1.77635684e-14 50,2.14285714 50,4.76190476 L50,33.3333333 C50,35.952381 47.8571429,38.0952381 45.2380952,38.0952381 L4.76190476,38.0952381 C2.14285714,38.0952381 0,35.952381 0,33.3333333 L0,4.76190476 C0,2.14285714 2.14285714,-1.77635684e-14 4.76190476,-1.77635684e-14 L45.2380952,-1.77635684e-14 Z M25,33.3333333 C26.0119048,33.3333333 26.7857143,32.5595238 26.7857143,31.547619 C26.7857143,30.5357143 26.0119048,29.7619048 25,29.7619048 C23.9880952,29.7619048 23.2142857,30.5357143 23.2142857,31.547619 C23.2142857,32.5595238 23.9880952,33.3333333 25,33.3333333 Z M47.6190476,25 L47.6190476,4.76190476 C47.6190476,3.45238095 46.547619,2.38095238 45.2380952,2.38095238 L4.76190476,2.38095238 C3.45238095,2.38095238 2.38095238,3.45238095 2.38095238,4.76190476 L2.38095238,25 L47.6190476,25 Z M29.9404762,39.8809524 L32.202381,39.5238095 C32.3214286,40.1785714 32.0833333,40.8928571 31.6666667,41.4285714 C31.25,41.9642857 30.5952381,42.2619048 29.8809524,42.2619048 L20.0595238,42.2619048 C19.4047619,42.2619048 18.6904762,41.9642857 18.2738095,41.4285714 C17.8571429,40.8928571 17.6190476,40.2380952 17.7380952,39.5238095 L20.0595238,39.8809524 L29.9404762,39.8809524 Z" id="Combined-Shape" opacity="0.5"></path>
                    <path d="M30.2380952,11.3095238 L31.9642857,9.64285714 L36.1309524,13.8095238 L31.9642857,18.0357143 L30.2380952,16.3690476 L32.797619,13.8095238 L30.2380952,11.3095238 Z M21.4829167,21.9454762 L26.2766667,5.05321429 L28.5671429,5.70321429 L23.7733929,22.5954762 L21.4829167,21.9454762 Z M17.5595238,9.64285714 L19.2261905,11.3095238 L16.7261905,13.8095238 L19.2261905,16.3690476 L17.5595238,18.0357143 L13.3333333,13.8095238 L17.5595238,9.64285714 Z" id="Combined-Shape"></path>
                </g>
            </g>
        </g>
    </g>
</svg>