<?xml version="1.0" encoding="UTF-8"?>
<svg width="24px" height="24px" viewBox="0 0 24 24" version="1.1" xmlns="http://www.w3.org/2000/svg" xmlns:xlink="http://www.w3.org/1999/xlink">
    <!-- Generator: Sketch 48.2 (47327) - http://www.bohemiancoding.com/sketch -->
    <title>ic_viewed1</title>
    <desc>Created with Sketch.</desc>
    <defs></defs>
    <g id="Executive-After-Login" stroke="none" stroke-width="1" fill="none" fill-rule="evenodd" transform="translate(-513.000000, -68.000000)">
        <g id="L1">
            <g id="content" transform="translate(150.000000, 36.000000)">
                <g id="View-Email" transform="translate(363.000000, 32.000000)">
                    <g id="ic_viewed1">
                        <g id="Group-2" transform="translate(3.000000, 6.000000)">
                            <path d="M16,2 C16,0.8954305 15.1045695,0 14,0 L2,0 C0.8954305,0 0,0.8954305 0,2 L0,9.77777778 C0,10.8823473 0.8954305,11.7777778 2,11.7777778 L14,11.7777778 C15.1045695,11.7777778 16,10.8823473 16,9.77777778 L16,2 Z M14,1.33333333 C14.1641627,1.33370391 14.3224169,1.39463178 14.4444444,1.50444444 L8.10444444,5.86222222 L1.55555556,1.5 C1.67823887,1.39179901 1.83642151,1.33248052 2,1.33333333 L14,1.33333333 Z M14,10.4444444 L2,10.4444444 C1.63181017,10.4444444 1.33333333,10.1459676 1.33333333,9.77777778 L1.33333333,2.94888889 L7.74222222,7.22222222 C7.96776604,7.37467324 8.26334507,7.37467324 8.48888889,7.22222222 L14.6666667,2.96888889 L14.6666667,9.77777778 C14.6666667,10.1459676 14.3681898,10.4444444 14,10.4444444 Z" id="email" fill="#1E2533" fill-rule="nonzero"></path>
                            <circle id="Oval" fill="#FFFFFF" cx="14.6666667" cy="10.6666667" r="5.33333333"></circle>
                            <g id="Group" transform="translate(10.666667, 5.333333)" fill="#7ED321">
                                <path d="M4.93334261,8.21731308 L2.26667594,8.21731308 L2.26667594,6.88397975 L4.93334261,6.88397975 L4.93334261,0.217313083 L6.26667594,0.217313083 L6.26667594,8.21731308 L4.93334261,8.21731308 Z" id="Combined-Shape" transform="translate(4.266676, 4.217313) rotate(46.000000) translate(-4.266676, -4.217313) "></path>
                            </g>
                        </g>
                    </g>
                </g>
            </g>
        </g>
    </g>
</svg>
