<?xml version="1.0" encoding="UTF-8"?>
<svg width="24px" height="27px" viewBox="0 0 24 27" version="1.1" xmlns="http://www.w3.org/2000/svg" xmlns:xlink="http://www.w3.org/1999/xlink">
    <!-- Generator: sketchtool 49.2 (51160) - http://www.bohemiancoding.com/sketch -->
    <title>4E5E2360-A0E9-4797-922C-9176EBD45031</title>
    <desc>Created with sketchtool.</desc>
    <defs>
        <polygon id="path-1" points="1 26.0434783 12.9304348 15.1356522 24.8608696 26.0434783"></polygon>
        <linearGradient x1="50%" y1="-46.7073768%" x2="50%" y2="100%" id="linearGradient-2">
            <stop stop-color="#FFFFFF" offset="0%"></stop>
            <stop stop-color="#000000" offset="100%"></stop>
        </linearGradient>
        <polygon id="path-3" points="24.8608696 9 12.9304348 19.9078261 1 9"></polygon>
        <polygon id="path-4" points="0.860869565 9 12.8608696 19 24.8608696 9 16.3608696 2.5 9.36086957 2.5"></polygon>
        <rect id="path-6" x="5" y="6" width="16" height="13" rx="2"></rect>
    </defs>
    <g id="Symbols" stroke="none" stroke-width="1" fill="none" fill-rule="evenodd">
        <g id="email_final" transform="translate(-1.000000, -1.000000)">
            <g transform="translate(0.000000, 1.000000)">
                <rect id="bg" fill="#D5DCE4" fill-rule="nonzero" x="1" y="9" width="23.8608696" height="17.0434783"></rect>
                <g id="triangle_3_" fill-rule="nonzero">
                    <use fill="#1F8EBF" fill-rule="evenodd" xlink:href="#path-1"></use>
                    <use fill="#000000" fill-rule="evenodd" xlink:href="#path-1"></use>
                </g>
                <g id="triangle_1_" fill-rule="nonzero">
                    <use fill="#1F8EBF" fill-rule="evenodd" xlink:href="#path-3"></use>
                    <use fill="url(#linearGradient-2)" fill-rule="evenodd" xlink:href="#path-3"></use>
                </g>
                <polygon id="triangle" fill="#D4DBE4" fill-rule="nonzero" transform="translate(12.930435, 4.500000) scale(1, -1) translate(-12.930435, -4.500000) " points="24.8608696 0 12.9304348 9 1 0"></polygon>
                <mask id="mask-5" fill="white">
                    <use xlink:href="#path-4"></use>
                </mask>
                <g id="Path-2"></g>
                <g id="Rectangle-3" mask="url(#mask-5)">
                    <use fill="#F8E71C" xlink:href="#path-6"></use>
                    <use fill="#037BFF" xlink:href="#path-6"></use>
                </g>
                <path d="M13.6450711,10.9699034 C13.6450711,10.8037832 13.5949224,10.6643071 13.4946234,10.5514708 C13.3943245,10.4386345 13.2595498,10.3822172 13.0902954,10.3822172 C12.7643239,10.3822172 12.4838045,10.5851628 12.2487289,10.9910601 C12.0136532,11.3969573 11.8961172,11.7895277 11.8961172,12.168783 C11.8961172,12.39759 11.9486166,12.5825134 12.0536171,12.7235587 C12.1586175,12.8646041 12.3067129,12.9351257 12.4979078,12.9351257 C12.8332823,12.9351257 13.1083167,12.6804643 13.3230191,12.1711338 C13.5377215,11.6618033 13.6450711,11.2613971 13.6450711,10.9699034 Z M12.1970125,13.6262446 C11.8177572,13.6262446 11.501977,13.4899028 11.2496625,13.2172151 C10.997348,12.9445274 10.8711926,12.5637106 10.8711926,12.0747533 C10.8711926,11.5074374 11.0639517,10.9761745 11.4494757,10.4809485 C11.8349998,9.98572252 12.3082783,9.73811325 12.8693254,9.73811325 C13.1984313,9.73811325 13.4538763,9.82900779 13.6356681,10.0107996 C13.7735791,10.151845 13.8660408,10.3132612 13.913056,10.495053 L14.0823096,9.90266536 L14.970891,9.90266536 L14.3691004,11.9431116 C14.3220853,12.1092317 14.2883916,12.2322527 14.2680184,12.3121785 C14.2476452,12.3921042 14.2374587,12.4618422 14.2374587,12.5213947 C14.2374587,12.615425 14.2688016,12.7039688 14.3314885,12.7870288 C14.3941753,12.8700889 14.4944727,12.9116183 14.6323838,12.9116183 C14.9019372,12.9116183 15.1722701,12.7353142 15.4433906,12.3827008 C15.7145112,12.0300874 15.8500694,11.5622939 15.8500694,10.9793063 C15.8500694,10.1173624 15.4802226,9.49833919 14.740518,9.1222182 C14.2766355,8.88400823 13.7547754,8.76490503 13.1749222,8.76490503 C12.109246,8.76490503 11.2535836,9.09087168 10.6079092,9.74281474 C10.0249217,10.332071 9.73343228,11.0388544 9.73343228,11.8631863 C9.73343228,12.778414 10.0750704,13.5040032 10.7583569,14.0399756 C11.3632848,14.5132612 12.1014112,14.7499005 12.9727582,14.7499005 C13.5682831,14.7499005 14.1246204,14.6402002 14.6417867,14.4207963 C14.9238775,14.3048256 15.2153669,14.1402751 15.5162637,13.9271399 L15.6290994,13.8472146 L15.9723081,14.3737814 C15.5272316,14.7185589 15.0453338,14.9810561 14.5266003,15.1612808 C14.0078667,15.3415054 13.4695516,15.4316164 12.9116388,15.4316164 C11.610887,15.4316164 10.6032113,15.0272924 9.88858141,14.2186322 C9.29619084,13.5478831 9,12.7533394 9,11.8349773 C9,10.8069133 9.36984677,9.93557936 10.1095514,9.22094946 C10.8868681,8.46557313 11.8820067,8.08789062 13.0949969,8.08789062 C14.0823145,8.08789062 14.9003654,8.34646993 15.5491741,8.8636363 C16.2324606,9.40901175 16.5740987,10.1330338 16.5740987,11.0357242 C16.5740987,11.7472198 16.3578324,12.3576236 15.9252932,12.8669542 C15.4927541,13.3762847 14.9991027,13.6309461 14.4443242,13.6309461 C14.1559648,13.6309461 13.9342134,13.5494544 13.7790635,13.3864687 C13.6239136,13.2234829 13.5463398,13.0557982 13.5463398,12.8834094 C13.5463398,12.861469 13.5471234,12.8371782 13.5486906,12.8105363 C13.5502577,12.7838944 13.5526085,12.7549022 13.5557428,12.7235587 C13.4366378,12.9492313 13.3034303,13.1294533 13.1561162,13.26423 C12.8896972,13.5055743 12.5699991,13.6262446 12.1970125,13.6262446 Z" id="@" fill="#FFFFFF" mask="url(#mask-5)"></path>
                <polygon id="triangle_2_" fill="#D5DCE5" fill-rule="nonzero" points="1 26.0434783 12.9304348 15.7492174 24.8608696 26.0434783"></polygon>
            </g>
        </g>
    </g>
</svg>