<?xml version="1.0" encoding="UTF-8"?>
<svg width="24px" height="24px" viewBox="0 0 24 24" version="1.1" xmlns="http://www.w3.org/2000/svg" xmlns:xlink="http://www.w3.org/1999/xlink">
    <!-- Generator: Sketch 48.2 (47327) - http://www.bohemiancoding.com/sketch -->
    <title>ic_view1</title>
    <desc>Created with Sketch.</desc>
    <defs></defs>
    <g id="Executive-Before-login" stroke="none" stroke-width="1" fill="none" fill-rule="evenodd" transform="translate(-513.000000, -68.000000)">
        <g id="L1">
            <g id="content" transform="translate(150.000000, 36.000000)">
                <g id="View-Email" transform="translate(363.000000, 32.000000)">
                    <g id="ic_view1">
                        <g id="Group-2" transform="translate(3.000000, 6.000000)">
                            <path d="M16,2 C16,0.8954305 15.1045695,0 14,0 L2,0 C0.8954305,0 0,0.8954305 0,2 L0,9.77777778 C0,10.8823473 0.8954305,11.7777778 2,11.7777778 L14,11.7777778 C15.1045695,11.7777778 16,10.8823473 16,9.77777778 L16,2 Z M14,1.33333333 C14.1641627,1.33370391 14.3224169,1.39463178 14.4444444,1.50444444 L8.10444444,5.86222222 L1.55555556,1.5 C1.67823887,1.39179901 1.83642151,1.33248052 2,1.33333333 L14,1.33333333 Z M14,10.4444444 L2,10.4444444 C1.63181017,10.4444444 1.33333333,10.1459676 1.33333333,9.77777778 L1.33333333,2.94888889 L7.74222222,7.22222222 C7.96776604,7.37467324 8.26334507,7.37467324 8.48888889,7.22222222 L14.6666667,2.96888889 L14.6666667,9.77777778 C14.6666667,10.1459676 14.3681898,10.4444444 14,10.4444444 Z" id="email" fill="#1E2533" fill-rule="nonzero"></path>
                            <circle id="Oval" fill="#FFFFFF" cx="14.6666667" cy="10.6666667" r="5.33333333"></circle>
                            <g id="Group" transform="translate(10.666667, 8.000000)" fill="#1E2533">
                                <path d="M3.68152012,2.88274399 C3.38751711,2.88274399 3.14840091,2.64330531 3.14840091,2.34890578 C3.14840091,2.05450626 3.38751711,1.81506758 3.68152012,1.81506758 C3.97552314,1.81506758 4.21463934,2.05450626 4.21463934,2.34890578 C4.21463934,2.64330531 3.97552314,2.88274399 3.68152012,2.88274399 M4,1.33333333 C3.26476649,1.33333333 2.66666667,1.93143316 2.66666667,2.66666667 C2.66666667,3.40190017 3.26476649,4 4,4 C4.73523351,4 5.33333333,3.40190017 5.33333333,2.66666667 C5.33333333,1.93143316 4.73523351,1.33333333 4,1.33333333" id="Fill-1"></path>
                                <path d="M4,4.6164286 C3.07060954,4.6164286 2.31454436,3.74180036 2.31454436,2.66666667 C2.31454436,1.59153297 3.07060954,0.716904732 4,0.716904732 C4.92939046,0.716904732 5.68545564,1.59153297 5.68545564,2.66666667 C5.68545564,3.74180036 4.92939046,4.6164286 4,4.6164286 Z M7.86047073,2.4400229 C6.90665057,0.889372932 5.49948099,0 4,0 C2.50051901,0 1.09334943,0.889372932 0.13952927,2.4400229 L0,2.66666667 L0.13943271,2.89331043 C1.09325287,4.4439604 2.50042245,5.33333333 4,5.33333333 C5.49957755,5.33333333 6.90684369,4.4439604 7.86047073,2.89331043 L8,2.66666667 L7.86047073,2.4400229 Z" id="Fill-3"></path>
                            </g>
                        </g>
                    </g>
                </g>
            </g>
        </g>
    </g>
</svg>
