<?xml version="1.0" encoding="UTF-8"?>
<svg width="78px" height="66px" viewBox="0 0 78 66" version="1.1" xmlns="http://www.w3.org/2000/svg" xmlns:xlink="http://www.w3.org/1999/xlink">
    <!-- Generator: sketchtool 49.3 (51167) - http://www.bohemiancoding.com/sketch -->
    <title>03CA17BD-C2FC-416D-A032-EA6CA5E2FB8D</title>
    <desc>Created with sketchtool.</desc>
    <defs>
        <polygon id="path-1" points="0.146489362 44.1489362 36.3164894 44.1489362 36.3164894 0.000200999965 0.146489362 0.000200999965"></polygon>
        <polygon id="path-3" points="1.44175821e-20 0.506626749 1.44175821e-20 49.4421277 48.9369681 49.4421277 48.9369681 0.506626749"></polygon>
    </defs>
    <g id="Secondary-Screens" stroke="none" stroke-width="1" fill="none" fill-rule="evenodd">
        <g id="Career" transform="translate(-280.000000, -826.000000)">
            <g id="About-Dataguru_dark" transform="translate(0.000000, 339.000000)">
                <g id="Benefits" transform="translate(203.000000, 414.000000)">
                    <g id="1" transform="translate(75.000000, 73.000000)">
                        <g id="ic_youngg" transform="translate(2.000000, 0.000000)">
                            <g id="ic_young" transform="translate(0.000000, 7.000000)">
                                <g id="girl" transform="translate(41.489362, 5.344628)">
                                    <mask id="mask-2" fill="white">
                                        <use xlink:href="#path-1"></use>
                                    </mask>
                                    <g id="Clip-2"></g>
                                    <path d="M26.492766,30.6697872 L33.4076596,33.5447872 C34.4597872,34.1618085 35.0007447,35.0554255 35.2528723,36.2043617 L35.2528723,43.0852128 L27.6395745,43.0852128 L24.2156383,33.2958511 C25.248617,32.5841489 26.0704255,31.6979787 26.492766,30.6697872 Z M9.90393617,30.5368085 C10.3097872,31.6096809 11.1720213,32.527234 12.2475532,33.2623404 L8.80659574,43.0852128 L1.21031915,43.0852128 L1.21031915,36.171383 C1.41351064,35.04 2.01829787,34.1612766 2.97202128,33.5447872 L9.90393617,30.5368085 Z M21.4230851,23.9219149 L21.4230851,28.1931915 C21.417766,28.4017021 21.5480851,28.6075532 21.7385106,28.6921277 L25.4954255,30.2543617 C25.1161702,31.1745745 24.2890426,32.0559574 23.1518085,32.7304255 C21.7810638,33.5431915 20.0071277,34.0596809 18.2645745,34.0602128 C16.567766,34.0607447 14.7619149,33.5453191 13.361383,32.7309574 C12.1417021,32.0208511 11.2417021,31.0862766 10.8842553,30.121383 L14.1757447,28.6921277 C14.3725532,28.6123404 14.5103191,28.4054255 14.5081915,28.1931915 L14.5081915,24.171383 C15.4847872,24.8990426 16.5044681,25.5431915 17.4502128,26.0160638 C17.598617,26.0915957 17.7837234,26.0915957 17.9321277,26.0160638 C18.9645745,25.5001064 20.205,24.7820213 21.4230851,23.9219149 Z M16.4028723,21.0134043 L19.511383,21.0134043 C19.3917021,21.1490426 19.3252128,21.3181915 19.1454255,21.4123404 C18.8097872,21.5873404 18.392766,21.6782979 17.9656383,21.6782979 C17.5379787,21.6782979 17.105,21.5873404 16.7688298,21.4123404 C16.5890426,21.3181915 16.5225532,21.1490426 16.4028723,21.0134043 Z M15.755,20.4814894 C15.611383,20.5187234 15.5209574,20.6915957 15.5720213,20.8304255 C15.73,21.3054255 16.0906383,21.6708511 16.5193617,21.8942553 C16.9480851,22.1176596 17.4619149,22.2102128 17.9656383,22.2102128 C18.4688298,22.2102128 18.9667021,22.1176596 19.3948936,21.8942553 C19.823617,21.6708511 20.1842553,21.3054255 20.342234,20.8304255 C20.3943617,20.6724468 20.2592553,20.483617 20.0932979,20.4814894 L15.755,20.4814894 Z M23.0518085,11.1075532 C23.23,12.4745745 23.7097872,13.5240426 24.2321277,14.3320213 C24.8470213,15.1995745 25.5018085,16.0676596 25.6784043,17.0245745 C25.6784043,18.3245745 24.4667021,19.9915957 22.7858511,21.4788298 C21.1847872,22.8942553 19.2268085,24.1314894 17.6996809,24.9192553 C16.2145745,24.1415957 14.4980851,22.9197872 13.1448936,21.6282979 C12.4342553,20.9501064 11.817234,20.2602128 11.3996809,19.633617 C10.7507447,18.7070213 10.6943617,17.9043617 11.167234,17.0575532 C12.5938298,15.7006383 14.8140426,15.202766 16.4528723,14.6809574 C18.0220213,14.1804255 19.6815957,13.6176596 21.073617,12.7862766 C21.836383,12.3304255 22.5097872,11.777766 23.0518085,11.1075532 Z M18.73,0.00542553191 C12.5980851,0.0229787234 5.99755319,5.00914894 5.99755319,12.2378723 C5.99755319,15.3080851 7.23265957,18.2841489 8.29117021,21.1958511 C9.31617021,24.0134043 10.1709574,26.7676596 9.77095745,29.4394681 L2.54010638,32.565 C1.2693617,33.3405319 0.169893617,34.7490426 0.146489362,36.171383 L0.146489362,43.6171277 C0.146489362,43.8953191 0.399680851,44.1490426 0.678404255,44.1490426 L35.7847872,44.1490426 C36.0629787,44.1490426 36.3167021,43.8953191 36.3167021,43.6171277 L36.3167021,36.2043617 C36.1230851,34.6697872 35.1608511,33.1479787 33.8230851,32.565 L25.08,28.9245745 C24.7565957,26.6059574 25.8964894,24.6953191 26.8252128,22.8751064 C27.0911702,23.2373404 27.2741489,23.7644681 27.2741489,26.0660638 C27.2906383,26.5160638 28.0129787,26.7123404 28.255,26.3320213 C30.5124468,22.3814894 30.4656383,15.9607447 30.4656383,12.2378723 C30.4656383,5.04904255 24.6331915,-0.188723404 18.7635106,0.00542553191 C18.7523404,0.00542553191 18.7411702,0.00489361702 18.7305319,0.00542553191 L18.73,0.00542553191 Z" id="Fill-1" fill="#0155FF" mask="url(#mask-2)"></path>
                                </g>
                                <g id="boy" transform="translate(0.000000, 0.025479)">
                                    <mask id="mask-4" fill="white">
                                        <use xlink:href="#path-3"></use>
                                    </mask>
                                    <g id="Clip-5"></g>
                                    <path d="M31.9087766,39.5782979 L31.0556225,39.8367889 C26.4686953,41.226549 21.5605374,41.1361055 17.0279255,39.5782979 C15.435727,35.1768794 14.6396277,32.9761702 14.6396277,32.9761702 C14.6396277,32.9761702 15.3635638,32.6245745 15.7050532,32.4288298 C15.7050532,32.4288298 17.4433511,31.0775887 20.9199468,28.3751064 C21.9922872,28.7431915 23.2513298,28.9793617 24.7422872,28.9793617 C26.2742021,28.9793617 27.5795213,28.7293617 28.6986702,28.3426596 L32.9821809,32.3155319 L33.1821809,32.4607447 C33.5353723,32.6559574 33.9050532,32.8362766 34.2853723,33.0075532 L31.9087766,39.5782979 Z M17.3832447,22.608617 L17.2789894,22.3006383 L17.0162234,22.1091489 C15.6949468,21.152766 14.9763298,20.2181915 14.9364362,19.4043617 C14.9119681,18.9080851 15.1507979,18.5453191 15.3018617,18.3623404 C17.0018617,17.9548936 17.9699468,16.7410638 18.4518617,15.5884043 C18.8103723,16.046383 18.7603723,16.4703191 18.7406915,16.5719149 L18.3880319,17.9915957 L19.8428191,17.8309574 C25.8375,17.1676596 29.6816489,13.002766 31.4236702,10.6112766 C31.5800532,12.2681915 30.8433511,14.5165957 30.4662234,15.3958511 L29.6178191,17.3751064 L33.8571809,16.1511702 C33.7800532,16.2958511 33.7146277,16.4378723 33.6321809,16.5841489 L33.0545213,17.6075532 L34.149734,18.0352128 C34.1550532,18.0368085 34.6523936,18.2602128 34.756117,18.7564894 C34.8327128,19.1229787 34.7906915,20.1926596 32.7619681,22.2123404 L32.6183511,22.3543617 L32.5406915,22.5394681 C32.5231383,22.583617 30.6226064,26.9405319 24.7422872,26.9405319 C18.9726064,26.9405319 17.4444149,22.7793617 17.3832447,22.608617 Z M39.0066489,32.3634043 C37.1486702,31.9820213 35.5992021,31.4490426 34.275266,30.7341489 L30.6906915,27.4096809 C32.9518617,26.0282979 34.025266,24.1453191 34.3289894,23.527766 C36.2486702,21.577766 37.0640957,19.833617 36.7523936,18.3410638 C36.6018617,17.6187234 36.2279255,17.1064894 35.8513298,16.7580851 C37.5337766,13.4320213 37.8763298,10.3735106 36.8667553,7.65648936 C35.1635638,3.06819149 30.2332447,1.24957447 29.9742021,1.15808511 C25.0875,-0.317446809 21.7890957,0.99 19.8827128,2.34531915 C18.4566489,3.35914894 16.756117,3.90648936 15.2816489,4.30861702 C13.2295213,4.8687234 12.5428191,6.99425532 12.5007979,7.13255319 C11.2944149,11.7782979 12.8172872,15.7655319 13.5481383,17.2985106 C13.2140957,17.7761702 12.8662234,18.5059574 12.8970745,19.4501064 C12.9449468,20.877766 13.8470745,22.2671277 15.5795213,23.5820213 C15.8944149,24.3048936 16.8364362,26.0692553 18.8731383,27.3862766 L14.6295213,30.6947872 C13.3135638,31.4389362 11.7742021,31.9852128 9.92952128,32.3634043 C4.17579787,33.54 -0.000265957447,38.6634043 -0.000265957447,44.5442553 L-0.000265957447,49.4421277 L48.9369681,49.4421277 L48.9369681,44.5442553 C48.9369681,38.6634043 44.7603723,33.54 39.0066489,32.3634043 Z" id="Fill-4" fill="#0155FF" mask="url(#mask-4)"></path>
                                </g>
                            </g>
                            <g id="Illustration_Key-Executives" transform="translate(5.000000, 0.000000)">
                                <ellipse id="Oval-3-Copy-2" fill="#FFD794" cx="69.9900498" cy="14" rx="1.99004975" ry="2"></ellipse>
                                <ellipse id="Oval-3-Copy-3" fill="#FFD794" cx="2.99004975" cy="60" rx="1.99004975" ry="2"></ellipse>
                                <ellipse id="Oval-3-Copy" fill="#B8E986" cx="60.9900498" cy="64" rx="1.99004975" ry="2"></ellipse>
                                <ellipse id="Oval-4" fill="#FBAAB4" cx="2.98507463" cy="3" rx="2.98507463" ry="3"></ellipse>
                            </g>
                        </g>
                    </g>
                </g>
            </g>
        </g>
    </g>
</svg>