<?xml version="1.0" encoding="UTF-8"?>
<svg width="49px" height="30px" viewBox="0 0 49 30" version="1.1" xmlns="http://www.w3.org/2000/svg" xmlns:xlink="http://www.w3.org/1999/xlink">
    <!-- Generator: sketchtool 58 (101010) - https://sketch.com -->
    <title>7C3B8F6A-4955-406C-983C-DFE7935C6AE2</title>
    <desc>Created with sketchtool.</desc>
    <g id="Home-screen" stroke="none" stroke-width="1" fill="none" fill-rule="evenodd">
        <g id="DG_Home_Sep-2019_v2" transform="translate(-876.000000, -829.000000)">
            <g id="Section-1">
                <g id="Trusted-Clients" transform="translate(0.000000, 706.000000)">
                    <g id="logos" transform="translate(219.000000, 118.000000)">
                        <g id="idea_logo-copy" style="mix-blend-mode: luminosity;" transform="translate(658.000000, 6.000000)">
                            <path d="M44.2840251,0 L2.06086407,0 C0.927385752,0 0,1.02776671 0,2.28402351 L0,25.7160392 C0,26.9722333 0.927385752,28 2.06086407,28 L37.4838329,28 L46.3448276,18.9873633 L46.3448276,2.28402351 C46.3448276,1.02776671 45.4175034,0 44.2840251,0" id="Fill-1" fill="#FFF101"></path>
                            <path d="M44.2840251,0 L2.06086407,0 C0.927385752,0 0,1.02776671 0,2.28402351 L0,25.7160392 C0,26.9722333 0.927385752,28 2.06086407,28 L37.4838329,28 L46.3448276,18.9873633 L46.3448276,2.28402351 C46.3448276,1.02776671 45.4175034,0 44.2840251,0 Z" id="Stroke-2" stroke="#1A1919" stroke-width="2"></path>
                            <path d="M6.75862069,19.3103448 L8.93547641,19.3103448 L9.30413924,16.8289261 L7.1272283,16.8289261 L6.75862069,19.3103448 Z M9.50144785,15.4914992 L10.6206897,7.72413793 L8.44394438,7.72413793 L7.30813594,15.4914992 L9.50144785,15.4914992 L9.50144785,15.4914992 Z" id="Fill-3" fill="#0067A5"></path>
                            <path d="M16.8967508,14.2660562 L16.6261425,15.8422802 C16.5100634,16.6502887 16.0858978,17.2611297 15.5254865,17.4777598 C15.3904556,17.5369534 15.2356835,17.556354 15.0815187,17.556354 C14.251228,17.556354 13.9422911,16.6895238 14.1929759,15.0740647 C14.4444503,13.5761251 14.8689196,12.6897703 15.5254865,12.4138226 C15.6801371,12.3349184 15.853861,12.2954974 16.0276456,12.2954974 C16.7999271,12.2954974 17.0899123,12.9851186 16.8967508,14.2660562 Z M17.3217061,11.6455451 C16.8771917,10.8767098 16.4140901,10.6008242 15.5254865,10.5813615 C15.5064133,10.5813615 15.4867327,10.5813615 15.4677202,10.5813615 C13.4980197,10.5813615 12.1463145,12.1968206 11.6829091,15.0343337 C11.6248392,15.3891236 11.5862069,15.7240169 11.5862069,16.0590342 L11.5862069,16.591157 C11.6632893,18.3253133 12.4743853,19.3103448 13.9229143,19.3103448 C14.5598612,19.3103448 15.0428865,19.1527844 15.5254865,18.77816 C15.8152894,18.5418814 16.1048495,18.2463472 16.4140901,17.8323637 L16.201248,19.1329499 L18.421694,19.1329499 L20.2758621,7.72413793 L17.9392155,7.72413793 L17.3217061,11.6455451 L17.3217061,11.6455451 Z" id="Fill-4" fill="#1A1919"></path>
                            <path d="M26.4863694,13.9358385 L23.3395843,13.9358385 C23.6332139,12.9350063 24.1367391,12.3859677 24.9127789,12.2684224 C25.0389407,12.2484921 25.1647065,12.2288704 25.2903404,12.2288704 C26.2343759,12.2288704 26.5909544,12.7392208 26.4863694,13.9358385 Z M25.4373531,10.6206897 C25.2696873,10.6206897 25.0806427,10.6400646 24.9127789,10.6599948 C22.6053785,10.8754638 20.7802563,12.6213669 20.3607949,15.0339157 C19.8994336,17.6038703 21.3469943,19.3103448 23.9897924,19.3103448 C24.3254538,19.3103448 24.6190834,19.2905997 24.9127789,19.2516647 C26.5280055,18.9963352 27.7025897,18.0940436 28.5837423,16.4070057 L26.213261,16.2697769 C25.9619273,16.9171093 25.521219,17.3486642 24.9127789,17.5056382 C24.7451132,17.5449434 24.5773814,17.5642566 24.3884027,17.5642566 C23.3605013,17.5642566 22.7943571,16.8584292 22.982676,15.7796036 C23.0041208,15.7008081 23.0250378,15.5246443 23.0881187,15.3867985 L28.8149508,15.3867985 C29.0659546,13.9159083 29.0032697,13.2099575 28.6258402,12.3859677 C28.143232,11.306957 26.9263519,10.6206897 25.4373531,10.6206897 L25.4373531,10.6206897 Z" id="Fill-5" fill="#1A1919"></path>
                            <path d="M34.5952469,15.8972723 C34.4517962,16.7405753 33.8990569,17.4072209 33.223093,17.6624887 C33.0389325,17.7214773 32.8547075,17.7607208 32.6703537,17.7607208 C32.014938,17.7607208 31.6462305,17.3291042 31.7486492,16.7013318 C31.8716806,16.0541229 32.281098,15.6618731 33.223093,15.4067905 C33.6328325,15.2892451 34.1240561,15.2107582 34.718085,15.1520163 L34.5952469,15.8972723 Z M37.1344594,11.3661308 C36.5817201,10.8953323 35.6395318,10.6206897 34.4723443,10.6206897 C34.042572,10.6206897 33.6124132,10.6599948 33.223093,10.7185516 C32.4657739,10.8557803 31.7695839,11.1111098 31.2164581,11.4640544 C30.5815262,11.8759875 30.2539793,12.3271025 29.9055623,13.2293324 L32.2400661,13.4451099 C32.4038717,12.8960713 32.7522243,12.5231348 33.223093,12.3467242 C33.4484787,12.2684224 33.6940261,12.2288704 33.9605726,12.2288704 C34.7998267,12.2288704 35.148437,12.6409887 35.0252769,13.4451099 L34.9436639,13.9358385 C34.2474095,13.9747735 33.6940261,14.0335153 33.223093,14.0926274 C32.4449036,14.1709292 31.9333251,14.2690996 31.5033595,14.4262587 C30.0902381,14.8576902 29.20963,15.7600435 29.0048569,16.9759745 C28.7590518,18.3883081 29.6804987,19.3103448 31.3388453,19.3103448 C32.0970019,19.3103448 32.6703537,19.1730543 33.223093,18.8201098 C33.5919294,18.6041472 33.9605726,18.2704542 34.3907314,17.8390227 C34.3494418,17.9371931 34.3290869,18.0353635 34.3290869,18.0548001 C34.2474095,18.4866019 34.2474095,18.6041472 34.2675712,19.1337491 L36.7459122,19.1337491 C36.6836235,18.5844021 36.6836235,18.5844021 36.8682994,17.5841868 L37.5237151,13.7986098 C37.7695201,12.3467242 37.6873919,11.8563041 37.1344594,11.3661308 L37.1344594,11.3661308 Z" id="Fill-6" fill="#1A1919"></path>
                            <path d="M37.6551724,9.77097888 L38.1656941,9.77097888 L38.1656941,10.6206897 L38.3694235,10.6206897 L38.3694235,9.77097888 L38.880095,9.77097888 L38.880095,9.65517241 L37.6551724,9.65517241 L37.6551724,9.77097888 Z M40.5517241,10.6205459 L40.5517241,9.65517241 L40.2616345,9.65517241 L39.8332786,10.4712821 L39.8293089,10.4712821 L39.398706,9.65517241 L39.1065941,9.65517241 L39.1065941,10.6205459 L39.3041067,10.6205459 L39.3041067,10.0506208 C39.3041067,10.0221006 39.3000621,9.90020663 39.3000621,9.81105099 L39.3041067,9.81105099 L39.7284929,10.6205459 L39.9300501,10.6205459 L40.3543613,9.80990059 L40.358406,9.80990059 C40.358406,9.90020663 40.3543613,10.0221006 40.3543613,10.0506208 L40.3543613,10.6205459 L40.5517241,10.6205459 L40.5517241,10.6205459 Z" id="Fill-7" fill="#1A1919"></path>
                        </g>
                    </g>
                </g>
            </g>
        </g>
    </g>
</svg>