<?xml version="1.0" encoding="UTF-8"?>
<svg width="249px" height="181px" viewBox="0 0 249 181" version="1.1" xmlns="http://www.w3.org/2000/svg" xmlns:xlink="http://www.w3.org/1999/xlink">
    <!-- Generator: Sketch 48.2 (47327) - http://www.bohemiancoding.com/sketch -->
    <title>Illustration_carrers</title>
    <desc>Created with Sketch.</desc>
    <defs>
        <polygon id="path-1" points="0 102.428571 119.913214 102.428571 119.913214 0.157285714 0 0.157285714"></polygon>
        <path d="M0.0767142857,17.2849286 L0.0767142857,46.6785 L34.2435,46.6785 L34.2435,17.2849286 C34.2435,7.86492857 26.58,0.201642857 17.1602143,0.201642857 C7.74021429,0.201642857 0.0767142857,7.86492857 0.0767142857,17.2849286" id="path-3"></path>
        <path d="M0.0767142857,17.2849286 L0.0767142857,46.6785 L34.2435,46.6785 L34.2435,17.2849286 C34.2435,7.86492857 26.58,0.201642857 17.1602143,0.201642857 C7.74021429,0.201642857 0.0767142857,7.86492857 0.0767142857,17.2849286" id="path-5"></path>
        <path d="M0.0767142857,17.2849286 L0.0767142857,46.6785 L34.2435,46.6785 L34.2435,17.2849286 C34.2435,7.86492857 26.58,0.201642857 17.1602143,0.201642857 C7.74021429,0.201642857 0.0767142857,7.86492857 0.0767142857,17.2849286 Z" id="path-7"></path>
        <path d="M0.0767142857,17.2849286 L0.0767142857,46.6785 L34.2435,46.6785 L34.2435,17.2849286 C34.2435,7.86492857 26.58,0.201642857 17.1602143,0.201642857 C7.74021429,0.201642857 0.0767142857,7.86492857 0.0767142857,17.2849286 Z" id="path-9"></path>
        <path d="M0.0767142857,17.2849286 L0.0767142857,46.6785 L34.2435,46.6785 L34.2435,17.2849286 C34.2435,7.86492857 26.58,0.201642857 17.1602143,0.201642857 C7.74021429,0.201642857 0.0767142857,7.86492857 0.0767142857,17.2849286" id="path-11"></path>
        <polygon id="path-13" points="0.140592857 0.157478571 95.4846429 0.157478571 95.4846429 102.428571 0.140592857 102.428571"></polygon>
    </defs>
    <g id="DG_Career_v2" stroke="none" stroke-width="1" fill="none" fill-rule="evenodd" transform="translate(-555.000000, -2047.000000)">
        <g id="Openings-Copy" transform="translate(316.000000, 2040.000000)">
            <g id="Illustration_carrers" transform="translate(234.000000, 0.000000)">
                <g id="Group-3">
                    <path d="M28.3454223,42.8571429 L211.877205,42.8571429 C220.249073,42.8571429 227.035814,49.6438833 227.035814,58.015752 C227.035814,66.3876207 220.249073,73.1743612 211.877205,73.1743612 L28.3454223,73.1743612 C19.9735537,73.1743612 13.1868132,66.3876207 13.1868132,58.015752 C13.1868132,49.6438833 19.9735537,42.8571429 28.3454223,42.8571429 Z M54.0568614,85.6744333 L237.588644,85.6744333 C245.960512,85.6744333 252.747253,92.4611738 252.747253,100.833042 C252.747253,109.204911 245.960512,115.991652 237.588644,115.991652 L54.0568614,115.991652 C45.6849927,115.991652 38.8982522,109.204911 38.8982522,100.833042 C38.8982522,92.4611738 45.6849927,85.6744333 54.0568614,85.6744333 Z M45.6544658,126.825639 L229.186248,126.825639 C237.558117,126.825639 244.344857,133.612379 244.344857,141.984248 C244.344857,150.356117 237.558117,157.142857 229.186248,157.142857 L45.6544658,157.142857 C37.2825971,157.142857 30.4958567,150.356117 30.4958567,141.984248 C30.4958567,133.612379 37.2825971,126.825639 45.6544658,126.825639 Z" id="Combined-Shape" fill="#0164CF" opacity="0.100000001" transform="translate(132.967033, 100.000000) rotate(-23.000000) translate(-132.967033, -100.000000) "></path>
                    <circle id="Oval-2" fill="#F0F6FD" cx="141.208791" cy="95.0549451" r="87.3626374"></circle>
                    <rect id="Rectangle-7" fill="#55ACEE" x="65.9340659" y="30.7692308" width="27.4725275" height="4.3956044" rx="2.1978022"></rect>
                    <rect id="Rectangle-7-Copy" fill="#55ACEE" x="58.2417582" y="37.3626374" width="27.4725275" height="4.3956044" rx="2.1978022"></rect>
                    <rect id="Rectangle-8" fill="#0164CF" x="223.076923" y="26.3736264" width="24.1758242" height="4.3956044" rx="2.1978022"></rect>
                    <path d="M226.190476,156.959707 L226.190476,151.831502 C226.190476,151.123444 226.76447,150.549451 227.472527,150.549451 C228.180585,150.549451 228.754579,151.123444 228.754579,151.831502 L228.754579,156.959707 L233.882784,156.959707 C234.590841,156.959707 235.164835,157.533701 235.164835,158.241758 C235.164835,158.949816 234.590841,159.52381 233.882784,159.52381 L228.754579,159.52381 L228.754579,164.652015 C228.754579,165.360072 228.180585,165.934066 227.472527,165.934066 C226.76447,165.934066 226.190476,165.360072 226.190476,164.652015 L226.190476,159.52381 L221.062271,159.52381 C220.354214,159.52381 219.78022,158.949816 219.78022,158.241758 C219.78022,157.533701 220.354214,156.959707 221.062271,156.959707 L226.190476,156.959707 Z" id="Combined-Shape" fill="#3C5A99"></path>
                    <path d="M97.6190476,14.1025641 L97.6190476,8.97435897 C97.6190476,8.2663016 98.1930415,7.69230769 98.9010989,7.69230769 C99.6091563,7.69230769 100.18315,8.2663016 100.18315,8.97435897 L100.18315,14.1025641 L105.311355,14.1025641 C106.019413,14.1025641 106.593407,14.676558 106.593407,15.3846154 C106.593407,16.0926728 106.019413,16.6666667 105.311355,16.6666667 L100.18315,16.6666667 L100.18315,21.7948718 C100.18315,22.5029292 99.6091563,23.0769231 98.9010989,23.0769231 C98.1930415,23.0769231 97.6190476,22.5029292 97.6190476,21.7948718 L97.6190476,16.6666667 L92.4908425,16.6666667 C91.7827851,16.6666667 91.2087912,16.0926728 91.2087912,15.3846154 C91.2087912,14.676558 91.7827851,14.1025641 92.4908425,14.1025641 L97.6190476,14.1025641 Z" id="Combined-Shape-Copy" fill="#8D95A5"></path>
                    <circle id="Oval-3" fill="#FFD794" cx="215.384615" cy="50.5494505" r="7.69230769"></circle>
                    <circle id="Oval-4" fill="#DA4B42" cx="61.4945055" cy="150.494505" r="5.49450549"></circle>
                </g>
                <g id="Page-1" transform="translate(73.000000, 35.000000)">
                    <polygon id="Fill-1" fill="#002F70" points="68.6554286 100.866 80.7394286 100.866 80.7394286 61.5945 68.6554286 61.5945"></polygon>
                    <g id="Group-17" transform="translate(0.000000, 0.056786)">
                        <path d="M113.676279,35.6479286 L113.676279,68.4902143 L30.4022786,68.4902143 L30.4022786,35.6479286 C30.4022786,24.6173571 39.3442071,15.6754286 50.3745643,15.6754286 L93.7016357,15.6754286 C98.2121357,15.6754286 102.371636,17.1692143 105.71385,19.6894286 C106.793421,20.5028571 107.78835,21.4238571 108.679993,22.4357143 C109.38135,23.2281429 110.017136,24.0752143 110.583279,24.9709286 C111.138921,25.8435 111.624921,26.7602143 112.038921,27.7172143 C113.092993,30.1489286 113.676279,32.8298571 113.676279,35.6479286" id="Fill-2" fill="#016BFF"></path>
                        <path d="M112.038986,27.7172571 L46.4092714,27.7172571 L46.4092714,24.9709714 L110.583343,24.9709714 C111.138986,25.8433286 111.624771,26.7602571 112.038986,27.7172571" id="Fill-4" fill="#0047AB"></path>
                        <mask id="mask-2" fill="white">
                            <use xlink:href="#path-1"></use>
                        </mask>
                        <g id="Clip-7"></g>
                        <polygon id="Fill-6" fill="#0047AB" mask="url(#mask-2)" points="46.4091429 50.7443571 113.676214 50.7443571 113.676214 42.0827143 46.4091429 42.0827143"></polygon>
                        <path d="M108.679886,22.4357571 L43.1560286,22.4357571 L43.1560286,19.6894714 L105.713743,19.6894714 C106.793314,20.5026857 107.788457,21.4239 108.679886,22.4357571" id="Fill-8" fill="#FFFFFF" mask="url(#mask-2)"></path>
                        <path d="M70.3470214,35.6479286 L70.3470214,58.1385 L30.4022357,58.1385 L30.4022357,35.6479286 C30.4022357,24.618 39.3448071,15.6754286 50.3745214,15.6754286 C61.40445,15.6754286 70.3470214,24.618 70.3470214,35.6479286" id="Fill-9" fill="#016BFF" mask="url(#mask-2)"></path>
                        <path d="M33.2910857,65.3212714 L33.2910857,35.9277 C33.2910857,26.5079143 40.9545857,18.8444143 50.3745857,18.8444143 C59.7943714,18.8444143 67.4576571,26.5079143 67.4576571,35.9277 L67.4576571,65.3212714 L33.2910857,65.3212714 Z" id="Fill-10" fill="#0047AB" mask="url(#mask-2)"></path>
                        <polygon id="Fill-11" fill="#0047AB" mask="url(#mask-2)" points="0 69.969 113.676214 69.969 113.676214 67.2227143 0 67.2227143"></polygon>
                        <polygon id="Fill-12" fill="#0047AB" mask="url(#mask-2)" points="113.676279 58.1385 113.676279 69.969 6.42862484e-05 69.969 6.42862484e-05 67.2227143 30.4022786 67.2227143 30.4022786 68.4902143 70.3470643 68.4902143 70.3470643 58.1385"></polygon>
                        <polygon id="Fill-13" fill="#A4A6A8" mask="url(#mask-2)" points="99.0261429 2.89013571 87.1607143 2.89013571 81.918 2.89013571 80.0845714 2.89013571 80.0845714 39.2351357 87.1607143 39.2351357 87.1607143 13.2716357 99.0261429 13.2716357"></polygon>
                        <polygon id="Fill-14" fill="#FFFFFF" mask="url(#mask-2)" points="99.7334571 2.89013571 87.8680286 2.89013571 82.6253143 2.89013571 81.8041714 2.89013571 81.8041714 39.2351357 87.8680286 39.2351357 87.8680286 13.2716357 99.7334571 13.2716357"></polygon>
                        <path d="M90.4193571,41.2026 C90.4193571,45.0987429 87.7793571,48.2568857 84.5226429,48.2568857 C81.2661429,48.2568857 78.6261429,45.0987429 78.6261429,41.2026 C78.6261429,37.3064571 81.2661429,34.1483143 84.5226429,34.1483143 C87.7793571,34.1483143 90.4193571,37.3064571 90.4193571,41.2026" id="Fill-15" fill="#FFCF31" mask="url(#mask-2)"></path>
                        <path d="M88.1132786,41.2026 C88.1132786,43.5749571 86.5057071,45.4981714 84.5227071,45.4981714 C82.5397071,45.4981714 80.9321357,43.5749571 80.9321357,41.2026 C80.9321357,38.8302429 82.5397071,36.9070286 84.5227071,36.9070286 C86.5057071,36.9070286 88.1132786,38.8302429 88.1132786,41.2026" id="Fill-16" fill="#016BFF" mask="url(#mask-2)"></path>
                    </g>
                    <g id="Group-33" transform="translate(33.214286, 18.699643)">
                        <g id="Group-20">
                            <mask id="mask-4" fill="white">
                                <use xlink:href="#path-3"></use>
                            </mask>
                            <g id="Clip-19"></g>
                            <path d="M46.0099071,16.3307143 L46.0099071,45.3126429 C46.0099071,46.0007143 45.4529786,46.5595714 44.7629786,46.5595714 L4.13933571,46.5595714 C3.87833571,46.5595714 3.63533571,46.4785714 3.43497857,46.3407857 C3.10712143,46.1162143 2.89240714,45.7397143 2.89240714,45.3126429 L2.89240714,16.3307143 C2.89240714,16.0594286 2.97940714,15.8082857 3.12919286,15.6038571 L3.12919286,15.6019286 C3.35397857,15.2882143 3.72233571,15.0857143 4.13933571,15.0857143 L44.7629786,15.0857143 C45.2974071,15.0857143 45.7506214,15.4197857 45.9289071,15.8892857 C45.9814071,16.0270714 46.0099071,16.1747143 46.0099071,16.3307143" id="Fill-18" fill="#FFCF3B" mask="url(#mask-4)"></path>
                        </g>
                        <g id="Group-23">
                            <mask id="mask-6" fill="white">
                                <use xlink:href="#path-5"></use>
                            </mask>
                            <g id="Clip-22"></g>
                            <path d="M46.0099071,16.3307143 L46.0099071,45.3126429 C46.0099071,46.0007143 45.4529786,46.5595714 44.7629786,46.5595714 L4.13933571,46.5595714 C3.87833571,46.5595714 3.63533571,46.4785714 3.43497857,46.3407857 L45.9289071,15.8892857 C45.9814071,16.0270714 46.0099071,16.1747143 46.0099071,16.3307143" id="Fill-21" fill="#FFBC2C" mask="url(#mask-6)"></path>
                        </g>
                        <g id="Group-26">
                            <mask id="mask-8" fill="white">
                                <use xlink:href="#path-7"></use>
                            </mask>
                            <g id="Clip-25"></g>
                            <path d="M46.0099071,16.7870143 L25.0696929,33.3148714 C24.2551929,33.9577286 23.2446214,33.9168 22.4592643,33.2094429 L3.12919286,15.7940143 L3.12919286,15.7912286 C3.35397857,15.3624429 3.72233571,15.0858 4.13933571,15.0858 L44.7629786,15.0858 C45.2974071,15.0858 45.7506214,15.5422286 45.9289071,16.1840143 L46.0099071,16.7870143 Z" id="Fill-24" fill="#D57C28" mask="url(#mask-8)"></path>
                        </g>
                        <g id="Group-29">
                            <mask id="mask-10" fill="white">
                                <use xlink:href="#path-9"></use>
                            </mask>
                            <g id="Clip-28"></g>
                            <path d="M46.0099071,16.3307143 L25.0696929,28.4254286 C24.2551929,28.8957857 23.2446214,28.8662143 22.4592643,28.3482857 L3.12919286,15.6038571 L3.12919286,15.6019286 C3.35397857,15.2882143 3.72233571,15.0857143 4.13933571,15.0857143 L44.7629786,15.0857143 C45.2974071,15.0857143 45.7506214,15.4197857 45.9289071,15.8892857 L46.0099071,16.3307143 Z" id="Fill-27" fill="#FECC37" mask="url(#mask-10)"></path>
                        </g>
                        <g id="Group-32">
                            <mask id="mask-12" fill="white">
                                <use xlink:href="#path-11"></use>
                            </mask>
                            <g id="Clip-31"></g>
                            <path d="M13.6093286,20.0236929 L13.5306857,20.1642643 C13.1844,20.7831214 13.4074714,21.5727643 14.0263286,21.9188357 L19.4171143,24.9349071 C20.0357571,25.2809786 20.8251857,25.0581214 21.1714714,24.4392643 L21.2501143,24.2986929 C21.5964,23.6798357 21.3733286,22.8904071 20.7546857,22.5443357 L15.3639,19.52805 C14.7450429,19.1819786 13.9556143,19.4048357 13.6093286,20.0236929" id="Fill-30" fill="#FFF35A" mask="url(#mask-12)"></path>
                        </g>
                    </g>
                    <g id="Group-43" transform="translate(24.428571, 0.056786)">
                        <mask id="mask-14" fill="white">
                            <use xlink:href="#path-13"></use>
                        </mask>
                        <g id="Clip-35"></g>
                        <polygon id="Fill-34" fill="#016BFF" mask="url(#mask-14)" points="36.2612143 102.428571 64.2147857 102.428571 64.2147857 99.7971429 36.2612143 99.7971429"></polygon>
                        <path d="M5.60616429,7.99534286 C5.60616429,9.50455714 4.38280714,10.7281286 2.87337857,10.7281286 C1.36416429,10.7281286 0.140592857,9.50455714 0.140592857,7.99534286 C0.140592857,6.48612857 1.36416429,5.26255714 2.87337857,5.26255714 C4.38280714,5.26255714 5.60616429,6.48612857 5.60616429,7.99534286" id="Fill-36" fill="#64B5F6" mask="url(#mask-14)"></path>
                        <path d="M27.9328929,88.0602429 C27.9328929,89.5694571 26.7093214,90.7930286 25.2001071,90.7930286 C23.6908929,90.7930286 22.4673214,89.5694571 22.4673214,88.0602429 C22.4673214,86.5510286 23.6908929,85.3274571 25.2001071,85.3274571 C26.7093214,85.3274571 27.9328929,86.5510286 27.9328929,88.0602429" id="Fill-37" fill="#64B5F6" mask="url(#mask-14)"></path>
                        <path d="M44.607,5.97970714 C44.607,7.09292143 43.7046429,7.99527857 42.5914286,7.99527857 C41.4782143,7.99527857 40.5758571,7.09292143 40.5758571,5.97970714 C40.5758571,4.86649286 41.4782143,3.96392143 42.5914286,3.96392143 C43.7046429,3.96392143 44.607,4.86649286 44.607,5.97970714" id="Fill-38" fill="#64B5F6" mask="url(#mask-14)"></path>
                        <path d="M66.2195143,83.9609786 C66.2195143,84.7154786 65.6079429,85.3274786 64.8530143,85.3274786 C64.0985143,85.3274786 63.4867286,84.7154786 63.4867286,83.9609786 C63.4867286,83.2064786 64.0985143,82.5946929 64.8530143,82.5946929 C65.6079429,82.5946929 66.2195143,83.2064786 66.2195143,83.9609786" id="Fill-39" fill="#64B5F6" mask="url(#mask-14)"></path>
                        <path d="M95.4847929,48.2568857 C95.4847929,49.0116 94.8730071,49.6233857 94.1182929,49.6233857 C93.3637929,49.6233857 92.7520071,49.0116 92.7520071,48.2568857 C92.7520071,47.5023857 93.3637929,46.8906 94.1182929,46.8906 C94.8730071,46.8906 95.4847929,47.5023857 95.4847929,48.2568857" id="Fill-40" fill="#64B5F6" mask="url(#mask-14)"></path>
                        <path d="M77.6203929,1.52376429 C77.6203929,2.27847857 77.0086071,2.89005 76.2538929,2.89005 C75.4993929,2.89005 74.8876071,2.27847857 74.8876071,1.52376429 C74.8876071,0.769264286 75.4993929,0.157478571 76.2538929,0.157478571 C77.0086071,0.157478571 77.6203929,0.769264286 77.6203929,1.52376429" id="Fill-41" fill="#64B5F6" mask="url(#mask-14)"></path>
                        <path d="M2.8734,83.9609786 C2.8734,84.7154786 2.26161429,85.3274786 1.50711429,85.3274786 C0.7524,85.3274786 0.140614286,84.7154786 0.140614286,83.9609786 C0.140614286,83.2064786 0.7524,82.5946929 1.50711429,82.5946929 C2.26161429,82.5946929 2.8734,83.2064786 2.8734,83.9609786" id="Fill-42" fill="#64B5F6" mask="url(#mask-14)"></path>
                    </g>
                </g>
            </g>
        </g>
    </g>
</svg>