<?xml version="1.0" encoding="UTF-8"?>
<svg width="161px" height="70px" viewBox="0 0 161 70" version="1.1" xmlns="http://www.w3.org/2000/svg" xmlns:xlink="http://www.w3.org/1999/xlink">
    <!-- Generator: Sketch 59 (86127) - https://sketch.com -->
    <title>ISO_New Copy</title>
    <desc>Created with Sketch.</desc>
    <g id="Home-screen" stroke="none" stroke-width="1" fill="none" fill-rule="evenodd">
        <g id="DG_Home_Nov-2019_v3" transform="translate(-47.000000, -5565.000000)">
            <g id="Footer-Copy-2" transform="translate(0.000000, 5360.000000)">
                <g id="ISO_New-Copy" transform="translate(47.000000, 205.000000)">
                    <rect id="Rectangle" fill="#DBEAFF" x="0" y="0" width="160.186047" height="69.3488372" rx="3.25581395"></rect>
                    <path d="M55.2820676,15.9524891 L55.2820676,31.3953488 L51.2663517,31.3953488 L51.2663517,15.9524891 L55.2820676,15.9524891 Z M67.355923,20.6263626 L63.6263627,20.6263626 L63.6263627,19.4817406 C63.6263627,18.9475809 63.5786706,18.6073772 63.483285,18.4611192 C63.3878993,18.3148612 63.2289256,18.2417333 63.0063591,18.2417333 C62.7647154,18.2417333 62.5818957,18.340297 62.4578943,18.5374273 C62.333893,18.7345577 62.2718932,19.0334282 62.2718932,19.434048 C62.2718932,19.9491305 62.3418417,20.3370263 62.4817406,20.5977471 C62.6019266,20.8323958 62.9204146,21.1108227 63.4372132,21.4330347 L63.6168242,21.5420603 C65.4037154,22.6040206 66.5292492,23.4751965 66.9934594,24.1556141 C67.4576695,24.8360317 67.6897712,25.9329503 67.6897712,27.4464026 C67.6897712,28.5465171 67.5610025,29.357283 67.3034612,29.8787246 C67.0459199,30.4001661 66.5483323,30.8373438 65.8106832,31.1902707 C65.0730342,31.5431976 64.2145762,31.7196584 63.2352835,31.7196584 C62.1606052,31.7196584 61.2433269,31.5161721 60.4834212,31.1091933 C59.7235155,30.7022145 59.2259279,30.1839603 58.9906432,29.554415 C58.7553586,28.9248697 58.6377181,28.0314375 58.6377181,26.8740916 L58.6377181,25.8630087 L62.3672784,25.8630087 L62.3672784,27.7420967 C62.3672784,28.3207696 62.4197397,28.6927681 62.524664,28.8581032 C62.6295882,29.0234383 62.8155874,29.1061047 63.0826672,29.1061047 C63.3497471,29.1061047 63.5484642,29.001182 63.6788246,28.7913336 C63.809185,28.5814851 63.8743642,28.2698967 63.8743642,27.8565589 C63.8743642,26.9472157 63.7503647,26.352654 63.502362,26.0728561 C63.2675665,25.8145811 62.7158052,25.3964706 61.8470633,24.8185135 L61.6232741,24.670694 C60.6249042,24.0093535 59.9635736,23.5292529 59.6392624,23.2303779 C59.3149512,22.9315029 59.0462857,22.5181712 58.8332577,21.9903706 C58.6202298,21.46257 58.5137174,20.7885215 58.5137174,19.9682049 C58.5137174,18.7854229 58.6647424,17.9206059 58.966797,17.3737282 C59.2688515,16.8268505 59.7569008,16.3992112 60.4309594,16.0907976 C61.105018,15.782384 61.9189633,15.6281795 62.8728198,15.6281795 C63.915703,15.6281795 64.804366,15.7966916 65.5388355,16.1337209 C66.273305,16.4707502 66.7597645,16.89521 66.9982286,17.407113 C67.2183494,17.8796389 67.3368744,18.6569361 67.3538065,19.7390254 L67.355923,20.6263626 Z M80.0783977,22.3528343 L80.0783977,24.9950036 L80.0733608,25.9300487 C80.0610484,26.9965955 80.0261632,27.7834277 79.9687047,28.2905614 C79.8955757,28.9360043 79.6666536,29.5257967 79.2819315,30.0599564 C78.8972094,30.594116 78.3773653,31.0042682 77.7223839,31.2904251 C77.0674024,31.5765821 76.3043286,31.7196584 75.4331397,31.7196584 C74.606464,31.7196584 73.8640569,31.5845308 73.2058959,31.3142714 C72.5477349,31.0440121 72.0183524,30.6386292 71.6177327,30.0981105 C71.217113,29.5575918 70.9786524,28.9693891 70.9023439,28.3334847 L70.8738554,28.0536876 C70.8165394,27.3923505 70.7878817,26.3727964 70.7878817,24.9950036 L70.7878817,22.3528343 C70.7878817,20.8012277 70.8244456,19.7027194 70.8975746,19.0572765 C70.9707036,18.4118336 71.1996258,17.8220412 71.5843479,17.2878815 C71.96907,16.7537219 72.488914,16.3435697 73.1438955,16.0574128 C73.798877,15.7712558 74.5619507,15.6281795 75.4331397,15.6281795 C76.2598153,15.6281795 77.0022225,15.7633072 77.6603835,16.0335665 C78.3185445,16.3038258 78.8479269,16.7092088 79.2485467,17.2497275 C79.6491664,17.7902462 79.887627,18.3784489 79.9639355,19.0143532 L79.992424,19.2941503 C80.04974,19.9554875 80.0783977,20.9750416 80.0783977,22.3528343 Z M76.0626818,27.0171693 L76.0626818,19.9205124 C76.0626818,19.2019404 76.0229384,18.7425065 75.9434504,18.5421966 C75.8639623,18.3418867 75.7002194,18.2417333 75.4522167,18.2417333 C75.2423683,18.2417333 75.0818049,18.3228099 74.9705216,18.4849655 C74.869355,18.6323797 74.8141739,19.0412445 74.8049771,19.7115706 L74.8035975,27.1316315 C74.8035975,28.0282567 74.8401615,28.5814851 74.9132905,28.7913336 C74.9864195,29.001182 75.1565213,29.1061047 75.4236012,29.1061047 C75.69704,29.1061047 75.8719111,28.9852846 75.9482196,28.743641 C76.0245282,28.5019973 76.0626818,27.9265125 76.0626818,27.0171693 Z M97.1199131,28.762718 L97.1199131,31.3953488 L88.6401711,31.3953488 L88.6401711,29.1919513 L90.1010449,26.7891877 C91.7394357,24.0760467 92.7452485,22.3349655 93.118505,21.5659066 C93.5922538,20.5897934 93.8291246,19.8283094 93.8291246,19.2814317 C93.8291246,18.8617348 93.7575864,18.5485566 93.6145079,18.3418877 C93.4714295,18.1352188 93.2536355,18.0318859 92.9611195,18.0318859 C92.6686035,18.0318859 92.4508095,18.146347 92.3077311,18.3752725 C92.1646526,18.6041981 92.0931144,19.0588629 92.0931144,19.7392805 L92.0931144,21.2082122 L88.6401711,21.2082122 L88.6401711,20.6454397 C88.6401711,19.7806098 88.6846837,19.0986126 88.7737103,18.5994277 C88.8627369,18.1002428 89.0821207,17.609014 89.431868,17.1257267 C89.7816154,16.6424394 90.2362802,16.2767999 90.795876,16.0287972 C91.3554719,15.7807945 92.0263409,15.6567951 92.8085032,15.6567951 C94.3410327,15.6567951 95.499951,16.0367422 96.2852928,16.7966479 C97.0706347,17.5565536 97.4632997,18.5183445 97.4632997,19.6820494 C97.4632997,20.5659565 97.2423263,21.5007218 96.8003728,22.4863735 L96.6925045,22.71452 C96.1680319,23.7765413 94.9019907,25.7925905 92.8943499,28.762718 L97.1199131,28.762718 Z M107.362373,15.9524891 L107.362373,19.3195858 L104.901436,31.3953488 L101.066952,31.3953488 L103.804506,18.7281977 L99.9986377,18.7281977 L99.9986377,15.9524891 L107.362373,15.9524891 Z M119.263077,20.8683717 L119.264535,26.3303961 L119.258229,26.9370792 C119.23931,27.7998039 119.177822,28.449679 119.073765,28.8867188 C118.946584,29.4208784 118.682688,29.9200558 118.282068,30.384266 C117.881448,30.8484762 117.398168,31.1823209 116.832213,31.3858103 C116.266259,31.5892997 115.633543,31.6910429 114.934048,31.6910429 C114.011987,31.6910429 113.245734,31.5845305 112.635266,31.3715025 C112.024798,31.1584746 111.538338,30.8262196 111.175873,30.3747275 C110.813407,29.9232354 110.55587,29.447904 110.403253,28.9487191 C110.250636,28.4495342 110.174328,27.6562554 110.174328,26.568859 L110.174328,21.1795967 C110.174328,19.76153 110.296738,18.6995857 110.541561,17.9937318 C110.786384,17.287878 111.272844,16.7219316 112.000954,16.2958757 C112.729065,15.8698198 113.611369,15.6567951 114.647893,15.6567951 C115.493646,15.6567951 116.25036,15.8046406 116.91806,16.1003361 C117.58576,16.3960316 118.084937,16.7569019 118.415607,17.1829578 C118.746278,17.6090138 118.97043,18.0891143 119.088073,18.623274 C119.19502,19.1088737 119.253355,19.8572332 119.263077,20.8683717 L119.263077,20.8683717 Z M115.409639,27.7511591 L115.410974,19.8823583 L115.407033,19.4653423 C115.395208,18.8854625 115.356779,18.5109805 115.291743,18.3418877 C115.212255,18.1352188 115.026256,18.0318859 114.73374,18.0318859 C114.447583,18.0318859 114.258404,18.1415778 114.166198,18.3609648 C114.073992,18.5803518 114.027889,19.0874779 114.027889,19.8823583 L114.027889,27.4177871 C114.027889,28.3144122 114.070812,28.8549228 114.156659,29.039335 C114.242506,29.2237473 114.428506,29.315952 114.714663,29.315952 C115.000819,29.315952 115.188408,29.2078499 115.277435,28.9916424 C115.357559,28.7970557 115.401627,28.3835648 115.409639,27.7511591 L115.409639,27.7511591 Z M131.691316,21.1795967 L131.691316,26.3303961 L131.68501,26.9370792 C131.66609,27.7998039 131.604603,28.449679 131.500546,28.8867188 C131.373365,29.4208784 131.109468,29.9200558 130.708849,30.384266 C130.308229,30.8484762 129.824949,31.1823209 129.258994,31.3858103 C128.693039,31.5892997 128.060324,31.6910429 127.360829,31.6910429 C126.438768,31.6910429 125.672514,31.5845305 125.062046,31.3715025 C124.451578,31.1584746 123.965119,30.8262196 123.602653,30.3747275 C123.240188,29.9232354 122.98265,29.447904 122.830033,28.9487191 C122.677416,28.4495342 122.601109,27.6562554 122.601109,26.568859 L122.601109,21.1795967 C122.601109,19.76153 122.723519,18.6995857 122.968342,17.9937318 C123.213165,17.287878 123.699624,16.7219316 124.427735,16.2958757 C125.155845,15.8698198 126.038149,15.6567951 127.074674,15.6567951 C127.920426,15.6567951 128.677141,15.8046406 129.344841,16.1003361 C130.01254,16.3960316 130.511718,16.7569019 130.842388,17.1829578 C131.173058,17.6090138 131.397211,18.0891143 131.514853,18.623274 C131.632496,19.1574336 131.691316,20.0095327 131.691316,21.1795967 Z M127.83642,27.7511591 L127.837755,19.8823583 L127.833813,19.4653423 C127.821989,18.8854625 127.783559,18.5109805 127.718523,18.3418877 C127.639035,18.1352188 127.453036,18.0318859 127.16052,18.0318859 C126.874363,18.0318859 126.685185,18.1415778 126.592978,18.3609648 C126.509155,18.5604075 126.463433,18.9976511 126.455813,19.6727071 L126.45467,27.4177871 C126.45467,28.3144122 126.497593,28.8549228 126.58344,29.039335 C126.669287,29.2237473 126.855286,29.315952 127.141443,29.315952 C127.4276,29.315952 127.615189,29.2078499 127.704216,28.9916424 C127.78434,28.7970557 127.828407,28.3835648 127.83642,27.7511591 L127.83642,27.7511591 Z M140.970386,15.9524891 L140.970386,31.3953488 L137.116825,31.3953488 L137.115299,22.6631523 C137.108685,21.7372778 137.080579,21.1696353 137.030978,20.9602108 C136.973747,20.7185671 136.816363,20.5357473 136.558821,20.411746 C136.30128,20.2877447 135.727385,20.2257449 134.837119,20.2257449 L134.455578,20.2257449 L134.455578,18.4229651 C136.318778,18.0223454 137.733644,17.1988616 138.700219,15.9524891 L140.970386,15.9524891 Z" id="ISO27001" fill="#4A4A4A" fill-rule="nonzero"></path>
                    <path d="M56.6254088,42.2611283 C58.1038864,42.2611283 59.2511466,42.6506138 60.0672238,43.4295967 C60.8833011,44.2085795 61.3363761,45.0935331 61.4264626,46.084484 L59.8844023,46.084484 C59.7095286,45.3319972 59.3611112,44.7358458 58.8391397,44.296012 C58.3171682,43.8561782 57.5845644,43.6362645 56.6413063,43.6362645 C55.4913793,43.6362645 54.5627079,44.0403227 53.8552644,44.8484511 C53.1478208,45.6565796 52.7941043,46.8952496 52.7941043,48.5644985 C52.7941043,49.9316929 53.1133765,51.0405344 53.7519304,51.8910565 C54.3904844,52.7415786 55.3430018,53.1668332 56.6095113,53.1668332 C57.7753359,53.1668332 58.6629391,52.7190573 59.2723474,51.823492 C59.5955988,51.351863 59.8367089,50.7318655 59.995685,49.9634811 L61.5377453,49.9634811 C61.399966,51.1928962 60.9442414,52.2235757 60.1705578,53.0555505 C59.2431973,54.0570998 57.9926042,54.557867 56.4187409,54.557867 C55.062145,54.557867 53.9228335,54.1471849 53.0007722,53.3258085 C51.7872547,52.2394719 51.1805051,50.5622994 51.1805051,48.2942406 C51.1805051,46.5719996 51.6362297,45.1597832 52.5476926,44.0575491 C53.5333443,42.8599292 54.8925695,42.2611283 56.6254088,42.2611283 Z M64.6298147,42.5790789 L73.1429415,42.5790789 L73.1429415,44.0098565 L66.171875,44.0098565 L66.171875,47.5550055 L72.618323,47.5550055 L72.618323,48.9062954 L66.171875,48.9062954 L66.171875,52.8647802 L73.262173,52.8647802 L73.262173,54.255814 L64.6298147,54.255814 L64.6298147,42.5790789 Z M81.7832485,47.9285974 C82.5251369,47.9285974 83.1120149,47.7802219 83.5438999,47.4834666 C83.9757849,47.1867112 84.1917242,46.6514998 84.1917242,45.8778161 C84.1917242,45.0458413 83.8896742,44.4788351 83.285565,44.1767805 C82.9623137,44.0178044 82.5304351,43.9383176 81.9899164,43.9383176 L78.1268169,43.9383176 L78.1268169,47.9285974 L81.7832485,47.9285974 Z M76.5450127,42.5790789 L81.9501726,42.5790789 C82.8404387,42.5790789 83.5743673,42.7089074 84.1519804,42.9685683 C85.2489154,43.4666934 85.7973746,44.3860913 85.7973746,45.7267896 C85.7973746,46.4262844 85.6529735,46.9985897 85.364167,47.4437227 C85.0753604,47.8888558 84.6713023,48.2465466 84.1519804,48.516806 C84.6077118,48.7022781 84.9508301,48.9460377 85.1813454,49.2480923 C85.4118607,49.5501469 85.5403645,50.0403158 85.5668605,50.7186137 L85.6225018,52.2845203 C85.6383994,52.7296534 85.6754933,53.0608486 85.7337845,53.2781159 C85.8291702,53.6490601 85.9987421,53.8875207 86.2425055,53.9935047 L86.2425055,54.255814 L84.3030069,54.255814 C84.2500149,54.1551291 84.2076219,54.0253006 84.1758267,53.8663245 L84.1498715,53.6937228 C84.1334332,53.5544305 84.1187254,53.3666891 84.1057478,53.1304967 L84.0009539,50.9968205 C83.9638594,50.2337353 83.6803563,49.7223699 83.150436,49.4627089 C82.8483815,49.3196305 82.3741099,49.2480923 81.7276072,49.2480923 L78.1268169,49.2480923 L78.1268169,54.255814 L76.5450127,54.255814 L76.5450127,42.5790789 Z M97.3389807,42.5790789 L97.3389807,43.9701126 L93.4043423,43.9701126 L93.4043423,54.255814 L91.7986919,54.255814 L91.7986919,43.9701126 L87.8640534,43.9701126 L87.8640534,42.5790789 L97.3389807,42.5790789 Z M100.160792,42.5790789 L101.758494,42.5790789 L101.758494,54.255814 L100.160792,54.255814 L100.160792,42.5790789 Z M105.494413,42.5790789 L113.594204,42.5790789 L113.594204,44.0098565 L107.076217,44.0098565 L107.076217,47.5550055 L112.807277,47.5550055 L112.807277,48.9460392 L107.076217,48.9460392 L107.076217,54.255814 L105.494413,54.255814 L105.494413,42.5790789 Z M116.662427,42.5790789 L118.260129,42.5790789 L118.260129,54.255814 L116.662427,54.255814 L116.662427,42.5790789 Z M121.996048,42.5790789 L130.509175,42.5790789 L130.509175,44.0098565 L123.538109,44.0098565 L123.538109,47.5550055 L129.984557,47.5550055 L129.984557,48.9062954 L123.538109,48.9062954 L123.538109,52.8647802 L130.628407,52.8647802 L130.628407,54.255814 L121.996048,54.255814 L121.996048,42.5790789 Z M138.203579,52.904524 C138.738799,52.904524 139.178626,52.8488832 139.523074,52.7375999 C140.137782,52.530931 140.641198,52.1334968 141.033339,51.5452852 C141.345992,51.0736562 141.571205,50.4695561 141.708984,49.7329669 C141.788472,49.2931331 141.828216,48.8851006 141.828216,48.5088572 C141.828216,47.0621748 141.540738,45.9387607 140.965775,45.138581 C140.390811,44.3384014 139.46479,43.9383176 138.187682,43.9383176 L135.381768,43.9383176 L135.381768,52.904524 L138.203579,52.904524 Z M133.792015,42.5790789 L138.52153,42.5790789 C140.127188,42.5790789 141.372482,43.1487346 142.257449,44.2880632 C143.04703,45.3161086 143.441815,46.6329407 143.441815,48.2385992 C143.441815,49.4786127 143.208654,50.5993773 142.742324,51.6009266 C141.920947,53.3708604 140.508731,54.255814 138.505632,54.255814 L133.792015,54.255814 L133.792015,42.5790789 Z" id="CERTIFIED" fill="#4D1CF8" fill-rule="nonzero"></path>
                    <g id="Group" transform="translate(8.790698, 14.651163)" fill="#4D1CF8">
                        <path d="M25.6812252,34.893962 C25.0856495,34.7774696 24.6091889,35.1269469 24.3709586,35.5929166 L22.5842314,42 L17.5813953,33.4960529 C21.5121951,33.1465756 25.0856495,31.6321741 27.9444129,29.3023256 L32.2325581,36.6413484 L25.6812252,34.893962 Z" id="Path"></path>
                        <path d="M9.60731986,42 L7.80594739,35.5929166 C7.68585589,35.1269469 7.0853984,34.7774696 6.60503241,34.893962 L0,36.6413484 L4.32329394,29.3023256 C7.2054899,31.6321741 10.8082348,33.1465756 14.6511628,33.4960529 L9.60731986,42 Z" id="Path"></path>
                        <path d="M0,16.1162791 C0,7.24064712 7.24064712,0 16.1162791,0 C24.991911,0 32.2325581,7.24064712 32.2325581,16.1162791 C32.2325581,24.991911 24.991911,32.2325581 16.1162791,32.2325581 C7.24064712,32.2325581 0,24.991911 0,16.1162791 Z M18.2184024,14.0141557 L23.3569262,14.0141557 C23.8240647,14.0141557 24.057634,14.5980789 23.7072801,14.8316481 L19.3862487,17.8680485 L21.0212336,22.8897877 C21.2548028,23.3569262 20.6708797,23.7072801 20.3205258,23.3569262 L16.1162791,20.3205258 L11.9120324,23.3569262 C11.5616785,23.7072801 10.9777553,23.3569262 11.0945399,22.8897877 L12.7295248,17.8680485 L8.52527806,14.8316481 C8.17492417,14.5980789 8.40849343,14.0141557 8.87563195,14.0141557 L14.0141557,14.0141557 L15.6491405,8.99241658 C15.7659252,8.52527806 16.466633,8.52527806 16.5834176,8.99241658 L18.2184024,14.0141557 Z" id="Shape"></path>
                    </g>
                </g>
            </g>
        </g>
    </g>
</svg>