<?xml version="1.0" encoding="UTF-8"?>
<svg width="10px" height="10px" viewBox="0 0 10 10" version="1.1" xmlns="http://www.w3.org/2000/svg" xmlns:xlink="http://www.w3.org/1999/xlink">
    <!-- Generator: sketchtool 49.2 (51160) - http://www.bohemiancoding.com/sketch -->
    <title>7CA64893-B116-4CD1-9EFE-85E6CBDAEACE</title>
    <desc>Created with sketchtool.</desc>
    <defs></defs>
    <g id="Company-Screens" stroke="none" stroke-width="1" fill="none" fill-rule="evenodd">
        <g id="A_DG_Home_Company-NewList_selected_z" transform="translate(-1136.000000, -665.000000)" fill="#FFFFFF">
            <g id="List" transform="translate(465.000000, 384.000000)">
                <g id="L1-Copy-2" transform="translate(0.000000, 220.000000)">
                    <g id="1-copy" transform="translate(18.000000, 15.000000)">
                        <g id="content" transform="translate(75.000000, 0.000000)">
                            <g id="social-logos" transform="translate(575.000000, 43.000000)">
                                <path d="M6.65234926,6.44866502 L8.46089368,6.44866502 L8.46089368,7.28094662 L8.48547583,7.28094662 C8.73832088,6.80335043 9.35287481,6.30117208 10.2729498,6.30117208 C12.1833346,6.30117208 12.53802,7.55837383 12.53802,9.19484314 L12.53802,12.5239696 L10.6522174,12.5239696 L10.6522174,9.57059897 C10.6522174,8.86473989 10.6416822,7.95871181 9.67244285,7.95871181 C8.68915656,7.95871181 8.54166362,8.72778216 8.54166362,9.51792292 L8.54166362,12.5239696 L6.655861,12.5239696 L6.655861,6.44866502 L6.65234926,6.44866502 Z M4.52423329,3.42857143 C5.12825201,3.42857143 5.61989515,3.92021457 5.61989515,4.52423329 C5.61989515,5.12825201 5.12825201,5.61989515 4.52423329,5.61989515 C3.91670283,5.61989515 3.42857143,5.12825201 3.42857143,4.52423329 C3.42857143,3.92021457 3.91670283,3.42857143 4.52423329,3.42857143 Z M3.57606437,12.5239696 L5.46537873,12.5239696 L5.46537873,6.44866502 L3.57606437,6.44866502 L3.57606437,12.5239696 Z" id="ic_linkedin-copy"></path>
                            </g>
                        </g>
                    </g>
                </g>
            </g>
        </g>
    </g>
</svg>