<?xml version="1.0" encoding="UTF-8"?>
<svg width="325px" height="35px" viewBox="0 0 325 35" version="1.1" xmlns="http://www.w3.org/2000/svg" xmlns:xlink="http://www.w3.org/1999/xlink">
    <!-- Generator: sketchtool 59 (101010) - https://sketch.com -->
    <title>79FD9C7E-0B30-471E-B4AA-A488710ADB4B</title>
    <desc>Created with sketchtool.</desc>
    <defs>
        <linearGradient x1="0%" y1="68.0029775%" x2="66.4517007%" y2="68.002975%" id="linearGradient-1">
            <stop stop-color="#0155FF" offset="0%"></stop>
            <stop stop-color="#410093" offset="100%"></stop>
        </linearGradient>
        <path d="M72.9752663,25.7508479 L71.6138109,23.5681459 L70.2524674,21.3856625 C70.2201051,21.3336466 70.2198812,21.2684081 70.2519075,21.2161736 L71.3911942,19.3609753 L72.530257,17.5059955 C72.5974451,17.3967183 72.5167073,17.2578271 72.3862504,17.2578271 L70.2220088,17.2578271 C70.1629952,17.2578271 70.1082369,17.2880968 70.0778903,17.3374901 L69.054727,19.0034204 L68.0316758,20.66946 C68.0170064,20.6931731 67.979605,20.6831196 67.979605,20.6553632 L67.979605,19.0386077 L67.979605,17.4217428 C67.979605,17.3312613 67.9043543,17.2578271 67.8116347,17.2578271 L65.907971,17.2578271 C65.8152514,17.2578271 65.7400007,17.3312613 65.7400007,17.4217428 L65.7400007,20.2265597 L65.7400007,23.031158 L65.7400007,25.8360841 C65.7400007,25.9265656 65.8152514,25.9999999 65.907971,25.9999999 L67.8116347,25.9999999 C67.9043543,25.9999999 67.979605,25.9265656 67.979605,25.8360841 L67.979605,23.8864703 L67.979605,21.937075 C67.979605,21.9094279 68.0167824,21.8992652 68.0315638,21.922869 L69.2784635,23.9220947 L70.5255872,25.9213203 C70.5560458,25.9701672 70.6104682,25.9999999 70.6690338,25.9999999 L72.8318197,25.9999999 C72.9628365,25.9999999 73.0433503,25.8601251 72.9752663,25.7508479 M59.8610394,19.4706895 L59.8610394,20.836654 C59.8610394,20.8517343 59.8735812,20.8639733 59.8890345,20.8639733 L61.3727723,20.8639733 C61.782172,20.8639733 62.1126256,20.5340656 62.1003078,20.1318164 C62.0883259,19.7430082 61.7407393,19.4433703 61.3422017,19.4433703 L59.8890345,19.4433703 C59.8735812,19.4433703 59.8610394,19.4556093 59.8610394,19.4706895 M62.1929154,25.9167307 L61.3871058,24.5247582 L60.5810722,23.1327857 C60.5513974,23.0813162 60.4955193,23.0495165 60.434938,23.0495165 L59.8890345,23.0495165 C59.8735812,23.0495165 59.8610394,23.0617556 59.8610394,23.0768358 L59.8610394,24.45646 L59.8610394,25.8360841 C59.8610394,25.9265656 59.7857887,25.9999999 59.6930691,25.9999999 L57.7894054,25.9999999 C57.6966858,25.9999999 57.6214351,25.9265656 57.6214351,25.8360841 L57.6214351,23.031158 L57.6214351,20.2265597 L57.6214351,17.4217428 C57.6214351,17.3312613 57.6966858,17.2578271 57.7894054,17.2578271 L59.5471589,17.2578271 L61.3049123,17.2578271 C62.1084823,17.2578271 62.851695,17.5626011 63.4015179,18.0630904 C63.9545882,18.5666396 64.312141,19.2680897 64.3385683,20.0563058 C64.3567091,20.5951515 64.2239006,21.1020883 63.978104,21.5402897 C63.7237969,21.994227 63.3482153,22.3744022 62.8942475,22.6395086 C62.8813698,22.6470488 62.8768906,22.6628939 62.8842813,22.6756794 L63.7664614,24.2159409 L64.6485295,25.7560932 C64.7110145,25.8653704 64.6301648,25.9999999 64.5018355,25.9999999 L62.3391616,25.9999999 C62.2785803,25.9999999 62.2227021,25.9682002 62.1929154,25.9167307 M42.3922379,17.4217428 L42.3922379,18.9651734 L42.3922379,20.5088226 C42.3922379,20.5239028 42.3796961,20.5361419 42.3642429,20.5361419 L41.0484753,20.5361419 L39.7327078,20.5361419 C39.7172545,20.5361419 39.7047128,20.5239028 39.7047128,20.5088226 L39.7047128,18.9651734 L39.7047128,17.4217428 C39.7047128,17.3312613 39.629462,17.2578271 39.5367424,17.2578271 L37.6330788,17.2578271 C37.5402472,17.2578271 37.4651085,17.3312613 37.4651085,17.4217428 L37.4651085,20.2265597 L37.4651085,23.031158 L37.4651085,25.8360841 C37.4651085,25.9265656 37.5402472,25.9999999 37.6330788,25.9999999 L39.5367424,25.9999999 C39.629462,25.9999999 39.7047128,25.9265656 39.7047128,25.8360841 L39.7047128,24.2925442 L39.7047128,22.7490043 C39.7047128,22.7339241 39.7172545,22.7216851 39.7327078,22.7216851 L41.0484753,22.7216851 L42.3642429,22.7216851 C42.3796961,22.7216851 42.3922379,22.7339241 42.3922379,22.7490043 L42.3922379,24.2925442 L42.3922379,25.8360841 C42.3922379,25.9265656 42.4673766,25.9999999 42.5602082,25.9999999 L44.4638719,25.9999999 C44.5565915,25.9999999 44.6318422,25.9265656 44.6318422,25.8360841 L44.6318422,23.031158 L44.6318422,20.2265597 L44.6318422,17.4217428 C44.6318422,17.3312613 44.5565915,17.2578271 44.4638719,17.2578271 L42.5602082,17.2578271 C42.4673766,17.2578271 42.3922379,17.3312613 42.3922379,17.4217428 M33.8884604,20.5660838 C33.5771554,20.438011 32.815466,20.1055898 32.815466,19.7762285 C32.815466,19.4313498 33.522621,19.4434795 33.8257515,19.4433703 C34.428653,19.4431517 35.2126264,19.5458722 35.8737576,19.6390857 C35.9749877,19.653401 36.0653558,19.5766884 36.0653558,19.4768091 L36.0653558,17.6036893 C36.0653558,17.521185 36.0025349,17.4512476 35.9187737,17.4408663 C35.0365935,17.3304964 34.1537415,17.2578271 33.4898108,17.2578271 C32.6536546,17.2578271 31.8947647,17.4854514 31.3145952,18.0516163 C30.86813,18.4873044 30.5783253,19.099475 30.5783253,19.8804789 C30.5783253,20.6377696 30.8712655,21.177271 31.2821209,21.5782089 C31.790959,22.0748735 32.4806451,22.3586663 33.0183741,22.5798433 C33.913544,22.9483259 34.1476946,23.1020789 34.162476,23.3507937 C34.1897992,23.8125989 33.3948516,23.8145659 32.9299098,23.8144567 C32.3938605,23.8143474 31.6814423,23.6879137 31.0087772,23.5355813 C30.9032918,23.5116496 30.8022857,23.5892364 30.8022857,23.6950167 L30.8022857,25.5390688 C30.8022857,25.6165463 30.8578279,25.6835332 30.9356541,25.6994877 C31.6774111,25.8509458 32.436413,25.9999999 33.04189,25.9999999 C34.0268679,25.9999999 34.9962807,25.8114968 35.6930216,25.1315743 C36.1539321,24.6817895 36.4012964,24.0778146 36.4012964,23.377348 C36.4012964,22.5837773 36.0876398,22.0155361 35.656852,21.5951468 C35.1228183,21.074004 34.4087205,20.7801578 33.8884604,20.5660838 M29.906444,25.8360841 L29.906444,25.071144 C29.906444,24.9806625 29.8311933,24.9072283 29.7384736,24.9072283 L28.5411812,24.9072283 L27.3436648,24.9072283 L26.1464843,24.9072283 C26.0135638,24.9072283 25.933274,24.7638566 26.0050533,24.6546887 L27.2954013,22.6941472 C27.7093922,22.0650386 28.168623,21.3671947 28.5857493,20.7333871 L29.8760973,18.7728456 C30.3067732,18.1182754 29.8252583,17.2578271 29.0280712,17.2578271 L27.6224955,17.2578271 L26.2168079,17.2578271 L24.8113442,17.2578271 C24.7185126,17.2578271 24.6433739,17.3312613 24.6433739,17.4217428 L24.6433739,18.1866829 C24.6433739,18.2771644 24.7185126,18.3505987 24.8113442,18.3505987 L26.0459261,18.3505987 L27.2805079,18.3505987 L28.5152018,18.3505987 C28.6481223,18.3505987 28.7284121,18.4939703 28.6566328,18.6030289 L27.3662848,20.5636797 C26.9522939,21.1928976 26.4930631,21.8906323 26.0759368,22.5244398 L24.7857007,24.4850906 C24.3549128,25.1395515 24.8365397,25.9999999 25.6336149,25.9999999 L27.0019012,25.9999999 L28.3700754,25.9999999 L29.7384736,25.9999999 C29.8311933,25.9999999 29.906444,25.9265656 29.906444,25.8360841 M23.7475322,18.1866829 L23.7475322,17.4217428 C23.7475322,17.3312613 23.6722815,17.2578271 23.5795618,17.2578271 L21.7038932,17.2578271 L19.8282246,17.2578271 C19.271571,17.2578271 18.8204027,17.698214 18.8204027,18.2413215 L18.8204027,20.4997526 L18.8204027,22.7580744 L18.8204027,25.0165054 C18.8204027,25.5596129 19.271571,25.9999999 19.8282246,25.9999999 L21.7038932,25.9999999 L23.5795618,25.9999999 C23.6722815,25.9999999 23.7475322,25.9265656 23.7475322,25.8360841 L23.7475322,25.071144 C23.7475322,24.9806625 23.6722815,24.9072283 23.5795618,24.9072283 L22.0397219,24.9072283 L20.5001059,24.9072283 C20.1908166,24.9072283 19.9402049,24.662666 19.9402049,24.3608425 L19.9402049,23.2270919 L19.9402049,22.0933414 C19.9402049,22.0782611 19.9527466,22.0660221 19.9681999,22.0660221 L23.131641,22.0660221 C23.2243606,22.0660221 23.2996113,21.9925878 23.2996113,21.9021064 L23.2996113,21.1371662 C23.2996113,21.0466847 23.2243606,20.9732505 23.131641,20.9732505 L19.9681999,20.9732505 C19.9527466,20.9732505 19.9402049,20.9610115 19.9402049,20.9459312 L19.9402049,19.9215671 L19.9402049,18.8969845 C19.9402049,18.5952702 20.1908166,18.3505987 20.5001059,18.3505987 L22.0397219,18.3505987 L23.5795618,18.3505987 C23.6722815,18.3505987 23.7475322,18.2771644 23.7475322,18.1866829 M7.94152485,22.1752993 L9.24161514,22.1752993 L10.5417054,22.1752993 C10.5602941,22.1752993 10.5736198,22.1581427 10.5686927,22.1406584 L10.0487685,20.3057856 L9.54015439,18.5109082 C9.51327914,18.416165 9.42492675,18.3505987 9.32425654,18.3505987 L9.15897374,18.3505987 C9.05830353,18.3505987 8.96995114,18.416165 8.94318787,18.5109082 L8.43457373,20.3057856 L7.9146496,22.1406584 C7.90972247,22.1581427 7.92304811,22.1752993 7.94152485,22.1752993 M11.6282495,25.879795 L11.2610663,24.5838771 L10.8938832,23.2880686 C10.8905238,23.2762666 10.8794378,23.2680709 10.866896,23.2680709 L9.24161514,23.2680709 L7.61644628,23.2680709 C7.60379252,23.2680709 7.59281846,23.2762666 7.58945905,23.2880686 L7.22227593,24.5838771 L6.8550928,25.879795 C6.83493637,25.9508251 6.76864408,25.9999999 6.69316941,25.9999999 L5.87907325,25.9999999 C5.76810086,25.9999999 5.68758709,25.8967329 5.71714986,25.7923733 L6.28824896,23.7790509 C6.46271413,23.1641483 6.66103109,22.4648837 6.85934805,21.7655099 C7.05766501,21.0664639 7.25598197,20.3673086 7.43055913,19.751969 L7.93346227,17.978947 C8.05428892,17.5528754 8.45170671,17.2578271 8.90477865,17.2578271 L9.57856361,17.2578271 C10.0316356,17.2578271 10.4289414,17.5528754 10.54988,17.978947 L11.0527831,19.751969 C11.2273603,20.3673086 11.4256772,21.0664639 11.6238822,21.7655099 C11.8223112,22.4648837 12.0206281,23.1641483 12.1949813,23.7790509 L12.7660804,25.7923733 C12.7957552,25.8967329 12.7152414,25.9999999 12.604157,25.9999999 L11.7900609,25.9999999 C11.7145862,25.9999999 11.6484059,25.9508251 11.6282495,25.879795 M2.94832707,20.9814463 C1.84465008,20.4146257 1.11980215,19.9933622 1.11980215,19.3340931 C1.11980215,18.5385554 1.88126761,18.3505987 2.68752515,18.3505987 C3.40587823,18.3505987 4.12725477,18.409499 4.84650369,18.5128752 C4.94795777,18.5274091 5.03910966,18.45168 5.03910966,18.3514729 L5.03910966,17.5782277 C5.03910966,17.4963791 4.97707262,17.4264417 4.89409528,17.4150769 C4.15659359,17.3141048 3.4292821,17.2578271 2.68752515,17.2578271 C1.90892672,17.2578271 1.12428136,17.3975925 0.561468797,17.9467103 C0.200668545,18.2989106 0,18.7721899 0,19.3340931 C0,19.9577378 0.267968654,20.4348419 0.66740208,20.8245243 C1.14410185,21.2897172 1.80780859,21.6306619 2.42672323,21.9485492 C3.52054597,22.510343 4.25524816,22.9016645 4.25524816,23.7051795 C4.25524816,24.7317291 3.51113963,24.9072283 2.46356472,24.9072283 C1.72180778,24.9072283 0.905360036,24.8323734 0.423733132,24.7415641 C0.319815493,24.7218942 0.223960429,24.7990439 0.223960429,24.9023108 L0.223960429,25.6793807 C0.223960429,25.7598087 0.283309943,25.8278883 0.364495599,25.8412201 C0.905695977,25.9298439 1.66872916,25.9998906 2.46356472,25.9999999 C3.26780663,26.0001091 4.10889002,25.9362913 4.73642714,25.3237928 C5.16016027,24.910288 5.37505031,24.3289335 5.37505031,23.5959023 C5.37505031,23.0089747 5.13854809,22.5259697 4.70764823,22.1054712 C4.23094845,21.6402783 3.56724172,21.2993335 2.94832707,20.9814463 M56.704989,25.757186 C56.1824894,24.8086603 55.8175458,23.8769632 55.5752207,22.9777214 C55.2952701,21.9386049 55.1792586,20.9427622 55.1734357,20.0142341 C55.1666049,18.9169822 55.3136349,17.9138178 55.5263973,17.0444088 C55.8324392,15.7931853 56.2744251,14.8189794 56.5888656,14.2403568 C56.654262,14.1198241 56.5472089,13.9778731 56.4098092,14.0028976 C54.9061389,14.2756534 53.4720083,14.6500369 52.17203,15.2253812 C50.8254679,15.8212695 49.6228004,16.6326524 48.6354708,17.7698998 C47.7728872,18.7634478 47.0748026,20.0057105 46.5888084,21.5702316 C46.211995,22.7835359 45.9627271,24.1905886 45.8634006,25.8257028 C45.8575776,25.9198997 45.934844,25.9999999 46.0315949,25.9999999 L48.1688493,25.9999999 C48.2612329,25.9999999 48.3354758,25.9268934 48.3359237,25.8367398 C48.3406269,24.970609 48.4232683,24.1236017 48.5878792,23.313093 C48.7606647,22.4620425 49.0237062,21.6513153 49.3818189,20.9013461 C49.7529214,20.1240577 50.2259258,19.4118984 50.8060953,18.7873795 C51.3774184,18.1722583 52.052771,17.6422641 52.8369685,17.2189244 C52.9592509,17.1528117 53.1079606,17.2528003 53.0852286,17.3874298 C52.9645139,18.1034137 52.9027009,18.8280306 52.8958701,19.5533031 C52.8889273,20.2785756 52.9371908,21.0043945 53.0367412,21.7226733 C53.1366275,22.4428097 53.2880248,23.1551876 53.4872376,23.8519387 C53.6879061,24.5537166 53.9370621,25.2396494 54.2310102,25.901104 C54.2577734,25.9612065 54.3190266,25.9999999 54.3861028,25.9999999 L56.558071,25.9999999 C56.6857285,25.9999999 56.7654584,25.8669003 56.704989,25.757186 M15.1250556,24.9072283 L16.6646716,24.9072283 L18.2045115,24.9072283 C18.2972311,24.9072283 18.3724818,24.9806625 18.3724818,25.071144 L18.3724818,25.8360841 C18.3724818,25.9265656 18.2972311,25.9999999 18.2045115,25.9999999 L16.3288429,25.9999999 L14.4531743,25.9999999 C13.8965207,25.9999999 13.4453524,25.5596129 13.4453524,25.0165054 L13.4453524,22.4848815 L13.4453524,19.9533668 L13.4453524,17.4217428 C13.4453524,17.3312613 13.5204911,17.2578271 13.6133227,17.2578271 L14.3971842,17.2578271 C14.4899038,17.2578271 14.5651545,17.3312613 14.5651545,17.4217428 L14.5651545,19.7347032 L14.5651545,22.0477728 L14.5651545,24.3608425 C14.5651545,24.662666 14.8157663,24.9072283 15.1250556,24.9072283" id="path-2"></path>
    </defs>
    <g id="Home-screen" stroke="none" stroke-width="1" fill="none" fill-rule="evenodd">
        <g id="Login-Page" transform="translate(-521.000000, -30.000000)">
            <g id="Logo_header" transform="translate(521.000000, 30.000000)">
                <g id="Logo">
                    <g id="Group-36">
                        <path d="M36.8644709,10.9545523 C36.032843,10.1370523 35.052436,9.48751744 33.9549942,9.02548256 C32.8500523,8.55908721 31.6598198,8.32309884 30.4142965,8.32309884 C29.1685988,8.32309884 27.9689477,8.56571512 26.8521453,9.0446686 C25.7451105,9.51525 24.7591221,10.1771686 23.9267965,11.009843 C23.097436,11.838157 22.4351686,12.813157 21.9584826,13.9076337 C21.4793547,15.0125756 21.2355174,16.2050756 21.2355174,17.4526919 C21.2355174,18.7003081 21.4793547,19.8947267 21.9562151,21.0082151 C22.431157,22.1175174 23.0922035,23.0989709 23.9226105,23.9295523 C24.7517965,24.7576919 25.7322035,25.4197849 26.8425523,25.8945523 C27.9562151,26.3717616 29.1516802,26.6142035 30.3994709,26.6142035 L32.2974942,26.6142035 L32.2974942,22.3175756 L30.3994709,22.3175756 C29.732843,22.3175756 29.1026686,22.1878081 28.5256919,21.9321105 C27.9326686,21.6704826 27.411157,21.3146686 26.9735407,20.8805407 C26.5360988,20.4439709 26.1804593,19.9224593 25.917436,19.33275 C25.6619128,18.7599593 25.5331919,18.1318779 25.5331919,17.4675174 C25.5331919,16.803157 25.6619128,16.1708895 25.9197035,15.5853663 C26.1825523,14.9871105 26.5381919,14.4633314 26.9735407,14.024843 C27.409064,13.5924593 27.927436,13.2434477 28.5140058,12.9942035 C29.0951686,12.7451337 29.73075,12.6195523 30.3994709,12.6195523 C31.0688895,12.6195523 31.708657,12.7470523 32.3027267,12.9962965 C32.8988895,13.2455407 33.4216221,13.5945523 33.8548779,14.026936 C34.2883081,14.4612384 34.6362733,14.980657 34.8884826,15.5747267 C35.1377267,16.164436 35.2633081,16.803157 35.2633081,17.4737965 L35.2633081,26.6142035 L39.5609826,26.6142035 L39.5609826,17.4526919 C39.5609826,16.1857151 39.3173198,14.9764709 38.8381919,13.8629826 C38.361157,12.7514128 37.6967965,11.7743198 36.8644709,10.9545523" id="Fill-1" fill="#1E2533"></path>
                        <path d="M71.316314,10.9545523 C70.484686,10.1370523 69.5065465,9.48751744 68.4089302,9.02548256 C67.303814,8.55908721 66.1114884,8.32309884 64.8680581,8.32309884 C63.6204419,8.32309884 62.4227093,8.56571512 61.305907,9.0446686 C60.1988721,9.51525 59.2130581,10.1771686 58.3805581,11.009843 C57.5513721,11.838157 56.8870116,12.813157 56.4122442,13.9076337 C55.9332907,15.0125756 55.6894535,16.2050756 55.6894535,17.4526919 C55.6894535,18.7003081 55.9310233,19.8947267 56.4099767,21.0082151 C56.8849186,22.1175174 57.5459651,23.0989709 58.3763721,23.9295523 C59.2036395,24.7576919 60.1861395,25.4197849 61.2933488,25.8945523 C62.4078837,26.3717616 63.6054419,26.6142035 64.8509651,26.6142035 L66.7512558,26.6142035 L66.7512558,22.3175756 L64.8509651,22.3175756 C64.1867791,22.3175756 63.5566047,22.1878081 62.9794535,21.9321105 C62.3864302,21.6704826 61.8659651,21.3146686 61.4274767,20.8805407 C60.9898605,20.4439709 60.6342209,19.9224593 60.3713721,19.33275 C60.1158488,18.7599593 59.9850349,18.1318779 59.9850349,17.4675174 C59.9850349,16.803157 60.1158488,16.1708895 60.3734651,15.5853663 C60.6364884,14.9871105 60.9898605,14.4633314 61.4274767,14.024843 C61.8628256,13.5924593 62.3811977,13.2434477 62.9677674,12.9942035 C63.5492791,12.7451337 64.182593,12.6195523 64.8509651,12.6195523 C65.5228256,12.6195523 66.162593,12.7470523 66.7564884,12.9962965 C67.3528256,13.2455407 67.8732907,13.5945523 68.308814,14.026936 C68.7420698,14.4612384 69.0902093,14.980657 69.3403256,15.5747267 C69.5914884,16.164436 69.7181163,16.803157 69.7181163,17.4737965 L69.7181163,26.6142035 L74.0147442,26.6142035 L74.0147442,17.4526919 C74.0147442,16.1857151 73.7721279,14.9764709 73.2919535,13.8629826 C72.8152674,12.7514128 72.150907,11.7743198 71.316314,10.9545523" id="Fill-3" fill="#1E2533"></path>
                        <path d="M87.9708314,8.97650581 C86.8529826,8.49964535 85.6468779,8.25912209 84.3792035,8.25912209 C83.1335058,8.25912209 81.9378663,8.49964535 80.8233314,8.97650581 C79.7162965,9.45127326 78.7336221,10.1114477 77.9042616,10.9416802 C77.071936,11.7741802 76.411936,12.7579012 75.9382151,13.8630174 C75.4580407,14.9785988 75.217343,16.172843 75.217343,17.4185407 C75.217343,18.7087151 75.4580407,19.9287733 75.9382151,21.0422616 C76.411936,22.151564 77.0740291,23.1309244 77.9065291,23.9505174 C78.7358895,24.7660988 79.7162965,25.4196453 80.8233314,25.8945872 C81.9357733,26.3716221 83.1335058,26.6142384 84.3792035,26.6142384 L88.3592035,26.6142384 L88.3592035,22.3176105 L84.3792035,22.3176105 C83.7317616,22.3176105 83.1089128,22.1942965 82.529843,21.9450523 C81.9434477,21.6938895 81.4194942,21.342436 80.9724593,20.8974942 C80.5243779,20.4483663 80.1643779,19.9181337 79.9013547,19.3198779 C79.6416453,18.7256337 79.5150174,18.1104593 79.5150174,17.4354593 C79.5150174,16.7714477 79.6439128,16.1367384 79.9013547,15.5513895 C80.1643779,14.9531337 80.5243779,14.4249942 80.9724593,13.9756919 C81.4194942,13.53075 81.9434477,13.1772035 82.529843,12.9283081 C83.1089128,12.679064 83.7317616,12.5534826 84.3792035,12.5534826 C85.0719942,12.5534826 85.7244942,12.679064 86.3154244,12.9302267 C86.9094942,13.1772035 87.4301337,13.5284826 87.8633895,13.9692384 C88.3008314,14.4164477 88.6521105,14.9445872 88.9024012,15.5405756 C89.1525174,16.1325523 89.2791453,16.7714477 89.2791453,17.4398198 L89.2791453,25.7093547 C89.2791453,26.3779012 89.1525174,27.0208081 88.9024012,27.6148779 C88.6521105,28.2089477 88.3039709,28.7327267 87.8707151,29.1672035 C87.4353663,29.6013314 86.9117616,29.9484244 86.3154244,30.1997616 C85.7244942,30.4488314 85.0719942,30.5766802 84.3600174,30.5766802 C83.5050174,30.5977849 82.7897267,30.5510407 82.2521686,30.4444709 C81.7461802,30.342436 81.3300174,30.1997616 81.0212965,30.0187151 C80.7361221,29.8526686 80.519843,29.6651686 80.3740291,29.4609244 C80.198564,29.2181337 80.0567616,28.9563314 79.9526337,28.6751686 L79.8185058,28.0898198 L75.217343,28.0898198 L75.224843,29.1010988 C75.3322849,29.9867965 75.6624593,30.806564 76.210657,31.5389477 C76.7292035,32.2352267 77.4028081,32.8441221 78.217343,33.3443547 C79.0114709,33.8341221 79.9503663,34.2174942 81.0087384,34.4813895 C82.049843,34.7391802 83.1846105,34.8710407 84.3792035,34.8710407 C85.6468779,34.8710407 86.8529826,34.6305174 87.9708314,34.153657 C89.0780407,33.6787151 90.0584477,33.0164477 90.8878081,32.1862151 C91.7182151,31.3559826 92.3782151,30.3743547 92.85525,29.2671453 C93.3321105,28.153657 93.5747267,26.9548779 93.5747267,25.7093547 L93.5747267,17.4185407 C93.5747267,16.172843 93.3321105,14.9785988 92.85525,13.8630174 C92.3782151,12.7558081 91.7182151,11.7741802 90.8878081,10.9416802 C90.0584477,10.1114477 89.0780407,9.45127326 87.9708314,8.97650581 Z" id="Fill-5" fill="#016BFF"></path>
                        <path d="M108.914843,17.5250581 C108.914843,18.1892442 108.786994,18.8258721 108.52711,19.4155814 C108.263215,20.0119186 107.905483,20.5355233 107.458448,20.972093 C107.007052,21.4128488 106.479087,21.770407 105.878564,22.0344767 C105.299494,22.29 104.66932,22.4218605 104.000773,22.4218605 C103.310948,22.4218605 102.65932,22.29 102.067343,22.0322093 C101.467169,21.770407 100.939029,21.4147674 100.496006,20.974186 C100.066064,20.5418023 99.7126919,20.0159302 99.4613547,19.4178488 C99.2143779,18.8258721 99.0867035,18.1827907 99.0867035,17.5100581 L99.0867035,8.26116279 L94.7858895,8.26116279 L94.7858895,17.4908721 C94.7858895,18.7599419 95.0328663,19.9712791 95.5266453,21.0868605 C96.0122267,22.1921512 96.6764128,23.1715116 97.5026337,23.9996512 C98.3286802,24.8256977 99.3038547,25.4923256 100.411064,25.9777326 C101.522285,26.4694186 102.731703,26.7186628 104.000773,26.7186628 C105.244203,26.7186628 106.445076,26.4737791 107.569203,25.9904651 C108.684785,25.5092442 109.672692,24.8513372 110.498738,24.0252907 C111.324785,23.2032558 111.989145,22.2282558 112.474727,21.1212209 C112.96432,20.0033721 113.215483,18.7939535 113.215483,17.5250581 L113.215483,13.5392442 L108.914843,13.5392442 L108.914843,17.5250581 Z" id="Fill-7" fill="#016BFF"></path>
                        <path d="M120.009174,9.11284884 C118.914872,9.58761628 117.944058,10.2455233 117.109465,11.0757558 C116.283419,11.9061628 115.619058,12.8813372 115.15057,13.9756395 C114.665163,15.0807558 114.422372,16.2709884 114.422372,17.5186047 L114.422372,26.6483721 L118.719,26.6483721 L118.719,17.5377907 C118.719,16.8671512 118.846674,16.2305233 119.093651,15.6385465 C119.344988,15.0446512 119.689988,14.5229651 120.124291,14.0907558 C120.554233,13.6585465 121.06964,13.3112791 121.665802,13.0623837 C122.253244,12.8131395 122.89214,12.6875581 123.551965,12.6875581 L124.459291,12.6875581 L124.459291,8.38883721 L123.551965,8.38883721 C122.308709,8.38883721 121.116558,8.63372093 120.009174,9.11284884" id="Fill-9" fill="#016BFF"></path>
                        <polygon id="Fill-11" fill="#1E2533" points="54.4676337 1.73148837 40.7612965 1.73148837 40.7612965 5.76404651 45.5986221 5.76404651 45.5986221 19.6795116 49.6304826 19.6795116 49.6304826 5.76404651 54.4676337 5.76404651"></polygon>
                        <polygon id="Fill-13" fill="#016BFF" points="45.5987791 26.6633721 49.6304651 26.6633721 49.6304651 22.630814 45.5987791 22.630814"></polygon>
                        <path d="M141.987785,10.5797442 L139.03261,13.5328256 L139.799006,13.5328256 L139.799006,17.5184651 C139.799006,18.1828256 139.671331,18.8215465 139.411622,19.4093372 C139.147727,20.0074186 138.78982,20.5313721 138.342785,20.9679419 C137.887029,21.4106163 137.359238,21.7681744 136.75889,22.0303256 C136.183831,22.2877674 135.553483,22.4177093 134.884936,22.4177093 C134.190924,22.4177093 133.543831,22.2856744 132.947494,22.0280581 C132.351331,21.7662558 131.819006,21.4106163 131.380692,20.9721279 C130.950401,20.5355581 130.596855,20.0140465 130.345866,19.4114302 C130.090343,18.8215465 129.96668,18.1786395 129.96668,17.5036395 L129.96668,8.25910465 L125.670052,8.25910465 L125.670052,17.4844535 C125.670052,18.7577093 125.921564,19.9671279 126.406797,21.0849767 C126.896564,22.1876512 127.556738,23.1670116 128.382785,23.993407 C129.213017,24.823814 130.188192,25.488 131.291041,25.9753256 C132.402436,26.4631744 133.616215,26.7143372 134.884936,26.7143372 C136.128366,26.7143372 137.329238,26.4694535 138.449355,25.986314 C139.569122,25.5070116 140.548483,24.845093 141.37889,24.0230581 C142.204936,23.2011977 142.873483,22.2220116 143.35889,21.1146279 C143.844645,19.9990465 144.091448,18.7896279 144.091448,17.5184651 L144.091448,13.5328256 L144.938773,13.5328256 L141.987785,10.5797442 Z" id="Fill-15" fill="#016BFF"></path>
                        <path d="M18.7970581,7.73734884 C18.0017093,6.1000814 16.9743837,4.68624419 15.7480465,3.54293023 C14.5238023,2.4017093 13.1612442,1.51601163 11.6943837,0.913395349 C10.2198488,0.306593023 8.79851163,0.000139534884 7.47013953,0.000139534884 L-3.48837209e-05,0.000139534884 L-3.48837209e-05,4.22856977 L6.73984884,4.22856977 C8.12490698,4.22856977 9.38525581,4.49037209 10.4849651,5.00577907 C11.601593,5.52938372 12.5629884,6.2192093 13.3421163,7.05816279 C14.1224651,7.90130233 14.7390349,8.87647674 15.1689767,9.96223256 C15.6001395,11.0417093 15.8185116,12.1679302 15.8185116,13.3072326 C15.8185116,14.6526977 15.5659535,15.8940349 15.0688605,16.9989767 C14.5684535,18.1105465 13.8894419,19.074907 13.0525814,19.8627558 C12.2104884,20.6525233 11.2269419,21.2785116 10.1326395,21.7215349 C9.04252326,22.1622907 7.90112791,22.3857209 6.73984884,22.3857209 L2.94868605,22.3857209 L2.94868605,21.6873488 L0.100081395,24.5383953 L2.94868605,27.3913605 L2.94868605,26.6802558 L7.47013953,26.6802558 C9.02961628,26.6802558 10.584907,26.3354302 12.0880465,25.6558953 C13.5754884,24.9812442 14.9230465,24.0421744 16.0888605,22.8648488 C17.2546744,21.6873488 18.2083953,20.2757791 18.9259535,18.6662442 C19.6487442,17.0417093 20.0160698,15.2617674 20.0160698,13.3733372 C20.0160698,11.2993256 19.6049651,9.40444186 18.7970581,7.73734884" id="Fill-16" fill="#1E2533"></path>
                        <path d="M172.720378,23.6601977 L170.882355,23.6601977 L170.882355,19.2362442 C170.882355,18.4553721 170.774215,17.9153721 170.557064,17.617814 C170.345669,17.3136279 169.960901,17.162407 169.402238,17.162407 C168.794738,17.162407 168.36375,17.3624651 168.109273,17.7643256 C167.859506,18.1593837 167.735145,18.8506047 167.735145,19.8379884 L167.735145,23.6601977 L165.897122,23.6601977 L165.897122,15.7391512 L167.735145,15.7391512 L167.735145,16.471186 C168.375087,15.8368256 169.09561,15.5197326 169.898285,15.5197326 C170.819913,15.5197326 171.538692,15.809093 172.053401,16.3897326 C172.498343,16.8826395 172.720378,17.6877558 172.720378,18.8050814 L172.720378,23.6601977 Z M163.506192,13.2993837 C163.278401,13.5320581 162.999506,13.649093 162.668459,13.649093 C162.337587,13.649093 162.056076,13.5320581 161.822878,13.2993837 C161.589331,13.0668837 161.473169,12.7822326 161.473169,12.4456047 C161.473169,12.1250233 161.589331,11.8485698 161.822878,11.6160698 C162.056076,11.3833953 162.335145,11.2663605 162.660436,11.2663605 C162.991483,11.2663605 163.27282,11.3833953 163.506192,11.6160698 C163.739564,11.843686 163.856076,12.1234535 163.856076,12.4538023 C163.856076,12.7838023 163.739564,13.0668837 163.506192,13.2993837 L163.506192,13.2993837 Z M161.749797,23.6601977 L163.579448,23.6601977 L163.579448,15.7391512 L161.749797,15.7391512 L161.749797,23.6601977 Z M157.679215,23.3176395 C157.444971,23.5475233 157.168343,23.6601977 156.844622,23.6601977 C156.516715,23.6601977 156.239913,23.5475233 156.005843,23.3176395 C155.771424,23.0896744 155.652297,22.8109535 155.652297,22.487407 C155.652297,22.1635116 155.771424,21.8847907 156.005843,21.6482791 C156.239913,21.4143837 156.516715,21.2989186 156.844622,21.2989186 C157.168343,21.2989186 157.444971,21.4143837 157.679215,21.6482791 C157.917645,21.8847907 158.036948,22.1635116 158.036948,22.487407 C158.036948,22.8109535 157.917645,23.0896744 157.679215,23.3176395 L157.679215,23.3176395 Z M172.127878,8.25903488 L156.244622,8.25903488 C151.168692,8.25903488 147.051017,12.3725233 147.051017,17.4482791 L147.051017,17.4760116 C147.051017,22.5540349 151.168692,26.6675233 156.244622,26.6675233 L172.127878,26.6675233 C177.203634,26.6675233 181.321308,22.5540349 181.321308,17.4760116 L181.321308,17.4482791 C181.321308,12.3725233 177.203634,8.25903488 172.127878,8.25903488 L172.127878,8.25903488 Z" id="Fill-17" fill="#016BFF"></path>
                    </g>
                    <g id="Tag-Line" transform="translate(192.000000, 0.000000)">
                        <path d="M0.837890625,2.10986328 L2.10009766,2.10986328 L6.08544922,8.50146484 L6.08544922,2.10986328 L7.10058594,2.10986328 L7.10058594,10 L5.90283203,10 L1.85839844,3.61376953 L1.85839844,10 L0.837890625,10 L0.837890625,2.10986328 Z M10.9355469,9.37695312 C11.5765006,9.37695312 12.0160307,9.13436115 12.2541504,8.64916992 C12.4922701,8.16397869 12.6113281,7.62418917 12.6113281,7.02978516 C12.6113281,6.4926731 12.5253915,6.05582851 12.3535156,5.71923828 C12.0813788,5.18928771 11.612308,4.92431641 10.9462891,4.92431641 C10.3554658,4.92431641 9.92578259,5.14990009 9.65722656,5.60107422 C9.38867053,6.05224835 9.25439453,6.59651374 9.25439453,7.23388672 C9.25439453,7.84619447 9.38867053,8.35644327 9.65722656,8.76464844 C9.92578259,9.1728536 10.3518851,9.37695312 10.9355469,9.37695312 Z M10.9731445,4.08105469 C11.7143592,4.08105469 12.3409805,4.32812253 12.8530273,4.82226562 C13.3650742,5.31640872 13.6210938,6.04328947 13.6210938,7.00292969 C13.6210938,7.93034318 13.3955101,8.69661156 12.9443359,9.30175781 C12.4931618,9.90690407 11.7931363,10.2094727 10.8442383,10.2094727 C10.0528932,10.2094727 9.42448149,9.94181583 8.95898438,9.40649414 C8.49348726,8.87117245 8.26074219,8.15234826 8.26074219,7.25 C8.26074219,6.28319829 8.50601968,5.51334922 8.99658203,4.94042969 C9.48714438,4.36751016 10.145992,4.08105469 10.9731445,4.08105469 Z M15.2163086,4.24755859 L16.3227539,8.78076172 L17.4453125,4.24755859 L18.5302734,4.24755859 L19.6582031,8.75390625 L20.8344727,4.24755859 L21.8012695,4.24755859 L20.1308594,10 L19.1264648,10 L17.9555664,5.54736328 L16.8222656,10 L15.8178711,10 L14.1582031,4.24755859 L15.2163086,4.24755859 Z" id="Now" fill="#016BFF" fill-rule="nonzero"></path>
                        <path d="M80.8881836,18.2685547 L80.8881836,24.375 L82.690918,24.375 C83.6134486,24.375 84.2566714,23.9200892 84.6206055,23.0102539 C84.8194997,22.5109025 84.9189453,21.9163446 84.9189453,21.2265625 C84.9189453,20.2744093 84.7697769,19.5433782 84.4714355,19.0334473 C84.1730942,18.5235163 83.5795943,18.2685547 82.690918,18.2685547 L80.8881836,18.2685547 Z M83.0209961,16.6435547 C83.6007516,16.6520183 84.0831686,16.7197259 84.4682617,16.8466797 C85.1241895,17.0625011 85.6552714,17.4581677 86.0615234,18.0336914 C86.3873714,18.4991885 86.6095372,19.0027642 86.7280273,19.5444336 C86.8465175,20.086103 86.9057617,20.6023738 86.9057617,21.0932617 C86.9057617,22.3374086 86.6560897,23.391109 86.1567383,24.2543945 C85.4796516,25.4181373 84.4344146,26 83.0209961,26 L78.9902344,26 L78.9902344,16.6435547 L83.0209961,16.6435547 Z M90.0922852,18.2558594 L88.2578125,18.2558594 L88.2578125,16.5864258 L90.0922852,16.5864258 L90.0922852,18.2558594 Z M88.2578125,19.0810547 L90.0922852,19.0810547 L90.0922852,26 L88.2578125,26 L88.2578125,19.0810547 Z M93.253418,23.7910156 C93.2915041,24.1126318 93.3740228,24.3411452 93.5009766,24.4765625 C93.7252615,24.7177746 94.1399709,24.8383789 94.7451172,24.8383789 C95.1005877,24.8383789 95.3830556,24.7854823 95.5925293,24.6796875 C95.802003,24.5738927 95.9067383,24.4152029 95.9067383,24.2036133 C95.9067383,24.0004873 95.8221037,23.8460292 95.652832,23.7402344 C95.4835604,23.6344396 94.8551487,23.4524752 93.7675781,23.1943359 C92.9846966,22.9996735 92.432456,22.7563491 92.1108398,22.4643555 C91.7892237,22.1765936 91.628418,21.7618842 91.628418,21.2202148 C91.628418,20.5812143 91.8791479,20.0321475 92.3806152,19.572998 C92.8820826,19.1138486 93.5877233,18.8842773 94.4975586,18.8842773 C95.3608442,18.8842773 96.064369,19.0567203 96.6081543,19.4016113 C97.1519396,19.7465024 97.4640295,20.3421182 97.5444336,21.1884766 L95.7353516,21.1884766 C95.7099608,20.955728 95.644369,20.7716478 95.5385742,20.6362305 C95.33968,20.3907865 95.0011417,20.2680664 94.5229492,20.2680664 C94.1293926,20.2680664 93.8490405,20.3294265 93.6818848,20.4521484 C93.514729,20.5748704 93.4311523,20.7187492 93.4311523,20.8837891 C93.4311523,21.0911469 93.5200186,21.2413732 93.6977539,21.3344727 C93.8754892,21.4318039 94.5039009,21.5989571 95.5830078,21.8359375 C96.3024125,22.0052092 96.8419578,22.2612288 97.2016602,22.6040039 C97.5571307,22.9510108 97.7348633,23.384763 97.7348633,23.9052734 C97.7348633,24.5908237 97.4799016,25.1504698 96.9699707,25.5842285 C96.4600398,26.0179872 95.6718803,26.2348633 94.6054688,26.2348633 C93.5178982,26.2348633 92.7149277,26.005292 92.1965332,25.5461426 C91.6781387,25.0869931 91.4189453,24.5019567 91.4189453,23.7910156 L93.253418,23.7910156 Z M103.206543,21.5629883 C103.172689,21.304849 103.085938,21.0721039 102.946289,20.8647461 C102.743163,20.5854478 102.427899,20.4458008 102.000488,20.4458008 C101.39111,20.4458008 100.974285,20.7483694 100.75,21.3535156 C100.63151,21.6751318 100.572266,22.1025364 100.572266,22.6357422 C100.572266,23.1435572 100.63151,23.551919 100.75,23.8608398 C100.965821,24.4363636 101.372067,24.7241211 101.96875,24.7241211 C102.391929,24.7241211 102.692382,24.6098644 102.870117,24.3813477 C103.047852,24.1528309 103.155762,23.8566099 103.193848,23.4926758 L105.041016,23.4926758 C104.998698,24.0428087 104.799806,24.5633113 104.444336,25.0541992 C103.877276,25.8455443 103.037278,26.2412109 101.924316,26.2412109 C100.811355,26.2412109 99.9925156,25.9111361 99.4677734,25.2509766 C98.9430312,24.590817 98.6806641,23.733892 98.6806641,22.6801758 C98.6806641,21.4910422 98.9705375,20.5664096 99.550293,19.90625 C100.130048,19.2460904 100.929845,18.9160156 101.949707,18.9160156 C102.817224,18.9160156 103.527097,19.1106751 104.079346,19.5 C104.631595,19.8893249 104.958496,20.5769807 105.060059,21.5629883 L103.206543,21.5629883 Z M109.408203,24.7241211 C109.937177,24.7241211 110.343423,24.5358092 110.626953,24.1591797 C110.910483,23.7825502 111.052246,23.2472365 111.052246,22.5532227 C111.052246,21.8592088 110.910483,21.324953 110.626953,20.9504395 C110.343423,20.5759259 109.937177,20.3886719 109.408203,20.3886719 C108.879229,20.3886719 108.471925,20.5759259 108.186279,20.9504395 C107.900633,21.324953 107.757812,21.8592088 107.757812,22.5532227 C107.757812,23.2472365 107.900633,23.7825502 108.186279,24.1591797 C108.471925,24.5358092 108.879229,24.7241211 109.408203,24.7241211 Z M112.950195,22.5532227 C112.950195,23.5688527 112.658206,24.437415 112.074219,25.1589355 C111.490231,25.8804561 110.603684,26.2412109 109.414551,26.2412109 C108.225417,26.2412109 107.33887,25.8804561 106.754883,25.1589355 C106.170896,24.437415 105.878906,23.5688527 105.878906,22.5532227 C105.878906,21.5545197 106.170896,20.6891313 106.754883,19.9570312 C107.33887,19.2249312 108.225417,18.8588867 109.414551,18.8588867 C110.603684,18.8588867 111.490231,19.2249312 112.074219,19.9570312 C112.658206,20.6891313 112.950195,21.5545197 112.950195,22.5532227 Z M118.510742,19.0810547 L120.453125,19.0810547 L117.958496,26 L116.047852,26 L113.565918,19.0810547 L115.597168,19.0810547 L117.038086,24.1845703 L118.510742,19.0810547 Z M124.20459,20.3886719 C123.785642,20.3886719 123.460857,20.5198555 123.230225,20.7822266 C122.999592,21.0445977 122.854655,21.4000629 122.79541,21.8486328 L125.607422,21.8486328 C125.577799,21.3704403 125.432863,21.0075696 125.172607,20.7600098 C124.912352,20.5124499 124.589683,20.3886719 124.20459,20.3886719 Z M124.20459,18.8969727 C124.780114,18.8969727 125.2985,19.0048817 125.759766,19.2207031 C126.221031,19.4365245 126.601887,19.7771787 126.902344,20.2426758 C127.173178,20.6531596 127.348795,21.1292291 127.429199,21.6708984 C127.475749,21.9882828 127.494792,22.4453095 127.486328,23.0419922 L122.750977,23.0419922 C122.776367,23.7360061 122.994301,24.2226549 123.404785,24.5019531 C123.654461,24.6754566 123.954914,24.762207 124.306152,24.762207 C124.67855,24.762207 124.981119,24.6564138 125.213867,24.4448242 C125.340821,24.3305658 125.452962,24.171876 125.550293,23.96875 L127.397461,23.96875 C127.350911,24.3792338 127.137209,24.7960591 126.756348,25.2192383 C126.163897,25.8920932 125.334478,26.2285156 124.268066,26.2285156 C123.387854,26.2285156 122.611331,25.9449898 121.938477,25.3779297 C121.265622,24.8108696 120.929199,23.8883527 120.929199,22.6103516 C120.929199,21.4127544 121.232826,20.4944693 121.840088,19.8554688 C122.44735,19.2164682 123.235509,18.8969727 124.20459,18.8969727 Z M132.264526,18.9226608 L132.509705,18.9168091 L132.509705,18.9168091 L132.704102,18.9287109 L132.704102,18.9287109 L132.704102,20.7822266 C132.589843,20.7695312 132.488282,20.7610677 132.399414,20.7568359 L132.183594,20.7504883 L132.183594,20.7504883 C131.455726,20.7504883 130.966961,20.9874651 130.717285,21.4614258 C130.577636,21.7280287 130.507812,22.1385063 130.507812,22.6928711 L130.507812,26 L128.686035,26 L128.686035,19.0810547 L130.412598,19.0810547 L130.412598,20.2871094 C130.691896,19.825844 130.93522,19.5105803 131.142578,19.3413086 C131.438804,19.0932198 131.812783,18.9536715 132.264526,18.9226608 L132.264526,18.9226608 Z" id="Discover" fill="#016BFF" fill-rule="nonzero"></path>
                        <g id="logo_full-copy">
                            <use fill="url(#linearGradient-1)" xlink:href="#path-2"></use>
                            <use fill="#FFFFFF" xlink:href="#path-2"></use>
                            <use fill="#016BFF" xlink:href="#path-2"></use>
                        </g>
                    </g>
                </g>
            </g>
        </g>
    </g>
</svg>