<?xml version="1.0" encoding="UTF-8"?>
<svg width="177px" height="32px" viewBox="0 0 177 32" version="1.1" xmlns="http://www.w3.org/2000/svg" xmlns:xlink="http://www.w3.org/1999/xlink">
    <!-- Generator: Sketch 47 (45396) - http://www.bohemiancoding.com/sketch -->
    <title>ic_header_logo</title>
    <desc>Created with Sketch.</desc>
    <defs>
        <polygon id="path-1" points="12.5390713 0.051862069 0.0333241379 0.051862069 0.0333241379 18.0158284 12.5390713 18.0158284 12.5390713 0.051862069"></polygon>
        <polygon id="path-3" points="0 31.9481379 176.563126 31.9481379 176.563126 0.122605364 0 0.122605364"></polygon>
    </defs>
    <g id="Page-1" stroke="none" stroke-width="1" fill="none" fill-rule="evenodd">
        <g id="DG_Home_Blue" transform="translate(-70.000000, -58.000000)">
            <g id="Header-tabs" transform="translate(70.000000, 20.000000)">
                <g id="ic_header_logo" transform="translate(0.000000, 38.000000)">
                    <path d="M168.176993,24.4632521 L153.684916,24.4632521 C149.053376,24.4632521 145.29871,20.7085854 145.29871,16.0770452 L145.29871,16.0524015 C145.29871,11.4209839 149.053376,7.66631724 153.684916,7.66631724 L168.176993,7.66631724 C172.808411,7.66631724 176.563077,11.4209839 176.563077,16.0524015 L176.563077,16.0770452 C176.563077,20.7085854 172.808411,24.4632521 168.176993,24.4632521 Z" id="Fill-1" fill="#000000"></path>
                    <path d="M14.3680858,3.36470805 C13.251764,2.32342069 12.0074421,1.51618697 10.6698176,0.96617931 C9.32446897,0.412738697 8.02803985,0.13234023 6.81608582,0.13234023 L8.58237548e-05,0.13234023 L8.58237548e-05,3.99134406 L6.1504613,3.99134406 C7.41329655,3.99134406 8.56296705,4.2300567 9.56685977,4.70012567 C10.5852199,5.17755096 11.4617257,5.80749732 12.1718559,6.57194176 C12.8846835,7.33969655 13.4460935,8.23066973 13.8405149,9.22021762 C14.2332199,10.2073134 14.4324536,11.2345011 14.4324536,12.273459 C14.4324536,13.5002483 14.2025686,14.6332444 13.7488061,15.6408153 C13.2914881,16.6561103 12.6722084,17.5350682 11.908377,18.2530452 C11.1396414,18.9764169 10.243764,19.5471448 9.24538851,19.9496582 C8.25020077,20.351436 7.2086682,20.5552061 6.1504613,20.5552061 L2.57479847,20.5552061 L2.57479847,24.4748996 L6.81608582,24.4748996 C8.23916628,24.4748996 9.6566069,24.160049 11.0290513,23.5392981 C12.3867831,22.9249226 13.6147985,22.0684015 14.6791356,20.9927847 C15.7422467,19.9191295 16.6128674,18.6306697 17.2668444,17.1627157 C17.9268291,15.6811525 18.2612966,14.0565088 18.2612966,12.3339034 C18.2612966,10.4422253 17.8873502,8.71250881 17.1495111,7.19269272 C16.4227065,5.69702989 15.4868598,4.40918314 14.3680858,3.36470805" id="Fill-3" fill="#000000"></path>
                    <path d="M35.2239326,10.1267985 C34.4648828,9.38049962 33.5718253,8.7881931 32.5705073,8.36655326 C31.5628138,7.94197088 30.4755494,7.72667586 29.3403464,7.72667586 C28.2019556,7.72667586 27.1084383,7.94748812 26.0900782,8.38322759 C25.0790743,8.81577931 24.1811126,9.4189977 23.4214498,10.1766989 C22.6636261,10.9328061 22.0593042,11.8230437 21.6252812,12.8219096 C21.1879479,13.8292352 20.9660322,14.9171126 20.9660322,16.0553808 C20.9660322,17.1919326 21.1868444,18.2838559 21.6224613,19.300377 C22.0561165,20.3113808 22.6595801,21.2075034 23.4163004,21.9636107 C24.1728981,22.7209441 25.0693885,23.3244077 26.0801471,23.7573272 C27.0965456,24.1933119 28.188469,24.4143693 29.3252659,24.4143693 L31.0586605,24.4143693 L31.0586605,20.4947985 L29.3252659,20.4947985 C28.7180015,20.4947985 28.1429824,20.3767295 27.6176184,20.1437793 C27.0761931,19.9033502 26.5996261,19.5800398 26.2011586,19.182308 C25.8014651,18.783718 25.4772966,18.3091126 25.2376031,17.7706299 C25.0041625,17.2479632 24.8856031,16.6756414 24.8856031,16.0705839 C24.8856031,15.4639326 25.0045303,14.8856031 25.2399326,14.3506759 C25.4787678,13.8054498 25.8023234,13.3270437 26.2015264,12.9288215 C26.5981548,12.5329287 27.0710437,12.2162391 27.6065839,11.9874575 C28.1370973,11.7608828 28.7151816,11.6462467 29.3252659,11.6462467 C29.936331,11.6462467 30.5211586,11.7618636 31.0623387,11.9889287 C31.6059709,12.2182008 32.0825379,12.5346452 32.4786759,12.9299249 C32.8749364,13.325082 33.1918713,13.8001778 33.4212659,14.3423387 C33.6489441,14.8808215 33.7645609,15.4631969 33.7645609,16.0731586 L33.7645609,24.4143693 L37.6841318,24.4143693 L37.6841318,16.0553808 C37.6841318,14.8994575 37.4624613,13.7972352 37.0256184,12.7801011 C36.5907372,11.7673808 35.9845762,10.8749364 35.2239326,10.1267985" id="Fill-5" fill="#000000"></path>
                    <path d="M69.8394728,10.1267985 C69.080423,9.38049962 68.1874881,8.7881931 67.1861701,8.36655326 C66.178354,7.94197088 65.0910897,7.72667586 63.9558866,7.72667586 C62.8174958,7.72667586 61.7239785,7.94748812 60.7056184,8.38322759 C59.6946146,8.81577931 58.7966529,9.4189977 58.03699,10.1766989 C57.2792889,10.9328061 56.6748444,11.8230437 56.2408215,12.8219096 C55.8036107,13.8292352 55.5815724,14.9171126 55.5815724,16.0553808 C55.5815724,17.1919326 55.8023847,18.2838559 56.2381241,19.300377 C56.6717793,20.3113808 57.2751203,21.2075034 58.0318406,21.9636107 C58.7884383,22.7209441 59.6849287,23.3244077 60.6956874,23.7573272 C61.7120858,24.1933119 62.8040092,24.4143693 63.9408061,24.4143693 L65.6742008,24.4143693 L65.6742008,20.4947985 L63.9408061,20.4947985 C63.3335418,20.4947985 62.7585226,20.3767295 62.2331586,20.1437793 C61.6917333,19.9033502 61.2152889,19.5800398 60.8168215,19.182308 C60.4170054,18.783718 60.0929594,18.3091126 59.8531433,17.7706299 C59.6197027,17.2479632 59.5011433,16.6756414 59.5011433,16.0705839 C59.5011433,15.4639326 59.6200705,14.8856031 59.8554728,14.3506759 C60.094308,13.8054498 60.4179862,13.3270437 60.8170667,12.9288215 C61.213695,12.5329287 61.6865839,12.2162391 62.2221241,11.9874575 C62.7527602,11.7608828 63.3307218,11.6462467 63.9408061,11.6462467 C64.5518713,11.6462467 65.1366989,11.7618636 65.6778789,11.9889287 C66.2216337,12.2182008 66.6980782,12.5346452 67.0942161,12.9299249 C67.4904766,13.325082 67.8074115,13.8001778 68.0368061,14.3423387 C68.2644843,14.8808215 68.3802238,15.4631969 68.3802238,16.0731586 L68.3802238,24.4143693 L72.2997946,24.4143693 L72.2997946,16.0553808 C72.2997946,14.8994575 72.0781241,13.7972352 71.6412812,12.7801011 C71.2065226,11.7673808 70.6002391,10.8749364 69.8394728,10.1267985" id="Fill-7" fill="#000000"></path>
                    <path d="M89.2864368,10.1164996 C88.5292261,9.35928889 87.6332261,8.75570268 86.6228352,8.32266054 C85.6057011,7.88704368 84.5038467,7.66635402 83.3479234,7.66635402 C82.2114943,7.66635402 81.1199387,7.88704368 80.103295,8.32266054 C79.0929042,8.75545747 78.1964138,9.35904368 77.4388352,10.1167448 C76.6816245,10.8745686 76.0782835,11.7709364 75.645364,12.7805916 C75.2096245,13.7977257 74.9888123,14.8895264 74.9888123,16.0250973 C74.9888123,17.201741 75.2096245,18.3140169 75.645364,19.3302927 C76.0787739,20.3422774 76.6837088,21.2348444 77.4431264,21.9832276 C78.1982529,22.7280552 79.0931494,23.3248981 80.1030498,23.7573272 C81.1193257,24.1933119 82.211249,24.4143693 83.3479234,24.4143693 L85.154023,24.4143693 L85.154023,20.4947985 L83.3479234,20.4947985 C82.7573333,20.4947985 82.1891801,20.3801625 81.6597701,20.1542008 C81.1248429,19.9256644 80.6468046,19.6038253 80.239387,19.1973885 C79.8302529,18.7893579 79.5016705,18.3059249 79.2624674,17.7598406 C79.0242452,17.2180475 78.9083831,16.6555341 78.9083831,16.040423 C78.9083831,15.4340169 79.0273103,14.8555648 79.2629579,14.3202697 C79.5016705,13.7752889 79.8302529,13.2917333 80.239387,12.8837027 C80.6468046,12.4773885 81.1250881,12.1555494 81.6597701,11.927013 C82.1894253,11.7005609 82.7577011,11.5858023 83.3479234,11.5858023 C83.9798314,11.5858023 84.5747126,11.7012966 85.1152797,11.9284843 C85.6564598,12.1566529 86.1310651,12.4762851 86.525364,12.8778176 C86.9255479,13.2862161 87.2448123,13.7685456 87.4742069,14.3116874 C87.7021303,14.8510284 87.8177471,15.433649 87.8177471,16.0432429 L87.8177471,23.5892352 C87.8177471,24.2003004 87.7018851,24.7848828 87.4737165,25.326308 C87.2453027,25.8687142 86.9281226,26.3451586 86.5318621,26.7422774 C86.1348659,27.1384153 85.6580536,27.4558406 85.1150345,27.68499 C84.5747126,27.913036 83.9804444,28.0286529 83.3286743,28.0288981 C82.5500077,28.0476567 81.8977471,28.0065839 81.4073257,27.9087448 C80.9444904,27.8160552 80.5666207,27.6854805 80.2842605,27.5211893 C80.0242146,27.3694038 79.8252261,27.1982467 79.692567,27.0127448 C79.5340383,26.7905839 79.4050575,26.5492966 79.3100383,26.2948904 L79.1866973,25.7593502 L74.9888123,25.7593502 L74.9948199,26.6835494 C75.0924138,27.4905379 75.3948812,28.2389211 75.8938851,28.908469 C76.3671418,29.5434421 76.9834789,30.097741 77.72659,30.5554268 C78.4502069,31.0004843 79.3068506,31.3488061 80.2734713,31.5910743 C81.2225594,31.8280705 82.2569808,31.9481011 83.3479234,31.9481011 C84.5038467,31.9481011 85.6057011,31.7274115 86.6228352,31.291672 C87.6332261,30.8586299 88.5292261,30.2551663 89.286682,29.4975877 C90.0436475,28.7400092 90.6473563,27.8440092 91.0807663,26.8341088 C91.5165057,25.8168521 91.737318,24.7251739 91.737318,23.5892352 L91.737318,16.0250973 C91.737318,14.8895264 91.5165057,13.7977257 91.0805211,12.7801011 C90.6471111,11.7703234 90.0436475,10.8739556 89.2864368,10.1164996" id="Fill-9" fill="#016BFF"></path>
                    <path d="M107.32415,16.119859 C107.32415,16.7273686 107.204365,17.3080276 106.968349,17.8458973 C106.729759,18.3903877 106.402158,18.8681808 105.993882,19.2666483 C105.582051,19.6691617 105.097392,19.9955372 104.552779,20.2367019 C104.025085,20.470633 103.448472,20.5894375 102.839246,20.5894375 C102.207951,20.5894375 101.615154,20.4698973 101.075323,20.233882 C100.527154,19.9941885 100.045928,19.6700199 99.644518,19.269223 C99.2475218,18.8727172 98.9292383,18.3950467 98.6986176,17.8481042 C98.4702038,17.3074146 98.3540966,16.7217287 98.3540966,16.1075985 L98.3540966,7.67014253 L94.4345257,7.67014253 L94.4345257,16.0894529 C94.4345257,17.2492996 94.6613456,18.3533609 95.1078743,19.3713533 C95.5507249,20.3796598 96.1567632,21.2735755 96.9101732,22.0280889 C97.6644414,22.7838284 98.5568858,23.3914605 99.5616368,23.8336981 C100.578035,24.2816981 101.680503,24.5090084 102.839246,24.5090084 C103.973346,24.5090084 105.068211,24.2856215 106.09356,23.8447326 C107.111798,23.4072766 108.010985,22.8044261 108.765499,22.0531004 C109.519767,21.3031234 110.126786,20.4110467 110.569637,19.4017594 C111.016901,18.3830314 111.243721,17.2790927 111.243721,16.119859 L111.243721,12.4836291 L107.32415,12.4836291 L107.32415,16.119859 Z" id="Fill-11" fill="#016BFF"></path>
                    <path d="M119.036677,8.44529042 C118.037689,8.87820996 117.147574,9.48118314 116.391344,10.2376582 C115.634624,10.9941333 115.031651,11.8844935 114.598976,12.883482 C114.162379,13.8910529 113.941076,14.9785625 113.941076,16.1159724 L113.941076,24.4448 L117.860647,24.4448 L117.860647,16.1339954 C117.860647,15.522072 117.975651,14.9392061 118.202593,14.4006008 C118.429903,13.8588077 118.744754,13.3839571 119.13844,12.9891678 C119.532616,12.5940107 120.005995,12.2774437 120.545091,12.0493977 C121.083084,11.8219648 121.663375,11.7068383 122.269658,11.7068383 L123.094915,11.7068383 L123.094915,7.78714483 L122.269658,7.78714483 C121.132003,7.78714483 120.044371,8.00844751 119.036677,8.44529042" id="Fill-13" fill="#016BFF"></path>
                    <path d="M138.681539,12.479767 L138.681539,16.1159969 C138.681539,16.7235065 138.561998,17.3042881 138.325983,17.8420352 C138.087393,18.3865257 137.759546,18.8643188 137.35127,19.2627862 C136.939684,19.6652996 136.45478,19.9917977 135.910167,20.2328398 C135.382474,20.4668935 134.806106,20.5855755 134.19688,20.5855755 C133.565585,20.5855755 132.972543,20.4661579 132.432711,20.2300199 C131.884543,19.9903264 131.403316,19.6661579 131.001907,19.2654835 C130.60491,18.8688552 130.286627,18.3911847 130.056006,17.8442421 C129.827592,17.3035525 129.711485,16.7178667 129.711485,16.103859 L129.711485,7.66628046 L125.791914,7.66628046 L125.791914,16.0855908 C125.791914,17.2454375 126.018734,18.3494989 126.465263,19.3674912 C126.908113,20.3757977 127.514397,21.2697134 128.267562,22.0243494 C129.022075,22.7799663 129.914274,23.3875985 130.91927,23.829836 C131.935424,24.2779586 133.038136,24.5051464 134.19688,24.5051464 C135.330979,24.5051464 136.425845,24.2817594 137.450949,23.8408705 C138.469431,23.4034146 139.368374,22.8006866 140.122887,22.0492383 C140.877156,21.2993839 141.484175,20.4071847 141.92727,19.3978973 C142.37429,18.3791693 142.60111,17.2752307 142.60111,16.1159969 L142.60111,12.479767 L138.681539,12.479767 Z" id="Fill-15" fill="#016BFF"></path>
                    <g id="Group-19" transform="translate(40.337165, 0.070743)">
                        <mask id="mask-2" fill="white">
                            <use xlink:href="#path-1"></use>
                        </mask>
                        <g id="Clip-18"></g>
                        <polygon id="Fill-17" fill="#000000" mask="url(#mask-2)" points="12.5390713 0.0518130268 0.0333241379 0.0518130268 0.0333241379 3.72997395 4.44711724 3.72997395 4.44711724 18.0158284 8.12527816 18.0158284 8.12527816 3.72997395 12.5390713 3.72997395"></polygon>
                    </g>
                    <mask id="mask-4" fill="white">
                        <use xlink:href="#path-3"></use>
                    </mask>
                    <g id="Clip-21"></g>
                    <polygon id="Fill-20" fill="#016BFF" mask="url(#mask-4)" points="44.7843065 24.4586667 48.4624674 24.4586667 48.4624674 20.7805057 44.7843065 20.7805057"></polygon>
                    <polygon id="Fill-22" fill="#016BFF" mask="url(#mask-4)" points="143.372273 12.4798897 140.67753 9.78514636 137.982909 12.4798897"></polygon>
                    <polygon id="Fill-23" fill="#000000" mask="url(#mask-4)" points="2.69184981 25.1217778 0.0910222222 22.5209502 2.69184981 19.9201226"></polygon>
                    <path d="M152.623828,19.767013 C152.83802,19.5528215 153.092794,19.445787 153.388763,19.445787 C153.684487,19.445787 153.939507,19.5528215 154.153821,19.767013 C154.36789,19.9812046 154.475047,20.2362238 154.475047,20.5319479 C154.475047,20.8279172 154.36789,21.0802391 154.153821,21.2892812 C153.939507,21.4982008 153.684487,21.6029057 153.388763,21.6029057 C153.092794,21.6029057 152.83802,21.4982008 152.623828,21.2892812 C152.409637,21.0802391 152.302602,20.8279172 152.302602,20.5319479 C152.302602,20.2362238 152.409637,19.9812046 152.623828,19.767013" id="Fill-24" fill="#FFFFFF" mask="url(#mask-4)"></path>
                    <path d="M157.259366,10.8478897 C157.473434,10.6336981 157.728331,10.5266636 158.024178,10.5266636 C158.319902,10.5266636 158.574921,10.6336981 158.789235,10.8478897 C159.003427,11.0620812 159.110461,11.317223 159.110461,11.6128245 C159.110461,11.9087939 159.003427,12.1635678 158.789235,12.3777594 C158.574921,12.591951 158.319902,12.699108 158.024178,12.699108 C157.728331,12.699108 157.473434,12.591951 157.259366,12.3777594 C157.045174,12.1635678 156.938017,11.9087939 156.938017,11.6128245 C156.938017,11.317223 157.045174,11.0620812 157.259366,10.8478897 L157.259366,10.8478897 Z M158.95745,14.9020812 L158.95745,21.2509548 L159.982431,21.2509548 L159.982431,21.4651464 L156.066048,21.4651464 L156.066048,21.2509548 L157.091028,21.2509548 L157.091028,15.1161502 L156.066048,15.1161502 L156.066048,14.9020812 L158.95745,14.9020812 Z" id="Fill-25" fill="#FFFFFF" mask="url(#mask-4)"></path>
                    <path d="M161.986379,21.250967 L161.986379,15.1161625 L160.976723,15.1161625 L160.976723,14.9020935 L163.822271,14.9020935 L163.822271,16.4319632 L163.852923,16.4319632 C163.893505,16.3401318 163.964984,16.1999939 164.067114,16.0111816 C164.168877,15.8226146 164.316861,15.636377 164.5107,15.4527142 C164.704294,15.2691739 164.954409,15.1085609 165.26031,14.9708751 C165.566333,14.8331893 165.948739,14.7644077 166.407773,14.7644077 C167.080877,14.7644077 167.603298,14.9582467 167.975896,15.3456797 C168.348003,15.7334805 168.534241,16.2636261 168.534241,16.9367295 L168.534241,21.250967 L169.559344,21.250967 L169.559344,21.4651586 L165.719221,21.4651586 L165.719221,21.250967 L166.667819,21.250967 L166.667819,16.4166375 C166.667819,15.9882544 166.581137,15.6746299 166.407773,15.475764 C166.234164,15.2768981 165.99962,15.1774651 165.704018,15.1774651 C165.459175,15.1774651 165.224509,15.2361931 165.000264,15.3532812 C164.775773,15.4707372 164.579482,15.6466759 164.411267,15.8812199 C164.24293,16.1158866 164.107697,16.4065839 164.005934,16.7531893 C163.903804,17.1000398 163.852923,17.5080705 163.852923,17.977036 L163.852923,21.250967 L164.816723,21.250967 L164.816723,21.4651586 L160.976723,21.4651586 L160.976723,21.250967 L161.986379,21.250967 Z" id="Fill-26" fill="#FFFFFF" mask="url(#mask-4)"></path>
                </g>
            </g>
        </g>
    </g>
</svg>