<?xml version="1.0" encoding="UTF-8"?>
<svg width="252px" height="28px" viewBox="0 0 252 28" version="1.1" xmlns="http://www.w3.org/2000/svg" xmlns:xlink="http://www.w3.org/1999/xlink">
    <!-- Generator: sketchtool 58 (101010) - https://sketch.com -->
    <title>06014640-6FC2-40B7-9AD3-8C9E7E4C895B</title>
    <desc>Created with sketchtool.</desc>
    <g id="Home-screen" stroke="none" stroke-width="1" fill="none" fill-rule="evenodd">
        <g id="DG_Home_Sep-2019_v2" transform="translate(-47.000000, -4835.000000)">
            <g id="Footer-Copy-2" transform="translate(0.000000, 4743.000000)">
                <g id="Logo_footer" transform="translate(46.000000, 80.000000)">
                    <g id="Tag-Line" transform="translate(0.588235, 12.549020)">
                        <path d="M66.5915321,6.47774282 C67.5857866,6.47774282 68.531751,6.66638851 69.4084952,7.04039672 C70.2768947,7.41276334 71.0458413,7.9305472 71.6963201,8.58170999 C72.3476197,9.23465116 72.8652668,10.0045554 73.2394118,10.8729549 C73.5666689,11.6385499 73.7532648,12.4513812 73.7948004,13.2971522 L73.8037073,13.6616005 L73.8037073,20.1641997 C73.8037073,21.1410807 73.61342,22.0812996 73.2394118,22.9546238 C72.8652668,23.8230233 72.3476197,24.5929275 71.6963201,25.2440903 C71.0458413,25.8952531 70.2768947,26.4146785 69.4084952,26.7871819 C68.531751,27.1611902 67.5857866,27.3498358 66.5915321,27.3498358 C65.6545964,27.3498358 64.7645828,27.2464159 63.9480301,27.0442271 C63.1179343,26.8372503 62.3815458,26.5365663 61.7587004,26.152435 C61.1198495,25.7600958 60.5915321,25.2825308 60.184829,24.7364295 C59.8086149,24.2338133 59.5633216,23.6787239 59.4514236,23.0824338 L59.4116416,22.8243912 L59.4057592,22.0312312 L63.0145144,22.0312312 L63.1197127,22.4903283 C63.2013817,22.7108482 63.3125992,22.9161833 63.4502189,23.1066074 C63.5645828,23.2667989 63.7342134,23.4138577 63.9578796,23.5440903 C64.2000137,23.6860876 64.5264159,23.7979891 64.9232695,23.8780164 C65.3448837,23.9616005 65.905896,23.9982627 66.5764843,23.98171 C67.1348974,23.98171 67.6466621,23.8814364 68.1101368,23.6860876 C68.5778523,23.4889603 68.9885226,23.2167305 69.3299726,22.876238 C69.6697811,22.535472 69.9428317,22.1246648 70.1391382,21.6587278 C70.3026129,21.2704469 70.3988281,20.8555662 70.4263589,20.4246148 L70.4346238,20.1641997 L70.4346238,13.67829 C70.4346238,13.1540766 70.3353078,12.6529822 70.1391382,12.1886867 C69.9428317,11.7212449 69.6673187,11.3070178 69.3242271,10.9562654 C68.9844186,10.6105746 68.5760739,10.3350616 68.1101368,10.1413543 C67.6466621,9.94436389 67.1348974,9.84586867 66.5915321,9.84586867 C66.0837346,9.84586867 65.5952257,9.94436389 65.1410534,10.1398495 C64.6811354,10.3350616 64.2701915,10.6123529 63.9195759,10.9613269 C63.5681395,11.3137209 63.2857866,11.727948 63.0794938,12.1971683 C62.8775787,12.6562654 62.7764843,13.1540766 62.7764843,13.67487 C62.7764843,14.2042818 62.8758003,14.6867715 63.0794938,15.1528454 C63.2857866,15.6220657 63.5681395,16.0379343 63.9195759,16.3901915 C64.2701915,16.7391655 64.6811354,17.0148153 65.1410534,17.2118057 C65.5195303,17.3747104 65.9218521,17.4690257 66.3393104,17.495939 L66.5915321,17.5040082 L69.7131008,17.5040082 L69.7131008,20.8739124 L66.5915321,20.8739124 C65.6145144,20.8739124 64.6751163,20.6836252 63.8026129,20.3094802 C62.9343502,19.9369767 62.1654036,19.4243912 61.5149248,18.7847196 C60.8619836,18.1419015 60.3426949,17.3737756 59.9711491,16.5037346 C59.5945417,15.6304104 59.4057592,14.6735021 59.4057592,13.6616005 C59.4057592,12.6845828 59.5945417,11.7479207 59.9711491,10.8729549 C60.3426949,10.006197 60.860342,9.23465116 61.5131464,8.58170999 C62.1636252,7.9305472 62.9343502,7.41276334 63.8026129,7.04039672 C64.6767579,6.66638851 65.6145144,6.47774282 66.5915321,6.47774282 Z M0.411737346,0.000109439125 L6.27069767,0.000109439125 C7.31255814,0.000109439125 8.42733242,0.240465116 9.58383037,0.716388509 C10.7343092,1.18902873 11.8029822,1.88369357 12.7631737,2.77876881 C13.7250068,3.67548564 14.5307524,4.78437756 15.1545554,6.06850889 C15.7882079,7.37603283 16.110643,8.86221614 16.110643,10.4888919 C16.110643,11.9700137 15.8225445,13.3660465 15.2556498,14.6401915 C14.6928591,15.9025718 13.9448427,17.0096854 13.0304788,17.9332148 C12.1161149,18.8566074 11.0592066,19.5931327 9.8925855,20.1222709 C8.83154583,20.6019425 7.73737483,20.8689754 6.63749726,20.9175852 L6.27069767,20.9256908 L2.72445964,20.9256908 L2.72445964,21.48342 L0.490259918,19.2458003 L2.72445964,17.0096854 L2.72445964,17.5574282 L5.69792066,17.5574282 C6.60872777,17.5574282 7.50393981,17.3821888 8.35893297,17.0364979 C9.2172093,16.6890287 9.98861833,16.1980575 10.6490834,15.578632 C11.3054446,14.9607114 11.8380027,14.2043502 12.2304788,13.3325308 C12.6203557,12.4659097 12.8184405,11.4923119 12.8184405,10.4370451 C12.8184405,9.54347469 12.6471683,8.66016416 12.3090014,7.81351573 C11.9717921,6.96194254 11.4882079,6.19709986 10.8761696,5.53581395 C10.2650889,4.87781122 9.51105335,4.33677155 8.63526676,3.92610123 C7.86858489,3.56677611 7.00235395,3.36461097 6.05636607,3.32412149 L5.69792066,3.31652531 L0.411737346,3.31652531 L0.411737346,0.000109439125 L6.27069767,0.000109439125 Z M78.1268263,6.47934337 L78.1268263,13.7333789 C78.1268263,14.2610123 78.2269631,14.7653899 78.4206703,15.2296854 C78.6177975,15.6987688 78.8949521,16.1112175 79.2321614,16.450342 C79.5796306,16.795896 79.9938577,17.074829 80.4645828,17.2801642 C80.9288782,17.4823529 81.439959,17.5857729 81.9809986,17.5857729 C82.5053488,17.5857729 82.9996033,17.4823529 83.4537756,17.2819425 C83.9247743,17.074829 84.3388646,16.7943912 84.6929001,16.4487004 C85.0435157,16.1062927 85.3240903,15.6956224 85.531067,15.227907 C85.7009257,14.8424761 85.7988699,14.4314903 85.8267997,14.0037373 L85.835171,13.7451436 L85.835171,10.619015 L89.2082216,10.619015 L89.2082216,13.7451436 C89.2082216,14.7403557 89.0112312,15.6889193 88.6272367,16.5656635 C88.2463885,17.4339261 87.7253215,18.198632 87.0774419,18.8433653 C86.4295622,19.4912449 85.6547332,20.0072503 84.7797674,20.3846785 C83.8980985,20.7637483 82.956238,20.955814 81.9809986,20.955814 C80.9856498,20.955814 80.0370862,20.7603283 79.1655404,20.3746922 C78.2971409,19.9939808 77.5322982,19.4711354 76.8844186,18.8232558 C76.2364022,18.1737346 75.715472,17.4056088 75.3346238,16.5387141 C74.990377,15.7609667 74.7990747,14.923879 74.760813,14.048396 L74.7536389,13.7183311 L74.7536389,6.47934337 L78.1268263,6.47934337 Z M102.346416,6.47772914 L102.346416,13.7283447 C102.346416,14.2577565 102.443406,14.7619973 102.643817,15.2246512 C102.84067,15.6972914 103.117962,16.1063201 103.455445,16.4487278 C103.79922,16.7926402 104.216731,17.0715732 104.684309,17.2769083 C105.152025,17.4789603 105.659549,17.5825171 106.203871,17.5825171 C106.728222,17.5825171 107.222613,17.4806019 107.673639,17.2786867 C108.144501,17.073078 108.558454,16.7926402 108.91591,16.4454446 C109.266525,16.1030369 109.547237,15.692093 109.754213,15.2230096 C109.923958,14.8388326 110.021788,14.4269159 110.049683,13.9987385 L110.058044,13.7399726 L110.058044,10.6139808 L109.456949,10.6139808 L111.774733,8.29783858 L114.089234,10.6139808 L113.424665,10.6139808 L113.424665,13.7399726 C113.424665,14.7369631 113.231094,15.6855267 112.850109,16.5604925 C112.469398,17.4290287 111.945048,18.1970178 111.297168,18.8416142 C110.645869,19.4863475 109.877743,20.0054993 108.999494,20.3814227 C108.120971,20.7603557 107.179111,20.9524213 106.203871,20.9524213 C105.208796,20.9524213 104.256813,20.7554309 103.38513,20.3728044 C102.52015,19.9905882 101.755308,19.469658 101.104145,18.8183584 C100.456265,18.1702052 99.9384815,17.4020793 99.5543502,16.5372367 C99.2160617,15.7579085 99.0226112,14.9218341 98.9837986,14.04429 L98.9765116,13.7132969 L98.9765116,6.47772914 L102.346416,6.47772914 Z M135.414022,6.47767442 C139.395007,6.47767442 142.624555,9.70393981 142.624555,13.6849248 L142.624555,13.6849248 L142.624555,13.7066758 C142.624555,17.6894391 139.395007,20.9157045 135.414022,20.9157045 L135.414022,20.9157045 L122.956566,20.9157045 C118.975445,20.9157045 115.745896,17.6894391 115.745896,13.7066758 L115.745896,13.7066758 L115.745896,13.6849248 C115.745896,9.70393981 118.975445,6.47767442 122.956566,6.47767442 L122.956566,6.47767442 Z M39.3376197,17.749658 L39.3376197,20.9124487 L36.175513,20.9124487 L36.175513,17.749658 L39.3376197,17.749658 Z M98.0268947,6.57948016 L98.0268947,9.95102599 L97.3152668,9.95102599 C96.7977565,9.95102599 96.2966621,10.0495212 95.8359234,10.2450068 C95.3683447,10.4402189 94.964104,10.7125855 94.6268947,11.0515732 C94.2862654,11.3905609 94.0156772,11.7997264 93.8185499,12.2655267 C93.6571272,12.6524396 93.560684,13.0636723 93.5330202,13.4943957 L93.5247059,13.75513 L93.5247059,20.900684 L90.1548016,20.900684 L90.1548016,13.7400821 C90.1548016,12.7615595 90.3452257,11.8280438 90.7259371,10.9612859 C91.0933789,10.1030096 91.614446,9.33816689 92.2623256,8.68686731 C92.9169083,8.03570451 93.6783311,7.51969904 94.5366074,7.14733242 C95.3086396,6.81329989 96.1332026,6.62442958 96.9917533,6.58658226 L97.3152668,6.57948016 L98.0268947,6.57948016 Z M24.2661149,6.52792066 C25.2429959,6.52792066 26.1765116,6.71300958 27.0431327,7.07880985 C27.9038714,7.44119015 28.6728181,7.95062927 29.3250752,8.59180575 C29.9778796,9.2347606 30.4989466,10.0011081 30.8730917,10.8729275 C31.2071242,11.6492157 31.3952379,12.4848442 31.4329171,13.358868 L31.4399863,13.6883858 L31.4399863,20.8738851 L28.0692613,20.8738851 L28.0692613,13.7049384 C28.0692613,13.1789466 27.9707661,12.6779891 27.7752804,12.215472 C27.5774692,11.7495349 27.3045554,11.3421477 26.9646101,11.0015185 C26.6248016,10.662394 26.2148153,10.3886594 25.7472367,10.1931737 C25.2812996,9.9976881 24.7795212,9.8976881 24.254487,9.8976881 C23.73,9.8976881 23.2315048,9.99618331 22.7756908,10.1915321 C22.3156361,10.3870178 21.9090698,10.6607524 21.5674829,10.9998769 C21.2260328,11.3437893 20.9470999,11.7545964 20.7409439,12.2238167 C20.5387551,12.6830506 20.4377975,13.1789466 20.4377975,13.7000137 C20.4377975,14.2210807 20.5387551,14.7136936 20.7391655,15.1629412 C20.9454583,15.6254583 21.2243912,16.034487 21.5674829,16.3768947 C21.9107114,16.7173871 22.3197401,16.9964569 22.7848564,17.2016553 C23.1619653,17.3687779 23.5680491,17.4673111 23.9955077,17.4955132 L24.254487,17.5039808 L25.7431327,17.5039808 L25.7431327,20.8738851 L24.254487,20.8738851 C23.2758276,20.8738851 22.3382079,20.6837346 21.4647469,20.3094528 C20.5938851,19.9370862 19.8249384,19.4177975 19.1745964,18.7682763 C18.5232969,18.1168399 18.004829,17.3470725 17.6323256,16.4770315 C17.2583174,15.6037073 17.0670725,14.6669083 17.0670725,13.6883858 C17.0670725,12.7098632 17.2583174,11.7745691 17.634104,10.907948 C18.0079754,10.0495349 18.5274008,9.284829 19.1778796,8.635171 C19.830684,7.98209302 20.6040082,7.46294118 21.4722709,7.09385773 C22.3481943,6.71820793 23.2890971,6.52792066 24.2661149,6.52792066 Z M51.2886731,6.52792066 C52.2639124,6.52792066 53.1990698,6.71300958 54.0658276,7.07880985 C54.9267031,7.44119015 55.6938714,7.95062927 56.3461286,8.59180575 C57.0007114,9.2347606 57.5217784,10.0011081 57.8956498,10.8729275 C58.2304119,11.6492157 58.4179581,12.4848442 58.4555022,13.358868 L58.4625445,13.6883858 L58.4625445,20.8738851 L55.0926402,20.8738851 L55.0926402,13.7049384 C55.0926402,13.1789466 54.9933242,12.6779891 54.7963338,12.215472 C54.6001642,11.7495349 54.3271135,11.3421477 53.9873051,11.0015185 C53.6457182,10.662394 53.2375103,10.3886594 52.7697948,10.1931737 C52.3039945,9.9976881 51.8022161,9.8976881 51.2752668,9.8976881 C50.7510534,9.8976881 50.2543365,9.99618331 49.798249,10.1915321 C49.3381943,10.3870178 48.9316279,10.6607524 48.5901778,10.9998769 C48.2469494,11.3437893 47.9697948,11.7545964 47.7635021,12.2238167 C47.5614501,12.6830506 47.4588509,13.1789466 47.4588509,13.7000137 C47.4588509,14.2210807 47.5614501,14.7136936 47.7618605,15.1629412 C47.9680164,15.6254583 48.2469494,16.034487 48.5901778,16.3768947 C48.9340903,16.7173871 49.3422982,16.9964569 49.8074145,17.2016553 C50.1846375,17.3687779 50.5907402,17.4673111 51.0170937,17.4955132 L51.2752668,17.5039808 L52.7656908,17.5039808 L52.7656908,20.8738851 L51.2752668,20.8738851 C50.2983858,20.8738851 49.3591245,20.6837346 48.4849795,20.3094528 C47.61658,19.9370862 46.8459918,19.4177975 46.1971546,18.7682763 C45.545855,18.1168399 45.0273871,17.3470725 44.6548837,16.4770315 C44.2792339,15.6037073 44.0897674,14.6669083 44.0897674,13.6883858 C44.0897674,12.7098632 44.2810123,11.7745691 44.6566621,10.907948 C45.0290287,10.0495349 45.5500958,9.284829 46.2004378,8.635171 C46.8533789,7.98209302 47.6265663,7.46294118 48.494829,7.09385773 C49.3707524,6.71820793 50.3101505,6.52792066 51.2886731,6.52792066 Z M133.665321,12.1723393 C133.035773,12.1723393 132.470657,12.4210397 131.968741,12.9185773 L131.968741,12.9185773 L131.968741,12.3444323 L130.527155,12.3444323 L130.527155,18.5570178 L131.968741,18.5570178 L131.968741,15.5592066 C131.968741,14.784788 132.066279,14.2426539 132.262175,13.9328044 C132.461765,13.6176197 132.799795,13.4607114 133.276265,13.4607114 C133.714432,13.4607114 134.016211,13.579316 134.182011,13.8178933 C134.352326,14.0512722 134.437141,14.4748016 134.437141,15.0872503 L134.437141,15.0872503 L134.437141,18.5570178 L135.878728,18.5570178 L135.878728,14.7490834 C135.878728,13.8727497 135.704583,13.2412859 135.355609,12.8546922 C134.951915,12.3992886 134.388167,12.1723393 133.665321,12.1723393 Z M128.709371,12.3444323 L127.27435,12.3444323 L127.27435,18.5570178 L128.709371,18.5570178 L128.709371,12.3444323 Z M123.427155,16.7050342 C123.169973,16.7050342 122.952873,16.7955951 122.769289,16.9790424 C122.585431,17.1645417 122.491997,17.3831464 122.491997,17.6371819 C122.491997,17.8909439 122.585431,18.1095486 122.769289,18.2883447 C122.952873,18.4686457 123.169973,18.5570178 123.427155,18.5570178 C123.681053,18.5570178 123.898016,18.4686457 124.081737,18.2883447 C124.268741,18.1095486 124.362312,17.8909439 124.362312,17.6371819 C124.362312,17.3831464 124.268741,17.1645417 124.081737,16.9790424 C123.898016,16.7955951 123.681053,16.7050342 123.427155,16.7050342 Z M43.1314774,1.3580301 L43.1314774,4.52082079 L39.3376334,4.52082079 L39.3376334,15.4349111 L36.1753899,15.4349111 L36.1753899,4.52082079 L32.381409,4.52082079 L32.381409,1.3580301 L43.1314774,1.3580301 Z M127.988577,8.83636115 C127.733447,8.83636115 127.514569,8.92815321 127.331669,9.11064295 C127.148495,9.2929959 127.057387,9.50982216 127.057387,9.76125855 C127.057387,10.0252804 127.148495,10.2485363 127.331669,10.4308892 C127.514569,10.6133789 127.735363,10.705171 127.99487,10.705171 C128.254514,10.705171 128.473256,10.6133789 128.651915,10.4308892 C128.834952,10.2485363 128.926334,10.0265116 128.926334,9.7676881 C128.926334,9.50859097 128.834952,9.28916553 128.651915,9.11064295 C128.468878,8.92815321 128.248222,8.83636115 127.988577,8.83636115 Z" id="DG_logo_footer" fill="#F9F9FB"></path>
                        <text id="Now" font-family="Helvetica" font-size="8.62745098" font-weight="normal" fill="#8D95A5">
                            <tspan x="151" y="9">Now</tspan>
                        </text>
                        <text id="Discover" font-family="Helvetica" font-size="10.1960784" font-weight="normal" fill="#8D95A5">
                            <tspan x="212.176471" y="20.1960784">Discover</tspan>
                        </text>
                        <path d="M208.235503,20.1967435 L207.167695,18.4848203 L206.099974,16.7730686 C206.074592,16.7322718 206.074417,16.6811044 206.099535,16.6401362 L206.993093,15.1850786 L207.886476,13.7301925 C207.939173,13.644485 207.875849,13.5355506 207.77353,13.5355506 L206.076085,13.5355506 C206.0298,13.5355506 205.986852,13.5592916 205.963051,13.5980315 L205.16057,14.9046435 L204.358177,16.2113412 C204.346672,16.2299397 204.317337,16.2220546 204.317337,16.2002849 L204.317337,14.9322413 L204.317337,13.664112 C204.317337,13.5931461 204.258317,13.5355506 204.185596,13.5355506 L202.692526,13.5355506 C202.619805,13.5355506 202.560785,13.5931461 202.560785,13.664112 L202.560785,15.8639684 L202.560785,18.0636533 L202.560785,20.2635954 C202.560785,20.3345613 202.619805,20.3921568 202.692526,20.3921568 L204.185596,20.3921568 C204.258317,20.3921568 204.317337,20.3345613 204.317337,20.2635954 L204.317337,18.7344865 L204.317337,17.2055491 C204.317337,17.183865 204.346496,17.1758942 204.358089,17.1944071 L205.33605,18.7624272 L206.314186,20.3304473 C206.338075,20.3687586 206.380759,20.3921568 206.426693,20.3921568 L208.122996,20.3921568 C208.225754,20.3921568 208.288902,20.2824511 208.235503,20.1967435 M197.949835,15.2711291 L197.949835,16.3424738 C197.949835,16.3543014 197.959672,16.3639007 197.971792,16.3639007 L199.135508,16.3639007 C199.456605,16.3639007 199.715785,16.1051495 199.706124,15.7896599 C199.696726,15.4847123 199.424109,15.2497022 199.111531,15.2497022 L197.971792,15.2497022 C197.959672,15.2497022 197.949835,15.2593014 197.949835,15.2711291 M199.778757,20.3268476 L199.14675,19.2351045 L198.514566,18.1433614 C198.491292,18.1029931 198.447466,18.0780522 198.399951,18.0780522 L197.971792,18.0780522 C197.959672,18.0780522 197.949835,18.0876514 197.949835,18.0994791 L197.949835,19.1815372 L197.949835,20.2635954 C197.949835,20.3345613 197.890815,20.3921568 197.818093,20.3921568 L196.325024,20.3921568 C196.252303,20.3921568 196.193282,20.3345613 196.193282,20.2635954 L196.193282,18.0636533 L196.193282,15.8639684 L196.193282,13.664112 C196.193282,13.5931461 196.252303,13.5355506 196.325024,13.5355506 L197.703654,13.5355506 L199.082284,13.5355506 C199.712535,13.5355506 200.295447,13.7745891 200.726681,14.1671298 C201.160461,14.5620703 201.440895,15.1122272 201.461622,15.730436 C201.47585,16.15306 201.371687,16.5506575 201.178905,16.8943448 C200.979449,17.2503741 200.684875,17.5485508 200.328822,17.7564774 C200.318721,17.7623912 200.315208,17.7748188 200.321005,17.7848466 L201.012911,18.9928949 L201.704729,20.2008574 C201.753737,20.286565 201.690325,20.3921568 201.589675,20.3921568 L199.89346,20.3921568 C199.845945,20.3921568 199.802119,20.3672158 199.778757,20.3268476 M184.248814,13.664112 L184.248814,14.8746458 L184.248814,16.085351 C184.248814,16.0971787 184.238977,16.1067779 184.226857,16.1067779 L183.194883,16.1067779 L182.162908,16.1067779 C182.150788,16.1067779 182.140951,16.0971787 182.140951,16.085351 L182.140951,14.8746458 L182.140951,13.664112 C182.140951,13.5931461 182.081931,13.5355506 182.00921,13.5355506 L180.51614,13.5355506 C180.443331,13.5355506 180.384399,13.5931461 180.384399,13.664112 L180.384399,15.8639684 L180.384399,18.0636533 L180.384399,20.2635954 C180.384399,20.3345613 180.443331,20.3921568 180.51614,20.3921568 L182.00921,20.3921568 C182.081931,20.3921568 182.140951,20.3345613 182.140951,20.2635954 L182.140951,19.0529759 L182.140951,17.8423564 C182.140951,17.8305287 182.150788,17.8209295 182.162908,17.8209295 L183.194883,17.8209295 L184.226857,17.8209295 C184.238977,17.8209295 184.248814,17.8305287 184.248814,17.8423564 L184.248814,19.0529759 L184.248814,20.2635954 C184.248814,20.3345613 184.307746,20.3921568 184.380555,20.3921568 L185.873625,20.3921568 C185.946346,20.3921568 186.005366,20.3345613 186.005366,20.2635954 L186.005366,18.0636533 L186.005366,15.8639684 L186.005366,13.664112 C186.005366,13.5931461 185.946346,13.5355506 185.873625,13.5355506 L184.380555,13.5355506 C184.307746,13.5355506 184.248814,13.5931461 184.248814,13.664112 M177.579185,16.1302618 C177.335024,16.0298125 176.73762,15.7690901 176.73762,15.5107674 C176.73762,15.2402743 177.292252,15.2497879 177.530001,15.2497022 C178.002865,15.2495307 178.617746,15.3300959 179.13628,15.4032044 C179.215677,15.4144321 179.286554,15.3542654 179.286554,15.2759287 L179.286554,13.8068151 C179.286554,13.7421059 179.237282,13.687253 179.171587,13.6791108 C178.479681,13.5925462 177.787248,13.5355506 177.266518,13.5355506 C176.610709,13.5355506 176.015502,13.7140795 175.560467,14.1581305 C175.210298,14.4998466 174.983,14.9799804 174.983,15.5925325 C174.983,16.186486 175.212757,16.6096243 175.534997,16.9240854 C175.934085,17.3136263 176.475016,17.5362089 176.896764,17.709681 C177.598858,17.998687 177.782506,18.1192775 177.794099,18.314348 C177.815529,18.6765482 177.19204,18.6780909 176.82738,18.6780052 C176.406949,18.6779195 175.84819,18.5787558 175.32061,18.4592795 C175.237876,18.4405095 175.158655,18.5013619 175.158655,18.5843268 L175.158655,20.0306422 C175.158655,20.0914089 175.202218,20.1439476 175.263258,20.1564609 C175.845028,20.2752516 176.440324,20.3921568 176.915208,20.3921568 C177.68774,20.3921568 178.448063,20.2443112 178.994527,19.7110386 C179.356025,19.3582663 179.550036,18.8845605 179.550036,18.3351749 C179.550036,17.7127665 179.304031,17.2670871 178.966158,16.9373701 C178.547308,16.5286306 177.987232,16.2981629 177.579185,16.1302618 M174.456034,20.2635954 L174.456034,19.6636424 C174.456034,19.5926765 174.397014,19.535081 174.324293,19.535081 L173.38524,19.535081 L172.446012,19.535081 L171.507047,19.535081 C171.402795,19.535081 171.339823,19.4226326 171.39612,19.3370108 L172.408158,17.7993311 C172.732857,17.3059126 173.093038,16.758584 173.420196,16.2614801 L174.432233,14.7238005 C174.770018,14.2104121 174.392359,13.5355506 173.767115,13.5355506 L172.664702,13.5355506 L171.562202,13.5355506 L170.459878,13.5355506 C170.387069,13.5355506 170.328136,13.5931461 170.328136,13.664112 L170.328136,14.264065 C170.328136,14.3350309 170.387069,14.3926264 170.459878,14.3926264 L171.428177,14.3926264 L172.396477,14.3926264 L173.364864,14.3926264 C173.469116,14.3926264 173.532088,14.5050747 173.47579,14.5906109 L172.463753,16.1283762 C172.139054,16.6218805 171.778873,17.1691233 171.451715,17.6662273 L170.439765,19.2039926 C170.101892,19.7172953 170.479639,20.3921568 171.104796,20.3921568 L172.177962,20.3921568 L173.25104,20.3921568 L174.324293,20.3921568 C174.397014,20.3921568 174.456034,20.3345613 174.456034,20.2635954 M169.625515,14.264065 L169.625515,13.664112 C169.625515,13.5931461 169.566495,13.5355506 169.493774,13.5355506 L168.022661,13.5355506 L166.551549,13.5355506 C166.114958,13.5355506 165.7611,13.8809522 165.7611,14.3069188 L165.7611,16.0782373 L165.7611,17.8494701 L165.7611,19.6207886 C165.7611,20.0467552 166.114958,20.3921568 166.551549,20.3921568 L168.022661,20.3921568 L169.493774,20.3921568 C169.566495,20.3921568 169.625515,20.3345613 169.625515,20.2635954 L169.625515,19.6636424 C169.625515,19.5926765 169.566495,19.535081 169.493774,19.535081 L168.286056,19.535081 L167.078514,19.535081 C166.835935,19.535081 166.639376,19.3432674 166.639376,19.1065431 L166.639376,18.217327 L166.639376,17.3281109 C166.639376,17.3162832 166.649213,17.306684 166.661333,17.306684 L169.142464,17.306684 C169.215185,17.306684 169.274205,17.2490885 169.274205,17.1781226 L169.274205,16.5781696 C169.274205,16.5072037 169.215185,16.4496082 169.142464,16.4496082 L166.661333,16.4496082 C166.649213,16.4496082 166.639376,16.440009 166.639376,16.4281813 L166.639376,15.6247585 L166.639376,14.8211643 C166.639376,14.5845257 166.835935,14.3926264 167.078514,14.3926264 L168.286056,14.3926264 L169.493774,14.3926264 C169.566495,14.3926264 169.625515,14.3350309 169.625515,14.264065 M157.228647,17.3923916 L158.248326,17.3923916 L159.268004,17.3923916 C159.282584,17.3923916 159.293035,17.3789355 159.289171,17.3652223 L158.881387,15.9261064 L158.482474,14.5183594 C158.461395,14.4440509 158.392099,14.3926264 158.313142,14.3926264 L158.183509,14.3926264 C158.104552,14.3926264 158.035256,14.4440509 158.014265,14.5183594 L157.615352,15.9261064 L157.207568,17.3652223 C157.203704,17.3789355 157.214155,17.3923916 157.228647,17.3923916 M160.120196,20.2978784 L159.832209,19.2814723 L159.544222,18.2651518 C159.541587,18.2558954 159.532892,18.2494673 159.523056,18.2494673 L158.248326,18.2494673 L156.973683,18.2494673 C156.963759,18.2494673 156.955152,18.2558954 156.952517,18.2651518 L156.66453,19.2814723 L156.376543,20.2978784 C156.360734,20.3535883 156.30874,20.3921568 156.249545,20.3921568 L155.611038,20.3921568 C155.524001,20.3921568 155.460853,20.3111631 155.484039,20.2293124 L155.93196,18.650236 C156.068795,18.1679594 156.224338,17.6195167 156.379881,17.0709882 C156.535424,16.5227168 156.690966,15.9743597 156.82789,15.4917404 L157.222323,14.1011349 C157.317089,13.7669611 157.62879,13.5355506 157.98414,13.5355506 L158.512599,13.5355506 C158.867949,13.5355506 159.179562,13.7669611 159.274416,14.1011349 L159.66885,15.4917404 C159.805773,15.9743597 159.961315,16.5227168 160.11677,17.0709882 C160.272401,17.6195167 160.427944,18.1679594 160.564691,18.650236 L161.012612,20.2293124 C161.035886,20.3111631 160.972738,20.3921568 160.885613,20.3921568 L160.247107,20.3921568 C160.187911,20.3921568 160.136005,20.3535883 160.120196,20.2978784 M153.312413,16.4560363 C152.446784,16.0114711 151.878276,15.6810684 151.878276,15.1639946 C151.878276,14.5400434 152.475504,14.3926264 153.107863,14.3926264 C153.671277,14.3926264 154.237063,14.4388228 154.801179,14.5199021 C154.880751,14.5313013 154.952243,14.4719059 154.952243,14.3933121 L154.952243,13.7868452 C154.952243,13.7226503 154.903586,13.6677974 154.838506,13.6588838 C154.260073,13.57969 153.689633,13.5355506 153.107863,13.5355506 C152.497197,13.5355506 151.881789,13.6451706 151.440368,14.0758512 C151.157387,14.3520867 151,14.7232862 151,15.1639946 C151,15.6531277 151.210171,16.027327 151.523453,16.3329602 C151.897335,16.6978174 152.417889,16.965225 152.903312,17.2145484 C153.761213,17.655171 154.33745,17.9620898 154.33745,18.5922976 C154.33745,19.3974346 153.753835,19.535081 152.932208,19.535081 C152.350437,19.535081 151.710086,19.4763713 151.33234,19.4051483 C151.250836,19.3897209 151.175655,19.4502305 151.175655,19.5312241 L151.175655,20.1406907 C151.175655,20.2037715 151.222204,20.2571673 151.285879,20.2676236 C151.71035,20.3371325 152.308807,20.392071 152.932208,20.3921568 C153.562986,20.3922425 154.222659,20.3421892 154.714845,19.8617983 C155.047185,19.5374808 155.215726,19.0815165 155.215726,18.5065901 C155.215726,18.0462547 155.030234,17.6674272 154.692273,17.3376244 C154.318391,16.9727673 153.797837,16.7053596 153.312413,16.4560363 M195.474501,20.2017145 C195.064698,19.4577728 194.778467,18.72703 194.588408,18.0217423 C194.368839,17.206749 194.27785,16.4256958 194.273283,15.6974385 C194.267925,14.8368488 194.383243,14.0500532 194.550116,13.3681637 C194.790148,12.386812 195.136804,11.6227289 195.383424,11.1689073 C195.434715,11.0743719 195.350752,10.9630377 195.242988,10.9826648 C194.063638,11.1965909 192.93883,11.490225 191.919239,11.9414754 C190.863112,12.4088388 189.919843,13.0452176 189.145467,13.9371763 C188.468931,14.7164296 187.921414,15.6907534 187.540242,16.9178287 C187.244702,17.8694399 187.049198,18.9730107 186.971295,20.2554532 C186.966728,20.3293331 187.027329,20.3921568 187.103212,20.3921568 L188.77949,20.3921568 C188.851947,20.3921568 188.910177,20.3348184 188.910528,20.2641096 C188.914217,19.5847914 188.979034,18.920472 189.108141,18.2847789 C189.243659,17.6172883 189.449966,16.9814237 189.730838,16.3932126 C190.021899,15.7835747 190.392883,15.2250184 190.847918,14.7351996 C191.296014,14.2527516 191.825703,13.8370699 192.44076,13.5050387 C192.536667,13.4531857 192.653302,13.5316081 192.635473,13.6371998 C192.540795,14.1987559 192.492314,14.7670828 192.486957,15.335924 C192.481512,15.9047652 192.519365,16.4740349 192.597444,17.0373908 C192.675786,17.6022037 192.794529,18.1609314 192.950775,18.7074029 C193.108162,19.257817 193.303578,19.7958034 193.534126,20.3145914 C193.555116,20.3617306 193.603158,20.3921568 193.655767,20.3921568 L195.359271,20.3921568 C195.459395,20.3921568 195.521928,20.2877649 195.474501,20.2017145 M162.862789,19.535081 L164.070331,19.535081 L165.278048,19.535081 C165.35077,19.535081 165.40979,19.5926765 165.40979,19.6636424 L165.40979,20.2635954 C165.40979,20.3345613 165.35077,20.3921568 165.278048,20.3921568 L163.806936,20.3921568 L162.335823,20.3921568 C161.899232,20.3921568 161.545374,20.0467552 161.545374,19.6207886 L161.545374,17.6352011 L161.545374,15.6496994 L161.545374,13.664112 C161.545374,13.5931461 161.604307,13.5355506 161.677116,13.5355506 L162.291909,13.5355506 C162.36463,13.5355506 162.423651,13.5931461 162.423651,13.664112 L162.423651,15.4781986 L162.423651,17.2923708 L162.423651,19.1065431 C162.423651,19.3432674 162.620209,19.535081 162.862789,19.535081" id="logo_full-cop" fill="#8D95A5"></path>
                    </g>
                </g>
            </g>
        </g>
    </g>
</svg>