<?xml version="1.0" encoding="UTF-8"?>
<svg width="105px" height="24px" viewBox="0 0 105 24" version="1.1" xmlns="http://www.w3.org/2000/svg" xmlns:xlink="http://www.w3.org/1999/xlink">
    <!-- Generator: Sketch 46.2 (44496) - http://www.bohemiancoding.com/sketch -->
    <title>Logo_F@1x</title>
    <desc>Created with Sketch.</desc>
    <defs></defs>
    <g id="Page-1" stroke="none" stroke-width="1" fill="none" fill-rule="evenodd">
        <g id="DG_Home_Executive_grid" transform="translate(-170.000000, -2766.000000)" fill="#FFFFFF">
            <g id="Footer-Copy" transform="translate(-1.000000, 2571.000000)">
                <g id="Logo_F" transform="translate(171.000000, 195.000000)">
                    <path d="M1.93288591,18.3624161 L5.11027078,18.3624161 C6.17722009,18.3624161 7.23994094,18.1249137 8.26892608,17.6566602 C9.28688048,17.193216 10.2075804,16.5471132 11.0055633,15.735739 C11.8026269,14.9258446 12.4553715,13.9539158 12.9456884,12.8465884 C13.4405094,11.7289951 13.6912752,10.5034714 13.6912752,9.20405194 C13.6912752,7.7770951 13.4109103,6.47231145 12.8577181,5.32586275 C12.3127991,4.19763367 11.6111515,3.2261673 10.7723548,2.4382844 C9.93539666,1.65280612 9.00247097,1.04388242 7.99959193,0.628993029 C6.99092176,0.21151405 6.01892882,0 5.11027078,0 L0,0 L0,2.91097715 L4.61122126,2.91097715 C5.55802731,2.91097715 6.41998851,3.09104617 7.17265336,3.4456351 C7.93616512,3.80577314 8.59332206,4.28096299 9.1257396,4.8576093 C9.66017945,5.43675271 10.0810945,6.10884393 10.3768105,6.85529338 C10.6712396,7.59989313 10.8206144,8.37473559 10.8206144,9.15845665 C10.8206144,10.0838653 10.6482589,10.9385226 10.3080522,11.6985675 C9.96517969,12.4644388 9.50087703,13.1274665 8.92819725,13.6690608 C8.35184056,14.2147245 7.68015979,14.645244 6.93163147,14.9488734 C6.18549315,15.251948 5.40460796,15.4056587 4.61122126,15.4056587 L1.93288591,15.4056587 L1.93288591,14.625 L0,16.8000001 L1.93288591,18.9750001 L1.93288591,18.3624161 Z" id="Combined-Shape"></path>
                    <path d="M26.3390641,7.4445778 C25.7686333,6.88270756 25.0974949,6.4367744 24.3449981,6.11933201 C23.58771,5.79967427 22.7706239,5.63758389 21.9175115,5.63758389 C21.0620036,5.63758389 20.2402184,5.80382807 19.4749143,6.13188571 C18.7151385,6.45754338 18.0403145,6.91169183 17.4694231,7.48214659 C16.8999137,8.05140136 16.445762,8.72163955 16.1195909,9.47366138 C15.7909321,10.2320524 15.6241611,11.0510888 15.6241611,11.9080632 C15.6241611,12.7637454 15.7901029,13.5858279 16.1174717,14.3511419 C16.4433664,15.1123021 16.8968731,15.786971 17.4655532,16.3562257 C18.0341412,16.9264036 18.7078595,17.3807366 19.467451,17.7066712 C20.231281,18.0349135 21.0518683,18.2013423 21.9061785,18.2013423 L23.5773904,18.2013423 L23.5773904,15.2503927 L21.9061785,15.2503927 C21.4498154,15.2503927 21.0176849,15.1615015 20.6228705,14.986119 C20.2159859,14.8051057 19.8578428,14.5616932 19.5583919,14.2622506 C19.2580197,13.9621619 19.014405,13.6048431 18.8342738,13.1994325 C18.6588417,12.8059295 18.5697436,12.3750423 18.5697436,11.9195092 C18.5697436,11.4627762 18.6591181,11.027366 18.8360244,10.6246323 C19.0155107,10.2141449 19.2586647,9.85396456 19.5586684,9.55415273 C19.8567371,9.25609474 20.2121161,9.0176668 20.614578,8.84542269 C21.0132622,8.67484011 21.4476962,8.58853344 21.9061785,8.58853344 C22.3653978,8.58853344 22.8048995,8.67557856 23.2115998,8.84653037 C23.6201428,9.01914371 23.978286,9.25738703 24.2759862,9.55498349 C24.5737785,9.85248765 24.811957,10.2101757 24.9843486,10.6183555 C25.1554502,11.023766 25.242337,11.4622224 25.242337,11.9214477 L25.242337,18.2013423 L28.1879195,18.2013423 L28.1879195,11.9080632 C28.1879195,11.0377966 28.0213327,10.2079603 27.6930424,9.44218483 C27.3662264,8.67973236 26.9106926,8.00783265 26.3390641,7.4445778" id="Fill-3"></path>
                    <path d="M49.5336949,7.4445778 C48.9632642,6.88270756 48.2922179,6.4367744 47.5397211,6.11933201 C46.7823408,5.79967427 45.9653469,5.63758389 45.1121424,5.63758389 C44.2566345,5.63758389 43.4348493,5.80382807 42.6695451,6.13188571 C41.9097693,6.45754338 41.2349454,6.91169183 40.6640539,7.48214659 C40.0946367,8.05140136 39.6403928,8.72163955 39.3142218,9.47366138 C38.9856552,10.2320524 38.8187919,11.0510888 38.8187919,11.9080632 C38.8187919,12.7637454 38.9847338,13.5858279 39.3121948,14.3511419 C39.6379972,15.1123021 40.091504,15.786971 40.6601841,16.3562257 C41.2287721,16.9264036 41.9024904,17.3807366 42.6620819,17.7066712 C43.4259118,18.0349135 44.2464992,18.2013423 45.1008093,18.2013423 L46.7720213,18.2013423 L46.7720213,15.2503927 L45.1008093,15.2503927 C44.6444463,15.2503927 44.2123157,15.1615015 43.8175014,14.986119 C43.4106168,14.8051057 43.0524736,14.5616932 42.753115,14.2622506 C42.4526506,13.9621619 42.209128,13.6048431 42.0289047,13.1994325 C41.8534726,12.8059295 41.7643744,12.3750423 41.7643744,11.9195092 C41.7643744,11.4627762 41.853749,11.027366 42.0306553,10.6246323 C42.2101415,10.2141449 42.4533877,9.85396456 42.7532992,9.55415273 C43.0514601,9.25609474 43.406747,9.0176668 43.8092089,8.84542269 C44.2079852,8.67484011 44.6423271,8.58853344 45.1008093,8.58853344 C45.5600287,8.58853344 45.9995303,8.67557856 46.4062306,8.84653037 C46.8147737,9.01914371 47.1729168,9.25738703 47.470617,9.55498349 C47.7684093,9.85248765 48.0065879,10.2101757 48.1789794,10.6183555 C48.350081,11.023766 48.43706,11.4622224 48.43706,11.9214477 L48.43706,18.2013423 L51.3825503,18.2013423 L51.3825503,11.9080632 C51.3825503,11.0377966 51.2159635,10.2079603 50.8877655,9.44218483 C50.5609494,8.67973236 50.1054156,8.00783265 49.5336949,7.4445778" id="Fill-5"></path>
                    <path d="M64.189892,7.47418726 C63.61821,6.90659006 62.9417442,6.45414819 62.1789152,6.12954435 C61.4109951,5.80301054 60.5791125,5.63758389 59.7064087,5.63758389 C58.8484227,5.63758389 58.0243156,5.80301054 57.2567658,6.12954435 C56.4939368,6.45396438 55.8171007,6.90640626 55.245141,7.47437107 C54.6734589,8.04242779 54.217946,8.71433567 53.8910986,9.47116257 C53.5621222,10.2335956 53.3954125,11.051998 53.3954125,11.90321 C53.3954125,12.7852097 53.5621222,13.61896 53.8910986,14.3807497 C54.2183163,15.1393227 54.6750325,15.8083816 55.2483807,16.3693617 C55.8184892,16.9276767 56.4941219,17.3750638 57.2565807,17.6992082 C58.0238528,18.0260177 58.8482376,18.19172 59.7064087,18.19172 L61.0699852,18.19172 L61.0699852,15.2536509 L59.7064087,15.2536509 C59.2605226,15.2536509 58.8315759,15.167721 58.4318798,14.9983425 C58.0280182,14.827034 57.6671069,14.5857868 57.359513,14.2811261 C57.0506233,13.9752706 56.8025488,13.6128943 56.6219543,13.2035553 C56.4421003,12.7974329 56.3546263,12.3757787 56.3546263,11.9146979 C56.3546263,11.4601423 56.4444144,11.0265406 56.6223246,10.6252891 C56.8025488,10.2167772 57.0506233,9.85430906 57.359513,9.54845358 C57.6671069,9.24388474 58.0282034,9.00263755 58.4318798,8.83132907 C58.831761,8.66158296 59.2608003,8.5755611 59.7064087,8.5755611 C60.1834892,8.5755611 60.6326151,8.66213438 61.0407347,8.83243192 C61.449317,9.00346469 61.8076365,9.24305761 62.1053259,9.5440422 C62.4074584,9.8501734 62.6484979,10.2117225 62.8216872,10.6188559 C62.9937658,11.0231402 63.0810547,11.4598666 63.0810547,11.9168117 L63.0810547,17.5732082 C63.0810547,18.0312562 62.9935806,18.469453 62.821317,18.8752997 C62.6488682,19.2818816 62.4094023,19.6390194 62.1102319,19.9366954 C61.8105061,20.2336363 61.4505204,20.4715749 61.0405495,20.6433429 C60.6326151,20.8142838 60.1839521,20.900949 59.691876,20.9011328 C59.103995,20.915194 58.6115486,20.8844063 58.2412882,20.8110672 C57.891855,20.741588 57.6065693,20.6437105 57.3933919,20.5205596 C57.1970613,20.4067828 57.0468281,20.2784853 56.9466727,20.139435 C56.826986,19.9729055 56.7296075,19.792039 56.6578696,19.6013389 L56.5063405,19.1999035 L53.3154362,19.1999035 L53.3999482,19.8926736 C53.47363,20.4975837 53.7019881,21.0585638 54.0787281,21.5604499 C54.4360294,22.0364191 54.9013542,22.4519157 55.4623913,22.7949921 C56.0087105,23.1286025 56.6554629,23.3897009 57.3852461,23.5713026 C58.1017926,23.7489525 58.8827644,23.8389262 59.7064087,23.8389262 C60.5791125,23.8389262 61.4109951,23.6734995 62.1789152,23.3468738 C62.9417442,23.02227 63.61821,22.56992 64.1900772,22.0020471 C64.7615741,21.4341742 65.2173647,20.762542 65.5445823,20.0055313 C65.8735587,19.2430064 66.0402685,18.4246959 66.0402685,17.5732082 L66.0402685,11.90321 C66.0402685,11.051998 65.8735587,10.2335956 65.5443972,9.47079496 C65.2171796,8.71387616 64.7615741,8.04196827 64.189892,7.47418726" id="Fill-7"></path>
                    <path d="M77.5697343,12.0228847 C77.5697343,12.4819689 77.4790548,12.9207626 77.3003874,13.3272213 C77.1197709,13.738683 76.8717713,14.0997428 76.5626998,14.4008575 C76.2509368,14.7050298 75.8840421,14.9516659 75.4717613,15.1339099 C75.0722888,15.3106874 74.6357834,15.4004659 74.1745895,15.4004659 C73.6966889,15.4004659 73.2479321,15.3101315 72.839271,15.1317789 C72.4242985,14.9506468 72.0600026,14.7056783 71.7561288,14.4028032 C71.4555963,14.1031709 71.2146506,13.7422037 71.040067,13.328889 C70.867154,12.9202994 70.779259,12.477707 70.779259,12.0136197 L70.779259,5.63758389 L67.8120805,5.63758389 L67.8120805,11.9999073 C67.8120805,12.876383 67.9837869,13.7107025 68.3218163,14.4799812 C68.6570614,15.2419406 69.1158422,15.9174568 69.6861857,16.4876292 C70.2571789,17.0587281 70.9327737,17.517905 71.6933864,17.8520961 C72.4628164,18.1906417 73.2974021,18.3624161 74.1745895,18.3624161 C75.0331212,18.3624161 75.8619523,18.1936065 76.6381578,17.8604346 C77.4089801,17.5298569 78.0896797,17.0742934 78.6608585,16.50653 C79.2318517,15.9397856 79.691375,15.2656592 80.0266201,14.5029586 C80.3652064,13.733124 80.5369128,12.8988971 80.5369128,12.0228847 L80.5369128,9.27505031 L77.5697343,9.27505031 L77.5697343,12.0228847 Z" id="Fill-9"></path>
                    <path d="M86.0031946,6.29505305 C85.2473184,6.62157539 84.5738205,7.07635784 84.0016256,7.64691656 C83.4290596,8.21747527 82.9728251,8.88901456 82.6454457,9.64248496 C82.3150978,10.4024285 82.147651,11.2226644 82.147651,12.0805369 L82.147651,18.3624161 L85.113361,18.3624161 L85.113361,12.0941305 C85.113361,11.6325975 85.2003777,11.1929806 85.3720918,10.7867465 C85.5440842,10.3781081 85.7823132,10.01996 86.0801923,9.72219673 C86.3784424,9.42415609 86.7366208,9.18539068 87.144523,9.01339081 C87.5515904,8.8418533 87.9906628,8.75502111 88.449402,8.75502111 L89.0738255,8.75502111 L89.0738255,5.79865772 L88.449402,5.79865772 C87.5886049,5.79865772 86.7656573,5.96557157 86.0031946,6.29505305" id="Fill-11"></path>
                    <path d="M103.731544,9.34228188 L103.731544,12.0228847 C103.731544,12.8988971 103.559837,13.733124 103.221437,14.5029586 C102.886006,15.2656592 102.426483,15.9398783 101.855489,16.50653 C101.284311,17.0743861 100.603797,17.5298569 99.8327887,17.8604346 C99.0567688,18.1936065 98.2279377,18.3624161 97.369406,18.3624161 C96.4922186,18.3624161 95.6574473,18.1907344 94.8882029,17.8520961 C94.1274046,17.517905 93.4519954,17.0587281 92.8808165,16.4877219 C92.3106587,15.9174568 91.8516922,15.2419406 91.5164472,14.4799812 C91.1784178,13.7107025 91.0067114,12.876383 91.0067114,11.9999073 L91.0067114,5.63758389 L93.9738898,5.63758389 L93.9738898,12.0137123 C93.9738898,12.477707 94.0617849,12.9202994 94.2346978,13.328889 C94.4092814,13.7422037 94.6502272,14.1031709 94.9507597,14.4028959 C95.2546335,14.7056783 95.6189294,14.9506468 96.0339019,15.1317789 C96.442563,15.3102242 96.8915054,15.4004659 97.369406,15.4004659 C97.8305999,15.4004659 98.2669197,15.3107801 98.6663921,15.1339099 C99.078673,14.9517586 99.4457533,14.7050298 99.7573307,14.4008575 C100.066402,14.0997428 100.314587,13.738683 100.495204,13.3272213 C100.673871,12.9208553 100.764365,12.4819689 100.764365,12.0228847 L100.764365,9.34228188 L100.026846,9.34228188 L102.18365,7.24832215 L104.376846,9.34228188 L103.731544,9.34228188 Z" id="Combined-Shape"></path>
                    <polygon id="Fill-15" points="28.6711409 3.38758389 38.0134228 3.38758389 38.0134228 0.649328859 28.6711409 0.649328859"></polygon>
                    <polygon id="Fill-17" points="32.0536913 13.5302013 34.7919463 13.5302013 34.7919463 3.06040268 32.0536913 3.06040268"></polygon>
                    <polygon id="Fill-18" points="32.0536913 18.0402685 34.7919463 18.0402685 34.7919463 15.3020134 32.0536913 15.3020134"></polygon>
                </g>
            </g>
        </g>
    </g>
</svg>