<?xml version="1.0" encoding="UTF-8"?>
<svg width="276px" height="47px" viewBox="0 0 276 47" version="1.1" xmlns="http://www.w3.org/2000/svg" xmlns:xlink="http://www.w3.org/1999/xlink">
    <!-- Generator: sketchtool 61.2 (101010) - https://sketch.com -->
    <title>D8D24AA6-EF15-4C01-B386-FF5280A74792</title>
    <desc>Created with sketchtool.</desc>
    <g id="Home-screen" stroke="none" stroke-width="1" fill="none" fill-rule="evenodd">
        <g id="DG_Updated-Header" transform="translate(-47.000000, -22.000000)">
            <g id="Section-1">
                <g id="Haeder">
                    <g id="4" transform="translate(47.000000, 22.000000)">
                        <g id="logo_header_2020">
                            <g id="wordmark" transform="translate(0.000000, 18.583333)" fill="#0155FF">
                                <path d="M4.44427673,5.9318452 L4.44427673,20.2303924 L8.67242767,20.2303924 C10.8352075,20.2303924 12.344283,19.1657446 13.1973711,17.034927 C13.6638679,15.8660213 13.8974969,14.4733798 13.8974969,12.8585244 C13.8974969,10.628776 13.547434,8.91727287 12.8480692,7.723254 C12.1479434,6.52847413 10.7560629,5.9318452 8.67242767,5.9318452 L4.44427673,5.9318452 Z M12.8374151,2.60244268 C14.3746478,3.10775086 15.6196541,4.03465652 16.571673,5.38163765 C17.3342013,6.47215966 17.8554906,7.65095841 18.1324969,8.91955589 C18.4110252,10.1881534 18.5495283,11.3966314 18.5495283,12.5457509 C18.5495283,15.4596439 17.9643145,17.9268263 16.7946478,19.948059 C15.2079497,22.6732226 12.7582704,24.0354238 9.44561006,24.0354238 L6.18764299e-14,24.0354238 L6.18764299e-14,2.12681375 L9.44561006,2.12681375 C10.8040063,2.14659991 11.9348616,2.30488922 12.8374151,2.60244268 L12.8374151,2.60244268 Z" id="Fill-8"></path>
                                <polygon id="Fill-9" points="21.6114371 24.0353477 26.1599717 24.0353477 26.1599717 2.12673765 21.6114371 2.12673765"></polygon>
                                <path d="M33.7400509,17.2725892 C33.8823591,18.2733125 34.1601264,19.0213817 34.5748748,19.5167968 C35.3335981,20.4185892 36.6333969,20.869866 38.4750321,20.869866 C39.5777302,20.869866 40.4734346,20.750388 41.1613843,20.512954 C42.4665101,20.0571112 43.1186925,19.2101112 43.1186925,17.971193 C43.1186925,17.248237 42.7990698,16.6873754 42.1598245,16.2916521 C41.5205792,15.9050609 40.5069189,15.5633691 39.1180824,15.2658156 L36.7460258,14.7460483 C34.4150635,14.2308471 32.8131453,13.6707465 31.9417931,13.0665075 C30.4646799,12.0558911 29.7272648,10.47452 29.7272648,8.32467727 C29.7272648,6.36280306 30.4494597,4.73272759 31.8930887,3.43445086 C33.3382396,2.13617413 35.4599252,1.48779677 38.2581453,1.48779677 C40.5951956,1.48779677 42.5890321,2.09964583 44.2396547,3.32334394 C45.8895164,4.54704205 46.7547805,6.32323073 46.8346862,8.65190998 L42.4353088,8.65190998 C42.3538811,7.33384708 41.7648623,6.39780935 40.6682522,5.84227476 C39.9361642,5.47623073 39.0267616,5.29282822 37.9408057,5.29282822 C36.7315667,5.29282822 35.7658497,5.53026218 35.0451767,6.00589111 C34.3237428,6.48152004 33.9630258,7.14511752 33.9630258,7.99744457 C33.9630258,8.78052004 34.3184157,9.36497287 35.0291956,9.75156407 C35.4865604,10.0095452 36.4568434,10.3116647 37.9408057,10.6586836 L41.7846484,11.5650421 C43.4702774,11.9615263 44.7327868,12.4919477 45.5744597,13.1555452 C46.8803465,14.1859477 47.5332899,15.676759 47.5332899,17.6295012 C47.5332899,19.6309477 46.7593465,21.2929854 45.2122208,22.6156144 C43.664334,23.9390043 41.4787239,24.6003188 38.6546296,24.6003188 C35.7704157,24.6003188 33.501856,23.9481364 31.8489503,22.6460546 C30.1968057,21.3432119 29.3703528,19.5518031 29.3703528,17.2725892 L33.7400509,17.2725892 Z" id="Fill-10"></path>
                                <path d="M52.8365906,4.41576847 C54.6006031,2.61218356 56.8463327,1.71039111 59.5714962,1.71039111 C63.2182384,1.71039111 65.8848044,2.9196301 67.5704333,5.33734708 C68.501905,6.6949823 69.0018862,8.05718356 69.0703767,9.42471186 L64.4921629,9.42471186 C64.2014585,8.37452319 63.8270434,7.58155463 63.3712006,7.04656721 C62.5554019,6.09530935 61.3476849,5.61968042 59.7457667,5.61968042 C58.1149302,5.61968042 56.8280686,6.29088797 55.8867038,7.63406407 C54.945339,8.97647916 54.4742761,10.8759509 54.4742761,13.3340012 C54.4742761,15.7912905 54.9712132,17.6314037 55.9643264,18.8558628 C56.9582006,20.0795609 58.2207101,20.69141 59.7526157,20.69141 C61.3218107,20.69141 62.5196346,20.1655546 63.3438044,19.115366 C63.7988862,18.5506993 64.1771063,17.7036993 64.4777038,16.574366 L69.0254774,16.574366 C68.6335591,18.9616427 67.6305528,20.9044917 66.0187415,22.4006301 C64.4061692,23.8967685 62.3400371,24.6448377 59.8211063,24.6448377 C56.7032635,24.6448377 54.2528233,23.6342213 52.4690245,21.6129886 C50.6844648,19.5818628 49.7925654,16.7973408 49.7925654,13.2594226 C49.7925654,9.43460495 50.8069868,6.48722759 52.8365906,4.41576847" id="Fill-11"></path>
                                <polygon id="Fill-12" points="113.789922 2.12681375 118.546211 2.12681375 111.076935 24.0354238 106.752136 24.0354238 99.3429786 2.12681375 104.232444 2.12681375 108.988733 18.7586062"></polygon>
                                <polygon id="Fill-13" points="137.474721 6.00611941 125.881551 6.00611941 125.881551 10.6581509 136.523463 10.6581509 136.523463 14.4631823 125.881551 14.4631823 125.881551 20.0969119 138.009708 20.0969119 138.009708 24.0351194 121.407595 24.0351194 121.407595 2.12650935 137.474721 2.12650935"></polygon>
                                <path d="M146.154987,5.9318452 L146.154987,11.8174678 L151.081742,11.8174678 C152.060396,11.8174678 152.794767,11.6987509 153.283333,11.4613169 C154.150119,11.0450465 154.58237,10.2223987 154.58237,8.9933735 C154.58237,7.66541752 154.163056,6.77351815 153.325949,6.31843639 C152.855647,6.06045526 152.150194,5.9318452 151.20883,5.9318452 L146.154987,5.9318452 Z M155.617339,2.69148042 C156.424006,3.03849929 157.10815,3.5483735 157.668251,4.22262507 C158.131704,4.77739866 158.49927,5.39153073 158.769427,6.0657823 C159.040345,6.74003388 159.175043,7.50712822 159.175043,8.36934834 C159.175043,9.40964394 158.913257,10.4331974 158.387402,11.4384867 C157.862308,12.444537 156.995521,13.1553169 155.786282,13.5715873 C156.796899,13.9779647 157.513006,14.5548075 157.934603,15.3028766 C158.35544,16.0517068 158.566238,17.1932163 158.566238,18.728927 L158.566238,20.2007131 C158.566238,21.2014364 158.605811,21.880254 158.686477,22.237166 C158.807477,22.8018326 159.08905,23.2181031 159.531955,23.4852163 L159.531955,24.0354238 L154.478874,24.0354238 C154.339609,23.5499018 154.240679,23.1587446 154.18132,22.8611911 C154.062603,22.246298 153.997918,21.6177068 153.988025,20.9738955 L153.958345,18.9374427 C153.93932,17.5402351 153.698081,16.6087634 153.234628,16.1430276 C152.769653,15.6772917 151.900584,15.4444238 150.625899,15.4444238 L146.154987,15.4444238 L146.154987,24.0354238 L141.681031,24.0354238 L141.681031,2.12681375 L152.160848,2.12681375 C153.657748,2.156493 154.809911,2.34446155 155.617339,2.69148042 L155.617339,2.69148042 Z" id="Fill-14"></path>
                                <path d="M85.2804195,12.3163836 C85.6053692,12.6413332 85.6046082,13.1694716 85.2804195,13.4936603 C84.9554698,13.817849 84.4280925,13.81861 84.1031428,13.4936603 C83.7781931,13.1694716 83.7789541,12.6413332 84.1031428,12.3171446 C84.4280925,11.9929559 84.9554698,11.9921949 85.2804195,12.3163836 M82.8581365,11.0721383 C81.8475201,12.0819936 81.8475201,13.7272892 82.8588975,14.7386666 C83.8695138,15.7492829 85.5148094,15.7492829 86.5254258,14.7386666 C87.5352811,13.7272892 87.5352811,12.0827546 86.5246648,11.0721383 C85.5140484,10.0615219 83.8695138,10.0615219 82.8581365,11.0721383" id="Fill-15"></path>
                                <path d="M84.0021572,22.8129433 C78.5571572,22.4864716 74.3921698,17.7910628 74.7171195,12.3460628 C75.0314151,7.10120746 79.3995912,3.04276092 84.5873711,3.04276092 C84.7844717,3.04276092 84.9838553,3.04884897 85.184,3.06102507 C90.629,3.38749677 94.7939874,8.08290558 94.4690377,13.5279056 C94.142566,18.9729056 89.4441132,23.1455031 84.0021572,22.8129433 M97.5054528,25.199459 L94.2529119,21.5321697 C96.1219434,19.4363584 97.3266164,16.723371 97.5069748,13.7090251 C97.9331384,6.58905023 92.4858553,0.448490481 85.3651195,0.0230879651 C78.2459057,-0.400031532 72.1045849,5.04344646 71.6791824,12.1649433 C71.2530189,19.2849182 76.6995409,25.4254779 83.8210377,25.8508804 C84.0820629,25.8668616 84.341566,25.8744716 84.6003082,25.8744716 C87.3224277,25.8744716 89.8641887,25.0099685 91.9676101,23.5435093 L95.228522,27.2191697 C95.5291195,27.5578175 95.9469119,27.731327 96.3677484,27.731327 C96.7269434,27.731327 97.0868994,27.6049999 97.3768428,27.3477798 C98.005434,26.7899622 98.0640314,25.8280502 97.5054528,25.199459" id="Fill-16"></path>
                            </g>
                            <path d="M167.191406,42.1666667 L168.017578,38.2526042 L172.242188,38.2526042 L172.464844,37.2272135 L168.240234,37.2272135 L168.791016,34.6139323 L173.595703,34.6139323 L173.824219,33.5592448 L167.853516,33.5592448 L166.025391,42.1666667 L167.191406,42.1666667 Z M175.441406,42.3951823 C176.476562,42.3951823 177.310547,42.0651042 177.943359,41.4049479 C178.576172,40.7447917 179,39.9088542 179.214844,38.8971354 C179.4375,37.8502604 179.327148,37.0572917 178.883789,36.5182292 C178.44043,35.9791667 177.814453,35.7096354 177.005859,35.7096354 C176.103516,35.7096354 175.318359,36.0221354 174.650391,36.6471354 C173.982422,37.2721354 173.535156,38.1119792 173.308594,39.1666667 C173.101562,40.1510417 173.189453,40.9352214 173.572266,41.5192057 C173.955078,42.1031901 174.578125,42.3951823 175.441406,42.3951823 Z M175.734375,41.4869792 C175.097656,41.4869792 174.680664,41.2643229 174.483398,40.8190104 C174.286133,40.3736979 174.257812,39.8170573 174.398438,39.1490885 C174.546875,38.453776 174.819336,37.860026 175.21582,37.3678385 C175.612305,36.875651 176.132812,36.6295573 176.777344,36.6295573 C177.503906,36.6295573 177.955078,36.9186198 178.130859,37.4967448 C178.240234,37.8639323 178.232422,38.3404948 178.107422,38.9264323 C177.970703,39.5748698 177.71582,40.163737 177.342773,40.6930339 C176.969727,41.2223307 176.433594,41.4869792 175.734375,41.4869792 Z M180.861328,42.1666667 L181.623047,38.5572917 C181.720703,38.1119792 181.948242,37.7184245 182.305664,37.3766276 C182.663086,37.0348307 183.107422,36.8639323 183.638672,36.8639323 C183.701172,36.8639323 183.757812,36.8658854 183.808594,36.8697917 C183.859375,36.8736979 183.916016,36.8815104 183.978516,36.8932292 L183.978516,36.8932292 L184.212891,35.7799479 C184.103516,35.7682292 184.025391,35.7604167 183.978516,35.7565104 C183.931641,35.7526042 183.898438,35.750651 183.878906,35.750651 C183.460938,35.750651 183.05957,35.9020182 182.674805,36.2047526 C182.290039,36.507487 182.035156,36.7643229 181.910156,36.9752604 L181.910156,36.9752604 L182.138672,35.891276 L181.136719,35.891276 L179.806641,42.1666667 L180.861328,42.1666667 Z M184.828125,42.1666667 L185.53125,38.8385417 C185.703125,38.0299479 185.985352,37.4713542 186.37793,37.1627604 C186.770508,36.8541667 187.166016,36.6998698 187.564453,36.6998698 C188.001953,36.6998698 188.269531,36.8463542 188.367188,37.1393229 C188.425781,37.3346354 188.410156,37.6451823 188.320312,38.0709635 L188.320312,38.0709635 L187.453125,42.1666667 L188.525391,42.1666667 L189.298828,38.516276 C189.435547,37.8678385 189.682617,37.4049479 190.040039,37.1276042 C190.397461,36.8502604 190.783203,36.7115885 191.197266,36.7115885 C191.498047,36.7115885 191.736328,36.7897135 191.912109,36.9459635 C192.087891,37.1022135 192.132812,37.3893229 192.046875,37.8072917 L192.046875,37.8072917 L191.121094,42.1666667 L192.216797,42.1666667 L193.101562,37.9889323 C193.21875,37.4342448 193.230469,36.9928385 193.136719,36.6647135 C192.960938,36.0553385 192.451172,35.750651 191.607422,35.750651 C191.212891,35.750651 190.84082,35.8317057 190.491211,35.9938151 C190.141602,36.1559245 189.8125,36.4049479 189.503906,36.7408854 C189.421875,36.4674479 189.310547,36.2604167 189.169922,36.1197917 C188.916016,35.8736979 188.539062,35.750651 188.039062,35.750651 C187.597656,35.750651 187.177734,35.8697917 186.779297,36.1080729 C186.548828,36.2486979 186.275391,36.4733073 185.958984,36.781901 L185.958984,36.781901 L186.146484,35.891276 L185.103516,35.891276 L183.773438,42.1666667 L184.828125,42.1666667 Z M196.166016,42.3893229 C196.486328,42.3893229 196.78125,42.3580729 197.050781,42.2955729 C197.546875,42.1861979 197.988281,41.9752604 198.375,41.6627604 C198.605469,41.4830729 198.827148,41.2516276 199.040039,40.9684245 C199.25293,40.6852214 199.398438,40.4283854 199.476562,40.1979167 L199.476562,40.1979167 L198.439453,40.1979167 C198.302734,40.4752604 198.117188,40.719401 197.882812,40.9303385 C197.480469,41.2936198 197.003906,41.4752604 196.453125,41.4752604 C195.863281,41.4752604 195.467773,41.2828776 195.266602,40.898112 C195.06543,40.5133464 195.023438,40.0026042 195.140625,39.3658854 L195.140625,39.3658854 L199.740234,39.3658854 C199.876953,38.7330729 199.943359,38.2721354 199.939453,37.9830729 C199.958984,37.5611979 199.896484,37.1920573 199.751953,36.875651 C199.607422,36.5436198 199.347656,36.273112 198.972656,36.0641276 C198.597656,35.8551432 198.1875,35.750651 197.742188,35.750651 C196.859375,35.750651 196.078125,36.0651042 195.398438,36.6940104 C194.71875,37.3229167 194.271484,38.141276 194.056641,39.1490885 C193.837891,40.172526 193.939453,40.9684245 194.361328,41.5367839 C194.783203,42.1051432 195.384766,42.3893229 196.166016,42.3893229 Z M198.832031,38.5279948 L195.345703,38.5279948 C195.482422,37.9889323 195.751953,37.5445964 196.154297,37.194987 C196.556641,36.8453776 197,36.6705729 197.484375,36.6705729 C198.160156,36.6705729 198.587891,36.9244792 198.767578,37.4322917 C198.865234,37.7057292 198.886719,38.0709635 198.832031,38.5279948 L198.832031,38.5279948 Z M201.527344,42.1666667 L202.289062,38.5572917 C202.386719,38.1119792 202.614258,37.7184245 202.97168,37.3766276 C203.329102,37.0348307 203.773438,36.8639323 204.304688,36.8639323 C204.367188,36.8639323 204.423828,36.8658854 204.474609,36.8697917 C204.525391,36.8736979 204.582031,36.8815104 204.644531,36.8932292 L204.644531,36.8932292 L204.878906,35.7799479 C204.769531,35.7682292 204.691406,35.7604167 204.644531,35.7565104 C204.597656,35.7526042 204.564453,35.750651 204.544922,35.750651 C204.126953,35.750651 203.725586,35.9020182 203.34082,36.2047526 C202.956055,36.507487 202.701172,36.7643229 202.576172,36.9752604 L202.576172,36.9752604 L202.804688,35.891276 L201.802734,35.891276 L200.472656,42.1666667 L201.527344,42.1666667 Z M205.523438,42.1666667 L207.351562,33.5592448 L206.296875,33.5592448 L204.46875,42.1666667 L205.523438,42.1666667 Z M207.111328,44.7389323 C207.720703,44.7389323 208.1875,44.563151 208.511719,44.2115885 C208.835938,43.860026 209.474609,42.8834635 210.427734,41.281901 C210.830078,40.6022135 211.335938,39.7233073 211.945312,38.6451823 C212.761719,37.2115885 213.287109,36.2936198 213.521484,35.891276 L213.521484,35.891276 L212.355469,35.891276 L209.578125,41.000651 L208.980469,35.891276 L207.785156,35.891276 L208.734375,42.3483073 C208.648438,42.4889323 208.514648,42.703776 208.333008,42.9928385 C208.151367,43.281901 208.046875,43.4420573 208.019531,43.4733073 C207.9375,43.5670573 207.84375,43.6461589 207.738281,43.710612 C207.632812,43.7750651 207.482422,43.8072917 207.287109,43.8072917 C207.224609,43.8072917 207.15332,43.8014323 207.073242,43.7897135 C206.993164,43.7779948 206.867188,43.7467448 206.695312,43.6959635 L206.695312,43.6959635 L206.490234,44.656901 C206.599609,44.688151 206.693359,44.7096354 206.771484,44.7213542 C206.849609,44.7330729 206.962891,44.7389323 207.111328,44.7389323 Z M218.525391,42.3893229 C218.958984,42.3893229 219.362305,42.3033854 219.735352,42.1315104 C220.108398,41.9596354 220.458984,41.6803385 220.787109,41.2936198 L220.787109,41.2936198 L220.605469,42.1666667 L221.554688,42.1666667 L223.388672,33.5299479 L222.375,33.5299479 L221.701172,36.6998698 C221.525391,36.406901 221.355469,36.2018229 221.191406,36.0846354 C220.910156,35.8815104 220.529297,35.7799479 220.048828,35.7799479 C219.181641,35.7799479 218.443359,36.1149089 217.833984,36.7848307 C217.224609,37.4547526 216.824219,38.2467448 216.632812,39.1608073 C216.421875,40.1373698 216.509766,40.9195964 216.896484,41.507487 C217.283203,42.0953776 217.826172,42.3893229 218.525391,42.3893229 Z M219.052734,41.469401 C218.423828,41.469401 218.014648,41.2428385 217.825195,40.7897135 C217.635742,40.3365885 217.613281,39.7740885 217.757812,39.1022135 C217.925781,38.313151 218.217773,37.7154948 218.633789,37.3092448 C219.049805,36.9029948 219.523438,36.6998698 220.054688,36.6998698 C220.53125,36.6998698 220.890625,36.8902995 221.132812,37.2711589 C221.375,37.6520182 221.412109,38.2389323 221.244141,39.031901 C221.076172,39.8170573 220.791016,40.4195964 220.388672,40.8395182 C219.986328,41.2594401 219.541016,41.469401 219.052734,41.469401 Z M224.753906,42.3776042 C225.238281,42.3776042 225.703125,42.2740885 226.148438,42.0670573 C226.59375,41.860026 226.955078,41.6158854 227.232422,41.3346354 C227.212891,41.5846354 227.232422,41.7779948 227.291016,41.9147135 C227.400391,42.172526 227.636719,42.3014323 228,42.3014323 C228.148438,42.3014323 228.266602,42.2955729 228.354492,42.2838542 C228.442383,42.2721354 228.572266,42.2428385 228.744141,42.1959635 L228.744141,42.1959635 L228.914062,41.4166667 C228.84375,41.4283854 228.77832,41.4371745 228.717773,41.4430339 C228.657227,41.4488932 228.603516,41.4518229 228.556641,41.4518229 C228.412109,41.4518229 228.325195,41.4186198 228.295898,41.3522135 C228.266602,41.2858073 228.263672,41.1979167 228.287109,41.0885417 L228.287109,41.0885417 L229.054688,37.4733073 C229.179688,36.8795573 229.042969,36.4420573 228.644531,36.1608073 C228.246094,35.8795573 227.677734,35.7389323 226.939453,35.7389323 C226.302734,35.7389323 225.710938,35.8902995 225.164062,36.1930339 C224.617188,36.4957682 224.251953,37.0338542 224.068359,37.8072917 L224.068359,37.8072917 L225.052734,37.8072917 C225.158203,37.4830729 225.292969,37.2389323 225.457031,37.0748698 C225.75,36.7779948 226.171875,36.6295573 226.722656,36.6295573 C227.199219,36.6295573 227.548828,36.710612 227.771484,36.8727214 C227.994141,37.0348307 228.066406,37.2955729 227.988281,37.6549479 C227.953125,37.8307292 227.902344,37.9654948 227.835938,38.0592448 C227.714844,38.2311198 227.529297,38.3326823 227.279297,38.3639323 L227.279297,38.3639323 L225.556641,38.5748698 C224.951172,38.6490885 224.432617,38.8463542 224.000977,39.1666667 C223.569336,39.4869792 223.291016,39.938151 223.166016,40.5201823 C223.052734,41.0514323 223.143555,41.4938151 223.438477,41.8473307 C223.733398,42.2008464 224.171875,42.3776042 224.753906,42.3776042 Z M225.1875,41.4811198 C224.882812,41.4811198 224.637695,41.3932292 224.452148,41.2174479 C224.266602,41.0416667 224.207031,40.8014323 224.273438,40.4967448 C224.359375,40.094401 224.583984,39.8014323 224.947266,39.6178385 C225.162109,39.5084635 225.466797,39.4283854 225.861328,39.3776042 L225.861328,39.3776042 L226.517578,39.2955729 C226.716797,39.2721354 226.923828,39.2330729 227.138672,39.1783854 C227.353516,39.1236979 227.533203,39.0553385 227.677734,38.9733073 L227.677734,38.9733073 L227.501953,39.8229167 C227.361328,40.4713542 226.96875,40.938151 226.324219,41.2233073 C225.9375,41.3951823 225.558594,41.4811198 225.1875,41.4811198 Z M231.240234,42.266276 C231.392578,42.266276 231.536133,42.2584635 231.670898,42.2428385 C231.805664,42.2272135 231.9375,42.2018229 232.066406,42.1666667 L232.066406,42.1666667 L232.242188,41.3346354 C232.160156,41.3424479 232.089844,41.3473307 232.03125,41.3492839 C231.972656,41.351237 231.917969,41.3522135 231.867188,41.3522135 C231.675781,41.3522135 231.542969,41.3307292 231.46875,41.2877604 C231.335938,41.2135417 231.292969,41.0670573 231.339844,40.8483073 L231.339844,40.8483073 L232.212891,36.7526042 L233.214844,36.7526042 L233.396484,35.891276 L232.394531,35.891276 L232.769531,34.1393229 L231.703125,34.1393229 L231.328125,35.891276 L230.478516,35.891276 L230.296875,36.7526042 L231.146484,36.7526042 L230.261719,40.906901 C230.175781,41.3092448 230.194336,41.6363932 230.317383,41.8883464 C230.44043,42.1402995 230.748047,42.266276 231.240234,42.266276 Z M234.761719,42.3776042 C235.246094,42.3776042 235.710938,42.2740885 236.15625,42.0670573 C236.601562,41.860026 236.962891,41.6158854 237.240234,41.3346354 C237.220703,41.5846354 237.240234,41.7779948 237.298828,41.9147135 C237.408203,42.172526 237.644531,42.3014323 238.007812,42.3014323 C238.15625,42.3014323 238.274414,42.2955729 238.362305,42.2838542 C238.450195,42.2721354 238.580078,42.2428385 238.751953,42.1959635 L238.751953,42.1959635 L238.921875,41.4166667 C238.851562,41.4283854 238.786133,41.4371745 238.725586,41.4430339 C238.665039,41.4488932 238.611328,41.4518229 238.564453,41.4518229 C238.419922,41.4518229 238.333008,41.4186198 238.303711,41.3522135 C238.274414,41.2858073 238.271484,41.1979167 238.294922,41.0885417 L238.294922,41.0885417 L239.0625,37.4733073 C239.1875,36.8795573 239.050781,36.4420573 238.652344,36.1608073 C238.253906,35.8795573 237.685547,35.7389323 236.947266,35.7389323 C236.310547,35.7389323 235.71875,35.8902995 235.171875,36.1930339 C234.625,36.4957682 234.259766,37.0338542 234.076172,37.8072917 L234.076172,37.8072917 L235.060547,37.8072917 C235.166016,37.4830729 235.300781,37.2389323 235.464844,37.0748698 C235.757812,36.7779948 236.179688,36.6295573 236.730469,36.6295573 C237.207031,36.6295573 237.556641,36.710612 237.779297,36.8727214 C238.001953,37.0348307 238.074219,37.2955729 237.996094,37.6549479 C237.960938,37.8307292 237.910156,37.9654948 237.84375,38.0592448 C237.722656,38.2311198 237.537109,38.3326823 237.287109,38.3639323 L237.287109,38.3639323 L235.564453,38.5748698 C234.958984,38.6490885 234.44043,38.8463542 234.008789,39.1666667 C233.577148,39.4869792 233.298828,39.938151 233.173828,40.5201823 C233.060547,41.0514323 233.151367,41.4938151 233.446289,41.8473307 C233.741211,42.2008464 234.179688,42.3776042 234.761719,42.3776042 Z M235.195312,41.4811198 C234.890625,41.4811198 234.645508,41.3932292 234.459961,41.2174479 C234.274414,41.0416667 234.214844,40.8014323 234.28125,40.4967448 C234.367188,40.094401 234.591797,39.8014323 234.955078,39.6178385 C235.169922,39.5084635 235.474609,39.4283854 235.869141,39.3776042 L235.869141,39.3776042 L236.525391,39.2955729 C236.724609,39.2721354 236.931641,39.2330729 237.146484,39.1783854 C237.361328,39.1236979 237.541016,39.0553385 237.685547,38.9733073 L237.685547,38.9733073 L237.509766,39.8229167 C237.369141,40.4713542 236.976562,40.938151 236.332031,41.2233073 C235.945312,41.3951823 235.566406,41.4811198 235.195312,41.4811198 Z M241.482422,44.8209635 C242.697266,44.8209635 243.615234,44.3951823 244.236328,43.5436198 C244.568359,43.0826823 244.818359,42.453776 244.986328,41.656901 L244.986328,41.656901 L246.199219,35.9498698 L245.226562,35.9498698 L245.056641,36.7408854 C244.908203,36.4791667 244.748047,36.2799479 244.576172,36.1432292 C244.259766,35.9010417 243.855469,35.7799479 243.363281,35.7799479 C242.636719,35.7799479 241.954102,36.0748698 241.31543,36.6647135 C240.676758,37.2545573 240.246094,38.0748698 240.023438,39.125651 C239.785156,40.2389323 239.870117,41.0367839 240.27832,41.5192057 C240.686523,42.0016276 241.230469,42.2428385 241.910156,42.2428385 C242.398438,42.2428385 242.807617,42.1647135 243.137695,42.0084635 C243.467773,41.8522135 243.771484,41.6139323 244.048828,41.2936198 C243.876953,42.156901 243.681641,42.7565104 243.462891,43.0924479 C243.091797,43.6627604 242.501953,43.9479167 241.693359,43.9479167 C241.181641,43.9479167 240.832031,43.8307292 240.644531,43.5963542 C240.523438,43.4440104 240.466797,43.2272135 240.474609,42.9459635 L240.474609,42.9459635 L239.402344,42.9459635 C239.320312,43.5904948 239.477539,44.0641276 239.874023,44.366862 C240.270508,44.6695964 240.806641,44.8209635 241.482422,44.8209635 Z M242.214844,41.3815104 C241.730469,41.3815104 241.383789,41.1969401 241.174805,40.8277995 C240.96582,40.4586589 240.9375,39.9205729 241.089844,39.2135417 C241.214844,38.6119792 241.390625,38.125651 241.617188,37.7545573 C242.035156,37.0592448 242.615234,36.7115885 243.357422,36.7115885 C243.853516,36.7115885 244.222656,36.8990885 244.464844,37.2740885 C244.707031,37.6490885 244.744141,38.2252604 244.576172,39.0026042 C244.466797,39.5182292 244.285156,39.969401 244.03125,40.3561198 C243.578125,41.0397135 242.972656,41.3815104 242.214844,41.3815104 Z M248.496094,42.3365885 C249.070312,42.3365885 249.59375,42.172526 250.066406,41.844401 C250.304688,41.6803385 250.517578,41.4791667 250.705078,41.2408854 L250.705078,41.2408854 L250.5,42.1666667 L251.496094,42.1666667 L252.826172,35.891276 L251.771484,35.891276 L251.115234,38.9733073 C250.986328,39.5865885 250.8125,40.0690104 250.59375,40.4205729 C250.1875,41.0768229 249.617188,41.4049479 248.882812,41.4049479 C248.371094,41.4049479 248.0625,41.2174479 247.957031,40.8424479 C247.898438,40.6393229 247.902344,40.3776042 247.96875,40.0572917 L247.96875,40.0572917 L248.853516,35.891276 L247.775391,35.891276 L246.867188,40.156901 C246.753906,40.6920573 246.751953,41.1197917 246.861328,41.4401042 C247.056641,42.0377604 247.601562,42.3365885 248.496094,42.3365885 Z M254.226562,42.1666667 L254.988281,38.5572917 C255.085938,38.1119792 255.313477,37.7184245 255.670898,37.3766276 C256.02832,37.0348307 256.472656,36.8639323 257.003906,36.8639323 C257.066406,36.8639323 257.123047,36.8658854 257.173828,36.8697917 C257.224609,36.8736979 257.28125,36.8815104 257.34375,36.8932292 L257.34375,36.8932292 L257.578125,35.7799479 C257.46875,35.7682292 257.390625,35.7604167 257.34375,35.7565104 C257.296875,35.7526042 257.263672,35.750651 257.244141,35.750651 C256.826172,35.750651 256.424805,35.9020182 256.040039,36.2047526 C255.655273,36.507487 255.400391,36.7643229 255.275391,36.9752604 L255.275391,36.9752604 L255.503906,35.891276 L254.501953,35.891276 L253.171875,42.1666667 L254.226562,42.1666667 Z M259.166016,42.3365885 C259.740234,42.3365885 260.263672,42.172526 260.736328,41.844401 C260.974609,41.6803385 261.1875,41.4791667 261.375,41.2408854 L261.375,41.2408854 L261.169922,42.1666667 L262.166016,42.1666667 L263.496094,35.891276 L262.441406,35.891276 L261.785156,38.9733073 C261.65625,39.5865885 261.482422,40.0690104 261.263672,40.4205729 C260.857422,41.0768229 260.287109,41.4049479 259.552734,41.4049479 C259.041016,41.4049479 258.732422,41.2174479 258.626953,40.8424479 C258.568359,40.6393229 258.572266,40.3776042 258.638672,40.0572917 L258.638672,40.0572917 L259.523438,35.891276 L258.445312,35.891276 L257.537109,40.156901 C257.423828,40.6920573 257.421875,41.1197917 257.53125,41.4401042 C257.726562,42.0377604 258.271484,42.3365885 259.166016,42.3365885 Z M265.289062,42.1666667 L265.558594,40.8893229 L264.333984,40.8893229 L264.064453,42.1666667 L265.289062,42.1666667 Z M269.789062,34.7545573 L270.046875,33.5592448 L268.974609,33.5592448 L268.716797,34.7545573 L269.789062,34.7545573 Z M268.21875,42.1666667 L269.542969,35.9205729 L268.470703,35.9205729 L267.146484,42.1666667 L268.21875,42.1666667 Z M270.867188,42.1666667 L271.564453,38.8795573 C271.650391,38.469401 271.743164,38.1539714 271.842773,37.9332682 C271.942383,37.7125651 272.101562,37.4986979 272.320312,37.2916667 C272.59375,37.0338542 272.884766,36.8619792 273.193359,36.7760417 C273.365234,36.7252604 273.576172,36.6998698 273.826172,36.6998698 C274.318359,36.6998698 274.617188,36.8951823 274.722656,37.2858073 C274.785156,37.5201823 274.775391,37.828776 274.693359,38.2115885 L274.693359,38.2115885 L273.855469,42.1666667 L274.927734,42.1666667 L275.783203,38.141276 C275.916016,37.5084635 275.931641,37.0221354 275.830078,36.6822917 C275.650391,36.0611979 275.115234,35.750651 274.224609,35.750651 C273.818359,35.750651 273.432617,35.8307292 273.067383,35.9908854 C272.702148,36.1510417 272.332031,36.4147135 271.957031,36.781901 L271.957031,36.781901 L272.144531,35.891276 L271.142578,35.891276 L269.8125,42.1666667 L270.867188,42.1666667 Z" id="Formerlydataguru.in" fill="#808FA5" fill-rule="nonzero"></path>
                            <path d="M0.614166082,4.47521871 C0.219218713,4.86820117 0.000458479532,5.3961076 0.000458479532,6.02291462 C0.000458479532,6.71914854 0.293230409,7.2509848 0.730750877,7.68523041 C1.25276257,8.20396725 1.97912515,8.58450526 2.65636491,8.93884444 C3.85365146,9.56630643 4.65861053,10.002517 4.65861053,10.8998269 C4.65861053,12.0440608 3.84448187,12.240552 2.69762807,12.240552 C1.88480936,12.240552 0.99142924,12.1573708 0.464177778,12.0551953 C0.350867836,12.0335813 0.245417544,12.1200374 0.245417544,12.2353123 L0.245417544,13.1024936 C0.245417544,13.1915696 0.310259649,13.2668912 0.399335673,13.2819556 C0.992084211,13.3815111 1.82717193,13.4594526 2.69762807,13.4601076 C3.57659883,13.4601076 4.49879766,13.3880608 5.18520702,12.7042713 C5.64892632,12.2431719 5.88471579,11.5954058 5.88471579,10.7773474 C5.88471579,10.1223766 5.62534737,9.58399064 5.15442339,9.11437661 C4.63175673,8.59629474 3.90539415,8.21510175 3.22749942,7.86141754 C2.01973333,7.22871579 1.22656374,6.75844678 1.22656374,6.02291462 C1.22656374,5.13542924 2.05903158,4.9258386 2.94193216,4.9258386 C3.72855205,4.9258386 4.51844678,4.99133567 5.30572164,5.10661053 C5.41706667,5.1229848 5.51662222,5.03849357 5.51662222,4.92649357 L5.51662222,4.06389708 C5.51662222,3.97285614 5.44916023,3.89491462 5.3581193,3.8818152 C4.55119532,3.76916023 3.75409591,3.70693801 2.94193216,3.70693801 C2.0898152,3.70693801 1.2298386,3.86216608 0.614166082,4.47521871 L0.614166082,4.47521871 Z M8.6644117,9.15367485 L9.23423626,7.10689123 L9.79030643,5.10464561 C9.81978012,4.99854035 9.91671579,4.9258386 10.0274058,4.9258386 L10.2081778,4.9258386 C10.3182129,4.9258386 10.4151485,4.99854035 10.4439673,5.10464561 L11.0006924,7.10689123 L11.570517,9.15367485 C11.5751018,9.17397895 11.5613474,9.19231813 11.5410433,9.19231813 L10.1177918,9.19231813 L8.69454035,9.19231813 C8.67423626,9.19231813 8.65917193,9.17397895 8.6644117,9.15367485 L8.6644117,9.15367485 Z M9.7483883,3.70693801 C9.25192047,3.70693801 8.81767485,4.0363883 8.68537076,4.51189708 L8.13454035,6.48859883 C7.94263392,7.17566316 7.7258386,7.95573333 7.50904327,8.73514854 C7.29224795,9.51521871 7.07545263,10.2965988 6.8835462,10.9816982 L6.25870409,13.227593 C6.22661053,13.3441778 6.31437661,13.4601076 6.43685614,13.4601076 L7.32761637,13.4601076 C7.41014269,13.4601076 7.48284444,13.4044351 7.50511345,13.3251836 L7.9072655,11.8796632 L8.30876257,10.4347977 C8.3126924,10.4210433 8.3238269,10.4112187 8.33823626,10.4112187 L10.1177918,10.4112187 L11.8973474,10.4112187 C11.9104468,10.4112187 11.9228912,10.4210433 11.9261661,10.4347977 L12.3289731,11.8796632 L12.7304702,13.3251836 C12.7527392,13.4044351 12.824786,13.4601076 12.9079673,13.4601076 L13.7987275,13.4601076 C13.9198971,13.4601076 14.0083181,13.3441778 13.9755696,13.227593 L13.3507275,10.9816982 C13.159476,10.2965988 12.9426807,9.51521871 12.7252304,8.73514854 C12.5084351,7.95573333 12.2909848,7.17566316 12.1003883,6.48859883 L11.5502129,4.51189708 C11.4172538,4.0363883 10.9823532,3.70693801 10.4865404,3.70693801 L9.7483883,3.70693801 Z M14.9036632,3.70693801 C14.8014877,3.70693801 14.7196164,3.78880936 14.7196164,3.88901988 L14.7196164,6.71390877 L14.7196164,9.53748772 L14.7196164,12.3617216 C14.7196164,12.9682246 15.2134643,13.4601076 15.8232421,13.4601076 L17.8759205,13.4601076 L19.9299088,13.4601076 C20.0314292,13.4601076 20.1133006,13.3775813 20.1133006,13.2767158 L20.1133006,12.4226339 C20.1133006,12.3217684 20.0314292,12.240552 19.9299088,12.240552 L18.244014,12.240552 L16.5581193,12.240552 C16.2201544,12.240552 15.9457216,11.9667743 15.9457216,11.6307743 L15.9457216,9.05018947 L15.9457216,6.46960468 L15.9457216,3.88901988 C15.9457216,3.78880936 15.8625404,3.70693801 15.7616749,3.70693801 L14.9036632,3.70693801 Z M23.7608327,3.70693801 L21.7074994,3.70693801 C21.0977216,3.70693801 20.6045287,4.19816608 20.6045287,4.80401404 L20.6045287,7.32368655 L20.6045287,9.84270409 L20.6045287,12.3617216 C20.6045287,12.9682246 21.0977216,13.4601076 21.7074994,13.4601076 L23.7608327,13.4601076 L25.8141661,13.4601076 C25.9163415,13.4601076 25.9982129,13.3775813 25.9982129,13.2767158 L25.9982129,12.4226339 C25.9982129,12.3217684 25.9163415,12.240552 25.8141661,12.240552 L24.1282713,12.240552 L22.4423766,12.240552 C22.1050667,12.240552 21.8299789,11.9667743 21.8299789,11.6307743 L21.8299789,10.3653708 L21.8299789,9.10062222 C21.8299789,9.08424795 21.8437333,9.07049357 21.8607626,9.07049357 L25.324248,9.07049357 C25.4257684,9.07049357 25.5082947,8.98862222 25.5082947,8.88775673 L25.5082947,8.0349848 C25.5082947,7.93346433 25.4257684,7.85159298 25.324248,7.85159298 L21.8607626,7.85159298 C21.8437333,7.85159298 21.8299789,7.83849357 21.8299789,7.82146433 L21.8299789,6.67788538 L21.8299789,5.5349614 C21.8299789,5.19830643 22.1050667,4.9258386 22.4423766,4.9258386 L24.1282713,4.9258386 L25.8141661,4.9258386 C25.9163415,4.9258386 25.9982129,4.84331228 25.9982129,4.74310175 L25.9982129,3.88901988 C25.9982129,3.78880936 25.9163415,3.70693801 25.8141661,3.70693801 L23.7608327,3.70693801 Z M30.2398035,3.70693801 L28.7019322,3.70693801 L27.1634058,3.70693801 C27.0612304,3.70693801 26.9787041,3.78880936 26.9787041,3.88901988 L26.9787041,4.74310175 C26.9787041,4.84331228 27.0612304,4.9258386 27.1634058,4.9258386 L28.5139556,4.9258386 L29.8658152,4.9258386 L31.2183298,4.9258386 C31.3637333,4.9258386 31.4514994,5.08630643 31.372248,5.20682105 L29.960131,7.39442339 C29.5068912,8.09655205 29.0038737,8.87531228 28.5467041,9.58202573 L27.1345871,11.7696281 C26.6630082,12.4999205 27.1896047,13.4601076 28.0626807,13.4601076 L29.5605988,13.4601076 L31.057862,13.4601076 L32.5570901,13.4601076 C32.6586105,13.4601076 32.7411368,13.3775813 32.7411368,13.2767158 L32.7411368,12.4226339 C32.7411368,12.3217684 32.6586105,12.240552 32.5570901,12.240552 L31.2464936,12.240552 L29.9352421,12.240552 L28.6246456,12.240552 C28.4792421,12.240552 28.391476,12.0800842 28.4694175,11.9582596 L29.8828444,9.77196725 C30.3354292,9.0698386 30.8384468,8.29107836 31.2949614,7.58370994 L32.7077333,5.39676257 C33.1793123,4.66712515 32.6514058,3.70693801 31.7796398,3.70693801 L30.2398035,3.70693801 Z M34.2816281,4.59180351 C33.7936749,5.07844678 33.476669,5.76158129 33.476669,6.6326924 C33.476669,7.47694971 33.7969497,8.07952281 34.2475696,8.52621287 C34.8042947,9.08031813 35.559476,9.39732398 36.1476398,9.64424795 C37.128131,10.0555696 37.3842246,10.226517 37.3999439,10.5035696 C37.4307275,11.0190316 36.5596164,11.0216515 36.0507041,11.0216515 C35.4631953,11.0209965 34.6844351,10.8795228 33.948248,10.7105404 C33.8323181,10.6836865 33.7216281,10.7701427 33.7216281,10.8873825 L33.7216281,12.9453006 C33.7216281,13.0311018 33.7825404,13.1064234 33.8676865,13.1241076 C34.6798503,13.2930901 35.5103532,13.4601076 36.1731836,13.4601076 C37.2519205,13.4601076 38.3136281,13.249207 39.076014,12.4907509 C39.5803415,11.9890433 39.8508444,11.3144234 39.8508444,10.5336982 C39.8508444,9.64817778 39.5082947,9.01482105 39.0367158,8.54520702 C38.4518269,7.96424795 37.6691368,7.6361076 37.0999673,7.39704327 C36.7593825,7.25425965 35.9256047,6.88420117 35.9256047,6.5161076 C35.9256047,6.13163977 36.6997801,6.14473918 37.0318503,6.14473918 C37.6914058,6.14408421 38.5500725,6.26001404 39.2738152,6.36349942 C39.3838503,6.37856374 39.4834058,6.29341754 39.4834058,6.18207251 L39.4834058,4.09206082 C39.4834058,4.00036491 39.4146339,3.92242339 39.322938,3.91128889 C38.3575111,3.78749942 37.3907743,3.70693801 36.6637567,3.70693801 C35.7487626,3.70693801 34.9176047,3.96106667 34.2816281,4.59180351 L34.2816281,4.59180351 Z M46.5937684,3.70693801 C46.492248,3.70693801 46.4103766,3.78880936 46.4103766,3.88901988 L46.4103766,5.61093801 L46.4103766,7.33285614 C46.4103766,7.35054035 46.3959673,7.36363977 46.379593,7.36363977 L44.9393123,7.36363977 L43.4983766,7.36363977 C43.4813474,7.36363977 43.468248,7.35054035 43.468248,7.33285614 L43.468248,5.61093801 L43.468248,3.88901988 C43.468248,3.78880936 43.3857216,3.70693801 43.2835462,3.70693801 L41.2000842,3.70693801 C41.0979088,3.70693801 41.0160374,3.78880936 41.0160374,3.88901988 L41.0160374,7.01847018 L41.0160374,10.1466105 L41.0160374,13.2767158 C41.0160374,13.3775813 41.0979088,13.4601076 41.2000842,13.4601076 L43.2835462,13.4601076 C43.3857216,13.4601076 43.468248,13.3775813 43.468248,13.2767158 L43.468248,11.5547977 L43.468248,9.83287953 C43.468248,9.81519532 43.4813474,9.80209591 43.4983766,9.80209591 L44.9393123,9.80209591 L46.379593,9.80209591 C46.3959673,9.80209591 46.4103766,9.81519532 46.4103766,9.83287953 L46.4103766,11.5547977 L46.4103766,13.2767158 C46.4103766,13.3775813 46.492248,13.4601076 46.5937684,13.4601076 L48.6785404,13.4601076 C48.7794058,13.4601076 48.8619322,13.3775813 48.8619322,13.2767158 L48.8619322,10.1466105 L48.8619322,7.01847018 L48.8619322,3.88901988 C48.8619322,3.78880936 48.7794058,3.70693801 48.6785404,3.70693801 L46.5937684,3.70693801 Z M65.5342129,7.6989848 L65.5342129,6.17552281 C65.5342129,6.15849357 65.5486222,6.14473918 65.5649965,6.14473918 L67.1559205,6.14473918 C67.592131,6.14473918 67.973324,6.47942924 67.9857684,6.91301988 C67.9988678,7.36167485 67.6379789,7.72976842 67.189324,7.72976842 L65.5649965,7.72976842 C65.5486222,7.72976842 65.5342129,7.71601404 65.5342129,7.6989848 L65.5342129,7.6989848 Z M65.1910082,3.70693801 L63.2660491,3.70693801 C63.1651836,3.70693801 63.0820023,3.78880936 63.0820023,3.88901988 L63.0820023,7.01847018 L63.0820023,10.1466105 L63.0820023,13.2767158 C63.0820023,13.3775813 63.1651836,13.4601076 63.2660491,13.4601076 L65.3501661,13.4601076 C65.4516865,13.4601076 65.5342129,13.3775813 65.5342129,13.2767158 L65.5342129,11.7375345 L65.5342129,10.1976982 C65.5342129,10.181324 65.5486222,10.1675696 65.5649965,10.1675696 L66.1629848,10.1675696 C66.2291368,10.1675696 66.2900491,10.203593 66.3227977,10.2605754 L67.2050433,11.8135111 L68.0872889,13.3664468 C68.1200374,13.4240842 68.1802947,13.4601076 68.2477567,13.4601076 L70.6148211,13.4601076 C70.7556398,13.4601076 70.8447158,13.3088094 70.7752889,13.1876398 L69.809862,11.4689965 L68.8444351,9.75100819 C68.8359205,9.73659883 68.8411602,9.71891462 68.8549146,9.7104 C69.3513825,9.41500819 69.7633591,8.99058713 70.0410667,8.48429474 C70.3102596,7.99503158 70.4563181,7.42979181 70.436014,6.82918363 C70.4078503,5.94955789 70.0161778,5.16752281 69.4103298,4.60490292 C68.8084117,4.04686784 67.994938,3.70693801 67.1153123,3.70693801 L65.1910082,3.70693801 Z M76.8776515,3.70693801 C76.8128094,3.70693801 76.7518971,3.74034152 76.7191485,3.79535906 L75.5991485,5.65416608 L74.4791485,7.5129731 C74.4634292,7.53917193 74.4221661,7.52803743 74.4221661,7.4972538 L74.4221661,5.69346433 L74.4221661,3.88901988 C74.4221661,3.78880936 74.3396398,3.70693801 74.2387743,3.70693801 L72.1546573,3.70693801 C72.0531368,3.70693801 71.9706105,3.78880936 71.9706105,3.88901988 L71.9706105,7.01847018 L71.9706105,10.1466105 L71.9706105,13.2767158 C71.9706105,13.3775813 72.0531368,13.4601076 72.1546573,13.4601076 L74.2387743,13.4601076 C74.3396398,13.4601076 74.4221661,13.3775813 74.4221661,13.2767158 L74.4221661,11.1015579 L74.4221661,8.92705497 C74.4221661,8.89561637 74.4634292,8.88448187 74.4784936,8.9106807 L75.8441076,11.1415111 L77.2097216,13.3716865 C77.2431251,13.4260491 77.3020725,13.4601076 77.3669146,13.4601076 L79.7346339,13.4601076 C79.8774175,13.4601076 79.9658386,13.3035696 79.8911719,13.1810901 L78.4011135,10.7465637 L76.9104,8.31138246 C76.8750316,8.25374503 76.8750316,8.1803883 76.909745,8.12275088 L78.1581193,6.05304327 L79.4051836,3.98399064 C79.4778854,3.86151111 79.3888094,3.70693801 79.2466807,3.70693801 L76.8776515,3.70693801 Z M61.7563415,0.075780117 C60.109745,0.37968655 58.5391251,0.797557895 57.1165287,1.43877427 C55.6434994,2.10422456 54.3256982,3.00939415 53.2443415,4.27741754 C52.3005287,5.38693801 51.5361778,6.77285614 51.0043415,8.51704327 C50.5917099,9.87086784 50.3185871,11.4408327 50.209862,13.2649263 C50.2039673,13.3697216 50.2878035,13.4601076 50.3945637,13.4601076 L52.7341193,13.4601076 C52.8349848,13.4601076 52.9168561,13.3782363 52.9168561,13.2773708 C52.9220959,12.3106339 53.0124819,11.3661661 53.1925988,10.4623064 C53.3812304,9.51194386 53.6700725,8.60808421 54.061745,7.77103158 C54.4684819,6.90450526 54.9865637,6.11002573 55.6212304,5.41313684 C56.2467275,4.72738246 56.9855345,4.13528889 57.8448561,3.66370994 C57.9784702,3.58969825 58.1409029,3.70104327 58.116669,3.85103158 C57.9843649,4.65075088 57.916248,5.45832982 57.9090433,6.26721871 C57.9018386,7.07676257 57.9542363,7.88630643 58.0636164,8.68799064 C58.1723415,9.4909848 58.3380491,10.2854643 58.5568094,11.0629146 C58.7762246,11.8462596 59.0493474,12.6112655 59.370283,13.3487626 C59.4004117,13.4162246 59.4665637,13.4601076 59.5405754,13.4601076 L61.9187743,13.4601076 C62.058283,13.4601076 62.1453942,13.3107743 62.0792421,13.1889497 C61.5074526,12.130517 61.1072655,11.0910784 60.8420023,10.0876632 C60.535476,8.92836491 60.4084117,7.81818947 60.402517,6.78137076 C60.3953123,5.55723041 60.5557801,4.43788538 60.7896047,3.46918363 C61.1242947,2.07278596 61.6076632,0.985534503 61.9521778,0.341043275 C62.0183298,0.21659883 61.9233591,0.0725052632 61.7904,0.0725052632 C61.7792655,0.0725052632 61.767476,0.0731602339 61.7563415,0.075780117 L61.7563415,0.075780117 Z" id="Fill-1" fill="#410093"></path>
                        </g>
                    </g>
                </g>
            </g>
        </g>
    </g>
</svg>