<?xml version="1.0" encoding="UTF-8"?>
<svg width="330px" height="284px" viewBox="0 0 330 284" version="1.1" xmlns="http://www.w3.org/2000/svg" xmlns:xlink="http://www.w3.org/1999/xlink">
    <!-- Generator: sketchtool 52.6 (67491) - http://www.bohemiancoding.com/sketch -->
    <title>442896F2-A072-46F8-B96B-D431ACF9ECE9</title>
    <desc>Created with sketchtool.</desc>
    <defs>
        <linearGradient x1="0%" y1="0%" x2="146.236308%" y2="147.570856%" id="linearGradient-1">
            <stop stop-color="#2523AE" offset="0%"></stop>
            <stop stop-color="#D76D6D" offset="71.0995709%"></stop>
            <stop stop-color="#D76D6D" offset="100%"></stop>
        </linearGradient>
        <path d="M146.042963,296.062811 L106.009049,279.966104 C68.3372982,264.819169 45.5113123,226.283496 50.3305942,185.967681 L53.5045097,159.416216 C56.6744704,132.897836 71.2620306,109.08428 93.4460416,94.2134083 L128.635816,70.6242283 C159.518713,49.9221291 199.852677,49.9449799 230.712097,70.6820586 L266.39614,94.6612136 C288.456175,109.485234 302.988361,133.161354 306.219578,159.54233 L309.503682,186.355097 C314.438109,226.641776 291.618918,265.198502 253.928521,280.25835 L214.190194,296.136484 C192.31067,304.878825 167.903534,304.852439 146.042963,296.062811 Z" id="path-2"></path>
        <path d="M312.992312,118.180589 L311.677262,117.654116 C302.705732,114.062421 297.267003,104.890746 298.419007,95.2958778 L298.419007,95.2958778 C299.658668,84.9709226 305.351275,75.7043294 314.000806,69.9313681 L314.86304,69.3558868 C323.634427,63.5015943 335.068829,63.5081358 343.833512,69.3724604 L344.765418,69.9959855 C353.418737,75.7857973 359.12404,85.0547875 360.39518,95.3885209 L360.39518,95.3885209 C361.574578,104.976434 356.137428,114.153109 347.161477,117.724012 L345.924064,118.216292 C335.347638,122.423912 323.55959,122.411131 312.992312,118.180589 Z" id="path-3"></path>
        <path d="M37.9359089,194.862939 L36.964359,194.472238 C29.7887809,191.586639 25.4422799,184.245062 26.3631827,176.566029 L26.3631827,176.566029 C27.3541223,168.302988 31.8975795,160.882309 38.806545,156.242697 L39.4552357,155.807078 C46.4284808,151.124299 55.5422053,151.127539 62.5121185,155.815276 L63.1958114,156.275106 C70.1066742,160.923127 74.656543,168.344979 75.6633316,176.612415 L75.6633316,176.612415 C76.5980409,184.287958 72.2523595,191.63206 65.074543,194.507227 L64.1420327,194.880756 C55.7303768,198.250153 46.3429754,198.243771 37.9359089,194.862939 Z" id="path-4"></path>
    </defs>
    <g id="Members-and-Teams" stroke="none" stroke-width="1" fill="none" fill-rule="evenodd">
        <g id="Admin_Add-User_step-1" transform="translate(-978.000000, -142.000000)">
            <g id="Group-5">
                <g id="User-Illustration" transform="translate(950.000000, 85.000000)">
                    <g id="Star" fill-rule="nonzero" transform="translate(179.931383, 178.893813) rotate(41.000000) translate(-179.931383, -178.893813) ">
                        <use fill="#1D1E1F" xlink:href="#path-2"></use>
                        <use fill="url(#linearGradient-1)" xlink:href="#path-2"></use>
                    </g>
                    <g id="Star-Copy" opacity="0.300000012" fill-rule="nonzero" transform="translate(329.410490, 93.166233) rotate(41.000000) translate(-329.410490, -93.166233) ">
                        <use fill="#1D1E1F" xlink:href="#path-3"></use>
                        <use fill="url(#linearGradient-1)" xlink:href="#path-3"></use>
                    </g>
                    <g id="Star-Copy-2" fill-rule="nonzero" transform="translate(51.014964, 174.850212) rotate(-43.000000) translate(-51.014964, -174.850212) ">
                        <use fill="#1D1E1F" xlink:href="#path-4"></use>
                        <use fill="url(#linearGradient-1)" xlink:href="#path-4"></use>
                    </g>
                    <g id="Group" transform="translate(46.744000, 124.305292)">
                        <g id="Group-4" transform="translate(86.000000, 0.000000)">
                            <polygon id="Fill-91" fill="#B79480" points="74.9770312 140.355185 95.9031492 212.440033 98.2951903 212.440033 82.2391903 140.111959"></polygon>
                            <polygon id="Fill-93" fill="#B79480" points="37.1493375 141.32067 21.3272098 211.342963 24.1348892 211.342963 45.3106326 141.29878"></polygon>
                            <polygon id="Fill-95" fill="#B79480" points="55.8193755 140.111716 58.257464 212.252506 61.6007473 212.252506 63.0657816 140.39021"></polygon>
                            <polygon id="Fill-97" fill="#B79480" points="36.4369358 169.823701 84.2220154 168.321781 84.5370765 173.287237 32.8512978 175.275608"></polygon>
                            <polygon id="Fill-99" fill="#000F38" points="37.1493375 141.32067 36.4174263 144.564087 44.3230372 144.564087 45.3106326 141.29878"></polygon>
                            <polygon id="Fill-101" fill="#000F38" points="55.8513663 141.053487 55.9701202 144.564452 62.9814421 144.564452 63.0662663 140.38948"></polygon>
                            <polyline id="Fill-103" fill="#000F38" points="56.8016392 169.183652 56.9761346 174.347337 53.9345829 174.347337 52.7518919 169.310129 57.6062568 169.183652"></polyline>
                            <polygon id="Fill-105" fill="#000F38" points="62.4829185 169.005489 62.4829185 174.136338 64.7877118 174.047561 65.4578226 168.911847"></polygon>
                            <polygon id="Fill-107" fill="#000F38" points="74.9770312 140.355185 75.7246955 142.930947 82.8656772 142.930947 82.2391903 140.111959"></polygon>
                            <path d="M32.8512978,141.299266 L90.3075423,141.299266 C93.9416513,141.299266 101.741838,131.696709 59.4206454,132.792442 C19.6793189,133.82372 32.8512978,141.299266 32.8512978,141.299266" id="Fill-109" fill="#053142"></path>
                            <g id="Group-113" transform="translate(35.497811, 0.023106)" fill="#000F38">
                                <path d="M11.1977573,31.248564 C9.27224912,31.4674673 7.28494044,31.5173286 5.43213863,30.9457478 C3.57933682,30.3753832 1.86346542,29.1008796 1.14367191,27.2949276 C0.425090174,25.4889756 0.929187985,23.1576558 2.55659991,22.0984071 C3.32728791,21.5961457 4.35850723,21.3188683 4.71719221,20.4687939 C5.11586572,19.520213 4.42757832,18.5059612 3.9792221,17.5804868 C2.78683689,15.1166088 3.38302949,11.9035952 5.38003236,10.0368367 C7.378247,8.16886212 10.6148942,7.80037495 12.9778527,9.17095267 C13.3377495,4.91936463 17.2287545,1.26854447 21.4784444,1.19314446 C25.7293462,1.1201767 29.7451638,4.63235812 30.2516852,8.8693526 C30.4007333,10.1171013 30.2977326,11.4584919 30.9290666,12.5432792 C31.6476484,13.7800827 33.1199533,14.3431506 34.1148194,15.3671315 C36.0585042,17.3676642 35.7979729,20.6329713 34.9085311,23.2804848 C34.0215128,25.9267822 32.6243379,28.5122731 32.7055267,31.3032898" id="Fill-111"></path>
                                <path d="M16.3817573,31.248564 C14.4562491,31.4674673 12.4689404,31.5173286 10.6161386,30.9457478 C8.76333682,30.3753832 7.04746542,29.1008796 6.32767191,27.2949276 C5.60909017,25.4889756 6.11318798,23.1576558 7.74059991,22.0984071 C8.51128791,21.5961457 9.54250723,21.3188683 9.90119221,20.4687939 C10.2998657,19.520213 9.61157832,18.5059612 9.1632221,17.5804868 C7.97083689,15.1166088 8.56702949,11.9035952 10.5640324,10.0368367 C12.562247,8.16886212 15.7988942,7.80037495 18.1618527,9.17095267 C18.5217495,4.91936463 22.4127545,1.26854447 26.6624444,1.19314446 C30.9133462,1.1201767 34.9291638,4.63235812 35.4356852,8.8693526 C35.5847333,10.1171013 35.4817326,11.4584919 36.1130666,12.5432792 C36.8316484,13.7800827 38.3039533,14.3431506 39.2988194,15.3671315 C41.2425042,17.3676642 40.9819729,20.6329713 40.0925311,23.2804848 C39.2055128,25.9267822 37.8083379,28.5122731 37.8895267,31.3032898" id="Fill-111-Copy" transform="translate(23.388021, 16.296726) scale(-1, 1) translate(-23.388021, -16.296726) "></path>
                            </g>
                            <path d="M50.0838267,29.4257908 C67.0699709,60.0651311 41.7541716,53.5612641 40.8458652,30.635764" id="Path" fill="#000F38" fill-rule="nonzero"></path>
                            <path d="M54.2609135,49.2998144 C54.4802445,47.7991109 53.7240978,41.5323966 53.7240978,41.5323966 C53.7240978,41.5323966 47.9960441,41.0654029 47.5125464,35.3885114 C47.0266252,29.7104036 47.0581313,16.5908008 47.0581313,16.5908008 L57.3400302,11.2301028 L67.7164474,19.6700401 L67.9491079,48.1262496 L54.2609135,49.2998144 Z" id="Fill-114" fill="#FFBB99"></path>
                            <path d="M48.4256178,26.1197819 C48.435312,26.5211046 48.767338,26.8397304 49.1672232,26.8300014 C49.5683203,26.8202724 49.885805,26.4858368 49.874899,26.0845141 C49.8652048,25.6831915 49.5331789,25.3645656 49.1332936,25.3742946 C48.7321965,25.3840237 48.4159236,25.7172431 48.4256178,26.1197819" id="Fill-116" fill="#000F38"></path>
                            <path d="M47.7037643,25.3430401 C47.7994944,25.4342498 48.3254041,24.9648239 49.1033628,24.9040174 C49.8825332,24.8310497 50.4787258,25.2056175 50.5574911,25.0985981 C50.5974796,25.0511691 50.4956906,24.8796948 50.2351593,24.7094367 C49.9782633,24.5403948 49.5492955,24.3908109 49.0633742,24.4321593 C48.5786648,24.4735077 48.1812031,24.6948432 47.957025,24.9052336 C47.7292115,25.1168401 47.6577169,25.3029078 47.7037643,25.3430401" id="Fill-118" fill="#000F38"></path>
                            <path d="M56.8287829,25.9154722 C56.8384771,26.3167948 57.1705031,26.6354207 57.5703883,26.6256917 C57.9714854,26.6147465 58.2877583,26.2815271 58.2780641,25.8802044 C58.2683699,25.4788817 57.936344,25.1602559 57.5364587,25.1699849 C57.1353616,25.1797139 56.817877,25.5129334 56.8287829,25.9154722" id="Fill-120" fill="#000F38"></path>
                            <path d="M56.3589783,25.132893 C56.4547084,25.2241027 56.9794064,24.7534606 57.7585768,24.6938703 C58.5377472,24.6209025 59.1339398,24.9954704 59.2114933,24.888451 C59.2514818,24.8410219 59.1509046,24.6695477 58.8891615,24.4992896 C58.6334773,24.3302476 58.2032977,24.1794476 57.7185883,24.220796 C57.232667,24.2621444 56.8352053,24.4834799 56.6110272,24.6950864 C56.3832138,24.9066929 56.3129309,25.0927607 56.3589783,25.132893" id="Fill-122" fill="#000F38"></path>
                            <path d="M53.7022859,31.8191719 C53.7010741,31.8653848 53.2103058,31.9006525 52.4165941,31.9213267 C52.3184405,31.9225428 52.2069573,31.9298396 52.0760857,31.8982203 C51.9476377,31.8738977 51.7949543,31.7717428 51.731942,31.6209428 C51.6107647,31.3156943 51.7258832,31.0359846 51.7876836,30.7927587 C51.9379435,30.2710393 52.0942623,29.7225649 52.2590635,29.149768 C52.9461392,26.8208804 53.5750497,24.954122 53.6635091,24.9820929 C53.7531804,25.0076316 53.2696827,26.9169546 52.5813953,29.2446261 C52.4093235,29.8162069 52.2433105,30.3610328 52.0857799,30.8815362 C52.0033793,31.1320588 51.9318847,31.3643395 51.988838,31.510275 C52.0300383,31.6501299 52.2202868,31.6768847 52.4202294,31.6817492 C53.2127294,31.7230976 53.7022859,31.7729589 53.7022859,31.8191719" id="Fill-124" fill="#000F38"></path>
                            <path d="M57.4595111,32.1149345 C57.4958643,32.7631314 58.4992128,33.2045864 59.7061393,33.2021541 C60.911854,33.1985057 61.9042966,32.7521863 61.9248967,32.1039893 C61.9430733,31.4606569 60.9373013,30.8550245 59.675845,30.8586729 C58.4131769,30.8611052 57.4231579,31.4716021 57.4595111,32.1149345" id="Fill-126" fill="#FF967E"></path>
                            <path d="M56.400421,32.4593423 C56.4549508,32.3936713 54.1489456,33.8542426 52.5554634,33.8943749 C52.5554634,33.8943749 53.5721414,35.2868429 55.1619883,34.5681105 C56.8112122,33.8214071 56.400421,32.4593423 56.400421,32.4593423" id="Fill-128" fill="#F5F0EB"></path>
                            <path d="M53.7236131,41.5327614 C53.7236131,41.5327614 57.5394881,41.4829001 61.16875,38.8061995 C61.16875,38.8061995 59.5679971,43.0225198 53.8811437,42.9252295 L53.7236131,41.5327614 Z" id="Fill-130" fill="#FF967E"></path>
                            <path d="M44.499229,18.3039621 C46.2793244,19.9664109 49.0676155,20.1986916 51.3469616,19.3522656 C53.6275195,18.5058396 55.4609329,16.7461005 56.9453555,14.8148871 C58.8999463,16.7679908 61.8845447,17.616849 64.5686232,16.9795973 C64.9757791,22.159092 65.3853586,27.3398028 65.7937262,32.5180814 C66.5377552,32.6445588 67.8549531,32.3441749 68.5420287,32.0304135 C69.2048689,28.4440482 69.3308933,25.0546958 69.9949453,21.4683305 C70.2348764,20.1670722 70.467537,18.7758203 69.9488979,17.5584748 C69.3939056,16.2560004 68.1118491,15.4521389 66.9727819,14.6166581 C65.5574304,13.5768675 64.2656798,12.3728995 62.8273045,11.3659444 C61.3889293,10.3589894 59.7554585,9.53931823 58.0056574,9.41162466 C56.225562,9.28149882 54.4793963,9.87132153 52.7913957,10.4550636 C50.8695228,11.1178541 48.9016025,11.8061832 47.3372028,13.1074416 C45.7715913,14.4087 44.6713009,16.4724714 45.0796686,18.4705718" id="Fill-132" fill="#000F38"></path>
                            <path d="M67.7170533,24.9108278 C68.3023399,24.6797632 68.9033796,24.4438341 69.5310783,24.4268083 C70.1612006,24.4073502 70.8349467,24.6505761 71.1681845,25.1868891 C71.4153863,25.5857795 71.4396217,26.0929054 71.3293503,26.55017 C71.1536432,27.2847121 70.6313688,27.9292607 69.950352,28.2551833 C69.2693352,28.581106 68.4416939,28.5798899 67.7606771,28.2527511" id="Fill-134" fill="#FFBB99"></path>
                            <path d="M59.6440965,23.6887394 C59.7361913,23.6765781 59.7979917,24.0791169 59.4841424,24.4074718 C59.1727166,24.7370429 58.769196,24.6956945 58.7776784,24.6020525 C58.7704077,24.5071944 59.0273037,24.408688 59.2405759,24.173975 C59.4635422,23.9489911 59.5483664,23.6863072 59.6440965,23.6887394" id="Fill-136" fill="#000F38"></path>
                            <path d="M71.0600942,27.5283028 C71.0770591,27.5039803 71.3993909,27.7034255 71.9895246,28.0342126 C72.5735995,28.3722966 73.4388058,28.818616 74.4457896,29.476542 L74.5354609,29.5337001 L74.4930488,29.6370711 C74.1985878,30.360668 73.8120321,31.1487198 73.3757936,31.9842006 C73.1576743,32.4025491 72.9322844,32.834275 72.6996239,33.2793783 C72.4693869,33.7220494 72.217338,34.1975559 71.8986416,34.6256334 L71.816241,34.7375173 L71.6938518,34.6840076 C71.5193564,34.6061754 71.3315315,34.5246947 71.1412831,34.4419979 C69.5696127,33.7998816 68.1942497,32.9583202 66.9800526,32.3429587 L66.8455457,32.2748555 L66.9109815,32.1422974 C67.6295632,30.6963197 68.1142727,29.4254646 68.4935578,28.5474192 C68.8667841,27.6669416 69.1151976,27.1744092 69.1430684,27.1865705 C69.1733628,27.1987318 68.9831143,27.7143706 68.658359,28.6130902 C68.326333,29.5069452 67.8804004,30.7972584 67.1799952,32.2736394 L67.1121359,32.0741942 C68.3590509,32.6786104 69.7174491,33.4958493 71.2770017,34.1318849 C71.4648266,34.2145817 71.6526515,34.2960624 71.8283587,34.3738947 L71.623569,34.4322689 C71.9374183,34.0127043 72.1712906,33.5712493 72.4075865,33.1249299 C72.6450941,32.6822588 72.8753311,32.2529652 73.0982974,31.8358328 C73.5430183,31.0076488 73.9392683,30.2378389 74.2482706,29.5324839 L74.2955297,29.6954453 C73.3248991,29.0241419 72.474234,28.5413386 71.9107593,28.1619062 C71.3412257,27.7909868 71.045553,27.548977 71.0600942,27.5283028" id="Fill-138" fill="#BC8231"></path>
                            <path d="M57.7991712,113.536129 C57.7991712,113.536129 17.381675,110.985906 12.2958613,120.099579 C7.21125935,129.214468 17.7040503,209.684528 17.7040503,209.684528 L27.9749997,210.879983 L29.6896594,134.59584 L61.0685363,135.406998 L57.7991712,113.536129 Z" id="Fill-140" fill="#FFA38D"></path>
                            <path d="M37.4451315,114.723801 L37.9031819,135.180312 L44.2710521,135.180312 L52.6819725,115.353756 C52.6819725,115.353756 40.0940685,113.573342 37.4451315,114.723801" id="Fill-142" fill="#000F38"></path>
                            <path d="M88.7716193,113.673916 C88.7716193,113.673916 46.9993603,108.571038 41.9147583,117.683495 C36.8301564,126.797168 47.784,211.419697 47.1132996,210.551016 L57.3479067,210.551016 L59.4200395,135.318586 L68.8791442,134.94645 C80.2673923,135.240753 89.4708127,125.699003 88.8067608,114.285629 L88.7716193,113.673916 Z" id="Fill-144" fill="#FFBB99"></path>
                            <path d="M76.5178013,68.7115487 L90.3077847,65.9047223 C90.3077847,65.9047223 85.7369747,45.2876822 69.8578937,45.2876822 C54.6355939,45.2876822 53.7231284,45.9456082 53.7231284,45.9456082 C53.7231284,45.9456082 36.4505077,46.9099987 28.7860398,62.1128311 L42.1034315,71.8783494 L45.3606789,69.9033554 C45.3606789,69.9033554 46.4234043,91.409386 44.5936262,97.2614002 C42.5239169,103.882008 39.1636688,111.893868 39.1636688,111.893868 L88.7712558,113.674281 L76.5178013,68.7115487 C81.2849186,68.4208938 85.6376093,67.4808259 90.0351356,65.6128512" id="Fill-146" fill="#9013FE"></path>
                            <path d="M46.7382231,69.6236457 C46.9115067,71.0598944 45.871805,72.3392624 44.8139266,73.3218949 C43.7560483,74.3045274 42.5466983,75.288376 42.2013428,76.6917892 C41.9686823,77.6342894 42.1722602,78.6388122 42.5515454,79.5314511 C43.5306584,81.8420968 45.732451,83.5860262 48.199622,84.0055908" id="Fill-148" fill="#00BCDF"></path>
                            <path d="M35.1396437,62.9706887 C35.1396437,62.9706887 14.2341258,84.0060772 10.2449671,88.7137138 C6.84351867,92.7293727 9.06227611,100.309507 11.9123676,100.636645 C14.7612473,100.962568 60.8413614,100.332613 60.8413614,100.332613 L60.2306275,90.8723433 C60.2306275,90.8723433 30.3870677,91.0085498 29.5097436,90.456427 C28.6336313,89.9030882 46.7738818,71.5018358 46.7738818,71.5018358 L35.1396437,62.9706887 Z" id="Fill-150" fill="#FFBB99"></path>
                            <path d="M55.0466275,90.8727081 C55.0466275,90.8727081 64.9165234,91.5367147 66.5596883,100.491075 L55.6573614,100.331762 L55.0466275,90.8727081 Z" id="Fill-152" fill="#FFBB99"></path>
                            <path d="M85.8693998,65.901682 C90.3513464,78.8121106 92.8488118,86.0286219 93.3617959,87.5512158 C94.1300604,89.8351066 97.6087608,98.2914203 90.12,99.1001463 C82.6288157,99.9088723 46.3389437,100.302331 46.3389437,100.302331 L43.3482865,90.5392455 C43.3482865,90.5392455 82.2110771,90.440739 82.0147698,88.3575095 C81.8172507,86.27428 76.1110089,68.8228245 76.1110089,68.8228245 L85.8693998,65.901682 Z" id="Fill-154" fill="#FFBB99"></path>
                            <polygon id="Fill-156" fill="#002665" points="6.72776169 60.8472054 21.1696793 100.997714 87.653637 100.968527 87.1919513 99.0069105 61.9446486 97.1535295 49.9674785 60.2294117"></polygon>
                            <path d="M37.4582186,82.2802681 C37.7223853,83.7663782 36.910497,85.1527656 35.6478289,85.3789656 C34.383949,85.6039495 33.1455164,84.5824009 32.8837733,83.0962909 C32.6196067,81.6101809 33.431495,80.2225774 34.6941631,79.9975935 C35.9580429,79.7713934 37.1952638,80.792942 37.4582186,82.2802681" id="Fill-158" fill="#FFFFFF"></path>
                            <path d="M54.1413115,45.6146994 C54.1413115,45.6146994 52.8798552,62.4313354 58.7763454,62.2805353 C64.6740475,62.1297353 67.9494715,45.2875606 67.9494715,45.2875606 C63.4016852,44.623554 58.7981573,44.7500315 54.1413115,45.6146994" id="Fill-160" fill="#FFBB99"></path>
                            <path d="M77.3946407,72.2686053 C77.2225688,72.3075214 76.6360704,70.3690113 75.9320299,67.9805334 C75.2352601,65.5871909 74.6645148,63.6486808 74.8281042,63.5854421 C74.9904819,63.5234195 75.8350881,65.3877457 76.536705,67.8005462 C77.2480161,70.2109145 77.5630772,72.2309053 77.3946407,72.2686053" id="Fill-162" fill="#D2AA8B"></path>
                            <path d="M68.3170024,45.2132551 C68.3557791,45.2229842 68.270955,45.7556488 68.0395062,46.7017974 C67.8080575,47.6467299 67.4372548,49.0075786 66.8701447,50.6554338 C66.3078818,52.303289 65.5456762,54.2381507 64.5592925,56.3225963 C64.0503476,57.3575223 63.5510969,58.4508226 62.8628095,59.5356099 C62.1733103,60.5839134 61.2729625,61.7234265 59.8600345,62.1685298 C58.4325653,62.6318751 56.9311778,61.9605717 56.0502184,61.0071264 C55.1183645,60.0342229 54.682126,58.8071485 54.398571,57.6822289 C53.8641788,55.4153638 53.6727186,53.3357827 53.6242477,51.5869888 C53.5806238,49.8381949 53.6969541,48.4262687 53.8181314,47.459446 C53.9429441,46.4926232 54.0653333,45.9660392 54.10411,45.9721198 C54.2192285,45.983065 53.8835672,48.1210203 54.0701803,51.5687469 C54.1731811,53.2859214 54.4106887,55.3399638 54.9620457,57.5362933 C55.2468125,58.615 55.6769921,59.7374874 56.4937275,60.5741843 C57.2922863,61.4120974 58.5210247,61.9398975 59.6770567,61.5616813 C60.8343005,61.2090038 61.6861773,60.194752 62.3453822,59.197526 C63.0009517,58.1796257 63.5220143,57.081461 64.0370181,56.0672091 C65.0415784,54.0180313 65.8389254,52.1196534 66.4508711,50.5022015 C67.0676638,48.8871818 67.500267,47.554304 67.8032104,46.6336942 C68.1061538,45.7118681 68.270955,45.1998777 68.3170024,45.2132551" id="Fill-164" fill="#D2AA8B"></path>
                            <path d="M89.3253998,63.4599375 C89.4126475,63.5876311 86.6534391,65.3230476 82.7903049,66.2497382 C78.9320178,67.2031835 75.6880999,66.9295544 75.7074883,66.775106 C75.7050648,66.5793092 78.8799115,66.5659318 82.6412568,65.6343767 C86.4098726,64.7332249 89.2393639,63.2848149 89.3253998,63.4599375" id="Fill-166" fill="#D2AA8B"></path>
                            <path d="M73.9214552,76.6449682 C73.9735615,76.6887488 73.4803696,77.4086974 72.3291847,78.185804 C71.1973882,78.9592623 69.3324686,79.7181269 67.1864176,79.6427269 C65.0403666,79.5624624 63.234824,78.6698235 62.1624043,77.8148846 C61.0718081,76.9562973 60.6295108,76.2022971 60.6864641,76.163381 C60.7640176,76.0928455 61.3190099,76.7264489 62.4217239,77.4500458 C63.5086848,78.1736427 65.2184973,78.9349397 67.2094413,79.0091236 C69.2003853,79.0808752 70.9598806,78.4448396 72.0965242,77.8027233 C73.2489209,77.1618231 73.847537,76.5695682 73.9214552,76.6449682" id="Fill-168" fill="#D2AA8B"></path>
                            <path d="M37.4451315,178.008859 L59.8108365,178.28492 L60.8020673,137.155427 C60.8020673,137.155427 90.3075423,138.900573 89.5695722,112.249099 C89.5695722,112.249099 45.3713425,109.385115 42.1031891,112.249099 C33.2378536,120.015301 37.4451315,177.361878 37.4451315,177.361878" id="Fill-170" fill="#FF6D75"></path>
                            <path d="M6.72776169,177.179945 L29.4981991,177.179945 L30.8723504,135.18092 L44.971336,136.972278 L60.0058109,113.235867 C60.0058109,113.235867 25.9731498,105.727484 11.6003033,116.812503 C10.456389,117.695413 9.53180577,120.812352 9.45909935,122.25833 L6.72776169,177.179945 Z" id="Fill-172" fill="#FF6D75"></path>
                            <path d="M55.4608117,111.359257 C55.4608117,111.484519 53.265078,111.349528 49.7715347,111.583025 C48.0326396,111.727745 45.9508126,112.036641 43.8495972,112.949955 C41.7604996,113.842593 39.6604959,115.434507 38.5080993,117.81204 C37.3363142,120.172547 37.0576063,122.765334 37.0273119,125.065035 C37.0394297,127.387842 37.1012301,129.507555 37.0709358,131.277023 C37.0515474,133.05014 36.9764174,134.485172 36.8976522,135.472669 C36.8176751,136.461382 36.7401216,137.004992 36.6989213,137.00256 C36.6528739,137.000128 36.6480268,136.451653 36.6528739,135.46294 C36.6540857,134.474227 36.6613563,133.045275 36.6250031,131.279455 C36.5728968,129.46499 36.5123082,127.367167 36.4456606,125.062602 C36.4468724,122.715473 36.7037684,120.032692 37.9446245,117.526249 C39.1697276,114.993052 41.4405913,113.303848 43.620572,112.412425 C45.8259999,111.491816 47.9744745,111.226699 49.7412404,111.13549 C51.5164887,111.050361 52.9475933,111.130625 53.9327652,111.187783 C54.9191489,111.253454 55.4620235,111.316693 55.4608117,111.359257" id="Fill-174" fill="#C04D59"></path>
                            <path d="M29.1260635,130.059678 C29.2969235,130.020762 29.6980206,131.121359 30.0227759,132.517475 C30.3499548,133.91724 30.4747675,135.082292 30.3063309,135.121208 C30.1366826,135.16134 29.7343738,134.060743 29.4084067,132.663411 C29.0836514,131.264862 28.9564152,130.09981 29.1260635,130.059678" id="Fill-176" fill="#C04D59"></path>
                            <path d="M30.730694,128.430186 C30.8954952,128.400999 31.30871,130.046422 31.2638744,132.124787 C31.228733,134.203152 30.752506,135.832765 30.5901283,135.796281 C30.4107858,135.761013 30.5998225,134.126536 30.6337522,132.111409 C30.677376,130.098715 30.5513515,128.458157 30.730694,128.430186" id="Fill-178" fill="#C04D59"></path>
                            <path d="M59.3647827,131.22473 C59.5332192,131.180949 60.0809409,132.71692 60.5874622,134.65543 C61.0939836,136.595157 61.3678444,138.20288 61.1994079,138.24666 C61.0309714,138.292873 60.4832497,136.755686 59.9767283,134.815959 C59.470207,132.876233 59.1951344,131.26851 59.3647827,131.22473" id="Fill-180" fill="#C04D59"></path>
                            <path d="M61.3468807,131.214028 C61.5141055,131.192137 61.8279548,132.784051 61.7176834,134.768774 C61.6134709,136.753497 61.1263379,138.300413 60.9639603,138.261497 C60.7870413,138.223797 60.986984,136.661071 61.0875612,134.734722 C61.1966208,132.808373 61.1675382,131.23227 61.3468807,131.214028" id="Fill-182" fill="#C04D59"></path>
                            <path d="M27.912,210.879052 L17.544,209.686473 L2.0450838,211.98802 C1.02171492,212.139988 0.264,213.01853 0.264,214.053121 L27.912,214.053121 L27.912,210.879052 Z" id="Path-2" fill="#004397" fill-rule="nonzero"></path>
                            <path d="M58.3219338,211.082225 L47.9538221,209.894036 L32.4526235,212.201968 C31.4291722,212.354347 30.6714264,213.232895 30.6709966,214.267627 L58.3206155,214.256109 L58.3219338,211.082225 Z" id="Path-2-Copy" fill="#004397" fill-rule="nonzero" transform="translate(44.496465, 212.080832) rotate(-8.000000) translate(-44.496465, -212.080832) "></path>
                        </g>
                        <g id="table" transform="translate(0.000000, 99.000000)">
                            <rect id="Rectangle" fill="#A2816E" fill-rule="nonzero" x="19.736" y="3.26019527" width="6.912" height="114.392761"></rect>
                            <rect id="Rectangle-Copy" fill="#A2816E" fill-rule="nonzero" x="275.48" y="3.26019527" width="6.912" height="114.392761"></rect>
                            <polygon id="Fill-188" fill="#B79480" points="2.2494752 7.14680567 301.065571 7.14680567 301.065571 0.355939656 0.630545691 0.355939656"></polygon>
                        </g>
                    </g>
                </g>
            </g>
        </g>
    </g>
</svg>