<?xml version="1.0" encoding="UTF-8"?>
<svg width="18px" height="30px" viewBox="0 0 18 30" version="1.1" xmlns="http://www.w3.org/2000/svg" xmlns:xlink="http://www.w3.org/1999/xlink">
    <!-- Generator: Sketch 47.1 (45422) - http://www.bohemiancoding.com/sketch -->
    <title>mouse_body</title>
    <desc>Created with Sketch.</desc>
    <defs></defs>
    <g id="Page-1" stroke="none" stroke-width="1" fill="none" fill-rule="evenodd">
        <g id="DG_Home_Blue" transform="translate(-674.000000, -714.000000)" fill="#8D95A5">
            <g id="Mouse" transform="translate(674.000000, 714.000000)">
                <g id="mouse_body">
                    <path d="M0,8.91972973 C0,3.99364865 4.02831818,0 9,0 C13.9704545,0 18,3.99162162 18,8.91972973 L18,21.0802703 C18,26.0063514 13.9716818,30 9,30 C4.02954545,30 0,26.0083784 0,21.0802703 L0,8.91972973 Z M1.63636364,8.91972973 L1.63636364,8.91972973 L1.63636364,21.0802703 C1.63636364,25.112027 4.93240909,28.3783784 9,28.3783784 C13.0671818,28.3783784 16.3636364,25.1112162 16.3636364,21.0802703 L16.3636364,8.91972973 C16.3636364,4.88797297 13.0675909,1.62162162 9,1.62162162 C4.93240909,1.62162162 1.63636364,4.88878378 1.63636364,8.91972973 L1.63636364,8.91972973 Z" id="Fill-1"></path>
                    <path d="M8.18181818,6.48985135 C8.18181818,6.04025676 8.54509091,5.6757973 9,5.6757973 C9.45163636,5.6757973 9.81818182,6.04147297 9.81818182,6.48985135 L9.81818182,9.7262027 C9.81818182,10.1757973 9.45490909,10.5406622 9,10.5406622 C8.54836364,10.5406622 8.18181818,10.1749865 8.18181818,9.7262027 L8.18181818,6.48985135 Z" id="Fill-3"></path>
                </g>
            </g>
        </g>
    </g>
</svg>