<?xml version="1.0" encoding="UTF-8"?>
<svg width="74px" height="60px" viewBox="0 0 74 60" version="1.1" xmlns="http://www.w3.org/2000/svg" xmlns:xlink="http://www.w3.org/1999/xlink">
    <!-- Generator: Sketch 47 (45396) - http://www.bohemiancoding.com/sketch -->
    <title>ic_news@1x</title>
    <desc>Created with Sketch.</desc>
    <defs></defs>
    <g id="Page-1" stroke="none" stroke-width="1" fill="none" fill-rule="evenodd">
        <g id="DG_Home_Blue" transform="translate(-998.000000, -950.000000)" fill="#016BFF">
            <g id="Advance-Search-panel" transform="translate(0.000000, 768.000000)">
                <g id="ic_news" transform="translate(998.000000, 182.000000)">
                    <path d="M53.7546657,29.9879707 C51.2827968,29.7037545 49.0691586,28.4726924 47.5213984,26.5213451 C45.9752622,24.5699979 45.2793386,22.133047 45.5651789,19.659554 C46.1076258,14.9537457 50.0825924,11.4051034 54.8111379,11.4051034 C55.1692503,11.4051034 55.5346712,11.4262167 55.8944077,11.467631 C60.9989306,12.0555525 64.6742521,16.6890887 64.0871427,21.7952357 C63.5438837,26.5026681 59.567293,30.0513103 54.8411836,30.0513103 C54.4814471,30.0513103 54.1152142,30.0301971 53.7546657,29.9879707 Z M54.1243448,37.7061379 L46.3202069,37.7061379 C46.6981379,35.2006207 46.9036552,32.5578621 46.9071034,29.8137241 C48.7305517,31.4095862 50.9850345,32.4213103 53.4429655,32.704069 C53.9050345,32.7571724 54.3753793,32.7847586 54.8388276,32.7847586 C54.9622759,32.7847586 55.0822759,32.7709655 55.2029655,32.7682069 C55.0022759,34.4688966 54.6422759,36.122 54.1243448,37.7061379 L54.1243448,37.7061379 Z M40.7953793,52.8895862 C42.8264138,49.9592414 44.4471034,46.1868276 45.5084828,41.8433793 L52.356069,41.8433793 C49.7808966,46.6426897 45.7215862,50.5295862 40.7953793,52.8895862 L40.7953793,52.8895862 Z M31.8326207,55.1157931 L31.8326207,41.844069 L41.2202069,41.844069 C39.3167586,48.8544138 35.8395172,53.9771724 31.8326207,55.1157931 L31.8326207,55.1157931 Z M31.8326207,21.1544138 L42.0084828,21.1544138 C42.4988276,23.8551034 42.7698621,26.7516552 42.7698621,29.7495862 C42.7698621,32.5130345 42.5374483,35.1888966 42.1167586,37.7061379 L31.8326207,37.7061379 L31.8326207,21.1544138 Z M31.8326207,4.38268966 C35.716069,5.48613793 39.0988276,10.3357931 41.0367586,17.0164828 L31.8326207,17.0164828 L31.8326207,4.38268966 Z M47.4105517,11.2302759 C46.2884828,12.1068276 45.3250345,13.1785517 44.5698621,14.4013103 C43.5829655,11.4364828 42.3174483,8.81303448 40.8257241,6.65096552 C43.2650345,7.82268966 45.4774483,9.38062069 47.4105517,11.2302759 L47.4105517,11.2302759 Z M27.6953793,17.0164828 L19.2677931,17.0164828 C21.076069,10.7854483 24.1395172,6.14268966 27.6953793,4.65096552 L27.6953793,17.0164828 Z M27.6953793,37.7061379 L18.1877931,37.7061379 C17.7671034,35.1888966 17.5346897,32.5130345 17.5346897,29.7495862 C17.5346897,26.7516552 17.8057241,23.8551034 18.2967586,21.1544138 L27.6946897,21.1544138 L27.6946897,37.7061379 L27.6953793,37.7061379 Z M27.6953793,54.8475172 C24.0188276,53.3054483 20.8650345,48.3964828 19.0850345,41.844069 L27.6953793,41.844069 L27.6953793,54.8475172 Z M7.17193103,41.844069 L14.796069,41.844069 C15.9215862,46.4475172 17.676069,50.4075172 19.8808966,53.4047586 C14.4381379,51.1206207 9.94572414,47.0102759 7.17193103,41.844069 L7.17193103,41.844069 Z M4.13882759,29.764069 C4.13882759,26.7447586 4.6677931,23.8468276 5.63124138,21.1544138 L14.0850345,21.1544138 C13.6395172,23.8668276 13.3974483,26.7482069 13.3974483,29.7495862 C13.3974483,32.5171724 13.6036552,35.1813103 13.9850345,37.7061379 L5.40434483,37.7061379 C4.58710345,35.204069 4.13882759,32.5364828 4.13882759,29.764069 L4.13882759,29.764069 Z M19.851931,6.13372414 C17.7629655,8.98682759 16.0795172,12.704069 14.956069,17.0157931 L7.54848276,17.0157931 C10.3381379,12.1737241 14.6595172,8.32062069 19.851931,6.13372414 L19.851931,6.13372414 Z M70.5008966,39.3295862 L73.4264138,36.404069 L64.6795172,27.6571724 C65.8036552,26.0578621 66.5629655,24.1730345 66.8015862,22.1088966 C67.5615862,15.5047586 62.8084828,9.51303448 56.2057241,8.75303448 C55.7436552,8.69993103 55.2753793,8.67303448 54.8126207,8.67303448 C53.576069,8.67303448 52.3822759,8.86889655 51.254,9.21855172 C46.0326207,3.762 38.7698621,0.274413793 30.6981379,0.0233793103 C30.5167586,0.0137241379 30.336069,-6.89655172e-05 30.1526207,-6.89655172e-05 C29.9271034,0.00544827586 29.8457241,-6.89655172e-05 29.7636552,-6.89655172e-05 C13.351931,-6.89655172e-05 0.000206896552,13.3523448 0.000206896552,29.764069 C0.000206896552,46.1757931 13.351931,59.5268276 29.7636552,59.5268276 C45.4705517,59.5268276 58.3650345,47.2957931 59.4457241,31.8592414 C60.2650345,31.5192414 61.0388276,31.0909655 61.7553793,30.5847586 L70.5008966,39.3295862 Z" id="Fill-1"></path>
                </g>
            </g>
        </g>
    </g>
</svg>