<?xml version="1.0" encoding="UTF-8"?>
<svg width="189px" height="137px" viewBox="0 0 189 137" version="1.1" xmlns="http://www.w3.org/2000/svg" xmlns:xlink="http://www.w3.org/1999/xlink">
    <!-- Generator: Sketch 48.2 (47327) - http://www.bohemiancoding.com/sketch -->
    <title>Illustration_News_not found</title>
    <desc>Created with Sketch.</desc>
    <defs></defs>
    <g id="DG_Home_Company_no-result" stroke="none" stroke-width="1" fill="none" fill-rule="evenodd" transform="translate(-1059.000000, -1016.000000)">
        <g id="Illustration_News_not-found" transform="translate(1056.000000, 1010.000000)">
            <path d="M21.2253445,32.3250632 L160.225345,32.3250632 C166.576619,32.3250632 171.725345,37.4737886 171.725345,43.8250632 C171.725345,50.1763378 166.576619,55.3250632 160.225345,55.3250632 L21.2253445,55.3250632 C14.8740699,55.3250632 9.72534454,50.1763378 9.72534454,43.8250632 C9.72534454,37.4737886 14.8740699,32.3250632 21.2253445,32.3250632 Z M40.7028877,64.8081779 L179.702888,64.8081779 C186.054162,64.8081779 191.202888,69.9569033 191.202888,76.3081779 C191.202888,82.6594525 186.054162,87.8081779 179.702888,87.8081779 L40.7028877,87.8081779 C34.351613,87.8081779 29.2028877,82.6594525 29.2028877,76.3081779 C29.2028877,69.9569033 34.351613,64.8081779 40.7028877,64.8081779 Z M34.3377044,96.027326 L173.337704,96.027326 C179.688979,96.027326 184.837704,101.176051 184.837704,107.527326 C184.837704,113.878601 179.688979,119.027326 173.337704,119.027326 L34.3377044,119.027326 C27.9864297,119.027326 22.8377044,113.878601 22.8377044,107.527326 C22.8377044,101.176051 27.9864297,96.027326 34.3377044,96.027326 Z" id="Combined-Shape" fill="#F1F1F1" transform="translate(100.464116, 75.676195) rotate(-23.000000) translate(-100.464116, -75.676195) "></path>
            <circle id="Oval-2" fill="#EEEEEE" cx="107" cy="72" r="66"></circle>
            <rect id="Rectangle-7" fill="#55ACEE" x="50" y="23" width="21" height="3" rx="1.5"></rect>
            <rect id="Rectangle-7-Copy" fill="#55ACEE" x="44" y="28" width="21" height="3" rx="1.5"></rect>
            <rect id="Rectangle-8" fill="#0164CF" x="169" y="20" width="18" height="3" rx="1.5"></rect>
            <path d="M170.791667,118.791667 L170.791667,114.958333 C170.791667,114.42906 171.220727,114 171.75,114 C172.279273,114 172.708333,114.42906 172.708333,114.958333 L172.708333,118.791667 L176.541667,118.791667 C177.07094,118.791667 177.5,119.220727 177.5,119.75 C177.5,120.279273 177.07094,120.708333 176.541667,120.708333 L172.708333,120.708333 L172.708333,124.541667 C172.708333,125.07094 172.279273,125.5 171.75,125.5 C171.220727,125.5 170.791667,125.07094 170.791667,124.541667 L170.791667,120.708333 L166.958333,120.708333 C166.42906,120.708333 166,120.279273 166,119.75 C166,119.220727 166.42906,118.791667 166.958333,118.791667 L170.791667,118.791667 Z" id="Combined-Shape" fill="#3C5A99"></path>
            <path d="M73.7916667,10.7916667 L73.7916667,6.95833333 C73.7916667,6.42906045 74.2207271,6 74.75,6 C75.2792729,6 75.7083333,6.42906045 75.7083333,6.95833333 L75.7083333,10.7916667 L79.5416667,10.7916667 C80.0709396,10.7916667 80.5,11.2207271 80.5,11.75 C80.5,12.2792729 80.0709396,12.7083333 79.5416667,12.7083333 L75.7083333,12.7083333 L75.7083333,16.5416667 C75.7083333,17.0709396 75.2792729,17.5 74.75,17.5 C74.2207271,17.5 73.7916667,17.0709396 73.7916667,16.5416667 L73.7916667,12.7083333 L69.9583333,12.7083333 C69.4290604,12.7083333 69,12.2792729 69,11.75 C69,11.2207271 69.4290604,10.7916667 69.9583333,10.7916667 L73.7916667,10.7916667 Z" id="Combined-Shape-Copy" fill="#8D95A5"></path>
            <circle id="Oval-3" fill="#FFD794" cx="163" cy="38" r="6"></circle>
            <circle id="Oval-4" fill="#DA4B42" cx="50" cy="116" r="4"></circle>
            <path d="M118.4,90.1333333 L133.6,90.1333333 L133.6,87.6 L118.4,87.6 L118.4,90.1333333 Z M118.4,83.8 L133.6,83.8 L133.6,81.2666667 L118.4,81.2666667 L118.4,83.8 Z M118.4,77.4666667 L133.6,77.4666667 L133.6,74.9333333 L118.4,74.9333333 L118.4,77.4666667 Z M95.6,90.1333333 L110.8,90.1333333 L110.8,87.6 L95.6,87.6 L95.6,90.1333333 Z M95.6,83.8 L110.8,83.8 L110.8,81.2666667 L95.6,81.2666667 L95.6,83.8 Z M95.6,77.4666667 L110.8,77.4666667 L110.8,74.9333333 L95.6,74.9333333 L95.6,77.4666667 Z M118.4,67.3333333 L133.6,67.3333333 L133.6,64.8 L118.4,64.8 L118.4,67.3333333 Z M118.4,61 L133.6,61 L133.6,58.4666667 L118.4,58.4666667 L118.4,61 Z M122.2,54.6666667 L133.6,54.6666667 L133.6,52.1333333 L122.2,52.1333333 L122.2,54.6666667 Z M95.6,68.6 L110.8,68.6 L110.8,53.4 L95.6,53.4 L95.6,68.6 Z M139.933333,91.4 C139.933333,94.9466667 137.146667,97.7333333 133.6,97.7333333 L87.8733333,97.7333333 C88.76,96.2133333 89.2666667,94.5666667 89.2666667,92.6666667 L89.2666667,52.1333333 L89.2666667,47.0666667 L139.933333,47.0666667 L139.933333,91.4 Z M74.0666667,92.6666667 L74.0666667,54.6666667 L84.2,54.6666667 L84.2,92.6666667 C84.2,95.4533333 81.92,97.7333333 79.1333333,97.7333333 C76.3466667,97.7333333 74.0666667,95.4533333 74.0666667,92.6666667 Z M142.466667,42 L86.7333333,42 C85.34,42 84.2,43.14 84.2,44.5333333 L84.2,49.6 L71.5333333,49.6 C70.14,49.6 69,50.74 69,52.1333333 L69,92.6666667 C69,98.24 73.56,102.8 79.1333333,102.8 L133.6,102.8 C139.933333,102.8 145,97.7333333 145,91.4 L145,44.5333333 C145,43.14 143.86,42 142.466667,42 Z" id="ic_news" fill="#CECECE"></path>
        </g>
    </g>
</svg>