<?xml version="1.0" encoding="UTF-8"?>
<svg width="271px" height="196px" viewBox="0 0 271 196" version="1.1" xmlns="http://www.w3.org/2000/svg" xmlns:xlink="http://www.w3.org/1999/xlink">
    <!-- Generator: sketchtool 53.1 (72631) - https://sketchapp.com -->
    <title>9DF7F007-661C-4F3D-A52F-6F605F0391A2</title>
    <desc>Created with sketchtool.</desc>
    <defs>
        <linearGradient x1="0%" y1="4.77854818%" x2="146.236308%" y2="138.245915%" id="linearGradient-1">
            <stop stop-color="#2523AE" offset="0%"></stop>
            <stop stop-color="#D76D6D" offset="71.0995709%"></stop>
            <stop stop-color="#D76D6D" offset="100%"></stop>
        </linearGradient>
        <path d="M105.626946,227.161945 L82.1367802,217.711035 C52.8354952,205.922109 35.0826619,175.946112 38.8290893,144.585175 L40.1889365,133.202042 C43.3560539,106.690446 57.9349965,82.8810092 80.1087192,68.0074961 L92.2826232,59.8415818 C120.771349,40.7321416 157.988698,40.7532318 186.455747,59.8949476 L199.06665,68.3747278 C221.116454,83.2013812 235.640052,106.873448 238.868375,133.247705 L240.293016,144.886521 C244.128957,176.22481 226.38137,206.217154 197.065551,217.938312 L173.811847,227.235692 C151.921227,235.98808 127.498582,235.961665 105.626946,227.161945 Z" id="path-2"></path>
        <linearGradient x1="0%" y1="9.01773078%" x2="146.236308%" y2="129.973502%" id="linearGradient-3">
            <stop stop-color="#2523AE" offset="0%"></stop>
            <stop stop-color="#D76D6D" offset="71.0995709%"></stop>
            <stop stop-color="#D76D6D" offset="100%"></stop>
        </linearGradient>
        <path d="M237.585555,106.727261 L236.270504,106.200789 C227.298975,102.609093 221.860246,93.4374185 223.01225,83.84255 L223.01225,83.84255 C224.251911,73.5175949 229.944518,64.2510016 238.594049,58.4780403 L239.456283,57.9025591 C248.22767,52.0482666 259.662071,52.054808 268.426755,57.9191326 L269.358661,58.5426577 C278.01198,64.3324696 283.717283,73.6014597 284.988423,83.9351931 L284.988423,83.9351931 C286.16782,93.5231059 280.730671,102.699781 271.75472,106.270684 L270.517307,106.762964 C259.940881,110.970584 248.152833,110.957804 237.585555,106.727261 Z" id="path-4"></path>
        <linearGradient x1="0%" y1="8.56397141%" x2="146.236308%" y2="130.858975%" id="linearGradient-5">
            <stop stop-color="#2523AE" offset="0%"></stop>
            <stop stop-color="#D76D6D" offset="71.0995709%"></stop>
            <stop stop-color="#D76D6D" offset="100%"></stop>
        </linearGradient>
        <path d="M20.4207524,159.402905 L19.4492025,159.012204 C12.2736244,156.126605 7.92712338,148.785028 8.84802615,141.105995 L8.84802615,141.105995 C9.83896577,132.842954 14.382423,125.422275 21.2913885,120.782662 L21.9400792,120.347044 C28.9133243,115.664265 38.0270487,115.667505 44.996962,120.355242 L45.6806549,120.815072 C52.5915176,125.463093 57.1413865,132.884945 58.1481751,141.152381 L58.1481751,141.152381 C59.0828843,148.827924 54.737203,156.172026 47.5593865,159.047193 L46.6268762,159.420722 C38.2152203,162.790119 28.8278189,162.783736 20.4207524,159.402905 Z" id="path-6"></path>
    </defs>
    <g id="Mailing-List" stroke="none" stroke-width="1" fill="none" fill-rule="evenodd">
        <g id="List_list_Create-list_step-2" transform="translate(-693.000000, -353.000000)" fill-rule="nonzero">
            <g id="Content" transform="translate(120.000000, 90.000000)">
                <g transform="translate(0.000000, 38.000000)" id="All-members_list">
                    <g transform="translate(234.000000, 90.000000)">
                        <g id="List">
                            <g id="illustration_create-list" transform="translate(328.000000, 90.000000)">
                                <g id="Star" transform="translate(139.572125, 139.082893) rotate(41.000000) translate(-139.572125, -139.082893) ">
                                    <use fill="#1D1E1F" xlink:href="#path-2"></use>
                                    <use fill="url(#linearGradient-1)" xlink:href="#path-2"></use>
                                </g>
                                <path d="M148.548228,101.262514 L150.305371,101.262514 C150.636742,101.262514 150.905371,101.531143 150.905371,101.862514 L150.905371,101.948228 C150.905371,102.279599 150.636742,102.548228 150.305371,102.548228 L148.548228,102.548228 L148.548228,104.305371 C148.548228,104.636742 148.279599,104.905371 147.948228,104.905371 L147.862514,104.905371 C147.531143,104.905371 147.262514,104.636742 147.262514,104.305371 L147.262514,102.548228 L145.505371,102.548228 C145.174,102.548228 144.905371,102.279599 144.905371,101.948228 L144.905371,101.862514 C144.905371,101.531143 145.174,101.262514 145.505371,101.262514 L147.262514,101.262514 L147.262514,99.5053713 C147.262514,99.1740005 147.531143,98.9053713 147.862514,98.9053713 L147.948228,98.9053713 C148.279599,98.9053713 148.548228,99.1740005 148.548228,99.5053713 L148.548228,101.262514 Z" id="Combined-Shape" fill="#F5A623" transform="translate(147.905371, 101.905371) rotate(22.000000) translate(-147.905371, -101.905371) "></path>
                                <circle id="Oval" fill="#D8D8D8" opacity="0.200000003" cx="116" cy="98" r="2"></circle>
                                <circle id="Oval-Copy-3" fill="#D8D8D8" opacity="0.200000003" cx="168" cy="113" r="2"></circle>
                                <circle id="Oval-Copy-4" fill="#D8D8D8" opacity="0.200000003" cx="194" cy="137" r="2"></circle>
                                <circle id="Oval-Copy-5" fill="#D8D8D8" opacity="0.200000003" cx="182" cy="175" r="2"></circle>
                                <circle id="Oval-Copy-6" fill="#D8D8D8" opacity="0.200000003" cx="95" cy="169" r="2"></circle>
                                <circle id="Oval-Copy-7" fill="#D8D8D8" opacity="0.200000003" cx="54.5" cy="134.5" r="1.5"></circle>
                                <path d="M85.5482285,134.262514 L87.3053713,134.262514 C87.6367422,134.262514 87.9053713,134.531143 87.9053713,134.862514 L87.9053713,134.948228 C87.9053713,135.279599 87.6367422,135.548228 87.3053713,135.548228 L85.5482285,135.548228 L85.5482285,137.305371 C85.5482285,137.636742 85.2795993,137.905371 84.9482285,137.905371 L84.8625142,137.905371 C84.5311434,137.905371 84.2625142,137.636742 84.2625142,137.305371 L84.2625142,135.548228 L82.5053713,135.548228 C82.1740005,135.548228 81.9053713,135.279599 81.9053713,134.948228 L81.9053713,134.862514 C81.9053713,134.531143 82.1740005,134.262514 82.5053713,134.262514 L84.2625142,134.262514 L84.2625142,132.505371 C84.2625142,132.174 84.5311434,131.905371 84.8625142,131.905371 L84.9482285,131.905371 C85.2795993,131.905371 85.5482285,132.174 85.5482285,132.505371 L85.5482285,134.262514 Z" id="Combined-Shape-Copy" fill="#7ED321" transform="translate(84.905371, 134.905371) rotate(22.000000) translate(-84.905371, -134.905371) "></path>
                                <path d="M149.240821,175.955106 L150.997963,175.955106 C151.329334,175.955106 151.597963,176.223735 151.597963,176.555106 L151.597963,176.640821 C151.597963,176.972191 151.329334,177.240821 150.997963,177.240821 L149.240821,177.240821 L149.240821,178.997963 C149.240821,179.329334 148.972191,179.597963 148.640821,179.597963 L148.555106,179.597963 C148.223735,179.597963 147.955106,179.329334 147.955106,178.997963 L147.955106,177.240821 L146.197963,177.240821 C145.866593,177.240821 145.597963,176.972191 145.597963,176.640821 L145.597963,176.555106 C145.597963,176.223735 145.866593,175.955106 146.197963,175.955106 L147.955106,175.955106 L147.955106,174.197963 C147.955106,173.866593 148.223735,173.597963 148.555106,173.597963 L148.640821,173.597963 C148.972191,173.597963 149.240821,173.866593 149.240821,174.197963 L149.240821,175.955106 Z" id="Combined-Shape-Copy-3" fill="#4D21D3" transform="translate(148.597963, 176.597963) rotate(77.000000) translate(-148.597963, -176.597963) "></path>
                                <g id="Star-Copy" opacity="0.300000012" transform="translate(254.003733, 81.712905) rotate(41.000000) translate(-254.003733, -81.712905) ">
                                    <use fill="#1D1E1F" xlink:href="#path-4"></use>
                                    <use fill="url(#linearGradient-3)" xlink:href="#path-4"></use>
                                </g>
                                <g id="Star-Copy-2" transform="translate(33.499807, 139.390178) rotate(-43.000000) translate(-33.499807, -139.390178) ">
                                    <use fill="#1D1E1F" xlink:href="#path-6"></use>
                                    <use fill="url(#linearGradient-5)" xlink:href="#path-6"></use>
                                </g>
                                <path d="M110,157 L110,157 C111.104569,157 112,157.895431 112,159 L112,159 C112,160.104569 111.104569,161 110,161 L110,161 C108.895431,161 108,160.104569 108,159 L108,159 C108,157.895431 108.895431,157 110,157 Z" id="Path" fill="#FFFFFF" opacity="0.5"></path>
                                <path d="M150,145 L122,145 C120.895431,145 120,145.895431 120,147 L120,147 C120,148.104569 120.895431,149 122,149 L150,149 C151.104569,149 152,148.104569 152,147 L152,147 C152,145.895431 151.104569,145 150,145 Z" id="Path" fill="#FFFFFF" opacity="0.5"></path>
                                <path d="M150,121 L122,121 C120.895431,121 120,121.895431 120,123 L120,123 C120,124.104569 120.895431,125 122,125 L150,125 C151.104569,125 152,124.104569 152,123 L152,123 C152,121.895431 151.104569,121 150,121 Z" id="Path" fill="#FFFFFF" opacity="0.5"></path>
                                <path d="M110,149 L110,149 C111.104569,149 112,148.104569 112,147 L112,147 C112,145.895431 111.104569,145 110,145 L110,145 C108.895431,145 108,145.895431 108,147 L108,147 C108,148.104569 108.895431,149 110,149 Z" id="Path" fill="#FFFFFF" opacity="0.5"></path>
                                <path d="M150,133 L122,133 C120.895431,133 120,133.895431 120,135 L120,135 C120,136.104569 120.895431,137 122,137 L150,137 C151.104569,137 152,136.104569 152,135 L152,135 C152,133.895431 151.104569,133 150,133 Z" id="Path" fill="#FFFFFF" opacity="0.5"></path>
                                <path d="M110,137 L110,137 C111.104569,137 112,136.104569 112,135 L112,135 C112,133.895431 111.104569,133 110,133 L110,133 C108.895431,133 108,133.895431 108,135 L108,135 C108,136.104569 108.895431,137 110,137 Z" id="Path" fill="#FFFFFF" opacity="0.5"></path>
                                <path d="M122,161 L142,161 C143.104569,161 144,160.104569 144,159 L144,159 C144,157.895431 143.104569,157 142,157 L122,157 C120.895431,157 120,157.895431 120,159 L120,159 C120,160.104569 120.895431,161 122,161 Z" id="Path" fill="#FFFFFF" opacity="0.5"></path>
                                <path d="M110,125 L110,125 C111.104569,125 112,124.104569 112,123 L112,123 C112,121.895431 111.104569,121 110,121 L110,121 C108.895431,121 108,121.895431 108,123 L108,123 C108,124.104569 108.895431,125 110,125 Z" id="Path" fill="#FFFFFF" opacity="0.5"></path>
                                <path d="M174,157 L164,157 L164,147 C164,145.895431 163.104569,145 162,145 L162,145 C160.895431,145 160,145.895431 160,147 L160,157 L150,157 C148.895431,157 148,157.895431 148,159 L148,159 C148,160.104569 148.895431,161 150,161 L160,161 L160,171 C160,172.104569 160.895431,173 162,173 L162,173 C163.104569,173 164,172.104569 164,171 L164,161 L174,161 C175.104569,161 176,160.104569 176,159 L176,159 C176,157.895431 175.104569,157 174,157 Z" id="Path" fill="#FFFFFF"></path>
                            </g>
                        </g>
                    </g>
                </g>
            </g>
        </g>
    </g>
</svg>