<?xml version="1.0" encoding="UTF-8"?>
<svg width="190px" height="127px" viewBox="0 0 190 127" version="1.1" xmlns="http://www.w3.org/2000/svg" xmlns:xlink="http://www.w3.org/1999/xlink">
    <!-- Generator: sketchtool 55 (78076) - https://sketchapp.com -->
    <title>3C772C12-E436-403F-8B31-4D3DE2AD855D</title>
    <desc>Created with sketchtool.</desc>
    <defs>
        <linearGradient x1="50%" y1="100%" x2="50%" y2="0%" id="linearGradient-1">
            <stop stop-color="#808080" stop-opacity="0.25" offset="0%"></stop>
            <stop stop-color="#808080" stop-opacity="0.12" offset="54%"></stop>
            <stop stop-color="#808080" stop-opacity="0.1" offset="100%"></stop>
        </linearGradient>
        <linearGradient x1="50%" y1="100%" x2="50%" y2="0%" id="linearGradient-2">
            <stop stop-color="#808080" stop-opacity="0.25" offset="0%"></stop>
            <stop stop-color="#808080" stop-opacity="0.12" offset="54%"></stop>
            <stop stop-color="#808080" stop-opacity="0.1" offset="100%"></stop>
        </linearGradient>
        <linearGradient x1="50%" y1="100%" x2="50%" y2="0%" id="linearGradient-3">
            <stop stop-color="#808080" stop-opacity="0.25" offset="0%"></stop>
            <stop stop-color="#808080" stop-opacity="0.12" offset="54%"></stop>
            <stop stop-color="#808080" stop-opacity="0.1" offset="100%"></stop>
        </linearGradient>
        <rect id="path-4" x="0.0851299906" y="0.11244584" width="22.6682247" height="15.1380212"></rect>
        <rect id="path-6" x="0.0851299906" y="0.0655934066" width="22.6682247" height="15.1380212"></rect>
        <linearGradient x1="0%" y1="50%" x2="100%" y2="50%" id="linearGradient-8">
            <stop stop-color="#808080" stop-opacity="0.25" offset="0%"></stop>
            <stop stop-color="#808080" stop-opacity="0.12" offset="54%"></stop>
            <stop stop-color="#808080" stop-opacity="0.1" offset="100%"></stop>
        </linearGradient>
        <linearGradient x1="0.00629643622%" y1="50.0018066%" x2="100.006296%" y2="50.0018066%" id="linearGradient-9">
            <stop stop-color="#808080" stop-opacity="0.25" offset="0%"></stop>
            <stop stop-color="#808080" stop-opacity="0.12" offset="54%"></stop>
            <stop stop-color="#808080" stop-opacity="0.1" offset="100%"></stop>
        </linearGradient>
        <linearGradient x1="50.0002221%" y1="100.000449%" x2="50.0002221%" y2="0.00140337287%" id="linearGradient-10">
            <stop stop-color="#B3B3B3" stop-opacity="0.25" offset="0%"></stop>
            <stop stop-color="#B3B3B3" stop-opacity="0.1" offset="54%"></stop>
            <stop stop-color="#B3B3B3" stop-opacity="0.05" offset="100%"></stop>
        </linearGradient>
        <linearGradient x1="49.9800916%" y1="99.9486916%" x2="49.9800916%" y2="0%" id="linearGradient-11">
            <stop stop-color="#000000" stop-opacity="0.12" offset="0%"></stop>
            <stop stop-color="#000000" stop-opacity="0.09" offset="55%"></stop>
            <stop stop-color="#000000" stop-opacity="0.02" offset="100%"></stop>
        </linearGradient>
        <linearGradient x1="49.9885247%" y1="100.005627%" x2="49.9885247%" y2="0.0076852476%" id="linearGradient-12">
            <stop stop-color="#000000" stop-opacity="0.12" offset="0%"></stop>
            <stop stop-color="#000000" stop-opacity="0.09" offset="55%"></stop>
            <stop stop-color="#000000" stop-opacity="0.02" offset="100%"></stop>
        </linearGradient>
    </defs>
    <g id="Campaign-Flow_LOGIN-to-Send-" stroke="none" stroke-width="1" fill="none" fill-rule="evenodd">
        <g id="Illustrations" transform="translate(-1009.000000, -107.000000)">
            <g id="No-data-found" transform="translate(1009.000000, 107.000000)">
                <g id="No-data-found_illustration">
                    <path d="M110.394466,20.9386978 C98.2139682,20.5172055 86.6118923,16.5894348 75.534432,12.2922287 C64.4569716,7.99502257 53.4820804,3.2360221 41.5941562,0.958956242 C33.9468748,-0.505351594 25.2015999,-0.711899603 19.0407295,3.38211703 C13.1152634,7.31492546 11.1950358,14.1242928 10.1659821,20.4349222 C9.39082891,25.1821679 8.93515317,30.1745844 11.057156,34.6246025 C12.5317967,37.7110678 15.1498304,40.3055123 16.9607631,43.2609961 C23.2578318,53.5464152 18.8103694,66.2314856 11.9802777,76.2734132 C8.78550321,80.9853946 5.06443161,85.4790733 2.59436646,90.49332 C0.124301304,95.5075668 -1.01909169,101.255647 1.14158477,106.370649 C3.28544663,111.44199 8.39036004,115.250534 13.9206829,117.928941 C25.154519,123.369718 38.3926558,124.928064 51.3012264,125.809671 C79.8759624,127.760962 108.603711,126.916298 137.254113,126.069955 C147.857402,125.755935 158.50609,125.438556 168.937869,123.801286 C174.728818,122.89281 180.708091,121.450333 184.911742,117.965885 C190.250378,113.542734 191.573687,106.05327 187.99554,100.501663 C181.99609,91.2002852 165.405121,88.8896343 161.211559,78.9064805 C158.902914,73.4119676 161.273773,67.2894144 164.628286,62.1945635 C171.824936,51.2609531 183.887732,41.6690651 184.523324,29.1737501 C184.960504,20.5910926 179.161148,11.9950011 170.195601,7.93456949 C160.796238,3.6776654 147.764921,4.21334682 140.830579,11.2594887 C133.696143,18.5205748 121.149086,21.3114918 110.394466,20.9386978 Z" id="BG_shape" fill="#BFD2FF" fill-rule="nonzero" opacity="0.300000012"></path>
                    <g id="no-data-found" transform="translate(24.726027, 2.591837)">
                        <g id="Group" opacity="0.5" transform="translate(24.277812, 20.458896)" fill="url(#linearGradient-1)" fill-rule="nonzero">
                            <rect id="Rectangle" x="0.0236472196" y="0.0327967033" width="70.6957277" height="94.110921"></rect>
                        </g>
                        <rect id="Rectangle" fill="#99BBFF" fill-rule="nonzero" x="25.2221244" y="21.7692023" width="68.4870774" height="90.8281272"></rect>
                        <rect id="Rectangle" fill="#E0E0E0" fill-rule="nonzero" x="30.5616666" y="25.5986078" width="23.5652426" height="1"></rect>
                        <rect id="Rectangle" fill="#0155FF" fill-rule="nonzero" opacity="0.7" x="30.5616666" y="28.8814016" width="23.5652426" height="1"></rect>
                        <rect id="Rectangle" fill="#E0E0E0" fill-rule="nonzero" x="57.6251212" y="25.5986078" width="23.5652426" height="1"></rect>
                        <rect id="Rectangle" fill="#E0E0E0" fill-rule="nonzero" x="61.3062051" y="46.3917177" width="23.5652426" height="1"></rect>
                        <rect id="Rectangle" fill="#E0E0E0" fill-rule="nonzero" x="61.85955" y="48.3970018" width="23.5652426" height="1"></rect>
                        <rect id="Rectangle" fill="#E0E0E0" fill-rule="nonzero" x="62.9646634" y="50.4038477" width="23.5652426" height="1"></rect>
                        <rect id="Rectangle" fill="#E0E0E0" fill-rule="nonzero" x="61.3062051" y="78.6730442" width="23.5652426" height="1"></rect>
                        <rect id="Rectangle" fill="#E0E0E0" fill-rule="nonzero" x="61.85955" y="80.6798901" width="23.5652426" height="1"></rect>
                        <rect id="Rectangle" fill="#E0E0E0" fill-rule="nonzero" x="62.9646634" y="82.6851743" width="23.5652426" height="1"></rect>
                        <g id="Group" opacity="0.5" transform="translate(30.741385, 38.887520)" fill="url(#linearGradient-2)" fill-rule="nonzero">
                            <rect id="Rectangle" x="0.00472944392" y="0.0249879644" width="25.0376761" height="25.1691272"></rect>
                        </g>
                        <rect id="Rectangle" fill="#618CE2" fill-rule="nonzero" x="30.9037631" y="39.4606811" width="24.6435558" height="24.074342"></rect>
                        <g id="Group" opacity="0.5" transform="translate(31.687274, 40.917792)" fill="url(#linearGradient-3)" fill-rule="nonzero">
                            <rect id="Rectangle" x="0.0851299906" y="0.00156174778" width="22.9850975" height="15.6846329"></rect>
                        </g>
                        <rect id="e1f34465-d008-41db-868b-e00503fb87b3" fill="#FFFFFF" fill-rule="nonzero" x="31.9300524" y="41.102078" width="22.6682247" height="15.1380212"></rect>
                        <g id="Clipped" transform="translate(60.063938, 50.444453)">
                            <mask id="mask-5" fill="white">
                                <use xlink:href="#path-4"></use>
                            </mask>
                            <g id="cf34cfb5-9399-4bae-9cea-d47bbef6cb3a"></g>
                            <g id="Group" mask="url(#mask-5)" fill="#6C63FF" fill-rule="nonzero" opacity="0.4">
                                <g transform="translate(-30.899034, -8.901962)">
                                    <polygon id="Path" points="0.843417499 14.1509966 6.55185631 5.39583857 8.94495493 9.22524411 14.1000488 3.93716614 18.5189259 9.22524411 22.3844581 1.38370853 32.3257492 17.0683414 0.107200729 15.9735563"></polygon>
                                    <ellipse id="Oval" cx="5.2622946" cy="1.74759576" rx="1.65688185" ry="1.64139691"></ellipse>
                                </g>
                            </g>
                        </g>
                        <g id="Group" opacity="0.5" transform="translate(30.741385, 71.059524)" fill="url(#linearGradient-2)" fill-rule="nonzero">
                            <rect id="Rectangle" x="0.00472944392" y="0.135872057" width="25.0376761" height="25.1691272"></rect>
                        </g>
                        <rect id="Rectangle" fill="#618CE2" fill-rule="nonzero" x="30.9037631" y="71.7420076" width="24.6435558" height="24.074342"></rect>
                        <g id="Group" opacity="0.5" transform="translate(31.687274, 73.089796)" fill="url(#linearGradient-3)" fill-rule="nonzero">
                            <rect id="Rectangle" x="0.0851299906" y="0.11244584" width="22.9850975" height="15.6846329"></rect>
                        </g>
                        <rect id="c95ac4f6-be4d-44a3-92c2-5c8066e2b531" fill="#FFFFFF" fill-rule="nonzero" x="31.9300524" y="73.3834045" width="22.6682247" height="15.1380212"></rect>
                        <g id="Clipped" transform="translate(60.063938, 82.772632)">
                            <mask id="mask-7" fill="white">
                                <use xlink:href="#path-6"></use>
                            </mask>
                            <g id="7439734d-5f7c-428f-88ce-e68b86a45c07"></g>
                            <g id="Group" mask="url(#mask-7)" fill="#BDBDBD" fill-rule="nonzero" opacity="0.4">
                                <g transform="translate(-30.899034, -8.901962)">
                                    <polygon id="Path" points="0.843417499 14.1041442 6.55185631 5.34898613 8.94495493 9.17995343 14.1000488 3.89031371 18.5189259 9.17995343 22.3844581 1.3368561 32.3257492 17.021489 0.107200729 15.9282656"></polygon>
                                    <ellipse id="Oval" cx="5.2622946" cy="1.70230508" rx="1.65688185" ry="1.64139691"></ellipse>
                                </g>
                            </g>
                        </g>
                        <g id="Group" opacity="0.5" transform="translate(34.524941, 15.773653)" fill="url(#linearGradient-8)" fill-rule="nonzero">
                            <polygon id="Rectangle" transform="translate(44.083801, 53.046697) rotate(-78.760000) translate(-44.083801, -53.046697) " points="-3.05168301 17.6265157 91.0929702 17.7962539 91.2192851 88.4668789 -2.92536808 88.2971408"></polygon>
                        </g>
                        <polygon id="Rectangle" fill="#FFFFFF" fill-rule="nonzero" transform="translate(78.499797, 68.427507) rotate(-78.760000) translate(-78.499797, -68.427507) " points="33.0082712 34.1142188 123.868954 34.2780361 123.991323 102.740795 33.1306398 102.576978"></polygon>
                        <polygon id="Rectangle" fill="#E0E0E0" fill-rule="nonzero" transform="translate(81.671526, 27.395436) rotate(11.240000) translate(-81.671526, -27.395436) " points="57.378565 27.0740589 105.965802 26.9872152 105.964486 27.7168129 57.3772496 27.8036565"></polygon>
                        <polygon id="Rectangle" fill="#E0E0E0" fill-rule="nonzero" transform="translate(68.106937, 95.016084) rotate(11.240000) translate(-68.106937, -95.016084) " points="43.813976 94.6947074 92.4012126 94.6078638 92.3998972 95.3374614 43.8126605 95.424305"></polygon>
                        <polygon id="Rectangle" fill="#E0E0E0" fill-rule="nonzero" transform="translate(61.862775, 98.062432) rotate(11.240000) translate(-61.862775, -98.062432) " points="43.091055 97.731186 80.6358095 97.6640795 80.6344941 98.3936771 43.0897395 98.4607836"></polygon>
                        <polygon id="Rectangle" fill="#6C63FF" fill-rule="nonzero" opacity="0.7" transform="translate(49.480365, 99.902815) rotate(11.240000) translate(-49.480365, -99.902815) " points="42.487871 99.5505156 56.4741746 99.5255169 56.4728591 100.255115 42.4865556 100.280113"></polygon>
                        <polygon id="Rectangle" fill="#0155FF" fill-rule="nonzero" opacity="0.7" transform="translate(68.926318, 29.164211) rotate(11.240000) translate(-68.926318, -29.164211) " points="56.7805603 28.8211221 81.0733907 28.7777017 81.0720753 29.5072993 56.7792449 29.5507197"></polygon>
                        <polygon id="Rectangle" fill="#E0E0E0" fill-rule="nonzero" transform="translate(77.673284, 35.162323) rotate(11.240000) translate(-77.673284, -35.162323) " points="55.7733598 34.8366689 99.5745228 34.7583797 99.5732074 35.4879774 55.7720444 35.5662665"></polygon>
                        <g id="Group" opacity="0.5" transform="translate(53.915661, 56.066745)" fill="url(#linearGradient-9)" fill-rule="nonzero">
                            <polygon id="Rectangle" transform="translate(23.848267, 16.492832) rotate(-78.760000) translate(-23.848267, -16.492832) " points="11.4030032 -5.33792602 36.2155718 -5.29319019 36.2935314 38.32359 11.4809628 38.2788541"></polygon>
                        </g>
                        <polygon id="Rectangle" fill="#FFFFFF" fill-rule="nonzero" transform="translate(77.789572, 72.470336) rotate(11.240000) translate(-77.789572, -72.470336) " points="56.2788429 60.3759423 99.3440505 60.2989687 99.3003005 84.5647296 56.2350929 84.6417033"></polygon>
                        <path d="M110.582281,54.8189087 C105.993305,50.0906066 99.6725805,47.3967004 93.0516382,47.3473112 C86.4306958,47.297922 80.069738,49.8972286 75.4094068,54.5565351 C66.1081671,63.8458108 65.950519,78.971338 75.0483926,88.457394 C83.300843,97.0623944 96.6143227,98.5178748 106.562254,91.9026096 L124.327622,110.207855 C124.785641,110.679549 125.542887,110.69423 126.019186,110.240652 L130.445946,106.023933 C130.922089,105.570194 130.936909,104.820025 130.479052,104.348178 L112.718413,86.0444937 C119.747814,76.501017 118.84717,63.3355733 110.582281,54.8189087 Z M105.048832,84.2500455 C98.050542,90.9150723 86.9233013,90.698063 80.1952292,83.7653375 C73.467157,76.8326121 73.6859472,65.8093595 80.683915,59.1440008 C87.6818827,52.4786422 98.8091339,52.6951237 105.537541,59.6275301 C108.768842,62.9568016 110.532698,67.4213937 110.441046,72.039062 C110.349395,76.6567302 108.409744,81.0491825 105.048832,84.2500455 L105.048832,84.2500455 Z" id="Shape" fill="url(#linearGradient-10)" fill-rule="nonzero"></path>
                        <path d="M79.8472017,66.8521753 C77.8702941,66.8521753 77.8671412,69.8960217 79.8472017,69.8960217 C81.8272622,69.8960217 81.8272622,66.8521753 79.8472017,66.8521753 Z" id="Path" fill="url(#linearGradient-11)" fill-rule="nonzero"></path>
                        <path d="M93.6272248,57.1021839 C88.3066004,56.9834911 83.4652263,59.6275301 80.8908323,63.6193574 C80.0505678,64.921855 82.435784,66.0728632 83.2713191,64.7766125 C85.4027218,61.4719542 89.4527023,59.3729652 93.8337439,59.4822875 C98.4244574,59.5962951 102.602133,62.1981669 104.813936,65.8089278 C105.652624,67.1785806 107.851816,65.9338676 107.02101,64.5720235 C104.331533,60.1991298 99.1228386,57.231809 93.6272248,57.1021839 Z" id="Path" fill="url(#linearGradient-12)" fill-rule="nonzero"></path>
                        <path d="M94.9796748,46.4227565 C88.3587325,46.3733673 81.9977746,48.972674 77.3374435,53.6319804 C68.0362038,62.9212561 67.8785556,78.0467834 76.9764292,87.5328394 C85.2292901,96.1373367 98.5427296,97.5921529 108.490291,90.9764932 L125.721298,107.219314 C126.968662,108.395142 128.917813,108.390058 130.159026,107.207738 L130.159026,107.207738 C131.393865,106.03149 131.475371,104.088585 130.343387,102.813047 L114.640144,85.1183773 C121.670339,75.5766824 120.772385,62.4123525 112.510318,53.894354 C107.921342,49.166052 101.600617,46.4721458 94.9796748,46.4227565 Z M106.976869,83.3129969 C99.9785787,89.9780236 88.8513379,89.7610143 82.1232658,82.8282888 C75.3951937,75.8955634 75.6139839,64.8723108 82.6119516,58.2069522 C89.6099194,51.5415935 100.737171,51.7580751 107.465578,58.6904814 C110.696879,62.0197529 112.460735,66.4843451 112.369083,71.1020133 C112.277431,75.7196815 110.33778,80.1121338 106.976869,83.3129969 Z" id="Shape" fill="#0155FF" fill-rule="nonzero"></path>
                        <path d="M81.7752383,65.9260589 C79.7983308,65.9260589 79.7951778,68.9699053 81.7752383,68.9699053 C83.7552989,68.9699053 83.7552989,65.9260589 81.7752383,65.9260589 Z" id="Path" fill="#0155FF" fill-rule="nonzero"></path>
                        <path d="M95.5552614,56.1776293 C90.234637,56.0589364 85.3932629,58.7029754 82.818869,62.6948027 C81.9786044,63.9973004 84.3638206,65.1483085 85.1993557,63.8520578 C87.3307585,60.5473995 91.3807389,58.4484105 95.7617805,58.5577329 C100.352494,58.6717405 104.53017,61.2736122 106.741973,64.8843731 C107.580661,66.2540259 109.779852,65.0093129 108.949047,63.6474689 C106.25484,59.2620811 101.052452,56.2947603 95.5552614,56.1776293 Z" id="Path" fill="#0155FF" fill-rule="nonzero"></path>
                        <rect id="Rectangle" fill="#47E6B1" fill-rule="nonzero" x="19.1463655" y="103.842171" width="1" height="3.10006934"></rect>
                        <polygon id="Rectangle" fill="#47E6B1" fill-rule="nonzero" transform="translate(19.423038, 105.391425) rotate(90.000000) translate(-19.423038, -105.391425) " points="19.1497321 103.826767 19.6963438 103.826767 19.6963438 106.956083 19.1497321 106.956083"></polygon>
                        <path d="M90.1542365,1.39776426 C89.8388663,1.26179864 89.6767311,0.913004884 89.7774575,0.587217164 C89.7851706,0.562874926 89.7899335,0.537710169 89.7916458,0.512253271 L89.7916458,0.512253271 C89.8019091,0.363598684 89.7120555,0.226024075 89.5709714,0.174379458 C89.4298874,0.122734841 89.2713227,0.16937453 89.1815475,0.288923339 L89.1815475,0.288923339 C89.1663791,0.309239902 89.1536797,0.331256125 89.143712,0.354516745 C89.0064636,0.666939585 88.6543794,0.827559444 88.3255182,0.727774464 C88.3009463,0.720133366 88.2755441,0.715414974 88.2498471,0.713718734 L88.2498471,0.713718734 C88.0985776,0.702898656 87.9584642,0.792946442 87.9067815,0.934199471 C87.8550988,1.0754525 87.9044279,1.23352535 88.0275632,1.32123862 L88.0275632,1.32123862 C88.0480714,1.33626529 88.0702954,1.34884599 88.0937754,1.35872057 C88.4091457,1.49468619 88.5712808,1.84347994 88.4705545,2.16926766 C88.4628413,2.1936099 88.4580784,2.21877466 88.4563661,2.24423155 L88.4563661,2.24423155 C88.4442542,2.3950166 88.5354084,2.53520994 88.6790008,2.58663891 C88.8225931,2.63806788 88.9831704,2.58803463 89.0711938,2.46443799 L89.0711938,2.46443799 C89.0863623,2.44412143 89.0990617,2.4221052 89.1090294,2.39884458 C89.2462777,2.08642174 89.598362,1.92580188 89.9272232,2.02558687 C89.9517951,2.03322796 89.9771972,2.03794636 90.0028943,2.0396426 L90.0028943,2.0396426 C90.1529513,2.04980999 90.2918238,1.96079612 90.3439556,1.82103062 C90.3960874,1.68126511 90.3490077,1.52418239 90.2283311,1.43524621 L90.2283311,1.43524621 C90.2053572,1.41965691 90.1804547,1.40705958 90.1542365,1.39776426 L90.1542365,1.39776426 Z" id="Path" fill="#4D8AF0" fill-rule="nonzero"></path>
                        <path d="M21.6671591,24.3788828 C21.3517888,24.2429172 21.1896537,23.8941234 21.29038,23.5683357 C21.2980932,23.5439935 21.3028561,23.5188287 21.3045684,23.4933718 L21.3045684,23.4933718 C21.3148317,23.3447172 21.2249781,23.2071426 21.083894,23.155498 C20.94281,23.1038534 20.7842453,23.1504931 20.6944701,23.2700419 L20.6944701,23.2700419 C20.6793017,23.2903584 20.6666023,23.3123746 20.6566346,23.3356353 C20.5193862,23.6480581 20.167302,23.808678 19.8384408,23.708893 C19.8138689,23.7012519 19.7884667,23.6965335 19.7627697,23.6948373 L19.7627697,23.6948373 C19.6127127,23.6846699 19.4738402,23.7736837 19.4217083,23.9134492 C19.3695765,24.0532147 19.4166562,24.2102975 19.5373328,24.2992336 L19.5373328,24.2992336 C19.5578411,24.3142603 19.580065,24.326841 19.603545,24.3367156 C19.9189153,24.4726812 20.0810504,24.821475 19.9803241,25.1472627 C19.9726109,25.1716049 19.967848,25.1967697 19.9661357,25.2222266 L19.9661357,25.2222266 C19.9558724,25.3708812 20.0457261,25.5084558 20.1868101,25.5601004 C20.3278942,25.611745 20.4864588,25.5651053 20.576234,25.4455565 L20.576234,25.4455565 C20.5914025,25.42524 20.6041018,25.4032237 20.6140696,25.3799631 C20.7513179,25.0675403 21.1034022,24.9069204 21.4322634,25.0067054 C21.4568352,25.0143465 21.4822374,25.0190649 21.5079345,25.0207611 L21.5079345,25.0207611 C21.6579915,25.0309285 21.7968639,24.9419146 21.8489958,24.8021491 C21.9011276,24.6623836 21.8540479,24.5053009 21.7333713,24.4163647 L21.7333713,24.4163647 C21.7128631,24.4013381 21.6906391,24.3887574 21.6671591,24.3788828 L21.6671591,24.3788828 Z" id="Path" fill="#FDD835" fill-rule="nonzero"></path>
                        <path d="M119.059021,119.217578 C118.743651,119.081613 118.581516,118.732819 118.682242,118.407031 C118.689955,118.382689 118.694718,118.357524 118.696431,118.332067 L118.696431,118.332067 C118.706694,118.183413 118.61684,118.045838 118.475756,117.994193 C118.334672,117.942549 118.176107,117.989189 118.086332,118.108737 L118.086332,118.108737 C118.071164,118.129054 118.058464,118.15107 118.048497,118.174331 C117.911248,118.486754 117.559164,118.647373 117.230303,118.547588 C117.205731,118.539947 117.180329,118.535229 117.154632,118.533533 L117.154632,118.533533 C117.004575,118.523365 116.865702,118.612379 116.813571,118.752145 C116.761439,118.89191 116.808518,119.048993 116.929195,119.137929 L116.929195,119.137929 C116.949703,119.152956 116.971927,119.165536 116.995407,119.175411 C117.310777,119.311377 117.472913,119.66017 117.372186,119.985958 C117.364473,120.0103 117.35971,120.035465 117.357998,120.060922 L117.357998,120.060922 C117.347735,120.209577 117.437588,120.347151 117.578672,120.398796 C117.719756,120.45044 117.878321,120.403801 117.968096,120.284252 L117.968096,120.284252 C117.983265,120.263935 117.995964,120.241919 118.005932,120.218659 C118.14318,119.906236 118.495264,119.745616 118.824126,119.845401 C118.848697,119.853042 118.8741,119.85776 118.899797,119.859457 L118.899797,119.859457 C119.049854,119.869624 119.188726,119.78061 119.240858,119.640845 C119.29299,119.501079 119.24591,119.343996 119.125233,119.25506 L119.125233,119.25506 C119.104725,119.240034 119.082501,119.227453 119.059021,119.217578 Z" id="Path" fill="#FDD835" fill-rule="nonzero"></path>
                        <ellipse id="Oval" fill="#F55F44" fill-rule="nonzero" cx="50.6286972" cy="11.9208208" rx="1.1051134" ry="1.09478519"></ellipse>
                        <ellipse id="Oval" fill="#F55F44" fill-rule="nonzero" cx="129.793282" cy="25.5986078" rx="1.1051134" ry="1.09478519"></ellipse>
                        <ellipse id="Oval" fill="#4D8AF0" fill-rule="nonzero" cx="123.534652" cy="58.2453833" rx="1.1051134" ry="1.09478519"></ellipse>
                        <ellipse id="Oval" fill="#47E6B1" fill-rule="nonzero" opacity="0.5" cx="1.1051134" cy="4.62433516" rx="1.1051134" ry="1.09478519"></ellipse>
                    </g>
                </g>
            </g>
        </g>
    </g>
</svg>