<?xml version="1.0" encoding="UTF-8"?>
<svg width="224px" height="151px" viewBox="0 0 224 151" version="1.1" xmlns="http://www.w3.org/2000/svg" xmlns:xlink="http://www.w3.org/1999/xlink">
    <!-- Generator: sketchtool 55 (78076) - https://sketchapp.com -->
    <title>A201464B-522C-4E3F-9C0C-91418A15CC4A</title>
    <desc>Created with sketchtool.</desc>
    <g id="Campaign-Flow_LOGIN-to-Send-" stroke="none" stroke-width="1" fill="none" fill-rule="evenodd">
        <g id="Illustrations" transform="translate(-615.000000, -427.000000)">
            <g id="Create-folder" transform="translate(552.000000, 427.000000)">
                <g id="Folder_illustration" transform="translate(63.000000, 0.000000)">
                    <path d="M130.149266,24.8956171 C115.789099,24.3944727 102.110862,19.7244462 89.0511198,14.6151696 C75.9913771,9.50589297 63.0525579,3.84755383 49.037321,1.14017632 C40.0215788,-0.600851108 29.7113599,-0.846431812 22.4480179,4.02125726 C15.4622053,8.69727358 13.198358,16.7934504 11.9851578,24.2966397 C11.071293,29.9410027 10.5340753,35.8768681 13.035805,41.1678344 C14.7743288,44.8375688 17.8608526,47.9223021 19.995847,51.4363024 C27.4197596,63.6654228 22.1764355,78.7476719 14.1241169,90.6872866 C10.3576459,96.2897212 5.97069832,101.632599 3.05862151,107.59442 C0.146544695,113.556241 -1.20145546,120.390572 1.34586836,126.472189 C3.87336866,132.501894 9.89179289,137.030162 16.4117525,140.214725 C29.655854,146.68368 45.2629206,148.536517 60.4814459,149.584727 C94.1695557,151.904766 128.03806,150.900481 161.815375,149.894199 C174.316094,149.520836 186.870337,149.14348 199.168856,147.196804 C205.996081,146.116648 213.045328,144.401577 218.001211,140.25865 C224.295183,134.999629 225.855295,126.094833 221.636847,119.494103 C214.563811,108.434985 195.003932,105.687675 190.059943,93.8179414 C187.338172,87.2850954 190.13329,80.0055243 194.088085,73.9478669 C202.572557,60.9480623 216.793958,49.543534 217.543288,34.6868998 C218.0587,24.4823227 211.221563,14.2617729 200.651656,9.43401569 C189.570302,4.37265729 174.207065,5.00956985 166.031841,13.387266 C157.620716,22.0205259 142.828397,25.3388603 130.149266,24.8956171 Z" id="BG_shape" fill="#BFD2FF" fill-rule="nonzero" opacity="0.300000012"></path>
                    <g id="ic_Campaign_folder" transform="translate(48.843032, 12.138122)">
                        <g>
                            <path d="M10.5589348,36.4482752 L60.9174813,36.4482752 L60.9174813,36.4482752 C62.5138329,33.2570466 65.775926,31.2413788 69.3441578,31.2413788 L83.0570165,31.2413788 C92.5022272,31.2413788 100.159083,38.8982349 100.159083,48.3434456 C100.159083,49.0997028 100.108921,49.8551273 100.008925,50.6047445 L92.4048097,107.609273 C92.272274,108.602832 91.424729,109.344826 90.4223699,109.344826 L0.712022605,109.344826 C-0.392546895,109.344826 -1.28797739,108.449395 -1.28797739,107.344826 C-1.28797739,107.250145 -1.28125405,107.155583 -1.26785808,107.061855 L8.57905411,38.1653045 C8.71986768,37.1800647 9.56368317,36.4482752 10.5589348,36.4482752 Z" id="Rectangle-Copy-4" fill="#618CE2" transform="translate(50.555276, 70.293102) scale(-1, 1) translate(-50.555276, -70.293102) "></path>
                            <path d="M51.6673618,48.7326131 L51.6036395,48.7326131 L51.6036395,50.9951697 L45.6774606,50.9951697 L48.1849352,63.8207702 C48.5672693,65.4548389 51.6115574,63.4544531 53.2604206,64.7590558 C54.3596628,65.628791 54.6782745,66.9067165 54.2162559,68.5928324 C54.407423,69.2213203 53.8976442,69.8498083 53.1966983,69.8498083 L50.3291924,69.8498083 L43.3834559,69.8498083 L42.7462323,69.8498083 C42.1727312,69.8498083 41.7266747,69.4727155 41.59923,68.9699251 L37.2023876,50.9951697 L35.6730511,50.9951697 C32.4869335,50.9951697 29.9380393,48.4812179 29.9380393,45.3387781 L29.9380393,43.1390703 L28.2175358,43.1390703 C27.1979781,43.1390703 26.3058652,42.322036 26.3058652,41.2536065 L26.3058652,34.1516926 C26.3058652,33.1461119 27.1342558,32.2662287 28.2175358,32.2662287 L30.0017617,32.2662287 L30.0017617,29.7522769 C30.0017617,26.6098372 32.5506558,24.0958854 35.7367735,24.0958854 L51.6673618,24.0958854 L51.6673618,26.4841396 C58.6130983,25.3528613 70.2105666,22.4618167 78.2395831,14.9199613 C78.3033055,13.5372878 79.5777526,12.4060095 81.0433667,12.5945559 C82.3178137,12.7831022 83.273649,13.9772293 83.273649,15.2342053 L83.273649,29.6894281 C86.5234891,30.8835552 88.8174938,33.9631462 88.8174938,37.5455275 C88.8174938,41.1279089 86.5234891,44.2074998 83.273649,45.4016269 L83.273649,59.9825474 C83.273649,61.3023721 82.3178137,62.4964992 81.0433667,62.6221968 C79.5777526,62.8107432 78.3033055,61.6794649 78.2395831,60.2967914 C70.2105666,52.754936 58.6768207,49.8638914 51.6673618,48.7326131 Z M45.613738,45.0873826 L45.613738,30.1293698 L36.0553852,30.1293698 L36.0553852,45.0873826 L45.613738,45.0873826 Z M76.5993806,21.6175044 C76.4424154,21.6175044 76.3151701,21.7447498 76.3151701,21.901715 L76.3151701,54.4930031 C76.3151701,54.6499682 76.4424154,54.7772136 76.5993806,54.7772136 L79.1565411,54.7772136 C79.3135062,54.7772136 79.4407516,54.6499682 79.4407516,54.4930031 L79.4407516,21.901715 C79.4407516,21.7447498 79.3135062,21.6175044 79.1565411,21.6175044 L76.5993806,21.6175044 Z" id="Combined-Shape" fill="#0155FF" fill-rule="nonzero" transform="translate(57.561679, 41.211878) rotate(-34.000000) translate(-57.561679, -41.211878) "></path>
                            <path d="M5.69188257,46.8620682 L100.613399,46.8620682 C101.591021,46.8620682 102.42537,47.5688144 102.586162,48.5331224 L112.337792,107.01588 C112.519464,108.105407 111.783502,109.135917 110.693975,109.317589 C110.585264,109.335716 110.475241,109.344826 110.365029,109.344826 L15.4435123,109.344826 C14.4658907,109.344826 13.6315414,108.63808 13.4707491,107.673772 L3.71911936,49.191014 C3.53744762,48.1014869 4.27340975,47.0709767 5.36293679,46.889305 C5.47164763,46.8711781 5.58167081,46.8620682 5.69188257,46.8620682 Z" id="Rectangle" fill="#99BBFF" transform="translate(58.028456, 78.103447) scale(-1, 1) translate(-58.028456, -78.103447) "></path>
                        </g>
                    </g>
                    <g id="More-Items" transform="translate(22.796520, 8.232950)">
                        <g id="ic_edit" transform="translate(13.248559, 17.147613) rotate(-89.000000) translate(-13.248559, -17.147613) translate(0.225304, 4.130372)" stroke="#B3BCC9" stroke-width="0.5">
                            <g id="ic_pencil">
                                <g>
                                    <g transform="translate(13.944138, 13.017241) rotate(-135.000000) translate(-13.944138, -13.017241) translate(9.385999, 0.650862)">
                                        <path d="M3.8549448,17.7774767 L1.4992571,17.7774767 L1.4992571,7.49570677 C1.4992571,6.58686005 2.02659576,5.84972729 2.67710096,5.84972729 C3.3262825,5.84972729 3.8549448,6.5866574 3.8549448,7.49570677 L3.8549448,17.7774767 Z M3.85494496,7.63543191 C3.85494496,6.64921449 4.42878427,5.84972729 5.13430019,5.84972729 L5.34507581,5.84972729 C6.0516442,5.84972729 6.62443104,6.65086172 6.62443104,7.63543191 L6.62443104,17.7774767 L3.85494496,17.7774767 L3.85494496,7.63543191 Z M6.6244312,17.7774767 L6.6244312,7.49570677 C6.6244312,6.5866574 7.15309351,5.84972729 7.80227505,5.84972729 C8.45278024,5.84972729 8.9801189,6.58686005 8.9801189,7.49570677 L8.9801189,17.7774767 L6.6244312,17.7774767 Z" id="Combined-Shape" fill="#B3BCC9"></path>
                                        <polyline id="Path" stroke-linecap="round" points="1.95816767 6.15156845 5.24308709 0.0793135415 8.63065163 6.29095227"></polyline>
                                        <path d="M3.96568723,2.68821898 L6.7122312,2.68821898" id="Path"></path>
                                        <polygon id="Path" fill="#B3BCC9" points="6.55434592 2.75896874 5.25166337 0.512120837 4.01851267 2.80601711"></polygon>
                                        <path d="M8.98011874,17.5175747 L8.98011874,22.2019421 C8.98011874,22.764577 8.5428155,23.2206827 8.00337461,23.2206827 L2.47600139,23.2206827 C1.9365605,23.2206827 1.49925726,22.764577 1.49925726,22.2019421 L1.49925726,17.9527195" id="Path"></path>
                                        <polygon id="Path" fill="#B3BCC9" points="8.76636972 19.5441856 8.83720555 22.4398931 8.23470239 23.0683017 2.26854752 23.0355508 1.64163515 22.3816834 1.66972416 19.5674055"></polygon>
                                    </g>
                                </g>
                            </g>
                        </g>
                        <g id="ic_remove/delete" transform="translate(164.487751, 95.596039) rotate(34.000000) translate(-164.487751, -95.596039) translate(156.022635, 86.483970)" fill-rule="nonzero" stroke="#B3BCC9" stroke-linecap="square" stroke-width="1.5">
                            <path d="M0,2.26230687 L16.930233,2.26230687 M6.15644824,0.754102289 L10.7737843,0.754102289 L6.15644824,0.754102289 Z M5.38689223,5.21587398 L5.38689223,15.7733059 L5.38689223,5.21587398 Z M11.5433403,5.21587398 L11.5433403,15.7733059 L11.5433403,5.21587398 Z M1.53911202,4.52461358 L1.53911202,18.2241376 L15.3911213,18.2241376 L15.3911213,4.52461358"></path>
                        </g>
                        <ellipse id="Oval" fill="#99DCFF" cx="128.930233" cy="3.90517241" rx="3.90697674" ry="3.90517241"></ellipse>
                        <ellipse id="Oval-Copy-3" fill="#FFD099" cx="57.3023256" cy="23.4310345" rx="3.90697674" ry="3.90517241"></ellipse>
                        <ellipse id="Oval-Copy-4" fill="#D7FF99" cx="1.95348837" cy="85.262931" rx="1.95348837" ry="1.95258621"></ellipse>
                        <ellipse id="Oval-Copy-7" fill="#C6FFA4" cx="34.5116279" cy="46.2112069" rx="1.95348837" ry="1.95258621"></ellipse>
                        <ellipse id="Oval-Copy-5" fill="#FFD2F0" cx="76.1860465" cy="132.125" rx="3.25581395" ry="3.25431034"></ellipse>
                        <ellipse id="Oval-Copy-6" fill="#A299FF" cx="136.093023" cy="73.5474138" rx="3.25581395" ry="3.25431034"></ellipse>
                    </g>
                </g>
            </g>
        </g>
    </g>
</svg>