<?xml version="1.0" encoding="UTF-8"?>
<svg width="14px" height="14px" viewBox="0 0 14 14" version="1.1" xmlns="http://www.w3.org/2000/svg" xmlns:xlink="http://www.w3.org/1999/xlink">
    <!-- Generator: Sketch 47.1 (45422) - http://www.bohemiancoding.com/sketch -->
    <title>ic_pdf</title>
    <desc>Created with Sketch.</desc>
    <defs></defs>
    <g id="Page-1" stroke="none" stroke-width="1" fill="none" fill-rule="evenodd">
        <g id="DG_Executive-Detail-page" transform="translate(-1131.000000, -354.000000)" fill="#016BFF">
            <g id="More-icon_detail" transform="translate(1119.000000, 333.000000)">
                <path d="M25.8002,25.304 L21.9817,21.2545 C21.8494,21.1159 21.6625,21.0004 21.4707,21.0004 L13.3857,21.0004 C12.6122,21.0004 12.0004,21.7004 12.0004,22.4732 L12.0004,27.3732 C12.0004,27.7603 12.3063,28.0004 12.6927,28.0004 L12.6962,28.0004 C13.0833,28.0004 13.4004,27.7603 13.4004,27.3732 L13.4004,23.1732 C13.4004,22.7868 13.6986,22.4004 14.0857,22.4004 L20.4004,22.4004 L20.4004,25.2732 C20.4004,26.0467 21.0122,26.6004 21.7857,26.6004 L24.6004,26.6004 L24.6004,27.3732 C24.6004,27.7603 24.9063,28.0004 25.2927,28.0004 L25.2962,28.0004 C25.6833,28.0004 26.0004,27.7603 26.0004,27.3732 L26.0004,25.7863 C26.0004,25.6071 25.9241,25.4342 25.8002,25.304 L25.8002,25.304 Z M14.7857,31.5732 C14.7857,31.1868 14.4721,30.8732 14.0857,30.8732 L13.3857,30.8732 L13.3857,32.2732 L14.0857,32.2732 C14.4721,32.2732 14.7857,31.9603 14.7857,31.5732 L14.7857,31.5732 Z M16.1829,31.387 C16.2459,32.598 15.2827,33.6004 14.0857,33.6004 L13.4004,33.6004 L13.4004,34.3732 C13.4004,34.7603 13.0833,35.0004 12.6962,35.0004 L12.6927,35.0004 C12.3063,35.0004 12.0004,34.7603 12.0004,34.3732 L12.0004,30.1732 C12.0004,29.7868 12.2986,29.4004 12.6857,29.4004 L13.9667,29.4004 C15.1042,29.4004 16.1234,30.2516 16.1829,31.387 L16.1829,31.387 Z M19.7004,31.5732 C19.7004,31.1868 19.3721,30.8004 18.9857,30.8004 L18.3004,30.8004 L18.3004,33.6004 L18.9857,33.6004 C19.3721,33.6004 19.7004,33.3603 19.7004,32.9732 L19.7004,31.5732 Z M21.1004,31.5004 L21.1004,32.9004 C21.1004,34.0554 20.1554,35.0004 19.0004,35.0004 L17.5269,35.0004 C17.1811,35.0004 16.9004,34.7197 16.9004,34.3732 L16.9004,30.0857 C16.9004,29.707 17.207,29.4004 17.5857,29.4004 L19.0004,29.4004 C20.1554,29.4004 21.1004,30.3447 21.1004,31.5004 L21.1004,31.5004 Z M26.0004,30.1186 L26.0004,30.1368 C26.0004,30.5232 25.6721,30.8004 25.2857,30.8004 L23.2004,30.8004 L23.2004,32.2004 L25.2857,32.2004 C25.6721,32.2004 26.0004,32.5315 26.0004,32.9186 L26.0004,32.9368 C26.0004,33.3232 25.6721,33.6004 25.2857,33.6004 L23.2004,33.6004 L23.2004,34.3732 C23.2004,34.7603 22.8833,35.0004 22.4962,35.0004 L22.4927,35.0004 C22.1063,35.0004 21.8004,34.7603 21.8004,34.3732 L21.8004,30.1732 C21.8004,29.7868 22.0986,29.4004 22.4857,29.4004 L25.2857,29.4004 C25.6721,29.4004 26.0004,29.7315 26.0004,30.1186 L26.0004,30.1186 Z" id="ic_pdf"></path>
            </g>
        </g>
    </g>
</svg>