<?xml version="1.0" encoding="UTF-8"?>
<svg width="24px" height="24px" viewBox="0 0 24 24" version="1.1" xmlns="http://www.w3.org/2000/svg" xmlns:xlink="http://www.w3.org/1999/xlink">
    <!-- Generator: Sketch 48.2 (47327) - http://www.bohemiancoding.com/sketch -->
    <title>1.pdf_s</title>
    <desc>Created with Sketch.</desc>
    <defs></defs>
    <g id="DG_Pricing_v2" stroke="none" stroke-width="1" fill="none" fill-rule="evenodd" transform="translate(-375.000000, -706.000000)">
        <g id="basic-difference" transform="translate(170.000000, 581.000000)">
            <g id="Export" transform="translate(175.000000, 125.000000)">
                <g id="1.pdf_s" transform="translate(30.000000, 0.000000)">
                    <rect id="Rectangle-3" stroke="#E3E5EC" x="0.5" y="0.5" width="23" height="23" rx="4"></rect>
                    <path d="M17.82864,9.68904 L14.55564,6.21804 C14.44224,6.09924 14.28204,6.00024 14.11764,6.00024 L7.18764,6.00024 C6.52464,6.00024 6.00024,6.60024 6.00024,7.26264 L6.00024,11.46264 C6.00024,11.79444 6.26244,12.00024 6.59364,12.00024 L6.59664,12.00024 C6.92844,12.00024 7.20024,11.79444 7.20024,11.46264 L7.20024,7.86264 C7.20024,7.53144 7.45584,7.20024 7.78764,7.20024 L13.20024,7.20024 L13.20024,9.66264 C13.20024,10.32564 13.72464,10.80024 14.38764,10.80024 L16.80024,10.80024 L16.80024,11.46264 C16.80024,11.79444 17.06244,12.00024 17.39364,12.00024 L17.39664,12.00024 C17.72844,12.00024 18.00024,11.79444 18.00024,11.46264 L18.00024,10.10244 C18.00024,9.94884 17.93484,9.80064 17.82864,9.68904 Z M8.38764,15.06264 C8.38764,14.73144 8.11884,14.46264 7.78764,14.46264 L7.18764,14.46264 L7.18764,15.66264 L7.78764,15.66264 C8.11884,15.66264 8.38764,15.39444 8.38764,15.06264 Z M9.58524,14.90304 C9.63924,15.94104 8.81364,16.80024 7.78764,16.80024 L7.20024,16.80024 L7.20024,17.46264 C7.20024,17.79444 6.92844,18.00024 6.59664,18.00024 L6.59364,18.00024 C6.26244,18.00024 6.00024,17.79444 6.00024,17.46264 L6.00024,13.86264 C6.00024,13.53144 6.25584,13.20024 6.58764,13.20024 L7.68564,13.20024 C8.66064,13.20024 9.53424,13.92984 9.58524,14.90304 Z M12.60024,15.06264 C12.60024,14.73144 12.31884,14.40024 11.98764,14.40024 L11.40024,14.40024 L11.40024,16.80024 L11.98764,16.80024 C12.31884,16.80024 12.60024,16.59444 12.60024,16.26264 L12.60024,15.06264 Z M13.80024,15.00024 L13.80024,16.20024 C13.80024,17.19024 12.99024,18.00024 12.00024,18.00024 L10.73724,18.00024 C10.44084,18.00024 10.20024,17.75964 10.20024,17.46264 L10.20024,13.78764 C10.20024,13.46304 10.46304,13.20024 10.78764,13.20024 L12.00024,13.20024 C12.99024,13.20024 13.80024,14.00964 13.80024,15.00024 Z M18.00024,13.81584 L18.00024,13.83144 C18.00024,14.16264 17.71884,14.40024 17.38764,14.40024 L15.60024,14.40024 L15.60024,15.60024 L17.38764,15.60024 C17.71884,15.60024 18.00024,15.88404 18.00024,16.21584 L18.00024,16.23144 C18.00024,16.56264 17.71884,16.80024 17.38764,16.80024 L15.60024,16.80024 L15.60024,17.46264 C15.60024,17.79444 15.32844,18.00024 14.99664,18.00024 L14.99364,18.00024 C14.66244,18.00024 14.40024,17.79444 14.40024,17.46264 L14.40024,13.86264 C14.40024,13.53144 14.65584,13.20024 14.98764,13.20024 L17.38764,13.20024 C17.71884,13.20024 18.00024,13.48404 18.00024,13.81584 Z" id="ic_pdf" fill="#1E2533"></path>
                </g>
            </g>
        </g>
    </g>
</svg>