<?xml version="1.0" encoding="UTF-8"?>
<svg width="16px" height="16px" viewBox="0 0 16 16" version="1.1" xmlns="http://www.w3.org/2000/svg" xmlns:xlink="http://www.w3.org/1999/xlink">
    <!-- Generator: Sketch 47.1 (45422) - http://www.bohemiancoding.com/sketch -->
    <title>ic_printer</title>
    <desc>Created with Sketch.</desc>
    <defs></defs>
    <g id="Page-1" stroke="none" stroke-width="1" fill="none" fill-rule="evenodd">
        <g id="DG_Executive-Detail-page" transform="translate(-1130.000000, -388.000000)" stroke="#07D868" stroke-width="0.5" fill="#07D868">
            <g id="More-icon_detail" transform="translate(1119.000000, 333.000000)">
                <g id="ic_printer" transform="translate(12.000000, 56.000000)">
                    <path d="M10.5680556,9.33333333 C10.5766111,10.5799556 10.5777,11.8220667 10.5777,13.0666667 L3.42214444,13.0666667 C3.41747778,11.8226889 3.42898889,10.5822889 3.43676667,9.33815556 C5.77601111,9.32462222 8.53961111,9.3338 10.5680556,9.33333333 L10.5680556,9.33333333 Z M2.48881111,5.91111111 L11.5110333,5.91111111 C12.3028111,5.91111111 13.0665889,6.71051111 13.0665889,7.77777778 L13.0665889,11.2 L11.5110333,11.2 L11.5015444,8.86666667 C11.5013889,8.62228889 11.2791,8.4 11.0348778,8.4 C8.2551,8.39533333 5.7127,8.40295556 2.97025556,8.40482222 C2.66396667,8.4028 2.50841111,8.55835556 2.50358889,8.86666667 L2.48896667,11.2 L0.933411111,11.2 L0.933411111,7.77777778 C0.9527,6.84724444 1.57492222,5.91391111 2.48881111,5.91111111 Z M3.42214444,0.933333333 L8.41936667,0.938155556 L8.41936667,2.96037778 L10.5923222,2.96037778 L10.5828333,4.97777778 L3.4223,4.97777778 L3.42214444,0.933333333 Z M2.48881111,0 L2.48881111,4.97777778 C1.10281111,4.97777778 -7.77777778e-05,6.26111111 -7.77777778e-05,7.77777778 L-7.77777778e-05,11.6666667 C-7.77777778e-05,11.9108889 0.222366667,12.1333333 0.466588889,12.1333333 C1.05536667,12.1334889 1.82132222,12.1333333 2.48881111,12.1333333 L2.48881111,13.5333333 C2.48881111,13.7775556 2.71125556,14 2.95547778,14 L11.0445222,14 C11.2887444,14 11.5110333,13.7775556 11.5110333,13.5333333 L11.5110333,12.1333333 L13.5332556,12.1333333 C13.7776333,12.1333333 13.9999222,11.9108889 13.9999222,11.6666667 L13.9999222,7.77777778 C13.9999222,6.26282222 12.8996778,4.98073333 11.5160111,4.97777778 L11.5304778,1.86962222 C10.8877222,1.23324444 10.1455667,0.552688889 9.53267778,0.00482222222 C7.08827778,0.00451111111 4.58445556,0.000155555556 2.48896667,0 L2.48881111,0 Z" id="Fill-1"></path>
                </g>
            </g>
        </g>
    </g>
</svg>