<?xml version="1.0" encoding="UTF-8"?>
<svg width="32px" height="30px" viewBox="0 0 32 30" version="1.1" xmlns="http://www.w3.org/2000/svg" xmlns:xlink="http://www.w3.org/1999/xlink">
    <!-- Generator: sketchtool 59 (101010) - https://sketch.com -->
    <title>47ED31A0-B4C5-46A0-9406-4A5008B00166@1x</title>
    <desc>Created with sketchtool.</desc>
    <g id="Home-screen" stroke="none" stroke-width="1" fill="none" fill-rule="evenodd">
        <g id="DG_Home_Sep-2019_v2" transform="translate(-592.000000, -3874.000000)" fill="#0155FF">
            <g id="testimonials" transform="translate(211.000000, 3803.000000)">
                <g id="1" transform="translate(351.000000, 31.000000)">
                    <path d="M42.3927273,45.4126679 C39.7163503,45.9117107 37.8351569,47.8310774 36.7490909,51.1708253 C36.2060579,52.8215054 35.9345455,54.452967 35.9345455,56.0652591 C35.9345455,56.2571987 35.9442423,56.4203448 35.9636364,56.5547025 C35.9830304,56.6890602 36.012121,56.986562 36.0509091,57.4472169 L42.3927273,57.4472169 L42.3927273,70 L30,70 L30,58.4261036 C30,52.7446933 31.144231,48.3685374 33.4327273,45.2975048 C35.7212236,42.2264722 38.7078604,40.4606549 42.3927273,40 L42.3927273,45.4126679 Z M62,45.4126679 C59.866656,45.7581591 58.2472783,46.9481664 57.1418182,48.9827255 C56.0363581,51.0172846 55.4836364,53.3589119 55.4836364,56.0076775 C55.4836364,56.238005 55.4933332,56.468329 55.5127273,56.6986564 C55.5321213,56.9289839 55.5806057,57.1785015 55.6581818,57.4472169 L62,57.4472169 L62,70 L49.5490909,70 L49.5490909,58.4261036 C49.5490909,53.8579426 50.5187782,49.7792886 52.4581818,46.1900192 C54.3975855,42.6007498 57.5781597,40.5374307 62,40 L62,45.4126679 Z" id="“-copy"></path>
                </g>
            </g>
        </g>
    </g>
</svg>