<?xml version="1.0" encoding="UTF-8"?>
<svg width="214px" height="167px" viewBox="0 0 214 167" version="1.1" xmlns="http://www.w3.org/2000/svg" xmlns:xlink="http://www.w3.org/1999/xlink">
    <!-- Generator: sketchtool 52.6 (67491) - http://www.bohemiancoding.com/sketch -->
    <title>48D0AD96-37C1-4185-96C3-FAAE66726498</title>
    <desc>Created with sketchtool.</desc>
    <defs>
        <path d="M6.9303644,3.64581577 L12.5,36 L6.5,43.5 L0.5,35.4900249 L6.06324515,3.64581577 L5,3.64581577 L4.59516369,2.16985718 C4.34448157,1.25591632 4.882159,0.311802856 5.79609985,0.0611207277 C5.94398908,0.0205566314 6.09664855,2.81702047e-17 6.25,0 C7.33385214,-1.99100408e-16 8.2124879,0.878635763 8.2124879,1.9624879 C8.2124879,2.05168039 8.20640739,2.14076913 8.19428865,2.22913449 L8,3.64581577 L6.9303644,3.64581577 Z" id="path-1"></path>
        <filter x="-130.7%" y="-21.8%" width="361.4%" height="177.9%" filterUnits="objectBoundingBox" id="filter-2">
            <feMorphology radius="3" operator="dilate" in="SourceAlpha" result="shadowSpreadOuter1"></feMorphology>
            <feOffset dx="0" dy="7" in="shadowSpreadOuter1" result="shadowOffsetOuter1"></feOffset>
            <feMorphology radius="1" operator="erode" in="SourceAlpha" result="shadowInner"></feMorphology>
            <feOffset dx="0" dy="7" in="shadowInner" result="shadowInner"></feOffset>
            <feComposite in="shadowOffsetOuter1" in2="shadowInner" operator="out" result="shadowOffsetOuter1"></feComposite>
            <feGaussianBlur stdDeviation="3" in="shadowOffsetOuter1" result="shadowBlurOuter1"></feGaussianBlur>
            <feColorMatrix values="0 0 0 0 0.691316641   0 0 0 0 0.675300027   0 0 0 0 0.851482781  0 0 0 1 0" type="matrix" in="shadowBlurOuter1"></feColorMatrix>
        </filter>
    </defs>
    <g id="Onboarding" stroke="none" stroke-width="1" fill="none" fill-rule="evenodd">
        <g id="SIGN-UP_step-3" transform="translate(-298.000000, -338.000000)">
            <g id="Illustration" transform="translate(290.000000, 301.000000)">
                <path d="M85.5430186,186.100314 L81.5440406,184.523421 C57.8201387,175.168516 43.4149584,150.964226 46.5058338,125.650509 L46.5058338,125.650509 C49.8352047,98.3835574 64.9845894,73.9593992 87.9327123,58.86122 L90.6121771,57.098329 C114.190173,41.5857396 144.739925,41.5999109 168.303519,57.1343682 L171.134044,59.0004108 C194.090982,74.1349263 209.268371,98.5640876 212.666534,125.850111 L212.666534,125.850111 C215.817171,151.148599 201.41598,175.364087 177.68301,184.674626 L173.851967,186.177559 C145.463938,197.314297 113.911521,197.286697 85.5430186,186.100314 Z" id="Star-Copy-9" fill="#E5EDF0" fill-rule="nonzero" transform="translate(129.593609, 120.001706) rotate(41.000000) translate(-129.593609, -120.001706) "></path>
                <path d="M88.5430186,178.100314 L84.5440406,176.523421 C60.8201387,167.168516 46.4149584,142.964226 49.5058338,117.650509 L49.5058338,117.650509 C52.8352047,90.3835574 67.9845894,65.9593992 90.9327123,50.86122 L93.6121771,49.098329 C117.190173,33.5857396 147.739925,33.5999109 171.303519,49.1343682 L174.134044,51.0004108 C197.090982,66.1349263 212.268371,90.5640876 215.666534,117.850111 L215.666534,117.850111 C218.817171,143.148599 204.41598,167.364087 180.68301,176.674626 L176.851967,178.177559 C148.463938,189.314297 116.911521,189.286697 88.5430186,178.100314 Z" id="Star-Copy" fill="#F3F8FA" fill-rule="nonzero" transform="translate(132.593609, 112.001706) rotate(41.000000) translate(-132.593609, -112.001706) "></path>
                <path d="M201.380951,70.7090692 L200.714588,70.4461176 C196.73421,68.8754301 194.31752,64.8140541 194.835787,60.5664819 L194.835787,60.5664819 C195.394022,55.9913547 197.934997,51.8928346 201.78459,49.3582639 L202.230863,49.0644382 C206.183591,46.4619634 211.306641,46.4643405 215.256952,49.0704825 L215.728562,49.3816183 C219.579629,51.9222854 222.125298,56.0216463 222.695066,60.5999721 L222.695066,60.5999721 C223.223355,64.8449912 220.807329,68.9082424 216.825426,70.4714824 L216.187235,70.7220272 C211.427803,72.5905141 206.137105,72.5858838 201.380951,70.7090692 Z" id="Star-Copy-7" fill="#F3F8FA" fill-rule="nonzero" transform="translate(208.766672, 59.618696) rotate(41.000000) translate(-208.766672, -59.618696) "></path>
                <path d="M22.3202547,186.269124 L20.9867178,185.744049 C13.1843327,182.671886 8.44591788,174.713097 9.46372218,166.389668 L9.46372218,166.389668 C10.5601555,157.423224 15.5456329,149.393145 23.095377,144.433241 L23.9897634,143.845663 C31.7568456,138.742976 41.8144005,138.747639 49.5767481,143.857525 L50.5208436,144.479015 C58.0735086,149.450869 63.0682173,157.482588 64.1873059,166.455309 L64.1873059,166.455309 C65.2247885,174.773722 60.487705,182.736207 52.6823527,185.793794 L51.4040654,186.294537 C42.0537651,189.957326 31.6641398,189.948248 22.3202547,186.269124 Z" id="Star-Copy-8" fill="#F3F8FA" fill-rule="nonzero" transform="translate(36.827960, 164.532008) rotate(41.000000) translate(-36.827960, -164.532008) "></path>
                <path d="M126.75,78 L126.75,89.25 L115.5,89.25 L108,89.25 L108,147.5 L100.5,147.5 L100.5,138 L95,138 L95,145.5 L95,153 L108,153 L115.5,153 L145.5,153 L153,153 L166,153 L166,138 L160.5,138 L160.5,147.5 L153,147.5 L153,89.25 L145.5,89.25 L134.25,89.25 L134.25,78 L126.75,78 Z M113.5,94.74625 L126.25,94.74625 L134.75,94.74625 L147.5,94.74625 L147.5,147.5 L138.75,147.5 L138.75,131.265268 L122.25,131.265268 L122.25,147.5 L113.5,147.5 L113.5,94.74625 Z M126.75,108 L134.25,108 L134.25,100.49625 L126.75,100.49625 L126.75,108 Z M126.75,123 L134.25,123 L134.25,115.5 L126.75,115.5 L126.75,123 Z" id="ic_company-copy" fill="#EAF1F4"></path>
                <path d="M130.75,75 L130.75,86.25 L119.5,86.25 L112,86.25 L112,144.5 L104.5,144.5 L104.5,135 L99,135 L99,142.5 L99,150 L112,150 L119.5,150 L149.5,150 L157,150 L170,150 L170,135 L164.5,135 L164.5,144.5 L157,144.5 L157,86.25 L149.5,86.25 L138.25,86.25 L138.25,75 L130.75,75 Z M117.5,91.74625 L130.25,91.74625 L138.75,91.74625 L151.5,91.74625 L151.5,144.5 L142.75,144.5 L142.75,128.265268 L126.25,128.265268 L126.25,144.5 L117.5,144.5 L117.5,91.74625 Z M130.75,105 L138.25,105 L138.25,97.49625 L130.75,97.49625 L130.75,105 Z M130.75,120 L138.25,120 L138.25,112.5 L130.75,112.5 L130.75,120 Z" id="ic_company" fill="#6C65B2"></path>
                <g id="tie" transform="translate(151.000000, 116.000000)" fill-rule="nonzero">
                    <g id="Combined-Shape-Copy">
                        <use fill="black" fill-opacity="1" filter="url(#filter-2)" xlink:href="#path-1"></use>
                        <path stroke="#FFFFFF" stroke-width="3" d="M8.71064639,5.14581577 L14.0926952,36.4103026 L6.4609965,45.949926 L-1.08918269,35.8704681 L4.2784737,5.14581577 L3.85602864,5.14581577 L3.14859224,2.56663297 C2.67877689,0.853772767 3.68646385,-0.915635376 5.39932406,-1.38545073 C5.67649031,-1.46147384 5.96259672,-1.5 6.25,-1.5 C8.16227927,-1.5 9.7124879,0.0502086381 9.7124879,1.9624879 C9.7124879,2.11985342 9.70175984,2.27703588 9.68037831,2.43294205 L9.30832527,5.14581577 L8.71064639,5.14581577 Z"></path>
                    </g>
                    <path d="M5.5,3.64581577 L5,3.64581577 L4.59516369,2.16985718 C4.34448157,1.25591632 4.882159,0.311802856 5.79609985,0.0611207277 C5.94398908,0.0205566314 6.09664855,2.81702047e-17 6.25,0 C7.33385214,-1.99100408e-16 8.2124879,0.878635763 8.2124879,1.9624879 C8.2124879,2.05168039 8.20640739,2.14076913 8.19428865,2.22913449 L8,3.64581577 L7.5,3.64581577 L12.5,36 L6.5,43.5 L0.5,35.4900249 L5.5,3.64581577 Z" id="Combined-Shape" fill="#2D2391"></path>
                </g>
            </g>
        </g>
    </g>
</svg>