<?xml version="1.0" encoding="UTF-8"?>
<svg width="228px" height="180px" viewBox="0 0 228 180" version="1.1" xmlns="http://www.w3.org/2000/svg" xmlns:xlink="http://www.w3.org/1999/xlink">
    <!-- Generator: sketchtool 52.6 (67491) - http://www.bohemiancoding.com/sketch -->
    <title>D8B2749A-94C5-4479-A7B2-713970C0ED27</title>
    <desc>Created with sketchtool.</desc>
    <defs>
        <path d="M89.6031625,75.4816942 C88.9172512,75.4816942 88.2730464,75.2158685 87.7882887,74.7327813 L81.1787734,68.1507191 L78.5118041,73.0825531 C78.063299,73.9119805 77.1990123,74.4270178 76.2554833,74.4270178 C75.1470532,74.4270178 74.1672717,73.7247523 73.817258,72.6793415 L66.0162205,49.3713456 C65.7518655,48.5828145 65.8792307,47.7447606 66.3652717,47.0728477 C66.8490669,46.4041299 67.6264116,46.0050718 68.4445003,46.0050718 C68.7207256,46.0050718 68.9959884,46.0501216 69.2625891,46.1383041 L92.6660225,53.9076361 C93.6531829,54.2351257 94.3220908,55.0802087 94.4115993,56.1128394 C94.5014287,57.1451506 93.9874765,58.0918353 93.0715379,58.58291 L88.1190532,61.2386112 L94.7285686,67.8213124 C95.2130055,68.3037606 95.4802478,68.9456402 95.4802478,69.6287357 C95.4802478,70.3115116 95.2130055,70.9533913 94.7282478,71.4361589 L91.4177154,74.7331008 C90.9332785,75.2158685 90.2887529,75.4816942 89.6031625,75.4816942" id="path-1"></path>
        <filter x="-42.2%" y="-22.1%" width="184.5%" height="188.2%" filterUnits="objectBoundingBox" id="filter-2">
            <feOffset dx="0" dy="7" in="SourceAlpha" result="shadowOffsetOuter1"></feOffset>
            <feGaussianBlur stdDeviation="3" in="shadowOffsetOuter1" result="shadowBlurOuter1"></feGaussianBlur>
            <feColorMatrix values="0 0 0 0 0.691316641   0 0 0 0 0.675300027   0 0 0 0 0.851482781  0 0 0 1 0" type="matrix" in="shadowBlurOuter1"></feColorMatrix>
        </filter>
    </defs>
    <g id="Onboarding" stroke="none" stroke-width="1" fill="none" fill-rule="evenodd">
        <g id="SIGN-UP_step-2" transform="translate(-295.000000, -331.000000)">
            <g id="Illustration" transform="translate(290.000000, 303.000000)">
                <path d="M72.5430186,186.100314 L68.5440406,184.523421 C44.8201387,175.168516 30.4149584,150.964226 33.5058338,125.650509 L33.5058338,125.650509 C36.8352047,98.3835574 51.9845894,73.9593992 74.9327123,58.86122 L77.6121771,57.098329 C101.190173,41.5857396 131.739925,41.5999109 155.303519,57.1343682 L158.134044,59.0004108 C181.090982,74.1349263 196.268371,98.5640876 199.666534,125.850111 L199.666534,125.850111 C202.817171,151.148599 188.41598,175.364087 164.68301,184.674626 L160.851967,186.177559 C132.463938,197.314297 100.911521,197.286697 72.5430186,186.100314 Z" id="Star-Copy-9" fill="#E5EDF0" fill-rule="nonzero" transform="translate(116.593609, 120.001706) scale(1, -1) rotate(41.000000) translate(-116.593609, -120.001706) "></path>
                <path d="M68.5430186,178.100314 L64.5440406,176.523421 C40.8201387,167.168516 26.4149584,142.964226 29.5058338,117.650509 L29.5058338,117.650509 C32.8352047,90.3835574 47.9845894,65.9593992 70.9327123,50.86122 L73.6121771,49.098329 C97.1901731,33.5857396 127.739925,33.5999109 151.303519,49.1343682 L154.134044,51.0004108 C177.090982,66.1349263 192.268371,90.5640876 195.666534,117.850111 L195.666534,117.850111 C198.817171,143.148599 184.41598,167.364087 160.68301,176.674626 L156.851967,178.177559 C128.463938,189.314297 96.9115211,189.286697 68.5430186,178.100314 Z" id="Star-Copy" fill="#F3F8FA" fill-rule="nonzero" transform="translate(112.593609, 112.001706) scale(1, -1) rotate(41.000000) translate(-112.593609, -112.001706) "></path>
                <path d="M12.0799124,204.287971 L11.4135503,204.025019 C7.43317201,202.454332 5.01648156,198.392956 5.5347493,194.145383 L5.5347493,194.145383 C6.09298368,189.570256 8.63395934,185.471736 12.4835523,182.937165 L12.9298248,182.64334 C16.8825531,180.040865 22.0056026,180.043242 25.955914,182.649384 L26.4275243,182.96052 C30.2785909,185.501187 32.8242598,189.600548 33.3940283,194.178874 L33.3940283,194.178874 C33.9223171,198.423893 31.5062911,202.487144 27.5243875,204.050384 L26.8861968,204.300929 C22.1267648,206.169416 16.8360665,206.164785 12.0799124,204.287971 Z" id="Star-Copy-7" fill="#F3F8FA" fill-rule="nonzero" transform="translate(19.465634, 193.197598) rotate(41.000000) translate(-19.465634, -193.197598) "></path>
                <path d="M193.320255,84.2691242 L191.986718,83.7440486 C184.184333,80.6718856 179.445918,72.7130972 180.463722,64.389668 L180.463722,64.389668 C181.560155,55.4232243 186.545633,47.3931449 194.095377,42.4332414 L194.989763,41.8456625 C202.756846,36.7429758 212.814401,36.7476386 220.576748,41.8575248 L221.520844,42.4790147 C229.073509,47.4508687 234.068217,55.4825879 235.187306,64.4553089 L235.187306,64.4553089 C236.224788,72.7737218 231.487705,80.7362069 223.682353,83.793794 L222.404065,84.2945369 C213.053765,87.9573259 202.66414,87.9482477 193.320255,84.2691242 Z" id="Star-Copy-8" fill="#F3F8FA" fill-rule="nonzero" transform="translate(207.827960, 62.532008) rotate(41.000000) translate(-207.827960, -62.532008) "></path>
                <g id="Group-17" transform="translate(73.000000, 74.000000)">
                    <g id="Group-3" transform="translate(0.000000, 0.079237)">
                        <path d="M5.23259181,43.707312 L19.7063461,43.707312 C19.8539229,48.4797145 20.4131106,53.0815029 21.3473358,57.3126689 C18.445527,58.7277436 15.7172812,60.5188722 13.2254792,62.6620921 C8.71476246,57.5018141 5.79402526,50.9290174 5.23259181,43.707312 Z M13.2254792,19.6408183 C15.7172812,21.7837187 18.445527,23.5748473 21.3473358,24.989922 C20.4131106,29.221088 19.8539229,33.8228763 19.7063461,38.5952788 L5.23259181,38.5952788 C5.79402526,31.3735734 8.71476246,24.8007768 13.2254792,19.6408183 Z M56.428585,38.5952788 C56.2806874,33.8231959 55.7218205,29.2220465 54.7875952,24.9912 C57.6900457,23.5761253 60.4189331,21.7862747 62.9107352,19.6420963 C67.4208102,24.8020548 70.340585,31.3742124 70.9023392,38.5952788 L56.428585,38.5952788 Z M54.7875952,57.3113909 C55.7218205,53.0805444 56.2806874,48.4790755 56.428585,43.707312 L70.9023392,43.707312 C70.340585,50.9280589 67.4208102,57.5005361 62.9107352,62.6601751 C60.4189331,60.5166357 57.6900457,58.7264656 54.7875952,57.3113909 Z M51.6108444,67.192312 C52.2871311,65.6833037 52.8934792,64.0640672 53.4353427,62.3627187 C55.4863392,63.4429552 57.4285782,64.7462041 59.2328648,66.258727 C56.2017659,68.7974905 52.7070833,70.8020465 48.8941481,72.1276606 C49.8720048,70.6902207 50.7821686,69.0425485 51.6108444,67.192312 Z M51.2977249,43.707312 C51.1607352,47.9330465 50.6872061,51.8450299 49.9650423,55.3569967 C46.1752061,54.1202041 42.1710628,53.477366 38.0674655,53.477366 C33.9657932,53.477366 29.9610082,54.1202041 26.1702096,55.3576357 C25.4480457,51.8453494 24.9741959,47.933366 24.8368853,43.707312 L51.2977249,43.707312 Z M38.0674655,28.8252249 C42.1710628,28.8252249 46.1752061,28.1823867 49.9650423,26.9455942 C50.6872061,30.457561 51.1607352,34.3692249 51.2977249,38.5952788 L24.8368853,38.5952788 C24.9741959,34.3692249 25.4480457,30.4572415 26.1702096,26.9449552 C29.9610082,28.1823867 33.9657932,28.8252249 38.0674655,28.8252249 Z M51.6108444,15.1099593 C50.7821686,13.2597228 49.8720048,11.6123701 48.8941481,10.1749303 C52.7070833,11.5005444 56.2017659,13.5054199 59.2328648,16.0435444 C57.4285782,17.5560672 55.4863392,18.8593162 53.4353427,19.9398722 C52.8934792,18.2385237 52.2871311,16.6192871 51.6108444,15.1099593 Z M38.0674655,8.35217095 C41.9439229,8.35217095 46.0933973,13.4907228 48.701015,21.9722249 C45.3218273,23.1163618 41.7408444,23.7131917 38.0674655,23.7131917 C34.3956908,23.7131917 30.814387,23.1157228 27.4342369,21.9709469 C30.0418546,13.4900838 34.1910082,8.35217095 38.0674655,8.35217095 Z M22.6995884,19.9395527 C20.6485918,18.8593162 18.7063529,17.5554282 16.9020662,16.0435444 C19.9331652,13.5054199 23.4278478,11.5005444 27.2407829,10.1749303 C26.2629263,11.6123701 25.3527625,13.2597228 24.5237659,15.1099593 C23.8478,16.6189676 23.2414519,18.2382041 22.6995884,19.9395527 Z M27.4342369,60.3319635 C30.814387,59.1871876 34.3956908,58.5893992 38.0674655,58.5893992 C41.7408444,58.5893992 45.3218273,59.186229 48.701015,60.330366 C46.0933973,68.811868 41.9439229,73.9504199 38.0674655,73.9504199 C34.1910082,73.9504199 30.0418546,68.8125071 27.4342369,60.3319635 Z M24.5237659,67.192312 C25.3527625,69.0425485 26.2632471,70.6902207 27.2407829,72.1276606 C23.4281686,70.8020465 19.9331652,68.7974905 16.9020662,66.258727 C18.7063529,64.7468432 20.6485918,63.4432747 22.6995884,62.3630382 C23.2414519,64.0640672 23.8478,65.6836232 24.5237659,67.192312 Z M38.0674655,3.24013776 C17.0769126,3.24013776 3.20819113e-05,20.2469137 3.20819113e-05,41.1512954 C3.20819113e-05,62.0553577 17.0769126,79.0624531 38.0674655,79.0624531 C59.0576976,79.0624531 76.134899,62.0553577 76.134899,41.1512954 C76.134899,20.2469137 59.0576976,3.24013776 38.0674655,3.24013776 Z" id="Fill-1-Copy" fill="#EAF1F4"></path>
                        <path d="M8.23259181,40.707312 L22.7063461,40.707312 C22.8539229,45.4797145 23.4131106,50.0815029 24.3473358,54.3126689 C21.445527,55.7277436 18.7172812,57.5188722 16.2254792,59.6620921 C11.7147625,54.5018141 8.79402526,47.9290174 8.23259181,40.707312 Z M16.2254792,16.6408183 C18.7172812,18.7837187 21.445527,20.5748473 24.3473358,21.989922 C23.4131106,26.221088 22.8539229,30.8228763 22.7063461,35.5952788 L8.23259181,35.5952788 C8.79402526,28.3735734 11.7147625,21.8007768 16.2254792,16.6408183 Z M59.428585,35.5952788 C59.2806874,30.8231959 58.7218205,26.2220465 57.7875952,21.9912 C60.6900457,20.5761253 63.4189331,18.7862747 65.9107352,16.6420963 C70.4208102,21.8020548 73.340585,28.3742124 73.9023392,35.5952788 L59.428585,35.5952788 Z M57.7875952,54.3113909 C58.7218205,50.0805444 59.2806874,45.4790755 59.428585,40.707312 L73.9023392,40.707312 C73.340585,47.9280589 70.4208102,54.5005361 65.9107352,59.6601751 C63.4189331,57.5166357 60.6900457,55.7264656 57.7875952,54.3113909 Z M54.6108444,64.192312 C55.2871311,62.6833037 55.8934792,61.0640672 56.4353427,59.3627187 C58.4863392,60.4429552 60.4285782,61.7462041 62.2328648,63.258727 C59.2017659,65.7974905 55.7070833,67.8020465 51.8941481,69.1276606 C52.8720048,67.6902207 53.7821686,66.0425485 54.6108444,64.192312 Z M54.2977249,40.707312 C54.1607352,44.9330465 53.6872061,48.8450299 52.9650423,52.3569967 C49.1752061,51.1202041 45.1710628,50.477366 41.0674655,50.477366 C36.9657932,50.477366 32.9610082,51.1202041 29.1702096,52.3576357 C28.4480457,48.8453494 27.9741959,44.933366 27.8368853,40.707312 L54.2977249,40.707312 Z M41.0674655,25.8252249 C45.1710628,25.8252249 49.1752061,25.1823867 52.9650423,23.9455942 C53.6872061,27.457561 54.1607352,31.3692249 54.2977249,35.5952788 L27.8368853,35.5952788 C27.9741959,31.3692249 28.4480457,27.4572415 29.1702096,23.9449552 C32.9610082,25.1823867 36.9657932,25.8252249 41.0674655,25.8252249 Z M54.6108444,12.1099593 C53.7821686,10.2597228 52.8720048,8.61237012 51.8941481,7.17493029 C55.7070833,8.5005444 59.2017659,10.5054199 62.2328648,13.0435444 C60.4285782,14.5560672 58.4863392,15.8593162 56.4353427,16.9398722 C55.8934792,15.2385237 55.2871311,13.6192871 54.6108444,12.1099593 Z M41.0674655,5.35217095 C44.9439229,5.35217095 49.0933973,10.4907228 51.701015,18.9722249 C48.3218273,20.1163618 44.7408444,20.7131917 41.0674655,20.7131917 C37.3956908,20.7131917 33.814387,20.1157228 30.4342369,18.9709469 C33.0418546,10.4900838 37.1910082,5.35217095 41.0674655,5.35217095 Z M25.6995884,16.9395527 C23.6485918,15.8593162 21.7063529,14.5554282 19.9020662,13.0435444 C22.9331652,10.5054199 26.4278478,8.5005444 30.2407829,7.17493029 C29.2629263,8.61237012 28.3527625,10.2597228 27.5237659,12.1099593 C26.8478,13.6189676 26.2414519,15.2382041 25.6995884,16.9395527 Z M30.4342369,57.3319635 C33.814387,56.1871876 37.3956908,55.5893992 41.0674655,55.5893992 C44.7408444,55.5893992 48.3218273,56.186229 51.701015,57.330366 C49.0933973,65.811868 44.9439229,70.9504199 41.0674655,70.9504199 C37.1910082,70.9504199 33.0418546,65.8125071 30.4342369,57.3319635 Z M27.5237659,64.192312 C28.3527625,66.0425485 29.2632471,67.6902207 30.2407829,69.1276606 C26.4281686,67.8020465 22.9331652,65.7974905 19.9020662,63.258727 C21.7063529,61.7468432 23.6485918,60.4432747 25.6995884,59.3630382 C26.2414519,61.0640672 26.8478,62.6836232 27.5237659,64.192312 Z M41.0674655,0.240137759 C20.0769126,0.240137759 3.00003208,17.2469137 3.00003208,38.1512954 C3.00003208,59.0553577 20.0769126,76.0624531 41.0674655,76.0624531 C62.0576976,76.0624531 79.134899,59.0553577 79.134899,38.1512954 C79.134899,17.2469137 62.0576976,0.240137759 41.0674655,0.240137759 Z" id="Fill-1" fill="#6C65B2"></path>
                    </g>
                    <path d="M62.7859249,47.283144 L19.348942,47.283144 C17.2315358,47.283144 15.4991126,45.5578328 15.4991126,43.4491191 L15.4991126,33.0119448 C15.4991126,30.9032311 17.2315358,29.1779199 19.348942,29.1779199 L62.7859249,29.1779199 C64.9033311,29.1779199 66.6357543,30.9032311 66.6357543,33.0119448 L66.6357543,43.4491191 C66.6357543,45.5578328 64.9033311,47.283144 62.7859249,47.283144" id="Fill-4" fill="#6C65B2"></path>
                    <polygon id="Fill-6" fill="#FFFFFF" points="23.6875072 33.2616996 26.3188655 33.2616996 27.8305652 40.3802058 29.3785174 33.2616996 32.0827017 33.2616996 29.2052751 43.1458158 26.5373433 43.1458158 24.9804082 35.9458365 23.4051863 43.1458158 20.709985 43.1458158 17.9239918 33.2616996 20.709985 33.2616996 22.2579372 40.3530481"></polygon>
                    <polygon id="Fill-8" fill="#FFFFFF" points="40.0571099 33.2616996 42.6884683 33.2616996 44.2001679 40.3802058 45.7481201 33.2616996 48.4519836 33.2616996 45.5748778 43.1458158 42.9069461 43.1458158 41.3500109 35.9458365 39.7747891 43.1458158 37.0795877 43.1458158 34.2935945 33.2616996 37.0795877 33.2616996 38.6275399 40.3530481"></polygon>
                    <polygon id="Fill-10" fill="#FFFFFF" points="56.4265843 33.2616996 59.0579427 33.2616996 60.5696423 40.3802058 62.1175945 33.2616996 64.8217788 33.2616996 61.9443522 43.1458158 59.2767413 43.1458158 57.7194853 35.9458365 56.1442635 43.1458158 53.4493829 43.1458158 50.6630689 33.2616996 53.4493829 33.2616996 54.9970143 40.3530481"></polygon>
                    <g id="Fill-12" fill-rule="nonzero">
                        <use fill="black" fill-opacity="1" filter="url(#filter-2)" xlink:href="#path-1"></use>
                        <use fill="#2D2391" xlink:href="#path-1"></use>
                    </g>
                    <g id="Group-16" transform="translate(64.276451, 44.490025)" fill="#FFFFFF">
                        <path d="M4.16798567,0.23710249 C2.93860683,0.23710249 1.77210853,0.834571369 1.0480198,1.83525187 C0.317514676,2.84423942 0.125985666,4.10211909 0.52219727,5.28587427 L8.32323481,28.5932311 C8.8484157,30.1613473 10.3174464,31.2150651 11.9792894,31.2150651 C13.395385,31.2150651 14.6930983,30.4421896 15.3652143,29.1986876 L17.2144157,25.7787373 L22.6044976,31.1466917 C23.3314737,31.8710029 24.2984225,32.2697415 25.3266478,32.2697415 C26.354873,32.2697415 27.3218218,31.8710029 28.0491188,31.1466917 L29.7042246,29.498061 L31.3596512,27.8497498 C32.8607638,26.3547996 32.8607638,23.9224303 31.3596512,22.4274801 L25.9695693,17.0595257 L29.4032962,15.2182353 C30.7568321,14.4923266 31.5460471,13.0379531 31.4138696,11.5129697 C31.2816922,9.9876668 30.2541085,8.68921037 28.7956648,8.20516473 L5.39158976,0.43583278 C4.99409488,0.303878423 4.58248396,0.23710249 4.16798567,0.23710249 M4.16798567,2.79311909 C4.30208805,2.79311909 4.44100273,2.81452573 4.58023823,2.86085353 L27.9836717,10.629866 C29.0510369,10.9841938 29.176798,12.4369697 28.1864294,12.9676627 L23.2342655,15.6233639 C22.4771324,16.029451 22.3273099,17.0470651 22.9349413,17.6525216 L29.5447775,24.2349033 C30.0458969,24.7339656 30.0458969,25.5432643 29.5447775,26.0423266 L27.8893509,27.6909573 L26.2339242,29.3392685 C25.9833645,29.5887996 25.6551666,29.7137249 25.3266478,29.7137249 C24.998129,29.7137249 24.6696102,29.5887996 24.4190505,29.3392685 L17.8095352,22.7568867 C17.5554464,22.5035216 17.2282109,22.3824303 16.9041836,22.3824303 C16.4540744,22.3824303 16.0090983,22.6163058 15.7723338,23.0546627 L13.1053645,27.9868162 C12.8602587,28.4405091 12.4188116,28.6590485 11.9792894,28.6590485 C11.4634123,28.6590485 10.9504225,28.3587166 10.7582519,27.7852104 L2.95721433,4.47721452 C2.66911877,3.61711494 3.33642253,2.79311909 4.16798567,2.79311909" id="Fill-14"></path>
                    </g>
                </g>
            </g>
        </g>
    </g>
</svg>