<?xml version="1.0" encoding="UTF-8"?>
<svg width="239px" height="178px" viewBox="0 0 239 178" version="1.1" xmlns="http://www.w3.org/2000/svg" xmlns:xlink="http://www.w3.org/1999/xlink">
    <!-- Generator: sketchtool 52.6 (67491) - http://www.bohemiancoding.com/sketch -->
    <title>0DF9E96F-F4F2-4D17-B2F4-6EDFDFF8A8A9</title>
    <desc>Created with sketchtool.</desc>
    <g id="Onboarding" stroke="none" stroke-width="1" fill="none" fill-rule="evenodd">
        <g id="SIGN-UP_step-1" transform="translate(-308.000000, -325.000000)" fill-rule="nonzero">
            <g id="Group-2-Copy" transform="translate(303.000000, 206.000000)">
                <g id="Illustration-Copy" transform="translate(0.000000, 82.000000)">
                    <path d="M73.5430186,187.100314 L69.5440406,185.523421 C45.8201387,176.168516 31.4149584,151.964226 34.5058338,126.650509 L34.5058338,126.650509 C37.8352047,99.3835574 52.9845894,74.9593992 75.9327123,59.86122 L78.6121771,58.098329 C102.190173,42.5857396 132.739925,42.5999109 156.303519,58.1343682 L159.134044,60.0004108 C182.090982,75.1349263 197.268371,99.5640876 200.666534,126.850111 L200.666534,126.850111 C203.817171,152.148599 189.41598,176.364087 165.68301,185.674626 L161.851967,187.177559 C133.463938,198.314297 101.911521,198.286697 73.5430186,187.100314 Z" id="Star-Copy-9" fill="#E5EDF0" transform="translate(117.593609, 121.001706) scale(-1, 1) rotate(41.000000) translate(-117.593609, -121.001706) "></path>
                    <path d="M68.5430186,178.100314 L64.5440406,176.523421 C40.8201387,167.168516 26.4149584,142.964226 29.5058338,117.650509 L29.5058338,117.650509 C32.8352047,90.3835574 47.9845894,65.9593992 70.9327123,50.86122 L73.6121771,49.098329 C97.1901731,33.5857396 127.739925,33.5999109 151.303519,49.1343682 L154.134044,51.0004108 C177.090982,66.1349263 192.268371,90.5640876 195.666534,117.850111 L195.666534,117.850111 C198.817171,143.148599 184.41598,167.364087 160.68301,176.674626 L156.851967,178.177559 C128.463938,189.314297 96.9115211,189.286697 68.5430186,178.100314 Z" id="Star-Copy" fill="#F3F8FA" transform="translate(112.593609, 112.001706) scale(-1, 1) rotate(41.000000) translate(-112.593609, -112.001706) "></path>
                    <path d="M12.3809505,83.7090692 L11.7145885,83.4461176 C7.73421015,81.8754301 5.31751971,77.8140541 5.83578745,73.5664819 L5.83578745,73.5664819 C6.39402182,68.9913547 8.93499748,64.8928346 12.7845904,62.3582639 L13.230863,62.0644382 C17.1835912,59.4619634 22.3066407,59.4643405 26.2569522,62.0704825 L26.7285625,62.3816183 C30.5796291,64.9222854 33.1252979,69.0216463 33.6950664,73.5999721 L33.6950664,73.5999721 C34.2233552,77.8449912 31.8073292,81.9082424 27.8254256,83.4714824 L27.1872349,83.7220272 C22.427803,85.5905141 17.1371047,85.5858838 12.3809505,83.7090692 Z" id="Star-Copy-7" fill="#F3F8FA" transform="translate(19.766672, 72.618696) rotate(41.000000) translate(-19.766672, -72.618696) "></path>
                    <path d="M204.320255,208.269124 L202.986718,207.744049 C195.184333,204.671886 190.445918,196.713097 191.463722,188.389668 L191.463722,188.389668 C192.560155,179.423224 197.545633,171.393145 205.095377,166.433241 L205.989763,165.845663 C213.756846,160.742976 223.814401,160.747639 231.576748,165.857525 L232.520844,166.479015 C240.073509,171.450869 245.068217,179.482588 246.187306,188.455309 L246.187306,188.455309 C247.224788,196.773722 242.487705,204.736207 234.682353,207.793794 L233.404065,208.294537 C224.053765,211.957326 213.66414,211.948248 204.320255,208.269124 Z" id="Star-Copy-8" fill="#F3F8FA" transform="translate(218.827960, 186.532008) rotate(41.000000) translate(-218.827960, -186.532008) "></path>
                    <g id="Group" transform="translate(76.000000, 78.000000)">
                        <path d="M54,70.0052902 L0,70.0052902 L0,68.4052902 C0.000380339215,65.4522545 1.61563793,62.7358593 4.21,61.3252902 L16.29,54.7352902 C18.7635644,53.372572 20.2971103,50.7693778 20.29,47.9452902 L20.29,43.4152902 C20.290113,42.5326595 19.9982917,41.674775 19.46,40.9752902 C17.5794722,38.4746424 16.2038735,35.6317384 15.41,32.6052902 C15.1934333,31.7457026 14.6974653,30.9824044 14,30.4352902 C13.6851892,30.2002904 13.502803,29.8280737 13.51,29.4352902 L13.51,24.0352902 C13.5136345,23.7303165 13.6313687,23.4377651 13.84,23.2152902 C14.4922791,22.475757 14.8484025,21.5213463 14.84,20.5352902 L14.84,16.4552902 C14.84,16.3152902 14.84,16.1352902 14.84,16.0052902 C14.7203583,13.9683287 15.3739068,11.9612561 16.67,10.3852902 C18.67,8.15529017 22.09,7.01529017 26.97,7.01529017 C29.703961,6.8984302 32.4262567,7.43671789 34.91,8.58529017 L35.25,8.76529017 C35.9998975,9.18945686 36.6754617,9.73328599 37.25,10.3752902 C38.5697556,11.9617314 39.2254186,13.9967946 39.08,16.0552902 C39.0716986,16.2018394 39.0716986,16.348741 39.08,16.4952902 L39.08,20.4952902 C39.0740634,21.4779077 39.4300274,22.4283315 40.08,23.1652902 C40.2886313,23.3877651 40.4063655,23.6803165 40.41,23.9852902 L40.41,29.4052902 C40.4090077,29.8982107 40.1138389,30.3429316 39.66,30.5352902 C38.6430579,30.9872379 37.8603625,31.8424051 37.5,32.8952902 C36.6753898,35.3371832 35.5033561,37.6475714 34.02,39.7552902 C33.74,40.1452902 33.46,40.5252902 33.2,40.8352902 C32.6058698,41.5522942 32.2805066,42.4541161 32.28,43.3852902 L32.28,48.0152902 C32.2676775,50.9473766 33.9238027,53.6313077 36.55,54.9352902 L49.54,61.5052902 C52.2696331,62.8521954 53.9984215,65.6314361 54,68.6752902 L54,70.0052902 Z" id="Path" stroke="#EAF1F4" stroke-width="6" fill="#EAF1F4"></path>
                        <path d="M59,67.0052902 L5,67.0052902 L5,65.4052902 C5.00038034,62.4522545 6.61563793,59.7358593 9.21,58.3252902 L21.29,51.7352902 C23.7635644,50.372572 25.2971103,47.7693778 25.29,44.9452902 L25.29,40.4152902 C25.290113,39.5326595 24.9982917,38.674775 24.46,37.9752902 C22.5794722,35.4746424 21.2038735,32.6317384 20.41,29.6052902 C20.1934333,28.7457026 19.6974653,27.9824044 19,27.4352902 C18.6851892,27.2002904 18.502803,26.8280737 18.51,26.4352902 L18.51,21.0352902 C18.5136345,20.7303165 18.6313687,20.4377651 18.84,20.2152902 C19.4922791,19.475757 19.8484025,18.5213463 19.84,17.5352902 L19.84,13.4552902 C19.84,13.3152902 19.84,13.1352902 19.84,13.0052902 C19.7203583,10.9683287 20.3739068,8.96125611 21.67,7.38529017 C23.67,5.15529017 27.09,4.01529017 31.97,4.01529017 C34.703961,3.8984302 37.4262567,4.43671789 39.91,5.58529017 L40.25,5.76529017 C40.9998975,6.18945686 41.6754617,6.73328599 42.25,7.37529017 C43.5697556,8.96173138 44.2254186,10.9967946 44.08,13.0552902 C44.0716986,13.2018394 44.0716986,13.348741 44.08,13.4952902 L44.08,17.4952902 C44.0740634,18.4779077 44.4300274,19.4283315 45.08,20.1652902 C45.2886313,20.3877651 45.4063655,20.6803165 45.41,20.9852902 L45.41,26.4052902 C45.4090077,26.8982107 45.1138389,27.3429316 44.66,27.5352902 C43.6430579,27.9872379 42.8603625,28.8424051 42.5,29.8952902 C41.6753898,32.3371832 40.5033561,34.6475714 39.02,36.7552902 C38.74,37.1452902 38.46,37.5252902 38.2,37.8352902 C37.6058698,38.5522942 37.2805066,39.4541161 37.28,40.3852902 L37.28,45.0152902 C37.2676775,47.9473766 38.9238027,50.6313077 41.55,51.9352902 L54.54,58.5052902 C57.2696331,59.8521954 58.9984215,62.6314361 59,65.6752902 L59,67.0052902 Z" id="Path-Copy" stroke="#2D2391" stroke-width="6" fill="#2D2391"></path>
                        <path d="M79,67.0052902 L67,67.0052902 L67,65.6752902 C67.0157888,59.5857258 63.5734196,54.015135 58.12,51.3052902 L45.33,44.9052902 L45.33,41.8052902 L45.6,41.4352902 C47.2348111,39.1152891 48.5782196,36.6031152 49.6,33.9552902 C52.0179913,32.2215767 53.4544188,29.4305906 53.46,26.4552902 L53.46,21.0352902 C53.457941,19.3404951 52.9872627,17.6792775 52.1,16.2352902 L52.1,13.6852902 C52.3345316,10.3289978 51.5240864,6.98241827 49.78,4.10529017 C50.48,4.04529017 51.22,4.01529017 51.99,4.01529017 C56.86,4.01529017 60.33,5.14529017 62.29,7.38529017 C63.6097556,8.97173138 64.2654186,11.0067946 64.12,13.0652902 C64.1116986,13.2118394 64.1116986,13.358741 64.12,13.5052902 L64.12,17.5052902 C64.1140634,18.4879077 64.4700274,19.4383315 65.12,20.1752902 C65.3286313,20.3977651 65.4463655,20.6903165 65.45,20.9952902 L65.45,26.4152902 C65.4490077,26.9082107 65.1538389,27.3529316 64.7,27.5452902 C63.6830579,27.9972379 62.9003625,28.8524051 62.54,29.9052902 C61.7153898,32.3471832 60.5433561,34.6575714 59.06,36.7652902 C58.78,37.1552902 58.5,37.5352902 58.24,37.8452902 C57.6458698,38.5622942 57.3205066,39.4641161 57.32,40.3952902 L57.32,45.0252902 C57.3076775,47.9573766 58.9638027,50.6413077 61.59,51.9452902 L74.54,58.5052902 C77.2696331,59.8521954 78.9984215,62.6314361 79,65.6752902 L79,67.0052902 Z" id="Path" fill="#6C65B2"></path>
                        <path d="M29.4921298,64.1919324 L29,66.3159301 L35.5,66.3159301 L35.0078702,64.1919324 C34.7105281,62.9086247 33.5673045,62 32.25,62 L32.25,62 C30.9326955,62 29.7894719,62.9086247 29.4921298,64.1919324 Z" id="Path-6" fill="#D8D8D8"></path>
                        <polygon id="Path-7" fill="#F3F8FA" opacity="0.200000003" points="30.4 66 29 70 36 70 34.6 66"></polygon>
                        <polygon id="Path-5" fill="#6C65B2" points="22 45 32 61 40 44 43.5 49.2877016 43.5 65.2068971 32 62.5 22 64.5 19.5 48.4368722"></polygon>
                        <path d="M39.5,10.5 L43,13.74625 L43.5,23.0241917 L47,17.1637968 C48.3333333,11.105883 48,7.4693397 46,6.2541668 C44,5.03899391 41.8333333,6.45427165 39.5,10.5 Z" id="Path-3" fill="#585199"></path>
                        <path d="M19,21.2877016 C19.3333333,15.6476296 20.6666667,12.2729947 23,11.1637968 C26.5,9.5 35.5,12.8275936 39.5,11.1637968 C42.1666667,10.0545989 44.3333333,8.4180556 46,6.2541668 C43,0.463783956 36.6666667,-1.28760498 27,1 C17.3333333,3.28760498 14.6666667,10.0501722 19,21.2877016 Z" id="Path-2" fill="#6C65B2"></path>
                        <path d="M27,35 C29,35.5955162 30.5,35.8932743 31.5,35.8932743 C32.5,35.8932743 34,35.5955162 36,35 L36,36 C34,36.5243657 32.5,36.7865485 31.5,36.7865485 C30.5,36.7865485 29,36.5243657 27,36 L27,35 Z" id="Rectangle" fill="#6C65B2"></path>
                    </g>
                </g>
            </g>
        </g>
    </g>
</svg>