<?xml version="1.0" encoding="UTF-8"?>
<svg width="1049px" height="615px" viewBox="0 0 1049 615" version="1.1" xmlns="http://www.w3.org/2000/svg" xmlns:xlink="http://www.w3.org/1999/xlink">
    <!-- Generator: Sketch 48.2 (47327) - http://www.bohemiancoding.com/sketch -->
    <title>Satelite illustration</title>
    <desc>Created with Sketch.</desc>
    <defs>
        <polygon id="path-1" points="0 0.198 1064 0.198 1064 341.159 0 341.159"></polygon>
        <polygon id="path-3" points="0 0.1746 1057.865 0.1746 1057.865 353.159 0 353.159"></polygon>
        <polygon id="path-5" points="0.7019 0.792698472 242.011 0.792698472 242.011 252.3736 0.7019 252.3736"></polygon>
        <polygon id="path-7" points="0.4458 0.5207 184.011 0.5207 184.011 247.3737 0.4458 247.3737"></polygon>
    </defs>
    <g id="DG_About_v2" stroke="none" stroke-width="1" fill="none" fill-rule="evenodd" transform="translate(0.000000, -2011.000000)">
        <g id="About-Dataguru_dark" transform="translate(-1.000000, 361.000000)">
            <g id="Satelite-illustration" transform="translate(0.000000, 1650.000000)">
                <g id="smoke" transform="translate(0.000000, 261.000000)">
                    <g id="Group-3" transform="translate(0.000000, 12.091000)">
                        <mask id="mask-2" fill="white">
                            <use xlink:href="#path-1"></use>
                        </mask>
                        <g id="Clip-2"></g>
                        <path d="M954.2575,268.148 C952.2365,234.814 924.5745,208.402 890.7335,208.402 C861.4295,208.402 836.7675,228.21 829.3625,255.161 C818.6845,247.065 805.3785,242.254 790.9455,242.254 C773.7875,242.254 758.2285,249.054 746.7805,260.09 C735.1095,246.616 717.8875,238.081 698.6615,238.081 C692.0985,238.081 685.7685,239.076 679.8105,240.92 C669.6585,219.247 647.6615,204.228 622.1465,204.228 C593.8955,204.228 569.9575,222.638 561.6375,248.111 C550.6885,239.209 536.7285,233.866 521.5165,233.866 C518.1115,233.866 514.7715,234.139 511.5115,234.654 C505.6005,206.015 480.4485,184.424 450.1695,183.959 C453.4755,177.726 455.3265,170.835 455.3265,163.576 C455.3265,144.628 442.8005,128.135 424.3055,119.557 C442.8005,108.702 455.3265,87.831 455.3265,63.853 C455.3265,28.698 428.4105,0.198 395.2075,0.198 C362.0045,0.198 335.0875,28.698 335.0875,63.853 C335.0875,87.831 347.6135,108.702 366.1095,119.557 C347.6135,128.135 335.0875,144.628 335.0875,163.576 C335.0875,191.351 361.9915,213.869 395.1845,213.878 C389.0675,223.656 385.5195,235.205 385.5195,247.588 C385.5195,282.745 414.0185,311.244 449.1745,311.244 C452.5785,311.244 455.9185,310.969 459.1785,310.455 C465.1555,339.409 490.7925,361.175 521.5165,361.175 C549.7675,361.175 573.7055,342.765 582.0245,317.293 C592.9745,326.195 606.9345,331.539 622.1465,331.539 C628.7095,331.539 635.0405,330.544 640.9975,328.699 C651.1495,350.373 673.1465,365.391 698.6615,365.391 C715.8185,365.391 731.3785,358.591 742.8255,347.555 C754.4975,361.029 771.7185,369.565 790.9455,369.565 C820.2485,369.565 844.9105,349.757 852.3155,322.805 C861.5805,329.831 872.8275,334.368 885.0705,335.448 C887.0925,368.782 914.7535,395.194 948.5955,395.194 C983.7505,395.194 1012.2505,366.694 1012.2505,331.539 C1012.2505,298.293 986.7585,271.015 954.2575,268.148" id="Fill-1" fill="#CAE3FF" mask="url(#mask-2)"></path>
                    </g>
                    <polygon id="Fill-4" fill="#DFEEFF" points="387.34 177.7615 621.314 16.6455 642.633 34.4735 652.274 26.2105 673.669 43.1025 664.942 55.0175 681.494 70.2605 568.894 309.5975 513.59 322.7285 414.713 307.9215 379.537 260.4385 372.257 207.3675"></polygon>
                    <g id="Group-8" transform="translate(1.000000, 0.091000)">
                        <mask id="mask-4" fill="white">
                            <use xlink:href="#path-3"></use>
                        </mask>
                        <g id="Clip-7"></g>
                        <path d="M993.8737,322.9556 C991.4387,282.8016 958.1177,250.9836 917.3507,250.9836 C882.0507,250.9836 852.3407,274.8446 843.4207,307.3116 C830.5587,297.5596 814.5287,291.7636 797.1417,291.7636 C776.4747,291.7636 757.7297,299.9546 743.9397,313.2496 C729.8797,297.0186 709.1347,286.7356 685.9747,286.7356 C678.0677,286.7356 670.4417,287.9346 663.2657,290.1566 C651.0367,264.0476 624.5377,245.9556 593.8007,245.9556 C559.7687,245.9556 530.9327,268.1346 520.9107,298.8186 C507.7197,288.0956 490.9037,281.6576 472.5787,281.6576 C468.4777,281.6576 464.4537,281.9876 460.5267,282.6076 C453.4057,248.1086 423.1057,222.0996 386.6307,221.5386 C390.6137,214.0306 392.8437,205.7276 392.8437,196.9846 C392.8437,174.1596 377.7547,154.2916 355.4747,143.9576 C377.7547,130.8816 392.8437,105.7386 392.8437,76.8546 C392.8437,34.5056 360.4197,0.1746 320.4217,0.1746 C280.4247,0.1746 247.9997,34.5056 247.9997,76.8546 C247.9997,105.7386 263.0887,130.8816 285.3697,143.9576 C263.0887,154.2916 247.9997,174.1596 247.9997,196.9846 C247.9997,230.4446 280.4097,257.5686 320.3947,257.5816 C313.0257,269.3586 308.7507,283.2716 308.7507,298.1886 C308.7507,340.5396 343.0827,374.8706 385.4327,374.8706 C389.5337,374.8706 393.5577,374.5406 397.4847,373.9206 C404.6837,408.7986 435.5677,435.0206 472.5787,435.0206 C506.6107,435.0206 535.4477,412.8436 545.4687,382.1576 C558.6597,392.8816 575.4757,399.3186 593.8007,399.3186 C601.7067,399.3186 609.3327,398.1196 616.5097,395.8976 C628.7387,422.0066 655.2377,440.0986 685.9747,440.0986 C706.6427,440.0986 725.3857,431.9066 739.1757,418.6126 C753.2357,434.8446 773.9807,445.1266 797.1417,445.1266 C832.4407,445.1266 862.1507,421.2656 871.0707,388.7986 C882.2317,397.2606 895.7807,402.7266 910.5297,404.0276 C912.9647,444.1826 946.2857,475.9996 987.0537,475.9996 C1029.4027,475.9996 1063.7337,441.6686 1063.7337,399.3186 C1063.7337,359.2686 1033.0257,326.4096 993.8737,322.9556" id="Fill-6" fill="#FFFFFF" mask="url(#mask-4)"></path>
                        <circle id="Oval" fill="#FFFFFF" mask="url(#mask-4)" cx="192" cy="177" r="125"></circle>
                        <circle id="Oval-Copy-3" fill="#FFFFFF" mask="url(#mask-4)" cx="123" cy="331" r="125"></circle>
                        <circle id="Oval-Copy" fill="#FFFFFF" mask="url(#mask-4)" cx="273" cy="372" r="125"></circle>
                        <circle id="Oval-Copy-2" fill="#FFFFFF" mask="url(#mask-4)" cx="464" cy="456" r="125"></circle>
                    </g>
                    <polygon id="Fill-9" fill="#FFFFFF" points="652.2736 26.2107 417.0626 227.8127 420.2986 252.0587 440.9686 245.9137 659.8246 32.9217"></polygon>
                    <polygon id="Fill-11" fill="#FFFFFF" points="666.1179 36.3923 470.0169 290.0453 480.0729 302.3343 504.0939 297.3073 673.6689 43.1023"></polygon>
                </g>
                <g id="satelite" transform="translate(549.000000, 0.000000)">
                    <path d="M0.6232,246.9839 C-2.0408,222.5899 3.7912,215.2059 18.9882,205.6569 L40.3012,225.2829 C32.0332,241.2129 25.1542,247.6329 0.6232,246.9839" id="Fill-15" fill="#FEC505"></path>
                    <path d="M9.9177,236.8911 C8.6467,220.8711 12.6157,215.8931 22.7657,209.3051 L36.3547,221.8181 C30.6237,232.4761 25.9877,236.8411 9.9177,236.8911" id="Fill-17" fill="#FFE4A7"></path>
                    <path d="M18.3654,227.7182 C17.6414,218.5872 19.9034,215.7502 25.6874,211.9952 L33.4324,219.1272 C30.1664,225.2012 27.5244,227.6882 18.3654,227.7182" id="Fill-19" fill="#FDF1D3"></path>
                    <path d="M168.6496,401.7163 C165.9846,377.3213 171.8186,369.9383 187.0146,360.3893 L208.3266,380.0153 C200.0596,395.9453 193.1806,402.3653 168.6496,401.7163" id="Fill-21" fill="#FEC505"></path>
                    <path d="M177.944,391.6235 C176.673,375.6035 180.642,370.6245 190.792,364.0365 L204.381,376.5505 C198.65,387.2075 194.014,391.5725 177.944,391.6235" id="Fill-23" fill="#FFE4A7"></path>
                    <path d="M186.3918,382.4497 C185.6678,373.3197 187.9298,370.4817 193.7138,366.7277 L201.4588,373.8597 C198.1928,379.9327 195.5508,382.4207 186.3918,382.4497" id="Fill-25" fill="#FDF1D3"></path>
                    <path d="M53.0959,359.9331 C45.9499,294.5041 61.5949,274.7001 102.3539,249.0881 L159.5149,301.7261 C137.3419,344.4541 118.8909,361.6751 53.0959,359.9331" id="Fill-27" fill="#FEC505"></path>
                    <path d="M78.0241,332.8638 C74.6171,289.8958 85.2611,276.5428 112.4841,258.8728 L148.9311,292.4348 C133.5601,321.0188 121.1271,332.7258 78.0241,332.8638" id="Fill-29" fill="#FFE4A7"></path>
                    <path d="M100.6823,308.2583 C98.7413,283.7713 104.8073,276.1603 120.3223,266.0903 L141.0933,285.2183 C132.3333,301.5083 125.2473,308.1803 100.6823,308.2583" id="Fill-31" fill="#FDF1D3"></path>
                    <polygon id="Fill-33" fill="#004C9F" points="60.4758 181.9892 195.5998 203.8542 228.5028 336.7222 202.0188 365.4822 152.9688 250.1482 33.9918 210.7482"></polygon>
                    <g id="Group-37" transform="translate(102.000000, 46.761000)">
                        <mask id="mask-6" fill="white">
                            <use xlink:href="#path-5"></use>
                        </mask>
                        <g id="Clip-36"></g>
                        <path d="M0.7019,189.9006 C0.9559,144.1916 17.5829,98.4306 50.9869,62.1566 C98.8349,10.1976 168.9099,-9.0664 233.1839,5.5166 C253.0019,68.3726 239.5659,139.7946 191.7179,191.7536 C158.3149,228.0276 114.0769,248.3616 68.5429,252.3736 C56.2309,243.4056 44.2889,233.6686 32.8139,223.1006 C21.3389,212.5336 10.6529,201.4326 0.7019,189.9006" id="Fill-35" fill="#0164CF" mask="url(#mask-6)"></path>
                    </g>
                    <g id="Group-40" transform="translate(160.000000, 51.761000)">
                        <mask id="mask-8" fill="white">
                            <use xlink:href="#path-7"></use>
                        </mask>
                        <g id="Clip-39"></g>
                        <path d="M175.1848,0.5207 C195.0008,63.3747 181.5648,134.7957 133.7178,186.7527 C100.3148,223.0277 56.0768,243.3617 10.5428,247.3737 C7.1478,244.9007 3.7828,242.3707 0.4458,239.7797 C93.8428,237.0377 197.6078,81.4117 175.1848,0.5207" id="Fill-38" fill="#004FA4" mask="url(#mask-8)"></path>
                    </g>
                    <path d="M111.6252,252.2456 C96.9262,146.8976 248.5422,26.5216 335.1842,52.2776 C242.4582,52.1786 116.8482,155.3026 116.5832,258.6936 L111.6252,252.2456 Z" id="Fill-41" fill="#004C9F"></path>
                    <path d="M288.3351,103.1504 C306.3011,119.6944 323.2481,136.3964 339.0371,153.0004 C331.8301,183.9334 316.7691,213.4834 293.7181,238.5144 C271.3631,262.7894 244.1551,279.9254 214.9551,289.8084 C196.7531,275.1914 178.3451,259.3754 160.0161,242.4954 C141.6851,225.6154 124.4081,208.5704 108.3441,191.6324 C115.7921,161.7184 130.6321,133.1924 152.9871,108.9184 C176.0381,83.8854 204.2491,66.4464 234.4841,56.7194 C252.3301,71.0904 270.3701,86.6064 288.3351,103.1504" id="Fill-43" fill="#DFEEFF"></path>
                    <g id="Hand-1-Copy" transform="translate(171.168288, 63.224904) scale(1, -1) rotate(-54.000000) translate(-171.168288, -63.224904) translate(142.668288, 39.224904)">
                        <path d="M47.5354,39.755 L46.9214,39.535 C44.4524,38.648 42.2304,37.763 39.8384,36.858 L41.9214,31.347 C43.8944,32.092 45.5324,32.5 47.4364,33.368 L47.6774,33.417 C48.1104,32.776 49.3174,32.538 49.9804,32.549 L55.7604,32.598 C57.1114,32.62 57.0934,34.69 55.7004,34.667 L51.5570124,34.8516146 C52.0688877,40.6600553 52.3627803,41.0645638 52.2521644,41.7629649 L47.5354,39.755 Z" id="Fill-121" fill="#DAA667"></path>
                        <path d="M47.1385,39.4479 L46.5235,39.2269 C44.0565,38.3409 41.8335,37.4549 39.4415,36.5499 L41.5245,31.0389 C43.4965,31.7839 45.1355,32.1919 47.0395,33.0609 L47.2805,33.1089 C47.7135,32.4669 48.9205,32.2299 49.5845,32.2409 L55.3635,32.2899 C56.7145,32.3119 56.6975,34.3819 55.3035,34.3589 L51.2631198,34.4471061 L51.9582718,41.3584564 L47.1385,39.4479 Z" id="Fill-123" fill="#FACC93"></path>
                        <path d="M27.2609,29.438 L23.5029,29.753 L10.7469,15.425 C9.6379,14.18 8.6609,13.074 7.9029,11.993 C9.8369,13.687 26.4229,29.527 27.2609,29.438" id="Path" fill="#1E2533"></path>
                        <path d="M26.5158,20.5981 L47.8718,32.1411 L44.7418,39.3981 L27.6888,32.6351 C11.5138,26.2181 21.3888,17.8271 26.5158,20.5981" id="Fill-131" fill="#1E2533" transform="translate(33.339866, 29.725953) scale(1, -1) rotate(-53.000000) translate(-33.339866, -29.725953) "></path>
                        <path d="M10.757,1.8086 L29.307,23.3736 L23.075,30.3236 L7.158,16.4216 C-7.34,3.7586 6.551,-3.0784 10.757,1.8086" id="Fill-133" fill="#191F2B"></path>
                    </g>
                    <path d="M116.6857,200.3247 C134.4267,143.8687 188.6737,90.6067 244.4797,64.8717 C247.8747,67.6767 251.2757,70.5217 254.6797,73.4067 C198.7787,101.0077 146.2517,152.5717 125.7067,209.5007 C122.6617,206.4407 119.6547,203.3827 116.6857,200.3247" id="Fill-45" fill="#FFFFFF"></path>
                    <path d="M325.1476,138.6743 C329.8706,143.4533 334.5016,148.2313 339.0376,153.0003 L339.0046,153.1343 C338.8776,153.6783 338.7486,154.2223 338.6166,154.7653 C338.4926,155.2753 338.3656,155.7843 338.2376,156.2933 C338.1166,156.7763 337.9936,157.2593 337.8676,157.7403 C337.7356,158.2503 337.5996,158.7583 337.4626,159.2683 C337.3336,159.7523 337.2006,160.2363 337.0656,160.7193 C336.9216,161.2383 336.7746,161.7573 336.6266,162.2773 C336.4926,162.7443 336.3556,163.2113 336.2176,163.6773 C336.0636,164.2023 335.9066,164.7263 335.7466,165.2513 C335.6046,165.7163 335.4606,166.1823 335.3146,166.6473 C335.1546,167.1603 334.9916,167.6733 334.8266,168.1853 C334.6626,168.6953 334.4956,169.2053 334.3256,169.7153 C334.1766,170.1643 334.0256,170.6133 333.8726,171.0623 C333.6836,171.6183 333.4926,172.1733 333.2976,172.7273 C333.1526,173.1413 333.0056,173.5533 332.8586,173.9663 C332.6346,174.5893 332.4096,175.2113 332.1786,175.8323 C332.0516,176.1763 331.9216,176.5203 331.7926,176.8633 C331.5536,177.4953 331.3136,178.1273 331.0676,178.7573 C330.9396,179.0863 330.8096,179.4143 330.6796,179.7423 C330.4276,180.3793 330.1716,181.0153 329.9136,181.6503 C329.7886,181.9583 329.6616,182.2653 329.5346,182.5703 C329.2646,183.2193 328.9936,183.8653 328.7166,184.5113 C328.5886,184.8113 328.4586,185.1123 328.3286,185.4113 C328.0436,186.0663 327.7566,186.7183 327.4646,187.3693 L327.0846,188.2153 C326.7786,188.8913 326.4666,189.5653 326.1526,190.2393 C326.0296,190.5003 325.9086,190.7613 325.7846,191.0223 C325.4596,191.7063 325.1306,192.3893 324.7976,193.0713 C324.6786,193.3163 324.5586,193.5613 324.4386,193.8073 C324.0926,194.5073 323.7416,195.2063 323.3856,195.9033 C323.2726,196.1243 323.1616,196.3473 323.0466,196.5683 C322.6726,197.2973 322.2916,198.0243 321.9066,198.7483 L321.6076,199.3143 C321.2016,200.0723 320.7896,200.8273 320.3726,201.5823 L320.0516,202.1603 C319.6226,202.9293 319.1896,203.6963 318.7496,204.4603 L318.4876,204.9123 C318.0226,205.7143 317.5526,206.5123 317.0766,207.3073 L316.8556,207.6723 C316.3896,208.4463 315.9186,209.2183 315.4396,209.9873 L315.1576,210.4373 C314.6876,211.1883 314.2126,211.9373 313.7306,212.6833 L313.4636,213.0923 C312.9776,213.8413 312.4866,214.5863 311.9896,215.3303 L311.6826,215.7853 C311.1896,216.5163 310.6916,217.2453 310.1866,217.9723 L309.8846,218.4053 C309.3736,219.1393 308.8546,219.8693 308.3326,220.5963 L308.0286,221.0163 C307.4976,221.7513 306.9606,222.4823 306.4166,223.2113 L306.1366,223.5843 C305.5846,224.3223 305.0236,225.0583 304.4596,225.7893 L304.1776,226.1523 C303.5986,226.9003 303.0106,227.6433 302.4186,228.3853 L302.1956,228.6623 C301.5896,229.4173 300.9766,230.1673 300.3576,230.9133 L300.1356,231.1813 C299.5026,231.9433 298.8626,232.6993 298.2156,233.4533 L298.0446,233.6533 C297.3726,234.4363 296.6906,235.2153 296.0016,235.9893 L295.9086,236.0953 C295.1866,236.9063 294.4566,237.7133 293.7176,238.5143 C293.2556,239.0173 292.7906,239.5163 292.3236,240.0123 L291.9566,240.4013 C291.5136,240.8673 291.0716,241.3333 290.6256,241.7943 L290.5546,241.8683 L290.5436,241.8813 L290.5316,241.8923 C290.0576,242.3833 289.5816,242.8693 289.1026,243.3543 L288.7876,243.6733 C288.3186,244.1473 287.8496,244.6163 287.3766,245.0823 L287.3306,245.1283 L287.3046,245.1533 C286.8276,245.6243 286.3476,246.0923 285.8666,246.5573 L285.5016,246.9073 C285.0576,247.3353 284.6116,247.7603 284.1646,248.1823 L284.0176,248.3213 C283.5286,248.7813 283.0366,249.2383 282.5436,249.6933 L282.1956,250.0133 C281.7376,250.4333 281.2786,250.8513 280.8176,251.2653 L280.6726,251.3963 C280.1856,251.8323 279.6966,252.2653 279.2056,252.6963 L278.7896,253.0623 C278.3406,253.4533 277.8906,253.8443 277.4396,254.2313 L277.2676,254.3783 C276.7696,254.8043 276.2696,255.2263 275.7686,255.6463 L275.3706,255.9793 C274.9166,256.3573 274.4606,256.7333 274.0046,257.1053 L273.8036,257.2713 C273.3026,257.6793 272.8006,258.0823 272.2966,258.4853 L271.8646,258.8293 C271.4466,259.1603 271.0266,259.4903 270.6056,259.8193 L270.2566,260.0923 C269.7716,260.4683 269.2836,260.8423 268.7946,261.2143 L268.2766,261.6073 C267.8786,261.9063 267.4806,262.2043 267.0826,262.5003 L266.6936,262.7903 C266.1956,263.1583 265.6956,263.5233 265.1956,263.8863 L264.6986,264.2423 C264.2956,264.5323 263.8926,264.8203 263.4896,265.1053 L263.0766,265.3983 C262.5846,265.7443 262.0906,266.0863 261.5966,266.4263 L261.0406,266.8083 C260.6386,267.0823 260.2376,267.3553 259.8346,267.6253 L259.4146,267.9083 C258.9146,268.2413 258.4146,268.5723 257.9136,268.9023 L257.3266,269.2833 C256.9576,269.5233 256.5876,269.7603 256.2186,269.9963 L255.6796,270.3423 C255.1886,270.6533 254.6976,270.9623 254.2046,271.2683 L253.5756,271.6573 C253.2066,271.8853 252.8356,272.1113 252.4646,272.3363 L251.9356,272.6583 C251.4396,272.9573 250.9416,273.2533 250.4436,273.5473 L249.7706,273.9423 C249.4396,274.1353 249.1096,274.3273 248.7766,274.5183 C248.5516,274.6483 248.3286,274.7783 248.1036,274.9063 C247.6216,275.1823 247.1366,275.4533 246.6536,275.7263 C246.4166,275.8583 246.1786,275.9883 245.9416,276.1213 C245.6106,276.3043 245.2796,276.4863 244.9476,276.6673 C244.7206,276.7913 244.4936,276.9163 244.2646,277.0403 C243.7806,277.3013 243.2946,277.5603 242.8086,277.8173 L242.0466,278.2183 L241.1656,278.6763 C240.8416,278.8433 240.5176,279.0113 240.1916,279.1773 C239.7796,279.3873 239.3666,279.5953 238.9536,279.8023 C238.6796,279.9393 238.4046,280.0743 238.1296,280.2103 C237.8356,280.3563 237.5426,280.4993 237.2476,280.6443 C236.9796,280.7743 236.7106,280.9053 236.4436,281.0343 C235.9736,281.2603 235.5056,281.4843 235.0356,281.7053 C234.7526,281.8383 234.4686,281.9713 234.1856,282.1033 C233.8926,282.2403 233.5976,282.3753 233.3036,282.5113 C233.0326,282.6353 232.7616,282.7613 232.4906,282.8833 C232.0216,283.0963 231.5526,283.3073 231.0826,283.5153 C230.7706,283.6533 230.4586,283.7903 230.1456,283.9273 L229.4336,284.2363 C229.0456,284.4043 228.6596,284.5703 228.2696,284.7363 C227.8826,284.9003 227.4956,285.0643 227.1066,285.2263 C226.7916,285.3573 226.4756,285.4863 226.1606,285.6153 L225.4016,285.9263 C225.0436,286.0703 224.6836,286.2163 224.3246,286.3593 C223.9066,286.5263 223.4886,286.6913 223.0686,286.8543 C222.7526,286.9783 222.4336,287.1003 222.1156,287.2223 L221.3846,287.5013 C221.0576,287.6243 220.7326,287.7483 220.4056,287.8703 C219.9546,288.0393 219.5016,288.2053 219.0476,288.3703 L219.0416,288.3723 C218.6986,288.4973 218.3566,288.6193 218.0126,288.7423 L217.3496,288.9783 C217.0076,289.1003 216.6656,289.2203 216.3226,289.3393 C215.8676,289.4973 215.4116,289.6533 214.9556,289.8083 C211.1186,286.7273 207.2736,283.5933 203.4216,280.4063 C254.6736,256.2093 302.7756,196.4313 325.1476,138.6743" id="Fill-47" fill="#CAE3FF"></path>
                    <path d="M271.5734,121.3525 C297.4234,145.1565 299.0814,185.4085 275.2764,211.2585 C251.4724,237.1075 211.2204,238.7655 185.3704,214.9625 C159.5214,191.1575 157.8634,150.9045 181.6674,125.0555 C205.4714,99.2065 245.7234,97.5485 271.5734,121.3525" id="Fill-49" fill="#0164CF"></path>
                    <path d="M273.0422,122.7529 C297.4752,146.7089 298.6212,185.9079 275.2762,211.2579 C251.9322,236.6079 212.7722,238.6889 186.8872,216.3099 C162.4552,192.3529 161.3082,153.1539 184.6522,127.8039 C207.9972,102.4539 247.1572,100.3729 273.0422,122.7529" id="Fill-51" fill="#004C9F"></path>
                    <path d="M262.718,130.9692 C283.256,149.8822 284.572,181.8632 265.659,202.4032 C246.746,222.9402 214.765,224.2572 194.227,205.3442 C173.689,186.4312 172.371,154.4492 191.284,133.9112 C210.198,113.3732 242.18,112.0562 262.718,130.9692" id="Fill-53" fill="#CAE3FF"></path>
                    <path d="M232.9797,117.8056 L237.1057,217.9676 C232.7687,218.7156 228.3477,218.8956 223.9647,218.5086 L219.8387,118.3476 C224.1757,117.5986 228.5957,117.4166 232.9797,117.8056" id="Fill-55" fill="#B0D6FF"></path>
                    <path d="M249.1838,122.0283 L252.9068,212.4263 C250.8588,213.5583 248.7468,214.5333 246.5868,215.3613 L242.6438,119.6223 C244.8638,120.2693 247.0488,121.0693 249.1838,122.0283" id="Fill-57" fill="#B0D6FF"></path>
                    <path d="M210.3576,120.9521 L214.3006,216.6911 C212.0816,216.0451 209.8956,215.2441 207.7606,214.2861 L204.0376,123.8871 C206.0866,122.7571 208.1986,121.7781 210.3576,120.9521" id="Fill-59" fill="#B0D6FF"></path>
                    <path d="M186.6564,360.6323 C186.7364,346.1743 191.9954,331.6983 202.5614,320.2253 C217.6964,303.7903 239.8614,297.6963 260.1914,302.3103 C266.4604,322.1923 262.2114,344.7823 247.0754,361.2183 C236.5104,372.6923 222.5164,379.1243 208.1144,380.3933 C204.2204,377.5573 200.4424,374.4763 196.8134,371.1333 C193.1844,367.7903 189.8034,364.2803 186.6564,360.6323" id="Fill-61" fill="#0164CF"></path>
                    <path d="M208.1203,380.3921 L208.1143,380.3931 L208.0643,380.3561 L208.0143,380.3201 L207.9643,380.2831 L207.9323,380.2591 L207.9143,380.2461 L207.8643,380.2091 L207.8143,380.1731 L207.7643,380.1371 L207.7493,380.1261 L207.7143,380.0991 L207.6643,380.0631 L207.6133,380.0261 L207.5683,379.9921 L207.5643,379.9901 L207.5143,379.9531 L207.4643,379.9151 L207.4143,379.8791 L207.3863,379.8581 L207.3643,379.8421 L207.3143,379.8051 L207.2653,379.7681 L207.2153,379.7321 L207.2033,379.7231 L207.1643,379.6941 L207.1153,379.6581 L207.0643,379.6201 L207.0223,379.5881 L207.0153,379.5821 L206.9663,379.5461 L206.9153,379.5091 L206.8663,379.4711 L206.8413,379.4541 L206.8163,379.4341 L206.7663,379.3971 L206.7163,379.3601 L206.6673,379.3231 L206.6593,379.3181 L206.6173,379.2851 L206.5673,379.2471 L206.5173,379.2101 L206.4783,379.1811 L206.4683,379.1731 L206.4183,379.1351 L206.3683,379.0991 L206.3193,379.0611 L206.2203,378.9861 L206.1703,378.9491 L206.1203,378.9111 L206.1173,378.9081 L206.0713,378.8721 L206.0213,378.8351 L205.9723,378.7981 L205.9223,378.7601 L205.8733,378.7221 L205.7743,378.6471 L205.7563,378.6341 L205.1313,378.1541 L205.0823,378.1161 L204.9333,378.0001 C234.3503,377.1371 267.2553,327.7871 260.1913,302.3101 C266.4603,322.1921 262.2113,344.7831 247.0753,361.2181 C236.5123,372.6911 222.5193,379.1221 208.1203,380.3921" id="Fill-63" fill="#004FA4"></path>
                    <path d="M190.1013,363.9722 C188.0593,334.1792 233.3063,297.2122 260.1913,302.3102 C233.7233,304.1132 196.0083,335.8282 192.0683,366.0712 C191.4033,365.3762 190.7473,364.6772 190.1013,363.9722" id="Fill-65" fill="#004C9F"></path>
                    <path d="M245.3742,318.4018 C251.1432,323.7138 256.4782,329.1348 261.3212,334.5418 C259.0092,344.1908 254.2742,353.4018 247.0752,361.2178 C239.4852,369.4608 230.1272,375.1008 220.1172,378.0948 C214.5422,373.8398 208.9202,369.1318 203.3662,364.0178 C197.8122,358.9028 192.6582,353.6868 187.9592,348.4808 C190.1192,338.2588 194.9712,328.4678 202.5612,320.2248 C209.7612,312.4088 218.5492,306.9328 227.9752,303.8348 C233.7632,308.2168 239.6042,313.0888 245.3742,318.4018" id="Fill-67" fill="#DFEEFF"></path>
                    <path d="M18.6286,205.8999 C18.7096,191.4409 23.9686,176.9669 34.5346,165.4929 C49.6696,149.0579 71.8356,142.9649 92.1656,147.5769 C98.4336,167.4589 94.1836,190.0509 79.0486,206.4859 C68.4826,217.9599 54.4906,224.3909 40.0876,225.6609 C36.1926,222.8229 32.4166,219.7439 28.7866,216.4009 C25.1566,213.0579 21.7766,209.5469 18.6286,205.8999" id="Fill-69" fill="#0164CF"></path>
                    <path d="M40.093,225.6606 L40.088,225.6606 L40.038,225.6236 L39.988,225.5876 L39.938,225.5506 L39.906,225.5266 L39.887,225.5146 L39.838,225.4776 L39.788,225.4406 L39.738,225.4046 L39.723,225.3936 L39.688,225.3676 L39.637,225.3316 L39.588,225.2946 L39.541,225.2606 L39.537,225.2576 L39.488,225.2206 L39.438,225.1836 L39.388,225.1466 L39.36,225.1266 L39.338,225.1096 L39.288,225.0726 L39.238,225.0356 L39.188,224.9986 L39.177,224.9906 L39.138,224.9616 L39.088,224.9256 L39.039,224.8886 L38.996,224.8556 L38.988,224.8506 L38.939,224.8136 L38.889,224.7756 L38.84,224.7396 L38.815,224.7216 L38.79,224.7026 L38.74,224.6646 L38.69,224.6276 L38.641,224.5906 L38.634,224.5856 L38.591,224.5536 L38.541,224.5156 L38.491,224.4776 L38.452,224.4496 L38.442,224.4416 L38.391,224.4036 L38.342,224.3656 L38.292,224.3286 L38.193,224.2536 L38.144,224.2166 L38.094,224.1796 L38.091,224.1766 L38.045,224.1406 L37.995,224.1026 L37.946,224.0656 L37.896,224.0276 L37.846,223.9906 L37.747,223.9156 L37.729,223.9006 L37.105,223.4216 L37.056,223.3836 L36.908,223.2676 C66.324,222.4046 99.228,173.0556 92.165,147.5776 C98.434,167.4596 94.184,190.0506 79.05,206.4856 C68.485,217.9586 54.494,224.3896 40.093,225.6606" id="Fill-71" fill="#004FA4"></path>
                    <path d="M22.0749,209.2397 C20.0329,179.4477 65.2799,142.4807 92.1649,147.5767 C65.6959,149.3807 27.9819,181.0967 24.0419,211.3387 C23.3769,210.6447 22.7209,209.9447 22.0749,209.2397" id="Fill-73" fill="#004C9F"></path>
                    <path d="M77.3464,163.6689 C83.1164,168.9809 88.4504,174.4019 93.2954,179.8099 C90.9824,189.4589 86.2474,198.6689 79.0494,206.4859 C71.4584,214.7279 62.0994,220.3689 52.0914,223.3619 C46.5154,219.1079 40.8934,214.3999 35.3394,209.2849 C29.7854,204.1699 24.6314,198.9549 19.9314,193.7479 C22.0934,183.5269 26.9444,173.7359 34.5344,165.4929 C41.7334,157.6759 50.5234,152.1999 59.9484,149.1029 C65.7354,153.4849 71.5774,158.3569 77.3464,163.6689" id="Fill-75" fill="#DFEEFF"></path>
                    <path d="M88.8884,175.0312 C90.3984,176.6232 91.8684,178.2172 93.2954,179.8102 C92.6134,182.6562 91.7194,185.4652 90.6144,188.2112 L90.5834,188.2882 C90.4764,188.5522 90.3674,188.8142 90.2584,189.0762 L90.2174,189.1722 C90.1064,189.4352 89.9924,189.6982 89.8774,189.9612 L89.8464,190.0322 C89.7314,190.2912 89.6164,190.5492 89.4974,190.8062 L89.4304,190.9492 C89.3234,191.1832 89.2134,191.4182 89.1014,191.6512 L89.0064,191.8502 C88.8954,192.0792 88.7844,192.3082 88.6704,192.5352 L88.5644,192.7482 C88.4584,192.9582 88.3514,193.1672 88.2434,193.3762 C88.1614,193.5342 88.0794,193.6912 87.9964,193.8482 L87.7834,194.2472 L87.5264,194.7192 L87.3244,195.0822 C87.2314,195.2492 87.1364,195.4162 87.0404,195.5822 L86.8264,195.9552 C86.7324,196.1172 86.6374,196.2792 86.5414,196.4402 L86.2964,196.8502 C86.2004,197.0062 86.1054,197.1612 86.0094,197.3172 L85.7764,197.6912 C85.6754,197.8502 85.5734,198.0112 85.4714,198.1712 L85.2284,198.5462 C85.1244,198.7062 85.0174,198.8662 84.9114,199.0272 L84.6674,199.3912 C84.5374,199.5822 84.4084,199.7722 84.2774,199.9622 L84.1154,200.1942 C83.9774,200.3892 83.8404,200.5842 83.7014,200.7782 L83.5124,201.0372 C83.3754,201.2262 83.2374,201.4132 83.0984,201.6002 L82.9264,201.8302 C82.7774,202.0292 82.6274,202.2272 82.4754,202.4242 L82.3174,202.6272 C82.1634,202.8242 82.0084,203.0222 81.8524,203.2172 L81.6784,203.4342 C81.5164,203.6342 81.3534,203.8332 81.1894,204.0322 L81.0444,204.2072 C80.8834,204.4032 80.7194,204.5952 80.5544,204.7882 L80.3604,205.0142 C80.1924,205.2082 80.0214,205.4032 79.8514,205.5962 L79.6894,205.7792 C79.5054,205.9862 79.3184,206.1912 79.1304,206.3962 L79.0494,206.4862 L78.7924,206.7612 L78.6704,206.8922 L78.3894,207.1902 L78.2424,207.3432 L77.9704,207.6262 C77.8494,207.7512 77.7274,207.8762 77.6054,208.0002 L77.5984,208.0072 L77.3444,208.2632 L77.1854,208.4212 L76.8964,208.7072 L76.7504,208.8502 C76.5974,208.9982 76.4444,209.1472 76.2904,209.2942 L76.0974,209.4762 L75.8064,209.7502 L75.6694,209.8782 L75.3694,210.1552 L75.3664,210.1582 L74.9844,210.5052 L74.7434,210.7202 L74.5354,210.9032 L74.2594,211.1472 L74.1094,211.2772 C73.9174,211.4422 73.7264,211.6062 73.5334,211.7682 L73.4194,211.8642 L73.1404,212.0972 L72.9324,212.2692 L72.6784,212.4772 L72.4714,212.6432 C72.3084,212.7752 72.1444,212.9052 71.9814,213.0342 L71.7944,213.1822 L71.4964,213.4112 L71.3394,213.5322 L71.0454,213.7572 L70.6394,214.0622 L70.6374,214.0642 L70.3004,214.3112 L70.1724,214.4062 L69.8354,214.6492 L69.8234,214.6582 L69.4104,214.9502 L69.1844,215.1102 L68.9434,215.2782 L68.6584,215.4732 L68.4564,215.6092 L68.1644,215.8062 L67.7454,216.0832 L67.4404,216.2812 L67.2304,216.4162 L66.9364,216.6042 L66.7584,216.7162 C66.5514,216.8452 66.3454,216.9742 66.1374,217.1012 L66.0294,217.1672 L65.7004,217.3652 L65.5104,217.4782 L65.1924,217.6662 L64.7604,217.9172 L64.4254,218.1082 L64.2644,218.1982 L63.9064,218.3982 L63.8464,218.4312 C63.6044,218.5652 63.3614,218.6972 63.1174,218.8262 L62.9914,218.8942 L62.6574,219.0702 L62.4804,219.1612 C62.1124,219.3522 61.7424,219.5382 61.3714,219.7222 L61.1694,219.8202 L60.8644,219.9682 L60.6544,220.0682 C60.4174,220.1812 60.1794,220.2922 59.9404,220.4022 L59.9044,220.4182 L59.5084,220.5982 L59.4044,220.6452 C58.9894,220.8302 58.5724,221.0122 58.1544,221.1882 L58.0754,221.2212 L57.6954,221.3782 L57.5074,221.4552 L57.1884,221.5842 L56.7304,221.7652 L56.7124,221.7722 L56.3884,221.8982 L56.1654,221.9832 L55.8394,222.1052 L55.6644,222.1692 C55.4414,222.2522 55.2174,222.3332 54.9924,222.4132 L54.8504,222.4632 L54.4704,222.5962 L54.3384,222.6412 C53.9324,222.7802 53.5254,222.9152 53.1174,223.0452 L52.9454,223.1002 L52.5694,223.2172 L52.5124,223.2342 L52.0914,223.3622 C50.9084,222.4592 49.7234,221.5372 48.5374,220.5932 C65.3664,213.5892 81.4804,193.9672 88.8884,175.0312" id="Fill-77" fill="#CAE3FF"></path>
                    <path d="M23.4724,197.5805 C28.6134,179.9025 46.5494,161.9345 64.9004,152.9625 C65.9574,153.8095 67.0154,154.6725 68.0724,155.5515 C50.4544,165.3115 33.3704,182.7195 26.6754,200.9025 C25.5874,199.7965 24.5204,198.6885 23.4724,197.5805" id="Fill-79" fill="#FFFFFF"></path>
                    <path d="M59.4362,183.1177 C57.0582,190.8917 51.7322,199.9017 44.0582,208.2337 C36.3852,216.5667 27.8442,222.6167 20.2922,225.6257 C22.6692,217.8507 27.9962,208.8427 35.6702,200.5097 C43.3432,192.1767 51.8842,186.1277 59.4362,183.1177" id="Fill-81" fill="#0164CF"></path>
                    <path d="M227.4631,337.8501 C225.0851,345.6241 219.7581,354.6341 212.0851,362.9671 C204.4121,371.2991 195.8711,377.3481 188.3181,380.3591 C190.6961,372.5831 196.0231,363.5751 203.6961,355.2421 C211.3691,346.9091 219.9111,340.8591 227.4631,337.8501" id="Fill-83" fill="#0164CF"></path>
                    <path d="M103.1491,235.852 C121.3371,258.917 143.7671,279.977 171.3121,298.623 C176.2491,301.964 170.1691,308.555 165.2071,305.251 C140.1681,288.579 117.4721,267.608 97.0451,242.482 C93.2841,237.857 99.4581,231.172 103.1491,235.852" id="Fill-85" fill="#004C9F"></path>
                    <path d="M271.5734,121.3525 C297.4234,145.1565 299.0814,185.4085 275.2764,211.2585 C251.4724,237.1075 211.2204,238.7655 185.3704,214.9625 C184.5844,214.2375 183.8214,213.4975 183.0794,212.7445 C208.9664,234.4255 247.5844,232.1425 270.6974,207.0415 C293.8114,181.9415 292.9124,143.2665 269.1754,119.2525 C269.9874,119.9295 270.7874,120.6285 271.5734,121.3525" id="Fill-87" fill="#0164CF"></path>
                    <path d="M256.9152,329.7632 C258.4262,331.3562 259.8942,332.9502 261.3212,334.5422 C260.6392,337.3892 259.7462,340.1982 258.6412,342.9442 L258.6092,343.0212 C258.5042,343.2842 258.3942,343.5462 258.2852,343.8082 L258.2442,343.9052 C258.1332,344.1672 258.0192,344.4312 257.9032,344.6942 L257.8722,344.7652 C257.7582,345.0242 257.6432,345.2822 257.5242,345.5382 L257.4582,345.6822 C257.3502,345.9162 257.2402,346.1512 257.1282,346.3842 L257.0322,346.5832 C256.9232,346.8122 256.8112,347.0402 256.6972,347.2682 L256.5912,347.4802 C256.4852,347.6912 256.3782,347.9002 256.2702,348.1092 C256.1892,348.2662 256.1062,348.4242 256.0232,348.5812 L255.8112,348.9792 L255.5532,349.4512 L255.3522,349.8152 C255.2582,349.9822 255.1632,350.1492 255.0672,350.3162 L254.8532,350.6882 C254.7592,350.8502 254.6642,351.0122 254.5682,351.1722 L254.3222,351.5822 C254.2282,351.7392 254.1322,351.8942 254.0362,352.0492 L253.8042,352.4222 C253.7022,352.5832 253.6012,352.7432 253.4972,352.9042 L253.2552,353.2792 C253.1502,353.4382 253.0452,353.6002 252.9382,353.7592 L252.6932,354.1242 C252.5642,354.3152 252.4352,354.5052 252.3042,354.6952 L252.1422,354.9262 C252.0052,355.1212 251.8672,355.3162 251.7282,355.5102 L251.5402,355.7702 C251.4022,355.9582 251.2652,356.1462 251.1262,356.3322 L250.9532,356.5642 C250.8042,356.7612 250.6532,356.9592 250.5012,357.1572 L250.3432,357.3612 C250.1902,357.5582 250.0352,357.7532 249.8792,357.9502 L249.7042,358.1662 C249.5442,358.3672 249.3802,358.5672 249.2162,358.7652 L249.0722,358.9412 C248.9092,359.1342 248.7452,359.3282 248.5812,359.5212 L248.3882,359.7462 C248.2202,359.9422 248.0492,360.1352 247.8782,360.3292 L247.7162,360.5112 C247.5322,360.7182 247.3452,360.9232 247.1572,361.1292 L247.0752,361.2182 L246.8182,361.4942 L246.6982,361.6252 L246.4162,361.9232 L246.2692,362.0762 L245.9972,362.3602 C245.8762,362.4852 245.7552,362.6092 245.6332,362.7332 L245.6262,362.7402 L245.3712,362.9952 L245.2132,363.1542 L244.9242,363.4402 L244.7772,363.5822 C244.6242,363.7312 244.4712,363.8792 244.3172,364.0262 L244.1252,364.2092 L243.8332,364.4832 L243.6952,364.6112 L243.3962,364.8872 L243.3932,364.8912 L243.0122,365.2372 L242.7702,365.4512 L242.5622,365.6362 L242.2862,365.8792 L242.1362,366.0092 C241.9442,366.1742 241.7532,366.3382 241.5612,366.5012 L241.4462,366.5972 L241.1672,366.8302 L240.9592,367.0012 L240.7052,367.2092 L240.4982,367.3762 C240.3352,367.5072 240.1722,367.6382 240.0082,367.7672 L239.8212,367.9132 L239.5232,368.1442 L239.3662,368.2652 L239.0732,368.4902 L238.6672,368.7932 L238.6642,368.7952 L238.3272,369.0442 L238.1992,369.1382 L237.8622,369.3812 L237.8502,369.3912 L237.4382,369.6832 L237.2112,369.8422 L236.9702,370.0092 L236.6852,370.2042 L236.4832,370.3412 L236.1912,370.5382 L235.7722,370.8162 L235.4672,371.0142 L235.2582,371.1492 L234.9642,371.3362 L234.7842,371.4492 C234.5782,371.5782 234.3712,371.7062 234.1642,371.8322 L234.0562,371.9002 L233.7272,372.0982 L233.5372,372.2102 L233.2202,372.3992 L232.7872,372.6502 L232.4522,372.8402 L232.2912,372.9312 L231.9342,373.1302 L231.8732,373.1632 C231.6312,373.2972 231.3882,373.4292 231.1442,373.5592 L231.0182,373.6262 L230.6842,373.8022 L230.5082,373.8942 C230.1402,374.0852 229.7702,374.2712 229.3972,374.4532 L229.1962,374.5532 L228.8912,374.7012 L228.6812,374.8012 C228.4432,374.9132 228.2062,375.0252 227.9672,375.1342 L227.9312,375.1522 L227.5352,375.3312 L227.4322,375.3782 C227.0172,375.5642 226.5992,375.7442 226.1812,375.9202 L226.1032,375.9532 L225.7232,376.1112 L225.5342,376.1882 L225.2152,376.3172 L224.7582,376.4982 L224.7392,376.5052 L224.4152,376.6302 L224.1922,376.7152 L223.8662,376.8382 L223.6912,376.9022 C223.4682,376.9852 223.2432,377.0662 223.0192,377.1452 L222.8772,377.1962 L222.4972,377.3282 L222.3662,377.3742 C221.9602,377.5122 221.5532,377.6472 221.1442,377.7782 L220.9722,377.8322 L220.5962,377.9502 L220.5392,377.9672 L220.1172,378.0952 C218.9352,377.1922 217.7512,376.2702 216.5642,375.3262 C233.3932,368.3232 249.5072,348.7002 256.9152,329.7632" id="Fill-89" fill="#CAE3FF"></path>
                    <path d="M191.4997,352.312 C196.6397,334.635 214.5767,316.667 232.9267,307.695 C233.9847,308.542 235.0417,309.406 236.0987,310.284 C218.4807,320.044 201.3977,337.452 194.7027,355.635 C193.6147,354.529 192.5467,353.421 191.4997,352.312" id="Fill-91" fill="#FFFFFF"></path>
                    <path d="M166.3757,151.1767 C164.0917,154.8437 160.3457,156.3837 158.5967,158.0417 C156.8477,159.7007 156.0007,160.1057 157.2027,161.7787 C158.4037,163.4517 158.8457,164.3437 160.2377,163.7737 C161.6297,163.2027 162.4697,166.3637 163.4857,168.6837 C164.9337,171.9927 171.0777,180.4827 174.9607,178.9687 C176.6847,178.2977 176.0007,174.7287 174.6947,172.2407 C172.4717,168.0057 172.1107,163.3667 172.4987,159.2487 C172.7477,156.6077 173.4427,156.6667 174.3547,155.6377 C178.5457,150.8957 167.3807,149.5607 166.3757,151.1767" id="Fill-93" fill="#1E2533"></path>
                    <path d="M143.9025,31.29 L142.8155,46.862 C142.4645,51.906 151.5155,62.225 151.8935,58.011 L154.2285,31.977 C154.8395,25.159 144.3795,24.461 143.9025,31.29" id="Fill-95" fill="#DAA667"></path>
                    <path d="M137.7341,32.8804 C146.5031,42.0984 161.4321,47.2414 169.3821,40.8074 C177.3301,34.3734 175.1951,18.8784 167.8021,8.5484 C166.3251,6.9934 164.7261,5.6224 163.0291,4.4994 C147.2191,-5.9446 127.0171,11.6484 135.2211,28.6824 C135.9151,30.1204 136.7631,31.5244 137.7341,32.8804" id="Fill-97" fill="#FACC93"></path>
                    <path d="M143.5,38 C150.558772,32.8947868 148.116396,37.9726338 149.45093,28 C149.545503,27.2932779 151.914169,30.3598309 152,29.5 C152.802961,30.0661414 148.260904,23.5941716 150,22 C156,16.5 152,18.5 155,14.5 C155.451952,13.8973969 157,8 159.5,7 C162,6 163.31783,7.85121644 164,8 C164.500942,8.1092571 162.805546,11.1422226 163.5,11 C164.81504,10.730683 166.82158,8.84699738 167.5,8 C167.5,6.5 166.641377,6.23382232 165.209929,5.11661661 C164.906765,4.88000484 163.875641,4.29021097 163.5,4 C163.041799,3.64600509 166.919859,-0.5 165.209929,1 C163.5,2.5 161.264872,2.23327456 160.568088,1.87147468 C149.987977,-3.622168 134.78104,3.54380145 131.528722,16.0127295 C131.380314,16.5817042 130,18.5 128.5,18.5 C127,18.5 131.020162,18.7131619 130.977136,19.2034688 C130.897765,20.1079448 130.880065,21.0341582 130.929258,21.979792 C131.001064,23.3601179 128.5,23.5 124,23.5 C123.487298,23.5 131.802875,27.0510164 131.913037,27.426077 C132.25413,28.587367 132.623927,29.5605716 133.112429,30.4744696 C133.355266,30.9287715 133.112429,32 130.977136,32.5 C128.841842,33 135.018057,33.1927956 135.748149,33.9496254 C136.611034,34.8441116 137.671614,35.8274641 139,37 L143.5,38 Z" id="Fill-99" fill="#8B572A"></path>
                    <path d="M173.5,33 C171.464532,32.7882426 169.749461,32.294923 167.720246,32.5599851 L163.341243,28.9609455 C161.48443,29.2034879 170.027061,44.984756 173.448631,33.5274762 L173.5,33 Z" id="Combined-Shape" stroke="#DAA667" fill="#FFFFFF"></path>
                    <path d="M143.4538,29.7519 C142.5158,30.9189 143.2718,33.0829 145.1418,34.5879 C147.0128,36.0919 149.2878,36.3659 150.2248,35.1999 C151.1638,34.0339 150.4088,31.8699 148.5378,30.3649 C146.6678,28.8609 144.3918,28.5859 143.4538,29.7519" id="Fill-103" fill="#DAA667"></path>
                    <path d="M143.0612,28.895 C142.1232,30.061 142.8782,32.226 144.7482,33.73 C146.6192,35.234 148.8952,35.508 149.8322,34.342 C150.7712,33.176 150.0162,31.012 148.1452,29.507 C146.2752,28.002 143.9992,27.728 143.0612,28.895" id="Fill-105" fill="#FACC93"></path>
                    <path d="M170.8762,20.5605 C169.9892,21.2785 169.8822,22.6205 170.6402,23.5565 C171.3972,24.4915 172.7312,24.6665 173.6182,23.9485 C174.5072,23.2295 174.6122,21.8885 173.8552,20.9535 C173.0972,20.0185 171.7642,19.8415 170.8762,20.5605" id="Fill-107" fill="#DAA667"></path>
                    <path d="M170.8361,18.5503 C169.5211,19.6133 169.3101,21.5323 170.3631,22.8333 C171.4171,24.1353 173.3371,24.3273 174.6511,23.2633 C175.9661,22.1993 176.1771,20.2813 175.1241,18.9803 C174.0701,17.6783 172.1501,17.4863 170.8361,18.5503" id="Fill-109" fill="#FACC93"></path>
                    <path d="M164.667712,17.4004752 C163.894712,18.0254752 163.775712,19.1574752 164.400712,19.9294752 C165.024712,20.7014752 166.157712,20.8204752 166.929712,20.1954752 C167.701712,19.5714752 167.821712,18.4384752 167.196712,17.6664752 C166.570712,16.8954752 165.438712,16.7754752 164.667712,17.4004752" id="Fill-111" fill="#4D4D4D"></path>
                    <path d="M166.296843,18.1777581 C165.953733,18.4551755 165.900913,18.9576339 166.17833,19.3002999 C166.455304,19.6429659 166.958206,19.6957862 167.300872,19.4183688 C167.643538,19.1413952 167.696802,18.6384929 167.419385,18.2958269 C167.141524,17.9536048 166.639065,17.9003406 166.296843,18.1777581" id="Fill-111-Copy" fill="#F9F9FB"></path>
                    <path d="M161.5,17.5 L166.5,14.5" id="Line-58" stroke="#4D4D4D" stroke-linecap="square"></path>
                    <path d="M151.0847,95.2031 L185.9217,118.9261 L179.3407,132.7351 L146.6557,118.5661 C120.4867,107.2221 142.2417,89.1821 151.0847,95.2031" id="Fill-115" fill="#191F2B"></path>
                    <path d="M132.9114,107.9973 C141.8204,110.6233 152.0024,108.6843 164.8844,104.3263 C161.3704,89.8243 157.5084,63.0853 154.7754,47.1083 C151.6014,47.2903 144.7774,46.4653 142.5484,43.0513 C132.228501,50.666198 131.349211,57.4977583 132.9114,63.5 C134.005624,67.7042282 136.862332,69.4120275 136.0974,79.6313 C135.2364,91.1273 132.7304,103.1483 132.9114,107.9973 Z" id="Fill-117" fill="#191F2B"></path>
                    <path d="M159.403,80.437 C161.778,86.094 164.815,97.56 165.293,104.261 C151.168,111.334 141.82,110.623 132.911,107.997 C139.027,109.019 154.93,108.409 163.924,103.585 C163.547,100.601 159.403,80.437 159.403,80.437" id="Fill-119" fill="#C8C8C8"></path>
                    <g id="Hand-1" transform="translate(139.000000, 54.000000)">
                        <path d="M52.9074,41.685 L47.5354,39.755 L47.5314,39.766 L46.9214,39.535 C44.4524,38.648 42.2304,37.763 39.8384,36.858 L41.9214,31.347 C43.8944,32.092 45.5324,32.5 47.4364,33.368 L47.6774,33.417 C48.1104,32.776 49.3174,32.538 49.9804,32.549 L55.7604,32.598 C57.1114,32.62 57.0934,34.69 55.7004,34.667 L53.9254,34.687 L53.9264,34.688 C50.1584,35.779 61.2514,37.849 61.1394,37.56 C61.6674,37.602 62.0574,38.079 62.0094,38.605 C61.9624,39.131 61.4914,39.517 60.9654,39.475 L60.2514,39.391 C60.3964,39.604 60.4574,39.873 60.3984,40.143 C60.2864,40.659 59.7724,40.984 59.2544,40.877 L58.6504,40.778 C58.6944,40.928 58.7014,41.09 58.6664,41.251 C58.5544,41.768 58.0394,42.092 57.5224,41.986 L56.8444,41.874 C56.8354,41.98 56.8094,42.085 56.7634,42.186 C56.5474,42.668 55.9774,42.88 55.4924,42.67 L53.1284,41.754 C53.0544,41.737 52.9804,41.714 52.9074,41.685" id="Fill-121" fill="#DAA667"></path>
                        <path d="M52.5105,41.3769 L47.1385,39.4479 L47.1355,39.4579 L46.5235,39.2269 C44.0565,38.3409 41.8335,37.4549 39.4415,36.5499 L41.5245,31.0389 C43.4965,31.7839 45.1355,32.1919 47.0395,33.0609 L47.2805,33.1089 C47.7135,32.4669 48.9205,32.2299 49.5845,32.2409 L55.3635,32.2899 C56.7145,32.3119 56.6975,34.3819 55.3035,34.3589 L53.5285,34.3799 L53.5295,34.3789 C49.7605,35.4719 60.8545,37.5399 60.7435,37.2519 C61.2705,37.2939 61.6605,37.7699 61.6135,38.2969 C61.5655,38.8229 61.0945,39.2089 60.5685,39.1679 L59.8545,39.0839 C59.9995,39.2959 60.0615,39.5659 60.0025,39.8349 C59.8885,40.3519 59.3745,40.6749 58.8575,40.5699 L58.2535,40.4699 C58.2975,40.6209 58.3045,40.7809 58.2695,40.9429 C58.1565,41.4599 57.6425,41.7839 57.1255,41.6779 L56.4475,41.5659 C56.4385,41.6719 56.4125,41.7769 56.3665,41.8779 C56.1495,42.3609 55.5805,42.5729 55.0955,42.3619 L52.7315,41.4459 C52.6565,41.4289 52.5845,41.4059 52.5105,41.3769" id="Fill-123" fill="#FACC93"></path>
                        <path d="M51.8508,39.9643 C52.6178,40.1313 56.2678,41.4133 56.6268,41.6923 C56.9858,41.9723 53.7528,41.1983 51.8508,39.9643" id="Fill-125" fill="#DAA667"></path>
                        <path d="M53.2009,38.6689 C54.0389,38.8509 58.0269,40.2519 58.4199,40.5579 C58.8109,40.8639 55.2789,40.0169 53.2009,38.6689" id="Fill-127" fill="#DAA667"></path>
                        <path d="M54.6486,37.7114 C55.5036,37.7784 59.7766,38.9954 60.2066,39.2454 C60.6366,39.4964 56.8896,38.7674 54.6486,37.7114" id="Fill-129" fill="#DAA667"></path>
                        <path d="M27.2609,29.438 L23.5029,29.753 L10.7469,15.425 C9.6379,14.18 8.6609,13.074 7.9029,11.993 C9.8369,13.687 26.4229,29.527 27.2609,29.438" id="Path" fill="#1E2533"></path>
                        <path d="M26.5158,20.5981 L47.8718,32.1411 L44.7418,39.3981 L27.6888,32.6351 C11.5138,26.2181 21.3888,17.8271 26.5158,20.5981" id="Fill-131" fill="#1E2533"></path>
                        <path d="M10.757,1.8086 L29.307,23.3736 L23.075,30.3236 L7.158,16.4216 C-7.34,3.7586 6.551,-3.0784 10.757,1.8086" id="Fill-133" fill="#191F2B"></path>
                    </g>
                    <path d="M189.4851,132.1504 L172.2061,161.7074 L160.3541,155.3704 L174.9371,125.5064 C183.0971,108.7964 193.8811,124.5934 189.4851,132.1504" id="Fill-135" fill="#191F2B"></path>
                    <path d="M156.0017,53.4165 C156.5197,54.5575 157.8017,61.1955 157.5907,64.2415 C157.3787,67.2885 153.0067,54.8895 153.8907,52.8115 C154.7737,50.7335 154.7737,50.7325 156.0017,53.4165" id="Fill-137" fill="#FBD275"></path>
                    <path d="M148.594799,76.2518179 C136.349434,84.422916 134.470688,80.4269947 138,76.2518179 C139.905014,73.9981855 143.995109,70.6381149 147.5,71.5 C148.436221,71.7302255 150.008831,73.8964725 151,74.5 L148.594799,76.2518179 Z" id="Path-4" fill="#FBD275"></path>
                    <path d="M154.7756,47.1079 C156.3666,48.6399 156.8886,51.5789 155.8336,53.8139 C154.7776,56.0479 150.9336,51.1879 154.7756,47.1079" id="Fill-139" fill="#FBD275"></path>
                    <path d="M154.7756,47.1079 C152.7746,46.8439 144.9386,46.0069 142.7076,42.5919 C142.3586,42.9159 142.2336,43.4949 142.0256,44.3009 C142.1476,50.2509 152.3666,52.4559 153.8906,52.8119 C154.4546,50.8809 154.5326,49.1349 154.7756,47.1079" id="Fill-141" fill="#FFFFFF"></path>
                </g>
            </g>
        </g>
    </g>
</svg>