<?xml version="1.0" encoding="UTF-8"?>
<svg width="91px" height="118px" viewBox="0 0 91 118" version="1.1" xmlns="http://www.w3.org/2000/svg" xmlns:xlink="http://www.w3.org/1999/xlink">
    <!-- Generator: sketchtool 52.6 (67491) - http://www.bohemiancoding.com/sketch -->
    <title>9CB08804-0F3E-4264-B3F7-97DE5F18722F</title>
    <desc>Created with sketchtool.</desc>
    <g id="Members-and-Teams" stroke="none" stroke-width="1" fill="none" fill-rule="evenodd">
        <g id="Admin_Add-User_step-3" transform="translate(-963.000000, -163.000000)">
            <g id="ic_send" transform="translate(963.000000, 163.000000)">
                <g id="ic_aeroplane">
                    <polygon id="Fill-1" fill="#161E68" points="-2.48689958e-13 28.7776 18.67 33.5506 32.989 54.6066 45.805 38.2076 54.185 43.2366 75.944 0.0006"></polygon>
                    <polygon id="Fill-2" fill="#9FE9FF" points="33.831 31.024 54.185 43.237 75.944 0.001"></polygon>
                    <polygon id="Fill-3" fill="#9FE9FF" points="-2.48689958e-13 28.7776 18.67 33.5506 75.944 0.0006"></polygon>
                    <polygon id="Fill-4" fill="#00B3E7" points="33.8312 31.0241 32.9892 54.6071 45.8042 38.2081"></polygon>
                </g>
                <g id="ic_dotted" transform="translate(2.000000, 50.055000)" stroke="#9FE9FF" stroke-linecap="round" stroke-linejoin="round" stroke-width="1.8">
                    <path d="M20.3131,0.7259 C19.5171,1.1479 18.7381,1.5999 17.9771,2.0799" id="Stroke-5"></path>
                    <path d="M13.6129,5.3118 C1.3979,15.8148 -4.1011,34.1108 4.7679,48.6148 C13.0519,62.1598 30.6949,68.3718 46.2819,65.3498 C52.6029,64.1248 58.8619,61.4238 63.0829,56.5618 C67.3039,51.6998 69.0699,44.4088 66.2909,38.5998 C63.5119,32.7908 55.6369,29.6128 50.0919,32.8848 C43.6669,36.6778 43.7339,47.0588 49.1669,52.1718 C59.4729,61.8708 75.1449,54.3158 84.1149,45.1908" id="Stroke-7" stroke-dasharray="5.434,5.434"></path>
                    <path d="M85.9567,43.1878 C86.5607,42.4818 87.1207,41.7748 87.6307,41.0708" id="Stroke-9"></path>
                </g>
            </g>
        </g>
    </g>
</svg>
