<?xml version="1.0" encoding="UTF-8"?>
<svg width="335px" height="248px" viewBox="0 0 335 248" version="1.1" xmlns="http://www.w3.org/2000/svg" xmlns:xlink="http://www.w3.org/1999/xlink">
    <!-- Generator: sketchtool 52.6 (67491) - http://www.bohemiancoding.com/sketch -->
    <title>22C3C64B-D13A-4825-A0B5-F4F1BC4EF77F</title>
    <desc>Created with sketchtool.</desc>
    <defs>
        <linearGradient x1="0%" y1="0%" x2="146.236308%" y2="147.570856%" id="linearGradient-1">
            <stop stop-color="#2523AE" offset="0%"></stop>
            <stop stop-color="#D76D6D" offset="71.0995709%"></stop>
            <stop stop-color="#D76D6D" offset="100%"></stop>
        </linearGradient>
        <path d="M157.246173,284.666142 L122.675855,270.815391 C90.0220759,257.73251 70.2434759,224.33101 74.4712105,189.40885 L77.2620461,166.35584 C80.0420574,143.392242 92.685715,122.77815 111.89463,109.891223 L142.522191,89.3437266 C169.314247,71.369403 204.312473,71.369403 231.104529,89.3437266 L261.732089,109.891223 C280.941004,122.77815 293.584662,143.392242 296.364673,166.35584 L299.155509,189.40885 C303.383244,224.33101 283.604644,257.73251 250.950865,270.815391 L216.380547,284.666142 C197.402369,292.269832 176.22435,292.269832 157.246173,284.666142 Z" id="path-2"></path>
        <path d="M303.297768,130.99157 L302.201349,130.554187 C294.424862,127.451991 289.712217,119.502276 290.72276,111.191068 L290.72276,111.191068 C291.81108,102.240186 296.750577,94.2096392 304.248468,89.2012107 L305.012179,88.691068 C312.624474,83.60622 322.5499,83.60622 330.162195,88.691068 L330.925906,89.2012107 C338.423797,94.2096392 343.363294,102.240186 344.451614,111.191068 L344.451614,111.191068 C345.462157,119.502276 340.749512,127.451991 332.973025,130.554187 L331.876606,130.99157 C322.701867,134.651557 312.472507,134.651557 303.297768,130.99157 Z" id="path-3"></path>
        <polygon id="path-4" points="0.71559522 1.03248895 30.8886073 1.03248895 30.8886073 27.17603 0.71559522 27.17603"></polygon>
    </defs>
    <g id="Members-and-Teams" stroke="none" stroke-width="1" fill="none" fill-rule="evenodd">
        <g id="Admin_Add-Team" transform="translate(-950.000000, -163.000000)">
            <g id="Team-Illustration" transform="translate(931.000000, 85.000000)">
                <g id="Star" fill-rule="nonzero" transform="translate(186.813360, 185.629553) rotate(41.000000) translate(-186.813360, -185.629553) ">
                    <use fill="#1D1E1F" xlink:href="#path-2"></use>
                    <use fill="url(#linearGradient-1)" xlink:href="#path-2"></use>
                </g>
                <g id="Star-Copy" opacity="0.300000012" fill-rule="nonzero" transform="translate(317.587187, 110.291235) rotate(41.000000) translate(-317.587187, -110.291235) ">
                    <use fill="#1D1E1F" xlink:href="#path-3"></use>
                    <use fill="url(#linearGradient-1)" xlink:href="#path-3"></use>
                </g>
                <g id="Group-282" transform="translate(19.500000, 136.500000)">
                    <path d="M232.473713,175.092234 L233.658138,184.399369 C233.658138,184.399369 222.648039,187.872573 225.2746,188.491435 C227.901161,189.110297 245.916826,186.514866 245.916826,186.514866 C245.916826,186.514866 244.698742,175.116441 244.831279,175.116441 C244.963817,175.116441 232.473713,175.092234 232.473713,175.092234" id="Fill-1" fill="#685347"></path>
                    <polygon id="Fill-3" fill="#B79480" points="313.594381 126.364333 331.759414 188.7494 333.834787 188.7494 319.897287 126.153836"></polygon>
                    <polygon id="Fill-5" fill="#B79480" points="280.75679 127.200007 267.023356 187.800057 269.459525 187.800057 287.841247 127.181063"></polygon>
                    <polygon id="Fill-7" fill="#B79480" points="296.96342 126.153731 299.079816 188.587212 301.981972 188.587212 303.254755 126.39475"></polygon>
                    <polygon id="Fill-9" fill="#B79480" points="280.139437 151.867652 321.618489 150.567832 321.89198 154.865133 277.025852 156.585948"></polygon>
                    <polygon id="Fill-11" fill="#000F38" points="280.75679 127.200007 280.12145 130.006988 286.985011 130.006988 287.841247 127.181063"></polygon>
                    <polygon id="Fill-13" fill="#000F38" points="296.99119 126.968776 297.094275 130.007304 303.181543 130.007304 303.255175 126.394119"></polygon>
                    <polyline id="Fill-15" fill="#000F38" points="297.816079 151.313624 297.968603 155.78248 295.327315 155.78248 294.300674 151.423082 298.515584 151.313624"></polyline>
                    <polygon id="Fill-17" fill="#000F38" points="302.74785 151.159435 302.74785 155.599874 304.749591 155.523042 305.330233 151.078393"></polygon>
                    <polygon id="Fill-19" fill="#000F38" points="313.594381 126.364333 314.243395 128.593499 320.441112 128.593499 319.897287 126.153836"></polygon>
                    <path d="M266.485421,122.364149 C272.384402,119.471917 296.223312,121.029597 296.223312,121.029597 C296.223312,121.029597 289.492289,37.4211464 298.1956,36.7517652 C306.897859,36.082384 326.377751,29.8811354 330.166647,42.4562403 C333.954492,55.0323978 328.901227,126.08995 323.864793,126.08995 C312.383449,126.08995 277.415576,128.58329 266.855685,126.096265 C264.134454,125.455301 266.485421,122.364149 266.485421,122.364149" id="Fill-21" fill="#053142"></path>
                    <path d="M322.667957,43.9004619 C322.704773,43.8794122 322.872023,44.1088541 323.159188,44.5687906 C323.308556,44.7950751 323.465287,45.0908238 323.647263,45.4434066 C323.837655,45.7907271 324.022787,46.2085641 324.228957,46.6811304 C325.05048,48.5692906 325.898301,51.4699425 326.284343,55.133647 C326.68932,58.7962989 326.715617,63.1599066 326.634622,67.9887133 C326.550471,72.8217298 326.258046,78.1273127 325.825721,83.6812823 C325.38498,89.2363044 324.852725,94.5155751 324.350975,99.3107022 C323.855537,104.104777 323.368513,108.438915 322.693202,112.04368 C322.032617,115.65055 321.211093,118.514365 320.518952,120.443572 C319.820499,122.371727 319.298763,123.381061 319.232494,123.353697 C319.142032,123.317912 319.513348,122.251744 320.065589,120.298329 C320.61257,118.343862 321.296296,115.487415 321.842225,111.89949 C322.401829,108.313669 322.796287,104.002686 323.230716,99.2012436 C323.671457,94.3987492 324.167947,89.1257934 324.608688,83.5855061 C325.039961,78.0462713 325.363942,72.7670006 325.509103,67.9602961 C325.652159,63.1535917 325.714221,58.8173486 325.4239,55.2167934 C325.153565,51.6088707 324.455112,48.7555807 323.78506,46.8526856 C323.11606,44.9466331 322.576442,43.9509812 322.667957,43.9004619" id="Fill-23" fill="#014B60"></path>
                    <path d="M235.905704,75.327068 L233.738817,74.1651232 C233.738817,74.1651232 232.333497,73.6651923 230.062473,72.2832779 C229.473417,71.9254326 228.944317,71.4697061 228.490954,70.945568 C227.941869,70.3088138 227.243417,69.4373552 226.998327,68.8563829 C226.695383,68.1354298 225.704506,68.0754381 225.551983,68.7300845 C225.400511,69.3847309 226.188374,71.3865597 228.010242,73.1768387 C229.833162,74.9660652 225.990619,74.4292972 224.589506,74.2587945 C223.188393,74.0882917 218.847256,73.7630735 218.493822,74.1482834 C217.975242,74.7134685 218.541157,75.4323166 219.941218,75.5701923 C221.359162,75.7101729 225.540412,76.4163912 225.48361,77.1468166 C225.42786,77.8646122 218.297119,76.8994823 218.297119,76.8994823 C218.297119,76.8994823 216.782402,76.4490182 216.688784,77.2867972 C216.519431,78.7992199 224.12352,79.2717862 224.846167,79.2991508 C225.348968,79.3191481 225.31636,80.1158801 224.774638,80.0674657 C224.21819,80.0158939 217.669143,78.940253 217.480855,80.4768829 C217.337799,81.6556674 223.73853,80.9241895 225.042869,81.8924768 C226.347209,82.8618166 220.086379,81.9472061 219.995917,83.0828387 C219.962256,83.5059381 219.995917,83.8322088 223.618615,83.8437862 C227.330723,83.8553635 237.234237,82.2450597 237.234237,82.2450597 L235.800516,75.2228718" id="Fill-25" fill="#FFBB99"></path>
                    <path d="M283.204741,44.1923163 C283.204741,44.1923163 264.543217,69.2762196 260.262038,70.3950124 C255.980858,71.5159102 231.519231,72.9851809 231.519231,72.9851809 L229.341825,83.5879268 C229.341825,83.5879268 260.655443,85.2413826 267.551613,80.1473494 C278.388151,72.1442445 289.77167,53.7320511 289.77167,53.7320511 C290.059887,47.6602583 287.74258,44.6280456 283.204741,44.1923163" id="Fill-27" fill="#60C7CD"></path>
                    <path d="M259.144829,166.357861 L264.897598,173.767364 C264.897598,173.767364 257.185164,182.361966 259.761234,181.557867 C262.337305,180.753767 276.526206,169.346922 276.526206,169.346922 C276.526206,169.346922 269.682631,160.154508 269.797286,160.087149 C269.91089,160.020842 259.144829,166.357861 259.144829,166.357861" id="Fill-29" fill="#685347"></path>
                    <polygon id="Fill-31" fill="#FFB950" points="250.710275 110.919309 275.006756 162.154337 259.569265 170.848925 234.326086 124.962632 235.916539 109.857351"></polygon>
                    <path d="M308.154128,91.093732 C308.154128,91.093732 318.549925,113.323293 298.051807,120.951713 L287.114288,97.1676298 L308.154128,91.093732 Z" id="Fill-33" fill="#FFD684"></path>
                    <path d="M293.898222,96.9913384 C293.898222,96.9913384 234.726434,80.7314793 228.078509,94.3822251 C221.429533,108.035076 229.341825,179.133675 229.341825,179.133675 L247.861344,177.184471 C247.861344,177.184471 244.78142,114.7552 247.861344,112.560767 C250.941269,110.367385 293.575292,121.146949 298.052123,120.952239 C308.946514,120.476515 316.652637,100.14143 293.898222,96.9913384" id="Fill-35" fill="#FFD684"></path>
                    <path d="M295.15449,37.4910315 C287.381047,37.6552193 281.064467,43.813316 280.707877,51.5859265 C280.409141,58.0429293 280.133547,65.9639403 280.100938,73.5218436 C280.08516,77.6307497 274.803636,92.5623713 274.803636,92.5623713 L276.802221,93.6190674 C279.532919,95.062026 282.512915,96.010316 285.589683,96.2734376 C291.430811,96.7733685 296.538773,96.2250232 302.782773,94.5326254 L308.754334,92.9149541 C308.754334,92.9149541 312.196108,74.9427 314.147358,58.0702939 C315.775679,43.969084 313.088108,38.4972083 304.543632,37.2910591 L295.15449,37.4910315 Z" id="Fill-37" fill="#87D3DC"></path>
                    <path d="M303.254229,103.207638 C303.21005,103.274997 302.366436,102.783486 300.973738,102.054113 C299.582092,101.325792 297.623479,100.38908 295.380856,99.554458 C293.135078,98.7240464 291.039719,98.1567564 289.509224,97.801016 C287.978729,97.4442232 287.017304,97.2674055 287.028875,97.1884691 C287.03729,97.1253199 288.0187,97.1726818 289.582856,97.4389608 C291.14596,97.7041873 293.28655,98.2220105 295.562833,99.062947 C297.83596,99.9091459 299.796677,100.912165 301.153611,101.732052 C302.5137,102.549834 303.288941,103.153961 303.254229,103.207638" id="Fill-39" fill="#FFB950"></path>
                    <path d="M305.911716,99.8733613 C305.870692,100.027024 304.137183,99.5881376 301.970296,99.6744414 C299.802357,99.7365381 298.102508,100.290146 298.052017,100.141745 C297.99206,100.024919 299.683494,99.2187149 301.952414,99.1503033 C304.221333,99.0639994 305.963258,99.7523254 305.911716,99.8733613" id="Fill-41" fill="#FFB950"></path>
                    <path d="M273.150175,163.200403 C273.133345,163.20777 273.037624,163.041477 272.867218,162.718364 C272.693657,162.377359 272.453826,161.90374 272.148779,161.300665 C271.826902,160.680751 271.438756,159.933486 270.9896,159.066237 C270.529925,158.196883 270.00819,157.210704 269.431756,156.120328 C267.079737,151.754615 263.847289,145.753339 260.276133,139.122676 C256.696562,132.482541 253.491463,126.452848 251.251996,122.043983 C250.700808,120.940977 250.201161,119.940063 249.761473,119.060185 C249.34177,118.177149 248.978869,117.413044 248.679081,116.782604 C248.395072,116.152165 248.18785,115.655392 248.047949,115.319649 C247.910152,114.982853 247.844935,114.801825 247.861765,114.794458 C247.878595,114.787091 247.974317,114.953383 248.144723,115.275444 C248.317232,115.617502 248.557062,116.091121 248.863161,116.693143 C249.183987,117.312005 249.572133,118.061375 250.022341,118.927571 C250.482015,119.797977 251.003751,120.784157 251.580185,121.87348 C253.931152,126.239193 257.164652,132.241522 260.736859,138.87429 C264.314326,145.511267 267.520477,151.540961 269.758892,155.948773 C270.311133,157.052831 270.809727,158.052693 271.250468,158.934676 C271.670171,159.817712 272.033072,160.580765 272.331808,161.211204 C272.616869,161.842696 272.823039,162.339469 272.963992,162.675212 C273.101789,163.012008 273.167006,163.193035 273.150175,163.200403" id="Fill-43" fill="#EA9B2D"></path>
                    <path d="M305.330233,117.929078 C305.328129,117.93855 305.213473,117.918553 304.992577,117.871191 C304.762214,117.819619 304.435077,117.745945 304.010115,117.650169 C303.142308,117.444934 301.876888,117.146028 300.249619,116.760818 C296.982459,115.987241 292.254228,114.87792 286.391011,113.604412 C280.527794,112.328799 273.528539,110.891102 265.724591,109.466036 C261.823143,108.751398 257.720784,108.039917 253.460643,107.346329 C252.396133,107.175826 251.320053,107.004271 250.237662,106.830611 C249.16053,106.66537 248.069723,106.51697 247.00311,106.633796 C245.934393,106.730625 244.928789,107.197928 244.199832,107.986241 C243.460355,108.767185 243.006992,109.808094 242.692478,110.878473 C242.377964,111.956219 242.205454,113.071854 242.069761,114.192752 C241.930912,115.314702 241.792063,116.42718 241.653214,117.53229 C241.544869,118.641611 241.437577,119.741459 241.330284,120.832887 C241.220888,121.924315 241.164086,123.011533 241.079935,124.087174 C240.794874,128.39079 240.654973,132.554426 240.660233,136.520194 C240.657077,144.453835 241.046275,151.594953 241.454407,157.5836 C241.872006,163.572246 242.290657,168.413683 242.571511,171.759536 C242.706152,173.427727 242.810289,174.72439 242.882869,175.614793 C242.912322,176.050522 242.935464,176.383108 242.951242,176.618865 C242.963865,176.845149 242.965968,176.960923 242.956501,176.961975 C242.948086,176.963028 242.9281,176.848307 242.897596,176.624127 C242.870247,176.389423 242.830275,176.05789 242.777681,175.624265 C242.683011,174.73702 242.545214,173.442462 242.368497,171.778481 C242.025582,168.43789 241.550129,163.600663 241.085195,157.609912 C240.629728,151.621265 240.200558,144.471727 240.178468,136.520194 C240.159534,132.546006 240.289968,128.370793 240.568718,124.05139 C240.651817,122.973644 240.705464,121.883268 240.81486,120.78763 C240.9211,119.691992 241.028393,118.587934 241.135685,117.474404 C241.274534,116.366136 241.412332,115.248395 241.552233,114.123288 C241.687926,113.000285 241.862539,111.85518 242.190728,110.731125 C242.518917,109.617594 242.994369,108.501959 243.817997,107.628395 C244.225077,107.192666 244.715256,106.835873 245.250667,106.576962 C245.789233,106.319102 246.368822,106.179122 246.945256,106.115973 C248.102332,105.991779 249.231006,106.15281 250.316553,106.320155 C251.401049,106.494868 252.477129,106.668528 253.543742,106.840083 C257.805987,107.539986 261.91045,108.263044 265.811898,108.991365 C273.61795,110.444848 280.614049,111.919381 286.470954,113.242357 C292.32786,114.564279 297.045572,115.728329 300.298006,116.562951 C301.925275,116.976578 303.183332,117.315478 304.037464,117.548078 C304.456115,117.665956 304.779044,117.75647 305.004148,117.819619 C305.221888,117.883821 305.332336,117.920658 305.330233,117.929078" id="Fill-45" fill="#FFB950"></path>
                    <path d="M248.032276,112.40563 C247.93445,112.512984 247.004583,111.823605 245.956903,110.866895 C245.827521,110.746912 245.702347,110.630086 245.578224,110.51326 L245.937969,110.1491 C246.718469,111.023716 247.242309,111.739406 247.149743,111.82571 C247.057177,111.910962 246.379762,111.339462 245.562446,110.498525 L245.923243,110.135417 C246.050521,110.248033 246.1778,110.362754 246.309285,110.480633 C247.358017,111.43629 248.12905,112.299329 248.032276,112.40563" id="Fill-47" fill="#FFB950"></path>
                    <path d="M248.584832,112.842412 C248.442827,112.871881 248.115691,111.875177 247.852719,110.616404 C247.589747,109.355525 247.49087,108.311459 247.632875,108.281989 C247.773827,108.25252 248.100964,109.249224 248.364988,110.507998 C248.627959,111.767823 248.725785,112.812942 248.584832,112.842412" id="Fill-49" fill="#FFB950"></path>
                    <polygon id="Fill-51" fill="#C75B16" points="231.519442 72.9857072 229.342036 83.5874006 233.192993 83.7873729 235.474536 72.3889475"></polygon>
                    <path d="M318.210797,123.251079 C318.141372,123.5984 312.721,122.746938 305.998391,122.207013 C299.274731,121.646038 293.789141,121.606043 293.77757,121.252408 C293.759688,120.9314 299.290509,120.421996 306.097268,120.989286 C312.90508,121.535527 318.280221,122.937438 318.210797,123.251079" id="Fill-53" fill="#014B60"></path>
                    <path d="M316.146048,68.4026561 C316.09135,68.445808 315.893595,68.3805539 315.804185,68.0406008 C315.720034,67.7048577 315.887284,67.1796671 316.365892,66.8333992 C316.603619,66.6639489 316.939171,66.5197583 317.355718,66.5587003 C317.570303,66.5860649 317.762798,66.653424 317.930048,66.7523577 C318.105713,66.8491865 318.2656,66.9839047 318.397086,67.1396727 C318.920925,67.7722169 319.063982,68.6531478 318.779973,69.4930318 C318.484392,70.3066036 317.834326,70.9275704 317.030685,71.1001782 C316.831878,71.1391202 316.628864,71.149645 316.435317,71.1233329 C316.245977,71.1054406 316.030341,71.0296616 315.867298,70.9402003 C315.537006,70.7465428 315.33294,70.4771064 315.207765,70.2181948 C314.960572,69.6961616 315.036308,69.1699185 315.23827,68.9078494 C315.438128,68.6436754 315.635883,68.634203 315.677958,68.6920898 C315.735812,68.7605014 315.676907,68.902587 315.677958,69.0899296 C315.671647,69.2709572 315.746331,69.5361837 315.949345,69.7750981 C316.050326,69.8908715 316.184968,69.9887528 316.316454,70.0319047 C316.387982,70.0466395 316.431109,70.0571644 316.517364,70.0508494 C316.599411,70.0508494 316.681458,70.0329572 316.765609,70.0045401 C317.096954,69.9024489 317.474581,69.5319738 317.629208,69.0836146 C317.786992,68.6573577 317.711256,68.1226948 317.516657,67.8406285 C317.298916,67.5448798 317.110628,67.4754157 316.805581,67.5775069 C316.519468,67.683808 316.343803,67.8879903 316.278586,68.0395483 C316.207058,68.1995262 316.221784,68.3552942 316.146048,68.4026561" id="Fill-55" fill="#014B60"></path>
                    <polygon id="Fill-57" fill="#ABCDEB" points="213.618853 51.5330917 225.426282 86.0567436 278.890532 86.0567436 278.496075 84.2790945 256.877697 83.6107657 246.917381 51.5151994"></polygon>
                    <path d="M237.999275,70.3780674 C238.227534,71.6642055 237.523822,72.8640398 236.426704,73.0598022 C235.329586,73.2545122 234.255609,72.3704238 234.02735,71.0842856 C233.799091,69.7981475 234.502803,68.5983133 235.599921,68.4025508 C236.697039,68.2067884 237.769963,69.0919293 237.999275,70.3780674" id="Fill-59" fill="#FFFFFF"></path>
                    <path d="M263.732423,79.1618014 L261.527668,78.0703732 C261.527668,78.0703732 260.108673,77.6146467 257.79347,76.3074588 C257.193894,75.9685583 256.650069,75.530724 256.179875,75.0202682 C255.609753,74.4035113 254.883951,73.554155 254.620979,72.98055 C254.294894,72.2690693 253.302965,72.2427572 253.171479,72.9016135 C253.041045,73.5604699 253.893074,75.5359865 255.771743,77.2662738 C257.650413,78.996561 253.793144,78.5839865 252.387824,78.4587406 C250.981451,78.3334948 246.631899,78.1461522 246.291088,78.5429395 C245.79039,79.1260169 246.379446,79.8259202 247.783715,79.918539 C249.204814,80.0122102 253.407102,80.5847627 253.37239,81.3151881 C253.340833,82.0350887 246.181692,81.2994008 246.181692,81.2994008 C246.181692,81.2994008 244.654352,80.8973511 244.588083,81.7382876 C244.467116,83.2559727 252.082776,83.4833097 252.805423,83.4875196 C253.309276,83.4906771 253.300861,84.2884616 252.758088,84.256887 C252.200588,84.2253124 245.621036,83.3591163 245.482187,84.9010086 C245.376998,86.084003 251.749328,85.1472903 253.085225,86.0724257 C254.420069,86.999666 248.132942,86.2881854 248.078243,87.4259229 C248.059309,87.8500749 248.103489,88.1742406 251.725135,88.068992 C255.434088,87.9605859 265.281852,86.0334837 265.281852,86.0334837 L263.623026,79.0607627" id="Fill-61" fill="#FFBB99"></path>
                    <path d="M305.983559,39.9741622 C305.983559,39.9741622 291.782036,67.8303141 287.74805,69.6500627 C283.714064,71.4708638 259.830975,77.363734 259.830975,77.363734 L259.496475,87.0781815 C259.496475,87.0781815 290.619701,84.219629 296.566017,78.0446925 C303.751456,70.5804605 310.227923,56.9960213 312.836602,51.1168334 C313.937927,48.6361235 313.945291,45.7544163 312.647262,43.3726401 C311.266135,40.8372008 309.015097,39.7541925 305.983559,39.9741622" id="Fill-63" fill="#87D3DC"></path>
                    <path d="M291.562297,38.8200058 C291.73165,37.5970169 291.074221,32.5029837 291.074221,32.5029837 C291.074221,32.5029837 286.396481,32.1598732 285.965207,27.5426163 C285.533933,22.9264119 285.473976,12.249992 285.473976,12.249992 L293.832268,7.82428757 L303.399179,14.6033511 L305.580792,19.6658097 L302.715452,31.7083566 L302.725971,37.776992 L291.562297,38.8200058 Z" id="Fill-65" fill="#FFBB99"></path>
                    <path d="M286.098376,19.5761378 C286.108895,19.903461 286.382385,20.1602677 286.70847,20.1486903 C287.035607,20.1381655 287.292267,19.8645191 287.281749,19.5382483 C287.27123,19.2109251 286.996687,18.9541185 286.670602,18.9646434 C286.343466,18.9751682 286.086805,19.2488146 286.098376,19.5761378" id="Fill-67" fill="#000F38"></path>
                    <path d="M286.057352,19.3684823 C286.136244,19.4421564 286.561206,19.0569464 287.197598,19.0022171 C287.831885,18.9380155 288.321013,19.2390265 288.385178,19.1516702 C288.416734,19.1127282 288.332583,18.9738 288.11905,18.8369768 C287.909725,18.7001536 287.558395,18.5812227 287.161833,18.6180597 C286.766324,18.6548967 286.442343,18.8369768 286.261418,19.010637 C286.077338,19.1842972 286.019484,19.3369077 286.057352,19.3684823" id="Fill-69" fill="#000F38"></path>
                    <path d="M293.36502,18.8864436 C293.100997,19.0801011 293.043143,19.4505762 293.23669,19.7147503 C293.430237,19.9789243 293.800501,20.0357586 294.064525,19.8421011 C294.328549,19.6494961 294.38535,19.2779685 294.191803,19.014847 C293.999308,18.7506729 293.627992,18.6927862 293.36502,18.8864436" id="Fill-71" fill="#000F38"></path>
                    <path d="M293.11951,19.1424083 C293.198401,19.2160823 293.623364,18.8298199 294.258703,18.7750906 C294.894043,18.7119414 295.38317,19.0119 295.447335,18.9245436 C295.478892,18.8856017 295.394741,18.7466735 295.181208,18.6098503 C294.970831,18.4740796 294.6195,18.3540961 294.223991,18.3909331 C293.82743,18.4277702 293.5045,18.6109028 293.322524,18.7835105 C293.138444,18.9571707 293.081642,19.1097812 293.11951,19.1424083" id="Fill-73" fill="#000F38"></path>
                    <path d="M290.994173,24.5990229 C290.994173,24.5663959 290.594456,24.5337688 289.947545,24.5064041 C289.786607,24.5042992 289.62146,24.4874594 289.581489,24.3643185 C289.53205,24.2380202 289.589904,24.0475202 289.655121,23.8433378 C289.780295,23.4212909 289.910729,22.9750367 290.049578,22.5077329 C290.320965,21.5583903 290.555536,20.6953517 290.712267,20.0670174 C290.871102,19.4386831 290.952097,19.0461058 290.919489,19.0366334 C290.88688,19.027161 290.746979,19.4028986 290.547121,20.018603 C290.347262,20.6343075 290.087446,21.4910312 289.813956,22.4403738 C289.68247,22.9108351 289.557295,23.3570892 289.438432,23.7812412 C289.390045,23.9791086 289.300635,24.2053931 289.396357,24.4453599 C289.446847,24.5642909 289.567814,24.6432273 289.670899,24.6642771 C289.775036,24.6874318 289.86655,24.6811169 289.946493,24.6790119 C290.593404,24.6621721 290.994173,24.6327025 290.994173,24.5990229" id="Fill-75" fill="#000F38"></path>
                    <path d="M293.767683,23.8805959 C293.801343,24.4078914 294.623918,24.7604743 295.608484,24.7510019 C296.59305,24.7394246 297.399848,24.3710544 297.411418,23.8437588 C297.424041,23.3196207 296.59831,22.8333721 295.568513,22.8449494 C294.538716,22.8533693 293.734022,23.3575102 293.767683,23.8805959" id="Fill-77" fill="#FF967E"></path>
                    <path d="M293.117511,25.1345279 C293.749695,24.6861688 291.371379,26.2522682 290.071247,26.2954202 C290.071247,26.2954202 290.910653,27.4226329 292.203422,26.8258732 C293.543525,26.2091163 293.117511,25.1345279 293.117511,25.1345279" id="Fill-79" fill="#F5F0EB"></path>
                    <path d="M291.074326,32.5029837 C291.074326,32.5029837 294.188963,32.4377296 297.133194,30.2369809 C297.133194,30.2369809 295.853048,33.6775583 291.211072,33.6344064 L291.074326,32.5029837 Z" id="Fill-81" fill="#FF967E"></path>
                    <path d="M305.410386,24.7398456 C304.160745,27.5520887 303.387608,31.6462599 303.387608,31.6462599 C302.698622,32.9250307 302.468259,28.8940086 302.468259,28.8940086 C302.468259,28.8940086 301.87815,25.0208594 302.412509,23.5094892 C302.412509,23.5094892 304.769787,24.2735942 305.30099,20.0425997 C305.56291,17.9523622 302.40725,16.9503953 301.547858,19.4795196 L299.579778,19.6615997 C299.579778,19.6615997 299.419891,11.7605859 294.882051,13.2161743 C294.882051,13.2161743 291.59175,15.2485251 289.629981,14.0044865 C287.669264,12.7604478 287.810217,12.3310334 287.810217,12.3310334 C287.810217,12.3310334 286.865622,14.4096936 284.335834,13.0446191 C281.806047,11.6795445 281.472599,9.24514392 282.349872,8.08214669 C282.856882,7.40855552 283.348113,6.66023785 284.177,6.51078481 C285.005886,6.36133177 285.904198,6.69181243 286.438556,7.34330138 C285.817943,6.43290083 286.255528,5.07414116 287.176981,4.47211906 C288.098433,3.87009696 289.325985,3.91640635 290.350523,4.32161354 C291.372957,4.72471575 292.23866,5.44040635 293.084377,6.14451961 C293.663967,4.47632901 295.449018,3.31438425 297.208825,3.45857486 C298.96758,3.60381796 300.539099,5.04256657 300.838886,6.78337873 C301.78874,5.59933177 303.612712,5.3298953 304.981217,5.9855942 C306.349721,6.64129309 307.250136,8.06846436 307.512056,9.56404724 C307.772924,11.0596301 307.45841,12.6099423 306.885132,14.0160638 C307.942278,13.4056218 309.410712,13.8424036 310.121787,14.8348981 C310.833915,15.8252876 310.840226,17.2166743 310.320594,18.3207323 C309.800962,19.4247903 308.821655,20.2625693 307.736108,20.820387 C308.540801,21.4729285 308.785891,22.7222296 308.287297,23.6305251 C307.790806,24.5388207 306.606382,25.0029671 305.623919,24.6745914" id="Fill-83" fill="#3D322C"></path>
                    <path d="M302.071908,21.9401271 C302.08979,21.9285497 302.137125,21.9927514 302.249677,22.0527431 C302.359073,22.1116823 302.55262,22.1590442 302.761946,22.0937901 C303.18796,21.9664392 303.57821,21.3275801 303.640271,20.6182044 C303.671828,20.2603591 303.618182,19.9140912 303.507733,19.623605 C303.4057,19.3289088 303.231087,19.1152541 303.022814,19.0657873 C302.817696,19.0047431 302.662017,19.1205166 302.607318,19.2289227 C302.547361,19.3352238 302.568399,19.4162652 302.546309,19.4215276 C302.534738,19.431 302.466366,19.351011 302.507389,19.1899807 C302.529479,19.1120967 302.579969,19.0226354 302.677795,18.9521188 C302.776672,18.8816022 302.918677,18.8500276 303.062785,18.8752873 C303.364677,18.9142293 303.622389,19.2099779 303.743356,19.5288812 C303.880101,19.850942 303.949526,20.2403619 303.913762,20.6424116 C303.841182,21.4349337 303.389922,22.1527293 302.810333,22.2832376 C302.529479,22.3390193 302.303323,22.2411381 302.188667,22.1400994 C302.07296,22.0369558 302.057182,21.9474945 302.071908,21.9401271" id="Fill-85" fill="#FF967E"></path>
                    <path d="M313.132077,55.3565635 C313.258303,55.4491823 311.795129,57.6657182 309.822841,61.4851906 C308.818289,63.3859807 307.673836,65.683558 306.254841,68.1758453 C304.826379,70.6565552 303.107596,73.3509199 300.795549,75.7916354 C298.496124,78.2491906 295.741233,80.0342072 293.104152,81.2077293 C290.463917,82.4044061 287.956218,83.1053619 285.851393,83.6084503 C283.74236,84.1062762 282.019369,84.4020249 280.825478,84.5851575 C279.631586,84.7661851 278.965742,84.8251243 278.949964,84.7525028 C278.912096,84.5809475 281.526034,84.0062901 285.655742,82.8580276 C287.712181,82.2665304 290.147299,81.5003204 292.677086,80.2910138 C295.213185,79.1006519 297.795567,77.3914144 300.002426,75.0359503 C302.220855,72.695221 303.925964,70.0861077 305.383879,67.6653895 C306.831275,65.2330939 308.04936,62.9713011 309.144374,61.109453 C311.307053,57.3573398 313.017421,55.2660497 313.132077,55.3565635" id="Fill-87" fill="#58AAAF"></path>
                    <path d="M301.309711,48.7414773 C301.442249,48.8004166 300.937343,50.3286265 299.868626,52.6946155 C298.798857,55.0606044 297.153706,58.252795 295.001546,61.5944387 C292.86306,64.9487122 290.361673,67.6820188 288.166385,69.1670768 C285.98372,70.6816044 284.344881,71.0394497 284.314376,70.9236762 C284.242848,70.7552785 285.736527,70.1500989 287.7004,68.5482149 C289.682154,66.9705381 291.980527,64.2898558 294.083249,60.997679 C298.324456,54.4122729 301.013079,48.6057066 301.309711,48.7414773" id="Fill-89" fill="#58AAAF"></path>
                    <polygon id="Fill-91" fill="#B79480" points="193.105062 121.468904 211.270095 183.853971 213.346519 183.853971 199.409019 121.258407"></polygon>
                    <polygon id="Fill-93" fill="#B79480" points="160.268522 122.304473 146.534036 182.904523 148.971258 182.904523 167.35298 122.285528"></polygon>
                    <polygon id="Fill-95" fill="#B79480" points="176.475152 121.258197 178.591549 183.691677 181.493704 183.691677 182.765435 121.499216"></polygon>
                    <polygon id="Fill-97" fill="#B79480" points="159.650118 146.972118 201.130222 145.672298 201.403712 149.969599 156.537585 151.690414"></polygon>
                    <polygon id="Fill-99" fill="#000F38" points="160.268522 122.304473 159.633183 125.111454 166.495692 125.111454 167.35298 122.285528"></polygon>
                    <polygon id="Fill-101" fill="#000F38" points="176.502922 122.073242 176.606007 125.11177 182.692224 125.11177 182.765856 121.498585"></polygon>
                    <polyline id="Fill-103" fill="#000F38" points="177.327812 146.418195 177.479283 150.887051 174.839048 150.887051 173.812406 146.527653 178.026265 146.418195"></polyline>
                    <polygon id="Fill-105" fill="#000F38" points="182.259478 146.264006 182.259478 150.704445 184.260167 150.627613 184.84186 146.182964"></polygon>
                    <polygon id="Fill-107" fill="#000F38" points="193.105062 121.468904 193.754076 123.69807 199.952845 123.69807 199.409019 121.258407"></polygon>
                    <path d="M156.537585,122.285949 L206.412797,122.285949 C209.567406,122.285949 216.338401,113.975519 179.601255,114.923809 C145.103575,115.816317 156.537585,122.285949 156.537585,122.285949" id="Fill-109" fill="#053142"></path>
                    <g id="Group-113" transform="translate(158.834906, 0.019997)">
                        <mask id="mask-5" fill="white">
                            <use xlink:href="#path-4"></use>
                        </mask>
                        <g id="Clip-112"></g>
                        <path d="M9.72027547,27.0437378 C8.04882736,27.2331854 6.32373302,27.2763373 4.71539811,26.7816688 C3.10706321,26.2880528 1.61759151,25.1850472 0.992770755,23.6221052 C0.369001887,22.0591633 0.806586792,20.0415472 2.21927075,19.1248318 C2.88827075,18.690155 3.78342642,18.4501881 4.09478491,17.7145003 C4.44085566,16.893561 3.84338396,16.0157876 3.45418585,15.2148456 C2.41912925,13.0825086 2.93665755,10.3018401 4.67016698,8.68627376 C6.4047283,7.06965497 9.21431792,6.75075166 11.2654972,7.93690359 C11.5779075,4.25741188 14.955516,1.09784834 18.644483,1.0325942 C22.3345019,0.969445028 25.8204547,4.00902514 26.2601434,7.67588702 C26.3895255,8.75573785 26.3001151,9.91663011 26.8481481,10.8554478 C27.471917,11.9258262 28.7499594,12.4131273 29.6135585,13.2993207 C31.3007849,15.0306605 31.0746292,17.8565859 30.3025443,20.1478483 C29.5325632,22.4380583 28.3197377,24.6756439 28.3902142,27.0910997" id="Fill-111" fill="#000F38" mask="url(#mask-5)"></path>
                    </g>
                    <path d="M175.122321,42.6660008 C175.312712,41.3672329 174.656335,35.9437715 174.656335,35.9437715 C174.656335,35.9437715 169.684066,35.5396169 169.264363,30.6266113 C168.842557,25.7125533 168.869906,14.3583323 168.869906,14.3583323 L177.795165,9.7189732 L186.802472,17.0232273 L187.004434,41.6503517 L175.122321,42.6660008 Z" id="Fill-114" fill="#FFBB99"></path>
                    <path d="M170.05696,22.6050878 C170.065375,22.9524083 170.353592,23.2281597 170.700715,23.2197398 C171.048889,23.2113199 171.324483,22.9218862 171.315017,22.5745657 C171.306601,22.2272453 171.018384,21.9514939 170.671262,21.9599138 C170.323087,21.9683337 170.048545,22.2567149 170.05696,22.6050878" id="Fill-116" fill="#000F38"></path>
                    <path d="M169.430351,21.9328649 C169.51345,22.0118014 169.969969,21.6055417 170.64528,21.5529174 C171.321643,21.4897682 171.839172,21.813934 171.907544,21.7213152 C171.942257,21.6802682 171.853898,21.5318677 171.627742,21.3845196 C171.404742,21.238224 171.032375,21.1087682 170.610568,21.1445528 C170.189813,21.1803373 169.844794,21.3718898 169.650195,21.5539699 C169.452441,21.7371025 169.390379,21.8981329 169.430351,21.9328649" id="Fill-118" fill="#000F38"></path>
                    <path d="M177.351374,22.4282702 C177.359789,22.7755906 177.648006,23.051342 177.995129,23.0429221 C178.343303,23.0334497 178.617846,22.7450685 178.609431,22.3977481 C178.601016,22.0504276 178.312799,21.7746762 177.965676,21.7830961 C177.617501,21.791516 177.341907,22.0798972 177.351374,22.4282702" id="Fill-120" fill="#000F38"></path>
                    <path d="M176.943558,21.7509953 C177.026657,21.8299318 177.482124,21.4226196 178.158487,21.3710478 C178.83485,21.3078986 179.352378,21.6320644 179.419699,21.5394456 C179.454411,21.4983986 179.367105,21.3499981 179.139897,21.20265 C178.917949,21.0563544 178.544529,20.9258461 178.123775,20.9616307 C177.701968,20.9974152 177.356949,21.1889677 177.16235,21.3721003 C176.964595,21.5552329 176.903586,21.7162633 176.943558,21.7509953" id="Fill-122" fill="#000F38"></path>
                    <path d="M174.637401,27.5375644 C174.636349,27.5775588 174.210335,27.6080809 173.521349,27.6259732 C173.436146,27.6270257 173.339373,27.6333406 173.225769,27.605976 C173.114269,27.5849262 172.981731,27.4965174 172.927033,27.3660091 C172.821844,27.1018351 172.921774,26.8597633 172.97542,26.649266 C173.105854,26.1977494 173.241547,25.7230782 173.384604,25.2273572 C173.981024,23.2118461 174.526953,21.5962798 174.603741,21.620487 C174.68158,21.6425892 174.261877,23.2949925 173.664406,25.3094511 C173.515038,25.8041196 173.370929,26.2756334 173.234184,26.7260975 C173.162656,26.9429097 173.100594,27.1439345 173.150033,27.2702329 C173.185797,27.3912688 173.350943,27.4144235 173.524505,27.4186334 C174.212439,27.454418 174.637401,27.4975699 174.637401,27.5375644" id="Fill-124" fill="#000F38"></path>
                    <path d="M177.898881,27.793529 C177.930438,28.3545041 178.8014,28.7365566 179.849079,28.7344517 C180.895707,28.7312942 181.757202,28.3450318 181.775084,27.7840566 C181.790862,27.2272914 180.917796,26.7031533 179.822782,26.7063108 C178.726716,26.7084157 177.867325,27.2367638 177.898881,27.793529" id="Fill-126" fill="#FF967E"></path>
                    <path d="M176.979532,28.0915931 C177.026867,28.0347588 175.025126,29.2987948 173.641895,29.3335268 C173.641895,29.3335268 174.524428,30.5386235 175.904504,29.9166041 C177.336122,29.2703776 176.979532,28.0915931 176.979532,28.0915931" id="Fill-128" fill="#F5F0EB"></path>
                    <path d="M174.655914,35.9440873 C174.655914,35.9440873 177.968306,35.9009354 181.118707,33.5844133 C181.118707,33.5844133 179.729164,37.2333829 174.792659,37.149184 L174.655914,35.9440873 Z" id="Fill-130" fill="#FF967E"></path>
                    <path d="M166.648636,15.8409696 C168.193858,17.2797182 170.61425,17.4807431 172.592849,16.7482127 C174.5725,16.0156823 176.164004,14.4927348 177.452566,12.8213867 C179.149259,14.5116796 181.740056,15.2463149 184.069985,14.6948122 C184.423419,19.1773508 184.778957,23.660942 185.133443,28.1424282 C185.779301,28.2518867 186.922702,27.9919227 187.519122,27.7203812 C188.094504,24.6165994 188.2039,21.6833204 188.780334,18.5795387 C188.988608,17.4533785 189.19057,16.2493343 188.740363,15.1957956 C188.258599,14.0685829 187.145702,13.3728895 186.156929,12.6498315 C184.928325,11.7499558 183.807014,10.7079945 182.558424,9.83653591 C181.309834,8.96507735 179.891891,8.25570166 178.372967,8.14519061 C176.827745,8.03257459 175.311976,8.54303039 173.846698,9.04822376 C172.178405,9.62182873 170.470141,10.2175359 169.112155,11.3436961 C167.753117,12.4698564 166.798004,14.2559254 167.15249,15.9851602" id="Fill-132" fill="#000F38"></path>
                    <path d="M186.802998,21.5588113 C187.311059,21.358839 187.832795,21.1546566 188.377672,21.1399218 C188.924653,21.123082 189.509502,21.3335793 189.798771,21.7977257 C190.013356,22.1429412 190.034394,22.5818279 189.938672,22.9775627 C189.786149,23.6132644 189.332785,24.171082 188.741625,24.4531483 C188.150465,24.7352146 187.432026,24.7341622 186.840866,24.4510434" id="Fill-134" fill="#FFBB99"></path>
                    <path d="M179.795223,20.501168 C179.875166,20.4906431 179.928812,20.839016 179.656374,21.1231873 C179.386039,21.408411 179.03576,21.3726265 179.043124,21.2915851 C179.036812,21.2094912 179.259812,21.1242398 179.444944,20.9211099 C179.638492,20.7264 179.712124,20.499063 179.795223,20.501168" id="Fill-136" fill="#000F38"></path>
                    <path d="M189.704943,23.8240773 C189.719669,23.8030276 189.999471,23.9756354 190.51174,24.2619116 C191.01875,24.5545028 191.769797,24.9407652 192.643915,25.5101602 L192.721754,25.5596271 L192.684938,25.6490884 C192.42933,26.2753177 192.093778,26.9573287 191.715099,27.6803867 C191.525759,28.042442 191.330108,28.4160746 191.128146,28.8012845 C190.928287,29.1843895 190.709495,29.5959116 190.432849,29.9663867 L190.36132,30.0632155 L190.25508,30.0169061 C190.103608,29.949547 189.940566,29.8790304 189.775419,29.8074613 C188.411122,29.2517486 187.217231,28.5234282 186.16324,27.9908702 L186.046481,27.9319309 L186.103283,27.8172099 C186.727051,26.5658039 187.147806,25.4659558 187.477047,24.7060608 C187.801028,23.9440608 188.016665,23.5178039 188.040858,23.5283287 C188.067155,23.5388536 187.902009,23.9851077 187.620103,24.762895 C187.331886,25.5364724 186.944792,26.6531602 186.336801,27.9308785 L186.277896,27.7582707 C187.360287,28.2813564 188.539452,28.9886271 189.893231,29.5390773 C190.056273,29.6106464 190.219316,29.681163 190.371839,29.7485221 L190.19407,29.7990414 C190.466509,29.4359337 190.669523,29.0538812 190.874641,28.6676188 C191.080811,28.2845138 191.280669,27.9129862 191.474217,27.5519834 C191.860259,26.8352403 192.204226,26.1690166 192.472457,25.5585746 L192.513481,25.6996077 C191.670919,25.1186354 190.932495,24.7007983 190.443367,24.3724227 C189.948981,24.0514144 189.69232,23.8419696 189.704943,23.8240773" id="Fill-138" fill="#BC8231"></path>
                    <path d="M178.193725,98.258637 C178.193725,98.258637 143.109093,96.0515735 138.694324,103.938905 C134.280607,111.827289 137.388933,181.469248 137.388933,181.469248 L152.304687,182.503841 L153.793107,116.48454 L181.031716,117.186549 L178.193725,98.258637 Z" id="Fill-140" fill="#FFA38D"></path>
                    <path d="M160.525288,99.286495 L160.922901,116.990365 L166.450566,116.990365 L173.751712,99.8316829 C173.751712,99.8316829 162.824712,98.2908431 160.525288,99.286495" id="Fill-142" fill="#000F38"></path>
                    <path d="M205.079531,98.3778837 C205.079531,98.3778837 168.818889,93.9616517 164.405172,101.847931 C159.991455,109.735262 164.417795,180.719141 164.417795,180.719141 L177.802002,180.719141 L179.600729,117.110033 L187.811757,116.787972 C197.697389,117.042674 205.686469,108.784867 205.110035,98.9072843 L205.079531,98.3778837 Z" id="Fill-144" fill="#FFBB99"></path>
                    <path d="M194.442536,59.4656801 L206.413008,57.036542 C206.413008,57.036542 202.445291,39.1937436 188.661366,39.1937436 C175.447564,39.1937436 174.655493,39.7631387 174.655493,39.7631387 C174.655493,39.7631387 159.661899,40.5977602 153.008715,53.7548901 L164.568951,62.2063541 L167.396423,60.4971166 C167.396423,60.4971166 168.318927,79.1092823 166.730578,84.1738459 C164.933956,89.9035807 162.017074,96.8373597 162.017074,96.8373597 L205.079215,98.3781994 L194.442536,59.4656801 C198.580658,59.2141359 202.359036,58.4005641 206.176333,56.7839453" id="Fill-146" fill="#FFE9CF"></path>
                    <path d="M168.592208,60.2550448 C168.742627,61.4980309 167.840108,62.6052464 166.921811,63.4556552 C166.003514,64.3060641 164.953731,65.1575254 164.653943,66.3720945 C164.451981,67.1877713 164.628698,68.0571249 164.957939,68.8296497 C165.807863,70.8293735 167.719142,72.3386387 169.860783,72.7017464" id="Fill-148" fill="#00BCDF"></path>
                    <path d="M154.023996,54.4973138 C154.023996,54.4973138 135.876845,72.7021674 132.414034,76.7763414 C129.461388,80.2516508 131.387392,86.8117972 133.86143,87.094916 C136.334416,87.3769823 176.334515,86.8317945 176.334515,86.8317945 L175.804364,78.6445044 C175.804364,78.6445044 149.898496,78.7623829 149.13693,78.2845541 C148.376416,77.8056729 164.123161,61.8805044 164.123161,61.8805044 L154.023996,54.4973138 Z" id="Fill-150" fill="#FFBB99"></path>
                    <path d="M175.804364,78.6448202 C175.804364,78.6448202 184.371982,79.2194776 185.798341,86.9689334 L176.334515,86.8310577 L175.804364,78.6448202 Z" id="Fill-152" fill="#FFBB99"></path>
                    <path d="M205.560243,57.0339108 C205.560243,57.0339108 211.396111,73.7937008 212.064059,75.7702699 C212.730955,77.746839 216.152743,86.1056843 209.652083,86.8055876 C203.149318,87.5054909 168.245611,86.8055876 168.245611,86.8055876 L165.649554,78.3562285 C165.649554,78.3562285 199.384616,78.2709771 199.21421,76.4680682 C199.042752,74.6651594 194.089417,59.5619826 194.089417,59.5619826 L205.560243,57.0339108 Z" id="Fill-154" fill="#FFBB99"></path>
                    <polygon id="Fill-156" fill="#002665" points="133.860904 52.6595677 146.397291 87.4073992 204.10906 87.3821395 203.708291 85.6844793 181.79223 84.0804903 171.395381 52.1249047"></polygon>
                    <path d="M160.536648,71.2085843 C160.765959,72.4947224 160.061195,73.6945566 158.965129,73.8903191 C157.868011,74.085029 156.792983,73.2009406 156.565775,71.9148025 C156.336464,70.6286644 157.041228,69.4277776 158.137294,69.2330677 C159.234412,69.0373052 160.308389,69.9213936 160.536648,71.2085843" id="Fill-158" fill="#FFFFFF"></path>
                    <path d="M175.0185,39.4767572 C175.0185,39.4767572 173.923485,54.0305362 179.041967,53.9000279 C184.1615,53.7695196 187.00475,39.1936384 187.00475,39.1936384 C183.057018,38.6189809 179.0609,38.7284395 175.0185,39.4767572" id="Fill-160" fill="#FFBB99"></path>
                    <path d="M195.203681,62.544097 C195.054313,62.5777765 194.5452,60.9001135 193.934054,58.8330307 C193.329219,56.7617378 192.83378,55.0840749 192.975785,55.0293456 C193.116738,54.9756688 193.849903,56.5891301 194.458945,58.6772627 C195.076403,60.7632903 195.349893,62.5114699 195.203681,62.544097" id="Fill-162" fill="#D2AA8B"></path>
                    <path d="M187.323787,39.1293315 C187.357447,39.1377514 187.283815,39.5987403 187.082905,40.4175746 C186.881994,41.2353564 186.560117,42.4130884 186.067834,43.8392072 C185.579758,45.265326 184.918122,46.9398315 184.061886,48.7437928 C183.620093,49.6394586 183.186716,50.5856436 182.589244,51.5244613 C181.990721,52.4317044 181.209169,53.417884 179.982669,53.8030939 C178.743546,54.2040912 177.440258,53.6231188 176.675537,52.7979696 C175.866636,51.9559807 175.487957,50.8940221 175.241815,49.9204724 C174.777933,47.9586381 174.611735,46.1588867 174.569659,44.6454116 C174.531792,43.1319365 174.632773,41.91 174.737961,41.0732735 C174.846306,40.236547 174.952546,39.7808204 174.986207,39.7860829 C175.086136,39.7955552 174.794763,41.645826 174.956754,44.6296243 C175.046164,46.1157348 175.252334,47.893384 175.730942,49.794174 C175.978136,50.7277293 176.351556,51.699174 177.060527,52.4232845 C177.753721,53.1484475 178.820334,53.6052265 179.823834,53.2779033 C180.828386,52.9726823 181.567862,52.0949088 182.140089,51.2318702 C182.709159,50.3509392 183.161471,49.4005442 183.608523,48.5227707 C184.480537,46.7493315 185.172678,45.1064006 185.703881,43.7065939 C186.239292,42.3088923 186.614815,41.1553674 186.877787,40.3586354 C187.140758,39.5608508 187.283815,39.1177541 187.323787,39.1293315" id="Fill-164" fill="#D2AA8B"></path>
                    <path d="M205.560243,54.920729 C205.635979,55.0312401 203.240833,56.5331378 199.887417,57.3351323 C196.53821,58.1602815 193.722309,57.9234721 193.739139,57.7898064 C193.737035,57.6203561 196.492979,57.6087787 199.758035,56.8025743 C203.029403,56.022682 205.485559,54.769171 205.560243,54.920729" id="Fill-166" fill="#D2AA8B"></path>
                    <path d="M192.188763,66.3315738 C192.233994,66.3694633 191.805876,66.9925351 190.806584,67.6650738 C189.824122,68.334455 188.205268,68.9912064 186.342376,68.9259522 C184.479485,68.8564881 182.912174,68.0839633 181.981254,67.3440655 C181.034556,66.6010102 180.650617,65.9484688 180.700056,65.9147892 C180.767376,65.853745 181.249141,66.4020903 182.206358,67.0283196 C183.1499,67.6545489 184.634112,68.3134052 186.362362,68.3776069 C188.090612,68.4397036 189.617952,67.8892533 190.604622,67.3335406 C191.604966,66.7788804 192.124598,66.2663196 192.188763,66.3315738" id="Fill-168" fill="#D2AA8B"></path>
                    <path d="M160.525288,154.055877 L179.939962,154.294791 L180.800406,118.699708 C180.800406,118.699708 206.412797,120.210026 205.772198,97.1447909 C205.772198,97.1447909 167.405679,94.6661859 164.568741,97.1447909 C156.873137,103.865968 160.525288,153.495954 160.525288,153.495954" id="Fill-170" fill="#FF6D75"></path>
                    <path d="M133.860904,153.338502 L153.626909,153.338502 L154.819749,116.990891 L167.058451,118.541204 L180.109211,97.9987782 C180.109211,97.9987782 150.56697,91.5007285 138.090541,101.09414 C137.09756,101.858245 136.29497,104.555767 136.231857,105.807173 L133.860904,153.338502 Z" id="Fill-172" fill="#FF6D75"></path>
                    <path d="M176.163899,96.3746867 C176.163899,96.4830928 174.25788,96.3662669 171.225291,96.5683442 C169.715833,96.6935901 167.908692,96.9609215 166.08472,97.7513387 C164.271267,98.5238635 162.448347,99.901568 161.448003,101.959178 C160.430828,104.002054 160.188894,106.245955 160.162597,108.236206 C160.173116,110.246455 160.226762,112.080938 160.200465,113.612306 C160.183635,115.14683 160.118418,116.388764 160.050045,117.243383 C159.980621,118.099054 159.9133,118.569515 159.877536,118.56741 C159.837564,118.565306 159.833357,118.090634 159.837564,117.234963 C159.838616,116.379292 159.844927,115.14262 159.813371,113.61441 C159.76814,112.044101 159.715545,110.228562 159.657692,108.234101 C159.658743,106.202803 159.881743,103.881018 160.958875,101.711844 C162.022333,99.5195155 163.993569,98.0576122 165.885913,97.2861398 C167.800347,96.4894077 169.665342,96.2599657 171.198993,96.1810293 C172.740008,96.1073552 173.982286,96.1768193 174.83747,96.2262862 C175.693706,96.2831204 176.164951,96.3378497 176.163899,96.3746867" id="Fill-174" fill="#C04D59"></path>
                    <path d="M153.303875,112.558767 C153.452191,112.525087 153.800365,113.477587 154.082271,114.685841 C154.36628,115.897253 154.474625,116.905535 154.328412,116.939214 C154.181148,116.973946 153.831922,116.021446 153.548964,114.81214 C153.267058,113.601781 153.15661,112.593499 153.303875,112.558767" id="Fill-176" fill="#C04D59"></path>
                    <path d="M154.696783,111.148541 C154.83984,111.123281 155.198533,112.547295 155.159613,114.345994 C155.129108,116.144693 154.715717,117.555024 154.574764,117.523449 C154.419085,117.492927 154.583179,116.078386 154.612632,114.334416 C154.6505,112.592552 154.541104,111.172748 154.696783,111.148541" id="Fill-178" fill="#C04D59"></path>
                    <path d="M179.552763,113.567049 C179.698975,113.529159 180.174428,114.858449 180.614117,116.536112 C181.053805,118.214828 181.291532,119.606214 181.145319,119.644104 C180.999107,119.684098 180.523654,118.353756 180.083966,116.67504 C179.644277,114.996325 179.405499,113.604938 179.552763,113.567049" id="Fill-180" fill="#C04D59"></path>
                    <path d="M181.273334,113.557787 C181.418494,113.538842 181.690933,114.916546 181.595211,116.634204 C181.504749,118.351861 181.081891,119.690624 180.940938,119.656944 C180.787362,119.624317 180.960924,118.271872 181.04823,116.604734 C181.1429,114.937596 181.117655,113.573574 181.273334,113.557787" id="Fill-182" fill="#C04D59"></path>
                    <path d="M164.475017,180.741138 C164.475017,180.741138 156.1304,182.185149 158.55605,182.920836 C160.981701,183.656524 177.937065,182.30829 177.937065,182.30829 L177.937065,180.387502 L164.475017,180.741138 Z" id="Fill-184" fill="#004397"></path>
                    <path d="M136.882554,181.470931 C136.882554,181.470931 127.82055,182.529733 130.26829,183.266473 C132.717083,184.002161 152.280073,183.395929 152.280073,183.395929 L152.280073,181.475141 L136.882554,181.470931 Z" id="Fill-186" fill="#004397"></path>
                    <polygon id="Fill-188" fill="#B79480" points="55.320725 91.8636257 314.709697 91.8636257 314.709697 85.9865428 53.9154042 85.9865428"></polygon>
                    <path d="M42.6770458,35.0817854 C47.3011401,35.7448517 52.0998476,35.1596693 56.4273099,33.4072798 C58.1050693,32.7273738 59.9143146,31.6033185 60.1320552,29.8151445 C60.3403288,28.1006445 58.9781354,26.575592 58.8003665,24.858987 C58.6615175,23.5191721 59.2537297,22.2277715 59.5840222,20.9216362 C59.9143146,19.6165533 59.8953807,18.0241417 58.8487533,17.1695229 C57.7232344,16.2507025 56.0286448,16.6474898 54.6559325,16.1686086 C52.5269137,15.4255533 51.7558807,12.9185312 50.8154939,10.880918 C48.2078665,5.2311721 42.0353948,1.40327983 35.7829797,1.56325773 C29.5316165,1.72428812 23.5642627,5.86055884 21.2522156,11.6376555 L42.6770458,35.0817854 Z" id="Fill-190" fill="#000F38"></path>
                    <path d="M33.4248302,35.8096544 C38.0489245,36.4727207 42.8476321,35.8875384 47.1750943,34.1351489 C48.8528538,33.4552428 50.6620991,32.3311875 50.8798396,30.5430135 C51.0881132,28.8285135 49.7259198,27.303461 49.5481509,25.5868561 C49.4093019,24.2470411 50.0015142,22.9556406 50.3318066,21.6495052 C50.6620991,20.3444224 50.6431651,18.7520107 49.5965377,17.897392 C48.4710189,16.9785715 46.7764292,17.3753588 45.403717,16.8964776 C43.2746981,16.1534224 42.5036651,13.6464003 41.5632783,11.608787 C38.9556509,5.95904114 32.7831792,2.13114887 26.5307642,2.29112677 C20.2794009,2.45215716 14.3120472,6.58842788 12,12.3655246 L33.4248302,35.8096544 Z" id="Fill-190-Copy" fill="#000F38" transform="translate(31.450719, 19.180826) scale(-1, 1) translate(-31.450719, -19.180826) "></path>
                    <polygon id="Fill-192" fill="#B79480" points="20.2407212 127.081813 2.07568821 189.46688 0.000315566038 189.46688 13.9378156 126.870264"></polygon>
                    <polygon id="Fill-194" fill="#B79480" points="53.0777868 127.917382 66.8112208 188.517432 64.3750509 188.517432 45.9933292 127.898437"></polygon>
                    <polygon id="Fill-196" fill="#B79480" points="36.8711566 126.870053 34.7547604 189.303534 31.8536566 189.303534 30.5798217 127.111072"></polygon>
                    <polygon id="Fill-198" fill="#B79480" points="53.6956651 152.585027 12.2166132 151.285207 11.9431226 155.582508 56.8081981 157.303323"></polygon>
                    <polygon id="Fill-200" fill="#000F38" points="53.0777868 127.917382 53.7131264 130.72331 46.850617 130.72331 45.9933292 127.898437"></polygon>
                    <polygon id="Fill-202" fill="#000F38" points="36.8433868 127.686151 36.7403019 130.723626 30.6540849 130.723626 30.5794009 127.111493"></polygon>
                    <polyline id="Fill-204" fill="#000F38" points="36.0184972 152.031104 35.8670255 156.49996 38.5072613 156.49996 39.5339028 152.140562 35.3189925 152.031104"></polyline>
                    <polygon id="Fill-206" fill="#000F38" points="31.0867259 151.875862 31.0867259 156.316301 29.0849854 156.23947 28.5043439 151.79482"></polygon>
                    <polygon id="Fill-208" fill="#000F38" points="20.2407212 127.081813 19.5917071 129.310979 13.3939901 129.310979 13.9378156 126.870264"></polygon>
                    <path d="M66.8113259,121.451433 C58.8285571,116.789972 35.2463071,120.858883 35.2463071,120.858883 C35.2463071,120.858883 44.3430241,38.1387315 35.6397127,37.4693503 C26.9364014,36.7989166 7.45650991,30.597668 3.66866557,43.1738254 C-0.119178774,55.7489304 4.93303349,126.806483 9.97051934,126.806483 C21.4508118,126.806483 56.4197363,129.300875 66.9796278,126.812798 C69.700859,126.170781 66.8113259,121.451433 66.8113259,121.451433" id="Fill-210" fill="#053142"></path>
                    <path d="M11.1671458,44.6178365 C11.1303297,44.5957343 10.9630797,44.8251762 10.6759146,45.2851127 C10.5254948,45.5124497 10.3698156,45.8081983 10.1878392,46.1607812 C9.99744764,46.5081017 9.81231557,46.9248862 9.60614575,47.398505 C8.78462217,49.2856127 7.93680142,52.1873171 7.55075896,55.8510215 C7.14473066,59.5136735 7.11948538,63.8772812 7.20048066,68.7060878 C7.28357972,73.5391044 7.57600425,78.8446873 8.0093816,84.3986569 C8.45012217,89.953679 8.98237689,95.2329497 9.48412689,100.027024 C9.97956557,104.821099 10.4655373,109.15629 11.1419005,112.760002 C11.8024854,116.367925 12.624009,119.23174 13.3161505,121.159894 C14.0146033,123.089102 14.5363392,124.098436 14.602608,124.071071 C14.6930703,124.035287 14.3217542,122.969118 13.7695137,121.015704 C13.2225325,119.060185 12.5377542,116.20479 11.9928769,112.616864 C11.4332731,109.031044 11.0377637,104.72006 10.6043863,99.9175657 C10.1636458,95.1161238 9.66715519,89.8421155 9.22641462,84.3018282 C8.79619292,78.7636459 8.47010802,73.4843751 8.32599953,68.6766182 C8.18399481,63.8709663 8.1208816,59.5336707 8.41015047,55.9331155 C8.68048538,52.3262453 9.37999009,49.4729552 10.0489901,47.5700602 C10.719042,45.6629552 11.2586599,44.6683558 11.1671458,44.6178365" id="Fill-212" fill="#014B60"></path>
                    <path d="M97.9288722,76.0444425 L100.096811,74.8824978 C100.096811,74.8824978 101.50108,74.3825669 103.772103,73.0006525 C104.36116,72.6428072 104.891311,72.1870807 105.343622,71.6618901 C105.893759,71.0261884 106.592212,70.1547298 106.83625,69.5737575 C107.139193,68.8517519 108.13007,68.7928127 108.282594,69.4474591 C108.434066,70.1021055 107.647254,72.1039343 105.824334,73.8931608 C104.001415,75.6834398 107.843957,75.1466718 109.24507,74.9761691 C110.646183,74.8056663 114.98732,74.4804481 115.340754,74.865658 C115.859334,75.4308431 115.293419,76.1496912 113.893358,76.2865144 C112.475415,76.426495 108.294165,77.1337657 108.352018,77.8641912 C108.406717,78.5819867 115.538509,77.6168569 115.538509,77.6168569 C115.538509,77.6168569 117.052174,77.1653403 117.145792,78.0041718 C117.315146,79.5165945 109.712108,79.9891608 108.98841,80.0165254 C108.485608,80.0354702 108.519268,80.8332547 109.059938,80.7837878 C109.617438,80.7332685 116.165433,79.6576276 116.353721,81.1942575 C116.496778,82.373042 110.097099,81.6405116 108.791707,82.6098514 C107.487367,83.5781387 113.74925,82.6645807 113.83866,83.8002133 C113.873372,84.2233127 113.83866,84.5495834 110.215962,84.5611608 C106.504905,84.5727381 96.6003392,82.9624343 96.6003392,82.9624343 L98.0340608,75.9402464" id="Fill-214" fill="#FFBB99"></path>
                    <path d="M50.6308877,44.9097961 C50.6308877,44.9097961 69.2913594,69.9936994 73.5725387,71.1124923 C77.8537179,72.2323376 102.315345,73.7016083 102.315345,73.7016083 L104.493803,84.3043541 C104.493803,84.3043541 73.179133,85.9578099 66.2829632,80.8648293 C55.4474774,72.8617243 44.0618547,54.4495309 44.0618547,54.4495309 C43.7757415,48.3777381 46.0919962,45.3455254 50.6308877,44.9097961" id="Fill-216" fill="#EE7022"></path>
                    <path d="M101.275029,174.950359 L100.961567,184.326958 C100.961567,184.326958 112.246208,186.760306 109.689072,187.62124 C107.130883,188.482173 88.9521755,187.573878 88.9521755,187.573878 C88.9521755,187.573878 89.1046991,176.112303 88.9732132,176.124933 C88.8406755,176.137563 101.275029,174.950359 101.275029,174.950359" id="Fill-218" fill="#685347"></path>
                    <path d="M70.7070939,167.244897 L65.7632259,175.57322 C65.7632259,175.57322 72.666759,183.249002 70.0906882,182.44385 C67.5146175,181.640803 54.3828627,170.58233 54.3828627,170.58233 C54.3828627,170.58233 60.169292,161.040491 60.0556882,160.974184 C59.9410325,160.907877 70.7070939,167.244897 70.7070939,167.244897" id="Fill-220" fill="#685347"></path>
                    <polygon id="Fill-222" fill="#00326F" points="83.1253538 111.636789 58.8288726 162.871817 69.7716509 169.034123 99.5095425 125.67906 97.9180377 110.573778"></polygon>
                    <path d="M25.6809745,91.8112119 C25.6809745,91.8112119 15.2851774,114.03972 35.7832953,121.669193 L46.7208142,97.8851097 L25.6809745,91.8112119 Z" id="Fill-224" fill="#004397"></path>
                    <path d="M39.6133203,97.8300646 C39.6133203,97.8300646 97.7332212,81.9648878 104.356952,95.6261586 C110.981735,109.287429 102.129056,176.962291 102.129056,176.962291 L88.2714995,176.962291 C88.2714995,176.962291 88.0463958,115.851786 85.0022354,113.642617 C83.1603816,112.307012 68.2930137,115.511833 54.3839146,118.5672 C45.3471552,120.553241 37.4106693,121.798333 35.6719005,121.710976 C24.9510703,121.172103 17.2449476,100.834913 39.6133203,97.8300646" id="Fill-226" fill="#004397"></path>
                    <path d="M38.6800863,38.2073536 C46.4493222,38.3725939 52.3283175,43.7644807 52.592341,51.0476851 C52.8258599,57.5099503 53.7020816,66.6792099 53.7336382,74.2392182 C53.7504684,78.3470718 58.6943363,93.4639309 58.6943363,93.4639309 L52.3283175,95.7204613 C44.2088033,97.077116 38.998808,97.4033867 31.0528552,95.25 L25.0812939,93.6323287 C25.0812939,93.6323287 21.6384684,75.6600746 19.6882703,58.7876685 C18.0588976,44.6864586 20.7464684,39.2135304 29.2909448,38.0084337 L38.6800863,38.2073536 Z" id="Fill-228" fill="#EE7022"></path>
                    <path d="M42.7674028,39.2136356 C42.5044311,37.8496135 42.9409642,32.0872517 42.9409642,32.0872517 C42.9409642,32.0872517 48.1751528,31.4241854 48.3855302,26.2112213 C48.5969594,20.9993097 48.0289406,9.00096713 48.0289406,9.00096713 L38.3757755,4.52474337 L28.029417,12.7109809 L24.9189877,21.0266743 L29.4778651,25.277666 L30.5497377,38.3221798 L42.7674028,39.2136356 Z" id="Fill-230" fill="#FFBB99"></path>
                    <path d="M47.1666038,17.7733343 C47.173967,18.1417044 46.8815425,18.4458729 46.514434,18.4532403 C46.1462736,18.4606077 45.8422783,18.1690691 45.8349151,17.8006989 C45.8275519,17.4323287 46.1189245,17.1281602 46.4870849,17.1207928 C46.8541934,17.1123729 47.1592406,17.4049641 47.1666038,17.7733343" id="Fill-232" fill="#000F38"></path>
                    <path d="M47.7962632,17.0333312 C47.7121123,17.1217401 47.2114142,16.7123229 46.4940274,16.6891682 C45.7766406,16.6554887 45.2443858,17.0217539 45.1675981,16.9270301 C45.1307821,16.8849307 45.2159849,16.7249528 45.4484519,16.5586599 C45.6767113,16.3934196 46.0638057,16.2376517 46.5108575,16.2565964 C46.9589613,16.2734362 47.3323811,16.4597262 47.5459142,16.6428588 C47.7647066,16.8280964 47.8372868,16.9943892 47.7962632,17.0333312" id="Fill-234" fill="#000F38"></path>
                    <path d="M39.1484915,17.388861 C39.4556425,17.5909384 39.5429491,18.003513 39.3409868,18.3118914 C39.1400764,18.6202699 38.7266849,18.7065738 38.419534,18.5055489 C38.1113311,18.3034715 38.0250764,17.890897 38.2270387,17.5825185 C38.4279491,17.2741401 38.8413406,17.1878362 39.1484915,17.388861" id="Fill-236" fill="#000F38"></path>
                    <path d="M39.8485222,17.198782 C39.7643712,17.2861384 39.2636731,16.8777738 38.5462863,16.8546191 C37.8288995,16.8209395 37.2976967,17.1872047 37.2198571,17.0924809 C37.183041,17.0503815 37.2682439,16.8904036 37.5007108,16.7241108 C37.7289703,16.557818 38.1171165,16.4031025 38.5641684,16.4209948 C39.0112203,16.438887 39.3846401,16.6241246 39.5981731,16.8083097 C39.8169656,16.9924948 39.8895458,17.1598401 39.8485222,17.198782" id="Fill-238" fill="#000F38"></path>
                    <path d="M42.5603915,23.203321 C42.5624953,23.2370006 43.0137547,23.2412105 43.7416604,23.2212133 C43.8321226,23.2180558 43.9341557,23.2180558 44.0477594,23.1854287 C44.1603113,23.1570116 44.2865377,23.0643928 44.3349245,22.9307271 C44.4264387,22.6623431 44.3138868,22.4171138 44.246566,22.1960917 C44.088783,21.7308928 43.9204811,21.2330669 43.7437642,20.7131387 C43.3808632,19.6627575 43.0400519,18.7155199 42.7802358,18.0345613 C42.5214717,17.3525503 42.3458066,16.9378707 42.31425,16.9494481 C42.2826934,16.9589204 42.4005047,17.3946497 42.6171934,18.0913956 C42.834934,18.787089 43.1505,19.7416939 43.5134009,20.7920751 C43.6953774,21.3109508 43.8699906,21.8056193 44.033033,22.2697657 C44.117184,22.4939453 44.1960755,22.7076 44.144533,22.8602105 C44.1024575,23.008611 43.912066,23.0359757 43.7311415,23.0486055 C43.0063915,23.1128072 42.5582877,23.1706939 42.5603915,23.203321" id="Fill-240" fill="#000F38"></path>
                    <path d="M39.2049778,21.4857688 C39.1976146,22.079371 38.2950958,22.5235202 37.1885108,22.5719345 C36.0829778,22.6182439 35.1531099,22.2530312 35.1089307,21.6604815 C35.0636995,21.0721417 35.9620108,20.4764345 37.1201382,20.4280202 C38.2772137,20.3775008 39.2112892,20.895324 39.2049778,21.4857688" id="Fill-242" fill="#FF967E"></path>
                    <path d="M40.2065844,23.9319572 C39.4713156,23.4657058 42.2346222,25.0844296 43.6977967,25.052855 C43.6977967,25.052855 42.821575,26.3695152 41.335259,25.778018 C39.7910892,25.163366 40.2065844,23.9319572 40.2065844,23.9319572" id="Fill-244" fill="#F5F0EB"></path>
                    <path d="M42.9405434,32.0877779 C42.9405434,32.0877779 39.4377604,32.1993414 35.9991425,29.9017641 C35.9991425,29.9017641 37.6400858,33.6917669 42.8532368,33.3686536 L42.9405434,32.0877779 Z" id="Fill-246" fill="#FF967E"></path>
                    <path d="M80.7365189,76.6878273 L82.7161698,75.2290815 C82.7161698,75.2290815 84.0352358,74.5333881 86.0864151,72.8420428 C86.6186698,72.4031561 87.0772925,71.876913 87.4517642,71.2927831 C87.9051274,70.5855124 88.4720943,69.6224876 88.6309292,69.0120456 C88.8276321,68.255308 89.8006274,68.0553356 90.0446651,68.6815649 C90.2876509,69.3077942 89.794316,71.4011892 88.2448868,73.4324876 C86.6965094,75.4648384 90.4222925,74.3849876 91.7855377,74.0166174 C93.1477311,73.6471948 97.3984057,72.7052196 97.8033821,73.0367528 C98.3966462,73.5219489 97.9390755,74.314471 96.5726745,74.6502141 C95.1894434,74.9922721 91.1523019,76.2868301 91.3121887,77.0014682 C91.4699717,77.704529 98.3903349,75.7321699 98.3903349,75.7321699 C98.3903349,75.7321699 99.8240566,75.0701561 100.036538,75.8858329 C100.420476,77.3593135 92.9615472,78.9117307 92.2494198,79.0411865 C91.755033,79.1327528 91.9012453,79.916855 92.4292925,79.7916091 C92.9741698,79.6611008 99.3023208,77.6624296 99.7072972,79.1569599 C100.017604,80.3031174 93.5779528,80.4915124 92.4250849,81.6366174 C91.272217,82.7817224 97.3384481,80.9830235 97.5898491,82.0955014 C97.683467,82.508076 97.6960896,82.8364517 94.1112594,83.3647997 C90.4401745,83.9047251 80.4083302,83.7258025 80.4083302,83.7258025 L80.8259292,76.5710014" id="Fill-248" fill="#FFBB99"></path>
                    <path d="M48.0941575,8.93613398 C46.0072142,11.4915704 42.9125632,13.1997555 39.6401434,13.6060152 C36.5044689,13.9933301 33.1079264,13.2713246 30.3141151,14.7469102 C29.9196575,12.1472693 31.3418085,9.47184945 33.502384,7.9741616 C35.6650632,6.47752624 38.4399406,6.05337431 41.0486198,6.37543508 C43.6572991,6.69960083 46.1323887,7.71314503 48.4833557,8.89087707" id="Fill-250" fill="#000F38"></path>
                    <path d="M60.6849269,163.916725 C60.7017571,163.924092 60.7985307,163.758852 60.9668325,163.435739 C61.1403939,163.094733 61.3812759,162.620062 61.6863231,162.016987 C62.0071486,161.398125 62.3952948,160.649808 62.8455024,159.783612 C63.3051769,158.914258 63.8269127,157.927026 64.4033467,156.83665 C66.7553656,152.47199 69.9878137,146.469661 73.5589693,139.840051 C77.1374882,133.199915 80.3436392,127.170222 82.5831061,122.761357 C83.1342948,121.658352 83.633941,120.657438 84.0736297,119.776507 C84.4933325,118.894523 84.8562335,118.130418 85.1549693,117.498927 C85.4400307,116.86954 85.6472524,116.372766 85.7871533,116.037023 C85.9249505,115.699175 85.9901675,115.5192 85.9733373,115.511833 C85.9565071,115.504465 85.8597335,115.669706 85.6903797,115.992819 C85.5178703,116.333824 85.2769882,116.808496 84.971941,117.410518 C84.6511156,118.02938 84.2629693,118.777697 83.8127618,119.644946 C83.3530873,120.514299 82.8313514,121.501531 82.2549175,122.589802 C79.9039505,126.956567 76.6704505,132.958896 73.0982429,139.591664 C69.5207759,146.228642 66.314625,152.258335 64.075158,156.666148 C63.5239693,157.770206 63.0243231,158.770067 62.5846344,159.652051 C62.1649316,160.534034 61.8020307,161.298139 61.5032948,161.928578 C61.2171816,162.559018 61.0110118,163.056844 60.8711108,163.392587 C60.7322618,163.729382 60.6680967,163.909357 60.6849269,163.916725" id="Fill-252" fill="#004397"></path>
                    <path d="M54.2421203,85.3524199 C54.2421203,85.3524199 37.249941,84.2799365 32.1524976,78.0397459 C27.0550542,71.7985028 20.4355307,60.5200608 20.4355307,60.5200608 L19.1101533,52.6327293 L54.2421203,85.3524199 Z" id="Fill-254" fill="#C45A17"></path>
                    <path d="M85.8033524,113.123005 C85.9001259,113.230358 86.8299939,112.54098 87.8776731,111.58427 C88.0070552,111.464286 88.1322297,111.34746 88.2574042,111.230635 L87.8966071,110.865422 C87.1161071,111.740038 86.5922675,112.455728 86.6848335,112.542032 C86.7773995,112.628336 87.4548146,112.055784 88.2721307,111.2159 L87.9113335,110.85174 C87.7840552,110.965408 87.6567769,111.080129 87.525291,111.196955 C86.4765599,112.153665 85.7055269,113.015651 85.8033524,113.123005" id="Fill-256" fill="#00326F"></path>
                    <path d="M85.2501651,113.559786 C85.3921698,113.588204 85.7193066,112.591499 85.9822783,111.332726 C86.24525,110.0729 86.3441274,109.028833 86.2021226,108.999364 C86.0611698,108.969894 85.7329811,109.966599 85.4700094,111.225372 C85.2070377,112.485198 85.1092123,113.530317 85.2501651,113.559786" id="Fill-258" fill="#00326F"></path>
                    <path d="M25.9526769,42.2919472 C25.9526769,42.2919472 46.7632052,69.855508 51.5019552,71.0584997 C56.2396533,72.2625439 83.2731439,73.6928727 83.2731439,73.6928727 L85.761908,85.3880992 C85.761908,85.3880992 51.1821816,87.4604445 43.5254976,81.8885826 C34.2720495,75.154776 24.6125731,61.625066 20.6438042,55.7332483 C18.9681486,53.247276 18.4043373,50.1150771 19.3583986,47.2712594 C20.3724175,44.2485191 22.6129363,42.6371627 25.9526769,42.2919472" id="Fill-260" fill="#FF8A32"></path>
                    <path d="M15.6248316,123.967507 C15.6932042,124.314827 21.1135769,123.463366 27.8361854,122.924493 C34.5598458,122.363518 40.0454354,122.323523 40.0570061,121.968835 C40.0759401,121.64888 34.5451193,121.138424 27.737308,121.706766 C20.9294967,122.253007 15.5543552,123.654918 15.6248316,123.967507" id="Fill-262" fill="#014B60"></path>
                    <path d="M17.6885283,69.1189782 C17.7432264,69.1621301 17.9409811,69.096876 18.0314434,68.7579754 C18.1155943,68.4222323 17.9483443,67.8970417 17.4697358,67.5507738 C17.2309575,67.3813235 16.8954057,67.2371329 16.4788585,67.2760749 C16.2642736,67.3034395 16.0717783,67.3707986 15.9045283,67.4697323 C15.7288632,67.5655086 15.5700283,67.7002268 15.4374906,67.8559948 C14.9136509,68.4895914 14.7705943,69.3694699 15.0546038,70.2104064 C15.3512358,71.0229257 16.00025,71.644945 16.8049434,71.8165003 C17.0026981,71.8564948 17.2067642,71.8670196 17.3992594,71.839655 C17.5896509,71.8228152 17.8042358,71.7459837 17.9672783,71.6575749 C18.2975708,71.4628649 18.5016368,71.1934285 18.6268113,70.9355693 C18.8740047,70.4124837 18.7982689,69.8872931 18.5963066,69.625224 C18.3964481,69.3599975 18.1997453,69.3515776 18.1566179,69.4084119 C18.0987642,69.4768235 18.1576698,69.6199616 18.1566179,69.8073041 C18.1629292,69.9883318 18.0892972,70.2525058 17.8852311,70.4914202 C17.78425,70.6071936 17.6496085,70.7061273 17.5181226,70.7492793 C17.4465943,70.7629616 17.403467,70.774539 17.3172123,70.768224 C17.2351651,70.768224 17.1531179,70.7492793 17.0700189,70.7219146 C16.7376226,70.6198235 16.3610472,70.2493483 16.2053679,69.8009892 C16.0486368,69.3747323 16.1233208,68.8400693 16.3179198,68.558003 C16.5356604,68.2612019 16.7239481,68.1927903 17.0289953,68.2948815 C17.3161604,68.4011826 17.4907736,68.6043124 17.5559906,68.7569229 C17.6275189,68.9169008 17.6127925,69.0726688 17.6885283,69.1189782" id="Fill-264" fill="#014B60"></path>
                    <path d="M29.6804585,27.7462724 C30.4125717,27.5673497 29.4585104,24.0309961 29.4795481,23.2763635 C27.715534,23.6310514 25.8989255,21.7997254 26.2649821,20.0378635 C26.6320906,18.2760017 29.0293406,17.3235017 30.5040858,18.3528331 C30.7333972,16.1068276 31.1194396,13.5777033 32.9633972,12.2757779 C34.1215245,11.4569436 35.6088925,11.3222254 37.0089538,11.0990983 C40.6611047,10.5170735 44.1880811,9.1593663 47.2900953,7.14280276 C44.7035057,3.99481657 40.5759019,2.31925856 36.5029962,2.26452928 C36.5029962,2.26452928 24.5640811,3.3528 21.6072274,10.8338718 C18.6493217,18.3138912 24.1307038,29.1008221 29.6804585,27.7462724" id="Fill-266" fill="#000F38"></path>
                    <path d="M45.3869165,7.51159392 C45.4174212,7.52738122 45.3216995,7.80523757 45.0902844,8.28201381 C44.8588693,8.76089503 44.4728269,9.42922376 43.9111193,10.1985912 C42.8003269,11.7341685 40.8648552,13.6444309 38.2214637,14.9221492 C35.5780722,16.1998674 32.8778788,16.5292956 30.9855344,16.4440442 C30.0335769,16.4072072 29.270959,16.2945912 28.7534307,16.1777652 C28.2348505,16.0630442 27.9582042,15.965163 27.9645156,15.9314834 C27.9813458,15.8367597 29.1279024,16.081989 30.989742,16.0567293 C32.8400108,16.040942 35.4339637,15.6609945 37.9826854,14.4274807 C40.532459,13.1960718 42.4426854,11.4005304 43.6050203,9.96072928 C44.7810297,8.51671823 45.3027656,7.46633702 45.3869165,7.51159392" id="Fill-268" fill="#000F38"></path>
                    <path d="M19.3582934,47.2716804 C19.3582934,47.2716804 20.5742745,37.9698075 30.4756849,37.4161997 C40.3770953,36.8615395 49.8745811,39.6169483 51.9688877,46.6054566 L19.3582934,47.2716804 Z" id="Fill-270" fill="#FFBB99"></path>
                    <path d="M19.3434618,47.1083345 C18.8332967,48.557608 18.3147165,50.0931854 18.6092448,51.6013981 C18.9037731,53.1085583 20.3406505,54.5083649 21.8395892,54.1768318 C23.6519901,53.7758345 24.5587165,51.2140831 26.4142448,51.2382903 C27.7995797,51.2540776 28.6537118,52.7065086 29.7876458,53.5011356 C31.1151269,54.4315334 33.0369241,54.4073262 34.3402118,53.4453539 C35.4773014,52.6044174 36.2052071,51.1277793 37.5758156,50.7836163 C40.2528675,50.1110776 42.2325184,54.2789229 44.959009,53.8442461 C47.1090656,53.5011356 48.3702778,50.3920914 50.5098156,50.7962461 C51.9950797,51.0772599 52.7903061,52.9906798 54.2934524,53.1506577 C55.4421127,53.2737986 56.4740137,52.1707931 56.5423863,51.0162157 C56.610759,49.8616384 55.9154618,48.7691577 55.0013722,48.0608345 C54.0883344,47.3514588 52.9754382,46.9588815 51.8846316,46.578934 L19.3434618,47.1083345 Z" id="Fill-272" fill="#FF8A32"></path>
                    <path d="M51.9067212,53.7644677 C51.9982354,53.7634152 52.0055986,54.7527522 51.9561599,56.3177992 C51.9509005,56.7082715 51.9435373,57.1366334 51.9666788,57.5870975 C51.9803533,57.8102246 51.9982354,58.0438765 52.0455703,58.2585837 C52.0697637,58.3617273 52.1034241,58.4690809 52.1402401,58.5217052 C52.1907307,58.6006417 52.280141,58.6985229 52.3611363,58.7806169 C53.0301363,59.4857826 54.1535514,59.8162633 55.1665184,60.5982605 C55.6714241,60.9876804 56.0753486,61.553918 56.2320797,62.1559401 C56.4003816,62.7537522 56.3814476,63.3578793 56.2657401,63.8956997 C56.034325,64.9892329 55.4063486,65.8038572 54.8488486,66.3700948 C54.2808297,66.9426472 53.7559382,67.3183848 53.395141,67.572034 C53.0290844,67.8225257 52.8155514,67.9425091 52.7924099,67.9130395 C52.7250892,67.8372605 53.5266269,67.2457633 54.5637873,66.1069732 C55.0644854,65.5302108 55.5946363,64.7650533 55.7703014,63.796766 C55.9670042,62.842161 55.7397967,61.699161 54.8236033,61.0255699 C53.9452778,60.3277715 52.7755797,59.9688738 51.9971835,59.1300423 C51.899358,59.0237412 51.8152071,58.9300699 51.7300042,58.7953517 C51.630075,58.6322163 51.6037778,58.4922356 51.574325,58.3564649 C51.5248863,58.0870285 51.5175231,57.8407467 51.5122637,57.6018323 C51.509108,57.127161 51.5385608,56.6935367 51.5690656,56.2978019 C51.7194854,54.7211776 51.8467637,53.7676251 51.9067212,53.7644677" id="Fill-274" fill="#D36119"></path>
                    <path d="M34.7816887,53.7068967 C34.8058821,53.7037392 34.8237642,54.023695 34.4755896,54.4299547 C34.1347783,54.8204271 33.3858349,55.1982696 32.4391368,55.0677613 C31.4861274,54.9256757 30.587816,54.2299823 29.71475,53.4995569 C28.8627217,52.8007061 27.7498255,51.9923967 26.5643491,52.3186674 C25.3925472,52.6480956 24.520533,53.7363663 23.3297972,54.1436785 C22.1359057,54.562568 20.9683113,54.2762917 20.1815,53.8405624 C19.3736509,53.4006232 18.8929387,52.7975486 18.6604717,52.3544519 C18.4311604,51.9008304 18.4059151,51.6177116 18.4301085,51.6113967 C18.4763915,51.5945569 18.5731651,51.8513635 18.8413962,52.2418359 C19.1148868,52.6259934 19.6008585,53.1364492 20.3571651,53.495347 C21.0966415,53.8531923 22.1495802,54.0542171 23.1562358,53.6700597 C24.1786698,53.3227392 24.9980896,52.2271011 26.4244481,51.7892669 C27.1460425,51.5819271 27.9076085,51.7482199 28.4998208,52.0418635 C29.1004481,52.3365597 29.5969387,52.731242 30.0376792,53.112242 C30.9023302,53.8752945 31.702816,54.521521 32.5064575,54.6867613 C33.3069434,54.8435818 33.9906698,54.5730928 34.3262217,54.2773442 C34.6722925,53.9731757 34.7354057,53.6890044 34.7816887,53.7068967" id="Fill-276" fill="#D36119"></path>
                    <path d="M51.4557774,71.1068088 C51.5809519,71.1920602 51.2748528,71.8656514 50.7720509,72.6118641 C50.2692491,73.3580768 49.7601358,73.8927398 49.6349613,73.8085409 C49.5087349,73.724342 49.814834,73.0518033 50.3176358,72.3055906 C50.8204377,71.5593779 51.3306028,71.0226099 51.4557774,71.1068088" id="Fill-278" fill="#D36119"></path>
                    <path d="M51.1178061,74.5592793 C50.9673863,74.541387 50.9263627,73.8383262 51.026292,72.9910749 C51.1251693,72.1417185 51.3281835,71.4681273 51.4786033,71.4860196 C51.6279712,71.5039119 51.6689948,72.2059202 51.5701175,73.054224 C51.4701882,73.9025279 51.2682259,74.5771715 51.1178061,74.5592793" id="Fill-280" fill="#D36119"></path>
                </g>
            </g>
        </g>
    </g>
</svg>