<?xml version="1.0" encoding="UTF-8"?>
<svg width="10px" height="9px" viewBox="0 0 10 9" version="1.1" xmlns="http://www.w3.org/2000/svg" xmlns:xlink="http://www.w3.org/1999/xlink">
    <!-- Generator: sketchtool 49.2 (51160) - http://www.bohemiancoding.com/sketch -->
    <title>1A372911-E684-43CF-A100-969C462A1604</title>
    <desc>Created with sketchtool.</desc>
    <defs></defs>
    <g id="Company-Screens" stroke="none" stroke-width="1" fill="none" fill-rule="evenodd">
        <g id="A_DG_Home_Company-NewList_selected_z" transform="translate(-1182.000000, -886.000000)" fill="#FFFFFF">
            <g id="List" transform="translate(465.000000, 384.000000)">
                <g id="L1-Copy-4" transform="translate(0.000000, 440.000000)">
                    <g id="1-copy" transform="translate(18.000000, 15.000000)">
                        <g id="content" transform="translate(75.000000, 0.000000)">
                            <g id="social-logos" transform="translate(575.000000, 43.000000)">
                                <path d="M58.8340848,5.5035337 C58.4775402,5.66196431 58.094641,5.7688974 57.6917486,5.81645688 C58.102517,5.57048048 58.4178636,5.18091688 58.5666006,4.71683334 C58.1821867,4.94433121 57.7565749,5.11033498 57.3040025,5.19909248 C56.9410965,4.81286107 56.4243037,4.57142857 55.8520754,4.57142857 C54.7539665,4.57142857 53.8642711,5.46142691 53.8642711,6.55953581 C53.8642711,6.71524008 53.8815379,6.86730924 53.9154656,7.012714 C52.2630011,6.92971211 50.7980481,6.13816492 49.8171717,4.93524341 C49.6463211,5.22908221 49.5481729,5.57048048 49.5481729,5.93490118 C49.5481729,6.62496796 49.8992649,7.23324456 50.4324157,7.59009209 C50.1067696,7.57948966 49.8002079,7.49042924 49.5321178,7.34138936 C49.5318149,7.34956837 49.5318149,7.35835325 49.5318149,7.36622934 C49.5318149,8.32983884 50.2170348,9.13320017 51.1267234,9.31616783 C50.9601138,9.36100097 50.7844164,9.38553802 50.6029633,9.38553802 C50.4745225,9.38553802 50.3503226,9.37311803 50.2291519,9.35039854 C50.4817927,10.1398252 51.2163897,10.7147799 52.0860919,10.731138 C51.4060217,11.2642888 50.5487395,11.5823617 49.6172402,11.5823617 C49.4566891,11.5823617 49.2982585,11.5732739 49.1428571,11.5547954 C50.022556,12.1182388 51.0676527,12.44752 52.1906016,12.44752 C55.8475315,12.44752 57.8477558,9.41795117 57.8477558,6.79036588 C57.8477558,6.70433473 57.8450294,6.61830357 57.8416972,6.53287827 C58.2303521,6.25267117 58.5672064,5.90279096 58.8340848,5.5035337" id="ic_twitter-copy"></path>
                            </g>
                        </g>
                    </g>
                </g>
            </g>
        </g>
    </g>
</svg>