<?xml version="1.0" encoding="UTF-8"?>
<svg width="158px" height="42px" viewBox="0 0 158 42" version="1.1" xmlns="http://www.w3.org/2000/svg" xmlns:xlink="http://www.w3.org/1999/xlink">
    <!-- Generator: sketchtool 49.3 (51167) - http://www.bohemiancoding.com/sketch -->
    <title>417083AE-70B2-4990-A65B-CA4311925283</title>
    <desc>Created with sketchtool.</desc>
    <defs>
        <polygon id="path-1" points="10.9995112 0.0993642473 0.0786032258 0.0993642473 0.0786032258 15.789645 10.9995112 15.789645 10.9995112 0.0993642473"></polygon>
        <polygon id="path-3" points="1 27.8941532 155.875 27.8941532 155.875 0 1 0"></polygon>
    </defs>
    <g id="Home-screen" stroke="none" stroke-width="1" fill="none" fill-rule="evenodd">
        <g id="DG_Home_New-landing_11" transform="translate(-69.000000, -71.000000)">
            <g id="Section-1" transform="translate(-70.000000, 0.000000)">
                <g id="Haeder" transform="translate(70.000000, 0.000000)">
                    <g id="Header-tabs-Copy-2" transform="translate(0.000000, 10.000000)">
                        <g id="Top-part_header" transform="translate(69.000000, 10.000000)">
                            <g id="ic_header_logo_white-copy-3" transform="translate(0.000000, 51.000000)">
                                <path d="M31.7472426,8.75737442 C32.4104683,9.41009384 32.9379461,10.1890834 33.3180403,11.0749169 C33.6981346,11.9607504 33.890121,12.9262312 33.890121,13.9344496 L33.890121,21.2328629 L30.4750904,21.2328629 L30.4750904,13.9519332 C30.4750904,13.4177134 30.3742491,12.9087477 30.1745057,12.4386343 C29.9747623,11.9646356 29.6974486,11.5508581 29.3542003,11.2050723 C29.0090126,10.861229 28.5940117,10.5814921 28.1188939,10.3833451 C27.6476546,10.1851982 27.1376302,10.0841821 26.6062739,10.0841821 C26.0729784,10.0841821 25.5668325,10.1832555 25.1052895,10.3814025 C24.6398679,10.5814921 24.2268063,10.8592864 23.8796794,11.2031296 C23.5344918,11.5528008 23.2513604,11.9704635 23.0438599,12.4464047 C22.8363595,12.9126329 22.7355182,13.4177134 22.7355182,13.9461053 C22.7355182,14.4744972 22.8363595,14.9756925 23.0419207,15.4322076 C23.2494211,15.902321 23.5344918,16.3180411 23.8796794,16.6657696 C24.2287456,17.0115554 24.6437465,17.2951776 25.1149858,17.5030376 C25.5726503,17.7070125 26.0749177,17.8099712 26.6062739,17.8099712 L28.1150154,17.8099712 L28.1150154,21.2328629 L26.6062739,21.2328629 C25.6133747,21.2328629 24.663139,21.0405438 23.7768988,20.6597908 C22.8945372,20.282923 22.1130169,19.7545311 21.4536697,19.0940412 C20.7943225,18.4335513 20.268784,17.6506765 19.890629,16.7667857 C19.5105348,15.8809522 19.3185484,14.9290697 19.3185484,13.9344496 C19.3185484,12.9398295 19.5105348,11.9918323 19.8925683,11.109884 C20.2707233,10.2376488 20.798201,9.46060189 21.4575482,8.80205462 C22.1188346,8.13767949 22.9022942,7.6112302 23.7846559,7.23630505 C24.6728353,6.85555206 25.6269495,6.66129032 26.6159702,6.66129032 C27.6069302,6.66129032 28.5552266,6.8497242 29.4337098,7.22076411 C30.3063751,7.58791879 31.0859562,8.10659761 31.7472426,8.75737442 Z" id="Fill-1" fill="#1E2533"></path>
                                <path d="M62.1357869,8.75737442 C61.4745885,8.10659761 60.6970501,7.58791879 59.8245009,7.22076411 C58.9441956,6.8497242 57.9979644,6.66129032 57.0071363,6.66129032 C56.0163081,6.66129032 55.0642599,6.85555206 54.1761987,7.23630505 C53.2939544,7.6112302 52.5125381,8.13767949 51.8494007,8.80205462 C51.1901412,9.46060189 50.6627337,10.2376488 50.284629,11.109884 C49.9026463,11.9918323 49.7106855,12.9398295 49.7106855,13.9344496 C49.7106855,14.9290697 49.9007073,15.8809522 50.28269,16.7667857 C50.6607947,17.6506765 51.1862632,18.4335513 51.8455227,19.0940412 C52.5047821,19.7545311 53.2861984,20.282923 54.1665037,20.6597908 C55.0526259,21.0405438 56.0046741,21.2328629 56.9955023,21.2328629 L58.505982,21.2328629 L58.505982,17.8099712 L56.9955023,17.8099712 C56.4661557,17.8099712 55.9658942,17.7070125 55.5063515,17.5030376 C55.0351749,17.2951776 54.6221683,17.0115554 54.2712096,16.6657696 C53.9260679,16.3180411 53.6410351,15.902321 53.4335623,15.4322076 C53.2299675,14.9756925 53.1272006,14.4744972 53.1272006,13.9461053 C53.1272006,13.4177134 53.2299675,12.9126329 53.4355013,12.4464047 C53.6429741,11.9704635 53.9260679,11.5528008 54.2712096,11.2031296 C54.6182903,10.8592864 55.0312969,10.5814921 55.4966566,10.3814025 C55.9600772,10.1832555 56.4622777,10.0841821 56.9955023,10.0841821 C57.5287268,10.0841821 58.0386834,10.1851982 58.50986,10.3833451 C58.9849146,10.5814921 59.3979212,10.861229 59.7450019,11.2050723 C60.0882046,11.5508581 60.3674204,11.9646356 60.5651982,12.4386343 C60.7649151,12.9087477 60.865743,13.4177134 60.865743,13.9519332 L60.865743,21.2328629 L64.2822581,21.2328629 L64.2822581,13.9344496 C64.2822581,12.9262312 64.0902972,11.9607504 63.7083146,11.0749169 C63.3282709,10.1890834 62.8008633,9.41009384 62.1357869,8.75737442" id="Fill-3" fill="#1E2533"></path>
                                <path d="M79.3967083,8.80130766 C78.7292743,8.13984775 77.9401317,7.6126253 77.0489109,7.23325859 C76.149838,6.85389188 75.1781326,6.66129032 74.1573511,6.66129032 C73.154237,6.66129032 72.1923468,6.85389188 71.2932739,7.23325859 C70.4020531,7.6126253 69.6129105,8.13984775 68.9454765,8.80130766 C68.2741164,9.4666585 67.7421322,10.250683 67.3613022,11.1319811 C66.974583,12.0230065 66.7802419,12.9762869 66.7802419,13.9684768 C66.7802419,14.999576 66.974583,15.9723112 67.3613022,16.8613911 C67.7421322,17.7465801 68.2760794,18.5267137 68.9454765,19.1803917 C69.6148736,19.8321243 70.4020531,20.3535103 71.2932739,20.732877 C72.1903837,21.1122437 73.154237,21.3067908 74.1573511,21.3067908 L75.7513406,21.3067908 L75.7513406,17.8788721 L74.1573511,17.8788721 C73.6351821,17.8788721 73.1346066,17.7796531 72.6674028,17.5812151 C72.1962729,17.3808317 71.774219,17.100684 71.4149824,16.7446629 C71.0537828,16.3866964 70.7652158,15.9645293 70.5512443,15.4859436 C70.3431619,15.0112489 70.2410837,14.5209904 70.2410837,13.9840405 C70.2410837,13.4529272 70.3451249,12.9471049 70.5512443,12.480192 C70.7652158,12.0035518 71.0537828,11.5813847 71.4149824,11.2234182 C71.774219,10.8673971 72.1962729,10.5853039 72.6674028,10.386866 C73.1346066,10.188428 73.6351821,10.0872635 74.1573511,10.0872635 C74.7148548,10.0872635 75.2409499,10.188428 75.7160059,10.3888114 C76.1930249,10.5853039 76.6131158,10.8654517 76.9625371,11.2175818 C77.3139215,11.5736028 77.5965995,11.9957699 77.7987927,12.4704647 C77.9990229,12.9432139 78.1030641,13.4529272 78.1030641,13.985986 L78.1030641,20.5850213 C78.1030641,21.1180802 77.9990229,21.6316843 77.7987927,22.1044336 C77.5965995,22.5791284 77.3158846,22.995459 76.9684263,23.3436982 C76.6170419,23.6899919 76.194988,23.9662487 75.7160059,24.1666321 C75.2409499,24.3650701 74.7148548,24.46818 74.1416468,24.46818 C73.4545823,24.4856893 72.8774482,24.4467798 72.4436161,24.3631246 C72.0372665,24.2814149 71.7015865,24.1666321 71.4542433,24.0226673 C71.2245674,23.8903753 71.0498568,23.7405741 70.9320743,23.5771546 C70.7907353,23.3845531 70.6788419,23.1744423 70.5944312,22.9507132 L70.4845009,22.4838003 L66.7802419,22.4838003 L66.7861311,23.2911705 C66.8725049,23.9973762 67.1394785,24.6510542 67.5791997,25.2346953 C67.9973275,25.7910998 68.54109,26.2774674 69.1967458,26.6762888 C69.8347342,27.0673283 70.5924681,27.3727672 71.442465,27.582878 C72.2806836,27.7890978 73.1954609,27.8941532 74.1573511,27.8941532 C75.1781326,27.8941532 76.149838,27.7015517 77.0489109,27.322185 C77.9401317,26.9428182 78.7292743,26.4136503 79.3967083,25.7521904 C80.0661054,25.0907305 80.5961266,24.306706 80.9808827,23.4234625 C81.3656388,22.5343825 81.5599798,21.5772111 81.5599798,20.5850213 L81.5599798,13.9684768 C81.5599798,12.9762869 81.3656388,12.0230065 80.9808827,11.1319811 C80.5961266,10.2487376 80.0661054,9.4666585 79.3967083,8.80130766" id="Fill-5" fill="#0164CF"></path>
                                <path d="M95.1800182,14.078493 C95.1800182,14.6095483 95.0783317,15.1191271 94.8690923,15.5916102 C94.6559418,16.0699504 94.3704374,16.487766 94.0125793,16.8391997 C93.6508101,17.1906333 93.2264646,17.4776375 92.7454094,17.6884977 C92.2819537,17.8935006 91.7754768,17.9989307 91.2377118,17.9989307 C90.6862583,17.9989307 90.1641373,17.8935006 89.6889486,17.6884977 C89.2059379,17.4776375 88.7835479,17.1925857 88.4296007,16.8411521 C88.0834756,16.4936232 87.8018823,16.0719028 87.5985094,15.5935626 C87.3990474,15.1191271 87.2993165,14.6056435 87.2993165,14.0667785 L87.2993165,6.66129032 L83.8497984,6.66129032 L83.8497984,14.0511593 C83.8497984,15.0664121 84.0473048,16.0367595 84.4442732,16.9309629 C84.8334195,17.8154043 85.365318,18.5983204 86.0282355,19.2621395 C86.6891976,19.9240063 87.4733568,20.4589664 88.3611579,20.8455434 C89.2528701,21.2399301 90.2228026,21.4410282 91.2377118,21.4410282 C92.236977,21.4410282 93.1990875,21.2438349 94.1005772,20.8572579 C94.9962004,20.4706808 95.7881815,19.9435303 96.4491436,19.283616 C97.1120612,18.6256541 97.6459152,17.8446904 98.0350615,16.9582966 C98.4281189,16.0621408 98.6295363,15.0956982 98.6295363,14.078493 L98.6295363,10.8863039 L95.1800182,10.8863039 L95.1800182,14.078493 Z" id="Fill-7" fill="#0164CF"></path>
                                <path d="M105.438151,7.44733748 C104.552538,7.82675485 103.767518,8.35210197 103.092953,9.0136502 C102.424305,9.67714415 101.885837,10.4554362 101.507134,11.329069 C101.116596,12.2104847 100.919355,13.160001 100.919355,14.1542691 L100.919355,21.4410282 L104.394745,21.4410282 L104.394745,14.1698349 C104.394745,13.6347591 104.49731,13.1269236 104.696524,12.6541112 C104.901655,12.1812988 105.179765,11.7649125 105.530854,11.4205183 C105.879971,11.0741784 106.29615,10.7978847 106.779391,10.5994202 C107.25277,10.4009557 107.771514,10.2997778 108.304065,10.2997778 L109.037802,10.2997778 L109.037802,6.86945565 L108.304065,6.86945565 C107.298135,6.86945565 106.333626,7.06597438 105.438151,7.44733748" id="Fill-9" fill="#0164CF"></path>
                                <g id="Group-13" transform="translate(36.388105, 0.000000)">
                                    <mask id="mask-2" fill="white">
                                        <use xlink:href="#path-1"></use>
                                    </mask>
                                    <g id="Clip-12"></g>
                                    <polygon id="Fill-11" fill="#1E2533" mask="url(#mask-2)" points="10.9995112 0.098975672 0.0786032258 0.098975672 0.0786032258 3.31249315 3.93326989 3.31249315 3.93326989 15.789645 7.14678737 15.789645 7.14678737 3.31249315 10.9995112 3.31249315"></polygon>
                                </g>
                                <mask id="mask-4" fill="white">
                                    <use xlink:href="#path-3"></use>
                                </mask>
                                <g id="Clip-15"></g>
                                <polygon id="Fill-14" fill="#0164CF" mask="url(#mask-4)" points="40.343246 21.4410282 43.4657258 21.4410282 43.4657258 18.1103831 40.343246 18.1103831"></polygon>
                                <path d="M124.37112,8.52022948 L122.008436,10.8849094 L122.6225,10.8849094 L122.6225,14.0775203 C122.6225,14.6086458 122.52113,15.1202446 122.312544,15.5908373 C122.102007,16.0711935 121.813495,16.4910169 121.458702,16.8405443 C121.092213,17.1939771 120.67309,17.4810192 120.189637,17.6899546 C119.731525,17.8969373 119.226628,18.0004287 118.694439,18.0004287 C118.138858,18.0004287 117.620315,17.8949846 117.144659,17.6880019 C116.669003,17.4790665 116.242082,17.1939771 115.891189,16.842497 C115.548093,16.4929696 115.265428,16.0750988 115.064639,15.59279 C114.859951,15.1202446 114.760531,14.6066931 114.760531,14.0658043 L114.760531,6.66129032 L111.327621,6.66129032 L111.327621,14.0501829 C111.327621,15.0694752 111.526461,16.0379981 111.914393,16.9342724 C112.308174,17.8168779 112.834515,18.6018501 113.495364,19.2618517 C114.160113,19.9277112 114.937927,20.4588366 115.81906,20.8493701 C116.707991,21.2399035 117.678797,21.4410282 118.694439,21.4410282 C119.688638,21.4410282 120.647748,21.2457615 121.542527,20.8571807 C122.439255,20.474458 123.220968,19.9452852 123.885717,19.2872363 C124.546567,18.6272348 125.078756,17.8442153 125.466688,16.9577044 C125.85657,16.0633828 126.05346,15.0948599 126.05346,14.0775203 L126.05346,10.8849094 L126.731855,10.8849094 L124.37112,8.52022948 Z" id="Fill-16" fill="#0164CF" mask="url(#mask-4)"></path>
                                <path d="M16.0524398,6.17352677 C15.4158987,4.86799999 14.5938625,3.73952677 13.6117147,2.82701998 C12.6295669,1.91645883 11.5380747,1.21019025 10.364574,0.727670662 C9.1832631,0.245151079 8.04490891,0 6.98075277,0 L1,0 L1,3.3737458 L6.39693133,3.3737458 C7.50599681,3.3737458 8.51548071,3.58192965 9.39609432,3.99440607 C10.290376,4.41077377 11.0596925,4.96139088 11.6845182,5.63069224 C12.3093438,6.30388488 12.8033466,7.08214227 13.1470006,7.94989927 C13.4906547,8.80987368 13.6663869,9.70876097 13.6663869,10.6173765 C13.6663869,11.6913717 13.4652712,12.6817042 13.0669449,13.5630807 C12.666666,14.4502941 12.1218961,15.220769 11.4541137,15.8492118 C10.778521,16.4796003 9.99163125,16.977685 9.11297021,17.3317921 C8.24016692,17.6839536 7.32635944,17.8610072 6.39693133,17.8610072 L3.36066931,17.8610072 L3.36066931,17.3045531 L1.08005578,19.5790104 L3.36066931,21.8573589 L3.36066931,21.289231 L6.98075277,21.289231 C8.23040402,21.289231 9.47615011,21.0129496 10.6789394,20.4720607 C11.8700133,19.9331175 12.9497901,19.1840447 13.8850759,18.2442989 C14.8164566,17.3045531 15.581868,16.1780255 16.1559265,14.8939009 C16.7358428,13.5981023 17.0287298,12.1777826 17.0287298,10.6718545 C17.0287298,9.01611189 16.6987438,7.50434691 16.0524398,6.17352677" id="Fill-17" fill="#1E2533" mask="url(#mask-4)"></path>
                                <path d="M148.502615,6.66129032 L135.767607,6.66129032 C131.697253,6.66129032 128.397177,9.96372977 128.397177,14.0394138 L128.397177,14.0609472 C128.397177,18.1385888 131.697253,21.4410282 135.767607,21.4410282 L148.502615,21.4410282 C152.572969,21.4410282 155.875,18.1385888 155.875,14.0609472 L155.875,14.0394138 C155.875,9.96372977 152.572969,6.66129032 148.502615,6.66129032" id="Fill-18" fill="#808FA5" mask="url(#mask-4)"></path>
                                <path d="M136.182769,17.0695565 C135.929848,17.0695565 135.718144,17.1576104 135.536415,17.3374652 C135.358434,17.5191935 135.266633,17.7327712 135.266633,17.9819451 C135.266633,18.231119 135.358434,18.4446966 135.536415,18.6208044 C135.718144,18.7969123 135.929848,18.8830927 136.182769,18.8830927 C136.431943,18.8830927 136.643647,18.7969123 136.823502,18.6208044 C137.00523,18.4446966 137.097031,18.231119 137.097031,17.9819451 C137.097031,17.7327712 137.00523,17.5191935 136.823502,17.3374652 C136.643647,17.1576104 136.431943,17.0695565 136.182769,17.0695565" id="Fill-19" fill="#FFFFFF" mask="url(#mask-4)"></path>
                                <polygon id="Fill-20" fill="#FFFFFF" mask="url(#mask-4)" points="140.262601 18.9430444 141.667717 18.9430444 141.667717 12.6980847 140.262601 12.6980847"></polygon>
                                <path d="M140.966824,9.15927419 C140.715777,9.15927419 140.502199,9.24920161 140.322344,9.42905645 C140.144363,9.6070378 140.054435,9.81874194 140.054435,10.0641689 C140.054435,10.3245837 140.144363,10.5419083 140.322344,10.7217631 C140.502199,10.8997445 140.71765,10.9896719 140.974318,10.9896719 C141.227239,10.9896719 141.44269,10.8997445 141.616924,10.7217631 C141.794906,10.5419083 141.884833,10.3264572 141.884833,10.0716628 C141.884833,9.81874194 141.794906,9.60329083 141.616924,9.42905645 C141.43707,9.24920161 141.221618,9.15927419 140.966824,9.15927419" id="Fill-21" fill="#FFFFFF" mask="url(#mask-4)"></path>
                                <path d="M148.477468,13.1798761 C148.069321,12.7199049 147.498689,12.4899194 146.767507,12.4899194 C146.131107,12.4899194 145.558541,12.7411641 145.051742,13.2455863 L145.051742,12.663858 L143.593246,12.663858 L143.593246,18.9430444 L145.051742,18.9430444 L145.051742,15.912646 C145.051742,15.129922 145.150394,14.5829815 145.347697,14.2698918 C145.548869,13.9510043 145.891248,13.7925268 146.3729,13.7925268 C146.8178,13.7925268 147.123426,13.9123512 147.28978,14.1539327 C147.463871,14.3897163 147.548982,14.8168324 147.548982,15.435281 L147.548982,18.9430444 L149.005544,18.9430444 L149.005544,15.0951342 C149.005544,14.208047 148.831453,13.5702718 148.477468,13.1798761" id="Fill-22" fill="#FFFFFF" mask="url(#mask-4)"></path>
                                <text id="More-Data-.-More-Pow" font-family="Helvetica" font-size="11" font-weight="normal" line-spacing="13" letter-spacing="1.79999995" fill="#808FA5">
                                    <tspan x="0" y="42">More Data . More Power</tspan>
                                </text>
                            </g>
                        </g>
                    </g>
                </g>
            </g>
        </g>
    </g>
</svg>