<?xml version="1.0" encoding="UTF-8"?>
<svg width="189px" height="45px" viewBox="0 0 189 45" version="1.1" xmlns="http://www.w3.org/2000/svg" xmlns:xlink="http://www.w3.org/1999/xlink">
    <!-- Generator: sketchtool 49.3 (51167) - http://www.bohemiancoding.com/sketch -->
    <title>80312E0C-D424-4E97-853D-D545D38BBD6D</title>
    <desc>Created with sketchtool.</desc>
    <defs>
        <polygon id="path-1" points="13.3413426 0.120656586 0.0953381061 0.120656586 0.0953381061 19.1731404 13.3413426 19.1731404 13.3413426 0.120656586"></polygon>
        <polygon id="path-3" points="0 33.8714718 187.848387 33.8714718 187.848387 0 0 0"></polygon>
    </defs>
    <g id="Home-screen" stroke="none" stroke-width="1" fill="none" fill-rule="evenodd">
        <g id="DG_Home_New-landing_11" transform="translate(-69.000000, -68.000000)">
            <g id="Section-1">
                <g id="Haeder">
                    <g id="Header-tabs-Copy-2" transform="translate(69.000000, 20.000000)">
                        <g id="Top-part_header">
                            <g id="ic_header_logo_white-copy-3" transform="translate(0.000000, 48.000000)">
                                <g id="Group-5" transform="translate(1.000000, 0.000000)">
                                    <path d="M37.2934298,10.6339547 C38.0978584,11.4265425 38.7376378,12.3724584 39.1986554,13.4481134 C39.6596729,14.5237683 39.8925338,15.6961379 39.8925338,16.9204031 L39.8925338,25.7827621 L35.7504323,25.7827621 L35.7504323,16.9416331 C35.7504323,16.2929377 35.6281215,15.6749079 35.3858521,15.1040559 C35.1435827,14.5284861 34.807228,14.026042 34.3909009,13.6061592 C33.9722217,13.1886352 33.4688659,12.8489547 32.8925939,12.6083477 C32.3210262,12.3677406 31.702416,12.2450782 31.0579323,12.2450782 C30.4110964,12.2450782 29.7971904,12.3653817 29.2373834,12.6059888 C28.6728721,12.8489547 28.1718683,13.1862763 27.750837,13.6038003 C27.3321578,14.0284009 26.9887468,14.5355628 26.7370688,15.1134915 C26.4853909,15.6796256 26.3630801,16.2929377 26.3630801,16.9345564 C26.3630801,17.5761752 26.4853909,18.1847695 26.7347167,18.7391092 C26.9863946,19.3099612 27.3321578,19.8147641 27.750837,20.2370059 C28.1742205,20.6568888 28.6775763,21.0012871 29.249144,21.2536886 C29.8042468,21.5013723 30.4134485,21.6263936 31.0579323,21.6263936 L32.8878897,21.6263936 L32.8878897,25.7827621 L31.0579323,25.7827621 C29.8536415,25.7827621 28.7010977,25.5492317 27.6261741,25.0868888 C26.5559548,24.6292637 25.6080463,23.9876449 24.8083219,23.1856215 C24.0085976,22.383598 23.3711703,21.4329644 22.9125049,20.3596683 C22.4514873,19.2840133 22.2186264,18.128156 22.2186264,16.9204031 C22.2186264,15.7126501 22.4514873,14.5615106 22.914857,13.4905734 C23.3735224,12.4314307 24.0133019,11.4878737 24.8130262,10.6882092 C25.6151026,9.88146795 26.5653633,9.2422081 27.6355826,8.78694185 C28.7128583,8.32459892 29.8701064,8.08870968 31.0696929,8.08870968 C32.2716315,8.08870968 33.4218232,8.31752225 34.4873383,8.76807071 C35.5457969,9.21390139 36.4913533,9.84372568 37.2934298,10.6339547 Z" id="Fill-1" fill="#1E2533"></path>
                                    <path d="M74.1517931,10.6339547 C73.3498234,9.84372568 72.4067447,9.21390139 71.3484269,8.76807071 C70.2807018,8.31752225 69.1330149,8.08870968 67.9312362,8.08870968 C66.7294576,8.08870968 65.5747153,8.32459892 64.4975829,8.78694185 C63.427506,9.2422081 62.4797236,9.88146795 61.6754021,10.6882092 C60.8757842,11.4878737 60.2360899,12.4314307 59.7774855,13.4905734 C59.3141775,14.5615106 59.0813476,15.7126501 59.0813476,16.9204031 C59.0813476,18.128156 59.3118257,19.2840133 59.7751337,20.3596683 C60.2337381,21.4329644 60.8710806,22.383598 61.6706985,23.1856215 C62.4703164,23.9876449 63.4180987,24.6292637 64.4858238,25.0868888 C65.5606044,25.5492317 66.7153467,25.7827621 67.9171253,25.7827621 L69.7491911,25.7827621 L69.7491911,21.6263936 L67.9171253,21.6263936 C67.2750792,21.6263936 66.6683103,21.5013723 66.1109296,21.2536886 C65.539438,21.0012871 65.0385009,20.6568888 64.612822,20.2370059 C64.1941985,19.8147641 63.8484813,19.3099612 63.5968369,18.7391092 C63.349896,18.1847695 63.2252497,17.5761752 63.2252497,16.9345564 C63.2252497,16.2929377 63.349896,15.6796256 63.5991887,15.1134915 C63.8508331,14.5355628 64.1941985,14.0284009 64.612822,13.6038003 C65.0337973,13.1862763 65.5347344,12.8489547 66.0991705,12.6059888 C66.6612549,12.3653817 67.2703756,12.2450782 67.9171253,12.2450782 C68.5638751,12.2450782 69.1824031,12.3677406 69.7538947,12.6083477 C70.3300899,12.8489547 70.831027,13.1886352 71.2520023,13.6061592 C71.668274,14.026042 72.0069357,14.5284861 72.2468211,15.1040559 C72.4890583,15.6749079 72.6113528,16.2929377 72.6113528,16.9416331 L72.6113528,25.7827621 L76.7552549,25.7827621 L76.7552549,16.9204031 C76.7552549,15.6961379 76.522425,14.5237683 76.059117,13.4481134 C75.5981608,12.3724584 74.9584665,11.4265425 74.1517931,10.6339547" id="Fill-3" fill="#1E2533"></path>
                                    <path d="M95.0876204,10.6873022 C94.2780875,9.88410084 93.3209339,9.24390215 92.2399694,8.78324258 C91.149481,8.322583 89.9708963,8.08870968 88.7327872,8.08870968 C87.5161068,8.08870968 86.3494271,8.322583 85.2589386,8.78324258 C84.1779741,9.24390215 83.2208205,9.88410084 82.4112876,10.6873022 C81.5969927,11.4952282 80.9517474,12.447258 80.4898375,13.5174056 C80.0207846,14.599365 79.7850676,15.7569198 79.7850676,16.9617218 C79.7850676,18.2137709 80.0207846,19.3949493 80.4898375,20.4745464 C80.9517474,21.5494187 81.5993737,22.4967238 82.4112876,23.2904757 C83.2232015,24.0818652 84.1779741,24.7149768 85.2589386,25.1756364 C86.3470461,25.636296 87.5161068,25.8725317 88.7327872,25.8725317 L90.6661422,25.8725317 L90.6661422,21.710059 L88.7327872,21.710059 C88.0994467,21.710059 87.492297,21.5895788 86.925624,21.3486184 C86.354189,21.1052956 85.8422785,20.7651163 85.4065593,20.332805 C84.9684592,19.8981313 84.6184552,19.3854999 84.3589285,18.8043601 C84.1065447,18.2279451 83.9827338,17.6326311 83.9827338,16.9806207 C83.9827338,16.3356973 84.1089257,15.7214845 84.3589285,15.1545189 C84.6184552,14.5757414 84.9684592,14.06311 85.4065593,13.6284364 C85.8422785,13.1961251 86.354189,12.8535833 86.925624,12.6126229 C87.492297,12.3716626 88.0994467,12.24882 88.7327872,12.24882 C89.4089852,12.24882 90.0470876,12.3716626 90.6232846,12.6149853 C91.2018625,12.8535833 91.711392,13.1937627 92.1352063,13.6213493 C92.5614016,14.0536606 92.9042626,14.566292 93.1495034,15.1427071 C93.3923633,15.7167598 93.5185552,16.3356973 93.5185552,16.982983 L93.5185552,24.9960973 C93.5185552,25.643383 93.3923633,26.2670452 93.1495034,26.8410979 C92.9042626,27.417513 92.5637826,27.9230574 92.1423493,28.3459192 C91.716154,28.7664187 91.2042435,29.1018734 90.6232846,29.3451961 C90.0470876,29.5861565 89.4089852,29.7113615 88.7137393,29.7113615 C87.8803966,29.7326227 87.1803888,29.6853755 86.6541924,29.5837942 C86.1613297,29.4845752 85.7541823,29.3451961 85.4541789,29.1703817 C85.1756044,29.0097415 84.9636972,28.82784 84.8208385,28.629402 C84.649408,28.3955287 84.5136922,28.1403942 84.4113101,27.8687231 L84.2779752,27.3017575 L79.7850676,27.3017575 L79.7922106,28.2821356 C79.8969737,29.1396711 80.2207868,29.933423 80.7541261,30.64213 C81.2612747,31.3177641 81.9208059,31.9083533 82.7160529,32.3926364 C83.4898711,32.8674701 84.4089291,33.2383602 85.439893,33.4934947 C86.4565711,33.7439045 87.5661074,33.8714718 88.7327872,33.8714718 C89.9708963,33.8714718 91.149481,33.6375985 92.2399694,33.1769389 C93.3209339,32.7162793 94.2780875,32.0737183 95.0876204,31.2705169 C95.8995343,30.4673156 96.5423987,29.5152858 97.0090706,28.4427759 C97.4757425,27.3631788 97.7114594,26.2008993 97.7114594,24.9960973 L97.7114594,16.9617218 C97.7114594,15.7569198 97.4757425,14.599365 97.0090706,13.5174056 C96.5423987,12.4448956 95.8995343,11.4952282 95.0876204,10.6873022" id="Fill-5" fill="#0155FF"></path>
                                    <path d="M114.231248,17.0953129 C114.231248,17.7401658 114.107912,18.3589401 113.854125,18.9326695 C113.595594,19.5135112 113.249305,20.0208587 112.815257,20.4475996 C112.376466,20.8743405 111.861776,21.2228455 111.278303,21.47889 C110.716176,21.7278222 110.101869,21.8558445 109.449612,21.8558445 C108.780752,21.8558445 108.14747,21.7278222 107.571112,21.47889 C106.985267,21.2228455 106.472948,20.8767112 106.043645,20.4499704 C105.623828,20.0279711 105.282283,19.515882 105.035611,18.9350403 C104.793683,18.3589401 104.672719,17.7354242 104.672719,17.0810882 L104.672719,8.08870968 L100.488788,8.08870968 L100.488788,17.062122 C100.488788,18.2949289 100.728344,19.4732079 101.209828,20.5590264 C101.681825,21.6329909 102.326966,22.5836747 103.131021,23.3897408 C103.932704,24.1934362 104.883813,24.8430306 105.96063,25.3124456 C107.042191,25.7913437 108.218625,26.0355343 109.449612,26.0355343 C110.661624,26.0355343 111.828571,25.7960852 112.92199,25.3266703 C114.008295,24.8572553 114.968891,24.217144 115.770574,23.4158195 C116.574629,22.6168657 117.222142,21.6685526 117.694139,20.5922173 C118.17088,19.5040281 118.41518,18.3304907 118.41518,17.0953129 L118.41518,13.2190833 L114.231248,13.2190833 L114.231248,17.0953129 Z" id="Fill-7" fill="#0155FF"></path>
                                    <path d="M126.67337,9.04319551 C125.599207,9.5039166 124.647054,10.1418381 123.828872,10.9451467 C123.017867,11.7508179 122.364757,12.6958868 121.905427,13.7567266 C121.431742,14.8270172 121.192508,15.9800012 121.192508,17.1873267 L121.192508,26.0355343 L125.407819,26.0355343 L125.407819,17.2062281 C125.407819,16.5564932 125.532221,15.9398358 125.773848,15.3657064 C126.022652,14.7915771 126.359973,14.2859652 126.78581,13.8677722 C127.209255,13.4472166 127.71404,13.1117171 128.300164,12.8707245 C128.874327,12.629732 129.503514,12.506873 130.149447,12.506873 L131.039399,12.506873 L131.039399,8.34148185 L130.149447,8.34148185 C128.929351,8.34148185 127.759494,8.58011175 126.67337,9.04319551" id="Fill-9" fill="#0155FF"></path>
                                    <g id="Group-13" transform="translate(42.922347, 0.000000)">
                                        <mask id="mask-2" fill="white">
                                            <use xlink:href="#path-1"></use>
                                        </mask>
                                        <g id="Clip-12"></g>
                                        <polygon id="Fill-11" fill="#1E2533" mask="url(#mask-2)" points="13.3413426 0.120184745 0.0953381061 0.120184745 0.0953381061 4.0223131 4.77067574 4.0223131 4.77067574 19.1731404 8.66836145 19.1731404 8.66836145 4.0223131 13.3413426 4.0223131"></polygon>
                                    </g>
                                    <mask id="mask-4" fill="white">
                                        <use xlink:href="#path-3"></use>
                                    </mask>
                                    <g id="Clip-15"></g>
                                    <polygon id="Fill-14" fill="#0155FF" mask="url(#mask-4)" points="47.7195499 26.0355343 51.5068158 26.0355343 51.5068158 21.9911794 47.7195499 21.9911794"></polygon>
                                    <path d="M149.637229,10.3459929 L146.771522,13.21739 L147.516322,13.21739 L147.516322,17.0941318 C147.516322,17.7390698 147.393371,18.360297 147.140375,18.9317311 C146.885015,19.5150206 146.535077,20.0248063 146.104748,20.4492324 C145.660233,20.8784008 145.151877,21.2269519 144.565495,21.4806591 C144.00985,21.7319953 143.397459,21.8576634 142.751965,21.8576634 C142.078098,21.8576634 141.449156,21.7296242 140.872231,21.478288 C140.295307,21.2245808 139.777493,20.8784008 139.351893,20.4516035 C138.935751,20.0271774 138.592906,19.5197628 138.349369,18.9341022 C138.101102,18.360297 137.980515,17.7366987 137.980515,17.0799052 L137.980515,8.08870968 L133.816727,8.08870968 L133.816727,17.0609364 C133.816727,18.2986485 134.057901,19.474712 134.528425,20.563045 C135.006043,21.6347804 135.644443,22.5879609 136.44599,23.3893913 C137.252266,24.197935 138.19568,24.8428731 139.264409,25.3170922 C140.342596,25.7913114 141.520089,26.0355343 142.751965,26.0355343 C143.957832,26.0355343 145.121139,25.7984247 146.20642,25.3265766 C147.294064,24.8618418 148.242207,24.2192748 149.048483,23.4202155 C149.850029,22.6187851 150.495523,21.6679757 150.966047,20.5914982 C151.438936,19.5055363 151.677745,18.3294727 151.677745,17.0941318 L151.677745,13.21739 L152.500572,13.21739 L149.637229,10.3459929 Z" id="Fill-16" fill="#0155FF" mask="url(#mask-4)"></path>
                                    <path d="M18.2571528,7.49642536 C17.48509,5.91114285 16.4880397,4.54085394 15.2967895,3.43280997 C14.1055392,2.32712858 12.7816648,1.46951673 11.3583221,0.88360009 C9.92550621,0.297683453 8.54479274,0 7.25407433,0 L0,0 L0,4.09669132 L6.54595542,4.09669132 C7.89114452,4.09669132 9.1155508,4.349486 10.1836499,4.85035022 C11.268327,5.35593958 12.2014335,6.02454607 12.9592866,6.83726914 C13.7171396,7.65471735 14.3163171,8.59974419 14.7331363,9.65344911 C15.1499554,10.6977038 15.3631016,11.7892098 15.3631016,12.8925286 C15.3631016,14.1966656 15.1191677,15.3992123 14.6360364,16.4694551 C14.1505368,17.5467857 13.4897837,18.4823623 12.6798283,19.2454715 C11.8603997,20.0109432 10.9059785,20.6157604 9.84024774,21.0457476 C8.78162181,21.4733722 7.67326178,21.6883658 6.54595542,21.6883658 L2.86326342,21.6883658 L2.86326342,21.0126717 L0.0970999176,23.7745126 L2.86326342,26.5410786 L2.86326342,25.851209 L7.25407433,25.851209 C8.76978036,25.851209 10.2807498,25.5157245 11.7396169,24.8589309 C13.1842742,24.2044998 14.4939389,23.2949115 15.6283501,22.1537916 C16.7580248,21.0126717 17.6863947,19.6447453 18.3826722,18.085451 C19.0860545,16.5119814 19.4412981,14.7873074 19.4412981,12.9586805 C19.4412981,10.9481359 19.041057,9.11242125 18.2571528,7.49642536" id="Fill-17" fill="#1E2533" mask="url(#mask-4)"></path>
                                    <path d="M178.906398,8.08870968 L163.460066,8.08870968 C158.52312,8.08870968 154.520447,12.0988147 154.520447,17.0478596 L154.520447,17.0740073 C154.520447,22.0254292 158.52312,26.0355343 163.460066,26.0355343 L178.906398,26.0355343 C183.843343,26.0355343 187.848387,22.0254292 187.848387,17.0740073 L187.848387,17.0478596 C187.848387,12.0988147 183.843343,8.08870968 178.906398,8.08870968" id="Fill-18" fill="#B3BCC9" mask="url(#mask-4)"></path>
                                    <path d="M163.963616,20.7273185 C163.656848,20.7273185 163.400071,20.8342412 163.179652,21.0526363 C162.963778,21.2733065 162.852432,21.5326507 162.852432,21.835219 C162.852432,22.1377873 162.963778,22.3971316 163.179652,22.6109768 C163.400071,22.8248221 163.656848,22.9294698 163.963616,22.9294698 C164.26584,22.9294698 164.522617,22.8248221 164.740763,22.6109768 C164.961182,22.3971316 165.072528,22.1377873 165.072528,21.835219 C165.072528,21.5326507 164.961182,21.2733065 164.740763,21.0526363 C164.522617,20.8342412 164.26584,20.7273185 163.963616,20.7273185" id="Fill-19" fill="#FFFFFF" mask="url(#mask-4)"></path>
                                    <polygon id="Fill-20" fill="#FFFFFF" mask="url(#mask-4)" points="168.912058 23.0022681 170.616327 23.0022681 170.616327 15.4191028 168.912058 15.4191028"></polygon>
                                    <path d="M169.766212,11.1219758 C169.461716,11.1219758 169.202667,11.2311734 168.984521,11.4495685 C168.768647,11.6656888 168.659573,11.9227581 168.659573,12.2207765 C168.659573,12.5369945 168.768647,12.8008886 168.984521,13.0192838 C169.202667,13.235404 169.463989,13.3446016 169.775302,13.3446016 C170.08207,13.3446016 170.343392,13.235404 170.554721,13.0192838 C170.770595,12.8008886 170.879669,12.5392694 170.879669,12.2298763 C170.879669,11.9227581 170.770595,11.6611389 170.554721,11.4495685 C170.336575,11.2311734 170.075253,11.1219758 169.766212,11.1219758" id="Fill-21" fill="#FFFFFF" mask="url(#mask-4)"></path>
                                    <path d="M178.875897,16.0041353 C178.380854,15.4455989 177.688733,15.1663306 176.801879,15.1663306 C176.029988,15.1663306 175.335521,15.4714136 174.720823,16.0839262 L174.720823,15.3775419 L172.951808,15.3775419 L172.951808,23.0022681 L174.720823,23.0022681 L174.720823,19.3224988 C174.720823,18.3720481 174.840478,17.7079061 175.079788,17.3277258 C175.32379,16.9405052 175.739062,16.7480683 176.32326,16.7480683 C176.86288,16.7480683 177.233575,16.8935693 177.435346,17.1869183 C177.646502,17.4732269 177.749733,17.9918679 177.749733,18.7428412 L177.749733,23.0022681 L179.516402,23.0022681 L179.516402,18.3298059 C179.516402,17.2526285 179.305247,16.4781872 178.875897,16.0041353" id="Fill-22" fill="#FFFFFF" mask="url(#mask-4)"></path>
                                </g>
                                <text id="More-Data-.-More-Pow" font-family="Helvetica" font-size="11" font-weight="normal" line-spacing="13" letter-spacing="3.20000005" fill="#808FA5">
                                    <tspan x="0" y="45">More Data . More Power</tspan>
                                </text>
                            </g>
                        </g>
                    </g>
                </g>
            </g>
        </g>
    </g>
</svg>