<?xml version="1.0" encoding="UTF-8"?>
<svg width="12px" height="12px" viewBox="0 0 12 12" version="1.1" xmlns="http://www.w3.org/2000/svg" xmlns:xlink="http://www.w3.org/1999/xlink">
    <!-- Generator: Sketch 48.2 (47327) - http://www.bohemiancoding.com/sketch -->
    <title>web</title>
    <desc>Created with Sketch.</desc>
    <defs></defs>
    <g id="A_DG_Home_Company-NewList1" stroke="none" stroke-width="1" fill="none" fill-rule="evenodd" transform="translate(-1100.000000, -622.000000)">
        <g id="List" transform="translate(465.000000, 549.000000)" fill="#016BFF">
            <g id="L1">
                <g id="1-copy" transform="translate(18.000000, 0.000000)">
                    <g id="content" transform="translate(132.000000, 36.000000)">
                        <path d="M492.985294,47.7058824 C493.375441,47.2661765 493.697647,46.7704412 493.941176,46.2352941 L494.955882,46.2352941 C494.427941,46.8779412 493.751618,47.3826471 492.985294,47.7058824 Z M487.044118,46.2352941 L488.058824,46.2352941 C488.302353,46.7704412 488.624559,47.2661765 489.014706,47.7058824 C488.248382,47.3826471 487.572059,46.8779412 487.044118,46.2352941 Z M489.014706,38.2941176 C488.624559,38.7339706 488.302353,39.2295588 488.058824,39.7647059 L487.044118,39.7647059 C487.572059,39.1220588 488.248382,38.6173529 489.014706,38.2941176 Z M494.970588,39.7647059 L493.941176,39.7647059 C493.697647,39.2295588 493.375441,38.7339706 492.985294,38.2941176 C493.751618,38.6173529 494.427941,39.1220588 494.955882,39.7647059 L494.970588,39.7647059 Z M494.602941,42.5588235 C494.573382,41.9107353 494.464706,41.2688235 494.279412,40.6470588 L495.544118,40.6470588 C495.854853,41.2411765 496.044853,41.8908824 496.102941,42.5588235 L494.602941,42.5588235 Z M494.602941,43.4411765 L496.088235,43.4411765 C496.030147,44.1091176 495.840147,44.7588235 495.529412,45.3529412 L494.279412,45.3529412 C494.464706,44.7311765 494.573382,44.0892647 494.602941,43.4411765 Z M491.441176,45.3529412 L491.441176,43.4411765 L493.720588,43.4411765 C493.688824,44.0926471 493.565,44.7361765 493.352941,45.3529412 L491.441176,45.3529412 Z M491.441176,47.8823529 L491.441176,46.2352941 L492.955882,46.2352941 C492.594118,46.9004412 492.073971,47.4663235 491.441176,47.8823529 Z M490.558824,46.2352941 L490.558824,47.8823529 C489.926176,47.4663235 489.405882,46.9004412 489.044118,46.2352941 L490.558824,46.2352941 Z M488.279412,43.4411765 L490.558824,43.4411765 L490.558824,45.3529412 L488.647059,45.3529412 C488.435,44.7361765 488.311176,44.0926471 488.279412,43.4411765 Z M487.397059,42.5588235 L485.911765,42.5588235 C485.969853,41.8908824 486.159853,41.2411765 486.470588,40.6470588 L487.735294,40.6470588 C487.545,41.2682353 487.431471,41.9101471 487.397059,42.5588235 Z M490.558824,40.6470588 L490.558824,42.5588235 L488.279412,42.5588235 C488.311176,41.9073529 488.435,41.2638235 488.647059,40.6470588 L490.558824,40.6470588 Z M490.558824,38.1176471 L490.558824,39.7647059 L489.044118,39.7647059 C489.405882,39.0994118 489.926176,38.5336765 490.558824,38.1176471 Z M493.352941,40.6470588 C493.565,41.2638235 493.688824,41.9073529 493.720588,42.5588235 L491.441176,42.5588235 L491.441176,40.6470588 L493.352941,40.6470588 Z M491.441176,39.7647059 L491.441176,38.1176471 C492.073971,38.5336765 492.594118,39.0994118 492.955882,39.7647059 L491.441176,39.7647059 Z M485.911765,43.4411765 L487.397059,43.4411765 C487.426765,44.0892647 487.535294,44.7311765 487.720588,45.3529412 L486.455882,45.3529412 C486.150147,44.7577941 485.965294,44.1080882 485.911765,43.4411765 Z M491,37 C487.686324,37 485,39.6863235 485,43 C485,46.3136765 487.686324,49 491,49 C494.313676,49 497,46.3136765 497,43 C497,39.6863235 494.313676,37 491,37 Z" id="web"></path>
                    </g>
                </g>
            </g>
        </g>
    </g>
</svg>