<?xml version="1.0" encoding="UTF-8"?>
<svg width="10px" height="6px" viewBox="0 0 10 6" version="1.1" xmlns="http://www.w3.org/2000/svg" xmlns:xlink="http://www.w3.org/1999/xlink">
    <!-- Generator: sketchtool 63.1 (101010) - https://sketch.com -->
    <title>8CA4CF93-6FE8-4778-B475-72D1AC86D2E6@1x</title>
    <desc>Created with sketchtool.</desc>
    <g id="One-Rule-Multiple-Conditions" stroke="none" stroke-width="1" fill="none" fill-rule="evenodd">
        <g id="Administrator_Assign-User" transform="translate(-816.000000, -311.000000)" fill="#0155FF" stroke="#0155FF">
            <g id="update-field-list_Popup" transform="translate(413.000000, 163.000000)">
                <path d="M405.491005,152 C405.370483,152 405.260103,151.954186 405.174657,151.879748 L405.117594,151.82203 C405.044219,151.735922 405,151.625939 405,151.508995 L405,146.491005 C405,146.249961 405.183256,146.049485 405.412251,146.007911 L405.5,146 C405.776142,146 406,146.22788 406,146.491005 L405.999,151 L410.508995,151 C410.750039,151 410.950515,151.183256 410.992089,151.412251 L411,151.5 C411,151.776142 410.77212,152 410.508995,152 L405.491005,152 Z" id="next-copy-2" transform="translate(408.000000, 149.000000) rotate(-45.000000) translate(-408.000000, -149.000000) "></path>
            </g>
        </g>
    </g>
</svg>