<?xml version="1.0" encoding="UTF-8"?>
<svg width="9px" height="6px" viewBox="0 0 9 6" version="1.1" xmlns="http://www.w3.org/2000/svg" xmlns:xlink="http://www.w3.org/1999/xlink">
    <!-- Generator: sketchtool 63 (101010) - https://sketch.com -->
    <title>3831B330-21D3-4F9D-9F7F-4DB7D702095F@1x</title>
    <desc>Created with sketchtool.</desc>
    <g id="One-Rule-Multiple-Conditions" stroke="none" stroke-width="1" fill="none" fill-rule="evenodd">
        <g id="Administrator_Create-new-rule" transform="translate(-886.000000, -262.000000)" fill="#0155FF">
            <g id="Mailing-List_Popup" transform="translate(438.000000, 175.000000)">
                <g id="Field" transform="translate(30.000000, 75.000000)">
                    <g id="Group-13" transform="translate(0.000000, 0.000000)">
                        <path d="M419.733646,16.2426407 C419.613124,16.2426407 419.502744,16.1968266 419.417297,16.1223882 L419.360234,16.0646712 C419.286859,15.9785623 419.242641,15.8685798 419.242641,15.7516355 L419.242641,10.7336459 C419.242641,10.4926017 419.425897,10.2921258 419.654892,10.2505514 L419.742641,10.2426407 C420.018783,10.2426407 420.242641,10.4705212 420.242641,10.7336459 L420.241641,15.2426407 L424.751636,15.2426407 C424.99268,15.2426407 425.193156,15.4258969 425.23473,15.6548921 L425.242641,15.7426407 C425.242641,16.0187831 425.01476,16.2426407 424.751636,16.2426407 L419.733646,16.2426407 Z" id="next-copy" transform="translate(422.242641, 13.242641) rotate(-45.000000) translate(-422.242641, -13.242641) "></path>
                    </g>
                </g>
            </g>
        </g>
    </g>
</svg>