<?xml version="1.0" encoding="UTF-8"?>
<svg width="31px" height="20px" viewBox="0 0 31 20" version="1.1" xmlns="http://www.w3.org/2000/svg" xmlns:xlink="http://www.w3.org/1999/xlink">
    <!-- Generator: sketchtool 63 (101010) - https://sketch.com -->
    <title>C24A4A18-01BD-4241-A4B7-4E854A988111</title>
    <desc>Created with sketchtool.</desc>
    <g id="One-Rule-Multiple-Conditions" stroke="none" stroke-width="1" fill="none" fill-rule="evenodd">
        <g id="Administrator_Customization_workflow" transform="translate(-641.000000, -136.000000)" fill-rule="nonzero">
            <g id="Tabs-Copy" transform="translate(236.000000, 133.000000)">
                <g id="3.-Automation" transform="translate(403.000000, 1.000000)">
                    <g id="Group-5">
                        <g id="ic_automation">
                            <path d="M32.2293237,11.0665032 C32.1944932,10.8679082 32.0224141,10.7232117 31.8208948,10.7232117 L31.2453626,10.7232117 C31.1479201,10.3799201 31.0115007,10.0511396 30.8381776,9.74101632 L31.2445333,9.33470503 C31.3871724,9.19208148 31.4066609,8.96778107 31.2905593,8.80318354 C30.9240099,8.28244173 30.476604,7.83674313 29.9607812,7.47769662 C29.795751,7.3632661 29.5718408,7.38275246 29.4300309,7.52579061 L29.0269925,7.93085809 C28.71725,7.75796849 28.3892629,7.62197859 28.0455192,7.5245468 L28.0455192,6.94949196 C28.0455192,6.74840933 27.9008068,6.57634894 27.7030194,6.54110766 C27.1191942,6.43787142 26.4922455,6.43248158 25.8333688,6.54027845 C25.6330936,6.57303211 25.4854787,6.74633631 25.4854787,6.94949196 L25.4854787,7.52661982 C25.1454668,7.62197859 24.819553,7.75672468 24.5106398,7.92837047 L24.1071867,7.52537601 C23.9649622,7.38316706 23.7402226,7.3628515 23.5751925,7.47976964 C23.0585403,7.84379138 22.6119638,8.29031919 22.2479023,8.80691497 C22.1318007,8.9719271 22.1512892,9.19622751 22.2935136,9.33885107 L22.6973814,9.74308933 C22.5253022,10.0540418 22.3901268,10.3819931 22.2922697,10.7240409 L21.7175667,10.7240409 C21.5160475,10.7240409 21.3435537,10.869152 21.3091378,11.067747 C21.2560628,11.3724805 21.2307692,11.6780432 21.2307692,12.00019 C21.2307692,12.3024358 21.2568921,12.6171198 21.3087232,12.9359497 C21.3414804,13.1366178 21.5148035,13.2842166 21.7179814,13.2842166 L22.2955869,13.2842166 C22.3913707,13.6233621 22.5269608,13.9504841 22.7011132,14.2622659 L22.2984894,14.6652603 C22.1558503,14.8078839 22.1363618,15.0317697 22.2520488,15.1963672 C22.6132077,15.7113046 23.057711,16.1557594 23.5735339,16.5177081 C23.7377348,16.633797 23.9624743,16.6138961 24.1046988,16.4716871 L24.5081519,16.0686927 C24.819553,16.2424115 25.1471254,16.3779868 25.486308,16.4741747 L25.486308,17.0513026 C25.486308,17.2544582 25.6335082,17.4277624 25.8341981,17.4605161 C26.151819,17.5123415 26.4665373,17.5384615 26.7700601,17.5384615 C27.0959739,17.5384615 27.4011553,17.5123415 27.7038487,17.4592723 C27.9020508,17.4244456 28.0463485,17.2523852 28.0463485,17.0513026 L28.0463485,16.4762478 C28.3888483,16.378816 28.71725,16.2432407 29.0278218,16.0715949 L29.4316895,16.4754185 C29.5747433,16.6180421 29.7994828,16.6383577 29.9636837,16.5210249 C30.4803359,16.1570032 30.9269124,15.7104754 31.2909739,15.1938796 C31.4070755,15.0288675 31.387587,14.804567 31.2453626,14.6619435 L30.8419095,14.2585344 C31.013574,13.9500695 31.1479201,13.6241913 31.2441186,13.2842166 L31.8217241,13.2842166 C32.024902,13.2842166 32.1982251,13.1370324 32.2309823,12.9359497 C32.2815694,12.6162906 32.3076923,12.3020212 32.3076923,11.9993608 C32.3076923,11.6743117 32.2819841,11.3695783 32.2293237,11.0665032 Z M25.1367592,12.7037719 L24.7561117,12.8683694 L25.116856,12.6531903 C25.0339263,12.4508638 24.9916322,12.2307094 24.9916322,11.9989462 C24.9916322,11.7659391 25.0335117,11.5482723 25.1160267,11.3505065 C25.1226611,11.3355808 25.1276369,11.3198259 25.132198,11.304071 C25.1326127,11.3036563 25.1330273,11.3028271 25.133442,11.3011687 C25.3125702,10.8844924 25.6513381,10.5445176 26.0630842,10.3678966 C26.0688893,10.365409 26.073865,10.3629213 26.0792555,10.3604337 C26.0929389,10.3562877 26.105793,10.3517271 26.1194764,10.3463372 C26.5179537,10.1817397 27.0138735,10.1800813 27.4243756,10.3471664 C27.4347418,10.3517271 27.446352,10.3558731 27.4571328,10.3591899 C27.4592061,10.3600191 27.4629379,10.3616775 27.4679137,10.3641652 C27.8784158,10.5391278 28.2155251,10.8724689 28.4062635,11.3032417 C28.41041,11.3173383 28.4149711,11.3314348 28.4207762,11.3451167 C28.5037059,11.5470285 28.5460001,11.7675975 28.5460001,11.9993608 C28.5460001,12.2319532 28.5041206,12.4500346 28.4216055,12.6478004 C28.4149711,12.6627261 28.4099953,12.6784811 28.4054342,12.694236 C28.4037756,12.6975528 28.402117,12.7012842 28.4004584,12.7046011 C28.2234035,13.1167168 27.8829769,13.4558623 27.4907194,13.6287519 C27.4654258,13.6345564 27.4413762,13.6416046 27.4177412,13.6515551 C27.0213371,13.8169819 26.5191977,13.8169819 26.1136713,13.6507259 L25.9565195,14.0346486 L26.0643281,13.630825 C25.6529967,13.4533747 25.3150581,13.115473 25.1367592,12.7037719 Z" id="Shape" fill="#0052FF"></path>
                            <path d="M21.1001549,10.4441721 C21.0421041,10.1131804 20.7553055,9.87201943 20.4194401,9.87201943 L19.4602196,9.87201943 C19.2978156,9.2998668 19.07045,8.75189937 18.7815781,8.2350272 L19.4588375,7.55784172 C19.6965694,7.3201358 19.7290502,6.94630178 19.5355475,6.67197256 C18.9246319,5.80406955 18.1789554,5.06123854 17.3192506,4.46282771 C17.0442004,4.27211017 16.6710166,4.30458743 16.4346669,4.54298436 L15.7629362,5.21809681 C15.2466986,4.92994748 14.7000536,4.70329765 14.1271474,4.54091134 L14.1271474,3.58248659 C14.1271474,3.24734888 13.8859601,2.96058157 13.5563145,2.90184609 C12.5832724,2.7297857 11.5383579,2.72080263 10.4402301,2.90046408 C10.106438,2.95505352 9.86041315,3.24389386 9.86041315,3.58248659 L9.86041315,4.54436637 C9.29372671,4.70329765 8.75053703,4.92787447 8.23568167,5.21395078 L7.56325983,4.54229335 C7.32621904,4.30527843 6.95165312,4.27141916 6.67660288,4.46628274 C5.81551592,5.07298564 5.07122166,5.81719865 4.46445252,6.67819161 C4.27094983,6.95321184 4.30343064,7.32704586 4.54047143,7.56475178 L5.21358435,8.23848222 C4.92678572,8.75673641 4.70149331,9.30332183 4.53839819,9.87340144 L3.58055989,9.87340144 C3.24469451,9.87340144 2.95720481,10.1152534 2.89984508,10.4462451 C2.81138671,10.9541342 2.76923077,11.4634053 2.76923077,12.0003166 C2.76923077,12.5040597 2.81276887,13.0285329 2.899154,13.5599162 C2.9537494,13.8943629 3.24262127,14.1403609 3.58125097,14.1403609 L4.54392684,14.1403609 C4.70356655,14.7056035 4.92955005,15.2508069 5.21980408,15.7704431 L4.5487644,16.4421005 C4.31103253,16.6798064 4.27855172,17.0529495 4.47136333,17.3272787 C5.0732949,18.1855076 5.81413376,18.9262656 6.67383855,19.5295135 C6.94750664,19.722995 7.32207255,19.6898268 7.55911334,19.4528119 L8.23153518,18.7811544 C8.75053703,19.0706858 9.29649104,19.2966446 9.86179531,19.4569579 L9.86179531,20.4188377 C9.86179531,20.7574304 10.1071291,21.0462707 10.4416123,21.1008602 C10.9709804,21.1872359 11.4955109,21.2307692 12.0013822,21.2307692 C12.5445718,21.2307692 13.0532075,21.1872359 13.5576966,21.0987872 C13.8880334,21.0407427 14.1285296,20.7539754 14.1285296,20.4188377 L14.1285296,19.4604129 C14.6993625,19.2980266 15.2466986,19.0720678 15.7643183,18.7859915 L16.4374313,19.4590309 C16.6758542,19.6967368 17.0504201,19.7305961 17.3240882,19.5350415 C18.1851752,18.9283386 18.9294694,18.1841256 19.5362386,17.3231326 C19.7297412,17.0481124 19.6972604,16.6742784 19.4602196,16.4365725 L18.7877978,15.764224 C19.0739054,15.2501159 19.2978156,14.7069855 19.4581464,14.1403609 L20.4208223,14.1403609 C20.759452,14.1403609 21.0483238,13.8950539 21.1029192,13.5599162 C21.1872311,13.0271509 21.2307692,12.5033687 21.2307692,11.9989346 C21.2307692,11.4571862 21.1879222,10.9492971 21.1001549,10.4441721 Z M9.27921401,13.1729531 L8.64480163,13.4472823 L9.24604212,13.0886504 C9.10782592,12.7514397 9.03733565,12.3845157 9.03733565,11.9982436 C9.03733565,11.6098985 9.10713484,11.2471205 9.24465996,10.9175109 C9.25571726,10.8926347 9.26401023,10.8663765 9.27161212,10.8401183 C9.2723032,10.8394272 9.27299428,10.8380452 9.27368536,10.8352812 C9.57223236,10.1408206 10.1368456,9.57419602 10.823089,9.27982764 C10.8327642,9.27568161 10.8410571,9.27153557 10.8500412,9.26738954 C10.8728469,9.26047948 10.8942704,9.25287842 10.917076,9.24389535 C11.5812049,8.96956613 12.4077378,8.96680211 13.091908,9.24527736 C13.109185,9.25287842 13.1285353,9.25978848 13.1465034,9.26531652 C13.1499588,9.26669853 13.1561786,9.26946256 13.1644715,9.27360859 C13.8486417,9.56521295 14.4104906,10.1207814 14.7283879,10.8387362 C14.7352987,10.8622304 14.7429006,10.8857246 14.7525757,10.9085278 C14.8907919,11.2450475 14.9612822,11.6126625 14.9612822,11.9989346 C14.9612822,12.3865887 14.891483,12.7500577 14.7539579,13.0796674 C14.7429006,13.1045436 14.7346076,13.1308018 14.7270057,13.15706 C14.7242414,13.162588 14.7214771,13.1688071 14.7187127,13.1743351 C14.4236211,13.8611947 13.8562436,14.4264372 13.202481,14.7145866 C13.160325,14.7242606 13.1202423,14.7360077 13.0808507,14.7525919 C12.4201773,15.0283031 11.5832781,15.0283031 10.9074009,14.7512099 L10.6454812,15.391081 L10.8251623,14.7180416 C10.1396099,14.4222912 9.57637885,13.8591217 9.27921401,13.1729531 Z" id="Shape-Copy-2" fill="#80AAFE" transform="translate(12.000000, 12.000000) rotate(21.000000) translate(-12.000000, -12.000000) "></path>
                        </g>
                    </g>
                </g>
            </g>
        </g>
    </g>
</svg>