<?xml version="1.0" encoding="UTF-8"?>
<svg width="60px" height="60px" viewBox="0 0 60 60" version="1.1" xmlns="http://www.w3.org/2000/svg" xmlns:xlink="http://www.w3.org/1999/xlink">
    <!-- Generator: sketchtool 63 (101010) - https://sketch.com -->
    <title>4638D400-FAA5-4F6A-BC63-41EC0BEEAD2F</title>
    <desc>Created with sketchtool.</desc>
    <g id="One-Rule-Multiple-Conditions" stroke="none" stroke-width="1" fill="none" fill-rule="evenodd">
        <g id="Administrator_Customization" transform="translate(-949.000000, -544.000000)">
            <g id="6.-Custom-pipeline" transform="translate(839.000000, 514.000000)">
                <g id="ic_COP" transform="translate(110.000000, 30.000000)">
                    <path d="M52.5,0 L7.5,0 C3.35923564,0.00330864271 0.00330864271,3.35923564 0,7.5 L0,52.5 C0.00330864271,56.6407644 3.35923564,59.9966914 7.5,60 L52.5,60 C56.6407644,59.9966914 59.9966914,56.6407644 60,52.5 L60,7.5 C59.9966914,3.35923564 56.6407644,0.00330864271 52.5,0 Z M57,52.5 C56.9966947,54.983911 54.983911,56.9966947 52.5,57 L7.5,57 C5.016089,56.9966947 3.00330528,54.983911 3,52.5 L3,7.5 C3.00330528,5.016089 5.016089,3.00330528 7.5,3 L52.5,3 C54.983911,3.00330528 56.9966947,5.016089 57,7.5 L57,52.5 Z" id="Combined-Shape" fill="#80AAFE" fill-rule="nonzero"></path>
                    <path d="M30.4991579,41.8886316 L30.4991579,43.7223158 C30.4991579,43.8591579 30.3875789,43.9686316 30.2528421,43.9686316 L28.6065263,43.9686316 C28.4696842,43.9686316 28.3581053,43.8591579 28.3581053,43.7223158 L28.3581053,42.0381053 C27.1938947,41.9665263 26.0023158,41.6275789 25.2654737,41.1581053 C25.1728421,41.1012632 25.1328421,40.9896842 25.1602105,40.8823158 L25.6949474,39.0023158 C25.716,38.9286316 25.7707368,38.8675789 25.8423158,38.8381053 C25.9181053,38.8107368 25.996,38.8170526 26.0633684,38.8591579 C26.5833684,39.1686316 27.6612632,39.6928421 29.0233684,39.6928421 C30.1602105,39.6928421 30.8949474,39.1833684 30.8949474,38.396 C30.8949474,37.6465263 30.3307368,37.1517895 28.8823158,36.6317895 C27.1096842,35.9833684 25.2928421,35.0275789 25.2928421,32.8528421 C25.2928421,31.0486316 26.5096842,29.6865263 28.4802105,29.2633684 L28.4802105,27.5475789 C28.4802105,27.4086316 28.5917895,27.2970526 28.7286316,27.2970526 L30.3517895,27.2970526 C30.4886316,27.2970526 30.5981053,27.4086316 30.5981053,27.5475789 L30.5981053,29.1307368 C31.8423158,29.2086316 32.6696842,29.5581053 33.196,29.8191579 C33.3033684,29.8717895 33.356,29.996 33.3223158,30.1117895 L32.7854737,31.9328421 C32.7665263,32.0023158 32.7138947,32.0591579 32.6486316,32.0928421 C32.5812632,32.1202105 32.5054737,32.116 32.4381053,32.0844211 C31.9181053,31.8233684 31.1075789,31.4170526 29.8570526,31.4170526 C28.8317895,31.4170526 28.2233684,31.8444211 28.2233684,32.556 C28.2233684,33.1875789 28.7917895,33.6170526 30.4802105,34.2654737 C32.8275789,35.1454737 33.8296842,36.316 33.8296842,38.1791579 C33.8275789,40.0381053 32.5265263,41.476 30.4991579,41.8886316 M29.5391579,24.0275789 C24.9917895,24.1938947 23.6738947,22.5286316 23.4086316,22.6233684 C16.6781053,24.9623158 11.0002105,31.8317895 11.0002105,38.7938947 C11.0002105,47.7517895 16.1117895,50.1054737 30.3265263,50.1054737 C44.5412632,50.1054737 49.6528421,47.6928421 49.6528421,38.7938947 C49.6528421,31.3075789 42.7349474,24.1370526 35.6212632,22.1138947 C35.2444211,22.0065263 34.5707368,23.8465263 29.5391579,24.0275789" id="Fill-4" fill="#80AAFE"></path>
                    <path d="M23.6581053,20.2684211 C24.2033684,21.2389474 27.7023158,21.7252632 29.4181053,21.6621053 C31.1317895,21.6031579 34.6391579,20.8326316 34.5086316,19.3610526 C34.2686316,16.6326316 35.9275789,12.9863158 36.256,12.4810526 C36.9233684,11.4494737 36.976,9.3 34.1591579,10.3231579 C33.5002105,10.5631579 31.9444211,12.18 31.2833684,10.2642105 C30.096,6.81789474 27.3402105,7.77368421 26.7317895,10.0242105 C26.3107368,11.5821053 24.6328421,11.7 22.7170526,11.5210526 C20.4728421,11.3105263 20.1844211,12.7147368 20.9317895,13.9063158 C21.3296842,14.5357895 23.0307368,19.1568421 23.6581053,20.2684211" id="Fill-1" fill="#80AAFE"></path>
                    <rect id="Rectangle" fill="#FFFFFF" fill-rule="nonzero" x="33" y="33" width="27" height="27" rx="6"></rect>
                    <path d="M57.8612637,44.154052 C57.792033,43.7592718 57.45,43.4716344 57.0494505,43.4716344 L55.9054945,43.4716344 C55.7118132,42.7892168 55.4406593,42.1356454 55.0961538,41.5191619 L55.9038462,40.7114696 C56.1873626,40.4279531 56.2260989,39.982074 55.9953297,39.6548762 C55.2667582,38.6197113 54.3774725,37.7337223 53.3521978,37.0199861 C53.0241758,36.7925135 52.5791209,36.8312498 52.2972527,37.1155905 L51.4961538,37.9208102 C50.8804945,37.5771289 50.2285714,37.3067993 49.5453297,37.1131179 L49.5453297,35.9699861 C49.5453297,35.5702608 49.2576923,35.2282278 48.8645604,35.1581729 C47.7041209,34.9529531 46.457967,34.9422388 45.1483516,35.1565245 C44.7502747,35.2216344 44.4568681,35.5661399 44.4568681,35.9699861 L44.4568681,37.1172388 C43.781044,37.3067993 43.1332418,37.5746564 42.5192308,37.9158652 L41.7173077,37.1147663 C41.4346154,36.832074 40.9879121,36.7916894 40.6598901,37.0241069 C39.632967,37.7477333 38.7453297,38.6353707 38.0217033,39.6622938 C37.7909341,39.9903157 37.8296703,40.4361949 38.1123626,40.7197113 L38.9151099,41.5232828 C38.5730769,42.1414146 38.3043956,42.7933377 38.1098901,43.4732828 L36.9675824,43.4732828 C36.567033,43.4732828 36.2241758,43.7617443 36.1557692,44.1565245 C36.0502747,44.7622938 36,45.3697113 36,46.010096 C36,46.6109201 36.0519231,47.2364696 36.1549451,47.8702608 C36.2200549,48.2691619 36.5645604,48.5625685 36.9684066,48.5625685 L38.1164835,48.5625685 C38.3068681,49.2367443 38.5763736,49.887019 38.9225275,50.5067993 L38.1222527,51.3078982 C37.8387363,51.5914146 37.8,52.0364696 38.0299451,52.3636674 C38.7478022,53.3872938 39.6313187,54.2708102 40.6565934,54.9903157 C40.982967,55.221085 41.4296703,55.1815245 41.7123626,54.8988322 L42.5142857,54.0977333 C43.1332418,54.443063 43.7843407,54.7125685 44.4585165,54.9037773 L44.4585165,56.05103 C44.4585165,56.4548762 44.7510989,56.7993817 45.15,56.8644916 C45.7813187,56.9675135 46.4068681,57.0194366 47.0101648,57.0194366 C47.657967,57.0194366 48.2645604,56.9675135 48.8662088,56.862019 C49.2601648,56.7927883 49.546978,56.4507553 49.546978,56.05103 L49.546978,54.9078982 C50.2277473,54.7142168 50.8804945,54.4447113 51.4978022,54.1035025 L52.3005495,54.9062498 C52.5848901,55.1897663 53.0315934,55.2301509 53.357967,54.9969091 C54.3848901,54.2732828 55.2725275,53.3856454 55.9961538,52.3587223 C56.2269231,52.0307004 56.1881868,51.5848212 55.9054945,51.3013047 L55.1035714,50.4993817 C55.4447802,49.8861949 55.7118132,49.2383927 55.903022,48.5625685 L57.0510989,48.5625685 C57.4549451,48.5625685 57.7994505,48.2699861 57.8645604,47.8702608 C57.9651099,47.2348212 58.017033,46.610096 58.017033,46.0084476 C58.017033,45.3622938 57.9659341,44.7565245 57.8612637,44.154052 Z M43.7637363,47.4087223 L43.0071429,47.7359201 L43.7241758,47.3081729 C43.5593407,46.9059751 43.4752747,46.4683377 43.4752747,46.0076234 C43.4752747,45.5444366 43.5585165,45.1117443 43.7225275,44.7186124 C43.7357143,44.6889421 43.7456044,44.6576234 43.7546703,44.6263047 C43.7554945,44.6254806 43.7563187,44.6238322 43.7571429,44.6205355 C44.1131868,43.7922388 44.7865385,43.1164146 45.6049451,42.7653157 C45.6164835,42.7603707 45.6263736,42.7554256 45.6370879,42.7504806 C45.6642857,42.7422388 45.6898352,42.7331729 45.717033,42.7224586 C46.5090659,42.3952608 47.4947802,42.3919641 48.3107143,42.7241069 C48.3313187,42.7331729 48.3543956,42.7414146 48.3758242,42.748008 C48.3799451,42.7496564 48.3873626,42.7529531 48.3972527,42.7578982 C49.2131868,43.1057004 49.8832418,43.7683377 50.2623626,44.6246564 C50.2706044,44.6526784 50.2796703,44.6807004 50.2912088,44.7078982 C50.456044,45.1092718 50.5401099,45.5477333 50.5401099,46.0084476 C50.5401099,46.4708102 50.4568681,46.9043267 50.2928571,47.2974586 C50.2796703,47.3271289 50.2697802,47.3584476 50.2607143,47.3897663 C50.2574176,47.3963597 50.2541209,47.4037773 50.2508242,47.4103707 C49.8989011,48.2296015 49.2222527,48.9037773 48.4425824,49.2474586 C48.3923077,49.2589971 48.3445055,49.273008 48.2975275,49.2927883 C47.5096154,49.6216344 46.5115385,49.6216344 45.7054945,49.2911399 L45.3931319,50.0543267 L45.6074176,49.2515795 C44.7898352,48.8988322 44.1181319,48.2271289 43.7637363,47.4087223 Z" id="Shape" fill="#0052FF" fill-rule="nonzero"></path>
                </g>
            </g>
        </g>
    </g>
</svg>