<?xml version="1.0" encoding="UTF-8"?>
<svg width="60px" height="60px" viewBox="0 0 60 60" version="1.1" xmlns="http://www.w3.org/2000/svg" xmlns:xlink="http://www.w3.org/1999/xlink">
    <!-- Generator: sketchtool 63 (101010) - https://sketch.com -->
    <title>9C00851C-6D8E-49A5-8713-F9B90475D958</title>
    <desc>Created with sketchtool.</desc>
    <g id="One-Rule-Multiple-Conditions" stroke="none" stroke-width="1" fill="none" fill-rule="evenodd">
        <g id="Administrator_Customization" transform="translate(-349.000000, -214.000000)" fill-rule="nonzero">
            <g id="1.-Custom-field-setup" transform="translate(239.000000, 184.000000)">
                <g id="ic_CFS" transform="translate(110.000000, 30.000000)">
                    <path d="M52.5,0 C56.6407644,0.00330864271 59.9966914,3.35923564 60,7.5 L60,7.5 L60,39 C60,36.7795505 58.793836,34.8408156 57.000963,33.8032504 L57,7.5 C56.9966947,5.016089 54.983911,3.00330528 52.5,3 L52.5,3 L7.5,3 C5.016089,3.00330528 3.00330528,5.016089 3,7.5 L3,7.5 L3,52.5 C3.00330528,54.983911 5.016089,56.9966947 7.5,57 L7.5,57 L33.8032504,57.000963 C34.8408156,58.793836 36.7795505,60 39,60 L39,60 L7.5,60 C3.35923564,59.9966914 0.00330864271,56.6407644 0,52.5 L0,52.5 L0,7.5 C0.00330864271,3.35923564 3.35923564,0.00330864271 7.5,0 L7.5,0 Z" id="Combined-Shape" fill="#80AAFE"></path>
                    <g id="Group-6" transform="translate(15.000000, 13.000000)">
                        <path d="M7.90441176,-7.10542736e-15 L1.98529412,-7.10542736e-15 C0.882352941,-7.10542736e-15 1.05693232e-13,0.882352941 1.05693232e-13,1.98529412 L1.05693232e-13,7.90441176 C1.05693232e-13,9.00735294 0.882352941,9.88970588 1.98529412,9.88970588 L7.90441176,9.88970588 C9.00735294,9.88970588 9.88970588,9.00735294 9.88970588,7.90441176 L9.88970588,1.98529412 C9.88970588,0.882352941 9.00735294,-7.10542736e-15 7.90441176,-7.10542736e-15 Z M7.27941176,4.26470588 L4.85294118,6.69117647 C4.70588235,6.83823529 4.52205882,6.91176471 4.33823529,6.91176471 C4.15441176,6.91176471 3.97058824,6.83823529 3.82352941,6.69117647 L2.61029412,5.47794118 C2.31617647,5.18382353 2.31617647,4.70588235 2.61029412,4.41176471 C2.90441176,4.11764706 3.38235294,4.11764706 3.67647059,4.41176471 L4.375,5.11029412 L6.25,3.23529412 C6.54411765,2.94117647 7.02205882,2.94117647 7.31617647,3.23529412 C7.57352941,3.49264706 7.57352941,3.97058824 7.27941176,4.26470588 Z" id="Shape" fill="#0052FF"></path>
                        <path d="M7.90441176,12.5367647 L1.98529412,12.5367647 C0.882352941,12.5367647 1.05693232e-13,13.4191176 1.05693232e-13,14.5220588 L1.05693232e-13,20.4411765 C1.05693232e-13,21.5441176 0.882352941,22.4264706 1.98529412,22.4264706 L7.90441176,22.4264706 C9.00735294,22.4264706 9.88970588,21.5441176 9.88970588,20.4411765 L9.88970588,14.4852941 C9.88970588,13.4191176 9.00735294,12.5367647 7.90441176,12.5367647 Z M7.27941176,16.7647059 L4.85294118,19.1911765 C4.70588235,19.3382353 4.52205882,19.4117647 4.33823529,19.4117647 C4.15441176,19.4117647 3.97058824,19.3382353 3.82352941,19.1911765 L2.61029412,17.9779412 C2.31617647,17.6838235 2.31617647,17.2058824 2.61029412,16.9117647 C2.90441176,16.6176471 3.38235294,16.6176471 3.67647059,16.9117647 L4.375,17.6102941 L6.25,15.7352941 C6.54411765,15.4411765 7.02205882,15.4411765 7.31617647,15.7352941 C7.57352941,16.0294118 7.57352941,16.5073529 7.27941176,16.7647059 Z" id="Shape" fill="#80AAFE"></path>
                        <path d="M7.90441176,25.0367647 L1.98529412,25.0367647 C0.882352941,25.0367647 1.05693232e-13,25.9191176 1.05693232e-13,27.0220588 L1.05693232e-13,32.9411765 C1.05693232e-13,34.0441176 0.882352941,34.9264706 1.98529412,34.9264706 L7.90441176,34.9264706 C9.00735294,34.9264706 9.88970588,34.0441176 9.88970588,32.9411765 L9.88970588,27.0220588 C9.88970588,25.9191176 9.00735294,25.0367647 7.90441176,25.0367647 Z M7.27941176,29.3014706 L4.85294118,31.7279412 C4.70588235,31.875 4.52205882,31.9485294 4.33823529,31.9485294 C4.15441176,31.9485294 3.97058824,31.875 3.82352941,31.7279412 L2.61029412,30.5147059 C2.31617647,30.2205882 2.31617647,29.7426471 2.61029412,29.4485294 C2.90441176,29.1544118 3.38235294,29.1544118 3.67647059,29.4485294 L4.375,30.1470588 L6.25,28.2720588 C6.54411765,27.9779412 7.02205882,27.9779412 7.31617647,28.2720588 C7.57352941,28.5294118 7.57352941,29.0073529 7.27941176,29.3014706 Z" id="Shape" fill="#80AAFE"></path>
                        <path d="M13.2720588,3.86029412 L28.4191176,3.86029412 C29.0073529,3.86029412 29.4852941,3.38235294 29.4852941,2.79411765 C29.4852941,2.20588235 29.0073529,1.72794118 28.4191176,1.72794118 L13.2720588,1.72794118 C12.6838235,1.72794118 12.2058824,2.20588235 12.2058824,2.79411765 C12.2058824,3.38235294 12.6838235,3.86029412 13.2720588,3.86029412 Z" id="Path" fill="#0052FF"></path>
                        <path d="M13.2720588,8.16176471 L22.8308824,8.16176471 C23.4191176,8.16176471 23.8970588,7.68382353 23.8970588,7.09558824 C23.8970588,6.50735294 23.4191176,6.02941176 22.8308824,6.02941176 L13.2720588,6.02941176 C12.6838235,6.02941176 12.2058824,6.50735294 12.2058824,7.09558824 C12.2058824,7.68382353 12.6838235,8.16176471 13.2720588,8.16176471 Z" id="Path" fill="#0052FF"></path>
                        <path d="M28.4191176,14.2647059 L13.2720588,14.2647059 C12.6838235,14.2647059 12.2058824,14.7426471 12.2058824,15.3308824 C12.2058824,15.9191176 12.6838235,16.3970588 13.2720588,16.3970588 L28.4191176,16.3970588 C29.0073529,16.3970588 29.4852941,15.9191176 29.4852941,15.3308824 C29.4852941,14.7426471 29.0073529,14.2647059 28.4191176,14.2647059 Z" id="Path" fill="#80AAFE"></path>
                        <path d="M13.2720588,20.6617647 L22.8308824,20.6617647 C23.4191176,20.6617647 23.8970588,20.1838235 23.8970588,19.5955882 C23.8970588,19.0073529 23.4191176,18.5294118 22.8308824,18.5294118 L13.2720588,18.5294118 C12.6838235,18.5294118 12.2058824,19.0073529 12.2058824,19.5955882 C12.2058824,20.1838235 12.6838235,20.6617647 13.2720588,20.6617647 Z" id="Path" fill="#80AAFE"></path>
                        <path d="M28.4191176,26.7647059 L13.2720588,26.7647059 C12.6838235,26.7647059 12.2058824,27.2426471 12.2058824,27.8308824 C12.2058824,28.4191176 12.6838235,28.8970588 13.2720588,28.8970588 L28.4191176,28.8970588 C29.0073529,28.8970588 29.4852941,28.4191176 29.4852941,27.8308824 C29.4852941,27.2426471 29.0073529,26.7647059 28.4191176,26.7647059 Z" id="Path" fill="#80AAFE"></path>
                        <path d="M22.8308824,31.0661765 L13.2720588,31.0661765 C12.6838235,31.0661765 12.2058824,31.5441176 12.2058824,32.1323529 C12.2058824,32.7205882 12.6838235,33.1985294 13.2720588,33.1985294 L22.8308824,33.1985294 C23.4191176,33.1985294 23.8970588,32.7205882 23.8970588,32.1323529 C23.8970588,31.5441176 23.4191176,31.0661765 22.8308824,31.0661765 Z" id="Path" fill="#80AAFE"></path>
                    </g>
                    <path d="M57.8612637,44.154052 C57.792033,43.7592718 57.45,43.4716344 57.0494505,43.4716344 L55.9054945,43.4716344 C55.7118132,42.7892168 55.4406593,42.1356454 55.0961538,41.5191619 L55.9038462,40.7114696 C56.1873626,40.4279531 56.2260989,39.982074 55.9953297,39.6548762 C55.2667582,38.6197113 54.3774725,37.7337223 53.3521978,37.0199861 C53.0241758,36.7925135 52.5791209,36.8312498 52.2972527,37.1155905 L51.4961538,37.9208102 C50.8804945,37.5771289 50.2285714,37.3067993 49.5453297,37.1131179 L49.5453297,35.9699861 C49.5453297,35.5702608 49.2576923,35.2282278 48.8645604,35.1581729 C47.7041209,34.9529531 46.457967,34.9422388 45.1483516,35.1565245 C44.7502747,35.2216344 44.4568681,35.5661399 44.4568681,35.9699861 L44.4568681,37.1172388 C43.781044,37.3067993 43.1332418,37.5746564 42.5192308,37.9158652 L41.7173077,37.1147663 C41.4346154,36.832074 40.9879121,36.7916894 40.6598901,37.0241069 C39.632967,37.7477333 38.7453297,38.6353707 38.0217033,39.6622938 C37.7909341,39.9903157 37.8296703,40.4361949 38.1123626,40.7197113 L38.9151099,41.5232828 C38.5730769,42.1414146 38.3043956,42.7933377 38.1098901,43.4732828 L36.9675824,43.4732828 C36.567033,43.4732828 36.2241758,43.7617443 36.1557692,44.1565245 C36.0502747,44.7622938 36,45.3697113 36,46.010096 C36,46.6109201 36.0519231,47.2364696 36.1549451,47.8702608 C36.2200549,48.2691619 36.5645604,48.5625685 36.9684066,48.5625685 L38.1164835,48.5625685 C38.3068681,49.2367443 38.5763736,49.887019 38.9225275,50.5067993 L38.1222527,51.3078982 C37.8387363,51.5914146 37.8,52.0364696 38.0299451,52.3636674 C38.7478022,53.3872938 39.6313187,54.2708102 40.6565934,54.9903157 C40.982967,55.221085 41.4296703,55.1815245 41.7123626,54.8988322 L42.5142857,54.0977333 C43.1332418,54.443063 43.7843407,54.7125685 44.4585165,54.9037773 L44.4585165,56.05103 C44.4585165,56.4548762 44.7510989,56.7993817 45.15,56.8644916 C45.7813187,56.9675135 46.4068681,57.0194366 47.0101648,57.0194366 C47.657967,57.0194366 48.2645604,56.9675135 48.8662088,56.862019 C49.2601648,56.7927883 49.546978,56.4507553 49.546978,56.05103 L49.546978,54.9078982 C50.2277473,54.7142168 50.8804945,54.4447113 51.4978022,54.1035025 L52.3005495,54.9062498 C52.5848901,55.1897663 53.0315934,55.2301509 53.357967,54.9969091 C54.3848901,54.2732828 55.2725275,53.3856454 55.9961538,52.3587223 C56.2269231,52.0307004 56.1881868,51.5848212 55.9054945,51.3013047 L55.1035714,50.4993817 C55.4447802,49.8861949 55.7118132,49.2383927 55.903022,48.5625685 L57.0510989,48.5625685 C57.4549451,48.5625685 57.7994505,48.2699861 57.8645604,47.8702608 C57.9651099,47.2348212 58.017033,46.610096 58.017033,46.0084476 C58.017033,45.3622938 57.9659341,44.7565245 57.8612637,44.154052 Z M43.7637363,47.4087223 L43.0071429,47.7359201 L43.7241758,47.3081729 C43.5593407,46.9059751 43.4752747,46.4683377 43.4752747,46.0076234 C43.4752747,45.5444366 43.5585165,45.1117443 43.7225275,44.7186124 C43.7357143,44.6889421 43.7456044,44.6576234 43.7546703,44.6263047 C43.7554945,44.6254806 43.7563187,44.6238322 43.7571429,44.6205355 C44.1131868,43.7922388 44.7865385,43.1164146 45.6049451,42.7653157 C45.6164835,42.7603707 45.6263736,42.7554256 45.6370879,42.7504806 C45.6642857,42.7422388 45.6898352,42.7331729 45.717033,42.7224586 C46.5090659,42.3952608 47.4947802,42.3919641 48.3107143,42.7241069 C48.3313187,42.7331729 48.3543956,42.7414146 48.3758242,42.748008 C48.3799451,42.7496564 48.3873626,42.7529531 48.3972527,42.7578982 C49.2131868,43.1057004 49.8832418,43.7683377 50.2623626,44.6246564 C50.2706044,44.6526784 50.2796703,44.6807004 50.2912088,44.7078982 C50.456044,45.1092718 50.5401099,45.5477333 50.5401099,46.0084476 C50.5401099,46.4708102 50.4568681,46.9043267 50.2928571,47.2974586 C50.2796703,47.3271289 50.2697802,47.3584476 50.2607143,47.3897663 C50.2574176,47.3963597 50.2541209,47.4037773 50.2508242,47.4103707 C49.8989011,48.2296015 49.2222527,48.9037773 48.4425824,49.2474586 C48.3923077,49.2589971 48.3445055,49.273008 48.2975275,49.2927883 C47.5096154,49.6216344 46.5115385,49.6216344 45.7054945,49.2911399 L45.3931319,50.0543267 L45.6074176,49.2515795 C44.7898352,48.8988322 44.1181319,48.2271289 43.7637363,47.4087223 Z" id="Shape" fill="#0052FF"></path>
                </g>
            </g>
        </g>
    </g>
</svg>