<?xml version="1.0" encoding="UTF-8"?>
<svg width="24px" height="24px" viewBox="0 0 24 24" version="1.1" xmlns="http://www.w3.org/2000/svg" xmlns:xlink="http://www.w3.org/1999/xlink">
    <!-- Generator: sketchtool 63 (101010) - https://sketch.com -->
    <title>9763071D-805E-4C77-A31C-790164C088CC</title>
    <desc>Created with sketchtool.</desc>
    <g id="One-Rule-Multiple-Conditions" stroke="none" stroke-width="1" fill="none" fill-rule="evenodd">
        <g id="Administrator_Customization_workflow" transform="translate(-444.000000, -133.000000)" fill-rule="nonzero">
            <g id="Tabs-Copy" transform="translate(236.000000, 133.000000)">
                <g id="2.customization" transform="translate(208.000000, 0.000000)">
                    <g id="Group-5">
                        <g id="ic_customization">
                            <path d="M21,0 L3,0 C1.34369425,0.00132345708 0.00132345708,1.34369425 0,3 L0,21 C0.00132345708,22.6563057 1.34369425,23.9986765 3,24 L21,24 C22.6563057,23.9986765 23.9986765,22.6563057 24,21 L24,3 C23.9986765,1.34369425 22.6563057,0.00132345708 21,0 Z M22.8,21 C22.7986779,21.9935644 21.9935644,22.7986779 21,22.8 L3,22.8 C2.0064356,22.7986779 1.20132211,21.9935644 1.2,21 L1.2,3 C1.20132211,2.0064356 2.0064356,1.20132211 3,1.2 L21,1.2 C21.9935644,1.20132211 22.7986779,2.0064356 22.8,3 L22.8,21 Z" id="Shape" fill="#80AAFE"></path>
                            <path d="M16.8,7.8 L13.6944,7.8 C13.4401426,7.08235011 12.7613594,6.60271192 12,6.60271192 C11.2386406,6.60271192 10.5598574,7.08235011 10.3056,7.8 L7.2,7.8 C6.86862915,7.8 6.6,8.06862915 6.6,8.4 C6.6,8.73137085 6.86862915,9 7.2,9 L10.3056,9 C10.5598574,9.71764989 11.2386406,10.1972881 12,10.1972881 C12.7613594,10.1972881 13.4401426,9.71764989 13.6944,9 L16.8,9 C17.1313708,9 17.4,8.73137085 17.4,8.4 C17.4,8.06862915 17.1313708,7.8 16.8,7.8 Z M12,9 C11.6686292,9 11.4,8.73137085 11.4,8.4 C11.4,8.06862915 11.6686292,7.8 12,7.8 C12.3313708,7.8 12.6,8.06862915 12.6,8.4 C12.6,8.73137085 12.3313708,9 12,9 Z" id="Shape" fill="#0052FF"></path>
                            <path d="M16.8,15 L13.6944,15 C13.4401426,14.2823501 12.7613594,13.8027119 12,13.8027119 C11.2386406,13.8027119 10.5598574,14.2823501 10.3056,15 L7.2,15 C6.86862915,15 6.6,15.2686292 6.6,15.6 C6.6,15.9313708 6.86862915,16.2 7.2,16.2 L10.3056,16.2 C10.5598574,16.9176499 11.2386406,17.3972881 12,17.3972881 C12.7613594,17.3972881 13.4401426,16.9176499 13.6944,16.2 L16.8,16.2 C17.1313708,16.2 17.4,15.9313708 17.4,15.6 C17.4,15.2686292 17.1313708,15 16.8,15 Z M12,16.2 C11.6686292,16.2 11.4,15.9313708 11.4,15.6 C11.4,15.2686292 11.6686292,15 12,15 C12.3313708,15 12.6,15.2686292 12.6,15.6 C12.6,15.9313708 12.3313708,16.2 12,16.2 Z" id="Shape" fill="#0052FF"></path>
                            <path d="M15.6,10.199998 C14.8383941,10.2018399 14.1601432,10.6821876 13.9056,11.4 L7.2,11.4 C6.86862915,11.4 6.6,11.6686292 6.6,12 C6.6,12.3313708 6.86862915,12.6 7.2,12.6 L13.9056,12.6 C14.2108423,13.4633525 15.1156225,13.9599341 16.007844,13.7538003 C16.9000656,13.5476665 17.4953237,12.7045247 17.390918,11.7947721 C17.2865122,10.8850194 16.515723,10.198649 15.6,10.199998 L15.6,10.199998 Z M15.6,12.6 C15.2686292,12.6 15,12.3313708 15,12 C15,11.6686292 15.2686292,11.4 15.6,11.4 C15.9313708,11.4 16.2,11.6686292 16.2,12 C16.2,12.3313708 15.9313708,12.6 15.6,12.6 Z" id="Shape" fill="#0052FF"></path>
                        </g>
                    </g>
                </g>
            </g>
        </g>
    </g>
</svg>