<?xml version="1.0" encoding="UTF-8"?>
<svg width="62px" height="62px" viewBox="0 0 62 62" version="1.1" xmlns="http://www.w3.org/2000/svg" xmlns:xlink="http://www.w3.org/1999/xlink">
    <!-- Generator: sketchtool 63.1 (101010) - https://sketch.com -->
    <title>4B57A93A-A32C-4349-AE9B-3635A4E02293</title>
    <desc>Created with sketchtool.</desc>
    <g id="One-Rule-Multiple-Conditions" stroke="none" stroke-width="1" fill="none" fill-rule="evenodd">
        <g id="Administrator_Setup" transform="translate(-647.000000, -543.000000)">
            <g id="5.-Currency-setup" transform="translate(538.000000, 514.000000)">
                <g id="ic_currency-setup" transform="translate(110.000000, 30.000000)">
                    <path d="M31.8221267,18.4314119 L31.8491285,18.4365674 C41.0511983,21.0792764 50,30.4456311 50,40.2244793 C50,51.8485489 43.3877996,55 25,55 C6.61220044,55 0,51.9255477 0,40.2244793 C0,31.1303704 7.34477124,22.1572597 16.0511983,19.1020571 C16.3943355,18.978309 18.0991285,21.1535253 23.9814815,20.9362786 C30.4901961,20.6997823 31.3616558,18.2963196 31.8491285,18.4365674 Z M20.3499455,2.6446625 C21.1369826,-0.295041879 24.7017974,-1.5435225 26.2377451,2.95815764 C27.0928649,5.4606188 29.1053922,3.34865158 29.9577887,3.03515644 C33.6015795,1.69867718 33.5334967,4.50638361 32.670207,5.8538627 C32.2453704,6.51385245 30.0994009,11.2767785 30.4098584,14.8407232 C30.5787037,16.7629434 26.0416667,17.7694278 23.8248911,17.8464266 C21.6053922,17.9289253 17.0792484,17.2936852 16.3739107,16.0259548 C15.5623638,14.5739774 13.3619281,8.53782104 12.8472222,7.7155838 C11.8804466,6.15910796 12.2535403,4.32488643 15.1565904,4.59988216 C17.6348039,4.83362853 19.8052832,4.67963092 20.3499455,2.6446625 Z" id="Combined-Shape" stroke="#0052FF" stroke-width="2" fill="#C5D7FC"></path>
                    <path d="M25.2233115,44.2669166 L25.2233115,46.6621294 C25.2233115,46.8408766 25.078976,46.9838744 24.9046841,46.9838744 L22.7750545,46.9838744 C22.5980392,46.9838744 22.4537037,46.8408766 22.4537037,46.6621294 L22.4537037,44.4621635 C20.9477124,44.368665 19.4063181,43.9259219 18.453159,43.3126814 C18.3333333,43.2384325 18.2815904,43.0926848 18.3169935,42.952437 L19.0087146,40.4967251 C19.0359477,40.4004766 19.1067538,40.3207278 19.1993464,40.2822284 C19.2973856,40.246479 19.3981481,40.2547288 19.4852941,40.309728 C20.1579521,40.7139717 21.5522876,41.3987111 23.3142702,41.3987111 C24.7848584,41.3987111 25.7352941,40.7332214 25.7352941,39.7047374 C25.7352941,38.7257526 25.0054466,38.0795126 23.1318083,37.4002731 C20.83878,36.5532863 18.4885621,35.3048056 18.4885621,32.4640997 C18.4885621,30.1073863 20.0626362,28.3281639 22.6116558,27.7754225 L22.6116558,25.5342073 C22.6116558,25.3527101 22.7559913,25.2069624 22.9330065,25.2069624 L25.0326797,25.2069624 C25.209695,25.2069624 25.3513072,25.3527101 25.3513072,25.5342073 L25.3513072,27.6021752 C26.9607843,27.7039236 28.0310458,28.1604165 28.7118736,28.5014112 C28.8507625,28.5701602 28.9188453,28.7324076 28.8752723,28.8836553 L28.1808279,31.2623684 C28.1563181,31.353117 28.0882353,31.4273658 28.0038126,31.4713651 C27.9166667,31.5071146 27.8186275,31.5016147 27.7314815,31.4603653 C27.0588235,31.1193706 26.0103486,30.5886288 24.3927015,30.5886288 C23.0664488,30.5886288 22.2794118,31.1468702 22.2794118,32.0763558 C22.2794118,32.9013429 23.0147059,33.4623342 25.1988017,34.3093211 C28.2352941,35.4588033 29.5315904,36.9877795 29.5315904,39.4214918 C29.5288671,41.8497041 27.8458606,43.7279249 25.2233115,44.2669166" id="Path" fill="#0052FF"></path>
                    <g id="setting" transform="translate(30.000000, 30.000000)">
                        <path d="M15.0012544,30 C6.72957377,30 0,23.2716376 0,15.0004181 C0,6.72919861 6.72957377,-2.84217094e-14 15.0012544,-2.84217094e-14 C23.2729351,-2.84217094e-14 30,6.73003484 30,15.0012544 C30,23.2724739 23.2729351,30 15.0012544,30 Z" id="Path" stroke="#0052FF" stroke-width="2" fill="#FFFFFF"></path>
                        <g id="Group-7" transform="translate(6.000000, 6.000000)" fill="#0052FF" fill-rule="nonzero">
                            <path d="M7.47922438,0.127952479 C8.54989893,-0.047217437 9.56869057,-0.0384589412 10.5174066,0.12929994 C10.8388111,0.186567028 11.0739687,0.466165162 11.0739687,0.792924428 L11.0739687,0.792924428 L11.0739687,1.72738856 C11.6325522,1.88571521 12.1655312,2.1066988 12.6688628,2.38764439 L12.6688628,2.38764439 L13.3238003,1.72940975 C13.5542412,1.49697274 13.9180954,1.46530741 14.1862694,1.65125702 C15.0244815,2.23470758 15.7515161,2.95896781 16.3471588,3.80517325 C16.5358239,4.07264424 16.5041551,4.43713241 16.2723665,4.66889568 L16.2723665,4.66889568 L15.6120386,5.32915152 C15.8936887,5.83310189 16.1153702,6.36737013 16.2737142,6.92521894 L16.2737142,6.92521894 L17.2089541,6.92521894 C17.5364228,6.92521894 17.8160515,7.16035087 17.872651,7.48306775 C17.9582242,7.97556471 18,8.47075658 18,8.99896125 C18,9.49078448 17.9575503,10.0014722 17.8753463,10.5209183 C17.8221157,10.8476776 17.5404657,11.0868519 17.2103017,11.0868519 L17.2103017,11.0868519 L16.2716927,11.0868519 C16.1153702,11.6393109 15.8970577,12.168863 15.6181029,12.6701184 L15.6181029,12.6701184 L16.2737142,13.3256582 C16.5048289,13.5574214 16.5364977,13.9219096 16.3478326,14.1900543 C15.7562327,15.0295225 15.0305458,15.7551302 14.190986,16.3466655 C13.9241596,16.5373312 13.5589578,16.5043184 13.3264955,16.2725551 L13.3264955,16.2725551 L12.6702104,15.6163417 C12.1655312,15.8952661 11.6318784,16.1155759 11.0753163,16.2739026 L11.0753163,16.2739026 L11.0753163,17.2083667 C11.0753163,17.535126 10.8408325,17.8147241 10.5187542,17.8713175 C10.0268773,17.957555 9.53095755,18 9.00134761,18 C8.50812308,18 7.99670585,17.957555 7.48057198,17.8733387 C7.15445085,17.820114 6.91525043,17.5384946 6.91525043,17.2083667 L6.91525043,17.2083667 L6.91525043,16.2705339 C6.36407876,16.1142285 5.8317736,15.8939186 5.3257468,15.6116256 L5.3257468,15.6116256 L4.67013551,16.2664916 C4.43902074,16.4975811 4.07381897,16.5299202 3.80699259,16.3412756 C2.96878041,15.753109 2.24646253,15.0308699 1.65957925,14.1940967 C1.47158793,13.9266257 1.50325672,13.5628113 1.73504529,13.331048 L1.73504529,13.331048 L2.38930898,12.676182 C2.1063113,12.1695367 1.88597739,11.6379634 1.73032867,11.0868519 L1.73032867,11.0868519 L0.791719698,11.0868519 C0.461555739,11.0868519 0.179905667,10.8470039 0.126675152,10.5209183 C0.0424496519,10.0028196 6.92779167e-13,9.49145821 6.92779167e-13,9.00030871 C6.92779167e-13,8.47682016 0.0411020439,7.98028082 0.127348956,7.48508894 C0.183274687,7.16237206 0.463577151,6.9265664 0.791045894,6.9265664 L0.791045894,6.9265664 L1.72493823,6.9265664 C1.88395598,6.37073878 2.10361608,5.837818 2.38324474,5.33252017 L2.38324474,5.33252017 L1.72695965,4.67563298 C1.49584488,4.44386971 1.46417609,4.07938154 1.65284121,3.81123682 C2.24444112,2.97176869 2.97012802,2.246161 3.8096878,1.65462567 C4.0778618,1.46463368 4.44306356,1.49764647 4.67417833,1.72873602 L4.67417833,1.72873602 L5.32978962,2.38360201 C5.8317736,2.10467761 6.36138354,1.88571521 6.91390282,1.73075721 L6.91390282,1.73075721 L6.91390282,0.792924428 C6.91390282,0.46279651 7.15377705,0.181177184 7.47922438,0.127952479 Z M9,6 C7.34314575,6 6,7.34314575 6,9 C6,10.6568542 7.34314575,12 9,12 C10.6568542,12 12,10.6568542 12,9 C12,7.34314575 10.6568542,6 9,6 Z" id="Combined-Shape"></path>
                            <circle id="Oval-Copy" cx="9" cy="9" r="2"></circle>
                        </g>
                    </g>
                </g>
            </g>
        </g>
    </g>
</svg>