<?xml version="1.0" encoding="UTF-8"?>
<svg width="18px" height="18px" viewBox="0 0 18 18" version="1.1" xmlns="http://www.w3.org/2000/svg" xmlns:xlink="http://www.w3.org/1999/xlink">
    <!-- Generator: sketchtool 63.1 (101010) - https://sketch.com -->
    <title>0F39840B-3414-4EF1-B4A4-104C9744E814</title>
    <desc>Created with sketchtool.</desc>
    <g id="De-duplication-leads" stroke="none" stroke-width="1" fill="none" fill-rule="evenodd">
        <g id="Duplicate-Leads_list_merge_step-4" transform="translate(-451.000000, -193.000000)" fill="#1D1E1F">
            <path d="M460,193 C464.962921,193 469,197.037079 469,202 C469,206.962921 464.962921,211 460,211 C455.037079,211 451,206.962921 451,202 C451,197.037079 455.037079,193 460,193 Z M460,194.285714 C455.731879,194.285714 452.285714,197.731879 452.285714,202 C452.285714,206.268121 455.731879,209.714286 460,209.714286 C464.268121,209.714286 467.714286,206.268121 467.714286,202 C467.714286,197.731879 464.268121,194.285714 460,194.285714 Z M459.989727,200.705286 C460.163487,200.702576 460.330943,200.770323 460.45394,200.893089 C460.576937,201.015856 460.644997,201.183185 460.642613,201.35695 L460.642613,201.35695 L460.642613,205.85695 C460.645892,206.088787 460.524086,206.304431 460.323837,206.421306 C460.123589,206.538182 459.875922,206.538182 459.675674,206.421306 C459.475426,206.304431 459.35362,206.088787 459.356899,205.85695 L459.356899,205.85695 L459.356899,201.35695 C459.352033,201.002386 459.63516,200.710826 459.989714,200.705286 Z M460,197.5 C460.35504,197.5 460.642857,197.787817 460.642857,198.142857 C460.642857,198.497897 460.35504,198.785714 460,198.785714 C459.64496,198.785714 459.357143,198.497897 459.357143,198.142857 C459.357143,197.787817 459.64496,197.5 460,197.5 Z" id="ic_info"></path>
        </g>
    </g>
</svg>