<?xml version="1.0" encoding="UTF-8"?>
<svg width="59px" height="62px" viewBox="0 0 59 62" version="1.1" xmlns="http://www.w3.org/2000/svg" xmlns:xlink="http://www.w3.org/1999/xlink">
    <!-- Generator: sketchtool 63.1 (101010) - https://sketch.com -->
    <title>CA48D078-06FE-4B65-B7D4-72D2B099AE40</title>
    <desc>Created with sketchtool.</desc>
    <g id="One-Rule-Multiple-Conditions" stroke="none" stroke-width="1" fill="none" fill-rule="evenodd">
        <g id="Administrator_Setup" transform="translate(-350.000000, -873.000000)" fill-rule="nonzero" stroke="#0052FF">
            <g id="7.-Lead-connector" transform="translate(239.000000, 844.000000)">
                <g id="ic_lead-connector" transform="translate(112.000000, 30.000000)">
                    <path d="M33.1616738,29.5378754 L22.569128,29.5416377 C20.7393631,29.601065 19.0935382,30.3625032 17.9060241,31.5625121 C16.7264357,32.7545119 16,34.3797578 16,36.1743613 L16,41.9990686 L39.9992577,41.9767268 L39.9947659,35.9293381 C39.9231198,34.1593639 39.1369123,32.561885 37.9102117,31.4074592 C36.6806458,30.250337 35.008358,29.5378754 33.1616738,29.5378754 Z M27.9814551,17 C26.7188026,17 25.5747699,17.4994176 24.7470009,18.3097053 C23.9270397,19.1123502 23.4179743,20.220662 23.4179743,21.4459883 C23.4179743,22.6713147 23.9270397,23.7796265 24.7470009,24.5822713 C25.5747699,25.3925591 26.7188026,25.8919767 27.9814551,25.8919767 C29.2441075,25.8919767 30.3881403,25.3925591 31.2159093,24.5822713 C32.0358704,23.7796265 32.5449358,22.6713147 32.5449358,21.4459883 C32.5449358,20.220662 32.0358704,19.1123502 31.2159093,18.3097053 C30.3881403,17.4994176 29.2441075,17 27.9814551,17 Z" id="Combined-Shape" stroke-width="2" fill="#C5D7FC"></path>
                    <path d="M47.8074237,49.703894 C45.4636564,52.1839996 42.6055875,54.2622293 39.2784636,55.7327807 C35.7741242,57.2819112 32.1151928,58.0123225 28.5158359,58.0123225 C20.4069139,58.0100774 12.606422,54.2861772 7.5569156,47.7970416 C8.42715609,47.0404372 8.9248673,45.9500589 8.9248673,44.8185201 C8.9248673,44.2849307 8.81476755,43.7423608 8.58325643,43.2274807 C7.92341203,41.7569293 6.46647561,40.8888175 4.94694823,40.8918033 C4.39644948,40.8918033 3.83840965,41.0055636 3.30978002,41.2390557 C1.82041696,41.8953781 0.929815556,43.34273 0.929815556,44.8619257 C0.929815556,45.3962635 1.04066941,45.9395817 1.27293464,46.4567069 L1.27293464,46.4567069 C1.93127082,47.9212714 3.38594492,48.7908799 4.90698051,48.7893832 C5.17996757,48.7893832 5.45521694,48.7624418 5.7289581,48.7048171 C11.1517479,55.8787133 19.6656258,60.0014959 28.5158359,59.9999996 C32.3881799,59.9999996 36.3283935,59.2127116 40.0936542,57.5498285 C43.7759629,55.9206221 46.9258716,53.6006682 49.4868219,50.8279491 C48.8413056,50.6131663 48.2629048,50.228503 47.8074237,49.703894 Z M3.10089214,45.6462198 C2.98475953,45.387283 2.93121787,45.1231076 2.93121787,44.8604289 C2.93272608,44.1075665 3.37161687,43.3831421 4.12346243,43.0538584 C4.39720359,42.9326221 4.67546939,42.8764941 4.94770234,42.8764941 C5.71236773,42.8794876 6.43027843,43.3075566 6.75529893,44.0327292 C6.87143154,44.2894209 6.92346498,44.5528479 6.92346498,44.8177717 C6.92346498,45.5661439 6.48080366,46.2958069 5.72669578,46.6288325 C5.4604957,46.7470753 5.182984,46.8024549 4.90773462,46.8024549 C4.14306923,46.8002098 3.42289621,46.3698957 3.10164625,45.6477165 M1.92297563,38.7050673 C2.23442219,38.5673668 2.55491804,38.4685817 2.8769221,38.4034733 C2.28796385,36.191285 2.00215696,33.9514069 2.00215696,31.7324832 C2.00366518,21.6631349 7.86006697,12.0547838 17.7275686,7.69776064 C20.0517291,6.67024556 22.442251,6.0251487 24.8388059,5.6936198 C25.5242899,7.07736006 26.9284388,7.89907277 28.404982,7.89757602 C28.950202,7.89757602 29.5082419,7.78681693 30.0391338,7.5533248 C31.5269887,6.88951863 32.4206065,5.44516022 32.4206065,3.92521622 C32.4206065,3.3946203 32.3112609,2.85205044 32.0805038,2.33492522 C31.4199053,0.866618904 29.9644771,-0.00149288487 28.4449498,1.92730409e-06 C27.8952051,1.92730409e-06 27.3371653,0.114504811 26.8085357,0.347996947 C25.3930752,0.970642644 24.5266052,2.30948057 24.4436533,3.74411014 C21.9045721,4.10557392 19.3715238,4.79632149 16.9161485,5.88295798 C6.3028342,10.5700133 -0.00150767475,20.9042854 2.70454521e-07,31.7317349 C2.70454521e-07,34.2275563 0.34161141,36.7503191 1.03614477,39.2364116 C1.30837771,39.0328544 1.59795514,38.8487548 1.92297563,38.7050673 Z M26.5988937,4.75590939 C26.4820069,4.49772097 26.4277112,4.23429395 26.4277112,3.96862181 C26.4292194,3.21725608 26.8688643,2.49208339 27.6192016,2.16354798 C27.8929428,2.04156331 28.1712086,1.98693214 28.4441956,1.98693214 C29.2073528,1.98842888 29.9275258,2.41724617 30.2525463,3.14241886 C30.3664166,3.39686542 30.4184501,3.66104082 30.4184501,3.92521622 C30.4184501,4.67508519 29.9750346,5.40699324 29.2231891,5.73927051 C28.956989,5.8552682 28.6809855,5.91064775 28.404982,5.91064775 C27.6395625,5.909151 26.9186354,5.47734023 26.5981396,4.75740614 M55.0853188,41.8564628 C56.3333674,38.6392106 57.0007528,35.1989434 56.9999994,31.7032967 C56.9999994,27.8596569 56.2066772,23.9516571 54.5310495,20.2165313 C50.7748382,11.8489814 43.4290733,6.19428082 35.0991977,4.21857813 C35.1670674,4.90109361 35.0471642,5.57462862 34.7613574,6.1815585 C42.4547659,8.0465021 49.2311793,13.2851077 52.7015838,21.0232766 C54.2625871,24.5017107 55.0001046,28.1313161 55.0001046,31.7032967 C54.9993505,34.952729 54.3787197,38.1497751 53.2173936,41.1410189 C53.0673261,41.1245548 52.9172587,41.1095873 52.7649289,41.1095873 C52.2159383,41.1095873 51.6578985,41.2233399 51.1292689,41.4575804 C49.6376435,42.1131545 48.746288,43.559758 48.7477962,45.0782053 C48.7477962,45.6140398 48.8594042,46.1588548 49.0909153,46.67598 L49.0916694,46.67598 C49.7507597,48.1375509 51.2031715,49.0071595 52.7257153,49.0056647 C53.2709353,49.0056647 53.828221,48.895652 54.359867,48.6606631 C55.8477219,47.9991021 56.7420938,46.5547437 56.7420938,45.0340513 C56.7420938,44.5034554 56.6335023,43.9593888 56.4027453,43.4437603 C56.1041186,42.7814509 55.638834,42.2493582 55.0853188,41.8564628 Z M50.9196269,45.8647445 C50.8019861,45.6050593 50.7476903,45.3416323 50.7476903,45.0774569 C50.7491985,44.3230977 51.1888434,43.6001701 51.9399349,43.2723831 C52.213676,43.1511468 52.4926959,43.0942705 52.7641748,43.0942705 C53.5303484,43.097264 54.2490132,43.5245845 54.5725255,44.2512539 C54.6871499,44.5071972 54.7399374,44.7698759 54.7399374,45.0340513 C54.7399374,45.7839203 54.2972761,46.5150799 53.5446764,46.8466088 C53.2777222,46.9633549 52.9994564,47.0179861 52.7249612,47.0179861 C51.9602958,47.0164893 51.2386145,46.5839302 50.9188728,45.8662412" id="Shape" fill="#0052FF"></path>
                </g>
            </g>
        </g>
    </g>
</svg>