<?xml version="1.0" encoding="UTF-8"?>
<svg width="16px" height="14px" viewBox="0 0 16 14" version="1.1" xmlns="http://www.w3.org/2000/svg" xmlns:xlink="http://www.w3.org/1999/xlink">
    <!-- Generator: sketchtool 64 (101010) - https://sketch.com -->
    <title>165B9E2D-4AD6-4503-8095-BFC85AFF1E10</title>
    <desc>Created with sketchtool.</desc>
    <g id="Templates" stroke="none" stroke-width="1" fill="none" fill-rule="evenodd">
        <g id="Administrator_Template-list_selected" transform="translate(-664.000000, -141.000000)" fill="#1D1E1F" fill-rule="nonzero">
            <g id="Templates-List" transform="translate(236.000000, 131.000000)">
                <g id="Content">
                    <g id="ic_more_expand-copy" transform="translate(359.000000, 0.000000)">
                        <path d="M79.9779651,10 L79.9779651,13.9375 L78.9572802,13.9375 L78.9572802,11.0827245 L70.0330757,11.0827245 L70.0330757,22.25 L78.9572802,22.25 L78.9572802,20.0625 L79.9779651,20.0625 L79.9779651,23.056453 L69,23.056453 L69,10 L79.9779651,10 Z M76.8025927,13.0625 L78.0494677,14.309375 L76.2775927,16.059375 L84.9838427,16.059375 L84.9838427,17.809375 L76.2775927,17.809375 L78.0494677,19.559375 L76.8025927,20.80625 L72.9307177,16.934375 L76.8025927,13.0625 Z" id="ic_move-to-folder" transform="translate(76.991921, 16.528226) scale(-1, 1) translate(-76.991921, -16.528226) "></path>
                    </g>
                </g>
            </g>
        </g>
    </g>
</svg>