<?xml version="1.0" encoding="UTF-8"?>
<svg width="24px" height="19px" viewBox="0 0 24 19" version="1.1" xmlns="http://www.w3.org/2000/svg" xmlns:xlink="http://www.w3.org/1999/xlink">
    <!-- Generator: sketchtool 63.1 (101010) - https://sketch.com -->
    <title>A7F2C089-1632-4465-8F29-93B74C7F9AFE</title>
    <desc>Created with sketchtool.</desc>
    <g id="One-Rule-Multiple-Conditions" stroke="none" stroke-width="1" fill="none" fill-rule="evenodd">
        <g id="Administrator_User-n-controls" transform="translate(-255.000000, -137.000000)" fill-rule="nonzero">
            <g id="Tabs-Copy" transform="translate(236.000000, 133.000000)">
                <g id="1.Manage-User" transform="translate(19.000000, 3.000000)">
                    <g id="Group-5">
                        <g id="ic_manage-user-copy" transform="translate(0.000000, 1.000000)">
                            <g id="Group">
                                <path d="M6.29175824,7.21417582 C8.21043956,7.21417582 9.7710989,5.65351648 9.7710989,3.73483516 C9.7710989,1.81615385 8.21043956,0.255494505 6.29175824,0.255494505 C4.37307692,0.255494505 2.81241758,1.81615385 2.81241758,3.73483516 C2.81241758,5.65351648 4.37307692,7.21417582 6.29175824,7.21417582 Z" id="Path" fill="#80AAFE"></path>
                                <path d="M6.29175824,7.73604396 C2.82263736,7.73604396 0,10.5583516 0,14.0278022 C0,14.2101099 0.147692308,14.3574725 0.32967033,14.3574725 L12.2538462,14.3574725 C12.2561538,14.3574725 12.2587912,14.3574725 12.2604396,14.3574725 C12.4427473,14.3574725 12.5901099,14.2101099 12.5901099,14.0278022 C12.5901099,14.0047253 12.5878022,13.981978 12.5831868,13.9602198 C12.5465934,10.5220879 9.73846154,7.73604396 6.29175824,7.73604396 Z" id="Path" fill="#80AAFE"></path>
                                <path d="M13.9282418,2.72846154 C13.2131863,2.72846154 12.5648542,3.01954005 12.0952191,3.48917513 C11.625584,3.95881021 11.3345055,4.60714233 11.3345055,5.3221978 C11.3345055,6.03725327 11.625584,6.68558539 12.0952191,7.15522047 C12.5648542,7.62485556 13.2131863,7.91593407 13.9282418,7.91593407 C14.6432596,7.91593407 15.2914898,7.62488196 15.7610393,7.15528082 C16.2306312,6.68563713 16.5216484,6.03727877 16.5216484,5.3221978 C16.5216484,4.60711683 16.2306312,3.95875847 15.7610393,3.48911478 C15.2914898,3.01951364 14.6432596,2.72846154 13.9282418,2.72846154 Z" id="Path" stroke="#80AAFE" stroke-width="0.8"></path>
                                <path d="M23.673956,13.0608791 C23.6462637,12.902967 23.5094505,12.7879121 23.3492308,12.7879121 L22.8916484,12.7879121 C22.8141758,12.5149451 22.7057143,12.2535165 22.5679121,12.0069231 L22.890989,11.6838462 C23.0043956,11.5704396 23.0198901,11.3920879 22.9275824,11.2612088 C22.6361538,10.8471429 22.2804396,10.4927473 21.8703297,10.2072527 C21.7391209,10.1162637 21.5610989,10.1317582 21.4483516,10.2454945 L21.1279121,10.5675824 C20.8816484,10.4301099 20.6208791,10.321978 20.3475824,10.2445055 L20.3475824,9.78725275 C20.3475824,9.62736264 20.2325275,9.49054945 20.0752747,9.46252747 C19.6110989,9.38043956 19.1126374,9.37615385 18.5887912,9.46186813 C18.4295604,9.48791209 18.3121978,9.62571429 18.3121978,9.78725275 L18.3121978,10.2461538 C18.0418681,10.321978 17.7827473,10.4291209 17.5371429,10.5656044 L17.2163736,10.2451648 C17.1032967,10.1320879 16.9246154,10.1159341 16.7934066,10.2089011 C16.3826374,10.4983516 16.0275824,10.8534066 15.7381319,11.2641758 C15.6458242,11.3953846 15.6613187,11.5737363 15.7743956,11.6871429 L16.0954945,12.0085714 C15.9586813,12.2558242 15.8512088,12.5165934 15.7734066,12.7885714 L15.3164835,12.7885714 C15.1562637,12.7885714 15.0191209,12.903956 14.9917582,13.0618681 C14.9495604,13.3041758 14.9294505,13.5471429 14.9294505,13.8032967 C14.9294505,14.0436264 14.9502198,14.2938462 14.9914286,14.5473626 C15.0174725,14.7069231 15.1552747,14.8242857 15.3168132,14.8242857 L15.776044,14.8242857 C15.8521978,15.093956 15.96,15.3540659 16.0984615,15.601978 L15.7783516,15.9224176 C15.6649451,16.0358242 15.6494505,16.2138462 15.7414286,16.3447253 C16.0285714,16.7541758 16.381978,17.1075824 16.7920879,17.3953846 C16.9226374,17.4876923 17.1013187,17.4718681 17.2143956,17.3587912 L17.5351648,17.0383516 C17.7827473,17.1764835 18.0431868,17.2842857 18.3128571,17.3607692 L18.3128571,17.8196703 C18.3128571,17.9812088 18.4298901,18.119011 18.5894505,18.1450549 C18.841978,18.1862637 19.0921978,18.207033 19.3335165,18.207033 C19.5926374,18.207033 19.8352747,18.1862637 20.0759341,18.1440659 C20.2335165,18.1163736 20.3482418,17.9795604 20.3482418,17.8196703 L20.3482418,17.3624176 C20.6205495,17.2849451 20.8816484,17.1771429 21.1285714,17.0406593 L21.4496703,17.3617582 C21.5634066,17.4751648 21.7420879,17.4913187 21.8726374,17.398022 C22.2834066,17.1085714 22.6384615,16.7535165 22.9279121,16.3427473 C23.0202198,16.2115385 23.0047253,16.0331868 22.8916484,15.9197802 L22.5708791,15.599011 C22.7073626,15.3537363 22.8141758,15.0946154 22.8906593,14.8242857 L23.3498901,14.8242857 C23.5114286,14.8242857 23.6492308,14.7072527 23.6752747,14.5473626 C23.7154945,14.2931868 23.7362637,14.0432967 23.7362637,13.8026374 C23.7362637,13.5441758 23.7158242,13.3018681 23.673956,13.0608791 Z M18.0349451,14.3627473 L17.7323077,14.4936264 L18.0191209,14.3225275 C17.9531868,14.1616484 17.9195604,13.9865934 17.9195604,13.8023077 C17.9195604,13.617033 17.9528571,13.443956 18.0184615,13.2867033 C18.0237363,13.2748352 18.0276923,13.2623077 18.0313187,13.2497802 C18.0316484,13.2494505 18.031978,13.2487912 18.0323077,13.2474725 C18.1747253,12.9161538 18.4440659,12.6458242 18.7714286,12.5053846 C18.776044,12.5034066 18.78,12.5014286 18.7842857,12.4994505 C18.7951648,12.4961538 18.8053846,12.4925275 18.8162637,12.4882418 C19.1330769,12.3573626 19.5273626,12.356044 19.8537363,12.4889011 C19.861978,12.4925275 19.8712088,12.4958242 19.8797802,12.4984615 C19.8814286,12.4991209 19.8843956,12.5004396 19.8883516,12.5024176 C20.2147253,12.6415385 20.4827473,12.9065934 20.6343956,13.2491209 C20.6376923,13.2603297 20.6413187,13.2715385 20.6459341,13.2824176 C20.7118681,13.442967 20.7454945,13.6183516 20.7454945,13.8026374 C20.7454945,13.9875824 20.7121978,14.160989 20.6465934,14.3182418 C20.6413187,14.3301099 20.6373626,14.3426374 20.6337363,14.3551648 C20.6324176,14.3578022 20.6310989,14.3607692 20.6297802,14.3634066 C20.489011,14.6910989 20.2183516,14.9607692 19.9064835,15.0982418 C19.8863736,15.1028571 19.8672527,15.1084615 19.8484615,15.1163736 C19.5332967,15.2479121 19.1340659,15.2479121 18.8116484,15.1157143 L18.6867033,15.420989 L18.7724176,15.0998901 C18.4453846,14.9587912 18.1767033,14.6901099 18.0349451,14.3627473 Z" id="Shape" fill="#0052FF"></path>
                                <path d="M13.9279121,9.05615385 C13.3561291,9.05615385 12.8022345,9.15767471 12.2071873,9.65777702 C12.9871993,10.6920015 13.4727886,11.9739093 14.2281962,13.5488557 C14.2978385,12.1526067 14.9391631,10.8217665 15.9964652,9.506237 C15.3513678,9.21046398 14.6447011,9.05615385 13.9279121,9.05615385 Z" id="Path" stroke="#80AAFE" stroke-width="0.8"></path>
                            </g>
                        </g>
                    </g>
                </g>
            </g>
        </g>
    </g>
</svg>