<?xml version="1.0" encoding="UTF-8"?>
<svg width="60px" height="48px" viewBox="0 0 60 48" version="1.1" xmlns="http://www.w3.org/2000/svg" xmlns:xlink="http://www.w3.org/1999/xlink">
    <!-- Generator: sketchtool 63.1 (101010) - https://sketch.com -->
    <title>66419CEA-FF08-4BF2-9B08-63FBF2DC84F7</title>
    <desc>Created with sketchtool.</desc>
    <g id="One-Rule-Multiple-Conditions" stroke="none" stroke-width="1" fill="none" fill-rule="evenodd">
        <g id="Administrator_Setup" transform="translate(-949.000000, -880.000000)" fill-rule="nonzero">
            <g id="9.-Chat" transform="translate(839.000000, 844.000000)">
                <g id="ic_mapping" transform="translate(110.000000, 36.000000)">
                    <path d="M22,0 C19.44922,0 17.3333333,2.11543362 17.3333333,4.66566746 L17.3333333,6.66523923 L4.66666667,6.66523923 C2.1158846,6.66523923 0,8.78067286 0,11.3309067 L0,35.3257679 C0,37.8760218 2.1158846,39.9914354 4.66666667,39.9914354 L8,39.9914354 L8,45.9901507 C7.99616851,46.7512259 8.42477732,47.4484986 9.10565803,47.7888661 C9.78653874,48.1292336 10.6016417,48.0536835 11.2083333,47.5939739 L21.3541667,39.9914354 L38,39.9914354 C40.231934,39.9914354 42.1226327,38.3764413 42.5625,36.2630672 L48.7916667,40.9287347 C49.3983583,41.3884443 50.2134613,41.4639943 50.894342,41.1236269 C51.5752227,40.7832594 52.0038315,40.0859866 52,39.3249115 L52,33.3261962 L55.3333333,33.3261962 C57.8841133,33.3261962 60,31.2107825 60,28.6605287 L60,4.66566746 C60,2.11543362 57.8841133,0 55.3333333,0 L22,0 Z M3.66666667,9.66438278 L39,9.66438278 C39.4037473,9.66438278 39.6666667,9.92724648 39.6666667,10.3309067 L39.6666667,36.3257679 C39.6666667,36.7294148 39.4037473,36.9922919 39,36.9922919 L21.6666667,36.9922919 C21.231556,36.989295 20.8073349,37.1282342 20.4583333,37.3880404 L11,43.9910072 L11,38.9918636 C10.9998896,37.8875764 10.1045238,36.9924023 9,36.9922919 L3.66666667,36.9922919 C3.26291933,36.9922919 3,36.7294148 3,36.3257679 L3,10.3309067 C3,9.92724648 3.26291933,9.66438278 3.66666667,9.66438278 Z M12,20.6622416 C10.527274,20.6622416 9.33333333,21.8559267 9.33333333,23.3283373 C9.33333333,24.800748 10.527274,25.994433 12,25.994433 C13.472726,25.994433 14.6666667,24.800748 14.6666667,23.3283373 C14.6666667,21.8559267 13.472726,20.6622416 12,20.6622416 Z M21.3333333,20.6622416 C19.8606073,20.6622416 18.6666667,21.8559267 18.6666667,23.3283373 C18.6666667,24.800748 19.8606073,25.994433 21.3333333,25.994433 C22.8060593,25.994433 24,24.800748 24,23.3283373 C24,21.8559267 22.8060593,20.6622416 21.3333333,20.6622416 Z M30.6666667,20.6622416 C29.1939407,20.6622416 28,21.8559267 28,23.3283373 C28,24.800748 29.1939407,25.994433 30.6666667,25.994433 C32.1393927,25.994433 33.3333333,24.800748 33.3333333,23.3283373 C33.3333333,21.8559267 32.1393927,20.6622416 30.6666667,20.6622416 Z" id="Shape" fill="#0052FF"></path>
                    <path d="M21,2.99914354 L56.3333333,2.99914354 C56.7370827,2.99914354 57,3.26200058 57,3.66566746 L57,29.6605287 C57,30.0641756 56.7370827,30.3270526 56.3333333,30.3270526 L51,30.3270526 C49.8954762,30.327163 49.0001104,31.2223371 49,32.3266244 L49,37.3257679 L42.6666667,32.3266244 L42.6666667,11.3309067 C42.6666667,8.78067286 40.550782,6.66523923 38,6.66523923 L20.3333333,6.66523923 L20.3333333,3.66566746 C20.3333333,3.26200058 20.5962507,2.99914354 21,2.99914354 Z" id="Path" fill="#C5D7FC"></path>
                </g>
            </g>
        </g>
    </g>
</svg>