<?xml version="1.0" encoding="UTF-8"?>
<svg width="60px" height="38px" viewBox="0 0 60 38" version="1.1" xmlns="http://www.w3.org/2000/svg" xmlns:xlink="http://www.w3.org/1999/xlink">
    <!-- Generator: sketchtool 63.1 (101010) - https://sketch.com -->
    <title>EC14068D-FECC-4887-BD80-49CA975287F9</title>
    <desc>Created with sketchtool.</desc>
    <g id="One-Rule-Multiple-Conditions" stroke="none" stroke-width="1" fill="none" fill-rule="evenodd">
        <g id="Administrator_User-n-controls" transform="translate(-648.000000, -226.000000)" fill-rule="nonzero">
            <g id="3.Manage-Profile" transform="translate(538.000000, 184.000000)">
                <g id="ic_manage-profile" transform="translate(110.000000, 42.000000)">
                    <g id="Group-2">
                        <g id="ic_contact">
                            <path d="M17.5,15 C21.6358727,15 25,11.6358727 25,7.5 C25,3.36412735 21.6358727,0 17.5,0 C13.3641273,0 10,3.36412735 10,7.5 C10,11.6358727 13.3641273,15 17.5,15 Z" id="Path" fill="#80AAFE"></path>
                            <path d="M59.3255814,14.0762013 C59.2474419,13.6306199 58.8613953,13.3059688 58.4093023,13.3059688 L57.1181395,13.3059688 C56.8995349,12.5357362 56.5934884,11.7980618 56.2046512,11.1022478 L57.1162791,10.1906199 C57.4362791,9.87061993 57.48,9.36736412 57.2195349,8.99806179 C56.3972093,7.8296897 55.3934884,6.8296897 54.2362791,6.0241083 C53.8660465,5.76736412 53.3637209,5.81108505 53.0455814,6.13201528 L52.1413953,7.04085249 C51.4465116,6.65294551 50.7106977,6.34782923 49.9395349,6.12922458 L49.9395349,4.83899202 C49.9395349,4.38782923 49.6148837,4.00178272 49.1711628,3.92271296 C47.8613953,3.69108505 46.4548837,3.67899202 44.9767442,3.92085249 C44.5274419,3.99434086 44.1962791,4.38317807 44.1962791,4.83899202 L44.1962791,6.13387575 C43.4334884,6.34782923 42.7023256,6.65015482 42.0093023,7.03527109 L41.104186,6.13108505 C40.7851163,5.81201528 40.2809302,5.76643389 39.9106977,6.02875947 C38.7516279,6.84550365 37.7497674,7.84736412 36.9330233,9.00643389 C36.6725581,9.37666644 36.7162791,9.87992226 37.0353488,10.1999223 L37.9413953,11.106899 C37.5553488,11.8045734 37.252093,12.5403874 37.0325581,13.3078292 L35.7432558,13.3078292 C35.2911628,13.3078292 34.904186,13.6334106 34.8269767,14.078992 C34.707907,14.762713 34.6511628,15.4482944 34.6511628,16.171085 C34.6511628,16.8492246 34.7097674,17.5552711 34.8260465,18.2706199 C34.8995349,18.7208525 35.2883721,19.0520153 35.744186,19.0520153 L37.04,19.0520153 C37.2548837,19.8129455 37.5590698,20.546899 37.9497674,21.2464339 L37.0465116,22.1506199 C36.7265116,22.4706199 36.6827907,22.9729455 36.9423256,23.3422478 C37.7525581,24.4975967 38.7497674,25.494806 39.9069767,26.306899 C40.2753488,26.5673641 40.7795349,26.522713 41.0986047,26.2036432 L42.0037209,25.2994571 C42.7023256,25.6892246 43.4372093,25.9934106 44.1981395,26.2092246 L44.1981395,27.5041083 C44.1981395,27.9599223 44.5283721,28.3487595 44.9786047,28.4222478 C45.6911628,28.5385269 46.3972093,28.5971316 47.0781395,28.5971316 C47.8093023,28.5971316 48.4939535,28.5385269 49.1730233,28.4194571 C49.6176744,28.3413176 49.9413953,27.9552711 49.9413953,27.5041083 L49.9413953,26.2138757 C50.7097674,25.9952711 51.4465116,25.691085 52.1432558,25.3059688 L53.0493023,26.2120153 C53.3702326,26.5320153 53.8744186,26.5775967 54.2427907,26.3143409 C55.4018605,25.4975967 56.4037209,24.4957362 57.2204651,23.3366664 C57.4809302,22.9664339 57.4372093,22.4631781 57.1181395,22.1431781 L56.2130233,21.2380618 C56.5981395,20.5459688 56.8995349,19.814806 57.1153488,19.0520153 L58.4111628,19.0520153 C58.8669767,19.0520153 59.255814,18.7217827 59.3293023,18.2706199 C59.4427907,17.5534106 59.5013953,16.8482944 59.5013953,16.1692246 C59.5013953,15.4399223 59.4437209,14.7562013 59.3255814,14.0762013 Z M43.4139535,17.7496897 L42.56,18.118992 L43.3693023,17.6362013 C43.1832558,17.1822474 43.0883721,16.6882944 43.0883721,16.1682944 C43.0883721,15.6455037 43.1823256,15.1571316 43.3674419,14.7134106 C43.3823256,14.6799223 43.3934884,14.6445734 43.4037209,14.6092246 C43.4046512,14.6082944 43.4055814,14.6064339 43.4065116,14.602713 C43.8083721,13.6678292 44.5683721,12.9050385 45.492093,12.5087595 C45.5051163,12.5031781 45.5162791,12.4975967 45.5283721,12.4920153 C45.5590698,12.482713 45.587907,12.4724804 45.6186047,12.4603874 C46.5125581,12.091085 47.6251163,12.0873641 48.5460465,12.4622478 C48.5693023,12.4724804 48.5953488,12.4817827 48.6195349,12.4892246 C48.624186,12.491085 48.6325581,12.494806 48.6437209,12.5003874 C49.5646512,12.8929455 50.3209302,13.6408525 50.7488372,14.6073641 C50.7581395,14.638992 50.7683721,14.6706199 50.7813953,14.7013176 C50.9674419,15.1543409 51.0623256,15.6492246 51.0623256,16.1692246 C51.0623256,16.691085 50.9683721,17.1803874 50.7832558,17.6241083 C50.7683721,17.6575967 50.7572093,17.6929455 50.7469767,17.7282944 C50.7432558,17.7357362 50.7395349,17.7441083 50.735814,17.7515502 C50.3386047,18.6762013 49.5748837,19.4371316 48.6948837,19.8250385 C48.6381395,19.8380618 48.584186,19.8538757 48.5311628,19.8762013 C47.6418605,20.2473641 46.5153488,20.2473641 45.6055814,19.8743409 L45.2530233,20.7357362 L45.4948837,19.8296897 C44.572093,19.4315502 43.8139535,18.6734106 43.4139535,17.7496897 Z" id="Shape" fill="#0052FF"></path>
                            <path d="M17.9860465,18.3404651 C8.1972093,18.3404651 0.23255814,26.304186 0.23255814,36.0939535 C0.23255814,36.6083721 0.649302326,37.024186 1.1627907,37.024186 L34.8093023,37.024186 C34.815814,37.024186 34.8232558,37.024186 34.827907,37.024186 C35.3423256,37.024186 35.7581395,36.6083721 35.7581395,36.0939535 C35.7581395,36.0288372 35.7516279,35.9646512 35.7386047,35.9032558 C35.6353488,26.2018605 27.7116279,18.3404651 17.9860465,18.3404651 Z" id="Path" fill="#80AAFE"></path>
                        </g>
                    </g>
                </g>
            </g>
        </g>
    </g>
</svg>