<?xml version="1.0" encoding="UTF-8"?>
<svg width="60px" height="38px" viewBox="0 0 60 38" version="1.1" xmlns="http://www.w3.org/2000/svg" xmlns:xlink="http://www.w3.org/1999/xlink">
    <!-- Generator: sketchtool 63.1 (101010) - https://sketch.com -->
    <title>8FBF7D9D-6B45-4EA5-9892-EAB8DFEBEF9D</title>
    <desc>Created with sketchtool.</desc>
    <g id="One-Rule-Multiple-Conditions" stroke="none" stroke-width="1" fill="none" fill-rule="evenodd">
        <g id="Administrator_User-n-controls" transform="translate(-948.000000, -228.000000)">
            <g id="4.Manage-Role" transform="translate(838.000000, 184.000000)">
                <g id="ic_Manage-role" transform="translate(110.000000, 44.000000)">
                    <g id="Group" transform="translate(47.000000, 17.714286) rotate(-270.000000) translate(-47.000000, -17.714286) translate(35.000000, 4.714286)" fill="#0052FF" fill-rule="nonzero">
                        <path d="M21.9730375,11.6537163 L19.7193927,11.6537163 C19.2449411,9.99313583 17.7326268,8.77735372 15.9534335,8.77735372 C14.1742401,8.77735372 12.6619258,10.0227891 12.157821,11.6537163 L1.15647566,11.6537163 C0.563411219,11.6537163 0.0593064441,12.1281678 0.0593064441,12.7508855 C0.0593064441,13.3439499 0.533757997,13.8480547 1.15647566,13.8480547 L12.157821,13.8480547 C12.6322726,15.5086351 14.1445869,16.7244172 15.9237802,16.7244172 C17.7029736,16.7244172 19.2152879,15.5086351 19.6897394,13.8480547 L21.9433843,13.8480547 C22.5364488,13.8480547 23.0405535,13.3736031 23.0405535,12.7508855 C23.0702067,12.157821 22.5957552,11.6537163 21.9730375,11.6537163 Z M15.9534335,14.5300788 C15.0045304,14.5300788 14.1742401,13.759095 14.1742401,12.7508855 C14.1742401,11.7426759 14.9452239,10.9716922 15.9534335,10.9716922 C16.961643,10.9716922 17.7326268,11.7426759 17.7326268,12.7508855 C17.7326268,13.759095 16.9023366,14.5300788 15.9534335,14.5300788 Z" id="Shape"></path>
                        <path d="M1.15647566,5.15966064 L3.4990802,5.15966064 C3.97353175,6.82024107 5.48584608,8.03602317 7.2650394,8.03602317 C9.04423272,8.03602317 10.556547,6.82024107 11.0309986,5.15966064 L21.9730375,5.15966064 C22.566102,5.15966064 23.0702067,4.68520908 23.0702067,4.06249142 C23.0702067,3.43977376 22.5957552,2.9653222 21.9730375,2.9653222 L11.0309986,2.9653222 C10.556547,1.30474177 9.04423272,0.0889596661 7.2650394,0.0889596661 C5.48584608,0.0889596661 3.97353175,1.30474177 3.4990802,2.9653222 L1.15647566,2.9653222 C0.563411219,2.9653222 0.0593064441,3.43977376 0.0593064441,4.06249142 C0.0593064441,4.68520908 0.533757997,5.15966064 1.15647566,5.15966064 Z M7.2650394,2.2832981 C8.21394251,2.2832981 9.04423272,3.05428187 9.04423272,4.06249142 C9.04423272,5.07070097 8.27324895,5.84168474 7.2650394,5.84168474 C6.25682985,5.84168474 5.48584608,5.01139453 5.48584608,4.06249142 C5.48584608,3.11358831 6.31613629,2.2832981 7.2650394,2.2832981 Z" id="Shape"></path>
                        <path d="M21.9730375,20.3421103 L11.0309986,20.3421103 C10.556547,18.6815299 9.04423272,17.4657478 7.2650394,17.4657478 C5.48584608,17.4657478 3.97353175,18.6815299 3.4990802,20.3421103 L1.15647566,20.3421103 C0.563411219,20.3421103 0.0593064441,20.8165619 0.0593064441,21.4392795 C0.0593064441,22.0619972 0.533757997,22.5364488 1.15647566,22.5364488 L3.4990802,22.5364488 C3.97353175,24.1970292 5.48584608,25.4128113 7.2650394,25.4128113 C9.04423272,25.4128113 10.556547,24.1970292 11.0309986,22.5364488 L21.9730375,22.5364488 C22.566102,22.5364488 23.0702067,22.0619972 23.0702067,21.4392795 C23.0702067,20.8165619 22.5957552,20.3421103 21.9730375,20.3421103 Z M7.2650394,23.2184729 C6.31613629,23.2184729 5.48584608,22.4474891 5.48584608,21.4392795 C5.48584608,20.43107 6.25682985,19.6600862 7.2650394,19.6600862 C8.27324895,19.6600862 9.04423272,20.43107 9.04423272,21.4392795 C9.04423272,22.4474891 8.21394251,23.2184729 7.2650394,23.2184729 Z" id="Shape"></path>
                    </g>
                    <g id="Group-4">
                        <path d="M19,14 C22.8601478,14 26,10.8601478 26,7 C26,3.13985219 22.8601478,0 19,0 C15.1398522,0 12,3.13985219 12,7 C12,10.8601478 15.1398522,14 19,14 Z" id="Path" fill="#80AAFE" fill-rule="nonzero"></path>
                        <path d="M16.7093325,17.7553885 L18.2702266,19.8885259 L20.1749214,19.8885259 L21.5760455,17.7864591 C30.7951796,19.0293315 37.9407563,26.9024378 38.0421927,36.4328904 C38.0561462,36.4986711 38.0631229,36.5674419 38.0631229,36.6372093 C38.0631229,37.1883721 37.617608,37.633887 37.0664452,37.633887 L37.0664452,37.633887 L0.996677741,37.633887 C0.446511628,37.633887 0,37.1883721 0,36.6372093 C0,26.930793 7.3076311,18.8997889 16.7093325,17.7553885 Z M19.8896061,20.6463322 L18.3155103,20.6463322 L16.6071429,32.09117 L19.2857143,35.1624071 L21.6895649,32.09117 L19.8896061,20.6463322 Z" id="Combined-Shape" fill="#80AAFE" fill-rule="nonzero"></path>
                        <polygon id="Path-4" fill="#4281FF" points="11.688528 18.7520702 11.688528 16.4285714 16.6071429 17.6156146 15.286501 21.0433288"></polygon>
                        <polygon id="Path-4-Copy" fill="#4281FF" transform="translate(23.887879, 18.735950) scale(-1, 1) translate(-23.887879, -18.735950) " points="21.4285714 18.7520702 21.4285714 16.4285714 26.3471863 17.6156146 25.0265444 21.0433288"></polygon>
                    </g>
                </g>
            </g>
        </g>
    </g>
</svg>