<?xml version="1.0" encoding="UTF-8"?>
<svg width="60px" height="44px" viewBox="0 0 60 44" version="1.1" xmlns="http://www.w3.org/2000/svg" xmlns:xlink="http://www.w3.org/1999/xlink">
    <!-- Generator: sketchtool 63.1 (101010) - https://sketch.com -->
    <title>D2F8FAAA-4AF5-4873-A073-DACF5CFEB5E2</title>
    <desc>Created with sketchtool.</desc>
    <g id="One-Rule-Multiple-Conditions" stroke="none" stroke-width="1" fill="none" fill-rule="evenodd">
        <g id="Administrator_User-n-controls" transform="translate(-348.000000, -223.000000)" fill-rule="nonzero">
            <g id="1.Manage-User" transform="translate(238.000000, 184.000000)">
                <g id="ic_manage-user" transform="translate(110.000000, 39.000000)">
                    <g id="Group">
                        <path d="M16,14 C19.8601478,14 23,10.8601478 23,7 C23,3.13985219 19.8601478,0 16,0 C12.1398522,0 9,3.13985219 9,7 C9,10.8601478 12.1398522,14 16,14 Z" id="Path" fill="#80AAFE"></path>
                        <path d="M15.7293956,17.3401099 C7.05659341,17.3401099 0,24.3958791 0,33.0695055 C0,33.5252747 0.369230769,33.8936813 0.824175824,33.8936813 L30.6346154,33.8936813 C30.6403846,33.8936813 30.646978,33.8936813 30.6510989,33.8936813 C31.1068681,33.8936813 31.4752747,33.5252747 31.4752747,33.0695055 C31.4752747,33.0118132 31.4695055,32.9549451 31.457967,32.9005495 C31.3664835,24.3052198 24.3461538,17.3401099 15.7293956,17.3401099 Z" id="Path" fill="#80AAFE"></path>
                        <path d="M34.8206044,4.82115385 C33.0329657,4.82115385 31.4121354,5.54885012 30.2380477,6.72293783 C29.06396,7.89702553 28.3362637,9.51785583 28.3362637,11.3054945 C28.3362637,13.0931332 29.06396,14.7139635 30.2380477,15.8880512 C31.4121354,17.0621389 33.0329657,17.7898352 34.8206044,17.7898352 C36.608149,17.7898352 38.2287246,17.0622049 39.4025981,15.8882021 C40.5765781,14.7140928 41.3041209,13.0931969 41.3041209,11.3054945 C41.3041209,9.51779209 40.5765781,7.89689618 39.4025981,6.72278695 C38.2287246,5.5487841 36.608149,4.82115385 34.8206044,4.82115385 Z" id="Path" stroke="#80AAFE" stroke-width="2"></path>
                        <path d="M59.1848901,30.6521978 C59.1156593,30.2574176 58.7736264,29.9697802 58.3730769,29.9697802 L57.2291209,29.9697802 C57.0354396,29.2873626 56.7642857,28.6337912 56.4197802,28.0173077 L57.2274725,27.2096154 C57.510989,26.9260989 57.5497253,26.4802198 57.318956,26.153022 C56.5903846,25.1178571 55.7010989,24.2318681 54.6758242,23.5181319 C54.3478022,23.2906593 53.9027473,23.3293956 53.6208791,23.6137363 L52.8197802,24.418956 C52.2041209,24.0752747 51.5521978,23.8049451 50.868956,23.6112637 L50.868956,22.4681319 C50.868956,22.0684066 50.5813187,21.7263736 50.1881868,21.6563187 C49.0277473,21.4510989 47.7815934,21.4403846 46.471978,21.6546703 C46.0739011,21.7197802 45.7804945,22.0642857 45.7804945,22.4681319 L45.7804945,23.6153846 C45.1046703,23.8049451 44.4568681,24.0728022 43.8428571,24.414011 L43.0409341,23.6129121 C42.7582418,23.3302198 42.3115385,23.2898352 41.9835165,23.5222527 C40.9565934,24.2458791 40.068956,25.1335165 39.3453297,26.1604396 C39.1145604,26.4884615 39.1532967,26.9343407 39.435989,27.2178571 L40.2387363,28.0214286 C39.8967033,28.6395604 39.628022,29.2914835 39.4335165,29.9714286 L38.2912088,29.9714286 C37.8906593,29.9714286 37.5478022,30.2598901 37.4793956,30.6546703 C37.3739011,31.2604396 37.3236264,31.8678571 37.3236264,32.5082418 C37.3236264,33.1090659 37.3755495,33.7346154 37.4785714,34.3684066 C37.5436813,34.7673077 37.8881868,35.0607143 38.292033,35.0607143 L39.4401099,35.0607143 C39.6304945,35.7348901 39.9,36.3851648 40.2461538,37.0049451 L39.4458791,37.806044 C39.1623626,38.0895604 39.1236264,38.5346154 39.3535714,38.8618132 C40.0714286,39.8854396 40.9549451,40.768956 41.9802198,41.4884615 C42.3065934,41.7192308 42.7532967,41.6796703 43.035989,41.396978 L43.8379121,40.5958791 C44.4568681,40.9412088 45.107967,41.2107143 45.7821429,41.4019231 L45.7821429,42.5491758 C45.7821429,42.953022 46.0747253,43.2975275 46.4736264,43.3626374 C47.1049451,43.4656593 47.7304945,43.5175824 48.3337912,43.5175824 C48.9815934,43.5175824 49.5881868,43.4656593 50.1898352,43.3601648 C50.5837912,43.2909341 50.8706044,42.9489011 50.8706044,42.5491758 L50.8706044,41.406044 C51.5513736,41.2123626 52.2041209,40.9428571 52.8214286,40.6016484 L53.6241758,41.4043956 C53.9085165,41.6879121 54.3552198,41.7282967 54.6815934,41.4950549 C55.7085165,40.7714286 56.5961538,39.8837912 57.3197802,38.8568681 C57.5505495,38.5288462 57.5118132,38.082967 57.2291209,37.7994505 L56.4271978,36.9975275 C56.7684066,36.3843407 57.0354396,35.7365385 57.2266484,35.0607143 L58.3747253,35.0607143 C58.7785714,35.0607143 59.1230769,34.7681319 59.1881868,34.3684066 C59.2887363,33.732967 59.3406593,33.1082418 59.3406593,32.5065934 C59.3406593,31.8604396 59.2895604,31.2546703 59.1848901,30.6521978 Z M45.0873626,33.9068681 L44.3307692,34.2340659 L45.0478022,33.8063187 C44.882967,33.4041209 44.7989011,32.9664835 44.7989011,32.5057692 C44.7989011,32.0425824 44.8821429,31.6098901 45.0461538,31.2167582 C45.0593407,31.1870879 45.0692308,31.1557692 45.0782967,31.1244505 C45.0791209,31.1236264 45.0799451,31.121978 45.0807692,31.1186813 C45.4368132,30.2903846 46.1101648,29.6145604 46.9285714,29.2634615 C46.9401099,29.2585165 46.95,29.2535714 46.9607143,29.2486264 C46.9879121,29.2403846 47.0134615,29.2313187 47.0406593,29.2206044 C47.8326923,28.8934066 48.8184066,28.8901099 49.6343407,29.2222527 C49.6549451,29.2313187 49.678022,29.2395604 49.6994505,29.2461538 C49.7035714,29.2478022 49.710989,29.2510989 49.7208791,29.256044 C50.5368132,29.6038462 51.2068681,30.2664835 51.585989,31.1228022 C51.5942308,31.1508242 51.6032967,31.1788462 51.6148352,31.206044 C51.7796703,31.6074176 51.8637363,32.0458791 51.8637363,32.5065934 C51.8637363,32.968956 51.7804945,33.4024725 51.6164835,33.7956044 C51.6032967,33.8252747 51.5934066,33.8565934 51.5843407,33.8879121 C51.581044,33.8945055 51.5777473,33.9019231 51.5744505,33.9085165 C51.2225275,34.7277473 50.5458791,35.4019231 49.7662088,35.7456044 C49.7159341,35.7571429 49.6681319,35.7711538 49.6211538,35.7909341 C48.8332418,36.1197802 47.8351648,36.1197802 47.0291209,35.7892857 L46.7167582,36.5524725 L46.931044,35.7497253 C46.1134615,35.396978 45.4417582,34.7252747 45.0873626,33.9068681 Z" id="Shape" fill="#0052FF"></path>
                        <path d="M34.8197802,20.6403846 C33.1699026,20.6403846 31.574728,20.9564102 30.0728335,21.5800363 C32.5348354,24.5639638 33.8879121,28.3251626 33.8879121,32.1983516 C33.8879121,32.4193976 33.8848239,32.6409323 33.8762525,32.8596381 L35.5546821,32.5239249 C35.5491286,28.432071 37.5105511,24.5859864 40.814489,22.1805139 C38.9889062,21.1711783 36.9217525,20.6403846 34.8197802,20.6403846 Z" id="Path" stroke="#80AAFE" stroke-width="2"></path>
                    </g>
                </g>
            </g>
        </g>
    </g>
</svg>