<?xml version="1.0" encoding="UTF-8"?>
<svg width="24px" height="24px" viewBox="0 0 24 24" version="1.1" xmlns="http://www.w3.org/2000/svg" xmlns:xlink="http://www.w3.org/1999/xlink">
    <!-- Generator: sketchtool 63 (101010) - https://sketch.com -->
    <title>A1316D65-4CA4-4043-9018-B8E9475D320C</title>
    <desc>Created with sketchtool.</desc>
    <g id="One-Rule-Multiple-Conditions" stroke="none" stroke-width="1" fill="none" fill-rule="evenodd">
        <g id="Administrator_Workflow-list" transform="translate(-1290.000000, -222.000000)">
            <g id="Group-11" transform="translate(236.000000, 157.000000)">
                <g id="Content" transform="translate(16.000000, 54.000000)">
                    <g id="List-Copy">
                        <g id="1">
                            <g id="ic_More" transform="translate(1050.000000, 23.000000) rotate(-270.000000) translate(-1050.000000, -23.000000) translate(1038.000000, 11.000000)">
                                <g>
                                    <rect id="Rectangle" fill="#EFF4FF" x="0" y="0" width="24" height="24" rx="12"></rect>
                                    <path d="M12.4,16 C13.0627417,16 13.6,16.5372583 13.6,17.2 C13.6,17.8627417 13.0627417,18.4 12.4,18.4 C11.7372583,18.4 11.2,17.8627417 11.2,17.2 C11.2,16.5372583 11.7372583,16 12.4,16 Z M12.4,11.2 C13.0627417,11.2 13.6,11.7372583 13.6,12.4 C13.6,13.0627417 13.0627417,13.6 12.4,13.6 C11.7372583,13.6 11.2,13.0627417 11.2,12.4 C11.2,11.7372583 11.7372583,11.2 12.4,11.2 Z M12.4,6.4 C13.0627417,6.4 13.6,6.9372583 13.6,7.6 C13.6,8.2627417 13.0627417,8.8 12.4,8.8 C11.7372583,8.8 11.2,8.2627417 11.2,7.6 C11.2,6.9372583 11.7372583,6.4 12.4,6.4 Z" id="more" fill="#0155FF" fill-rule="nonzero"></path>
                                </g>
                            </g>
                        </g>
                    </g>
                </g>
            </g>
        </g>
    </g>
</svg>