<?xml version="1.0" encoding="UTF-8"?>
<svg width="60px" height="36px" viewBox="0 0 60 36" version="1.1" xmlns="http://www.w3.org/2000/svg" xmlns:xlink="http://www.w3.org/1999/xlink">
    <!-- Generator: sketchtool 63.1 (101010) - https://sketch.com -->
    <title>25435D09-E1DC-49A7-AAB1-A7CB051BACFE</title>
    <desc>Created with sketchtool.</desc>
    <g id="One-Rule-Multiple-Conditions" stroke="none" stroke-width="1" fill="none" fill-rule="evenodd">
        <g id="Administrator_User-n-controls" transform="translate(-348.000000, -557.000000)" fill-rule="nonzero">
            <g id="5.Manage-Team" transform="translate(238.000000, 514.000000)">
                <g id="ic_manage-team" transform="translate(110.000000, 43.000000)">
                    <g id="Group">
                        <path d="M23,12 C26.3086981,12 29,9.30869812 29,6 C29,2.69130188 26.3086981,0 23,0 C19.6913019,0 17,2.69130188 17,6 C17,9.30869812 19.6913019,12 23,12 Z" id="Path" fill="#80AAFE"></path>
                        <path d="M23.3104103,14.0481763 C16.1138298,14.0481763 10.2583587,19.9029635 10.2583587,27.100228 C10.2583587,27.4784195 10.5647416,27.7841185 10.9422492,27.7841185 L35.6785714,27.7841185 C35.6833587,27.7841185 35.6888298,27.7841185 35.6922492,27.7841185 C36.0704407,27.7841185 36.3761398,27.4784195 36.3761398,27.100228 C36.3761398,27.0523556 36.3713526,27.0051672 36.3617781,26.9600304 C36.2858663,19.8277356 30.4604863,14.0481763 23.3104103,14.0481763 Z" id="Path" fill="#80AAFE"></path>
                        <g id="Group-3" transform="translate(32.941641, 2.830319)" stroke="#80AAFE" stroke-width="2">
                            <path d="M6.21041033,1 C4.77397577,1 3.47162805,1.58481575 2.5282219,2.5282219 C1.58481575,3.47162805 1,4.77397577 1,6.21041033 C1,7.6468449 1.58481575,8.94919262 2.5282219,9.89259877 C3.47162805,10.8360049 4.77397577,11.4208207 6.21041033,11.4208207 C7.64676047,11.4208207 8.94889641,10.8360631 9.89212502,9.89273059 C10.8354473,8.94930442 11.4201368,7.64689897 11.4201368,6.21041033 C11.4201368,4.7739217 10.8354473,3.47151624 9.89212502,2.52809008 C8.94889641,1.5847576 7.64676047,1 6.21041033,1 Z" id="Path"></path>
                            <path d="M6.64940412,23.7592796 C6.66290269,20.4210813 8.22844618,17.2824282 10.8681771,15.2579493 C9.43647295,14.5158007 7.83585286,14.1265957 6.20972644,14.1265957 C4.94081254,14.1265957 3.71153079,14.3555996 2.54826318,14.8079814 C4.52368965,17.285002 5.60668693,20.3712005 5.60302795,23.9002677 L6.64940412,23.7592796 Z" id="Path"></path>
                        </g>
                        <g id="Group-3-Copy" transform="translate(6.608815, 15.330319) scale(-1, 1) translate(-6.608815, -15.330319) translate(0.108815, 2.830319)" stroke="#80AAFE" stroke-width="2">
                            <path d="M6.21041033,1 C4.77397577,1 3.47162805,1.58481575 2.5282219,2.5282219 C1.58481575,3.47162805 1,4.77397577 1,6.21041033 C1,7.6468449 1.58481575,8.94919262 2.5282219,9.89259877 C3.47162805,10.8360049 4.77397577,11.4208207 6.21041033,11.4208207 C7.64676047,11.4208207 8.94889641,10.8360631 9.89212502,9.89273059 C10.8354473,8.94930442 11.4201368,7.64689897 11.4201368,6.21041033 C11.4201368,4.7739217 10.8354473,3.47151624 9.89212502,2.52809008 C8.94889641,1.5847576 7.64676047,1 6.21041033,1 Z" id="Path"></path>
                            <path d="M6.64940412,23.7592796 C6.66290269,20.4210813 8.22844618,17.2824282 10.8681771,15.2579493 C9.43647295,14.5158007 7.83585286,14.1265957 6.20972644,14.1265957 C4.94081254,14.1265957 3.71153079,14.3555996 2.54826318,14.8079814 C4.52368965,17.285002 5.60668693,20.3712005 5.60302795,23.9002677 L6.64940412,23.7592796 Z" id="Path"></path>
                        </g>
                        <path d="M59.3692249,25.0943769 C59.3117781,24.7667933 59.0279635,24.5281155 58.6955927,24.5281155 L57.7463526,24.5281155 C57.5856383,23.9618541 57.3606383,23.4195289 57.074772,22.9079787 L57.7449848,22.237766 C57.9802432,22.0025076 58.012386,21.6325228 57.8208967,21.3610182 C57.2163374,20.5020517 56.4784195,19.7668693 55.6276596,19.1746201 C55.3554711,18.9858663 54.9861702,19.0180091 54.7522796,19.2539514 L54.087538,19.9221125 C53.5766717,19.6369301 53.0357143,19.412614 52.468769,19.2518997 L52.468769,18.3033435 C52.468769,17.9716565 52.2300912,17.6878419 51.9038754,17.6297112 C50.9409574,17.4594225 49.9069149,17.4505319 48.8202128,17.6283435 C48.4898936,17.6823708 48.2464286,17.9682371 48.2464286,18.3033435 L48.2464286,19.2553191 C47.6856383,19.412614 47.1481003,19.6348784 46.6386018,19.9180091 L45.9731763,19.2532675 C45.7386018,19.018693 45.3679331,18.9851824 45.0957447,19.1780395 C44.243617,19.7784954 43.5070669,20.5150456 42.9066109,21.3671733 C42.7151216,21.6393617 42.7472644,22.0093465 42.9818389,22.2446049 L43.6479483,22.9113982 C43.3641337,23.4243161 43.1411854,23.9652736 42.9797872,24.5294833 L42.0319149,24.5294833 C41.6995441,24.5294833 41.4150456,24.768845 41.3582827,25.0964286 C41.2707447,25.5990881 41.2290274,26.1031155 41.2290274,26.6344985 C41.2290274,27.1330547 41.2721125,27.6521277 41.3575988,28.1780395 C41.4116261,28.5090426 41.6974924,28.7525076 42.0325988,28.7525076 L42.9852584,28.7525076 C43.1432371,29.3119301 43.3668693,29.8515198 43.6541033,30.3658055 L42.9900456,31.0305471 C42.7547872,31.2658055 42.7226444,31.6351064 42.9134498,31.9066109 C43.5091185,32.756003 44.2422492,33.4891337 45.0930091,34.0861702 C45.3638298,34.2776596 45.7344985,34.2448328 45.9690729,34.0102584 L46.6344985,33.3455167 C47.1481003,33.6320669 47.6883739,33.8556991 48.2477964,34.0143617 L48.2477964,34.9663374 C48.2477964,35.3014438 48.4905775,35.58731 48.8215805,35.6413374 C49.3454407,35.7268237 49.8645137,35.7699088 50.3651216,35.7699088 C50.9026596,35.7699088 51.406003,35.7268237 51.9052432,35.6392857 C52.2321429,35.5818389 52.4701368,35.2980243 52.4701368,34.9663374 L52.4701368,34.0177812 C53.0350304,33.8570669 53.5766717,33.6334347 54.0889058,33.350304 L54.7550152,34.0164134 C54.9909574,34.2516717 55.3616261,34.2851824 55.6324468,34.0916413 C56.4845745,33.4911854 57.2211246,32.7546353 57.8215805,31.9025076 C58.0130699,31.6303191 57.9809271,31.2603343 57.7463526,31.025076 L57.0809271,30.3596505 C57.3640578,29.8508359 57.5856383,29.3132979 57.7443009,28.7525076 L58.6969605,28.7525076 C59.0320669,28.7525076 59.3179331,28.5097264 59.3719605,28.1780395 C59.4553951,27.6507599 59.4984802,27.1323708 59.4984802,26.6331307 C59.4984802,26.0969605 59.456079,25.5943009 59.3692249,25.0943769 Z M47.6712766,27.7950608 L47.043465,28.0665653 L47.6384498,27.7116261 C47.5016717,27.3778875 47.4319149,27.0147416 47.4319149,26.6324468 C47.4319149,26.2481003 47.5009878,25.8890578 47.6370821,25.5628419 C47.6480243,25.5382219 47.656231,25.512234 47.6637538,25.4862462 C47.6644377,25.4855623 47.6651216,25.4841945 47.6658055,25.481459 C47.9612462,24.7941489 48.5199848,24.2333587 49.1990881,23.9420213 C49.2086626,23.9379179 49.2168693,23.9338146 49.2257599,23.9297112 C49.2483283,23.9228723 49.2695289,23.9153495 49.2920973,23.906459 C49.9493161,23.6349544 50.7672492,23.6322188 51.4443009,23.9078267 C51.4613982,23.9153495 51.4805471,23.9221884 51.4983283,23.9276596 C51.5017477,23.9290274 51.5079027,23.9317629 51.5161094,23.9358663 C52.1931611,24.2244681 52.7491641,24.7743161 53.0637538,25.4848784 C53.0705927,25.5081307 53.0781155,25.531383 53.08769,25.5539514 C53.2244681,25.8870061 53.2942249,26.2508359 53.2942249,26.6331307 C53.2942249,27.0167933 53.225152,27.3765198 53.0890578,27.7027356 C53.0781155,27.7273556 53.0699088,27.7533435 53.062386,27.7793313 C53.0596505,27.7848024 53.0569149,27.7909574 53.0541793,27.7964286 C52.7621581,28.4762158 52.2006839,29.0356383 51.5537234,29.3208207 C51.5120061,29.3303951 51.4723404,29.3420213 51.4333587,29.3584347 C50.7795593,29.631307 49.9513678,29.631307 49.2825228,29.3570669 L49.0233283,29.9903495 L49.2011398,29.3242401 C48.5227204,29.031535 47.9653495,28.4741641 47.6712766,27.7950608 Z" id="Shape" fill="#0052FF"></path>
                    </g>
                </g>
            </g>
        </g>
    </g>
</svg>