<?xml version="1.0" encoding="UTF-8"?>
<svg width="34px" height="34px" viewBox="0 0 34 34" version="1.1" xmlns="http://www.w3.org/2000/svg" xmlns:xlink="http://www.w3.org/1999/xlink">
    <!-- Generator: sketchtool 64 (101010) - https://sketch.com -->
    <title>A3F98091-553E-427A-86B6-411283A883B6</title>
    <desc>Created with sketchtool.</desc>
    <g id="Templates" stroke="none" stroke-width="1" fill="none" fill-rule="evenodd">
        <g id="Administrator_Template-list" transform="translate(-1086.000000, -410.000000)">
            <g id="Right-Panel" transform="translate(1074.000000, 186.000000)">
                <g id="Templates-stats">
                    <g id="Campaigns">
                        <g id="ic_scheduled-copy" transform="translate(12.000000, 224.000000)">
                            <rect id="Rectangle-3-Copy-2" fill="#FFD9E2" x="0" y="0" width="34" height="34" rx="4"></rect>
                            <path d="M22.1666667,14.3333333 L21.1666667,14.3333333 L21.1666667,14.1666667 C21.1666667,11.8666667 19.3,10 17,10 C14.7,10 12.8333333,11.8666667 12.8333333,14.1666667 L12.8333333,14.3333333 L11.8333333,14.3333333 C11.3666667,14.3333333 11,14.7 11,15.1666667 L11,23.1666667 C11,23.6333333 11.3666667,24 11.8333333,24 L22.1666667,24 C22.6333333,24 23,23.6333333 23,23.1666667 L23,15.1666667 C23,14.7 22.6333333,14.3333333 22.1666667,14.3333333 Z M14.5,14.1666667 C14.5,12.8 15.6333333,11.6666667 17,11.6666667 C18.3666667,11.6666667 19.5,12.8 19.5,14.1666667 L19.5,14.3333333 L14.5,14.3333333 L14.5,14.1666667 Z M21.3333333,22.3333333 L12.6666667,22.3333333 L12.6666667,16 L21.3333333,16 L21.3333333,22.3333333 Z M15.6666667,18.3333333 C15.6666667,17.6 16.2666667,17 17,17 C17.7333333,17 18.3333333,17.6 18.3333333,18.3333333 C18.3333333,18.8333333 18.0666667,19.2666667 17.6666667,19.4666667 L17.6666667,20.5666667 C17.6666667,20.9333333 17.3666667,21.2333333 17,21.2333333 C16.6333333,21.2333333 16.3333333,20.9333333 16.3333333,20.5666667 L16.3333333,19.4666667 C15.9333333,19.2666667 15.6666667,18.8333333 15.6666667,18.3333333 Z" id="Shape" fill="#FF2355" fill-rule="nonzero"></path>
                        </g>
                    </g>
                </g>
            </g>
        </g>
    </g>
</svg>