<?xml version="1.0" encoding="UTF-8"?>
<svg width="60px" height="60px" viewBox="0 0 60 60" version="1.1" xmlns="http://www.w3.org/2000/svg" xmlns:xlink="http://www.w3.org/1999/xlink">
    <!-- Generator: sketchtool 63 (101010) - https://sketch.com -->
    <title>F683102F-EF88-4848-AD8F-FD4909C71CDF</title>
    <desc>Created with sketchtool.</desc>
    <g id="One-Rule-Multiple-Conditions" stroke="none" stroke-width="1" fill="none" fill-rule="evenodd">
        <g id="Administrator_Customization" transform="translate(-649.000000, -214.000000)">
            <g id="2.-Pick-list-editor" transform="translate(539.000000, 184.000000)">
                <g id="ic_pick-list-editor" transform="translate(110.000000, 30.000000)">
                    <path d="M12.5,24 L12.5,53.75 C12.5027544,55.8199258 14.1800742,57.4972456 16.25,57.5 L16.25,57.5 L53.75,57.5 C55.8199258,57.4972456 57.4972456,55.8199258 57.5,53.75 L57.5,53.75 L57.5,24 L60,24 L60,53.75 C59.9972428,57.200637 57.200637,59.9972428 53.75,60 L53.75,60 L16.25,60 C12.799363,59.9972428 10.0027572,57.200637 10,53.75 L10,53.75 L10,24 L12.5,24 Z" id="Combined-Shape" fill="#80AAFE" fill-rule="nonzero"></path>
                    <g id="Group-6" transform="translate(20.000000, 27.000000)" fill="#80AAFE" fill-rule="nonzero">
                        <path d="M7.90441176,-7.10542736e-15 L1.98529412,-7.10542736e-15 C0.882352941,-7.10542736e-15 1.05693232e-13,0.882352941 1.05693232e-13,1.98529412 L1.05693232e-13,7.90441176 C1.05693232e-13,9.00735294 0.882352941,9.88970588 1.98529412,9.88970588 L7.90441176,9.88970588 C9.00735294,9.88970588 9.88970588,9.00735294 9.88970588,7.90441176 L9.88970588,1.98529412 C9.88970588,0.882352941 9.00735294,-7.10542736e-15 7.90441176,-7.10542736e-15 Z M7.27941176,4.26470588 L4.85294118,6.69117647 C4.70588235,6.83823529 4.52205882,6.91176471 4.33823529,6.91176471 C4.15441176,6.91176471 3.97058824,6.83823529 3.82352941,6.69117647 L2.61029412,5.47794118 C2.31617647,5.18382353 2.31617647,4.70588235 2.61029412,4.41176471 C2.90441176,4.11764706 3.38235294,4.11764706 3.67647059,4.41176471 L4.375,5.11029412 L6.25,3.23529412 C6.54411765,2.94117647 7.02205882,2.94117647 7.31617647,3.23529412 C7.57352941,3.49264706 7.57352941,3.97058824 7.27941176,4.26470588 Z" id="Shape"></path>
                        <path d="M7.90441176,12.5367647 L1.98529412,12.5367647 C0.882352941,12.5367647 1.05693232e-13,13.4191176 1.05693232e-13,14.5220588 L1.05693232e-13,20.4411765 C1.05693232e-13,21.5441176 0.882352941,22.4264706 1.98529412,22.4264706 L7.90441176,22.4264706 C9.00735294,22.4264706 9.88970588,21.5441176 9.88970588,20.4411765 L9.88970588,14.4852941 C9.88970588,13.4191176 9.00735294,12.5367647 7.90441176,12.5367647 Z M7.27941176,16.7647059 L4.85294118,19.1911765 C4.70588235,19.3382353 4.52205882,19.4117647 4.33823529,19.4117647 C4.15441176,19.4117647 3.97058824,19.3382353 3.82352941,19.1911765 L2.61029412,17.9779412 C2.31617647,17.6838235 2.31617647,17.2058824 2.61029412,16.9117647 C2.90441176,16.6176471 3.38235294,16.6176471 3.67647059,16.9117647 L4.375,17.6102941 L6.25,15.7352941 C6.54411765,15.4411765 7.02205882,15.4411765 7.31617647,15.7352941 C7.57352941,16.0294118 7.57352941,16.5073529 7.27941176,16.7647059 Z" id="Shape"></path>
                        <path d="M13.2720588,3.86029412 L28.4191176,3.86029412 C29.0073529,3.86029412 29.4852941,3.38235294 29.4852941,2.79411765 C29.4852941,2.20588235 29.0073529,1.72794118 28.4191176,1.72794118 L13.2720588,1.72794118 C12.6838235,1.72794118 12.2058824,2.20588235 12.2058824,2.79411765 C12.2058824,3.38235294 12.6838235,3.86029412 13.2720588,3.86029412 Z" id="Path"></path>
                        <path d="M13.2720588,8.16176471 L22.8308824,8.16176471 C23.4191176,8.16176471 23.8970588,7.68382353 23.8970588,7.09558824 C23.8970588,6.50735294 23.4191176,6.02941176 22.8308824,6.02941176 L13.2720588,6.02941176 C12.6838235,6.02941176 12.2058824,6.50735294 12.2058824,7.09558824 C12.2058824,7.68382353 12.6838235,8.16176471 13.2720588,8.16176471 Z" id="Path"></path>
                        <path d="M28.4191176,14.2647059 L13.2720588,14.2647059 C12.6838235,14.2647059 12.2058824,14.7426471 12.2058824,15.3308824 C12.2058824,15.9191176 12.6838235,16.3970588 13.2720588,16.3970588 L28.4191176,16.3970588 C29.0073529,16.3970588 29.4852941,15.9191176 29.4852941,15.3308824 C29.4852941,14.7426471 29.0073529,14.2647059 28.4191176,14.2647059 Z" id="Path"></path>
                        <path d="M13.2720588,20.6617647 L22.8308824,20.6617647 C23.4191176,20.6617647 23.8970588,20.1838235 23.8970588,19.5955882 C23.8970588,19.0073529 23.4191176,18.5294118 22.8308824,18.5294118 L13.2720588,18.5294118 C12.6838235,18.5294118 12.2058824,19.0073529 12.2058824,19.5955882 C12.2058824,20.1838235 12.6838235,20.6617647 13.2720588,20.6617647 Z" id="Path"></path>
                    </g>
                    <path d="M0,5.24932625 L0,15.7506738 C0,18.6489637 2.37251665,21 5.29719406,21 L54.7028056,21 C57.6260382,21 60,18.6495221 60,15.7506738 L60,5.24932625 C60,2.35103628 57.6274835,0 54.7028056,0 L5.29719406,0 C2.37396212,0 0,2.35047794 0,5.24932625 Z M42.3529412,3.5 L54.7028056,3.5 C55.6788168,3.5 56.4705882,4.28460261 56.4705882,5.24932625 L56.4705882,15.7506738 C56.4705882,16.7152916 55.6780394,17.5 54.7028056,17.5 L42.3529412,17.5 L42.3529412,3.5 Z M3.52941176,5.24932625 C3.52941176,4.2847084 4.32196041,3.5 5.29719406,3.5 L38.8235294,3.5 L38.8235294,17.5 L5.29719406,17.5 C4.32118297,17.5 3.52941176,16.7153974 3.52941176,15.7506738 L3.52941176,5.24932625 Z M48.0125418,8.3875631 C47.3233809,7.70414566 46.2060309,7.70414566 45.51687,8.3875631 C44.82771,9.07098062 44.82771,10.1790194 45.51687,10.8624369 L48.1639288,13.4874369 C48.8530897,14.1708543 49.9704397,14.1708543 50.6596006,13.4874369 L53.3066594,10.8624369 C53.9958194,10.1790194 53.9958194,9.07098062 53.3066594,8.3875631 C52.6174985,7.70414566 51.5001485,7.70414566 50.8109876,8.3875631 L49.4117647,9.77512629 L48.0125418,8.3875631 Z M8.82352941,12.25 L24.7259254,12.25 C25.7005456,12.25 26.4906313,11.4664983 26.4906313,10.5 C26.4906313,9.53350169 25.7005456,8.75 24.7259254,8.75 L8.82352941,8.75 C7.84890926,8.75 7.05882353,9.53350169 7.05882353,10.5 C7.05882353,11.4664983 7.84890926,12.25 8.82352941,12.25 Z" id="Shape" fill="#0052FF"></path>
                </g>
            </g>
        </g>
    </g>
</svg>