<?xml version="1.0" encoding="UTF-8"?>
<svg width="60px" height="60px" viewBox="0 0 60 60" version="1.1" xmlns="http://www.w3.org/2000/svg" xmlns:xlink="http://www.w3.org/1999/xlink">
    <!-- Generator: sketchtool 63.1 (101010) - https://sketch.com -->
    <title>7CBD53A1-FD51-4CC1-8E9B-EBFF7CF09101</title>
    <desc>Created with sketchtool.</desc>
    <g id="One-Rule-Multiple-Conditions" stroke="none" stroke-width="1" fill="none" fill-rule="evenodd">
        <g id="Administrator_Setup" transform="translate(-649.000000, -215.000000)" fill-rule="nonzero">
            <g id="2.-Super-receptionist" transform="translate(539.000000, 184.000000)">
                <g id="ic_receptionist" transform="translate(110.000000, 31.000000)">
                    <path d="M30,0 C36,0 41.9990225,2.25 46.4990225,6.25 C47.79379,7.32897175 48.15058,9.3354655 47.421875,10.830078 C50.6226928,14.7987675 52.3876274,19.5414383 52.49481,24.5177138 L52.5,25 L52.5,27.5 C52.5,27.5279708 52.4970117,27.5542044 52.4925766,27.5796142 L52.4609375,27.7294925 C53.4376358,28.0871808 54.2462685,28.8475316 54.670838,29.7943378 L54.75586,30 L56.25,30 C58.1854839,30 59.8868366,31.6389178 59.9945873,33.5572824 L60,33.75 L60,38.75 C60,40.6854839 58.3610822,42.3868366 56.4427176,42.4945873 L56.25,42.5 L54.75586,42.5 C54.3918623,43.460197 53.6384061,44.2533998 52.7031248,44.6719751 L52.5,44.75586 L52.5,46.25 C52.5,52.4023438 47.6550293,57.3434448 41.5420389,57.4963522 L41.25,57.5 L37.25586,57.5 C36.7393,58.8626417 35.4353182,59.9058252 33.9531597,59.9939609 L33.75,60 L31.25,60 C29.25,60 27.5,58.25 27.5,56.25 C27.5,54.3145161 29.1389178,52.6131634 31.0572824,52.5054127 L31.25,52.5 L33.75,52.5 C35.2470976,52.5 36.5937115,53.4839381 37.1805965,54.816225 L37.25586,55 L41.25,55 C45.9151786,55 49.8569037,51.1415816 49.996192,46.5037283 L50,46.25 L50,45 L48.75,45 C48.046875,45 47.5634766,44.5605469 47.5057983,43.8876343 L47.5,43.75 L47.5,28.75 C47.5,28.046875 47.9394531,27.5634766 48.6123657,27.5057983 L48.75,27.5 L50,27.5 L50,25 C50,20.3403525 48.46238,15.911145 45.625,12.4951172 C45.3366125,12.6231831 45.0364993,12.7141296 44.7048702,12.7408878 L44.5019525,12.7490235 L43.9990225,12.7490235 C42.9990225,12.7490235 42.2490225,12.4980468 41.4990225,11.748047 C38.4990225,8.998047 34.25,7.5 30,7.5 C25.75,7.5 21.5009775,9.001953 18.5009775,12.001953 C17.7509775,12.751953 16.7519525,12.998047 15.7519525,12.998047 C15.2335925,12.998047 14.7162977,12.8608305 14.267578,12.626953 C11.5918514,15.9118623 10.1013817,20.109215 10.0049901,24.540757 L10,25 L10,27.5 L11.25,27.5 C11.953125,27.5 12.4365234,27.9394531 12.4942017,28.6123657 L12.5,28.75 L12.5,43.75 C12.5,44.453125 12.0605469,44.9365234 11.3876343,44.9942017 L11.25,45 L8.75,45 C7.25290191,45 5.9062878,44.0160619 5.31940384,42.683775 L5.2441405,42.5 L3.75,42.5 C1.81451613,42.5 0.113163371,40.8610822 0.00541270854,38.9427176 L0,38.75 L0,33.75 C0,31.8145161 1.63891779,30.1131634 3.5572824,30.0054127 L3.75,30 L5.2441405,30 C5.63907025,28.9582075 6.4925995,28.11273 7.5390625,27.7294925 L7.50742343,27.5796142 L7.50742343,27.5796142 L7.5,27.5 L7.5,25 C7.5,19.8211475 9.294036,14.8759965 12.631836,10.7666015 C11.9007593,9.215465 12.269153,7.4818235 13.5009765,6.25 C18.0009775,2.25 24,0 30,0 Z M51.25,30 L50,30 L50,42.5 L51.25,42.5 C51.953125,42.5 52.4365234,42.0605469 52.4942017,41.3876343 L52.5,41.25 L52.5,31.25 C52.5,30.5 52,30 51.25,30 Z M10,30 L8.75,30 C8,30 7.5,30.5 7.5,31.25 L7.5,31.25 L7.5,41.25 C7.5,42 8,42.5 8.75,42.5 L8.75,42.5 L10,42.5 L10,30 Z M56.25,32.5 L55,32.5 L55,40 L56.25,40 C56.953125,40 57.4365234,39.5605469 57.4942017,38.8876343 L57.5,38.75 L57.5,33.75 C57.5,33 57,32.5 56.25,32.5 Z M5,32.5 L3.75,32.5 C3,32.5 2.5,33 2.5,33.75 L2.5,33.75 L2.5,38.75 C2.5,39.5 3,40 3.75,40 L3.75,40 L5,40 L5,32.5 Z" id="Combined-Shape" fill="#0155FF"></path>
                    <path d="M30,2.5 C35.5,2.5 40.7509775,4.49804675 44.7509775,7.998047 C45.5009775,8.49804675 45.5,9.2509765 45,9.7509765 C44.75,10.0009765 44.4980475,10.2490235 44.2480475,10.2490235 C43.7480475,10.2490235 43.5019525,10.25 43.2519525,10 C39.5019525,6.75 35,5 30,5 C25,5 20.4980475,6.7490235 16.7480475,10.2490235 C16.4980475,10.4990235 16.0019525,10.498047 15.7519525,10.498047 C15.5019525,10.498047 15.25,10.25 15,10 C14.5,9.5 14.5,8.50195325 15,8.251953 C19.25,4.50195325 24.5,2.5 30,2.5 Z" id="Path" fill="#C5D7FC"></path>
                    <path d="M31.25,55 L33.75,55 C34.5,55 35,55.5 35,56.25 C35,57 34.5,57.5 33.75,57.5 L31.25,57.5 C30.5,57.5 30,57 30,56.25 C30,55.5 30.5,55 31.25,55 Z" id="Path" fill="#80AAFE"></path>
                </g>
            </g>
        </g>
    </g>
</svg>