<?xml version="1.0" encoding="UTF-8"?>
<svg width="21px" height="24px" viewBox="0 0 21 24" version="1.1" xmlns="http://www.w3.org/2000/svg" xmlns:xlink="http://www.w3.org/1999/xlink">
    <!-- Generator: sketchtool 63 (101010) - https://sketch.com -->
    <title>32D9B360-8DAF-4E27-8531-77F14C4238D9</title>
    <desc>Created with sketchtool.</desc>
    <g id="One-Rule-Multiple-Conditions" stroke="none" stroke-width="1" fill="none" fill-rule="evenodd">
        <g id="Administrator_Customization_workflow" transform="translate(-824.000000, -134.000000)" fill-rule="nonzero">
            <g id="Tabs-Copy" transform="translate(236.000000, 133.000000)">
                <g id="4.-Setup" transform="translate(587.000000, 1.000000)">
                    <g id="Group-5">
                        <g id="ic_setup" transform="translate(11.000000, 12.000000) scale(-1, 1) rotate(-360.000000) translate(-11.000000, -12.000000) ">
                            <path d="M20.8190476,8.81904762 C20.8,8.81904762 20.8,8.81904762 20.7809524,8.81904762 C20.2285714,8.81904762 19.6761905,8.8 19.1428571,8.81904762 C19.0666667,8.81904762 19.0095238,8.81904762 18.9714286,8.8 C18.7428571,7.67619048 18.3047619,6.64761905 17.6952381,5.71428571 C17.7333333,5.65714286 17.7904762,5.6 17.8857143,5.5047619 C18.247619,5.12380952 18.6285714,4.76190476 19.0095238,4.38095238 C18.3428571,3.44761905 17.5238095,2.62857143 16.5904762,1.96190476 C16.2095238,2.36190476 15.7904762,2.74285714 15.4095238,3.14285714 C15.352381,3.2 15.3142857,3.23809524 15.2571429,3.25714286 C14.3428571,2.64761905 13.2952381,2.20952381 12.1714286,2 C12.152381,1.96190476 12.152381,1.92380952 12.152381,1.88571429 C12.1714286,1.58095238 12.152381,1.2952381 12.152381,0.99047619 C12.152381,0.704761905 12.152381,0.438095238 12.152381,0.152380952 C11.6,0.0952380952 11.047619,0.0571428571 10.4761905,0.0571428571 C9.9047619,0.0571428571 9.35238095,0.0952380952 8.8,0.19047619 C8.81904762,0.476190476 8.8,0.742857143 8.8,1.02857143 C8.8,1.33333333 8.8,1.61904762 8.8,1.92380952 C8.8,1.96190476 8.8,2.01904762 8.78095238,2.03809524 C7.65714286,2.26666667 6.60952381,2.7047619 5.6952381,3.2952381 C5.63809524,3.27619048 5.6,3.23809524 5.54285714,3.18095238 C5.16190476,2.78095238 4.76190476,2.4 4.36190476,2 C3.42857143,2.66666667 2.60952381,3.48571429 1.94285714,4.41904762 C2.32380952,4.78095238 2.68571429,5.16190476 3.06666667,5.54285714 C3.16190476,5.63809524 3.21904762,5.6952381 3.25714286,5.75238095 C2.66666667,6.66666667 2.20952381,7.6952381 2,8.81904762 C1.94285714,8.83809524 1.88571429,8.83809524 1.82857143,8.83809524 C1.27619048,8.81904762 0.723809524,8.83809524 0.171428571,8.83809524 C0.152380952,8.83809524 0.152380952,8.83809524 0.133333333,8.83809524 C0.0380952381,9.39047619 3.55271368e-15,9.96190476 3.55271368e-15,10.552381 C3.55271368e-15,11.1238095 0.0380952381,11.6952381 0.133333333,12.247619 C0.152380952,12.247619 0.171428571,12.247619 0.20952381,12.247619 C0.780952381,12.247619 1.35238095,12.247619 1.94285714,12.247619 C1.96190476,12.247619 1.98095238,12.247619 2,12.247619 C2.22857143,13.3904762 2.68571429,14.4380952 3.2952381,15.3714286 C3.27619048,15.4095238 3.25714286,15.4285714 3.21904762,15.4666667 C2.83809524,15.8095238 2.47619048,16.1904762 2.0952381,16.552381 C2.05714286,16.5904762 2.01904762,16.6285714 1.98095238,16.6666667 C2.64761905,17.5809524 3.44761905,18.4 4.38095238,19.047619 L4.41904762,19.0095238 C4.81904762,18.6095238 5.21904762,18.2095238 5.61904762,17.8095238 C5.65714286,17.7714286 5.67619048,17.752381 5.71428571,17.7333333 C6.32380952,18.1333333 6.99047619,18.4761905 7.71428571,18.7047619 L7.71428571,15.0285714 C7.61904762,14.9714286 7.52380952,14.8952381 7.42857143,14.8380952 C6.97142857,14.5142857 6.55238095,14.0952381 6.20952381,13.6380952 C5.73333333,12.9904762 5.40952381,12.2285714 5.27619048,11.3904762 C5.23809524,11.1047619 5.2,10.8190476 5.2,10.5333333 C5.2,10.247619 5.21904762,9.94285714 5.27619048,9.67619048 C5.40952381,8.85714286 5.73333333,8.0952381 6.20952381,7.44761905 C6.55238095,6.97142857 6.95238095,6.57142857 7.42857143,6.22857143 C8.07619048,5.77142857 8.83809524,5.44761905 9.65714286,5.31428571 C9.92380952,5.27619048 10.2095238,5.23809524 10.4952381,5.23809524 C10.7809524,5.23809524 11.0666667,5.25714286 11.3333333,5.31428571 C12.152381,5.44761905 12.9142857,5.77142857 13.5619048,6.22857143 C14.0380952,6.57142857 14.4380952,6.97142857 14.7809524,7.44761905 C15.2380952,8.0952381 15.5809524,8.85714286 15.7142857,9.67619048 C15.752381,9.96190476 15.7904762,10.247619 15.7904762,10.5333333 C15.7904762,10.8190476 15.7714286,11.1047619 15.7142857,11.3904762 C15.5809524,12.2095238 15.2571429,12.9904762 14.7809524,13.6380952 C14.4380952,14.0952381 14.0380952,14.5142857 13.5619048,14.8380952 C13.4666667,14.9142857 13.3714286,14.9714286 13.2761905,15.0285714 L13.2761905,18.7238095 C13.9809524,18.4761905 14.647619,18.152381 15.2761905,17.752381 C15.3142857,17.7714286 15.3333333,17.7904762 15.3714286,17.8285714 C15.7714286,18.2285714 16.1714286,18.6285714 16.5714286,19.0285714 C16.5904762,19.047619 16.5904762,19.047619 16.6095238,19.0666667 C17.5238095,18.4 18.3428571,17.6 19.0095238,16.6857143 C18.9714286,16.647619 18.9333333,16.6095238 18.8952381,16.5714286 C18.5333333,16.2095238 18.152381,15.8285714 17.7904762,15.4666667 C17.752381,15.4285714 17.7333333,15.4095238 17.7142857,15.3714286 C18.3428571,14.4380952 18.7809524,13.3904762 19.0095238,12.247619 C19.0285714,12.247619 19.047619,12.247619 19.0666667,12.247619 C19.6380952,12.247619 20.2095238,12.247619 20.8,12.247619 C20.8190476,12.247619 20.8380952,12.247619 20.8761905,12.247619 C20.9714286,11.6952381 21.0095238,11.1238095 21.0095238,10.552381 C20.952381,9.96190476 20.9142857,9.39047619 20.8190476,8.81904762 Z" id="Path" fill="#80AAFE"></path>
                            <path d="M14.3809524,10.5904762 L14.3809524,10.5904762 C14.3809524,9.25714286 13.7142857,8.0952381 12.7047619,7.39047619 C12.6285714,7.33333333 12.552381,7.2952381 12.4761905,7.23809524 L12.4761905,7.44761905 L12.4761905,10.1333333 C12.4761905,10.647619 12.0571429,11.0666667 11.5428571,11.0666667 L9.40952381,11.0666667 C8.8952381,11.0666667 8.47619048,10.647619 8.47619048,10.1333333 L8.47619048,7.46666667 L8.47619048,7.23809524 C8.38095238,7.2952381 8.3047619,7.35238095 8.22857143,7.40952381 C7.23809524,8.11428571 6.59047619,9.27619048 6.57142857,10.5904762 L6.57142857,10.5904762 C6.57142857,10.6285714 6.57142857,10.6666667 6.57142857,10.7238095 C6.60952381,12 7.25714286,13.1238095 8.22857143,13.8095238 C8.4,13.9238095 8.57142857,14.0190476 8.74285714,14.1142857 C8.74285714,14.1142857 8.74285714,14.1142857 8.74285714,14.1142857 L8.74285714,22.1714286 C8.72380952,23.1047619 9.42857143,23.8666667 10.3619048,23.9619048 C10.4,23.9619048 10.4380952,23.9619048 10.4571429,23.9619048 C11.4095238,23.9619048 12.1904762,23.2 12.1904762,22.247619 L12.1904762,14.1142857 C12.3619048,14.0380952 12.5142857,13.9428571 12.6666667,13.8285714 C13.6761905,13.1428571 14.3428571,11.9809524 14.3619048,10.6857143 C14.3809524,10.647619 14.3809524,10.6285714 14.3809524,10.5904762 Z" id="Path" fill="#0052FF"></path>
                        </g>
                    </g>
                </g>
            </g>
        </g>
    </g>
</svg>