<?xml version="1.0" encoding="UTF-8"?>
<svg width="60px" height="60px" viewBox="0 0 60 60" version="1.1" xmlns="http://www.w3.org/2000/svg" xmlns:xlink="http://www.w3.org/1999/xlink">
    <!-- Generator: sketchtool 63 (101010) - https://sketch.com -->
    <title>F7D0E265-AEBE-439C-91D2-91415A58F0AE</title>
    <desc>Created with sketchtool.</desc>
    <g id="One-Rule-Multiple-Conditions" stroke="none" stroke-width="1" fill="none" fill-rule="evenodd">
        <g id="Administrator_Customization" transform="translate(-348.000000, -544.000000)" fill-rule="nonzero">
            <g id="4.-Sharing-rules" transform="translate(238.000000, 514.000000)">
                <g id="ic_sharing-setting" transform="translate(110.000000, 30.000000)">
                    <path d="M50.5293049,27.2887934 L50.5293049,21.012103 L44.7761911,19.6553216 C44.3541481,18.185675 43.7682106,16.7712604 43.0273838,15.4348906 L46.1359743,10.4063941 L40.1229108,4.39333057 L35.0938141,7.50192111 C33.7574443,6.76109434 32.3430296,6.17515684 30.8733831,5.75371414 L29.5166015,0 L21.0121029,0 L19.6553214,5.75371414 C18.1850745,6.17515684 16.7712602,6.76109434 15.4348905,7.50192111 L10.4069943,4.39333057 L4.39273008,10.4063941 L7.50192098,15.4348906 C6.76169459,16.7700596 6.17515672,18.1844743 5.75311365,19.6553216 L0,21.012103 L0,29.5178024 L5.75311377,30.8733832 C6.17515684,32.3442305 6.76109434,33.7586452 7.50192111,35.095015 L4.39333057,40.1223107 L10.4063941,46.136575 L15.4354908,43.0267837 C16.7724609,43.7688111 18.1862753,44.3547486 19.6553214,44.7761914 L21.0121029,50.5299055 L27.2893186,50.5299055 C30.2418193,55.595473 35.7197496,59.0163934 41.9935884,59.0163934 C51.3799949,59.0163934 59.0163934,51.3799949 59.0163934,41.992988 C59.0163934,35.7192242 55.5951728,30.2410688 50.5293049,27.2887934 Z M22.9584241,48.0708889 L21.7073035,42.7650327 L20.9778834,42.5849289 C19.2404827,42.156282 17.5829278,41.4694864 16.0508454,40.5425525 L15.4072746,40.1535284 L10.769003,43.0219806 L7.50792455,39.7597016 L10.3763768,35.1226306 L9.98735262,34.4790599 C9.06101902,32.9481781 8.37422348,31.290023 7.94437586,29.5502208 L7.76427209,28.8214011 L2.45901639,27.5702805 L2.45901639,22.9596247 L7.76427221,21.7073034 L7.94437598,20.9784836 C8.37482398,19.2374808 9.06161951,17.5793257 9.98675238,16.0508453 L10.3763768,15.4072746 L7.50852492,10.769003 L10.7696034,7.50792455 L15.4072747,10.3751761 L16.0508454,9.98615201 C17.5811268,9.06161951 19.2386816,8.37482385 20.9778834,7.94497623 L21.7073035,7.76487246 L22.9584241,2.45901639 L27.5702806,2.45901639 L28.8214012,7.76487258 L29.5514217,7.94497635 C31.2894227,8.37362324 32.9475778,9.06041889 34.4784596,9.98615213 L35.1220303,10.3751763 L39.7603019,7.50792467 L43.0213804,10.7690031 L40.152928,15.4072746 L40.5425524,16.0508453 C41.4682857,17.5817271 42.1550812,19.2398822 42.5843284,20.9772829 L42.7644322,21.7073034 L48.0702884,22.9596247 L48.0702884,26.1114402 C46.1798745,25.385472 44.1363724,24.9707832 41.9935882,24.9707832 C40.5310708,24.9707832 39.1189075,25.1758012 37.7636267,25.524302 C37.7654277,25.437702 37.7749582,25.3516275 37.7749582,25.2649526 C37.7749582,18.3669793 32.1629257,12.7549468 25.2643521,12.7549468 C18.3663788,12.7549468 12.7543463,18.3669793 12.7543463,25.2649526 C12.7543463,32.1629259 18.3663788,37.7749584 25.2643521,37.7749584 C25.351027,37.7749584 25.4374018,37.7660282 25.5240767,37.7642272 C25.1757261,39.1191326 24.970783,40.5309208 24.970783,41.992988 C24.970783,44.1362975 25.385697,46.1801748 26.1118153,48.0708889 L22.9584241,48.0708889 L22.9584241,48.0708889 Z M26.3711648,35.2481029 C26.0043536,35.288176 25.6351409,35.315942 25.2643523,35.315942 C19.7219599,35.315942 15.213363,30.807345 15.213363,25.2649526 C15.213363,19.7225602 19.7219599,15.2139632 25.2643523,15.2139632 C30.8067448,15.2139632 35.3159421,19.7225602 35.3159421,25.2649526 C35.3159421,25.6358161 35.2884762,26.0045786 35.2481781,26.3712398 C31.2791418,28.0917558 28.0916058,31.2791418 26.3711648,35.2481029 Z" id="Shape" fill="#80AAFE"></path>
                    <path d="M41.9935884,59.6985063 C32.2313976,59.6985063 24.2886703,51.7565088 24.2886703,41.9928585 C24.2886703,32.2306678 32.2313976,24.2886703 41.9935884,24.2886703 C51.7557791,24.2886703 59.6985064,32.2306678 59.6985064,41.9928585 C59.6985064,51.7565088 51.7557791,59.6985063 41.9935884,59.6985063 Z" id="Path" fill="#0052FF"></path>
                    <path d="M46.0555208,39.6593904 C47.7786429,39.6593904 49.1803279,38.2645775 49.1803279,36.5510067 C49.1803279,34.8374359 47.7786429,33.442623 46.0555208,33.442623 C44.3323986,33.442623 42.9307137,34.8374359 42.9307137,36.5510067 C42.9307137,36.6615078 42.9521097,36.7662548 42.9634918,36.8738479 L36.9204359,39.6938523 C36.347845,39.0569554 35.5247841,38.6476807 34.6002169,38.6476807 C32.8770948,38.6476807 31.4754098,40.0424937 31.4754098,41.7560645 C31.4754098,43.4706252 32.8770948,44.8654381 34.6002169,44.8654381 C35.4477213,44.8654381 36.2151774,44.5253968 36.7786254,43.9784598 L42.9879354,47.4762576 C42.9539755,47.6593949 42.9307137,47.8464299 42.9307137,48.0391572 C42.9307137,49.752728 44.3323986,51.147541 46.0555208,51.147541 C47.7786429,51.147541 49.1803279,49.752728 49.1803279,48.0391572 C49.1803279,46.3255865 47.7786429,44.9307735 46.0555208,44.9307735 C45.2652382,44.9307735 44.5508366,45.2336306 44.0000148,45.7166551 L37.684098,42.1588427 C37.7016999,42.0255733 37.725024,41.8939743 37.725024,41.7560645 C37.725024,41.691224 37.7097856,41.6305907 37.7058049,41.5667401 L43.8188953,38.7140061 C44.3870082,39.2951576 45.1781616,39.6593904 46.0555208,39.6593904 Z M34.600217,42.8380593 C34.0011298,42.8380593 33.5135006,42.352993 33.5135006,41.7560646 C33.5135006,41.1601261 34.0011297,40.6750597 34.600217,40.6750597 C35.1993043,40.6750597 35.6869334,41.160126 35.6869334,41.7560646 C35.6869334,42.352993 35.1993042,42.8380593 34.600217,42.8380593 Z M46.0555208,46.9581525 C46.654608,46.9581525 47.1422372,47.4432187 47.1422372,48.0391573 C47.1422372,48.6350959 46.6546081,49.1201622 46.0555208,49.1201622 C45.4564335,49.1201622 44.9688044,48.6350959 44.9688044,48.0391573 C44.9688044,47.4432187 45.4564336,46.9581525 46.0555208,46.9581525 Z M46.0555208,35.470002 C46.654608,35.470002 47.1422372,35.9550682 47.1422372,36.5510068 C47.1422372,37.1469454 46.6546081,37.6320116 46.0555208,37.6320116 C45.4564335,37.6320116 44.9688044,37.1469454 44.9688044,36.5510068 C44.9688044,35.9550682 45.4564336,35.470002 46.0555208,35.470002 Z" id="Shape" fill="#FFFFFF"></path>
                </g>
            </g>
        </g>
    </g>
</svg>