<?xml version="1.0" encoding="UTF-8"?>
<svg width="51px" height="60px" viewBox="0 0 51 60" version="1.1" xmlns="http://www.w3.org/2000/svg" xmlns:xlink="http://www.w3.org/1999/xlink">
    <!-- Generator: sketchtool 63.1 (101010) - https://sketch.com -->
    <title>B7C1655A-E794-44FD-A9C5-5227A90EEFAA</title>
    <desc>Created with sketchtool.</desc>
    <g id="One-Rule-Multiple-Conditions" stroke="none" stroke-width="1" fill="none" fill-rule="evenodd">
        <g id="Administrator_Setup" transform="translate(-354.000000, -1204.000000)">
            <g id="10.-Trusted-IP-address" transform="translate(239.000000, 1174.000000)">
                <g id="ic_trusted-IP" transform="translate(115.000000, 30.000000)">
                    <g id="Group-2">
                        <path d="M25.4464141,0.000715900744 C24.9823122,0.0124344782 24.5347813,0.177067497 24.1722234,0.469451988 C24.1722234,0.469451988 22.232345,2.03641262 20.0092848,3.83020938 C15.93156,7.1200403 11.3098269,9.65732213 6.35425114,11.3216299 C3.727286,12.204568 1.45265124,12.9663953 1.45265124,12.9663953 C0.584706666,13.2583851 0,14.0777561 0,15.0003778 L0,24.2077474 C0,40.1589168 9.90945171,54.4189935 24.7736288,59.8702603 C25.0050754,59.9553876 25.2494383,59.9992879 25.4957999,60 L25.5042001,60 C25.7505621,59.9992859 25.994925,59.9553833 26.2263712,59.8702539 C41.0909733,54.4200585 51,40.1597675 51,24.207741 L51,15.0003714 C51,14.0777497 50.4152933,13.2583786 49.5473488,12.9663889 C49.5473488,12.9663889 47.2725015,12.2045615 44.6457489,11.3216234 C39.6901731,9.65735856 35.06844,7.12003387 30.9907152,3.83020295 C28.7677187,2.0364919 26.8277766,0.469445559 26.8277766,0.469445559 C26.4363143,0.153733084 25.9467809,-0.012291068 25.4456767,0.000709472363 L25.4464141,0.000715900744 Z" id="Shape" fill="#0052FF"></path>
                        <path d="M28.3392017,6.17821714 C32.8083575,9.78389583 38.8740099,12.5611705 44.3058054,14.3853307 C46.1511836,15.0056051 46.9219329,15.2658688 47.7506955,15.5446248 L47.7506955,25.2076831 C47.7506955,39.0869854 38.2582158,52.394763 25.5003708,57.4410417 C12.7425259,52.3945487 3.25004611,39.0867711 3.25004611,25.2076831 L3.25004611,15.5446248 C4.07872377,15.2658903 4.8495368,15.0056051 6.69493625,14.3853307 C12.1265192,12.5611277 18.1923842,9.78389583 22.6615399,6.17821714 C24.1756256,4.95652483 24.7720159,4.4764748 25.5003708,3.88885653 C26.2288107,4.47638909 26.8251798,4.95643912 28.3392017,6.17821714 Z" id="Path" fill="#C5D7FC"></path>
                        <path d="M25.372093,19 C29.9959921,19 33.744186,22.7541274 33.744186,27.3853461 C33.744186,28.8326939 33.3746561,30.1921118 32.7288971,31.3789812 C32.7112655,31.5217293 32.6653497,31.6633736 32.5889459,31.7961882 L26.7749108,40.0781523 C26.5254965,40.5108114 26.0296065,40.7061703 25.5675104,40.5991092 C25.1079857,40.7021233 24.6161362,40.5063965 24.3681912,40.0763128 L18.2107063,31.7980277 C18.1669945,31.7222388 18.1361392,31.6435066 18.1118956,31.5633028 C17.4047932,30.3333883 17,28.9066433 17,27.3853461 C17,22.7541274 20.7485613,19 25.372093,19 Z M25.372093,23.3880319 C23.1732799,23.3880319 21.3902797,25.1738545 21.3902797,27.3765163 C21.3902797,29.5791781 23.1729126,31.3646328 25.372093,31.3646328 C27.5712735,31.3646328 29.3542736,29.5791781 29.3542736,27.3765163 C29.3542736,25.1734866 27.5712735,23.3880319 25.372093,23.3880319 Z" id="Combined-Shape" fill="#0052FF" fill-rule="nonzero"></path>
                        <path d="M25.3930306,21.6537163 C28.5645228,21.6537163 31.1354372,24.2290683 31.1361718,27.405581 C31.1361718,28.5299061 30.8088844,29.5751311 30.2523856,30.4614201 L30.2523856,30.4614201 L30.2523856,30.5199173 L25.541063,37.2312846 L20.6005289,30.5890839 L20.6005289,30.5710565 C20.001053,29.662693 19.6502567,28.5758945 19.6502567,27.405581 C19.6502567,24.2287003 22.221171,21.6537163 25.3930306,21.6537163 Z M25.1499093,24.6537163 C23.7690892,24.6537163 22.6502567,25.7732437 22.6502567,27.1540637 C22.6502567,28.5348837 23.7697842,29.6537163 25.1499093,29.6537163 C26.5307293,29.6537163 27.6502567,28.5348837 27.6502567,27.1540637 C27.6502567,25.7732437 26.5307293,24.6537163 25.1499093,24.6537163 Z" id="Combined-Shape" fill="#FFFFFF" fill-rule="nonzero"></path>
                    </g>
                </g>
            </g>
        </g>
    </g>
</svg>