<?xml version="1.0" encoding="UTF-8"?>
<svg width="60px" height="45px" viewBox="0 0 60 45" version="1.1" xmlns="http://www.w3.org/2000/svg" xmlns:xlink="http://www.w3.org/1999/xlink">
    <!-- Generator: sketchtool 63.1 (101010) - https://sketch.com -->
    <title>2E5D6589-E74A-42C4-8896-B16E6EB5B7D7</title>
    <desc>Created with sketchtool.</desc>
    <g id="Templates" stroke="none" stroke-width="1" fill="none" fill-rule="evenodd">
        <g id="Administrator_Customization_Template" transform="translate(-345.000000, -879.000000)" fill-rule="nonzero">
            <g id="7.-Templates" transform="translate(238.000000, 844.000000)">
                <g id="ic_template" transform="translate(107.000000, 35.000000)">
                    <g id="ic_CFS" transform="translate(0.000000, 15.000000)">
                        <path d="M26.25,0 L3.75,0 C1.67961782,0.00165432135 0.00165432135,1.67961782 0,3.75 L0,26.25 C0.00165432135,28.3203822 1.67961782,29.9983457 3.75,30 L26.25,30 C28.3203822,29.9983457 29.9983457,28.3203822 30,26.25 L30,3.75 C29.9983457,1.67961782 28.3203822,0.00165432135 26.25,0 Z" id="Shape" fill="#C5D7FC"></path>
                        <g id="Group-6" opacity="0.5" transform="translate(5.250000, 6.500000)" fill="#0052FF">
                            <path d="M3.95220588,-5.32907052e-15 L0.992647059,-5.32907052e-15 C0.441176471,-5.32907052e-15 7.9269924e-14,0.441176471 7.9269924e-14,0.992647059 L7.9269924e-14,3.95220588 C7.9269924e-14,4.50367647 0.441176471,4.94485294 0.992647059,4.94485294 L3.95220588,4.94485294 C4.50367647,4.94485294 4.94485294,4.50367647 4.94485294,3.95220588 L4.94485294,0.992647059 C4.94485294,0.441176471 4.50367647,-5.32907052e-15 3.95220588,-5.32907052e-15 Z M3.63970588,2.13235294 L2.42647059,3.34558824 C2.35294118,3.41911765 2.26102941,3.45588235 2.16911765,3.45588235 C2.07720588,3.45588235 1.98529412,3.41911765 1.91176471,3.34558824 L1.30514706,2.73897059 C1.15808824,2.59191176 1.15808824,2.35294118 1.30514706,2.20588235 C1.45220588,2.05882353 1.69117647,2.05882353 1.83823529,2.20588235 L2.1875,2.55514706 L3.125,1.61764706 C3.27205882,1.47058824 3.51102941,1.47058824 3.65808824,1.61764706 C3.78676471,1.74632353 3.78676471,1.98529412 3.63970588,2.13235294 Z" id="Shape"></path>
                            <path d="M3.95220588,6.26838235 L0.992647059,6.26838235 C0.441176471,6.26838235 7.9269924e-14,6.70955882 7.9269924e-14,7.26102941 L7.9269924e-14,10.2205882 C7.9269924e-14,10.7720588 0.441176471,11.2132353 0.992647059,11.2132353 L3.95220588,11.2132353 C4.50367647,11.2132353 4.94485294,10.7720588 4.94485294,10.2205882 L4.94485294,7.24264706 C4.94485294,6.70955882 4.50367647,6.26838235 3.95220588,6.26838235 Z" id="Shape"></path>
                            <path d="M3.95220588,12.5183824 L0.992647059,12.5183824 C0.441176471,12.5183824 7.9269924e-14,12.9595588 7.9269924e-14,13.5110294 L7.9269924e-14,16.4705882 C7.9269924e-14,17.0220588 0.441176471,17.4632353 0.992647059,17.4632353 L3.95220588,17.4632353 C4.50367647,17.4632353 4.94485294,17.0220588 4.94485294,16.4705882 L4.94485294,13.5110294 C4.94485294,12.9595588 4.50367647,12.5183824 3.95220588,12.5183824 Z M3.63970588,14.6507353 L2.42647059,15.8639706 C2.35294118,15.9375 2.26102941,15.9742647 2.16911765,15.9742647 C2.07720588,15.9742647 1.98529412,15.9375 1.91176471,15.8639706 L1.30514706,15.2573529 C1.15808824,15.1102941 1.15808824,14.8713235 1.30514706,14.7242647 C1.45220588,14.5772059 1.69117647,14.5772059 1.83823529,14.7242647 L2.1875,15.0735294 L3.125,14.1360294 C3.27205882,13.9889706 3.51102941,13.9889706 3.65808824,14.1360294 C3.78676471,14.2647059 3.78676471,14.5036765 3.63970588,14.6507353 Z" id="Shape"></path>
                            <path d="M6.63602941,1.93014706 L14.2095588,1.93014706 C14.5036765,1.93014706 14.7426471,1.69117647 14.7426471,1.39705882 C14.7426471,1.10294118 14.5036765,0.863970588 14.2095588,0.863970588 L6.63602941,0.863970588 C6.34191176,0.863970588 6.10294118,1.10294118 6.10294118,1.39705882 C6.10294118,1.69117647 6.34191176,1.93014706 6.63602941,1.93014706 Z" id="Path"></path>
                            <path d="M6.63602941,4.08088235 L11.4154412,4.08088235 C11.7095588,4.08088235 11.9485294,3.84191176 11.9485294,3.54779412 C11.9485294,3.25367647 11.7095588,3.01470588 11.4154412,3.01470588 L6.63602941,3.01470588 C6.34191176,3.01470588 6.10294118,3.25367647 6.10294118,3.54779412 C6.10294118,3.84191176 6.34191176,4.08088235 6.63602941,4.08088235 Z" id="Path"></path>
                            <path d="M14.2095588,7.13235294 L6.63602941,7.13235294 C6.34191176,7.13235294 6.10294118,7.37132353 6.10294118,7.66544118 C6.10294118,7.95955882 6.34191176,8.19852941 6.63602941,8.19852941 L14.2095588,8.19852941 C14.5036765,8.19852941 14.7426471,7.95955882 14.7426471,7.66544118 C14.7426471,7.37132353 14.5036765,7.13235294 14.2095588,7.13235294 Z" id="Path"></path>
                            <path d="M6.63602941,10.3308824 L11.4154412,10.3308824 C11.7095588,10.3308824 11.9485294,10.0919118 11.9485294,9.79779412 C11.9485294,9.50367647 11.7095588,9.26470588 11.4154412,9.26470588 L6.63602941,9.26470588 C6.34191176,9.26470588 6.10294118,9.50367647 6.10294118,9.79779412 C6.10294118,10.0919118 6.34191176,10.3308824 6.63602941,10.3308824 Z" id="Path"></path>
                            <path d="M14.2095588,13.3823529 L6.63602941,13.3823529 C6.34191176,13.3823529 6.10294118,13.6213235 6.10294118,13.9154412 C6.10294118,14.2095588 6.34191176,14.4485294 6.63602941,14.4485294 L14.2095588,14.4485294 C14.5036765,14.4485294 14.7426471,14.2095588 14.7426471,13.9154412 C14.7426471,13.6213235 14.5036765,13.3823529 14.2095588,13.3823529 Z" id="Path"></path>
                            <path d="M11.4154412,15.5330882 L6.63602941,15.5330882 C6.34191176,15.5330882 6.10294118,15.7720588 6.10294118,16.0661765 C6.10294118,16.3602941 6.34191176,16.5992647 6.63602941,16.5992647 L11.4154412,16.5992647 C11.7095588,16.5992647 11.9485294,16.3602941 11.9485294,16.0661765 C11.9485294,15.7720588 11.7095588,15.5330882 11.4154412,15.5330882 Z" id="Path"></path>
                        </g>
                    </g>
                    <g id="ic_CFS-Copy" transform="translate(15.000000, 0.000000)">
                        <path d="M5.62493267,0.999999998 C4.3488427,1.00102002 3.19290303,1.51899169 2.35594736,2.35594736 C1.51899169,3.19290303 1.00102002,4.3488427 0.999999681,5.62579904 L1,39.375 C1.00102002,40.6511573 1.51899169,41.807097 2.35594736,42.6440526 C3.19290303,43.4810083 4.3488427,43.99898 5.62579904,44.0000003 L39.375,44 C40.6511573,43.99898 41.807097,43.4810083 42.6440526,42.6440526 C43.4810083,41.807097 43.99898,40.6511573 44.0000003,39.374201 L44,5.625 C43.9997237,5.27962373 43.9723013,4.93652039 43.7662546,4.61564085 C43.5817935,4.3283768 43.2694623,4.07045758 42.7975786,3.81538025 C41.6924935,3.21802513 39.8538687,2.71152875 36.8412056,2.2811483 C31.2274612,1.47918483 21.7119586,1.00108314 5.62493267,0.999999998 Z" id="Path" stroke="#0155FF" stroke-width="2" fill="#C5D7FC"></path>
                        <g id="Group-6" transform="translate(5.250000, 5.750000)" fill="#0052FF">
                            <path d="M32.6783088,0 L2.23897059,0 C1.41176471,0 0.75,0.661764706 0.75,1.48897059 L0.75,9.92830882 C0.75,10.7555147 1.41176471,11.4172794 2.23897059,11.4172794 L32.6783088,11.4172794 C33.5055147,11.4172794 34.1672794,10.7555147 34.1672794,9.92830882 L34.1672794,1.48897059 C34.1672794,0.661764706 33.5055147,0 32.6783088,0 Z" id="Path"></path>
                            <path d="M6.67830882,22.7775735 L2.23897059,22.7775735 C1.41176471,22.7775735 0.75,23.4393382 0.75,24.2665441 L0.75,28.7058824 C0.75,29.5330882 1.41176471,30.1948529 2.23897059,30.1948529 L6.67830882,30.1948529 C7.50551471,30.1948529 8.16727941,29.5330882 8.16727941,28.7058824 L8.16727941,24.2665441 C8.16727941,23.4393382 7.50551471,22.7775735 6.67830882,22.7775735 Z M6.20955882,25.9761029 L4.38970588,27.7959559 C4.27941176,27.90625 4.14154412,27.9613971 4.00367647,27.9613971 C3.86580882,27.9613971 3.72794118,27.90625 3.61764706,27.7959559 L2.70772059,26.8860294 C2.48713235,26.6654412 2.48713235,26.3069853 2.70772059,26.0863971 C2.92830882,25.8658088 3.28676471,25.8658088 3.50735294,26.0863971 L4.03125,26.6102941 L5.4375,25.2040441 C5.65808824,24.9834559 6.01654412,24.9834559 6.23713235,25.2040441 C6.43014706,25.3970588 6.43014706,25.7555147 6.20955882,25.9761029 Z" id="Shape"></path>
                            <path d="M25.6783088,22.7775735 L21.2389706,22.7775735 C20.4117647,22.7775735 19.75,23.4393382 19.75,24.2665441 L19.75,28.7058824 C19.75,29.5330882 20.4117647,30.1948529 21.2389706,30.1948529 L25.6783088,30.1948529 C26.5055147,30.1948529 27.1672794,29.5330882 27.1672794,28.7058824 L27.1672794,24.2665441 C27.1672794,23.4393382 26.5055147,22.7775735 25.6783088,22.7775735 Z M25.2095588,25.9761029 L23.3897059,27.7959559 C23.2794118,27.90625 23.1415441,27.9613971 23.0036765,27.9613971 C22.8658088,27.9613971 22.7279412,27.90625 22.6176471,27.7959559 L21.7077206,26.8860294 C21.4871324,26.6654412 21.4871324,26.3069853 21.7077206,26.0863971 C21.9283088,25.8658088 22.2867647,25.8658088 22.5073529,26.0863971 L23.03125,26.6102941 L24.4375,25.2040441 C24.6580882,24.9834559 25.0165441,24.9834559 25.2371324,25.2040441 C25.4301471,25.3970588 25.4301471,25.7555147 25.2095588,25.9761029 Z" id="Shape-Copy"></path>
                            <path d="M28.9099265,14.6985294 L1.54963235,14.6985294 C1.10845588,14.6985294 0.75,15.0569853 0.75,15.4981618 C0.75,15.9393382 1.10845588,16.2977941 1.54963235,16.2977941 L28.9099265,16.2977941 C29.3511029,16.2977941 29.7095588,15.9393382 29.7095588,15.4981618 C29.7095588,15.0569853 29.3511029,14.6985294 28.9099265,14.6985294 Z" id="Path"></path>
                            <path d="M1.36556604,19.4963235 L22.884434,19.4963235 C23.2240566,19.4963235 23.5,19.1378676 23.5,18.6966912 C23.5,18.2555147 23.2240566,17.8970588 22.884434,17.8970588 L1.36556604,17.8970588 C1.0259434,17.8970588 0.75,18.2555147 0.75,18.6966912 C0.75,19.1378676 1.0259434,19.4963235 1.36556604,19.4963235 Z" id="Path"></path>
                            <path d="M14.1267522,24.0735294 L10.1820713,24.0735294 C10.0288798,24.0735294 9.90441176,24.4319853 9.90441176,24.8731618 C9.90441176,25.3143382 10.0288798,25.6727941 10.1820713,25.6727941 L14.1267522,25.6727941 C14.2799437,25.6727941 14.4044118,25.3143382 14.4044118,24.8731618 C14.4044118,24.4319853 14.2799437,24.0735294 14.1267522,24.0735294 Z" id="Path"></path>
                            <path d="M33.1267522,24.0735294 L29.1820713,24.0735294 C29.0288798,24.0735294 28.9044118,24.4319853 28.9044118,24.8731618 C28.9044118,25.3143382 29.0288798,25.6727941 29.1820713,25.6727941 L33.1267522,25.6727941 C33.2799437,25.6727941 33.4044118,25.3143382 33.4044118,24.8731618 C33.4044118,24.4319853 33.2799437,24.0735294 33.1267522,24.0735294 Z" id="Path-Copy"></path>
                            <path d="M12.6308269,27.1727941 L10.1779967,27.1727941 C10.0270533,27.1727941 9.90441176,27.53125 9.90441176,27.9724265 C9.90441176,28.4136029 10.0270533,28.7720588 10.1779967,28.7720588 L12.6308269,28.7720588 C12.7817703,28.7720588 12.9044118,28.4136029 12.9044118,27.9724265 C12.9044118,27.53125 12.7817703,27.1727941 12.6308269,27.1727941 Z" id="Path"></path>
                            <path d="M31.6308269,27.1727941 L29.1779967,27.1727941 C29.0270533,27.1727941 28.9044118,27.53125 28.9044118,27.9724265 C28.9044118,28.4136029 29.0270533,28.7720588 29.1779967,28.7720588 L31.6308269,28.7720588 C31.7817703,28.7720588 31.9044118,28.4136029 31.9044118,27.9724265 C31.9044118,27.53125 31.7817703,27.1727941 31.6308269,27.1727941 Z" id="Path-Copy-2"></path>
                        </g>
                    </g>
                </g>
            </g>
        </g>
    </g>
</svg>