<?xml version="1.0" encoding="UTF-8"?>
<svg width="59px" height="62px" viewBox="0 0 59 62" version="1.1" xmlns="http://www.w3.org/2000/svg" xmlns:xlink="http://www.w3.org/1999/xlink">
    <!-- Generator: sketchtool 63.1 (101010) - https://sketch.com -->
    <title>A101B6B9-84D8-48EB-B2FF-407FA92E278A</title>
    <desc>Created with sketchtool.</desc>
    <g id="One-Rule-Multiple-Conditions" stroke="none" stroke-width="1" fill="none" fill-rule="evenodd">
        <g id="Administrator_Setup" transform="translate(-651.000000, -873.000000)">
            <g id="8.-Telephone-setup" transform="translate(539.000000, 844.000000)">
                <g id="ic_telephony" transform="translate(113.000000, 30.000000)">
                    <g id="setting" transform="translate(27.000000, 2.000000)">
                        <path d="M15.0012544,30 C6.72957377,30 0,23.2716376 0,15.0004181 C0,6.72919861 6.72957377,-2.84217094e-14 15.0012544,-2.84217094e-14 C23.2729351,-2.84217094e-14 30,6.73003484 30,15.0012544 C30,23.2724739 23.2729351,30 15.0012544,30 Z" id="Path" stroke="#0052FF" stroke-width="2" fill="#FFFFFF"></path>
                        <g id="Group-7" transform="translate(6.000000, 6.000000)" fill="#0052FF" fill-rule="nonzero">
                            <path d="M7.47922438,0.127952479 C8.54989893,-0.047217437 9.56869057,-0.0384589412 10.5174066,0.12929994 C10.8388111,0.186567028 11.0739687,0.466165162 11.0739687,0.792924428 L11.0739687,0.792924428 L11.0739687,1.72738856 C11.6325522,1.88571521 12.1655312,2.1066988 12.6688628,2.38764439 L12.6688628,2.38764439 L13.3238003,1.72940975 C13.5542412,1.49697274 13.9180954,1.46530741 14.1862694,1.65125702 C15.0244815,2.23470758 15.7515161,2.95896781 16.3471588,3.80517325 C16.5358239,4.07264424 16.5041551,4.43713241 16.2723665,4.66889568 L16.2723665,4.66889568 L15.6120386,5.32915152 C15.8936887,5.83310189 16.1153702,6.36737013 16.2737142,6.92521894 L16.2737142,6.92521894 L17.2089541,6.92521894 C17.5364228,6.92521894 17.8160515,7.16035087 17.872651,7.48306775 C17.9582242,7.97556471 18,8.47075658 18,8.99896125 C18,9.49078448 17.9575503,10.0014722 17.8753463,10.5209183 C17.8221157,10.8476776 17.5404657,11.0868519 17.2103017,11.0868519 L17.2103017,11.0868519 L16.2716927,11.0868519 C16.1153702,11.6393109 15.8970577,12.168863 15.6181029,12.6701184 L15.6181029,12.6701184 L16.2737142,13.3256582 C16.5048289,13.5574214 16.5364977,13.9219096 16.3478326,14.1900543 C15.7562327,15.0295225 15.0305458,15.7551302 14.190986,16.3466655 C13.9241596,16.5373312 13.5589578,16.5043184 13.3264955,16.2725551 L13.3264955,16.2725551 L12.6702104,15.6163417 C12.1655312,15.8952661 11.6318784,16.1155759 11.0753163,16.2739026 L11.0753163,16.2739026 L11.0753163,17.2083667 C11.0753163,17.535126 10.8408325,17.8147241 10.5187542,17.8713175 C10.0268773,17.957555 9.53095755,18 9.00134761,18 C8.50812308,18 7.99670585,17.957555 7.48057198,17.8733387 C7.15445085,17.820114 6.91525043,17.5384946 6.91525043,17.2083667 L6.91525043,17.2083667 L6.91525043,16.2705339 C6.36407876,16.1142285 5.8317736,15.8939186 5.3257468,15.6116256 L5.3257468,15.6116256 L4.67013551,16.2664916 C4.43902074,16.4975811 4.07381897,16.5299202 3.80699259,16.3412756 C2.96878041,15.753109 2.24646253,15.0308699 1.65957925,14.1940967 C1.47158793,13.9266257 1.50325672,13.5628113 1.73504529,13.331048 L1.73504529,13.331048 L2.38930898,12.676182 C2.1063113,12.1695367 1.88597739,11.6379634 1.73032867,11.0868519 L1.73032867,11.0868519 L0.791719698,11.0868519 C0.461555739,11.0868519 0.179905667,10.8470039 0.126675152,10.5209183 C0.0424496519,10.0028196 6.92779167e-13,9.49145821 6.92779167e-13,9.00030871 C6.92779167e-13,8.47682016 0.0411020439,7.98028082 0.127348956,7.48508894 C0.183274687,7.16237206 0.463577151,6.9265664 0.791045894,6.9265664 L0.791045894,6.9265664 L1.72493823,6.9265664 C1.88395598,6.37073878 2.10361608,5.837818 2.38324474,5.33252017 L2.38324474,5.33252017 L1.72695965,4.67563298 C1.49584488,4.44386971 1.46417609,4.07938154 1.65284121,3.81123682 C2.24444112,2.97176869 2.97012802,2.246161 3.8096878,1.65462567 C4.0778618,1.46463368 4.44306356,1.49764647 4.67417833,1.72873602 L4.67417833,1.72873602 L5.32978962,2.38360201 C5.8317736,2.10467761 6.36138354,1.88571521 6.91390282,1.73075721 L6.91390282,1.73075721 L6.91390282,0.792924428 C6.91390282,0.46279651 7.15377705,0.181177184 7.47922438,0.127952479 Z M9,6 C7.34314575,6 6,7.34314575 6,9 C6,10.6568542 7.34314575,12 9,12 C10.6568542,12 12,10.6568542 12,9 C12,7.34314575 10.6568542,6 9,6 Z" id="Combined-Shape"></path>
                            <circle id="Oval-Copy" cx="9" cy="9" r="2"></circle>
                        </g>
                    </g>
                    <path d="M5.21804511,1.56390977 C7.66917293,-0.30075188 14.2481203,0.278195489 14.1353383,1.43609023 L17.9398496,17.2556391 C17.8045113,18.4210526 13.3609023,21.7669173 12.0601504,22.7518797 C9.72180451,24.5338346 25.9849624,46.2481203 28.3233083,44.5112782 C29.6165414,43.5263158 34.0827068,40.1879699 35.2105263,40.3909774 L49.3157895,48.4736842 C50.443609,48.6917293 49.1654135,55.1729323 46.6842105,57.0300752 C26.7293233,72.1428571 -14.5263158,16.3233083 5.21804511,1.56390977 Z" id="Path" stroke="#0052FF" stroke-width="2" fill="#C5D7FC"></path>
                </g>
            </g>
        </g>
    </g>
</svg>