<?xml version="1.0" encoding="UTF-8"?>
<svg width="50px" height="60px" viewBox="0 0 50 60" version="1.1" xmlns="http://www.w3.org/2000/svg" xmlns:xlink="http://www.w3.org/1999/xlink">
    <!-- Generator: sketchtool 63 (101010) - https://sketch.com -->
    <title>36938410-806E-44EA-9497-8FC81FD6B4A0</title>
    <desc>Created with sketchtool.</desc>
    <g id="One-Rule-Multiple-Conditions" stroke="none" stroke-width="1" fill="none" fill-rule="evenodd">
        <g id="Administrator_Customization" transform="translate(-653.000000, -544.000000)" fill-rule="nonzero">
            <g id="5.-Inventory" transform="translate(538.000000, 514.000000)">
                <g id="ic_terms-&amp;-condi." transform="translate(115.000000, 30.000000)">
                    <path d="M6.96966156,23.4326406 L31.6187318,23.4326406 C32.2234557,23.4326406 32.7142461,22.9450661 32.7142461,22.3426827 C32.7142461,21.741026 32.2234557,21.2527249 31.6187318,21.2527249 L6.96966156,21.2527249 C6.36420736,21.2527249 5.87414732,21.741026 5.87414732,22.3426827 C5.87414732,22.9450661 6.36420736,23.4326406 6.96966156,23.4326406 Z M6.96966156,17.2983578 L31.6187318,17.2983578 C32.2234557,17.2983578 32.7142461,16.8107833 32.7142461,16.2083999 C32.7142461,15.6067432 32.2234557,15.1184421 31.6187318,15.1184421 L6.96966156,15.1184421 C6.36420736,15.1184421 5.87414732,15.6067432 5.87414732,16.2083999 C5.87414732,16.8107833 6.36420736,17.2983578 6.96966156,17.2983578 Z M26.8722338,27.8411568 C26.8722338,27.2395001 26.3814434,26.751199 25.7767196,26.751199 L6.9703919,26.751199 C6.3649377,26.751199 5.87487767,27.2395001 5.87487767,27.8411568 C5.87487767,28.4435402 6.3649377,28.9311147 6.9703919,28.9311147 L25.7767196,28.9311147 C26.3814434,28.9311147 26.8722338,28.4435402 26.8722338,27.8411568 Z M17.7422182,32.2503997 L6.96966156,32.2503997 C6.36420736,32.2503997 5.87414732,32.7387008 5.87414732,33.3403575 C5.87414732,33.9420142 6.36420736,34.4303154 6.96966156,34.4303154 L17.7422182,34.4303154 C18.3476724,34.4303154 18.8377324,33.9420142 18.8377324,33.3403575 C18.8377324,32.7387008 18.3476724,32.2503997 17.7422182,32.2503997 Z M14.1248302,37.7496003 L6.96966156,37.7496003 C6.36420736,37.7496003 5.87414732,38.2379015 5.87414732,38.8395582 C5.87414732,39.4412149 6.36420736,39.9295161 6.96966156,39.9295161 L14.1248302,39.9295161 C14.7302844,39.9295161 15.2203444,39.4412149 15.2203444,38.8395582 C15.2203444,38.2379015 14.7302844,37.7496003 14.1248302,37.7496003 Z M38.5883934,30.0879233 L38.5883934,11.4147653 C38.5883934,11.1270164 38.4744599,10.8516204 38.2699639,10.6467083 L27.9845459,0.322627525 C27.7793196,0.116262171 27.4995983,0 27.2074612,0 L1.09551423,0 C0.490060034,0 0,0.488301119 0,1.08995785 L0,51.051446 C0,51.6531027 0.490060034,52.1414039 1.09551423,52.1414039 L21.3325835,52.1414039 C23.9435591,56.8216829 28.9580929,60 34.7095427,60 C43.1413505,60 50,53.1754106 50,44.7863683 C50,37.7336143 45.1446809,31.8020637 38.5883934,30.0879233 Z M20.3480814,49.9614882 L2.19102847,49.9614882 L2.19102847,2.17991571 L26.1112166,2.17991571 L26.1112166,11.4147653 C26.1112166,12.016422 26.602007,12.5047232 27.2067308,12.5047232 L36.3973649,12.5047232 L36.3973649,29.6708327 C35.8423044,29.6097951 35.2806707,29.5727365 34.7095427,29.5727365 C26.2777348,29.5727365 19.4176246,36.3980526 19.4176246,44.7870949 C19.418355,46.6058712 19.757234,48.3432641 20.3480814,49.9614882 Z" id="Shape" fill="#80AAFE"></path>
                    <path d="M34.7104319,59.7860049 C26.4387513,59.7860049 19.7091775,53.0576426 19.7091775,44.7864231 C19.7091775,36.5152035 26.4387513,29.7860049 34.7104319,29.7860049 C42.9821126,29.7860049 49.7091775,36.5160398 49.7091775,44.7872593 C49.7091775,53.0584788 42.9821126,59.7860049 34.7104319,59.7860049 Z" id="Path" fill="#0052FF"></path>
                    <path d="M40.7860123,48.423922 L35.9897655,43.6282965 L40.0924851,43.2522836 C40.44558,43.2201374 40.7231857,42.940076 40.7533814,42.5879292 C40.7845512,42.2357824 40.5585704,41.9118853 40.2166771,41.8198303 L29.921403,39.025548 C29.6681487,38.9568721 29.3993095,39.0289574 29.2137521,39.2140415 C29.0291686,39.3991256 28.9570886,39.6694457 29.0252724,39.9217445 L31.8198362,50.2172892 C31.9118844,50.5582336 32.2318614,50.7866663 32.5883655,50.754033 C32.9404864,50.723348 33.2200402,50.4447478 33.252184,50.0930881 L33.6286563,45.9900666 L38.4239289,50.7861792 C38.5607837,50.923044 38.7473152,51 38.9406651,51 C39.134502,51 39.3200595,50.923044 39.4574013,50.7861792 L40.7855252,49.4579575 C41.0714104,49.1720513 41.0714104,48.7093412 40.7860123,48.423922 Z" id="Path" fill="#FFFFFF"></path>
                </g>
            </g>
        </g>
    </g>
</svg>