<?xml version="1.0" encoding="UTF-8"?>
<svg width="64px" height="55px" viewBox="0 0 64 55" version="1.1" xmlns="http://www.w3.org/2000/svg" xmlns:xlink="http://www.w3.org/1999/xlink">
    <!-- Generator: sketchtool 63 (101010) - https://sketch.com -->
    <title>8BB240F9-7033-4882-A4C9-243123674862</title>
    <desc>Created with sketchtool.</desc>
    <g id="One-Rule-Multiple-Conditions" stroke="none" stroke-width="1" fill="none" fill-rule="evenodd">
        <g id="Administrator_Customization_workflow" transform="translate(-345.000000, -216.000000)">
            <g id="7.-Single-Rule" transform="translate(237.000000, 184.000000)">
                <g id="ic_workflow" transform="translate(108.000000, 32.000000)">
                    <path d="M59.7279221,4 L59.7279221,22 L41.7279221,22 L41.7279221,4 L59.7279221,4 Z M51.5461039,9.72727273 L49.9097402,9.72727273 L49.9091948,12.1812727 L47.4551948,12.1818182 L47.4551948,13.8181818 L49.9091948,13.8172727 L49.9097402,16.2727273 L51.5461039,16.2727273 L51.5451948,13.8172727 L54.0006493,13.8181818 L54.0006493,12.1818182 L51.5451948,12.1812727 L51.5461039,9.72727273 Z" id="Combined-Shape" fill="#80AAFE" transform="translate(50.727922, 13.000000) rotate(-315.000000) translate(-50.727922, -13.000000) "></path>
                    <path d="M32,42 L40,42 L40,44 L30,44 L30,29 L22,29 L22,27 L30,27 L30,11 L40,11 L40,13 L32,13 L32,42 Z" id="Combined-Shape" fill="#80AAFE"></path>
                    <path d="M59.7279221,33 L59.7279221,51 L41.7279221,51 L41.7279221,33 L59.7279221,33 Z M51.5461039,38.7272727 L49.9097402,38.7272727 L49.9091948,43.6362727 L47.4551948,43.6363636 L47.4551948,45.2727273 L51.5461039,45.2727273 L51.5461039,38.7272727 Z" id="Combined-Shape-Copy" fill="#80AAFE" transform="translate(50.727922, 42.000000) rotate(-315.000000) translate(-50.727922, -42.000000) "></path>
                    <path d="M11.2365932,17 L10.9694068,17 C4.91117072,17 -7.41919945e-16,21.9111707 0,27.9694068 C7.41919945e-16,34.0276429 4.91117072,38.9388136 10.9694068,38.9388136 L11.2365932,38.9388136 C17.2948293,38.9388136 22.206,34.0276429 22.206,27.9694068 C22.206,21.9111707 17.2948293,17 11.2365932,17 Z M9.438,31.8402616 L5.628,28.0765997 L7.218,26.5282578 L9.438,28.7197571 L15.036,23.1874124 L16.626,24.7357543 L9.438,31.8402616 Z" id="Shape-Copy" fill="#0052FF" fill-rule="nonzero"></path>
                </g>
            </g>
        </g>
    </g>
</svg>