<?xml version="1.0" encoding="UTF-8"?>
<svg width="55px" height="60px" viewBox="0 0 55 60" version="1.1" xmlns="http://www.w3.org/2000/svg" xmlns:xlink="http://www.w3.org/1999/xlink">
    <!-- Generator: sketchtool 63.1 (101010) - https://sketch.com -->
    <title>897010ED-FA4B-49DD-A3B3-38A6E20468BF</title>
    <desc>Created with sketchtool.</desc>
    <g id="One-Rule-Multiple-Conditions" stroke="none" stroke-width="1" fill="none" fill-rule="evenodd">
        <g id="Administrator_Setup" transform="translate(-951.000000, -215.000000)" fill-rule="nonzero">
            <g id="3.-web-2-lead" transform="translate(839.000000, 184.000000)">
                <g id="ic_web2lead" transform="translate(112.000000, 31.000000)">
                    <g id="Group-4">
                        <path d="M27.5,0 C12.3349205,0 0,12.3349196 0,27.500016 C0,42.665106 12.3349205,55 27.5,55 C42.6650734,55 55,42.665106 55,27.500016 C55,12.3349196 42.6650734,0 27.5,0 Z" id="Shape" fill="#0052FF"></path>
                        <path d="M9.61820161,32.8361021 L7.99273838,32.8361021 C8.18693445,33.5453273 8.41869869,34.2389324 8.68531405,34.9145853 L9.86522572,34.9145853 C9.76985246,34.2310644 9.68733931,33.537962 9.61820161,32.8361021 Z M22.1438955,32.8361021 L20.3623738,32.8361021 C20.440171,33.5398753 20.5332572,34.2336071 20.641347,34.9145853 L22.1438955,34.9145853 L22.1438955,32.8361021 Z M34.6376265,32.8361021 L32.8561048,32.8361021 L32.8561048,34.9145853 L34.3586532,34.9145853 C34.4667431,34.2336071 34.5598292,33.5398753 34.6376265,32.8361021 Z M47.0072619,32.8361021 L45.3817986,32.8361021 C45.3126609,33.537962 45.2301478,34.2310644 45.1347745,34.9145853 L46.3146862,34.9145853 C46.5813016,34.2389324 46.8130658,33.5453273 47.0072619,32.8361021 Z M9.86604809,20.0454119 L8.69999596,20.0454119 C8.43147717,20.7209873 8.19773254,21.4145956 8.00159525,22.123895 L9.61972142,22.123895 C9.68876411,21.4222678 9.77100138,20.7290422 9.86604809,20.0454119 Z M22.1438955,20.0454119 L20.6411149,20.0454119 C20.5331689,20.7263342 20.4402824,21.4201078 20.3626301,22.123895 L22.1438955,22.123895 L22.1438955,20.0454119 Z M34.3588854,20.0454119 L32.8561048,20.0454119 L32.8561048,22.123895 L34.6373701,22.123895 C34.5597179,21.4201078 34.4668314,20.7263342 34.3588854,20.0454119 Z M46.3000043,20.0454119 L45.1339522,20.0454119 C45.2289989,20.7290422 45.3112361,21.4222678 45.3802788,22.123895 L46.998405,22.123895 C46.8022677,21.4145956 46.5685231,20.7209873 46.3000043,20.0454119 Z" id="Combined-Shape" stroke="#C5D7FC" stroke-width="6.875"></path>
                    </g>
                    <path d="M34.5439848,40.0746302 L19.1267132,40.078314 C16.450471,40.1500991 14.041547,41.2693828 12.3023234,43.0403183 C10.567628,44.806643 9.5,47.2214054 9.5,49.8879426 L9.5,58.4985839 L44.499224,58.4655572 L44.4946276,49.5868501 C44.4060997,46.9534916 43.2646553,44.5731603 41.4716638,42.8526867 C39.6813769,41.1348081 37.2408916,40.0746302 34.5439848,40.0746302 Z M26.9728959,21.5 C25.1403841,21.5 23.4808383,22.236129 22.2797601,23.4278851 C21.0829285,24.6154275 20.3416548,26.2557202 20.3416548,28.0681309 C20.3416548,29.8805416 21.0829285,31.5208342 22.2797601,32.7083767 C23.4808383,33.9001328 25.1403841,34.6362618 26.9728959,34.6362618 C28.8054076,34.6362618 30.4649534,33.9001328 31.6660316,32.7083767 C32.8628632,31.5208342 33.6041369,29.8805416 33.6041369,28.0681309 C33.6041369,26.2557202 32.8628632,24.6154275 31.6660316,23.4278851 C30.4649534,22.236129 28.8054076,21.5 26.9728959,21.5 Z" id="Combined-Shape" stroke="#0155FF" stroke-width="3" fill="#FFFFFF"></path>
                </g>
            </g>
        </g>
    </g>
</svg>