<?xml version="1.0" encoding="UTF-8"?>
<svg width="64px" height="65px" viewBox="0 0 64 65" version="1.1" xmlns="http://www.w3.org/2000/svg" xmlns:xlink="http://www.w3.org/1999/xlink">
    <!-- Generator: sketchtool 64 (101010) - https://sketch.com -->
    <title>956717AF-9BD3-4ECC-A00E-E78979D00F54</title>
    <desc>Created with sketchtool.</desc>
    <g id="Templates" stroke="none" stroke-width="1" fill="none" fill-rule="evenodd">
        <g id="Administrator_Template_Delete" transform="translate(-513.000000, -165.000000)">
            <g id="Mailing-List_Popup" transform="translate(493.000000, 108.000000)">
                <g id="Alert-Illustration" transform="translate(20.000000, 57.000000)">
                    <path d="M25.4,45.2 L29.8,45.2 L29.8,27.6 L25.4,27.6 L25.4,45.2 Z M34.2,45.2 L38.6,45.2 L38.6,27.6 L34.2,27.6 L34.2,45.2 Z M21,49.6 L43,49.6 L43,23.2 L21,23.2 L21,49.6 Z M25.4,18.8 L38.6,18.8 L38.6,14.4 L25.4,14.4 L25.4,18.8 Z M43,18.8 L43,10 L21,10 L21,18.8 L10,18.8 L10,23.2 L16.6,23.2 L16.6,54 L47.4,54 L47.4,23.2 L54,23.2 L54,18.8 L43,18.8 Z" id="Fill-5" fill="#FF2355"></path>
                    <g id="Colored-Dots">
                        <ellipse id="Oval" fill="#99DCFF" cx="3.90697674" cy="45.9051724" rx="3.90697674" ry="3.90517241"></ellipse>
                        <ellipse id="Oval-Copy-3" fill="#FFD099" cx="25.9069767" cy="3.90517241" rx="3.90697674" ry="3.90517241"></ellipse>
                        <ellipse id="Oval-Copy-4" fill="#D7FF99" cx="54.9534884" cy="17.9525862" rx="1.95348837" ry="1.95258621"></ellipse>
                        <ellipse id="Oval-Copy-7" fill="#C6FFA4" cx="6.95348837" cy="23.9525862" rx="1.95348837" ry="1.95258621"></ellipse>
                        <ellipse id="Oval-Copy-5" fill="#FFD2F0" cx="39.255814" cy="61.2543103" rx="3.25581395" ry="3.25431034"></ellipse>
                        <ellipse id="Oval-Copy-6" fill="#A299FF" cx="60.255814" cy="35.2543103" rx="3.25581395" ry="3.25431034"></ellipse>
                    </g>
                </g>
            </g>
        </g>
    </g>
</svg>