<?xml version="1.0" encoding="UTF-8"?>
<svg width="264px" height="25px" viewBox="0 0 264 25" version="1.1" xmlns="http://www.w3.org/2000/svg" xmlns:xlink="http://www.w3.org/1999/xlink">
    <!-- Generator: Sketch 61 (89581) - https://sketch.com -->
    <title>SS_COnnect</title>
    <desc>Created with Sketch.</desc>
    <defs>
        <polygon id="path-1" points="0.076545 0.346871604 18.9884276 0.346871604 18.9884276 19.95 0.076545 19.95"></polygon>
        <polygon id="path-3" points="0.19929 0.50085 4.255965 0.50085 4.255965 4.5578925 0.19929 4.5578925"></polygon>
        <path d="M107.648542,0.0871897478 C104.779758,0.617233568 102.041716,1.34562712 99.5618058,2.46405291 L99.5618058,2.46405291 C96.9930583,3.62331542 94.6966902,5.20094585 92.8126626,7.41196197 L92.8126626,7.41196197 C91.1666527,9.34462174 89.8340887,11.7606548 88.9071606,14.8017396 L88.9071606,14.8017396 C88.1880789,17.1619347 87.7120434,19.8979942 87.522635,23.0774237 L87.522635,23.0774237 C87.5117398,23.2607722 87.6584057,23.4174518 87.8444618,23.4174518 L87.8444618,23.4174518 L91.9226104,23.4174518 C92.0994475,23.4174518 92.2410848,23.2749401 92.2419229,23.0999256 L92.2419229,23.0999256 C92.2511419,21.4147863 92.4078648,19.7671501 92.7221488,18.1920198 L92.7221488,18.1920198 C93.0515184,16.536883 93.5543727,14.960086 94.2365784,13.5016321 L94.2365784,13.5016321 C94.945603,11.9906738 95.8490647,10.6055593 96.9553442,9.39045887 L96.9553442,9.39045887 C98.0457,8.19536007 99.3338452,7.1636081 100.830675,6.3410401 L100.830675,6.3410401 C101.064502,6.21269616 101.347777,6.40687888 101.305034,6.66773377 L101.305034,6.66773377 C101.074559,8.06118231 100.956389,9.46963208 100.942979,10.8805821 L100.942979,10.8805821 C100.930408,12.2906986 101.02176,13.7016486 101.212844,15.0992642 L101.212844,15.0992642 C101.402253,16.4993799 101.691394,17.8844944 102.071887,19.238773 L102.071887,19.238773 C102.454894,20.6047193 102.93093,21.9381629 103.490774,23.2241025 L103.490774,23.2241025 C103.542736,23.3416122 103.658392,23.4174518 103.787458,23.4174518 L103.787458,23.4174518 L107.932654,23.4174518 C108.175701,23.4174518 108.328233,23.1582637 108.212577,22.9449128 L108.212577,22.9449128 C107.215249,21.0997602 106.518796,19.2879438 106.05617,17.5394659 L106.05617,17.5394659 C105.522306,15.5184655 105.300212,13.5824721 105.290155,11.7764895 L105.290155,11.7764895 C105.277583,9.64297974 105.556668,7.69198512 105.96398,6.00184539 L105.96398,6.00184539 C106.547291,3.56831087 107.39041,1.6731542 107.991321,0.548894585 L107.991321,0.548894585 C108.106139,0.333043406 107.941035,0.0821893344 107.708884,0.0821893344 L107.708884,0.0821893344 C107.689608,0.0821893344 107.668656,0.0830227367 107.648542,0.0871897478 L107.648542,0.0871897478 Z M134.008166,6.4168797 C133.895024,6.4168797 133.789424,6.47521786 133.732434,6.57105912 L133.732434,6.57105912 L131.779683,9.81049359 L129.82777,13.0507615 C129.799275,13.0965986 129.728037,13.0774303 129.728037,13.0240926 L129.728037,13.0240926 L129.728037,9.87966598 L129.728037,6.73523936 C129.728037,6.55939148 129.584724,6.4168797 129.407887,6.4168797 L129.407887,6.4168797 L125.774764,6.4168797 C125.598765,6.4168797 125.454614,6.55939148 125.454614,6.73523936 L125.454614,6.73523936 L125.454614,12.1890236 L125.454614,17.6428078 L125.454614,23.0982588 C125.454614,23.2741067 125.598765,23.4174518 125.774764,23.4174518 L125.774764,23.4174518 L129.407887,23.4174518 C129.584724,23.4174518 129.728037,23.2741067 129.728037,23.0982588 L129.728037,23.0982588 L129.728037,19.307112 L129.728037,15.5159653 C129.728037,15.4617941 129.799275,15.4426259 129.826932,15.488463 L129.826932,15.488463 L132.207109,19.3762844 L134.587286,23.2641058 C134.645115,23.3582803 134.7482,23.4174518 134.860504,23.4174518 L134.860504,23.4174518 L138.9881,23.4174518 C139.237013,23.4174518 139.391221,23.1440959 139.261317,22.9315783 L139.261317,22.9315783 L136.663237,18.6878942 L134.065994,14.4433766 C134.003137,14.3417015 134.003137,14.2150244 134.064318,14.1141827 L134.064318,14.1141827 L136.239163,10.5063845 L138.41317,6.89941959 C138.54056,6.68690203 138.386351,6.4168797 138.137438,6.4168797 L138.137438,6.4168797 L134.008166,6.4168797 Z M113.635861,6.4168797 L110.281822,6.4168797 C110.104985,6.4168797 109.960833,6.55939148 109.960833,6.73523936 L109.960833,6.73523936 L109.960833,12.1890236 L109.960833,17.6428078 L109.960833,23.0982588 C109.960833,23.2741067 110.104985,23.4174518 110.281822,23.4174518 L110.281822,23.4174518 L113.914107,23.4174518 C114.091782,23.4174518 114.235095,23.2741067 114.235095,23.0982588 L114.235095,23.0982588 L114.235095,20.415537 L114.235095,17.7319818 C114.235095,17.7028127 114.2594,17.6794775 114.288733,17.6794775 L114.288733,17.6794775 L115.331318,17.6794775 C115.446136,17.6794775 115.552574,17.7411492 115.609564,17.8411575 L115.609564,17.8411575 L117.14746,20.548048 L118.685356,23.2549384 C118.742346,23.3549467 118.847946,23.4174518 118.96444,23.4174518 L118.96444,23.4174518 L123.091198,23.4174518 C123.335921,23.4174518 123.490967,23.1549301 123.37112,22.9424126 L123.37112,22.9424126 L121.688235,19.9471649 L120.004511,16.9519173 C119.990263,16.9277487 119.999482,16.8960794 120.023787,16.8819115 L120.023787,16.8819115 C120.889534,16.366869 121.60694,15.6268078 122.091356,14.7442348 L122.091356,14.7442348 C122.560687,13.8916643 122.814628,12.9065829 122.779429,11.8589963 L122.779429,11.8589963 C122.729981,10.3263696 122.046937,8.96209012 120.991781,7.9828425 L120.991781,7.9828425 C119.942492,7.00942869 118.524443,6.4168797 116.990737,6.4168797 L116.990737,6.4168797 L113.635861,6.4168797 Z M114.235095,13.3757883 L114.235095,10.7197354 C114.235095,10.6905663 114.2594,10.6663977 114.288733,10.6663977 L114.288733,10.6663977 L117.061975,10.6663977 C117.822123,10.6663977 118.485891,11.2497792 118.508519,12.0056751 L118.508519,12.0056751 C118.531148,12.7882398 117.901742,13.4291261 117.119803,13.4291261 L117.119803,13.4291261 L114.288733,13.4291261 C114.2594,13.4291261 114.235095,13.4057908 114.235095,13.3757883 L114.235095,13.3757883 Z M81.2193559,6.4168797 C81.0425188,6.4168797 80.8992053,6.55939148 80.8992053,6.73523936 L80.8992053,6.73523936 L80.8992053,9.73632079 L80.8992053,12.7382356 C80.8992053,12.7674047 80.8749007,12.7915734 80.8455675,12.7915734 L80.8455675,12.7915734 L78.3346482,12.7915734 L75.8228908,12.7915734 C75.7935576,12.7915734 75.7709292,12.7674047 75.7709292,12.7382356 L75.7709292,12.7382356 L75.7709292,9.73632079 L75.7709292,6.73523936 C75.7709292,6.55939148 75.6267776,6.4168797 75.4491024,6.4168797 L75.4491024,6.4168797 L71.8168179,6.4168797 C71.6391427,6.4168797 71.4958293,6.55939148 71.4958293,6.73523936 L71.4958293,6.73523936 L71.4958293,12.1890236 L71.4958293,17.6428078 L71.4958293,23.0982588 C71.4958293,23.2741067 71.6391427,23.4174518 71.8168179,23.4174518 L71.8168179,23.4174518 L75.4491024,23.4174518 C75.6267776,23.4174518 75.7709292,23.2741067 75.7709292,23.0982588 L75.7709292,23.0982588 L75.7709292,20.0963439 L75.7709292,17.0944291 C75.7709292,17.06526 75.7935576,17.0419248 75.8228908,17.0419248 L75.8228908,17.0419248 L78.3346482,17.0419248 L80.8455675,17.0419248 C80.8749007,17.0419248 80.8992053,17.06526 80.8992053,17.0944291 L80.8992053,17.0944291 L80.8992053,20.0963439 L80.8992053,23.0982588 C80.8992053,23.2741067 81.0425188,23.4174518 81.2193559,23.4174518 L81.2193559,23.4174518 L84.8524785,23.4174518 C85.0293156,23.4174518 85.1726291,23.2741067 85.1726291,23.0982588 L85.1726291,23.0982588 L85.1726291,17.6428078 L85.1726291,12.1890236 L85.1726291,6.73523936 C85.1726291,6.55939148 85.0293156,6.4168797 84.8524785,6.4168797 L84.8524785,6.4168797 L81.2193559,6.4168797 Z M59.758371,7.95950723 C58.906871,8.8070773 58.3537312,9.99800909 58.3537312,11.516468 L58.3537312,11.516468 C58.3537312,12.9890897 58.9127376,14.0391765 59.6971904,14.8175742 L59.6971904,14.8175742 C60.6685373,15.7834874 61.9843395,16.3360331 63.0101624,16.7660686 L63.0101624,16.7660686 C64.719029,17.4827945 65.1657313,17.7819859 65.1933883,18.2645258 L65.1933883,18.2645258 C65.246188,19.1629334 63.728406,19.1671005 62.8417062,19.1671005 L62.8417062,19.1671005 C61.8175595,19.1662671 60.4590147,18.9204134 59.1758981,18.6245556 L59.1758981,18.6245556 C58.9739182,18.5778851 58.7811574,18.7295643 58.7811574,18.9337478 L58.7811574,18.9337478 L58.7811574,22.5198776 C58.7811574,22.6707234 58.8875949,22.8015676 59.0350989,22.8324035 L59.0350989,22.8324035 C60.4514719,23.1265945 61.8996924,23.4174518 63.0545812,23.4174518 L63.0545812,23.4174518 C64.9344183,23.4174518 66.7849222,23.0499215 68.1141339,21.7281455 L68.1141339,21.7281455 C68.9941289,20.8530732 69.4651358,19.6788094 69.4651358,18.3170302 L69.4651358,18.3170302 C69.4651358,16.7735692 68.8675773,15.6684779 68.0462485,14.8509103 L68.0462485,14.8509103 C67.0262923,13.8383266 65.662719,13.2666126 64.6704198,12.8490781 L64.6704198,12.8490781 C64.0762136,12.6007243 62.6229645,11.9548375 62.6229645,11.3139512 L62.6229645,11.3139512 C62.6229645,10.6438958 63.9722903,10.6663977 64.5514109,10.6663977 L64.5514109,10.6663977 C65.7012711,10.6655643 67.1981009,10.8664142 68.4594272,11.0472625 L68.4594272,11.0472625 C68.652188,11.0747648 68.8248347,10.9255858 68.8248347,10.7322365 L68.8248347,10.7322365 L68.8248347,7.0886019 C68.8248347,6.92942208 68.7049877,6.79274411 68.5449124,6.77274246 L68.5449124,6.77274246 C66.8620266,6.55772468 65.1774645,6.4168797 63.9102716,6.4168797 L63.9102716,6.4168797 C62.3145472,6.4168797 60.8663267,6.85941629 59.758371,7.95950723 L59.758371,7.95950723 Z M52.7125437,6.4168797 L50.0306539,6.4168797 L47.3496022,6.4168797 C47.1710889,6.4168797 47.0277754,6.55939148 47.0277754,6.73523936 L47.0277754,6.73523936 L47.0277754,8.22286234 C47.0277754,8.39871021 47.1710889,8.54205539 47.3496022,8.54205539 L47.3496022,8.54205539 L49.7037986,8.54205539 L52.0605092,8.54205539 L54.4172199,8.54205539 C54.6711613,8.54205539 54.8236938,8.82041174 54.6862469,9.03209591 L54.6862469,9.03209591 L52.2239369,12.8449111 C51.4344556,14.069179 50.5578129,15.4259578 49.7616268,16.6577263 L49.7616268,16.6577263 L47.2993168,20.4705415 C46.4771499,21.7439802 47.3956972,23.4174518 48.9176696,23.4174518 L48.9176696,23.4174518 L51.5283217,23.4174518 L54.1389738,23.4174518 L56.7513021,23.4174518 C56.9281392,23.4174518 57.0722908,23.2741067 57.0722908,23.0982588 L57.0722908,23.0982588 L57.0722908,21.6098024 C57.0722908,21.4347879 56.9281392,21.2922761 56.7513021,21.2922761 L56.7513021,21.2922761 L54.4658291,21.2922761 L52.1811943,21.2922761 L49.8965594,21.2922761 C49.642618,21.2922761 49.4900855,21.0130864 49.6266943,20.7997354 L49.6266943,20.7997354 L52.0890043,16.988587 C52.8784856,15.7651525 53.7551283,14.4075403 54.5513144,13.1749384 L54.5513144,13.1749384 L57.0136244,9.36295659 C57.8357913,8.09035138 56.9164059,6.4168797 55.3961097,6.4168797 L55.3961097,6.4168797 L52.7125437,6.4168797 Z M41.4184353,6.4168797 L37.8389506,6.4168797 C36.7770898,6.4168797 35.9155327,7.2736172 35.9155327,8.32953783 L35.9155327,8.32953783 L35.9155327,12.7215676 L35.9155327,17.112764 L35.9155327,21.5039603 C35.9155327,22.5598809 36.7770898,23.4174518 37.8389506,23.4174518 L37.8389506,23.4174518 L41.4184353,23.4174518 L44.997082,23.4174518 C45.1755953,23.4174518 45.3180707,23.2741067 45.3180707,23.0982588 L45.3180707,23.0982588 L45.3180707,21.6098024 C45.3180707,21.4347879 45.1755953,21.2922761 44.997082,21.2922761 L44.997082,21.2922761 L42.0595746,21.2922761 L39.120391,21.2922761 C38.5312134,21.2922761 38.0526637,20.8155701 38.0526637,20.2288549 L38.0526637,20.2288549 L38.0526637,18.0236726 L38.0526637,15.8193237 C38.0526637,15.7901546 38.0769683,15.7659859 38.1063015,15.7659859 L38.1063015,15.7659859 L44.1430677,15.7659859 C44.3199048,15.7659859 44.4640564,15.6234742 44.4640564,15.4476263 L44.4640564,15.4476263 L44.4640564,13.9608367 C44.4640564,13.7849888 44.3199048,13.6416437 44.1430677,13.6416437 L44.1430677,13.6416437 L38.1063015,13.6416437 C38.0769683,13.6416437 38.0526637,13.6183084 38.0526637,13.5891393 L38.0526637,13.5891393 L38.0526637,11.5964746 L38.0526637,9.60380984 C38.0526637,9.01709467 38.5312134,8.54205539 39.120391,8.54205539 L39.120391,8.54205539 L42.0595746,8.54205539 L44.997082,8.54205539 C45.1755953,8.54205539 45.3180707,8.39871021 45.3180707,8.22286234 L45.3180707,8.22286234 L45.3180707,6.73523936 C45.3180707,6.55939148 45.1755953,6.4168797 44.997082,6.4168797 L44.997082,6.4168797 L41.4184353,6.4168797 Z M25.9791311,6.4168797 C25.8014559,6.4168797 25.6581424,6.55939148 25.6581424,6.73523936 L25.6581424,6.73523936 L25.6581424,11.6581463 L25.6581424,16.5810533 L25.6581424,21.5039603 C25.6581424,22.5598809 26.5196995,23.4174518 27.5815602,23.4174518 L27.5815602,23.4174518 L31.161045,23.4174518 L34.7405298,23.4174518 C34.9173669,23.4174518 35.0606804,23.2741067 35.0606804,23.0982588 L35.0606804,23.0982588 L35.0606804,21.6098024 C35.0606804,21.4347879 34.9173669,21.2922761 34.7405298,21.2922761 L34.7405298,21.2922761 L31.8021843,21.2922761 L28.8630007,21.2922761 C28.273823,21.2922761 27.7952733,20.8155701 27.7952733,20.2288549 L27.7952733,20.2288549 L27.7952733,15.7309831 L27.7952733,11.2331112 L27.7952733,6.73523936 C27.7952733,6.55939148 27.6511218,6.4168797 27.4742846,6.4168797 L27.4742846,6.4168797 L25.9791311,6.4168797 Z M16.9931241,6.4168797 C16.1282147,6.4168797 15.3705808,6.99109384 15.1401059,7.81949566 L15.1401059,7.81949566 L14.1804922,11.2664473 C13.8460941,12.4632129 13.4681153,13.8233253 13.0901364,15.181771 L13.0901364,15.181771 C12.7113195,16.5418834 12.3333406,17.9028293 11.9997806,19.0970947 L11.9997806,19.0970947 L10.9102629,23.0132518 C10.8541108,23.2157685 11.0074814,23.4174518 11.2195183,23.4174518 L11.2195183,23.4174518 L12.7725001,23.4174518 C12.9166517,23.4174518 13.0440414,23.3207772 13.0817555,23.1824324 L13.0817555,23.1824324 L13.7832373,20.6630575 L14.4830429,18.1436825 C14.4897476,18.1203473 14.5098618,18.1045126 14.5350045,18.1045126 L14.5350045,18.1045126 L17.6359396,18.1045126 L20.7385508,18.1045126 C20.7611793,18.1045126 20.7829696,18.1203473 20.7896744,18.1436825 L20.7896744,18.1436825 L21.4903181,20.6630575 L22.1909618,23.1824324 C22.2295139,23.3207772 22.3552275,23.4174518 22.4993791,23.4174518 L22.4993791,23.4174518 L24.053199,23.4174518 C24.2652359,23.4174518 24.4186065,23.2157685 24.3616163,23.0132518 L24.3616163,23.0132518 L23.2729367,19.0970947 C22.9393766,17.9028293 22.5613978,16.5418834 22.1825809,15.181771 L22.1825809,15.181771 C21.8037639,13.8233253 21.424947,12.4632129 21.0922251,11.2664473 L21.0922251,11.2664473 L20.1334495,7.81949566 C19.9021365,6.99109384 19.1436645,6.4168797 18.2795931,6.4168797 L18.2795931,6.4168797 L16.9931241,6.4168797 Z M15.1032299,15.9109979 L16.0963672,12.343203 L17.066038,8.85374783 C17.1171615,8.66873253 17.2864558,8.54205539 17.4792167,8.54205539 L17.4792167,8.54205539 L17.7943387,8.54205539 C17.9862614,8.54205539 18.1547177,8.66873253 18.2050031,8.85374783 L18.2050031,8.85374783 L19.17635,12.343203 L20.1686493,15.9109979 C20.1778683,15.9460008 20.1527255,15.9793369 20.1175257,15.9793369 L20.1175257,15.9793369 L17.6359396,15.9793369 L15.1551915,15.9793369 C15.1199917,15.9793369 15.094849,15.9460008 15.1032299,15.9109979 L15.1032299,15.9109979 Z M1.07107973,7.75615709 C0.383007385,8.44121372 0,9.36128979 0,10.4547135 L0,10.4547135 C0,11.6673138 0.51123524,12.5948905 1.27305956,13.3524531 L1.27305956,13.3524531 C2.1832259,14.2566945 3.45041882,14.9200827 4.63045033,15.5376337 L4.63045033,15.5376337 C6.71813391,16.6310575 8.12025941,17.3919537 8.12025941,18.9545829 L8.12025941,18.9545829 C8.12025941,20.9497478 6.70053401,21.2922761 4.70168803,21.2922761 L4.70168803,21.2922761 C3.28615307,21.2922761 1.72814273,21.1464308 0.808757388,20.9697495 L0.808757388,20.9697495 C0.610968016,20.931413 0.427426184,21.0814254 0.427426184,21.2822753 L0.427426184,21.2822753 L0.427426184,22.794067 C0.427426184,22.9499132 0.540568409,23.0815907 0.695615162,23.1082596 L0.695615162,23.1082596 C1.72898082,23.2807739 3.18474412,23.4166184 4.70168803,23.4174518 L4.70168803,23.4174518 C6.23539375,23.4174518 7.84117525,23.2924415 9.03964475,22.1015097 L9.03964475,22.1015097 C9.84756405,21.2972766 10.2573903,20.1671831 10.2573903,18.7412319 L10.2573903,18.7412319 C10.2573903,17.6003043 9.80565952,16.6610599 8.98433077,15.8426589 L8.98433077,15.8426589 C8.07332634,14.9392509 6.8078096,14.2750294 5.62610191,13.6583117 L5.62610191,13.6583117 C3.51998034,12.5557205 2.13713092,11.7364862 2.13713092,10.4547135 L2.13713092,10.4547135 C2.13713092,8.90708557 3.58954186,8.54205539 5.12827612,8.54205539 L5.12827612,8.54205539 C6.49939227,8.54205539 7.87637506,8.6562315 9.2483293,8.85708144 L9.2483293,8.85708144 C9.44276631,8.88541711 9.61625105,8.73790492 9.61625105,8.5428888 L9.61625105,8.5428888 L9.61625105,7.03943117 C9.61625105,6.88108475 9.49808029,6.74440678 9.33968117,6.72190492 L9.33968117,6.72190492 C7.93252712,6.52522199 6.54381107,6.4168797 5.12827612,6.4168797 L5.12827612,6.4168797 C3.64317965,6.4168797 2.14467374,6.68856883 1.07107973,7.75615709 L1.07107973,7.75615709 Z" id="path-5"></path>
        <linearGradient x1="-3.00803954e-07%" y1="68.0021482%" x2="66.4519248%" y2="68.0021482%" id="linearGradient-7">
            <stop stop-color="#0155FF" offset="0%"></stop>
            <stop stop-color="#410093" offset="100%"></stop>
        </linearGradient>
    </defs>
    <g id="Symbols" stroke="none" stroke-width="1" fill="none" fill-rule="evenodd">
        <g id="Header" transform="translate(-18.000000, -14.000000)">
            <g id="SS_COnnect">
                <g transform="translate(18.000000, 14.000000)">
                    <g id="New_Logo">
                        <g id="Group-23" transform="translate(145.000000, 4.000000)">
                            <g id="Group-3" transform="translate(16.800000, 0.549360)">
                                <mask id="mask-2" fill="white">
                                    <use xlink:href="#path-1"></use>
                                </mask>
                                <g id="Clip-2"></g>
                                <path d="M17.796345,7.7008575 C17.344845,7.7008575 16.912245,7.4420325 16.71222,7.0047075 C15.64752,4.6789575 13.507095,3.0766575 10.984995,2.7186075 C10.33347,2.6251575 9.880395,2.0219325 9.972795,1.3693575 C10.06572,0.7178325 10.676295,0.2726325 11.32152,0.3571575 C14.65107,0.8312325 17.477145,2.9454075 18.879945,6.0124575 C19.153995,6.6109575 18.89097,7.3186575 18.291945,7.5921825 C18.131295,7.6667325 17.962245,7.7008575 17.796345,7.7008575 M1.61742,13.7357325 C1.101345,13.7357325 0.62622,13.3992075 0.473445,12.8789325 C0.209895,11.9811825 0.076545,11.0477325 0.076545,10.1037825 C0.07707,7.7334075 0.931245,5.4449325 2.48157,3.6562575 C2.912595,3.1596075 3.66492,3.1050075 4.163145,3.5365575 C4.66032,3.9681075 4.71387,4.7209575 4.282845,5.2186575 C3.10842,6.5731575 2.46162,8.3082825 2.461095,10.1043075 C2.461095,10.8204075 2.56242,11.5275825 2.761395,12.2074575 C2.947245,12.8395575 2.584995,13.5021075 1.95342,13.6869075 C1.84107,13.7205075 1.728195,13.7357325 1.61742,13.7357325 M9.92292,19.9501575 C8.98002,19.9501575 8.04762,19.8168075 7.14987,19.5532575 C6.518295,19.3684575 6.156045,18.7064325 6.34137,18.0743325 C6.525645,17.4427575 7.19082,17.0794575 7.820295,17.2658325 C8.50017,17.4648075 9.207345,17.5656075 9.92292,17.5656075 C12.47127,17.5656075 14.818545,16.2840825 16.20087,14.1378825 C16.55787,13.5840075 17.29602,13.4244075 17.84937,13.7808825 C18.402195,14.1378825 18.56232,14.8755075 18.205845,15.4288575 C16.38252,18.2596575 13.28607,19.9501575 9.92292,19.9501575" id="Fill-1" fill="#0155FF" mask="url(#mask-2)"></path>
                            </g>
                            <g id="Group-6" transform="translate(21.525000, 0.024360)">
                                <mask id="mask-4" fill="white">
                                    <use xlink:href="#path-3"></use>
                                </mask>
                                <g id="Clip-5"></g>
                                <path d="M2.79489,2.5292925 C2.79489,2.8421925 2.54079,3.0962925 2.227365,3.0962925 C1.914465,3.0962925 1.660365,2.8421925 1.660365,2.5292925 C1.660365,2.2158675 1.914465,1.9617675 2.227365,1.9617675 C2.54079,1.9617675 2.79489,2.2158675 2.79489,2.5292925 M2.227365,0.5006925 C1.10859,0.5006925 0.19929,1.4105175 0.19929,2.5292925 C0.19929,3.6480675 1.10859,4.5578925 2.227365,4.5578925 C3.34614,4.5578925 4.255965,3.6480675 4.255965,2.5292925 C4.255965,1.4105175 3.34614,0.5006925 2.227365,0.5006925" id="Fill-4" fill="#410093" mask="url(#mask-4)"></path>
                            </g>
                            <path d="M35.8806525,11.31564 C35.8806525,11.629065 35.6265525,11.883165 35.3136525,11.883165 C35.0002275,11.883165 34.7461275,11.629065 34.7461275,11.31564 C34.7461275,11.003265 35.0002275,10.74864 35.3136525,10.74864 C35.6265525,10.74864 35.8806525,11.003265 35.8806525,11.31564 M35.3136525,9.287565 C34.1948775,9.287565 33.2850525,10.196865 33.2850525,11.31564 C33.2850525,12.434415 34.1948775,13.344765 35.3136525,13.344765 C36.4324275,13.344765 37.3422525,12.434415 37.3422525,11.31564 C37.3422525,10.196865 36.4324275,9.287565 35.3136525,9.287565" id="Fill-7" fill="#410093"></path>
                            <path d="M21.120645,16.7425125 C21.120645,17.0548875 20.866545,17.3095125 20.55417,17.3095125 C20.240745,17.3095125 19.98612,17.0548875 19.98612,16.7425125 C19.98612,16.4290875 20.240745,16.1749875 20.55417,16.1749875 C20.866545,16.1749875 21.120645,16.4290875 21.120645,16.7425125 M20.55417,14.7133875 C19.43487,14.7133875 18.525045,15.6237375 18.525045,16.7425125 C18.525045,17.8612875 19.43487,18.7711125 20.55417,18.7711125 C21.67242,18.7711125 22.582245,17.8612875 22.582245,16.7425125 C22.582245,15.6237375 21.67242,14.7133875 20.55417,14.7133875" id="Fill-9" fill="#410093"></path>
                            <path d="M2.3847075,3.8005275 C3.7665075,2.3882775 5.5252575,1.6816275 7.6604325,1.6816275 C10.5164325,1.6816275 12.6059325,2.6287275 13.9263075,4.5224025 C14.6560575,5.5855275 15.0477075,6.6533775 15.1017825,7.7243775 L11.5155075,7.7243775 C11.2871325,6.9017025 10.9941825,6.2806275 10.6366575,5.8611525 C9.9982575,5.1161775 9.0511575,4.7434275 7.7969325,4.7434275 C6.5190825,4.7434275 5.5110825,5.2694775 4.7739825,6.3215775 C4.0363575,7.3731525 3.6672825,8.8615275 3.6672825,10.7867025 C3.6672825,12.7118775 4.0568325,14.1535275 4.8348825,15.1121775 C5.6129325,16.0708275 6.6020325,16.5496275 7.8021825,16.5496275 C9.0317325,16.5496275 9.9693825,16.1385525 10.6151325,15.3158775 C10.9716075,14.8733025 11.2682325,14.2097025 11.5034325,13.3250775 L15.0660825,13.3250775 C14.7589575,15.1956525 13.9735575,16.7171025 12.7109325,17.8889025 C11.4477825,19.0607025 9.8292075,19.6471275 7.8557325,19.6471275 C5.4139575,19.6471275 3.4940325,18.8554275 2.0964825,17.2715025 C0.6984075,15.6807525 0.0001575,13.4993775 0.0001575,10.7279025 C0.0001575,7.7317275 0.7950075,5.4227775 2.3847075,3.8005275" id="Fill-11" fill="#410093"></path>
                            <polygon id="Fill-13" fill="#410093" points="38.2436775 2.0071275 42.0032025 2.0071275 48.8161275 13.9739775 48.8161275 2.0071275 52.1572275 2.0071275 52.1572275 19.1693775 48.5720025 19.1693775 41.5853025 6.9925275 41.5853025 19.1693775 38.2436775 19.1693775"></polygon>
                            <polygon id="Fill-15" fill="#410093" points="55.4640975 2.0071275 59.2236225 2.0071275 66.0365475 13.9739775 66.0365475 2.0071275 69.3781725 2.0071275 69.3781725 19.1693775 65.7924225 19.1693775 58.8057225 6.9925275 58.8057225 19.1693775 55.4640975 19.1693775"></polygon>
                            <polygon id="Fill-17" fill="#410093" points="85.434195 5.046405 76.35222 5.046405 76.35222 8.69043 84.688695 8.69043 84.688695 11.67138 76.35222 11.67138 76.35222 16.084005 85.853145 16.084005 85.853145 19.16943 72.84732 19.16943 72.84732 2.00718 85.434195 2.00718"></polygon>
                            <path d="M90.2868225,3.8005275 C91.6691475,2.3882775 93.4273725,1.6816275 95.5625475,1.6816275 C98.4190725,1.6816275 100.508048,2.6287275 101.828947,4.5224025 C102.558173,5.5855275 102.950348,6.6533775 103.003897,7.7243775 L99.4176225,7.7243775 C99.1892475,6.9017025 98.8962975,6.2806275 98.5392975,5.8611525 C97.9003725,5.1161775 96.9537975,4.7434275 95.6995725,4.7434275 C94.4217225,4.7434275 93.4137225,5.2694775 92.6760975,6.3215775 C91.9384725,7.3731525 91.5699225,8.8615275 91.5699225,10.7867025 C91.5699225,12.7118775 91.9589475,14.1535275 92.7375225,15.1121775 C93.5155725,16.0708275 94.5046725,16.5496275 95.7042975,16.5496275 C96.9338475,16.5496275 97.8720225,16.1385525 98.5177725,15.3158775 C98.8742475,14.8733025 99.1708725,14.2097025 99.4060725,13.3250775 L102.968723,13.3250775 C102.661073,15.1956525 101.876198,16.7171025 100.613573,17.8889025 C99.3504225,19.0607025 97.7318475,19.6471275 95.7583725,19.6471275 C93.3160725,19.6471275 91.3966725,18.8554275 89.9985975,17.2715025 C88.6010475,15.6807525 87.9022725,13.4993775 87.9022725,10.7279025 C87.9022725,7.7317275 88.6971225,5.4227775 90.2868225,3.8005275" id="Fill-19" fill="#410093"></path>
                            <polygon id="Fill-21" fill="#410093" points="118.33794 2.0071275 118.33794 5.0463525 113.20344 5.0463525 113.20344 19.1693775 109.594065 19.1693775 109.594065 5.0463525 104.43594 5.0463525 104.43594 2.0071275"></polygon>
                        </g>
                        <g id="Group-8">
                            <mask id="mask-6" fill="white">
                                <use xlink:href="#path-5"></use>
                            </mask>
                            <g id="Clip-7"></g>
                            <path d="M107.648542,0.0871897478 C104.779758,0.617233568 102.041716,1.34562712 99.5618058,2.46405291 L99.5618058,2.46405291 C96.9930583,3.62331542 94.6966902,5.20094585 92.8126626,7.41196197 L92.8126626,7.41196197 C91.1666527,9.34462174 89.8340887,11.7606548 88.9071606,14.8017396 L88.9071606,14.8017396 C88.1880789,17.1619347 87.7120434,19.8979942 87.522635,23.0774237 L87.522635,23.0774237 C87.5117398,23.2607722 87.6584057,23.4174518 87.8444618,23.4174518 L87.8444618,23.4174518 L91.9226104,23.4174518 C92.0994475,23.4174518 92.2410848,23.2749401 92.2419229,23.0999256 L92.2419229,23.0999256 C92.2511419,21.4147863 92.4078648,19.7671501 92.7221488,18.1920198 L92.7221488,18.1920198 C93.0515184,16.536883 93.5543727,14.960086 94.2365784,13.5016321 L94.2365784,13.5016321 C94.945603,11.9906738 95.8490647,10.6055593 96.9553442,9.39045887 L96.9553442,9.39045887 C98.0457,8.19536007 99.3338452,7.1636081 100.830675,6.3410401 L100.830675,6.3410401 C101.064502,6.21269616 101.347777,6.40687888 101.305034,6.66773377 L101.305034,6.66773377 C101.074559,8.06118231 100.956389,9.46963208 100.942979,10.8805821 L100.942979,10.8805821 C100.930408,12.2906986 101.02176,13.7016486 101.212844,15.0992642 L101.212844,15.0992642 C101.402253,16.4993799 101.691394,17.8844944 102.071887,19.238773 L102.071887,19.238773 C102.454894,20.6047193 102.93093,21.9381629 103.490774,23.2241025 L103.490774,23.2241025 C103.542736,23.3416122 103.658392,23.4174518 103.787458,23.4174518 L103.787458,23.4174518 L107.932654,23.4174518 C108.175701,23.4174518 108.328233,23.1582637 108.212577,22.9449128 L108.212577,22.9449128 C107.215249,21.0997602 106.518796,19.2879438 106.05617,17.5394659 L106.05617,17.5394659 C105.522306,15.5184655 105.300212,13.5824721 105.290155,11.7764895 L105.290155,11.7764895 C105.277583,9.64297974 105.556668,7.69198512 105.96398,6.00184539 L105.96398,6.00184539 C106.547291,3.56831087 107.39041,1.6731542 107.991321,0.548894585 L107.991321,0.548894585 C108.106139,0.333043406 107.941035,0.0821893344 107.708884,0.0821893344 L107.708884,0.0821893344 C107.689608,0.0821893344 107.668656,0.0830227367 107.648542,0.0871897478 L107.648542,0.0871897478 Z M134.008166,6.4168797 C133.895024,6.4168797 133.789424,6.47521786 133.732434,6.57105912 L133.732434,6.57105912 L131.779683,9.81049359 L129.82777,13.0507615 C129.799275,13.0965986 129.728037,13.0774303 129.728037,13.0240926 L129.728037,13.0240926 L129.728037,9.87966598 L129.728037,6.73523936 C129.728037,6.55939148 129.584724,6.4168797 129.407887,6.4168797 L129.407887,6.4168797 L125.774764,6.4168797 C125.598765,6.4168797 125.454614,6.55939148 125.454614,6.73523936 L125.454614,6.73523936 L125.454614,12.1890236 L125.454614,17.6428078 L125.454614,23.0982588 C125.454614,23.2741067 125.598765,23.4174518 125.774764,23.4174518 L125.774764,23.4174518 L129.407887,23.4174518 C129.584724,23.4174518 129.728037,23.2741067 129.728037,23.0982588 L129.728037,23.0982588 L129.728037,19.307112 L129.728037,15.5159653 C129.728037,15.4617941 129.799275,15.4426259 129.826932,15.488463 L129.826932,15.488463 L132.207109,19.3762844 L134.587286,23.2641058 C134.645115,23.3582803 134.7482,23.4174518 134.860504,23.4174518 L134.860504,23.4174518 L138.9881,23.4174518 C139.237013,23.4174518 139.391221,23.1440959 139.261317,22.9315783 L139.261317,22.9315783 L136.663237,18.6878942 L134.065994,14.4433766 C134.003137,14.3417015 134.003137,14.2150244 134.064318,14.1141827 L134.064318,14.1141827 L136.239163,10.5063845 L138.41317,6.89941959 C138.54056,6.68690203 138.386351,6.4168797 138.137438,6.4168797 L138.137438,6.4168797 L134.008166,6.4168797 Z M113.635861,6.4168797 L110.281822,6.4168797 C110.104985,6.4168797 109.960833,6.55939148 109.960833,6.73523936 L109.960833,6.73523936 L109.960833,12.1890236 L109.960833,17.6428078 L109.960833,23.0982588 C109.960833,23.2741067 110.104985,23.4174518 110.281822,23.4174518 L110.281822,23.4174518 L113.914107,23.4174518 C114.091782,23.4174518 114.235095,23.2741067 114.235095,23.0982588 L114.235095,23.0982588 L114.235095,20.415537 L114.235095,17.7319818 C114.235095,17.7028127 114.2594,17.6794775 114.288733,17.6794775 L114.288733,17.6794775 L115.331318,17.6794775 C115.446136,17.6794775 115.552574,17.7411492 115.609564,17.8411575 L115.609564,17.8411575 L117.14746,20.548048 L118.685356,23.2549384 C118.742346,23.3549467 118.847946,23.4174518 118.96444,23.4174518 L118.96444,23.4174518 L123.091198,23.4174518 C123.335921,23.4174518 123.490967,23.1549301 123.37112,22.9424126 L123.37112,22.9424126 L121.688235,19.9471649 L120.004511,16.9519173 C119.990263,16.9277487 119.999482,16.8960794 120.023787,16.8819115 L120.023787,16.8819115 C120.889534,16.366869 121.60694,15.6268078 122.091356,14.7442348 L122.091356,14.7442348 C122.560687,13.8916643 122.814628,12.9065829 122.779429,11.8589963 L122.779429,11.8589963 C122.729981,10.3263696 122.046937,8.96209012 120.991781,7.9828425 L120.991781,7.9828425 C119.942492,7.00942869 118.524443,6.4168797 116.990737,6.4168797 L116.990737,6.4168797 L113.635861,6.4168797 Z M114.235095,13.3757883 L114.235095,10.7197354 C114.235095,10.6905663 114.2594,10.6663977 114.288733,10.6663977 L114.288733,10.6663977 L117.061975,10.6663977 C117.822123,10.6663977 118.485891,11.2497792 118.508519,12.0056751 L118.508519,12.0056751 C118.531148,12.7882398 117.901742,13.4291261 117.119803,13.4291261 L117.119803,13.4291261 L114.288733,13.4291261 C114.2594,13.4291261 114.235095,13.4057908 114.235095,13.3757883 L114.235095,13.3757883 Z M81.2193559,6.4168797 C81.0425188,6.4168797 80.8992053,6.55939148 80.8992053,6.73523936 L80.8992053,6.73523936 L80.8992053,9.73632079 L80.8992053,12.7382356 C80.8992053,12.7674047 80.8749007,12.7915734 80.8455675,12.7915734 L80.8455675,12.7915734 L78.3346482,12.7915734 L75.8228908,12.7915734 C75.7935576,12.7915734 75.7709292,12.7674047 75.7709292,12.7382356 L75.7709292,12.7382356 L75.7709292,9.73632079 L75.7709292,6.73523936 C75.7709292,6.55939148 75.6267776,6.4168797 75.4491024,6.4168797 L75.4491024,6.4168797 L71.8168179,6.4168797 C71.6391427,6.4168797 71.4958293,6.55939148 71.4958293,6.73523936 L71.4958293,6.73523936 L71.4958293,12.1890236 L71.4958293,17.6428078 L71.4958293,23.0982588 C71.4958293,23.2741067 71.6391427,23.4174518 71.8168179,23.4174518 L71.8168179,23.4174518 L75.4491024,23.4174518 C75.6267776,23.4174518 75.7709292,23.2741067 75.7709292,23.0982588 L75.7709292,23.0982588 L75.7709292,20.0963439 L75.7709292,17.0944291 C75.7709292,17.06526 75.7935576,17.0419248 75.8228908,17.0419248 L75.8228908,17.0419248 L78.3346482,17.0419248 L80.8455675,17.0419248 C80.8749007,17.0419248 80.8992053,17.06526 80.8992053,17.0944291 L80.8992053,17.0944291 L80.8992053,20.0963439 L80.8992053,23.0982588 C80.8992053,23.2741067 81.0425188,23.4174518 81.2193559,23.4174518 L81.2193559,23.4174518 L84.8524785,23.4174518 C85.0293156,23.4174518 85.1726291,23.2741067 85.1726291,23.0982588 L85.1726291,23.0982588 L85.1726291,17.6428078 L85.1726291,12.1890236 L85.1726291,6.73523936 C85.1726291,6.55939148 85.0293156,6.4168797 84.8524785,6.4168797 L84.8524785,6.4168797 L81.2193559,6.4168797 Z M59.758371,7.95950723 C58.906871,8.8070773 58.3537312,9.99800909 58.3537312,11.516468 L58.3537312,11.516468 C58.3537312,12.9890897 58.9127376,14.0391765 59.6971904,14.8175742 L59.6971904,14.8175742 C60.6685373,15.7834874 61.9843395,16.3360331 63.0101624,16.7660686 L63.0101624,16.7660686 C64.719029,17.4827945 65.1657313,17.7819859 65.1933883,18.2645258 L65.1933883,18.2645258 C65.246188,19.1629334 63.728406,19.1671005 62.8417062,19.1671005 L62.8417062,19.1671005 C61.8175595,19.1662671 60.4590147,18.9204134 59.1758981,18.6245556 L59.1758981,18.6245556 C58.9739182,18.5778851 58.7811574,18.7295643 58.7811574,18.9337478 L58.7811574,18.9337478 L58.7811574,22.5198776 C58.7811574,22.6707234 58.8875949,22.8015676 59.0350989,22.8324035 L59.0350989,22.8324035 C60.4514719,23.1265945 61.8996924,23.4174518 63.0545812,23.4174518 L63.0545812,23.4174518 C64.9344183,23.4174518 66.7849222,23.0499215 68.1141339,21.7281455 L68.1141339,21.7281455 C68.9941289,20.8530732 69.4651358,19.6788094 69.4651358,18.3170302 L69.4651358,18.3170302 C69.4651358,16.7735692 68.8675773,15.6684779 68.0462485,14.8509103 L68.0462485,14.8509103 C67.0262923,13.8383266 65.662719,13.2666126 64.6704198,12.8490781 L64.6704198,12.8490781 C64.0762136,12.6007243 62.6229645,11.9548375 62.6229645,11.3139512 L62.6229645,11.3139512 C62.6229645,10.6438958 63.9722903,10.6663977 64.5514109,10.6663977 L64.5514109,10.6663977 C65.7012711,10.6655643 67.1981009,10.8664142 68.4594272,11.0472625 L68.4594272,11.0472625 C68.652188,11.0747648 68.8248347,10.9255858 68.8248347,10.7322365 L68.8248347,10.7322365 L68.8248347,7.0886019 C68.8248347,6.92942208 68.7049877,6.79274411 68.5449124,6.77274246 L68.5449124,6.77274246 C66.8620266,6.55772468 65.1774645,6.4168797 63.9102716,6.4168797 L63.9102716,6.4168797 C62.3145472,6.4168797 60.8663267,6.85941629 59.758371,7.95950723 L59.758371,7.95950723 Z M52.7125437,6.4168797 L50.0306539,6.4168797 L47.3496022,6.4168797 C47.1710889,6.4168797 47.0277754,6.55939148 47.0277754,6.73523936 L47.0277754,6.73523936 L47.0277754,8.22286234 C47.0277754,8.39871021 47.1710889,8.54205539 47.3496022,8.54205539 L47.3496022,8.54205539 L49.7037986,8.54205539 L52.0605092,8.54205539 L54.4172199,8.54205539 C54.6711613,8.54205539 54.8236938,8.82041174 54.6862469,9.03209591 L54.6862469,9.03209591 L52.2239369,12.8449111 C51.4344556,14.069179 50.5578129,15.4259578 49.7616268,16.6577263 L49.7616268,16.6577263 L47.2993168,20.4705415 C46.4771499,21.7439802 47.3956972,23.4174518 48.9176696,23.4174518 L48.9176696,23.4174518 L51.5283217,23.4174518 L54.1389738,23.4174518 L56.7513021,23.4174518 C56.9281392,23.4174518 57.0722908,23.2741067 57.0722908,23.0982588 L57.0722908,23.0982588 L57.0722908,21.6098024 C57.0722908,21.4347879 56.9281392,21.2922761 56.7513021,21.2922761 L56.7513021,21.2922761 L54.4658291,21.2922761 L52.1811943,21.2922761 L49.8965594,21.2922761 C49.642618,21.2922761 49.4900855,21.0130864 49.6266943,20.7997354 L49.6266943,20.7997354 L52.0890043,16.988587 C52.8784856,15.7651525 53.7551283,14.4075403 54.5513144,13.1749384 L54.5513144,13.1749384 L57.0136244,9.36295659 C57.8357913,8.09035138 56.9164059,6.4168797 55.3961097,6.4168797 L55.3961097,6.4168797 L52.7125437,6.4168797 Z M41.4184353,6.4168797 L37.8389506,6.4168797 C36.7770898,6.4168797 35.9155327,7.2736172 35.9155327,8.32953783 L35.9155327,8.32953783 L35.9155327,12.7215676 L35.9155327,17.112764 L35.9155327,21.5039603 C35.9155327,22.5598809 36.7770898,23.4174518 37.8389506,23.4174518 L37.8389506,23.4174518 L41.4184353,23.4174518 L44.997082,23.4174518 C45.1755953,23.4174518 45.3180707,23.2741067 45.3180707,23.0982588 L45.3180707,23.0982588 L45.3180707,21.6098024 C45.3180707,21.4347879 45.1755953,21.2922761 44.997082,21.2922761 L44.997082,21.2922761 L42.0595746,21.2922761 L39.120391,21.2922761 C38.5312134,21.2922761 38.0526637,20.8155701 38.0526637,20.2288549 L38.0526637,20.2288549 L38.0526637,18.0236726 L38.0526637,15.8193237 C38.0526637,15.7901546 38.0769683,15.7659859 38.1063015,15.7659859 L38.1063015,15.7659859 L44.1430677,15.7659859 C44.3199048,15.7659859 44.4640564,15.6234742 44.4640564,15.4476263 L44.4640564,15.4476263 L44.4640564,13.9608367 C44.4640564,13.7849888 44.3199048,13.6416437 44.1430677,13.6416437 L44.1430677,13.6416437 L38.1063015,13.6416437 C38.0769683,13.6416437 38.0526637,13.6183084 38.0526637,13.5891393 L38.0526637,13.5891393 L38.0526637,11.5964746 L38.0526637,9.60380984 C38.0526637,9.01709467 38.5312134,8.54205539 39.120391,8.54205539 L39.120391,8.54205539 L42.0595746,8.54205539 L44.997082,8.54205539 C45.1755953,8.54205539 45.3180707,8.39871021 45.3180707,8.22286234 L45.3180707,8.22286234 L45.3180707,6.73523936 C45.3180707,6.55939148 45.1755953,6.4168797 44.997082,6.4168797 L44.997082,6.4168797 L41.4184353,6.4168797 Z M25.9791311,6.4168797 C25.8014559,6.4168797 25.6581424,6.55939148 25.6581424,6.73523936 L25.6581424,6.73523936 L25.6581424,11.6581463 L25.6581424,16.5810533 L25.6581424,21.5039603 C25.6581424,22.5598809 26.5196995,23.4174518 27.5815602,23.4174518 L27.5815602,23.4174518 L31.161045,23.4174518 L34.7405298,23.4174518 C34.9173669,23.4174518 35.0606804,23.2741067 35.0606804,23.0982588 L35.0606804,23.0982588 L35.0606804,21.6098024 C35.0606804,21.4347879 34.9173669,21.2922761 34.7405298,21.2922761 L34.7405298,21.2922761 L31.8021843,21.2922761 L28.8630007,21.2922761 C28.273823,21.2922761 27.7952733,20.8155701 27.7952733,20.2288549 L27.7952733,20.2288549 L27.7952733,15.7309831 L27.7952733,11.2331112 L27.7952733,6.73523936 C27.7952733,6.55939148 27.6511218,6.4168797 27.4742846,6.4168797 L27.4742846,6.4168797 L25.9791311,6.4168797 Z M16.9931241,6.4168797 C16.1282147,6.4168797 15.3705808,6.99109384 15.1401059,7.81949566 L15.1401059,7.81949566 L14.1804922,11.2664473 C13.8460941,12.4632129 13.4681153,13.8233253 13.0901364,15.181771 L13.0901364,15.181771 C12.7113195,16.5418834 12.3333406,17.9028293 11.9997806,19.0970947 L11.9997806,19.0970947 L10.9102629,23.0132518 C10.8541108,23.2157685 11.0074814,23.4174518 11.2195183,23.4174518 L11.2195183,23.4174518 L12.7725001,23.4174518 C12.9166517,23.4174518 13.0440414,23.3207772 13.0817555,23.1824324 L13.0817555,23.1824324 L13.7832373,20.6630575 L14.4830429,18.1436825 C14.4897476,18.1203473 14.5098618,18.1045126 14.5350045,18.1045126 L14.5350045,18.1045126 L17.6359396,18.1045126 L20.7385508,18.1045126 C20.7611793,18.1045126 20.7829696,18.1203473 20.7896744,18.1436825 L20.7896744,18.1436825 L21.4903181,20.6630575 L22.1909618,23.1824324 C22.2295139,23.3207772 22.3552275,23.4174518 22.4993791,23.4174518 L22.4993791,23.4174518 L24.053199,23.4174518 C24.2652359,23.4174518 24.4186065,23.2157685 24.3616163,23.0132518 L24.3616163,23.0132518 L23.2729367,19.0970947 C22.9393766,17.9028293 22.5613978,16.5418834 22.1825809,15.181771 L22.1825809,15.181771 C21.8037639,13.8233253 21.424947,12.4632129 21.0922251,11.2664473 L21.0922251,11.2664473 L20.1334495,7.81949566 C19.9021365,6.99109384 19.1436645,6.4168797 18.2795931,6.4168797 L18.2795931,6.4168797 L16.9931241,6.4168797 Z M15.1032299,15.9109979 L16.0963672,12.343203 L17.066038,8.85374783 C17.1171615,8.66873253 17.2864558,8.54205539 17.4792167,8.54205539 L17.4792167,8.54205539 L17.7943387,8.54205539 C17.9862614,8.54205539 18.1547177,8.66873253 18.2050031,8.85374783 L18.2050031,8.85374783 L19.17635,12.343203 L20.1686493,15.9109979 C20.1778683,15.9460008 20.1527255,15.9793369 20.1175257,15.9793369 L20.1175257,15.9793369 L17.6359396,15.9793369 L15.1551915,15.9793369 C15.1199917,15.9793369 15.094849,15.9460008 15.1032299,15.9109979 L15.1032299,15.9109979 Z M1.07107973,7.75615709 C0.383007385,8.44121372 0,9.36128979 0,10.4547135 L0,10.4547135 C0,11.6673138 0.51123524,12.5948905 1.27305956,13.3524531 L1.27305956,13.3524531 C2.1832259,14.2566945 3.45041882,14.9200827 4.63045033,15.5376337 L4.63045033,15.5376337 C6.71813391,16.6310575 8.12025941,17.3919537 8.12025941,18.9545829 L8.12025941,18.9545829 C8.12025941,20.9497478 6.70053401,21.2922761 4.70168803,21.2922761 L4.70168803,21.2922761 C3.28615307,21.2922761 1.72814273,21.1464308 0.808757388,20.9697495 L0.808757388,20.9697495 C0.610968016,20.931413 0.427426184,21.0814254 0.427426184,21.2822753 L0.427426184,21.2822753 L0.427426184,22.794067 C0.427426184,22.9499132 0.540568409,23.0815907 0.695615162,23.1082596 L0.695615162,23.1082596 C1.72898082,23.2807739 3.18474412,23.4166184 4.70168803,23.4174518 L4.70168803,23.4174518 C6.23539375,23.4174518 7.84117525,23.2924415 9.03964475,22.1015097 L9.03964475,22.1015097 C9.84756405,21.2972766 10.2573903,20.1671831 10.2573903,18.7412319 L10.2573903,18.7412319 C10.2573903,17.6003043 9.80565952,16.6610599 8.98433077,15.8426589 L8.98433077,15.8426589 C8.07332634,14.9392509 6.8078096,14.2750294 5.62610191,13.6583117 L5.62610191,13.6583117 C3.51998034,12.5557205 2.13713092,11.7364862 2.13713092,10.4547135 L2.13713092,10.4547135 C2.13713092,8.90708557 3.58954186,8.54205539 5.12827612,8.54205539 L5.12827612,8.54205539 C6.49939227,8.54205539 7.87637506,8.6562315 9.2483293,8.85708144 L9.2483293,8.85708144 C9.44276631,8.88541711 9.61625105,8.73790492 9.61625105,8.5428888 L9.61625105,8.5428888 L9.61625105,7.03943117 C9.61625105,6.88108475 9.49808029,6.74440678 9.33968117,6.72190492 L9.33968117,6.72190492 C7.93252712,6.52522199 6.54381107,6.4168797 5.12827612,6.4168797 L5.12827612,6.4168797 C3.64317965,6.4168797 2.14467374,6.68856883 1.07107973,7.75615709 L1.07107973,7.75615709 Z" id="Fill-6" fill="url(#linearGradient-7)" mask="url(#mask-6)"></path>
                        </g>
                    </g>
                </g>
            </g>
        </g>
    </g>
</svg>