<?xml version="1.0" encoding="UTF-8"?>
<svg width="100px" height="17px" viewBox="0 0 100 17" version="1.1" xmlns="http://www.w3.org/2000/svg" xmlns:xlink="http://www.w3.org/1999/xlink">
    <!-- Generator: sketchtool 54.1 (76490) - https://sketchapp.com -->
    <title>FBA8571F-ACC7-4A05-BA50-2BA56E6B3EA8@1x</title>
    <desc>Created with sketchtool.</desc>
    <defs>
        <linearGradient x1="0%" y1="68.0029775%" x2="66.4517007%" y2="68.002975%" id="linearGradient-1">
            <stop stop-color="#0155FF" offset="0%"></stop>
            <stop stop-color="#410093" offset="100%"></stop>
        </linearGradient>
    </defs>
    <g id="Onboarding" stroke="none" stroke-width="1" fill="none" fill-rule="evenodd">
        <g id="SIGN-IN" transform="translate(-95.000000, -58.000000)" fill="url(#linearGradient-1)">
            <g id="Background_Pattern">
                <g id="Content" transform="translate(44.000000, 49.000000)">
                    <g id="Logo_Marketing-Cloud">
                        <path d="M150.699236,25.4511871 L148.839207,22.3954043 L146.979332,19.3399275 C146.935118,19.2671052 146.934812,19.1757713 146.978567,19.1026431 L148.535067,16.5053654 L150.091261,13.9083937 C150.183054,13.7554057 150.07275,13.5609579 149.894519,13.5609579 L146.937719,13.5609579 C146.857094,13.5609579 146.782283,13.6033356 146.740823,13.6724861 L145.342972,16.0047886 L143.945273,18.337244 C143.925232,18.3704424 143.874134,18.3563675 143.874134,18.3175085 L143.874134,16.0540507 L143.874134,13.7904399 C143.874134,13.6637658 143.771326,13.5609579 143.644652,13.5609579 L141.043855,13.5609579 C140.917181,13.5609579 140.814373,13.6637658 140.814373,13.7904399 L140.814373,17.7171835 L140.814373,21.6436212 L140.814373,25.5705178 C140.814373,25.6971919 140.917181,25.7999998 141.043855,25.7999998 L143.644652,25.7999998 C143.771326,25.7999998 143.874134,25.6971919 143.874134,25.5705178 L143.874134,22.8410584 L143.874134,20.1119051 C143.874134,20.0731991 143.924926,20.0589712 143.94512,20.0920166 L145.648642,22.8909325 L147.35247,25.6898484 C147.394082,25.7582341 147.468434,25.7999998 147.548447,25.7999998 L150.503258,25.7999998 C150.682254,25.7999998 150.792252,25.6041751 150.699236,25.4511871 M132.782502,16.6589654 L132.782502,18.5713157 C132.782502,18.592428 132.799637,18.6095627 132.820749,18.6095627 L134.84784,18.6095627 C135.407165,18.6095627 135.858632,18.1476918 135.841804,17.5845429 C135.825434,17.0402115 135.350559,16.6207184 134.806075,16.6207184 L132.820749,16.6207184 C132.799637,16.6207184 132.782502,16.637853 132.782502,16.6589654 M135.968325,25.6834229 L134.867423,23.7346615 L133.766215,21.7859 C133.725673,21.7138427 133.649332,21.6693232 133.566566,21.6693232 L132.820749,21.6693232 C132.799637,21.6693232 132.782502,21.6864578 132.782502,21.7075702 L132.782502,23.639044 L132.782502,25.5705178 C132.782502,25.6971919 132.679694,25.7999998 132.55302,25.7999998 L129.952224,25.7999998 C129.82555,25.7999998 129.722742,25.6971919 129.722742,25.5705178 L129.722742,21.6436212 L129.722742,17.7171835 L129.722742,13.7904399 C129.722742,13.6637658 129.82555,13.5609579 129.952224,13.5609579 L132.353677,13.5609579 L134.75513,13.5609579 C135.852972,13.5609579 136.868353,13.9876415 137.619524,14.6883266 C138.375132,15.3932954 138.863623,16.3753256 138.899728,17.4788282 C138.924512,18.2332121 138.743068,18.9429236 138.40726,19.5564056 C138.059824,20.1919178 137.546702,20.7241631 136.926489,21.0953121 C136.908895,21.1058683 136.902776,21.1280515 136.912873,21.1459511 L138.118112,23.3023173 L139.323199,25.4585305 C139.408566,25.6115186 139.298109,25.7999998 139.122785,25.7999998 L136.168127,25.7999998 C136.085361,25.7999998 136.009019,25.7554803 135.968325,25.6834229 M108.916523,13.7904399 L108.916523,15.9512428 L108.916523,18.1123516 C108.916523,18.1334639 108.899389,18.1505986 108.878276,18.1505986 L107.080667,18.1505986 L105.283058,18.1505986 C105.261945,18.1505986 105.244811,18.1334639 105.244811,18.1123516 L105.244811,15.9512428 L105.244811,13.7904399 C105.244811,13.6637658 105.142003,13.5609579 105.015329,13.5609579 L102.414532,13.5609579 C102.287705,13.5609579 102.18505,13.6637658 102.18505,13.7904399 L102.18505,17.7171835 L102.18505,21.6436212 L102.18505,25.5705178 C102.18505,25.6971919 102.287705,25.7999998 102.414532,25.7999998 L105.015329,25.7999998 C105.142003,25.7999998 105.244811,25.6971919 105.244811,25.5705178 L105.244811,23.4095619 L105.244811,21.2486061 C105.244811,21.2274937 105.261945,21.2103591 105.283058,21.2103591 L107.080667,21.2103591 L108.878276,21.2103591 C108.899389,21.2103591 108.916523,21.2274937 108.916523,21.2486061 L108.916523,23.4095619 L108.916523,25.5705178 C108.916523,25.6971919 109.019178,25.7999998 109.146005,25.7999998 L111.746802,25.7999998 C111.873476,25.7999998 111.976284,25.6971919 111.976284,25.5705178 L111.976284,21.6436212 L111.976284,17.7171835 L111.976284,13.7904399 C111.976284,13.6637658 111.873476,13.5609579 111.746802,13.5609579 L109.146005,13.5609579 C109.019178,13.5609579 108.916523,13.6637658 108.916523,13.7904399 M97.2986127,18.1925173 C96.873306,18.0132154 95.8326815,17.5478258 95.8326815,17.0867199 C95.8326815,16.6038897 96.7988009,16.6208713 97.2129394,16.6207184 C98.036627,16.6204124 99.1076961,16.7642211 100.010937,16.8947199 C100.149239,16.9147613 100.2727,16.8073637 100.2727,16.6675327 L100.2727,14.045165 C100.2727,13.929659 100.186874,13.8317467 100.072439,13.8172128 C98.867199,13.6626949 97.6610414,13.5609579 96.7539754,13.5609579 C95.6116138,13.5609579 94.574814,13.8796319 93.782183,14.6722629 C93.1722198,15.2822261 92.7762867,16.139265 92.7762867,17.2326705 C92.7762867,18.2928775 93.1765034,19.0481793 93.7378165,19.6094924 C94.4329941,20.304823 95.3752473,20.7021329 96.1098958,21.0117806 C97.3328821,21.5276562 97.65278,21.7429104 97.6729744,22.0911111 C97.7103035,22.7376385 96.6242415,22.7403923 95.9890353,22.7402393 C95.2566816,22.7400863 94.2833718,22.5630792 93.3643727,22.3498139 C93.220258,22.3163095 93.0822628,22.424931 93.0822628,22.5730234 L93.0822628,25.1546963 C93.0822628,25.2631648 93.1581449,25.3569465 93.2644715,25.3792827 C94.2778642,25.5913241 95.314817,25.7999998 96.1420233,25.7999998 C97.4877059,25.7999998 98.8121233,25.5360955 99.7640147,24.584204 C100.393713,23.9545053 100.731664,23.1089405 100.731664,22.1282872 C100.731664,21.0172882 100.303145,20.2217505 99.7145996,19.6332055 C98.9849997,18.9036057 98.0093951,18.4922209 97.2986127,18.1925173 M91.8583586,25.5705178 L91.8583586,24.4996016 C91.8583586,24.3729275 91.7555507,24.2701196 91.6288766,24.2701196 L89.9931286,24.2701196 L88.3570747,24.2701196 L86.7214797,24.2701196 C86.5398829,24.2701196 86.4301905,24.0693993 86.5282558,23.9165642 L88.2911368,21.1718061 C88.8567336,20.291054 89.4841375,19.3140725 90.0540178,18.426742 L91.8168989,15.6819838 C92.4052908,14.7655856 91.7474423,13.5609579 90.6583205,13.5609579 L88.7380149,13.5609579 L86.8175562,13.5609579 L84.8974035,13.5609579 C84.7705764,13.5609579 84.6679215,13.6637658 84.6679215,13.7904399 L84.6679215,14.8613561 C84.6679215,14.9880302 84.7705764,15.0908381 84.8974035,15.0908381 L86.5840965,15.0908381 L88.2707894,15.0908381 L89.9576354,15.0908381 C90.1392322,15.0908381 90.2489246,15.2915584 90.1508593,15.4442405 L88.3879783,18.1891516 C87.8223815,19.0700566 87.1949777,20.0468852 86.6250973,20.9342157 L84.8623693,23.6791268 C84.2738243,24.5953721 84.9318258,25.7999998 86.0207946,25.7999998 L87.8901552,25.7999998 L89.7593629,25.7999998 L91.6288766,25.7999998 C91.7555507,25.7999998 91.8583586,25.6971919 91.8583586,25.5705178 M83.4440173,14.8613561 L83.4440173,13.7904399 C83.4440173,13.6637658 83.3412093,13.5609579 83.2145352,13.5609579 L80.6519858,13.5609579 L78.0894364,13.5609579 C77.328933,13.5609579 76.7125442,14.1774996 76.7125442,14.9378501 L76.7125442,18.0996536 L76.7125442,21.2613041 L76.7125442,24.4231076 C76.7125442,25.1834581 77.328933,25.7999998 78.0894364,25.7999998 L80.6519858,25.7999998 L83.2145352,25.7999998 C83.3412093,25.7999998 83.4440173,25.6971919 83.4440173,25.5705178 L83.4440173,24.4996016 C83.4440173,24.3729275 83.3412093,24.2701196 83.2145352,24.2701196 L81.1107969,24.2701196 L79.0073646,24.2701196 C78.5848117,24.2701196 78.2424245,23.9277324 78.2424245,23.5051794 L78.2424245,21.9179287 L78.2424245,20.3306779 C78.2424245,20.3095656 78.2595591,20.2924309 78.2806715,20.2924309 L82.6025831,20.2924309 C82.7292572,20.2924309 82.8320652,20.189623 82.8320652,20.0629489 L82.8320652,18.9920327 C82.8320652,18.8653586 82.7292572,18.7625507 82.6025831,18.7625507 L78.2806715,18.7625507 C78.2595591,18.7625507 78.2424245,18.745416 78.2424245,18.7243037 L78.2424245,17.290194 L78.2424245,15.8557782 C78.2424245,15.4333783 78.5848117,15.0908381 79.0073646,15.0908381 L81.1107969,15.0908381 L83.2145352,15.0908381 C83.3412093,15.0908381 83.4440173,14.9880302 83.4440173,14.8613561 M61.8497577,20.445419 L63.6259486,20.445419 L65.4021396,20.445419 C65.4275356,20.445419 65.4457412,20.4213998 65.4390097,20.3969218 L64.7286863,17.8280998 L64.0338147,15.3152715 C63.9970976,15.1826309 63.87639,15.0908381 63.7388538,15.0908381 L63.5130435,15.0908381 C63.3755072,15.0908381 63.2547997,15.1826309 63.2182356,15.3152715 L62.523364,17.8280998 L61.8130406,20.3969218 C61.8063091,20.4213998 61.8245147,20.445419 61.8497577,20.445419 M66.8865824,25.631713 L66.3849347,23.817428 L65.8832869,22.003296 C65.8786973,21.9867733 65.8635515,21.9752992 65.8464168,21.9752992 L63.6259486,21.9752992 L61.4056334,21.9752992 C61.3883458,21.9752992 61.373353,21.9867733 61.3687633,22.003296 L60.8671156,23.817428 L60.3654679,25.631713 C60.33793,25.7311552 60.2473611,25.7999998 60.1442472,25.7999998 L59.0320243,25.7999998 C58.8804131,25.7999998 58.7704147,25.6554261 58.8108036,25.5093226 L59.5910425,22.6906712 C59.8293978,21.8298076 60.1003396,20.8508372 60.3712814,19.8717139 C60.6422232,18.8930495 60.913165,17.9142321 61.1516733,17.0527565 L61.8387425,14.5705258 C62.0038166,13.9740255 62.5467711,13.5609579 63.1657607,13.5609579 L64.0862896,13.5609579 C64.7052791,13.5609579 65.2480807,13.9740255 65.4133077,14.5705258 L66.1003769,17.0527565 C66.3388853,17.9142321 66.6098271,18.8930495 66.8806159,19.8717139 C67.1517106,20.8508372 67.4226524,21.8298076 67.6608548,22.6906712 L68.4410937,25.5093226 C68.4816355,25.6554261 68.3716371,25.7999998 68.219873,25.7999998 L67.1076501,25.7999998 C67.0045362,25.7999998 66.9141202,25.7311552 66.8865824,25.631713 M55.0280217,18.7740248 C53.5201717,17.9804759 52.5298802,17.3907071 52.5298802,16.4677303 C52.5298802,15.3539775 53.5701988,15.0908381 54.6717126,15.0908381 C55.6531308,15.0908381 56.6386796,15.1732987 57.6213217,15.3180253 C57.7599288,15.3383727 57.8844611,15.232352 57.8844611,15.092062 L57.8844611,14.0095188 C57.8844611,13.8949307 57.7997057,13.7970184 57.6863416,13.7811076 C56.6787625,13.6397467 55.6851052,13.5609579 54.6717126,13.5609579 C53.6079868,13.5609579 52.5359998,13.7566296 51.767082,14.5253944 C51.2741545,15.0184748 51,15.6810659 51,16.4677303 C51,17.340833 51.3661003,18.0087787 51.9118086,18.554334 C52.5630786,19.205604 53.4698387,19.6829266 54.3154035,20.1279688 C55.8097905,20.9144802 56.8135449,21.4623304 56.8135449,22.5872513 C56.8135449,24.0244208 55.7969395,24.2701196 54.3657365,24.2701196 C53.3523439,24.2701196 52.2369082,24.1653228 51.5789067,24.0381897 C51.4369338,24.0106519 51.305976,24.1186614 51.305976,24.2632351 L51.305976,25.3511329 C51.305976,25.4637321 51.3870597,25.5590437 51.497976,25.5777082 C52.2373671,25.7017815 53.2798275,25.7998468 54.3657365,25.7999998 C55.4644965,25.8001528 56.6135896,25.7108078 57.4709345,24.8533099 C58.0498411,24.2744032 58.3434252,23.4605069 58.3434252,22.4342633 C58.3434252,21.6125646 58.0203144,20.9363575 57.4316165,20.3476596 C56.7803465,19.6963896 55.8735865,19.219067 55.0280217,18.7740248 M128.470688,25.4600604 C127.756845,24.1321244 127.258257,22.8277485 126.927191,21.56881 C126.544721,20.1140469 126.386226,18.719867 126.37827,17.4199278 C126.368938,15.883775 126.569811,14.479345 126.860489,13.2621723 C127.278605,11.5104594 127.882449,10.1465712 128.312039,9.33649957 C128.401384,9.16775378 128.255127,8.96902233 128.067411,9.00405659 C126.013088,9.3859147 124.05377,9.91005167 122.277732,10.7155336 C120.438051,11.5497773 118.79496,12.6857134 117.446065,14.2778598 C116.267598,15.6688269 115.313871,17.4079947 114.649902,19.5983243 C114.135098,21.2969503 113.794546,23.2668241 113.658846,25.5559839 C113.650891,25.6878596 113.756452,25.7999998 113.888634,25.7999998 L116.808564,25.7999998 C116.934779,25.7999998 117.03621,25.6976508 117.036822,25.5714357 C117.043247,24.3588526 117.156152,23.1730424 117.381045,22.0383303 C117.617105,20.8468595 117.976474,19.7118414 118.46573,18.6618846 C118.972732,17.5736808 119.618954,16.5766578 120.411584,15.7023313 C121.192129,14.8411617 122.1148,14.0991697 123.186175,13.5064941 C123.353238,13.4139364 123.556406,13.5539204 123.52535,13.7424017 C123.360429,14.7447792 123.275979,15.7592428 123.266647,16.7746243 C123.257162,17.7900058 123.3231,18.8061523 123.459106,19.8117426 C123.595571,20.8199336 123.802411,21.8172626 124.074577,22.7927142 C124.348731,23.7752033 124.68913,24.7355091 125.090723,25.6615456 C125.127287,25.7456891 125.210972,25.7999998 125.302612,25.7999998 L128.269967,25.7999998 C128.444374,25.7999998 128.553301,25.6136604 128.470688,25.4600604 M71.6639394,24.2701196 L73.7673718,24.2701196 L75.8711101,24.2701196 C75.9977842,24.2701196 76.1005921,24.3729275 76.1005921,24.4996016 L76.1005921,25.5705178 C76.1005921,25.6971919 75.9977842,25.7999998 75.8711101,25.7999998 L73.3085607,25.7999998 L70.7460113,25.7999998 C69.9855078,25.7999998 69.3691191,25.1834581 69.3691191,24.4231076 L69.3691191,20.878834 L69.3691191,17.3347135 L69.3691191,13.7904399 C69.3691191,13.6637658 69.471774,13.5609579 69.5986011,13.5609579 L70.6695173,13.5609579 C70.7961914,13.5609579 70.8989993,13.6637658 70.8989993,13.7904399 L70.8989993,17.0285844 L70.8989993,20.2668819 L70.8989993,23.5051794 C70.8989993,23.9277324 71.2413865,24.2701196 71.6639394,24.2701196" id="logo_full"></path>
                    </g>
                </g>
            </g>
        </g>
    </g>
</svg>