<?xml version="1.0" encoding="UTF-8"?>
<svg width="20px" height="26px" viewBox="0 0 20 26" version="1.1" xmlns="http://www.w3.org/2000/svg" xmlns:xlink="http://www.w3.org/1999/xlink">
    <!-- Generator: sketchtool 52.6 (67491) - http://www.bohemiancoding.com/sketch -->
    <title>FC57B97F-2A79-4AF3-9B70-C4ECFFB9D15A</title>
    <desc>Created with sketchtool.</desc>
    <defs>
        <rect id="path-1" x="0" y="0" width="30" height="30"></rect>
    </defs>
    <g id="Import" stroke="none" stroke-width="1" fill="none" fill-rule="evenodd">
        <g id="Import_step-1" transform="translate(-161.000000, -114.000000)">
            <g id="Content" transform="translate(142.000000, 96.000000)">
                <g id="Group-Copy">
                    <g id="CSV-">
                        <g id="CSV-logo" transform="translate(15.000000, 15.000000)">
                            <mask id="mask-2" fill="white">
                                <use xlink:href="#path-1"></use>
                            </mask>
                            <g id="Rectangle" fill-rule="nonzero"></g>
                            <path d="M23.7212963,9.16782536 C23.7212963,8.93979422 23.6351852,8.71176307 23.462963,8.54073971 L18.6407407,3.41003893 C18.4685185,3.21051168 18.2101852,3.125 17.9518519,3.125 L5.8962963,3.125 C5.06388889,3.125 4.375,3.80909344 4.375,4.63570634 L4.375,27.2392937 C4.375,28.0659066 5.06388889,28.75 5.8962963,28.75 L22.2287037,28.75 C23.0611111,28.75 23.75,28.0659066 23.75,27.2392937 L23.7212963,9.16782536 Z M11.7231481,22.878198 C11.4648148,23.0777253 10.9481481,23.3912681 10.2305556,23.3912681 C8.85277778,23.3912681 7.96296296,22.4506396 7.96296296,21.1679644 C7.96296296,19.9137931 8.88148148,18.9731646 10.2305556,18.9731646 C10.8907407,18.9731646 11.35,19.2011958 11.6083333,19.3722191 C11.7805556,19.4862347 11.7805556,19.6572581 11.6944444,19.8282814 L11.5509259,20.0848165 C11.4361111,20.2843437 11.2925926,20.2843437 11.0916667,20.1703281 C10.8907407,20.0563126 10.6037037,19.942297 10.287963,19.942297 C9.42685185,19.942297 9.08240741,20.5408788 9.08240741,21.1679644 C9.08240741,21.7950501 9.45555556,22.4506396 10.287963,22.4506396 C10.6611111,22.4506396 10.9768519,22.2796162 11.1777778,22.1370968 C11.35,22.0230812 11.5222222,22.0230812 11.637037,22.1941046 L11.8092593,22.4221357 C11.8953704,22.5931591 11.8666667,22.7641824 11.7231481,22.878198 Z M14.1055556,23.3912681 C13.5027778,23.3912681 12.9574074,23.134733 12.7277778,22.9637097 C12.612963,22.8496941 12.4981481,22.7356785 12.6703704,22.5076474 L12.8712963,22.2511123 C12.9861111,22.080089 13.1296296,22.0515851 13.3305556,22.1656007 C13.4740741,22.2511123 13.7324074,22.4221357 14.1055556,22.4221357 C14.4212963,22.4221357 14.5648148,22.2796162 14.5648148,22.1370968 C14.5648148,21.538515 12.6703704,21.6240267 12.6703704,20.2843437 C12.6703704,19.4862347 13.3305556,18.9731646 14.2203704,18.9731646 C14.7083333,18.9731646 15.1675926,19.144188 15.3972222,19.2867075 C15.5694444,19.400723 15.5981481,19.5717464 15.512037,19.7427697 L15.3685185,20.0278087 C15.2537037,20.2558398 15.0814815,20.2273359 14.9092593,20.1418242 C14.7083333,20.0563126 14.5074074,19.942297 14.2203704,19.942297 C13.8759259,19.942297 13.7611111,20.0848165 13.7611111,20.2273359 C13.7611111,20.8544216 15.6555556,20.7119021 15.6555556,22.0515851 C15.5981481,22.7641824 15.0814815,23.3912681 14.1055556,23.3912681 Z M20.162037,19.400723 L18.8703704,23.0492214 C18.812963,23.2202447 18.6694444,23.3057564 18.4972222,23.3057564 L17.9805556,23.3057564 C17.7796296,23.3057564 17.6648148,23.2202447 17.6074074,23.0492214 L16.3157407,19.400723 C16.2296296,19.1726919 16.3444444,19.0301724 16.5740741,19.0301724 L17.0333333,19.0301724 C17.2342593,19.0301724 17.3490741,19.1156841 17.4064815,19.3152113 L18.0953704,21.4815072 C18.1814815,21.7380423 18.2675926,22.1656007 18.2675926,22.1656007 C18.2675926,22.1656007 18.3537037,21.7380423 18.4398148,21.4815072 L19.1287037,19.3152113 C19.1861111,19.1156841 19.3009259,19.0301724 19.5018519,19.0301724 L19.9324074,19.0301724 C20.1333333,19.0301724 20.2481481,19.1726919 20.162037,19.400723 Z M22.4009259,9.45286429 L19.2435185,9.45286429 C18.4111111,9.45286429 17.7222222,8.76877086 17.7222222,7.94215795 L17.7222222,4.57869855 C17.7222222,4.49318687 17.837037,4.46468298 17.8944444,4.52169077 L22.487037,9.28184093 C22.5157407,9.33884872 22.487037,9.45286429 22.4009259,9.45286429 Z" id="Shape" fill="#4C7919" fill-rule="nonzero" mask="url(#mask-2)"></path>
                        </g>
                    </g>
                </g>
            </g>
        </g>
    </g>
</svg>