<?xml version="1.0" encoding="UTF-8"?>
<svg width="291px" height="28px" viewBox="0 0 291 28" version="1.1" xmlns="http://www.w3.org/2000/svg" xmlns:xlink="http://www.w3.org/1999/xlink">
    <defs>
        <path d="M122.890249,0.765966102 C119.61528,1.36962712 116.489565,2.19918644 113.658531,3.47294915 L113.658531,3.47294915 C110.72608,4.79322034 108.104575,6.5899661 105.953792,9.1080678 L105.953792,9.1080678 C104.074727,11.3091525 102.553489,14.0607458 101.495319,17.5242034 L101.495319,17.5242034 C100.674424,20.2122034 100.130988,23.3282712 99.9147616,26.9492881 L99.9147616,26.9492881 C99.9023238,27.1581017 100.069756,27.3365424 100.282155,27.3365424 L100.282155,27.3365424 L104.937719,27.3365424 C105.139594,27.3365424 105.301286,27.1742373 105.302243,26.9749153 L105.302243,26.9749153 C105.312767,25.0557288 105.49168,23.1792542 105.850463,21.3853559 L105.850463,21.3853559 C106.226467,19.500339 106.800519,17.7045424 107.579317,16.0435254 L107.579317,16.0435254 C108.38873,14.3227119 109.420111,12.7452203 110.683026,11.3613559 L110.683026,11.3613559 C111.927763,10.0002712 113.398294,8.82522034 115.107056,7.88840678 L115.107056,7.88840678 C115.37399,7.74223729 115.697373,7.96338983 115.648579,8.26047458 L115.648579,8.26047458 C115.385471,9.84745763 115.250569,11.4515254 115.235261,13.0584407 L115.235261,13.0584407 C115.22091,14.6644068 115.325196,16.271322 115.543336,17.8630508 L115.543336,17.8630508 C115.759562,19.4576271 116.089642,21.0351186 116.524009,22.5774915 L116.524009,22.5774915 C116.961245,24.1331525 117.504681,25.6517966 118.143793,27.116339 L118.143793,27.116339 C118.203112,27.2501695 118.335144,27.3365424 118.482484,27.3365424 L118.482484,27.3365424 L123.214588,27.3365424 C123.492047,27.3365424 123.666176,27.0413559 123.534144,26.7983729 L123.534144,26.7983729 C122.395607,24.6969492 121.600544,22.6334915 121.072416,20.6421695 L121.072416,20.6421695 C120.462964,18.3404746 120.209424,16.1355932 120.197943,14.0787797 L120.197943,14.0787797 C120.183592,11.6489492 120.502191,9.42698305 120.967173,7.50210169 L120.967173,7.50210169 C121.633074,4.73057627 122.595568,2.57220339 123.281561,1.29179661 L123.281561,1.29179661 C123.412636,1.0459661 123.224156,0.760271186 122.959135,0.760271186 L122.959135,0.760271186 C122.93713,0.760271186 122.913211,0.761220339 122.890249,0.765966102 L122.890249,0.765966102 Z M152.982071,7.97477966 C152.852909,7.97477966 152.732358,8.04122034 152.667299,8.15037288 L152.667299,8.15037288 L150.438062,11.8397288 L148.209783,15.5300339 C148.177253,15.5822373 148.095929,15.5604068 148.095929,15.499661 L148.095929,15.499661 L148.095929,11.9185085 L148.095929,8.33735593 C148.095929,8.13708475 147.932324,7.97477966 147.730449,7.97477966 L147.730449,7.97477966 L143.582921,7.97477966 C143.382003,7.97477966 143.217441,8.13708475 143.217441,8.33735593 L143.217441,8.33735593 L143.217441,14.5486102 L143.217441,20.7598644 L143.217441,26.9730169 C143.217441,27.1732881 143.382003,27.3365424 143.582921,27.3365424 L143.582921,27.3365424 L147.730449,27.3365424 C147.932324,27.3365424 148.095929,27.1732881 148.095929,26.9730169 L148.095929,26.9730169 L148.095929,22.655322 L148.095929,18.3376271 C148.095929,18.2759322 148.177253,18.2541017 148.208826,18.3063051 L148.208826,18.3063051 L150.926007,22.7341017 L153.643188,27.1618983 C153.709204,27.2691525 153.826884,27.3365424 153.955089,27.3365424 L153.955089,27.3365424 L158.667102,27.3365424 C158.951258,27.3365424 159.127301,27.0252203 158.979004,26.7831864 L158.979004,26.7831864 L156.013067,21.9501017 L153.048087,17.1160678 C152.97633,17.0002712 152.97633,16.856 153.046173,16.7411525 L153.046173,16.7411525 L155.52895,12.6322712 L158.010769,8.52433898 C158.156196,8.28230508 157.980153,7.97477966 157.695997,7.97477966 L157.695997,7.97477966 L152.982071,7.97477966 Z M129.725298,7.97477966 L125.896369,7.97477966 C125.694494,7.97477966 125.529933,8.13708475 125.529933,8.33735593 L125.529933,8.33735593 L125.529933,14.5486102 L125.529933,20.7598644 L125.529933,26.9730169 C125.529933,27.1732881 125.694494,27.3365424 125.896369,27.3365424 L125.896369,27.3365424 L130.04294,27.3365424 C130.245772,27.3365424 130.409377,27.1732881 130.409377,26.9730169 L130.409377,26.9730169 L130.409377,23.9176949 L130.409377,20.8614237 C130.409377,20.8282034 130.437123,20.8016271 130.470609,20.8016271 L130.470609,20.8016271 L131.660811,20.8016271 C131.791886,20.8016271 131.913394,20.8718644 131.978453,20.9857627 L131.978453,20.9857627 L133.734097,24.0686102 L135.48974,27.1514576 C135.554799,27.2653559 135.67535,27.3365424 135.808339,27.3365424 L135.808339,27.3365424 L140.519395,27.3365424 C140.798767,27.3365424 140.975767,27.0375593 140.838951,26.7955254 L140.838951,26.7955254 L138.917789,23.3842712 L136.995671,19.9730169 C136.979406,19.9454915 136.98993,19.9094237 137.017676,19.8932881 L137.017676,19.8932881 C138.006003,19.3067119 138.824984,18.4638644 139.377988,17.4587119 L139.377988,17.4587119 C139.91377,16.4877288 140.203666,15.3658305 140.163483,14.1727458 L140.163483,14.1727458 C140.107034,12.4272542 139.32728,10.8734915 138.122727,9.75823729 L138.122727,9.75823729 C136.924871,8.64962712 135.306043,7.97477966 133.555184,7.97477966 L133.555184,7.97477966 L129.725298,7.97477966 Z M130.409377,15.9002034 L130.409377,12.8752542 C130.409377,12.8420339 130.437123,12.8145085 130.470609,12.8145085 L130.470609,12.8145085 L133.636508,12.8145085 C134.504284,12.8145085 135.262033,13.4789153 135.287865,14.3397966 L135.287865,14.3397966 C135.313697,15.2310508 134.595175,15.9609492 133.702524,15.9609492 L133.702524,15.9609492 L130.470609,15.9609492 C130.437123,15.9609492 130.409377,15.9343729 130.409377,15.9002034 L130.409377,15.9002034 Z M92.7190159,7.97477966 C92.5171408,7.97477966 92.3535359,8.13708475 92.3535359,8.33735593 L92.3535359,8.33735593 L92.3535359,11.7552542 L92.3535359,15.1741017 C92.3535359,15.207322 92.3257901,15.2348475 92.2923037,15.2348475 L92.2923037,15.2348475 L89.4258691,15.2348475 L86.5584778,15.2348475 C86.5249914,15.2348475 86.4991591,15.207322 86.4991591,15.1741017 L86.4991591,15.1741017 L86.4991591,11.7552542 L86.4991591,8.33735593 C86.4991591,8.13708475 86.3345974,7.97477966 86.1317656,7.97477966 L86.1317656,7.97477966 L81.9851944,7.97477966 C81.7823626,7.97477966 81.6187577,8.13708475 81.6187577,8.33735593 L81.6187577,8.33735593 L81.6187577,14.5486102 L81.6187577,20.7598644 L81.6187577,26.9730169 C81.6187577,27.1732881 81.7823626,27.3365424 81.9851944,27.3365424 L81.9851944,27.3365424 L86.1317656,27.3365424 C86.3345974,27.3365424 86.4991591,27.1732881 86.4991591,26.9730169 L86.4991591,26.9730169 L86.4991591,23.5541695 L86.4991591,20.135322 C86.4991591,20.1021017 86.5249914,20.0755254 86.5584778,20.0755254 L86.5584778,20.0755254 L89.4258691,20.0755254 L92.2923037,20.0755254 C92.3257901,20.0755254 92.3535359,20.1021017 92.3535359,20.135322 L92.3535359,20.135322 L92.3535359,23.5541695 L92.3535359,26.9730169 C92.3535359,27.1732881 92.5171408,27.3365424 92.7190159,27.3365424 L92.7190159,27.3365424 L96.8665438,27.3365424 C97.0684189,27.3365424 97.2320238,27.1732881 97.2320238,26.9730169 L97.2320238,26.9730169 L97.2320238,20.7598644 L97.2320238,14.5486102 L97.2320238,8.33735593 C97.2320238,8.13708475 97.0684189,7.97477966 96.8665438,7.97477966 L96.8665438,7.97477966 L92.7190159,7.97477966 Z M68.21942,9.73166102 C67.2473581,10.6969492 66.6159005,12.0532881 66.6159005,13.7826441 L66.6159005,13.7826441 C66.6159005,15.4597966 67.2540553,16.6557288 68.1495769,17.5422373 L68.1495769,17.5422373 C69.2584547,18.6423051 70.7605582,19.2715932 71.9316249,19.7613559 L71.9316249,19.7613559 C73.882446,20.5776271 74.3923958,20.9183729 74.4239687,21.4679322 L74.4239687,21.4679322 C74.4842442,22.4911186 72.751563,22.4958644 71.7393174,22.4958644 L71.7393174,22.4958644 C70.5701642,22.4949153 69.0192662,22.2149153 67.554476,21.8779661 L67.554476,21.8779661 C67.3238984,21.8248136 67.103845,21.9975593 67.103845,22.2301017 L67.103845,22.2301017 L67.103845,26.3143051 C67.103845,26.4861017 67.2253527,26.6351186 67.3937414,26.6702373 L67.3937414,26.6702373 C69.0106554,27.0052881 70.6639261,27.3365424 71.9823329,27.3365424 L71.9823329,27.3365424 C74.1283318,27.3365424 76.2408443,26.9179661 77.7582559,25.4126102 L77.7582559,25.4126102 C78.7628474,24.416 79.3005431,23.0786441 79.3005431,21.5277288 L79.3005431,21.5277288 C79.3005431,19.7698983 78.6183776,18.511322 77.6807588,17.5802034 L77.6807588,17.5802034 C76.5163894,16.4269831 74.9597509,15.7758644 73.8269543,15.300339 L73.8269543,15.300339 C73.1486158,15.0174915 71.4896046,14.2818983 71.4896046,13.552 L71.4896046,13.552 C71.4896046,12.7888814 73.0299783,12.8145085 73.6910953,12.8145085 L73.6910953,12.8145085 C75.0037615,12.8135593 76.7125239,13.0423051 78.1524385,13.2482712 L78.1524385,13.2482712 C78.3724919,13.2795932 78.5695832,13.1096949 78.5695832,12.8894915 L78.5695832,12.8894915 L78.5695832,8.73979661 C78.5695832,8.55850847 78.4327674,8.40284746 78.2500274,8.3800678 L78.2500274,8.3800678 C76.3288656,8.13518644 74.4057904,7.97477966 72.9591786,7.97477966 L72.9591786,7.97477966 C71.1375192,7.97477966 69.4842486,8.47877966 68.21942,9.73166102 L68.21942,9.73166102 Z M60.1759903,7.97477966 L57.114378,7.97477966 L54.0537224,7.97477966 C53.8499339,7.97477966 53.686329,8.13708475 53.686329,8.33735593 L53.686329,8.33735593 L53.686329,10.0315932 C53.686329,10.2318644 53.8499339,10.3951186 54.0537224,10.3951186 L54.0537224,10.3951186 L56.741244,10.3951186 L59.4316358,10.3951186 L62.1220277,10.3951186 C62.4119241,10.3951186 62.5860533,10.7121356 62.4291457,10.9532203 L62.4291457,10.9532203 L59.6182028,15.2955932 C58.7169407,16.6898983 57.7161762,18.2351186 56.80726,19.6379661 L56.80726,19.6379661 L53.9963172,23.980339 C53.0577417,25.4306441 54.1063439,27.3365424 55.8438089,27.3365424 L55.8438089,27.3365424 L58.8240971,27.3365424 L61.8043854,27.3365424 L64.7865872,27.3365424 C64.9884622,27.3365424 65.1530239,27.1732881 65.1530239,26.9730169 L65.1530239,26.9730169 L65.1530239,25.2778305 C65.1530239,25.0785085 64.9884622,24.9162034 64.7865872,24.9162034 L64.7865872,24.9162034 L62.1775194,24.9162034 L59.5694084,24.9162034 L56.9612974,24.9162034 C56.671401,24.9162034 56.4972718,24.5982373 56.6532226,24.3552542 L56.6532226,24.3552542 L59.4641655,20.0147797 C60.3654276,18.6214237 61.3661921,17.0752542 62.2751083,15.6714576 L62.2751083,15.6714576 L65.0860511,11.3300339 C66.0246266,9.88067797 64.9750677,7.97477966 63.2395162,7.97477966 L63.2395162,7.97477966 L60.1759903,7.97477966 Z M47.2827754,7.97477966 L43.1964797,7.97477966 C41.9842726,7.97477966 41.0007296,8.95050847 41.0007296,10.1530847 L41.0007296,10.1530847 L41.0007296,15.1551186 L41.0007296,20.1562034 L41.0007296,25.1572881 C41.0007296,26.3598644 41.9842726,27.3365424 43.1964797,27.3365424 L43.1964797,27.3365424 L47.2827754,27.3365424 L51.3681144,27.3365424 C51.5719029,27.3365424 51.7345511,27.1732881 51.7345511,26.9730169 L51.7345511,26.9730169 L51.7345511,25.2778305 C51.7345511,25.0785085 51.5719029,24.9162034 51.3681144,24.9162034 L51.3681144,24.9162034 L48.0146921,24.9162034 L44.6593563,24.9162034 C43.9867584,24.9162034 43.4404519,24.3732881 43.4404519,23.7050847 L43.4404519,23.7050847 L43.4404519,21.1936271 L43.4404519,18.6831186 C43.4404519,18.6498983 43.4681978,18.6223729 43.5016842,18.6223729 L43.5016842,18.6223729 L50.3931822,18.6223729 C50.5950573,18.6223729 50.7596189,18.4600678 50.7596189,18.2597966 L50.7596189,18.2597966 L50.7596189,16.5665085 C50.7596189,16.3662373 50.5950573,16.2029831 50.3931822,16.2029831 L50.3931822,16.2029831 L43.5016842,16.2029831 C43.4681978,16.2029831 43.4404519,16.1764068 43.4404519,16.1431864 L43.4404519,16.1431864 L43.4404519,13.8737627 L43.4404519,11.604339 C43.4404519,10.9361356 43.9867584,10.3951186 44.6593563,10.3951186 L44.6593563,10.3951186 L48.0146921,10.3951186 L51.3681144,10.3951186 C51.5719029,10.3951186 51.7345511,10.2318644 51.7345511,10.0315932 L51.7345511,10.0315932 L51.7345511,8.33735593 C51.7345511,8.13708475 51.5719029,7.97477966 51.3681144,7.97477966 L51.3681144,7.97477966 L47.2827754,7.97477966 Z M29.6574559,7.97477966 C29.4546241,7.97477966 29.2910192,8.13708475 29.2910192,8.33735593 L29.2910192,8.33735593 L29.2910192,13.944 L29.2910192,19.5506441 L29.2910192,25.1572881 C29.2910192,26.3598644 30.2745622,27.3365424 31.4867693,27.3365424 L31.4867693,27.3365424 L35.573065,27.3365424 L39.6593607,27.3365424 C39.8612358,27.3365424 40.0248407,27.1732881 40.0248407,26.9730169 L40.0248407,26.9730169 L40.0248407,25.2778305 C40.0248407,25.0785085 39.8612358,24.9162034 39.6593607,24.9162034 L39.6593607,24.9162034 L36.3049817,24.9162034 L32.9496459,24.9162034 C32.277048,24.9162034 31.7307415,24.3732881 31.7307415,23.7050847 L31.7307415,23.7050847 L31.7307415,18.5825085 L31.7307415,13.4599322 L31.7307415,8.33735593 C31.7307415,8.13708475 31.5661799,7.97477966 31.3643048,7.97477966 L31.3643048,7.97477966 L29.6574559,7.97477966 Z M19.3991411,7.97477966 C18.4117711,7.97477966 17.5468657,8.62874576 17.2837584,9.57220339 L17.2837584,9.57220339 L16.1882752,13.4978983 C15.8065304,14.8608814 15.3750344,16.4098983 14.9435384,17.9570169 L14.9435384,17.9570169 C14.5110857,19.5060339 14.0795897,21.056 13.6988017,22.4161356 L13.6988017,22.4161356 L12.4550217,26.8762034 C12.3909191,27.1068475 12.5660051,27.3365424 12.8080638,27.3365424 L12.8080638,27.3365424 L14.5809287,27.3365424 C14.7454904,27.3365424 14.890917,27.2264407 14.9339709,27.0688814 L14.9339709,27.0688814 L15.7347739,24.1995932 L16.5336633,21.3303051 C16.5413174,21.3037288 16.5642795,21.2856949 16.5929821,21.2856949 L16.5929821,21.2856949 L20.1329713,21.2856949 L23.6748741,21.2856949 C23.7007064,21.2856949 23.725582,21.3037288 23.7332361,21.3303051 L23.7332361,21.3303051 L24.5330823,24.1995932 L25.3329285,27.0688814 C25.3769392,27.2264407 25.5204523,27.3365424 25.6850139,27.3365424 L25.6850139,27.3365424 L27.4588356,27.3365424 C27.7008943,27.3365424 27.8759803,27.1068475 27.810921,26.8762034 L27.810921,26.8762034 L26.5680977,22.4161356 C26.1873097,21.056 25.7558137,19.5060339 25.323361,17.9570169 L25.323361,17.9570169 C24.8909082,16.4098983 24.4584555,14.8608814 24.0786242,13.4978983 L24.0786242,13.4978983 L22.9840978,9.57220339 C22.7200337,8.62874576 21.8541715,7.97477966 20.8677583,7.97477966 L20.8677583,7.97477966 L19.3991411,7.97477966 Z M17.2416612,18.7875254 L18.3754145,14.7242034 L19.4823787,10.7501017 C19.5407407,10.5393898 19.734005,10.3951186 19.9540584,10.3951186 L19.9540584,10.3951186 L20.3137978,10.3951186 C20.5328944,10.3951186 20.725202,10.5393898 20.7826072,10.7501017 L20.7826072,10.7501017 L21.8914849,14.7242034 L23.0242815,18.7875254 C23.0348058,18.8273898 23.0061031,18.8653559 22.9659195,18.8653559 L22.9659195,18.8653559 L20.1329713,18.8653559 L17.3009799,18.8653559 C17.2607963,18.8653559 17.2320936,18.8273898 17.2416612,18.7875254 L17.2416612,18.7875254 Z M1.22273142,9.5000678 C0.437236511,10.2802712 0,11.3281356 0,12.5734237 L0,12.5734237 C0,13.9544407 0.58361985,15.0108475 1.4533091,15.8736271 L1.4533091,15.8736271 C2.49234379,16.9034576 3.93895561,17.6589831 5.28606504,18.3623051 L5.28606504,18.3623051 C7.66933889,19.6075932 9.26998808,20.4741695 9.26998808,22.2538305 L9.26998808,22.2538305 C9.26998808,24.5261017 7.64924705,24.9162034 5.36738912,24.9162034 L5.36738912,24.9162034 C3.75143186,24.9162034 1.97282644,24.7501017 0.923267468,24.5488814 L0.923267468,24.5488814 C0.697473559,24.5052203 0.487944465,24.6760678 0.487944465,24.9048136 L0.487944465,24.9048136 L0.487944465,26.6265763 C0.487944465,26.8040678 0.617106235,26.9540339 0.794105698,26.9844068 L0.794105698,26.9844068 C1.9737832,27.1808814 3.63566464,27.3355932 5.36738912,27.3365424 L5.36738912,27.3365424 C7.11824867,27.3365424 8.95138905,27.1941695 10.3195471,25.8378305 L10.3195471,25.8378305 C11.2418578,24.9218983 11.7097104,23.6348475 11.7097104,22.0108475 L11.7097104,22.0108475 C11.7097104,20.7114576 11.1940201,19.6417627 10.2564013,18.7096949 L10.2564013,18.7096949 C9.21640987,17.6808136 7.77171155,16.924339 6.42268861,16.2219661 L6.42268861,16.2219661 C4.01836618,14.9662373 2.43972233,14.0332203 2.43972233,12.5734237 L2.43972233,12.5734237 C2.43972233,10.8108475 4.09777675,10.3951186 5.85437683,10.3951186 L5.85437683,10.3951186 C7.41962613,10.3951186 8.99157271,10.5251525 10.5577788,10.7538983 L10.5577788,10.7538983 C10.7797457,10.7861695 10.9777937,10.6181695 10.9777937,10.3960678 L10.9777937,10.3960678 L10.9777937,8.68379661 C10.9777937,8.50345763 10.8428914,8.34779661 10.6620649,8.32216949 L10.6620649,8.32216949 C9.05567522,8.09816949 7.47033408,7.97477966 5.85437683,7.97477966 L5.85437683,7.97477966 C4.159009,7.97477966 2.44833311,8.28420339 1.22273142,9.5000678 L1.22273142,9.5000678 Z" id="path-1"></path>
        <linearGradient x1="-3.00803954e-07%" y1="68.0021482%" x2="66.4519248%" y2="68.0021482%" id="linearGradient-3">
            <stop stop-color="#0155FF" offset="0%"></stop>
            <stop stop-color="#410093" offset="100%"></stop>
        </linearGradient>
    </defs>
    <g id="Pricing-Page" stroke="none" stroke-width="1" fill="none" fill-rule="evenodd">
        <g id="Pricing-Page_v3" transform="translate(-39.000000, -17.000000)">
            <g id="Header" transform="translate(0.000000, 11.000000)">
                <g id="Sub-Header" transform="translate(38.000000, 0.000000)">
                    <g id="New_Logo" transform="translate(1.000000, 6.000000)">
                        <g id="Connect" transform="translate(165.000000, 7.000000)">
                            <path d="M112.37225,1.50163296 L125.947867,1.50163296 L125.947867,3.03195135 L120.041057,3.03195135 L120.041057,20.4986888 L118.279377,20.4986888 L118.279377,3.03195135 L112.37225,3.03195135 L112.37225,1.50163296 Z M108.590135,7.01637788 C108.228068,5.39789565 107.554168,4.24533037 106.570016,3.55964734 C105.585232,2.87364255 104.298409,2.53064015 102.709548,2.53064015 C101.586382,2.53064015 100.619606,2.75941567 99.8079565,3.21664495 C98.9959912,3.67419599 98.3265148,4.28973406 97.8001591,5.06358093 C97.2731715,5.83807134 96.8845656,6.73032804 96.6343413,7.74163811 C96.384117,8.75326995 96.2586889,9.82185434 96.2586889,10.9470695 C96.2586889,12.003105 96.3661084,13.0407999 96.5825272,14.0607977 C96.7979981,15.0811172 97.1565898,15.9913928 97.6576703,16.7919462 C98.1587508,17.5924996 98.8320185,18.2386055 99.6784212,18.7309072 C100.524508,19.2235307 101.586382,19.4696816 102.86499,19.4696816 C103.659263,19.4696816 104.384344,19.3377576 105.040867,19.0735879 C105.69739,18.8100616 106.271769,18.4451791 106.763687,17.9789404 C107.256237,17.5133452 107.67075,16.9634474 108.007858,16.3298904 C108.344018,15.6966552 108.598981,15.0019628 108.7718,14.2451695 L110.611202,14.2451695 C110.403945,15.1602716 110.101591,16.0264652 109.704771,16.8447158 C109.306686,17.6623228 108.784754,18.3792171 108.137393,18.9947552 C107.489401,19.6106151 106.703343,20.0987339 105.779535,20.4591116 C104.855095,20.8194894 103.771421,21 102.528198,21 C101.094147,21 99.8679851,20.7316473 98.8490792,20.1955854 C97.8298575,19.6588799 96.9967242,18.9336197 96.3493636,18.0185176 C95.7013711,17.1040591 95.2306208,16.0441624 94.9374286,14.8391493 C94.6432887,13.6344579 94.4970086,12.3547951 94.4970086,11.0001609 C94.4970086,9.18894091 94.7172186,7.64896954 95.1579546,6.38282092 C95.5977428,5.11635053 96.2068747,4.08316038 96.9837707,3.28260695 C97.7612985,2.48269704 98.6762602,1.90190968 99.7302353,1.54121016 C100.783579,1.18115417 101.93202,1 103.176191,1 C104.12559,1 105.010537,1.12838457 105.831349,1.38290136 C106.651528,1.63806168 107.376926,2.02064128 108.007858,2.53064015 C108.637842,3.04096079 109.155983,3.66969127 109.561966,4.41715334 C109.967632,5.16493718 110.248187,6.03113085 110.403945,7.01637788 L108.590135,7.01637788 Z M79.5224101,20.4986888 L79.5224101,1.50163296 L91.9325253,1.50163296 L91.9325253,3.03195135 L81.2844064,3.03195135 L81.2844064,9.89199929 L90.8956109,9.89199929 L90.8956109,11.4223177 L81.2844064,11.4223177 L81.2844064,18.9683704 L92.1915959,18.9683704 L92.1915959,20.4986888 L79.5224101,20.4986888 Z M62.5801387,3.92903454 L62.5283245,3.92903454 L62.5283245,20.4986888 L60.7666442,20.4986888 L60.7666442,1.50163296 L62.761804,1.50163296 L73.5388264,18.097672 L73.5906405,18.097672 L73.5906405,1.50163296 L75.3523208,1.50163296 L75.3523208,20.4986888 L73.3056628,20.4986888 L62.5801387,3.92903454 Z M43.875555,3.92903454 L43.8237409,3.92903454 L43.8237409,20.4986888 L42.0620606,20.4986888 L42.0620606,1.50163296 L44.0569044,1.50163296 L54.8342427,18.097672 L54.8860568,18.097672 L54.8860568,1.50163296 L56.6477371,1.50163296 L56.6477371,20.4986888 L54.6010791,20.4986888 L43.875555,3.92903454 Z M15.0413097,7.01637788 C14.6789267,5.39789565 14.0050271,4.24533037 13.0208747,3.55964734 C12.0360903,2.87364255 10.7495835,2.53064015 9.16040632,2.53064015 C8.03755629,2.53064015 7.07046458,2.75941567 6.25913118,3.21664495 C5.44684997,3.67419599 4.77737355,4.28973406 4.25101785,5.06358093 C3.72403027,5.83807134 3.33542433,6.73032804 3.08551595,7.74163811 C2.83497569,8.75326995 2.70954759,9.82185434 2.70954759,10.9470695 C2.70954759,12.003105 2.81696712,13.0407999 3.03370182,14.0607977 C3.24885682,15.0811172 3.60744849,15.9913928 4.108529,16.7919462 C4.60960952,17.5924996 5.28287722,18.2386055 6.12959587,18.7309072 C6.9753667,19.2235307 8.03755629,19.4696816 9.31616464,19.4696816 C10.1101213,19.4696816 10.8352032,19.3377576 11.4917261,19.0735879 C12.148249,18.8100616 12.7229434,18.4451791 13.2145458,17.9789404 C13.7070959,17.5133452 14.1216089,16.9634474 14.4587167,16.3298904 C14.7948766,15.6966552 15.04984,15.0019628 15.2226591,14.2451695 L17.0620606,14.2451695 C16.8548041,15.1602716 16.5524497,16.0264652 16.1556293,16.8447158 C15.7575452,17.6623228 15.2356126,18.3792171 14.588252,18.9947552 C13.9402595,19.6106151 13.1542013,20.0987339 12.2303933,20.4591116 C11.3059535,20.8194894 10.2225959,21 8.97905688,21 C7.54500615,21 6.31884381,20.7316473 5.30025391,20.1955854 C4.28071619,19.6588799 3.44758295,18.9336197 2.80053825,18.0185176 C2.15254574,17.1040591 1.6814795,16.0441624 1.38860331,14.8391493 C1.09414742,13.6344579 0.947867299,12.3547951 0.947867299,11.0001609 C0.947867299,9.18894091 1.16807734,7.64896954 1.60881335,6.38282092 C2.04891748,5.11635053 2.65773347,4.08316038 3.43462942,3.28260695 C4.21215726,2.48269704 5.12743484,1.90190968 6.18140999,1.54121016 C7.23475327,1.18115417 8.38287848,1 9.62704939,1 C10.5767644,1 11.4617118,1.12838457 12.2822074,1.38290136 C13.1023871,1.63806168 13.8281008,2.02064128 14.4587167,2.53064015 C15.0887006,3.04096079 15.6071578,3.66969127 16.0131405,4.41715334 C16.4184912,5.16493718 16.6993617,6.03113085 16.8548041,7.01637788 L15.0413097,7.01637788 Z" id="Fill-1" fill="#400093"></path>
                            <g id="Group-27" transform="translate(18.947867, 0.000000)">
                                <path d="M10.1320929,1.50579692 C10.1320929,2.21947385 9.55209101,2.79810462 8.83672291,2.79810462 C8.1213548,2.79810462 7.54135287,2.21947385 7.54135287,1.50579692 C7.54135287,0.79212 8.1213548,0.213489231 8.83672291,0.213489231 C9.55209101,0.213489231 10.1320929,0.79212 10.1320929,1.50579692" id="Fill-9" fill="#400093"></path>
                                <path d="M11.467328,2.61385385 C15.4369894,3.18376154 18.4979488,6.59803846 18.4979488,10.7133923 C18.4979488,11.0552077 18.4743083,11.3912077 18.4335042,11.7217154 C18.6627847,11.5979769 18.9208872,11.5210846 19.1997156,11.5210846 C19.7062052,11.5210846 20.1527841,11.7582231 20.4494238,12.1213615 C20.5135446,11.6606538 20.5491673,11.1912231 20.5491673,10.7133923 C20.5491673,5.51702308 16.6445982,1.21622308 11.6094948,0.569746154 C11.1593538,0.676038462 10.8254721,1.05436154 10.7798103,1.5057 C10.7318816,1.98062308 11.0133008,2.43713077 11.467328,2.61385385" id="Fill-11" fill="#400093"></path>
                                <path d="M20.8188957,11.5211815 C20.8188957,12.2348585 20.2388938,12.8134892 19.5235257,12.8134892 C18.8081576,12.8134892 18.2281556,12.2348585 18.2281556,11.5211815 C18.2281556,10.8075046 18.8081576,10.2288738 19.5235257,10.2288738 C20.2388938,10.2288738 20.8188957,10.8075046 20.8188957,11.5211815" id="Fill-13" fill="#400093"></path>
                                <path d="M20.1712107,11.5211815 C20.1712107,11.8778585 19.8810478,12.1673354 19.5235257,12.1673354 C19.1660035,12.1673354 18.8758407,11.8778585 18.8758407,11.5211815 C18.8758407,11.1645046 19.1660035,10.8750277 19.5235257,10.8750277 C19.8810478,10.8750277 20.1712107,11.1645046 20.1712107,11.5211815" id="Fill-15" fill="#FFFFFF"></path>
                                <path d="M17.8189159,13.9694908 C16.5546347,16.8668446 13.6581873,18.8980292 10.2941113,18.8980292 C7.49449286,18.8980292 5.01904073,17.4907062 3.5377851,15.3493523 C3.29943701,15.9447831 1.83145892,16.3554138 1.7330108,16.3366754 C3.56952166,19.1099677 6.72050927,20.9443985 10.2941113,20.9443985 C14.5519926,20.9443985 18.2117368,18.3410446 19.759704,14.64666 C19.8675436,14.1523523 19.624014,13.6570754 19.1997803,13.4596754 C18.7123973,13.2328754 18.0854383,13.4448138 17.8189159,13.9694908" id="Fill-17" fill="#400093"></path>
                                <path d="M2.48037454,13.2059631 C2.22777738,12.4195938 2.09014432,11.5825015 2.09014432,10.7134246 C2.09014432,6.59807077 5.1511037,3.18379385 9.12076517,2.61388615 C8.84614672,2.32440923 8.67483404,1.93607077 8.67483404,1.50573231 C8.67483404,1.15584 8.7888266,0.834055385 8.97827447,0.569778462 C3.94349499,1.21625538 0.0389258695,5.51705538 0.0389258695,10.7134246 C0.0389258695,11.8739169 0.236469799,12.9888554 0.594963456,14.0298092 C0.911681429,14.54544 1.57037709,14.7037477 2.03606262,14.4288092 C2.43082664,14.1958708 2.62545598,13.6876708 2.48037454,13.2059631" id="Fill-19" fill="#400093"></path>
                                <path d="M4.30292779,16.3673354 C4.30292779,17.0810123 3.72292586,17.6596431 3.00755776,17.6596431 C2.29218966,17.6596431 1.71218773,17.0810123 1.71218773,16.3673354 C1.71218773,15.6536585 2.29218966,15.0750277 3.00755776,15.0750277 C3.72292586,15.0750277 4.30292779,15.6536585 4.30292779,16.3673354" id="Fill-21" fill="#400093"></path>
                                <path d="M3.65524277,16.3673354 C3.65524277,16.7240123 3.36507989,17.0134892 3.00755776,17.0134892 C2.65003563,17.0134892 2.35987274,16.7240123 2.35987274,16.3673354 C2.35987274,16.0106585 2.65003563,15.7211815 3.00755776,15.7211815 C3.36507989,15.7211815 3.65524277,16.0106585 3.65524277,16.3673354" id="Fill-23" fill="#FFFFFF"></path>
                                <path d="M9.48440792,1.50579692 C9.48440792,1.86247385 9.19424503,2.15195077 8.83672291,2.15195077 C8.47920078,2.15195077 8.18903789,1.86247385 8.18903789,1.50579692 C8.18903789,1.14912 8.47920078,0.859643077 8.83672291,0.859643077 C9.19424503,0.859643077 9.48440792,1.14912 9.48440792,1.50579692" id="Fill-25" fill="#FFFFFF"></path>
                            </g>
                        </g>
                        <g id="Salezshark" transform="translate(0.000000, -0.000000)">
                            <mask id="mask-2" fill="white">
                                <use xlink:href="#path-1"></use>
                            </mask>
                            <g id="Clip-7"></g>
                            <path d="M122.890249,0.765966102 C119.61528,1.36962712 116.489565,2.19918644 113.658531,3.47294915 L113.658531,3.47294915 C110.72608,4.79322034 108.104575,6.5899661 105.953792,9.1080678 L105.953792,9.1080678 C104.074727,11.3091525 102.553489,14.0607458 101.495319,17.5242034 L101.495319,17.5242034 C100.674424,20.2122034 100.130988,23.3282712 99.9147616,26.9492881 L99.9147616,26.9492881 C99.9023238,27.1581017 100.069756,27.3365424 100.282155,27.3365424 L100.282155,27.3365424 L104.937719,27.3365424 C105.139594,27.3365424 105.301286,27.1742373 105.302243,26.9749153 L105.302243,26.9749153 C105.312767,25.0557288 105.49168,23.1792542 105.850463,21.3853559 L105.850463,21.3853559 C106.226467,19.500339 106.800519,17.7045424 107.579317,16.0435254 L107.579317,16.0435254 C108.38873,14.3227119 109.420111,12.7452203 110.683026,11.3613559 L110.683026,11.3613559 C111.927763,10.0002712 113.398294,8.82522034 115.107056,7.88840678 L115.107056,7.88840678 C115.37399,7.74223729 115.697373,7.96338983 115.648579,8.26047458 L115.648579,8.26047458 C115.385471,9.84745763 115.250569,11.4515254 115.235261,13.0584407 L115.235261,13.0584407 C115.22091,14.6644068 115.325196,16.271322 115.543336,17.8630508 L115.543336,17.8630508 C115.759562,19.4576271 116.089642,21.0351186 116.524009,22.5774915 L116.524009,22.5774915 C116.961245,24.1331525 117.504681,25.6517966 118.143793,27.116339 L118.143793,27.116339 C118.203112,27.2501695 118.335144,27.3365424 118.482484,27.3365424 L118.482484,27.3365424 L123.214588,27.3365424 C123.492047,27.3365424 123.666176,27.0413559 123.534144,26.7983729 L123.534144,26.7983729 C122.395607,24.6969492 121.600544,22.6334915 121.072416,20.6421695 L121.072416,20.6421695 C120.462964,18.3404746 120.209424,16.1355932 120.197943,14.0787797 L120.197943,14.0787797 C120.183592,11.6489492 120.502191,9.42698305 120.967173,7.50210169 L120.967173,7.50210169 C121.633074,4.73057627 122.595568,2.57220339 123.281561,1.29179661 L123.281561,1.29179661 C123.412636,1.0459661 123.224156,0.760271186 122.959135,0.760271186 L122.959135,0.760271186 C122.93713,0.760271186 122.913211,0.761220339 122.890249,0.765966102 L122.890249,0.765966102 Z M152.982071,7.97477966 C152.852909,7.97477966 152.732358,8.04122034 152.667299,8.15037288 L152.667299,8.15037288 L150.438062,11.8397288 L148.209783,15.5300339 C148.177253,15.5822373 148.095929,15.5604068 148.095929,15.499661 L148.095929,15.499661 L148.095929,11.9185085 L148.095929,8.33735593 C148.095929,8.13708475 147.932324,7.97477966 147.730449,7.97477966 L147.730449,7.97477966 L143.582921,7.97477966 C143.382003,7.97477966 143.217441,8.13708475 143.217441,8.33735593 L143.217441,8.33735593 L143.217441,14.5486102 L143.217441,20.7598644 L143.217441,26.9730169 C143.217441,27.1732881 143.382003,27.3365424 143.582921,27.3365424 L143.582921,27.3365424 L147.730449,27.3365424 C147.932324,27.3365424 148.095929,27.1732881 148.095929,26.9730169 L148.095929,26.9730169 L148.095929,22.655322 L148.095929,18.3376271 C148.095929,18.2759322 148.177253,18.2541017 148.208826,18.3063051 L148.208826,18.3063051 L150.926007,22.7341017 L153.643188,27.1618983 C153.709204,27.2691525 153.826884,27.3365424 153.955089,27.3365424 L153.955089,27.3365424 L158.667102,27.3365424 C158.951258,27.3365424 159.127301,27.0252203 158.979004,26.7831864 L158.979004,26.7831864 L156.013067,21.9501017 L153.048087,17.1160678 C152.97633,17.0002712 152.97633,16.856 153.046173,16.7411525 L153.046173,16.7411525 L155.52895,12.6322712 L158.010769,8.52433898 C158.156196,8.28230508 157.980153,7.97477966 157.695997,7.97477966 L157.695997,7.97477966 L152.982071,7.97477966 Z M129.725298,7.97477966 L125.896369,7.97477966 C125.694494,7.97477966 125.529933,8.13708475 125.529933,8.33735593 L125.529933,8.33735593 L125.529933,14.5486102 L125.529933,20.7598644 L125.529933,26.9730169 C125.529933,27.1732881 125.694494,27.3365424 125.896369,27.3365424 L125.896369,27.3365424 L130.04294,27.3365424 C130.245772,27.3365424 130.409377,27.1732881 130.409377,26.9730169 L130.409377,26.9730169 L130.409377,23.9176949 L130.409377,20.8614237 C130.409377,20.8282034 130.437123,20.8016271 130.470609,20.8016271 L130.470609,20.8016271 L131.660811,20.8016271 C131.791886,20.8016271 131.913394,20.8718644 131.978453,20.9857627 L131.978453,20.9857627 L133.734097,24.0686102 L135.48974,27.1514576 C135.554799,27.2653559 135.67535,27.3365424 135.808339,27.3365424 L135.808339,27.3365424 L140.519395,27.3365424 C140.798767,27.3365424 140.975767,27.0375593 140.838951,26.7955254 L140.838951,26.7955254 L138.917789,23.3842712 L136.995671,19.9730169 C136.979406,19.9454915 136.98993,19.9094237 137.017676,19.8932881 L137.017676,19.8932881 C138.006003,19.3067119 138.824984,18.4638644 139.377988,17.4587119 L139.377988,17.4587119 C139.91377,16.4877288 140.203666,15.3658305 140.163483,14.1727458 L140.163483,14.1727458 C140.107034,12.4272542 139.32728,10.8734915 138.122727,9.75823729 L138.122727,9.75823729 C136.924871,8.64962712 135.306043,7.97477966 133.555184,7.97477966 L133.555184,7.97477966 L129.725298,7.97477966 Z M130.409377,15.9002034 L130.409377,12.8752542 C130.409377,12.8420339 130.437123,12.8145085 130.470609,12.8145085 L130.470609,12.8145085 L133.636508,12.8145085 C134.504284,12.8145085 135.262033,13.4789153 135.287865,14.3397966 L135.287865,14.3397966 C135.313697,15.2310508 134.595175,15.9609492 133.702524,15.9609492 L133.702524,15.9609492 L130.470609,15.9609492 C130.437123,15.9609492 130.409377,15.9343729 130.409377,15.9002034 L130.409377,15.9002034 Z M92.7190159,7.97477966 C92.5171408,7.97477966 92.3535359,8.13708475 92.3535359,8.33735593 L92.3535359,8.33735593 L92.3535359,11.7552542 L92.3535359,15.1741017 C92.3535359,15.207322 92.3257901,15.2348475 92.2923037,15.2348475 L92.2923037,15.2348475 L89.4258691,15.2348475 L86.5584778,15.2348475 C86.5249914,15.2348475 86.4991591,15.207322 86.4991591,15.1741017 L86.4991591,15.1741017 L86.4991591,11.7552542 L86.4991591,8.33735593 C86.4991591,8.13708475 86.3345974,7.97477966 86.1317656,7.97477966 L86.1317656,7.97477966 L81.9851944,7.97477966 C81.7823626,7.97477966 81.6187577,8.13708475 81.6187577,8.33735593 L81.6187577,8.33735593 L81.6187577,14.5486102 L81.6187577,20.7598644 L81.6187577,26.9730169 C81.6187577,27.1732881 81.7823626,27.3365424 81.9851944,27.3365424 L81.9851944,27.3365424 L86.1317656,27.3365424 C86.3345974,27.3365424 86.4991591,27.1732881 86.4991591,26.9730169 L86.4991591,26.9730169 L86.4991591,23.5541695 L86.4991591,20.135322 C86.4991591,20.1021017 86.5249914,20.0755254 86.5584778,20.0755254 L86.5584778,20.0755254 L89.4258691,20.0755254 L92.2923037,20.0755254 C92.3257901,20.0755254 92.3535359,20.1021017 92.3535359,20.135322 L92.3535359,20.135322 L92.3535359,23.5541695 L92.3535359,26.9730169 C92.3535359,27.1732881 92.5171408,27.3365424 92.7190159,27.3365424 L92.7190159,27.3365424 L96.8665438,27.3365424 C97.0684189,27.3365424 97.2320238,27.1732881 97.2320238,26.9730169 L97.2320238,26.9730169 L97.2320238,20.7598644 L97.2320238,14.5486102 L97.2320238,8.33735593 C97.2320238,8.13708475 97.0684189,7.97477966 96.8665438,7.97477966 L96.8665438,7.97477966 L92.7190159,7.97477966 Z M68.21942,9.73166102 C67.2473581,10.6969492 66.6159005,12.0532881 66.6159005,13.7826441 L66.6159005,13.7826441 C66.6159005,15.4597966 67.2540553,16.6557288 68.1495769,17.5422373 L68.1495769,17.5422373 C69.2584547,18.6423051 70.7605582,19.2715932 71.9316249,19.7613559 L71.9316249,19.7613559 C73.882446,20.5776271 74.3923958,20.9183729 74.4239687,21.4679322 L74.4239687,21.4679322 C74.4842442,22.4911186 72.751563,22.4958644 71.7393174,22.4958644 L71.7393174,22.4958644 C70.5701642,22.4949153 69.0192662,22.2149153 67.554476,21.8779661 L67.554476,21.8779661 C67.3238984,21.8248136 67.103845,21.9975593 67.103845,22.2301017 L67.103845,22.2301017 L67.103845,26.3143051 C67.103845,26.4861017 67.2253527,26.6351186 67.3937414,26.6702373 L67.3937414,26.6702373 C69.0106554,27.0052881 70.6639261,27.3365424 71.9823329,27.3365424 L71.9823329,27.3365424 C74.1283318,27.3365424 76.2408443,26.9179661 77.7582559,25.4126102 L77.7582559,25.4126102 C78.7628474,24.416 79.3005431,23.0786441 79.3005431,21.5277288 L79.3005431,21.5277288 C79.3005431,19.7698983 78.6183776,18.511322 77.6807588,17.5802034 L77.6807588,17.5802034 C76.5163894,16.4269831 74.9597509,15.7758644 73.8269543,15.300339 L73.8269543,15.300339 C73.1486158,15.0174915 71.4896046,14.2818983 71.4896046,13.552 L71.4896046,13.552 C71.4896046,12.7888814 73.0299783,12.8145085 73.6910953,12.8145085 L73.6910953,12.8145085 C75.0037615,12.8135593 76.7125239,13.0423051 78.1524385,13.2482712 L78.1524385,13.2482712 C78.3724919,13.2795932 78.5695832,13.1096949 78.5695832,12.8894915 L78.5695832,12.8894915 L78.5695832,8.73979661 C78.5695832,8.55850847 78.4327674,8.40284746 78.2500274,8.3800678 L78.2500274,8.3800678 C76.3288656,8.13518644 74.4057904,7.97477966 72.9591786,7.97477966 L72.9591786,7.97477966 C71.1375192,7.97477966 69.4842486,8.47877966 68.21942,9.73166102 L68.21942,9.73166102 Z M60.1759903,7.97477966 L57.114378,7.97477966 L54.0537224,7.97477966 C53.8499339,7.97477966 53.686329,8.13708475 53.686329,8.33735593 L53.686329,8.33735593 L53.686329,10.0315932 C53.686329,10.2318644 53.8499339,10.3951186 54.0537224,10.3951186 L54.0537224,10.3951186 L56.741244,10.3951186 L59.4316358,10.3951186 L62.1220277,10.3951186 C62.4119241,10.3951186 62.5860533,10.7121356 62.4291457,10.9532203 L62.4291457,10.9532203 L59.6182028,15.2955932 C58.7169407,16.6898983 57.7161762,18.2351186 56.80726,19.6379661 L56.80726,19.6379661 L53.9963172,23.980339 C53.0577417,25.4306441 54.1063439,27.3365424 55.8438089,27.3365424 L55.8438089,27.3365424 L58.8240971,27.3365424 L61.8043854,27.3365424 L64.7865872,27.3365424 C64.9884622,27.3365424 65.1530239,27.1732881 65.1530239,26.9730169 L65.1530239,26.9730169 L65.1530239,25.2778305 C65.1530239,25.0785085 64.9884622,24.9162034 64.7865872,24.9162034 L64.7865872,24.9162034 L62.1775194,24.9162034 L59.5694084,24.9162034 L56.9612974,24.9162034 C56.671401,24.9162034 56.4972718,24.5982373 56.6532226,24.3552542 L56.6532226,24.3552542 L59.4641655,20.0147797 C60.3654276,18.6214237 61.3661921,17.0752542 62.2751083,15.6714576 L62.2751083,15.6714576 L65.0860511,11.3300339 C66.0246266,9.88067797 64.9750677,7.97477966 63.2395162,7.97477966 L63.2395162,7.97477966 L60.1759903,7.97477966 Z M47.2827754,7.97477966 L43.1964797,7.97477966 C41.9842726,7.97477966 41.0007296,8.95050847 41.0007296,10.1530847 L41.0007296,10.1530847 L41.0007296,15.1551186 L41.0007296,20.1562034 L41.0007296,25.1572881 C41.0007296,26.3598644 41.9842726,27.3365424 43.1964797,27.3365424 L43.1964797,27.3365424 L47.2827754,27.3365424 L51.3681144,27.3365424 C51.5719029,27.3365424 51.7345511,27.1732881 51.7345511,26.9730169 L51.7345511,26.9730169 L51.7345511,25.2778305 C51.7345511,25.0785085 51.5719029,24.9162034 51.3681144,24.9162034 L51.3681144,24.9162034 L48.0146921,24.9162034 L44.6593563,24.9162034 C43.9867584,24.9162034 43.4404519,24.3732881 43.4404519,23.7050847 L43.4404519,23.7050847 L43.4404519,21.1936271 L43.4404519,18.6831186 C43.4404519,18.6498983 43.4681978,18.6223729 43.5016842,18.6223729 L43.5016842,18.6223729 L50.3931822,18.6223729 C50.5950573,18.6223729 50.7596189,18.4600678 50.7596189,18.2597966 L50.7596189,18.2597966 L50.7596189,16.5665085 C50.7596189,16.3662373 50.5950573,16.2029831 50.3931822,16.2029831 L50.3931822,16.2029831 L43.5016842,16.2029831 C43.4681978,16.2029831 43.4404519,16.1764068 43.4404519,16.1431864 L43.4404519,16.1431864 L43.4404519,13.8737627 L43.4404519,11.604339 C43.4404519,10.9361356 43.9867584,10.3951186 44.6593563,10.3951186 L44.6593563,10.3951186 L48.0146921,10.3951186 L51.3681144,10.3951186 C51.5719029,10.3951186 51.7345511,10.2318644 51.7345511,10.0315932 L51.7345511,10.0315932 L51.7345511,8.33735593 C51.7345511,8.13708475 51.5719029,7.97477966 51.3681144,7.97477966 L51.3681144,7.97477966 L47.2827754,7.97477966 Z M29.6574559,7.97477966 C29.4546241,7.97477966 29.2910192,8.13708475 29.2910192,8.33735593 L29.2910192,8.33735593 L29.2910192,13.944 L29.2910192,19.5506441 L29.2910192,25.1572881 C29.2910192,26.3598644 30.2745622,27.3365424 31.4867693,27.3365424 L31.4867693,27.3365424 L35.573065,27.3365424 L39.6593607,27.3365424 C39.8612358,27.3365424 40.0248407,27.1732881 40.0248407,26.9730169 L40.0248407,26.9730169 L40.0248407,25.2778305 C40.0248407,25.0785085 39.8612358,24.9162034 39.6593607,24.9162034 L39.6593607,24.9162034 L36.3049817,24.9162034 L32.9496459,24.9162034 C32.277048,24.9162034 31.7307415,24.3732881 31.7307415,23.7050847 L31.7307415,23.7050847 L31.7307415,18.5825085 L31.7307415,13.4599322 L31.7307415,8.33735593 C31.7307415,8.13708475 31.5661799,7.97477966 31.3643048,7.97477966 L31.3643048,7.97477966 L29.6574559,7.97477966 Z M19.3991411,7.97477966 C18.4117711,7.97477966 17.5468657,8.62874576 17.2837584,9.57220339 L17.2837584,9.57220339 L16.1882752,13.4978983 C15.8065304,14.8608814 15.3750344,16.4098983 14.9435384,17.9570169 L14.9435384,17.9570169 C14.5110857,19.5060339 14.0795897,21.056 13.6988017,22.4161356 L13.6988017,22.4161356 L12.4550217,26.8762034 C12.3909191,27.1068475 12.5660051,27.3365424 12.8080638,27.3365424 L12.8080638,27.3365424 L14.5809287,27.3365424 C14.7454904,27.3365424 14.890917,27.2264407 14.9339709,27.0688814 L14.9339709,27.0688814 L15.7347739,24.1995932 L16.5336633,21.3303051 C16.5413174,21.3037288 16.5642795,21.2856949 16.5929821,21.2856949 L16.5929821,21.2856949 L20.1329713,21.2856949 L23.6748741,21.2856949 C23.7007064,21.2856949 23.725582,21.3037288 23.7332361,21.3303051 L23.7332361,21.3303051 L24.5330823,24.1995932 L25.3329285,27.0688814 C25.3769392,27.2264407 25.5204523,27.3365424 25.6850139,27.3365424 L25.6850139,27.3365424 L27.4588356,27.3365424 C27.7008943,27.3365424 27.8759803,27.1068475 27.810921,26.8762034 L27.810921,26.8762034 L26.5680977,22.4161356 C26.1873097,21.056 25.7558137,19.5060339 25.323361,17.9570169 L25.323361,17.9570169 C24.8909082,16.4098983 24.4584555,14.8608814 24.0786242,13.4978983 L24.0786242,13.4978983 L22.9840978,9.57220339 C22.7200337,8.62874576 21.8541715,7.97477966 20.8677583,7.97477966 L20.8677583,7.97477966 L19.3991411,7.97477966 Z M17.2416612,18.7875254 L18.3754145,14.7242034 L19.4823787,10.7501017 C19.5407407,10.5393898 19.734005,10.3951186 19.9540584,10.3951186 L19.9540584,10.3951186 L20.3137978,10.3951186 C20.5328944,10.3951186 20.725202,10.5393898 20.7826072,10.7501017 L20.7826072,10.7501017 L21.8914849,14.7242034 L23.0242815,18.7875254 C23.0348058,18.8273898 23.0061031,18.8653559 22.9659195,18.8653559 L22.9659195,18.8653559 L20.1329713,18.8653559 L17.3009799,18.8653559 C17.2607963,18.8653559 17.2320936,18.8273898 17.2416612,18.7875254 L17.2416612,18.7875254 Z M1.22273142,9.5000678 C0.437236511,10.2802712 0,11.3281356 0,12.5734237 L0,12.5734237 C0,13.9544407 0.58361985,15.0108475 1.4533091,15.8736271 L1.4533091,15.8736271 C2.49234379,16.9034576 3.93895561,17.6589831 5.28606504,18.3623051 L5.28606504,18.3623051 C7.66933889,19.6075932 9.26998808,20.4741695 9.26998808,22.2538305 L9.26998808,22.2538305 C9.26998808,24.5261017 7.64924705,24.9162034 5.36738912,24.9162034 L5.36738912,24.9162034 C3.75143186,24.9162034 1.97282644,24.7501017 0.923267468,24.5488814 L0.923267468,24.5488814 C0.697473559,24.5052203 0.487944465,24.6760678 0.487944465,24.9048136 L0.487944465,24.9048136 L0.487944465,26.6265763 C0.487944465,26.8040678 0.617106235,26.9540339 0.794105698,26.9844068 L0.794105698,26.9844068 C1.9737832,27.1808814 3.63566464,27.3355932 5.36738912,27.3365424 L5.36738912,27.3365424 C7.11824867,27.3365424 8.95138905,27.1941695 10.3195471,25.8378305 L10.3195471,25.8378305 C11.2418578,24.9218983 11.7097104,23.6348475 11.7097104,22.0108475 L11.7097104,22.0108475 C11.7097104,20.7114576 11.1940201,19.6417627 10.2564013,18.7096949 L10.2564013,18.7096949 C9.21640987,17.6808136 7.77171155,16.924339 6.42268861,16.2219661 L6.42268861,16.2219661 C4.01836618,14.9662373 2.43972233,14.0332203 2.43972233,12.5734237 L2.43972233,12.5734237 C2.43972233,10.8108475 4.09777675,10.3951186 5.85437683,10.3951186 L5.85437683,10.3951186 C7.41962613,10.3951186 8.99157271,10.5251525 10.5577788,10.7538983 L10.5577788,10.7538983 C10.7797457,10.7861695 10.9777937,10.6181695 10.9777937,10.3960678 L10.9777937,10.3960678 L10.9777937,8.68379661 C10.9777937,8.50345763 10.8428914,8.34779661 10.6620649,8.32216949 L10.6620649,8.32216949 C9.05567522,8.09816949 7.47033408,7.97477966 5.85437683,7.97477966 L5.85437683,7.97477966 C4.159009,7.97477966 2.44833311,8.28420339 1.22273142,9.5000678 L1.22273142,9.5000678 Z" id="Fill-6" fill="url(#linearGradient-3)" mask="url(#mask-2)"></path>
                        </g>
                    </g>
                </g>
            </g>
        </g>
    </g>
</svg>
