<?xml version="1.0" encoding="UTF-8"?>
<svg width="195px" height="22px" viewBox="0 0 195 22" version="1.1" xmlns="http://www.w3.org/2000/svg" xmlns:xlink="http://www.w3.org/1999/xlink">
    <!-- Generator: Sketch 55.2 (78181) - https://sketchapp.com -->
    <title>ic_SSCONNECT</title>
    <desc>Created with Sketch.</desc>
    <defs>
        <path d="M63.8557526,0.1936 L67.1032785,0.1936 C68.9459948,0.1936 70.0586419,2.23790769 69.0630623,3.79313846 L66.0817215,8.45003077 C65.1178547,9.95584615 64.0564879,11.6132923 63.1000433,13.1079385 L60.1180277,17.7661846 C59.9523789,18.0254462 60.1382699,18.3652615 60.4449394,18.3652615 L63.2117128,18.3652615 L65.9788235,18.3652615 L68.7449221,18.3652615 C68.9591522,18.3652615 69.1332353,18.5395692 69.1332353,18.7544923 L69.1332353,20.5716923 C69.1332353,20.7866154 68.9591522,20.9612615 68.7449221,20.9612615 L65.5830882,20.9612615 L62.4215917,20.9612615 L59.2597578,20.9612615 C57.4180536,20.9612615 56.3050692,18.9172923 57.3006488,17.3627385 L60.2819896,12.7058462 C61.2458564,11.1990154 62.3072232,9.54156923 63.2636678,8.04692308 L66.245346,3.38935385 C66.4113322,3.13076923 66.2261159,2.78926154 65.9180969,2.78926154 L63.0656315,2.78926154 L60.2128287,2.78926154 L57.360026,2.78926154 C57.1454585,2.78926154 56.9717128,2.61529231 56.9717128,2.40003077 L56.9717128,0.583169231 C56.9717128,0.367907692 57.1454585,0.1936 57.360026,0.1936 L60.6072145,0.1936 L63.8557526,0.1936 Z M50.1791003,0.1936 L54.5132958,0.1936 C54.7278633,0.1936 54.9012716,0.367907692 54.9012716,0.583169231 L54.9012716,2.40003077 C54.9012716,2.61529231 54.7278633,2.78926154 54.5132958,2.78926154 L50.9550519,2.78926154 L47.3978201,2.78926154 C46.6832699,2.78926154 46.1036678,3.37107692 46.1036678,4.0876 L46.1036678,6.52181538 L46.1036678,8.95501538 C46.1036678,8.99123077 46.133019,9.01966154 46.1687803,9.01966154 L53.4785813,9.01966154 C53.6928114,9.01966154 53.8665571,9.19430769 53.8665571,9.40923077 L53.8665571,11.2264308 C53.8665571,11.4413538 53.6928114,11.616 53.4785813,11.616 L46.1687803,11.616 C46.133019,11.616 46.1036678,11.6454462 46.1036678,11.6809846 L46.1036678,14.3748 L46.1036678,17.0679385 C46.1036678,17.7841231 46.6832699,18.3652615 47.3978201,18.3652615 L50.9550519,18.3652615 L54.5132958,18.3652615 C54.7278633,18.3652615 54.9012716,18.5395692 54.9012716,18.7544923 L54.9012716,20.5716923 C54.9012716,20.7866154 54.7278633,20.9612615 54.5132958,20.9612615 L50.1791003,20.9612615 L45.8452422,20.9612615 C44.5585121,20.9612615 43.5163754,19.9150769 43.5163754,18.6258769 L43.5163754,13.2599077 L43.5163754,7.89596923 L43.5163754,2.53 C43.5163754,1.24046154 44.5585121,0.1936 45.8452422,0.1936 L50.1791003,0.1936 Z M31.4837284,0.1936 L33.2950692,0.1936 C33.5096367,0.1936 33.6833824,0.367907692 33.6833824,0.583169231 L33.6833824,6.07741538 L33.6833824,11.5723385 L33.6833824,17.0679385 C33.6833824,17.7841231 34.2626471,18.3652615 34.9771972,18.3652615 L38.5347664,18.3652615 L42.092673,18.3652615 C42.3072405,18.3652615 42.4809862,18.5395692 42.4809862,18.7544923 L42.4809862,20.5716923 C42.4809862,20.7866154 42.3072405,20.9612615 42.092673,20.9612615 L37.7588149,20.9612615 L33.4249567,20.9612615 C32.1382266,20.9612615 31.09609,19.9150769 31.09609,18.6258769 L31.09609,12.6107385 L31.09609,6.59763077 L31.09609,0.583169231 C31.09609,0.367907692 31.2694983,0.1936 31.4837284,0.1936 Z M20.6038754,0.1936 L22.1608391,0.1936 C23.2073616,0.1936 24.1256834,0.894215385 24.4053633,1.90655385 L25.5669291,6.11870769 C25.9707612,7.5812 26.42891,9.24135385 26.8867215,10.9018462 C27.3452076,12.5643692 27.8033564,14.2248615 28.2065138,15.6856615 L29.5263062,20.4684615 C29.5947924,20.7165538 29.408564,20.9612615 29.1518253,20.9612615 L27.2706488,20.9612615 C27.0965657,20.9612615 26.9433997,20.8448308 26.8965052,20.6752615 L26.0483564,17.5972923 L25.2002076,14.5189846 C25.1921107,14.4905538 25.166808,14.4719385 25.1374567,14.4719385 L21.3818512,14.4719385 L17.6269204,14.4719385 C17.5975692,14.4719385 17.5722664,14.4905538 17.5645069,14.5189846 L16.7156834,17.5972923 L15.8671972,20.6752615 C15.8209775,20.8448308 15.6678114,20.9612615 15.4930536,20.9612615 L13.6118772,20.9612615 C13.3554758,20.9612615 13.1695848,20.7165538 13.2377336,20.4684615 L14.557526,15.6856615 C14.960346,14.2248615 15.4188322,12.5643692 15.8773183,10.9018462 C16.3354671,9.24135385 16.7939533,7.5812 17.1971107,6.11870769 L18.3590138,1.90655385 C18.6383564,0.894215385 19.5566782,0.1936 20.6038754,0.1936 Z M18.3154931,11.7936923 C18.3043599,11.8346462 18.3350606,11.8752615 18.3779066,11.8752615 L21.3818512,11.8752615 L24.3861332,11.8752615 C24.4293166,11.8752615 24.4600173,11.8346462 24.4485467,11.7936923 L23.2468339,7.43430769 L22.0721107,3.17104615 C22.0100346,2.94596923 21.8055882,2.78926154 21.5731401,2.78926154 L21.191237,2.78926154 C20.9584516,2.78926154 20.7543426,2.94596923 20.6922664,3.17104615 L19.5172059,7.43430769 L18.3154931,11.7936923 Z M1.3241782,1.8304 C2.62474048,0.526307692 4.43776817,0.1936 6.23696367,0.1936 C7.9508045,0.1936 9.63158304,0.327630769 11.3363149,0.5676 C11.5279412,0.593661538 11.6713235,0.760184615 11.6713235,0.954461538 L11.6713235,2.79196923 C11.6713235,3.03024615 11.4604671,3.20963077 11.2259948,3.17476923 C9.564109,2.9304 7.89716263,2.78926154 6.23696367,2.78926154 C4.37400519,2.78926154 2.61461938,3.23603077 2.61461938,5.12633846 C2.61461938,6.69206154 4.28932526,7.69323077 6.83984429,9.03963077 C8.26995675,9.79473846 9.80364187,10.6046769 10.9051557,11.7094154 C11.9010727,12.7085538 12.4472751,13.8559385 12.4472751,15.2500615 C12.4472751,16.9921231 11.9506661,18.3733846 10.9712803,19.3549231 C9.52193772,20.8099692 7.57834775,20.9616 5.71943772,20.9612621 C3.88279412,20.9605846 2.1200346,20.7947385 0.869065744,20.5838769 C0.681150519,20.5530769 0.544178201,20.3912923 0.544178201,20.1997231 L0.544178201,18.3537538 C0.544178201,18.1083692 0.76549308,17.9256 1.00603806,17.9719692 C2.11902249,18.1879077 4.00559689,18.3652615 5.71943772,18.3652615 C8.1400692,18.3652615 9.8599827,17.9489538 9.8599827,15.5103385 C9.8599827,13.6017538 8.16199827,12.6713231 5.63475779,11.3371077 C4.20464533,10.5816615 2.67062284,9.77172308 1.56877163,8.66698462 C0.646064014,7.74129231 0.0266522491,6.60778462 0.0266522491,5.12633846 C0.0266522491,3.79144615 0.490536332,2.6664 1.3241782,1.8304 Z" id="path-1"></path>
        <linearGradient x1="1.46413303%" y1="1.29657806%" x2="1.46413303%" y2="84.2787737%" id="linearGradient-3">
            <stop stop-color="#0155FF" offset="0%"></stop>
            <stop stop-color="#410093" offset="100%"></stop>
        </linearGradient>
        <path d="M63.8557526,0.1936 L60.6072145,0.1936 L57.360026,0.1936 C57.1454585,0.1936 56.9717128,0.367907692 56.9717128,0.583169231 L56.9717128,0.583169231 L56.9717128,2.40003077 C56.9717128,2.61529231 57.1454585,2.7896 57.360026,2.7896 L57.360026,2.7896 L60.2128287,2.7896 L63.0656315,2.7896 L65.9180969,2.7896 C66.2261159,2.7896 66.4113322,3.13110769 66.245346,3.38935385 L66.245346,3.38935385 L63.2636678,8.04692308 C62.3072232,9.54190769 61.2458564,11.1990154 60.2819896,12.7058462 L60.2819896,12.7058462 L57.3006488,17.3630769 C56.3050692,18.9176308 57.4180536,20.9612615 59.2597578,20.9612615 L59.2597578,20.9612615 L62.4215917,20.9612615 L65.5830882,20.9612615 L68.7449221,20.9612615 C68.9591522,20.9612615 69.1332353,20.7866154 69.1332353,20.5716923 L69.1332353,20.5716923 L69.1332353,18.7544923 C69.1332353,18.5395692 68.9591522,18.3656 68.7449221,18.3656 L68.7449221,18.3656 L65.9788235,18.3656 L63.2117128,18.3656 L60.4449394,18.3656 C60.1382699,18.3656 59.9523789,18.0254462 60.1180277,17.7661846 L60.1180277,17.7661846 L63.1000433,13.1079385 C64.0564879,11.6136308 65.1178547,9.95584615 66.0817215,8.45036923 L66.0817215,8.45036923 L69.0630623,3.79313846 C70.0586419,2.23790769 68.9459948,0.1936 67.1032785,0.1936 L67.1032785,0.1936 L63.8557526,0.1936 Z M50.1791003,0.1936 L45.8452422,0.1936 C44.5585121,0.1936 43.5163754,1.24046154 43.5163754,2.53033846 L43.5163754,2.53033846 L43.5163754,7.89596923 L43.5163754,13.2602462 L43.5163754,18.6258769 C43.5163754,19.9150769 44.5585121,20.9612615 45.8452422,20.9612615 L45.8452422,20.9612615 L50.1791003,20.9612615 L54.5132958,20.9612615 C54.7278633,20.9612615 54.9012716,20.7866154 54.9012716,20.5716923 L54.9012716,20.5716923 L54.9012716,18.7544923 C54.9012716,18.5395692 54.7278633,18.3656 54.5132958,18.3656 L54.5132958,18.3656 L50.9550519,18.3656 L47.3978201,18.3656 C46.6832699,18.3656 46.1036678,17.7841231 46.1036678,17.0679385 L46.1036678,17.0679385 L46.1036678,14.3748 L46.1036678,11.6813231 C46.1036678,11.6454462 46.133019,11.616 46.1687803,11.616 L46.1687803,11.616 L53.4785813,11.616 C53.6928114,11.616 53.8665571,11.4413538 53.8665571,11.2264308 L53.8665571,11.2264308 L53.8665571,9.40923077 C53.8665571,9.19464615 53.6928114,9.01966154 53.4785813,9.01966154 L53.4785813,9.01966154 L46.1687803,9.01966154 C46.133019,9.01966154 46.1036678,8.99156923 46.1036678,8.95501538 L46.1036678,8.95501538 L46.1036678,6.52215385 L46.1036678,4.0876 C46.1036678,3.37141538 46.6832699,2.7896 47.3978201,2.7896 L47.3978201,2.7896 L50.9550519,2.7896 L54.5132958,2.7896 C54.7278633,2.7896 54.9012716,2.61529231 54.9012716,2.40003077 L54.9012716,2.40003077 L54.9012716,0.583169231 C54.9012716,0.367907692 54.7278633,0.1936 54.5132958,0.1936 L54.5132958,0.1936 L50.1791003,0.1936 Z M31.4837284,0.1936 C31.2694983,0.1936 31.09609,0.367907692 31.09609,0.583169231 L31.09609,0.583169231 L31.09609,6.59796923 L31.09609,12.6107385 L31.09609,18.6258769 C31.09609,19.9150769 32.1382266,20.9612615 33.4249567,20.9612615 L33.4249567,20.9612615 L37.7588149,20.9612615 L42.092673,20.9612615 C42.3072405,20.9612615 42.4809862,20.7866154 42.4809862,20.5716923 L42.4809862,20.5716923 L42.4809862,18.7544923 C42.4809862,18.5395692 42.3072405,18.3656 42.092673,18.3656 L42.092673,18.3656 L38.5347664,18.3656 L34.9771972,18.3656 C34.2626471,18.3656 33.6833824,17.7841231 33.6833824,17.0679385 L33.6833824,17.0679385 L33.6833824,11.5723385 L33.6833824,6.07775385 L33.6833824,0.583169231 C33.6833824,0.367907692 33.5096367,0.1936 33.2950692,0.1936 L33.2950692,0.1936 L31.4837284,0.1936 Z M20.6038754,0.1936 C19.5566782,0.1936 18.6383564,0.894553846 18.3590138,1.90689231 L18.3590138,1.90689231 L17.1971107,6.11870769 C16.7939533,7.5812 16.3354671,9.24135385 15.8773183,10.9021846 L15.8773183,10.9021846 C15.4188322,12.5643692 14.960346,14.2252 14.557526,15.6856615 L14.557526,15.6856615 L13.2377336,20.4688 C13.1695848,20.7165538 13.3554758,20.9612615 13.6118772,20.9612615 L13.6118772,20.9612615 L15.4930536,20.9612615 C15.6678114,20.9612615 15.8209775,20.8448308 15.8671972,20.6756 L15.8671972,20.6756 L16.7156834,17.5972923 L17.5645069,14.5189846 C17.5722664,14.4905538 17.5975692,14.4722769 17.6269204,14.4722769 L17.6269204,14.4722769 L21.3818512,14.4722769 L25.1374567,14.4722769 C25.1664706,14.4722769 25.1921107,14.4905538 25.2002076,14.5189846 L25.2002076,14.5189846 L26.0483564,17.5972923 L26.8965052,20.6756 C26.9433997,20.8448308 27.0965657,20.9612615 27.2706488,20.9612615 L27.2706488,20.9612615 L29.1518253,20.9612615 C29.408564,20.9612615 29.5947924,20.7165538 29.5263062,20.4688 L29.5263062,20.4688 L28.2065138,15.6856615 C27.8033564,14.2252 27.3452076,12.5643692 26.8867215,10.9021846 L26.8867215,10.9021846 C26.42891,9.24135385 25.9707612,7.5812 25.5669291,6.11870769 L25.5669291,6.11870769 L24.4053633,1.90689231 C24.1256834,0.894553846 23.2073616,0.1936 22.1608391,0.1936 L22.1608391,0.1936 L20.6038754,0.1936 Z M18.3154931,11.7936923 L19.5172059,7.43430769 L20.6922664,3.17138462 C20.7540052,2.94630769 20.9584516,2.7896 21.191237,2.7896 L21.191237,2.7896 L21.5731401,2.7896 C21.8055882,2.7896 22.0100346,2.94630769 22.0721107,3.17138462 L22.0721107,3.17138462 L23.2468339,7.43430769 L24.4485467,11.7936923 C24.4600173,11.8346462 24.4293166,11.8752615 24.3861332,11.8752615 L24.3861332,11.8752615 L21.3818512,11.8752615 L18.3779066,11.8752615 C18.3350606,11.8752615 18.3043599,11.8346462 18.3154931,11.7936923 L18.3154931,11.7936923 Z M1.3241782,1.8304 C0.490536332,2.66673846 0.0266522491,3.79178462 0.0266522491,5.12633846 L0.0266522491,5.12633846 C0.0266522491,6.60812308 0.646064014,7.74129231 1.56877163,8.66698462 L1.56877163,8.66698462 C2.67062284,9.77206154 4.20464533,10.5816615 5.63475779,11.3371077 L5.63475779,11.3371077 C8.16199827,12.6713231 9.85964533,13.6017538 9.85964533,15.5103385 L9.85964533,15.5103385 C9.85964533,17.9492923 8.1400692,18.3656 5.71943772,18.3656 L5.71943772,18.3656 C4.00559689,18.3656 2.11902249,18.1879077 1.00603806,17.9723077 L1.00603806,17.9723077 C0.76549308,17.9256 0.544178201,18.1087077 0.544178201,18.3537538 L0.544178201,18.3537538 L0.544178201,20.2000615 C0.544178201,20.3912923 0.681150519,20.5534154 0.869065744,20.5838769 L0.869065744,20.5838769 C2.1200346,20.7947385 3.88279412,20.9609231 5.71943772,20.9612638 L5.71943772,20.9612638 C7.57834775,20.9619385 9.52193772,20.8099692 10.9712803,19.3549231 L10.9712803,19.3549231 C11.9506661,18.3733846 12.4472751,16.9921231 12.4472751,15.2500615 L12.4472751,15.2500615 C12.4472751,13.8559385 11.9010727,12.7085538 10.9051557,11.7094154 L10.9051557,11.7094154 C9.80364187,10.6046769 8.26995675,9.79473846 6.83984429,9.03996923 L6.83984429,9.03996923 C4.28932526,7.69323077 2.61461938,6.69206154 2.61461938,5.12633846 L2.61461938,5.12633846 C2.61461938,3.23636923 4.37400519,2.7896 6.23696367,2.7896 L6.23696367,2.7896 C7.89716263,2.7896 9.564109,2.9304 11.2259948,3.17510769 L11.2259948,3.17510769 C11.4604671,3.20963077 11.6713235,3.03024615 11.6713235,2.79196923 L11.6713235,2.79196923 L11.6713235,0.954461538 C11.6713235,0.760523077 11.5279412,0.594 11.3363149,0.5676 L11.3363149,0.5676 C9.63158304,0.327969231 7.9508045,0.1936 6.23696367,0.1936 L6.23696367,0.1936 C4.43776817,0.1936 2.62474048,0.526646154 1.3241782,1.8304 L1.3241782,1.8304 Z" id="path-4"></path>
        <linearGradient x1="4.93833514e-05%" y1="56.0803353%" x2="161.496551%" y2="56.0803353%" id="linearGradient-6">
            <stop stop-color="#0155FF" offset="0%"></stop>
            <stop stop-color="#410093" offset="100%"></stop>
        </linearGradient>
        <path d="M91.631782,9.65630769 L91.631782,12.0015077 C91.631782,19.3396923 94.8712111,21.5021231 100.661497,21.5021231 L100.661497,21.5021231 C102.349022,21.5021231 105.198789,21.1971692 106.22237,20.9473846 L106.22237,20.9473846 L106.22237,17.2649231 C104.838478,17.3735692 102.874308,17.4828923 101.186107,17.4828923 L101.186107,17.4828923 C98.1160381,17.4828923 96.649827,16.4465231 96.649827,12.0015077 L96.649827,12.0015077 L96.649827,9.65630769 C96.649827,5.23904615 98.1160381,4.23110769 101.159118,4.23110769 L101.159118,4.23110769 C102.847318,4.23110769 104.838478,4.36649231 106.22237,4.47513846 L106.22237,4.47513846 L106.22237,0.793692308 C105.198789,0.516830769 102.349022,0.211538462 100.661497,0.211538462 L100.661497,0.211538462 C94.8712111,0.211538462 91.631782,2.31812308 91.631782,9.65630769 L91.631782,9.65630769 Z M15.416808,9.82012308 L15.416808,11.8925231 C15.416808,18.9244 18.9898962,21.5021231 24.3223702,21.5021231 L24.3223702,21.5021231 C29.682846,21.5021231 33.2552595,18.9244 33.2552595,11.8925231 L33.2552595,11.8925231 L33.2552595,9.82012308 C33.2552595,2.76218462 29.655519,0.211538462 24.3223702,0.211538462 L24.3223702,0.211538462 C19.0172232,0.211538462 15.416808,2.76218462 15.416808,9.82012308 L15.416808,9.82012308 Z M20.4358651,11.8651077 L20.4358651,9.82012308 C20.4358651,5.59341538 21.8615917,4.23110769 24.3223702,4.23110769 L24.3223702,4.23110769 C26.8388149,4.23110769 28.2372145,5.59341538 28.2372145,9.82012308 L28.2372145,9.82012308 L28.2372145,11.8651077 C28.2372145,16.1733846 26.7834862,17.4828923 24.3223702,17.4828923 L24.3223702,17.4828923 C21.8902682,17.4828923 20.4358651,16.1733846 20.4358651,11.8651077 L20.4358651,11.8651077 Z M0.0347491349,9.65630769 L0.0347491349,12.0015077 C0.0347491349,19.3396923 3.27485294,21.5021231 9.06547578,21.5021231 L9.06547578,21.5021231 C10.7526644,21.5021231 13.6020934,21.1971692 14.6263495,20.9473846 L14.6263495,20.9473846 L14.6263495,17.2649231 C13.2424567,17.3735692 11.2786246,17.4828923 9.59109862,17.4828923 L9.59109862,17.4828923 C6.51967993,17.4828923 5.0541436,16.4465231 5.0541436,12.0015077 L5.0541436,12.0015077 L5.0541436,9.65630769 C5.0541436,5.23904615 6.51967993,4.23110769 9.56275952,4.23110769 L9.56275952,4.23110769 C11.2509602,4.23110769 13.2424567,4.36649231 14.6263495,4.47513846 L14.6263495,4.47513846 L14.6263495,0.793692308 C13.6020934,0.516830769 10.7526644,0.211538462 9.06547578,0.211538462 L9.06547578,0.211538462 C3.27485294,0.211538462 0.0347491349,2.31812308 0.0347491349,9.65630769 L0.0347491349,9.65630769 Z M107.016202,0.534092308 L107.016202,4.17018462 L112.963702,4.17018462 L112.963702,21.1589231 L117.982422,21.1589231 L117.982422,4.17018462 L123.93026,4.17018462 L123.93026,0.534092308 L107.016202,0.534092308 Z M76.3161851,0.534092308 L76.3161851,21.1805846 L90.1598356,21.1805846 L90.1598356,17.5444923 L81.3349048,17.5444923 L81.3349048,12.3362462 L89.5788841,12.3362462 L89.5788841,8.70015385 L81.3349048,8.70015385 L81.3349048,4.17018462 L90.1598356,4.17018462 L90.1598356,0.534092308 L76.3161851,0.534092308 Z M68.7752855,0.555076923 L68.7752855,10.5403692 C68.7752855,11.8001231 68.8032872,13.1150462 68.8582785,14.0932 L68.8582785,14.0932 L68.8032872,14.0932 C68.3829239,13.1702154 67.8218772,12.0512615 67.3161592,11.1563692 L67.3161592,11.1563692 L61.2259516,0.555076923 L55.955891,0.555076923 L55.955891,21.1589231 L60.6365657,21.1589231 L60.6365657,11.0450154 C60.6365657,9.92572308 60.5815744,8.77867692 60.55391,7.68781538 L60.55391,7.68781538 L60.6099135,7.68781538 C61.0296021,8.61113846 61.5633218,9.64615385 62.0687024,10.5403692 L62.0687024,10.5403692 L68.1022318,21.1589231 L73.4559602,21.1589231 L73.4559602,0.555076923 L68.7752855,0.555076923 Z M48.4153287,0.555076923 L48.4153287,10.5403692 C48.4153287,11.8001231 48.4426557,13.1150462 48.4976471,14.0932 L48.4976471,14.0932 L48.4426557,14.0932 C48.0226298,13.1702154 47.461583,12.0512615 46.9558651,11.1563692 L46.9558651,11.1563692 L40.8653201,0.555076923 L35.5952595,0.555076923 L35.5952595,21.1589231 L40.2762716,21.1589231 L40.2762716,11.0450154 C40.2762716,9.92572308 40.2212803,8.77867692 40.1936159,7.68781538 L40.1936159,7.68781538 L40.2486073,7.68781538 C40.6686332,8.61113846 41.2026903,9.64615385 41.7073962,10.5403692 L41.7073962,10.5403692 L47.7416003,21.1589231 L53.0960035,21.1589231 L53.0960035,0.555076923 L48.4153287,0.555076923 Z" id="path-7"></path>
        <linearGradient x1="-59.3287724%" y1="56.2084075%" x2="31.1459937%" y2="56.2084075%" id="linearGradient-9">
            <stop stop-color="#0155FF" offset="0%"></stop>
            <stop stop-color="#410093" offset="100%"></stop>
        </linearGradient>
    </defs>
    <g id="Landing-Page_Marketing-Cloud" stroke="none" stroke-width="1" fill="none" fill-rule="evenodd">
        <g id="Contact_v2" transform="translate(-39.000000, -20.000000)">
            <g id="Header" transform="translate(0.000000, 11.000000)">
                <g id="Sub-Header" transform="translate(39.000000, 0.000000)">
                    <g id="ic_SSCONNECT" transform="translate(0.000000, 9.000000)">
                        <g id="Group-10">
                            <g id="Group-3" transform="translate(0.000000, 0.565231)">
                                <mask id="mask-2" fill="white">
                                    <use xlink:href="#path-1"></use>
                                </mask>
                                <g id="Clip-2"></g>
                                <polygon id="Fill-1" fill="url(#linearGradient-3)" mask="url(#mask-2)" points="-28.3883564 1728.52308 1912.35353 1728.52308 1912.35353 -30.3505231 -28.3883564 -30.3505231"></polygon>
                            </g>
                            <g id="Group-6" transform="translate(0.000000, 0.565231)">
                                <mask id="mask-5" fill="white">
                                    <use xlink:href="#path-4"></use>
                                </mask>
                                <g id="Clip-5"></g>
                                <path d="M63.8557526,0.1936 L60.6072145,0.1936 L57.360026,0.1936 C57.1454585,0.1936 56.9717128,0.367907692 56.9717128,0.583169231 L56.9717128,0.583169231 L56.9717128,2.40003077 C56.9717128,2.61529231 57.1454585,2.7896 57.360026,2.7896 L57.360026,2.7896 L60.2128287,2.7896 L63.0656315,2.7896 L65.9180969,2.7896 C66.2261159,2.7896 66.4113322,3.13110769 66.245346,3.38935385 L66.245346,3.38935385 L63.2636678,8.04692308 C62.3072232,9.54190769 61.2458564,11.1990154 60.2819896,12.7058462 L60.2819896,12.7058462 L57.3006488,17.3630769 C56.3050692,18.9176308 57.4180536,20.9612615 59.2597578,20.9612615 L59.2597578,20.9612615 L62.4215917,20.9612615 L65.5830882,20.9612615 L68.7449221,20.9612615 C68.9591522,20.9612615 69.1332353,20.7866154 69.1332353,20.5716923 L69.1332353,20.5716923 L69.1332353,18.7544923 C69.1332353,18.5395692 68.9591522,18.3656 68.7449221,18.3656 L68.7449221,18.3656 L65.9788235,18.3656 L63.2117128,18.3656 L60.4449394,18.3656 C60.1382699,18.3656 59.9523789,18.0254462 60.1180277,17.7661846 L60.1180277,17.7661846 L63.1000433,13.1079385 C64.0564879,11.6136308 65.1178547,9.95584615 66.0817215,8.45036923 L66.0817215,8.45036923 L69.0630623,3.79313846 C70.0586419,2.23790769 68.9459948,0.1936 67.1032785,0.1936 L67.1032785,0.1936 L63.8557526,0.1936 Z M50.1791003,0.1936 L45.8452422,0.1936 C44.5585121,0.1936 43.5163754,1.24046154 43.5163754,2.53033846 L43.5163754,2.53033846 L43.5163754,7.89596923 L43.5163754,13.2602462 L43.5163754,18.6258769 C43.5163754,19.9150769 44.5585121,20.9612615 45.8452422,20.9612615 L45.8452422,20.9612615 L50.1791003,20.9612615 L54.5132958,20.9612615 C54.7278633,20.9612615 54.9012716,20.7866154 54.9012716,20.5716923 L54.9012716,20.5716923 L54.9012716,18.7544923 C54.9012716,18.5395692 54.7278633,18.3656 54.5132958,18.3656 L54.5132958,18.3656 L50.9550519,18.3656 L47.3978201,18.3656 C46.6832699,18.3656 46.1036678,17.7841231 46.1036678,17.0679385 L46.1036678,17.0679385 L46.1036678,14.3748 L46.1036678,11.6813231 C46.1036678,11.6454462 46.133019,11.616 46.1687803,11.616 L46.1687803,11.616 L53.4785813,11.616 C53.6928114,11.616 53.8665571,11.4413538 53.8665571,11.2264308 L53.8665571,11.2264308 L53.8665571,9.40923077 C53.8665571,9.19464615 53.6928114,9.01966154 53.4785813,9.01966154 L53.4785813,9.01966154 L46.1687803,9.01966154 C46.133019,9.01966154 46.1036678,8.99156923 46.1036678,8.95501538 L46.1036678,8.95501538 L46.1036678,6.52215385 L46.1036678,4.0876 C46.1036678,3.37141538 46.6832699,2.7896 47.3978201,2.7896 L47.3978201,2.7896 L50.9550519,2.7896 L54.5132958,2.7896 C54.7278633,2.7896 54.9012716,2.61529231 54.9012716,2.40003077 L54.9012716,2.40003077 L54.9012716,0.583169231 C54.9012716,0.367907692 54.7278633,0.1936 54.5132958,0.1936 L54.5132958,0.1936 L50.1791003,0.1936 Z M31.4837284,0.1936 C31.2694983,0.1936 31.09609,0.367907692 31.09609,0.583169231 L31.09609,0.583169231 L31.09609,6.59796923 L31.09609,12.6107385 L31.09609,18.6258769 C31.09609,19.9150769 32.1382266,20.9612615 33.4249567,20.9612615 L33.4249567,20.9612615 L37.7588149,20.9612615 L42.092673,20.9612615 C42.3072405,20.9612615 42.4809862,20.7866154 42.4809862,20.5716923 L42.4809862,20.5716923 L42.4809862,18.7544923 C42.4809862,18.5395692 42.3072405,18.3656 42.092673,18.3656 L42.092673,18.3656 L38.5347664,18.3656 L34.9771972,18.3656 C34.2626471,18.3656 33.6833824,17.7841231 33.6833824,17.0679385 L33.6833824,17.0679385 L33.6833824,11.5723385 L33.6833824,6.07775385 L33.6833824,0.583169231 C33.6833824,0.367907692 33.5096367,0.1936 33.2950692,0.1936 L33.2950692,0.1936 L31.4837284,0.1936 Z M20.6038754,0.1936 C19.5566782,0.1936 18.6383564,0.894553846 18.3590138,1.90689231 L18.3590138,1.90689231 L17.1971107,6.11870769 C16.7939533,7.5812 16.3354671,9.24135385 15.8773183,10.9021846 L15.8773183,10.9021846 C15.4188322,12.5643692 14.960346,14.2252 14.557526,15.6856615 L14.557526,15.6856615 L13.2377336,20.4688 C13.1695848,20.7165538 13.3554758,20.9612615 13.6118772,20.9612615 L13.6118772,20.9612615 L15.4930536,20.9612615 C15.6678114,20.9612615 15.8209775,20.8448308 15.8671972,20.6756 L15.8671972,20.6756 L16.7156834,17.5972923 L17.5645069,14.5189846 C17.5722664,14.4905538 17.5975692,14.4722769 17.6269204,14.4722769 L17.6269204,14.4722769 L21.3818512,14.4722769 L25.1374567,14.4722769 C25.1664706,14.4722769 25.1921107,14.4905538 25.2002076,14.5189846 L25.2002076,14.5189846 L26.0483564,17.5972923 L26.8965052,20.6756 C26.9433997,20.8448308 27.0965657,20.9612615 27.2706488,20.9612615 L27.2706488,20.9612615 L29.1518253,20.9612615 C29.408564,20.9612615 29.5947924,20.7165538 29.5263062,20.4688 L29.5263062,20.4688 L28.2065138,15.6856615 C27.8033564,14.2252 27.3452076,12.5643692 26.8867215,10.9021846 L26.8867215,10.9021846 C26.42891,9.24135385 25.9707612,7.5812 25.5669291,6.11870769 L25.5669291,6.11870769 L24.4053633,1.90689231 C24.1256834,0.894553846 23.2073616,0.1936 22.1608391,0.1936 L22.1608391,0.1936 L20.6038754,0.1936 Z M18.3154931,11.7936923 L19.5172059,7.43430769 L20.6922664,3.17138462 C20.7540052,2.94630769 20.9584516,2.7896 21.191237,2.7896 L21.191237,2.7896 L21.5731401,2.7896 C21.8055882,2.7896 22.0100346,2.94630769 22.0721107,3.17138462 L22.0721107,3.17138462 L23.2468339,7.43430769 L24.4485467,11.7936923 C24.4600173,11.8346462 24.4293166,11.8752615 24.3861332,11.8752615 L24.3861332,11.8752615 L21.3818512,11.8752615 L18.3779066,11.8752615 C18.3350606,11.8752615 18.3043599,11.8346462 18.3154931,11.7936923 L18.3154931,11.7936923 Z M1.3241782,1.8304 C0.490536332,2.66673846 0.0266522491,3.79178462 0.0266522491,5.12633846 L0.0266522491,5.12633846 C0.0266522491,6.60812308 0.646064014,7.74129231 1.56877163,8.66698462 L1.56877163,8.66698462 C2.67062284,9.77206154 4.20464533,10.5816615 5.63475779,11.3371077 L5.63475779,11.3371077 C8.16199827,12.6713231 9.85964533,13.6017538 9.85964533,15.5103385 L9.85964533,15.5103385 C9.85964533,17.9492923 8.1400692,18.3656 5.71943772,18.3656 L5.71943772,18.3656 C4.00559689,18.3656 2.11902249,18.1879077 1.00603806,17.9723077 L1.00603806,17.9723077 C0.76549308,17.9256 0.544178201,18.1087077 0.544178201,18.3537538 L0.544178201,18.3537538 L0.544178201,20.2000615 C0.544178201,20.3912923 0.681150519,20.5534154 0.869065744,20.5838769 L0.869065744,20.5838769 C2.1200346,20.7947385 3.88279412,20.9609231 5.71943772,20.9612638 L5.71943772,20.9612638 C7.57834775,20.9619385 9.52193772,20.8099692 10.9712803,19.3549231 L10.9712803,19.3549231 C11.9506661,18.3733846 12.4472751,16.9921231 12.4472751,15.2500615 L12.4472751,15.2500615 C12.4472751,13.8559385 11.9010727,12.7085538 10.9051557,11.7094154 L10.9051557,11.7094154 C9.80364187,10.6046769 8.26995675,9.79473846 6.83984429,9.03996923 L6.83984429,9.03996923 C4.28932526,7.69323077 2.61461938,6.69206154 2.61461938,5.12633846 L2.61461938,5.12633846 C2.61461938,3.23636923 4.37400519,2.7896 6.23696367,2.7896 L6.23696367,2.7896 C7.89716263,2.7896 9.564109,2.9304 11.2259948,3.17510769 L11.2259948,3.17510769 C11.4604671,3.20963077 11.6713235,3.03024615 11.6713235,2.79196923 L11.6713235,2.79196923 L11.6713235,0.954461538 C11.6713235,0.760523077 11.5279412,0.594 11.3363149,0.5676 L11.3363149,0.5676 C9.63158304,0.327969231 7.9508045,0.1936 6.23696367,0.1936 L6.23696367,0.1936 C4.43776817,0.1936 2.62474048,0.526646154 1.3241782,1.8304 L1.3241782,1.8304 Z" id="Fill-4" fill="url(#linearGradient-6)" mask="url(#mask-5)"></path>
                            </g>
                            <g id="Group-9" transform="translate(70.847751, 0.226769)">
                                <mask id="mask-8" fill="white">
                                    <use xlink:href="#path-7"></use>
                                </mask>
                                <g id="Clip-8"></g>
                                <path d="M91.631782,9.65630769 L91.631782,12.0015077 C91.631782,19.3396923 94.8712111,21.5021231 100.661497,21.5021231 L100.661497,21.5021231 C102.349022,21.5021231 105.198789,21.1971692 106.22237,20.9473846 L106.22237,20.9473846 L106.22237,17.2649231 C104.838478,17.3735692 102.874308,17.4828923 101.186107,17.4828923 L101.186107,17.4828923 C98.1160381,17.4828923 96.649827,16.4465231 96.649827,12.0015077 L96.649827,12.0015077 L96.649827,9.65630769 C96.649827,5.23904615 98.1160381,4.23110769 101.159118,4.23110769 L101.159118,4.23110769 C102.847318,4.23110769 104.838478,4.36649231 106.22237,4.47513846 L106.22237,4.47513846 L106.22237,0.793692308 C105.198789,0.516830769 102.349022,0.211538462 100.661497,0.211538462 L100.661497,0.211538462 C94.8712111,0.211538462 91.631782,2.31812308 91.631782,9.65630769 L91.631782,9.65630769 Z M15.416808,9.82012308 L15.416808,11.8925231 C15.416808,18.9244 18.9898962,21.5021231 24.3223702,21.5021231 L24.3223702,21.5021231 C29.682846,21.5021231 33.2552595,18.9244 33.2552595,11.8925231 L33.2552595,11.8925231 L33.2552595,9.82012308 C33.2552595,2.76218462 29.655519,0.211538462 24.3223702,0.211538462 L24.3223702,0.211538462 C19.0172232,0.211538462 15.416808,2.76218462 15.416808,9.82012308 L15.416808,9.82012308 Z M20.4358651,11.8651077 L20.4358651,9.82012308 C20.4358651,5.59341538 21.8615917,4.23110769 24.3223702,4.23110769 L24.3223702,4.23110769 C26.8388149,4.23110769 28.2372145,5.59341538 28.2372145,9.82012308 L28.2372145,9.82012308 L28.2372145,11.8651077 C28.2372145,16.1733846 26.7834862,17.4828923 24.3223702,17.4828923 L24.3223702,17.4828923 C21.8902682,17.4828923 20.4358651,16.1733846 20.4358651,11.8651077 L20.4358651,11.8651077 Z M0.0347491349,9.65630769 L0.0347491349,12.0015077 C0.0347491349,19.3396923 3.27485294,21.5021231 9.06547578,21.5021231 L9.06547578,21.5021231 C10.7526644,21.5021231 13.6020934,21.1971692 14.6263495,20.9473846 L14.6263495,20.9473846 L14.6263495,17.2649231 C13.2424567,17.3735692 11.2786246,17.4828923 9.59109862,17.4828923 L9.59109862,17.4828923 C6.51967993,17.4828923 5.0541436,16.4465231 5.0541436,12.0015077 L5.0541436,12.0015077 L5.0541436,9.65630769 C5.0541436,5.23904615 6.51967993,4.23110769 9.56275952,4.23110769 L9.56275952,4.23110769 C11.2509602,4.23110769 13.2424567,4.36649231 14.6263495,4.47513846 L14.6263495,4.47513846 L14.6263495,0.793692308 C13.6020934,0.516830769 10.7526644,0.211538462 9.06547578,0.211538462 L9.06547578,0.211538462 C3.27485294,0.211538462 0.0347491349,2.31812308 0.0347491349,9.65630769 L0.0347491349,9.65630769 Z M107.016202,0.534092308 L107.016202,4.17018462 L112.963702,4.17018462 L112.963702,21.1589231 L117.982422,21.1589231 L117.982422,4.17018462 L123.93026,4.17018462 L123.93026,0.534092308 L107.016202,0.534092308 Z M76.3161851,0.534092308 L76.3161851,21.1805846 L90.1598356,21.1805846 L90.1598356,17.5444923 L81.3349048,17.5444923 L81.3349048,12.3362462 L89.5788841,12.3362462 L89.5788841,8.70015385 L81.3349048,8.70015385 L81.3349048,4.17018462 L90.1598356,4.17018462 L90.1598356,0.534092308 L76.3161851,0.534092308 Z M68.7752855,0.555076923 L68.7752855,10.5403692 C68.7752855,11.8001231 68.8032872,13.1150462 68.8582785,14.0932 L68.8582785,14.0932 L68.8032872,14.0932 C68.3829239,13.1702154 67.8218772,12.0512615 67.3161592,11.1563692 L67.3161592,11.1563692 L61.2259516,0.555076923 L55.955891,0.555076923 L55.955891,21.1589231 L60.6365657,21.1589231 L60.6365657,11.0450154 C60.6365657,9.92572308 60.5815744,8.77867692 60.55391,7.68781538 L60.55391,7.68781538 L60.6099135,7.68781538 C61.0296021,8.61113846 61.5633218,9.64615385 62.0687024,10.5403692 L62.0687024,10.5403692 L68.1022318,21.1589231 L73.4559602,21.1589231 L73.4559602,0.555076923 L68.7752855,0.555076923 Z M48.4153287,0.555076923 L48.4153287,10.5403692 C48.4153287,11.8001231 48.4426557,13.1150462 48.4976471,14.0932 L48.4976471,14.0932 L48.4426557,14.0932 C48.0226298,13.1702154 47.461583,12.0512615 46.9558651,11.1563692 L46.9558651,11.1563692 L40.8653201,0.555076923 L35.5952595,0.555076923 L35.5952595,21.1589231 L40.2762716,21.1589231 L40.2762716,11.0450154 C40.2762716,9.92572308 40.2212803,8.77867692 40.1936159,7.68781538 L40.1936159,7.68781538 L40.2486073,7.68781538 C40.6686332,8.61113846 41.2026903,9.64615385 41.7073962,10.5403692 L41.7073962,10.5403692 L47.7416003,21.1589231 L53.0960035,21.1589231 L53.0960035,0.555076923 L48.4153287,0.555076923 Z" id="Fill-7" fill="url(#linearGradient-9)" mask="url(#mask-8)"></path>
                            </g>
                        </g>
                    </g>
                </g>
            </g>
        </g>
    </g>
</svg>