<?xml version="1.0" encoding="UTF-8"?>
<svg width="112px" height="34px" viewBox="0 0 112 34" version="1.1" xmlns="http://www.w3.org/2000/svg" xmlns:xlink="http://www.w3.org/1999/xlink">
    <!-- Generator: Sketch 61 (89581) - https://sketch.com -->
    <title>Group 26</title>
    <desc>Created with Sketch.</desc>
    <defs>
        <polygon id="path-1" points="0.000246376812 0.352811594 60.1248348 0.352811594 60.1248348 10.4241043 0.000246376812 10.4241043"></polygon>
        <polygon id="path-3" points="0.262243478 0.325566171 18.0125267 0.325566171 18.0125267 18.7246377 0.262243478 18.7246377"></polygon>
        <polygon id="path-5" points="0.153788406 0.382721739 13.2018551 0.382721739 13.2018551 16.4908377 0.153788406 16.4908377"></polygon>
    </defs>
    <g id="Symbols" stroke="none" stroke-width="1" fill="none" fill-rule="evenodd">
        <g id="Header" transform="translate(-12.000000, -10.000000)">
            <g id="Group-26">
                <g transform="translate(12.000000, 10.000000)">
                    <g id="Group-3" transform="translate(0.000000, 0.140041)">
                        <mask id="mask-2" fill="white">
                            <use xlink:href="#path-1"></use>
                        </mask>
                        <g id="Clip-2"></g>
                        <path d="M0.462449275,3.66451014 C0.164826087,3.96065507 0.000246376812,4.35732174 0.000246376812,4.82937971 C0.000246376812,5.35268406 0.220507246,5.7528 0.549666667,6.07998841 C0.942391304,6.47024928 1.48934783,6.75653913 1.99836232,7.02311884 C2.89911594,7.49468406 3.50471014,7.82335072 3.50471014,8.49793043 C3.50471014,9.35926377 2.89221739,9.5065971 2.0294058,9.5065971 C1.41789855,9.5065971 0.745782609,9.44401739 0.349115942,9.36764058 C0.263869565,9.35088696 0.184536232,9.41593043 0.184536232,9.50265507 L0.184536232,10.1550609 C0.184536232,10.2225681 0.233318841,10.2792348 0.300333333,10.2905681 C0.746275362,10.3654667 1.37453623,10.4236116 2.0294058,10.4241043 C2.69117391,10.4241043 3.38447826,10.3699014 3.90137681,9.85595942 C4.25024638,9.50906087 4.42714493,9.02123478 4.42714493,8.40578551 C4.42714493,7.91352464 4.23201449,7.50798841 3.87772464,7.15468406 C3.48450725,6.76491594 2.93804348,6.47813333 2.42804348,6.21204638 C1.5194058,5.73604638 0.922681159,5.38224928 0.922681159,4.82937971 C0.922681159,4.16169855 1.54897101,4.00352464 2.21369565,4.00352464 C2.805,4.00352464 3.39926087,4.05329275 3.99155072,4.14001739 C4.07531884,4.15184348 4.15021739,4.08827826 4.15021739,4.00401739 L4.15021739,3.35555362 C4.15021739,3.28706087 4.09946377,3.22793043 4.03097101,3.21856812 C3.42389855,3.13332174 2.82421739,3.08651014 2.21369565,3.08651014 C1.57262319,3.08651014 0.925637681,3.20378551 0.462449275,3.66451014 L0.462449275,3.66451014 Z M6.5183913,7.18474203 L6.94708696,5.64488696 L7.36592754,4.13853913 C7.3876087,4.05871304 7.46053623,4.00352464 7.54381159,4.00352464 L7.67981159,4.00352464 C7.7625942,4.00352464 7.83552174,4.05871304 7.8572029,4.13853913 L8.27604348,5.64488696 L8.70473913,7.18474203 C8.70868116,7.19952464 8.69784058,7.21381449 8.68256522,7.21381449 L7.61181159,7.21381449 L6.54105797,7.21381449 C6.52578261,7.21381449 6.51494203,7.19952464 6.5183913,7.18474203 L6.5183913,7.18474203 Z M7.33389855,3.08651014 C6.96088406,3.08651014 6.63369565,3.33436522 6.53415942,3.69210435 L6.12024638,5.17972754 C5.97586957,5.69613333 5.81276812,6.2830029 5.64966667,6.86987246 C5.48607246,7.45624928 5.32297101,8.04410435 5.17908696,8.55952464 L4.70850725,10.2496696 C4.68436232,10.336887 4.75088406,10.4241043 4.84253623,10.4241043 L5.51268116,10.4241043 C5.57476812,10.4241043 5.62946377,10.3822203 5.64621739,10.3225971 L5.94876812,9.23558261 L6.25082609,8.14807536 C6.25378261,8.13772754 6.26265217,8.13082899 6.273,8.13082899 L7.61181159,8.13082899 L8.95062319,8.13082899 C8.96047826,8.13082899 8.96984058,8.13772754 8.9727971,8.14807536 L9.27534783,9.23558261 L9.5774058,10.3225971 C9.59415942,10.3822203 9.64836232,10.4241043 9.71094203,10.4241043 L10.381087,10.4241043 C10.4727391,10.4241043 10.5387681,10.336887 10.5141304,10.2496696 L10.0445362,8.55952464 C9.90015942,8.04410435 9.73705797,7.45624928 9.57395652,6.86987246 C9.41036232,6.2830029 9.24676812,5.69613333 9.10337681,5.17972754 L8.68946377,3.69210435 C8.58943478,3.33436522 8.26224638,3.08651014 7.88923188,3.08651014 L7.33389855,3.08651014 Z M11.2123623,3.08651014 C11.1354928,3.08651014 11.0738986,3.14810435 11.0738986,3.22398841 L11.0738986,5.34874203 L11.0738986,7.47349565 L11.0738986,9.59824928 C11.0738986,10.0540464 11.4459275,10.4241043 11.9041884,10.4241043 L13.4484783,10.4241043 L14.9937536,10.4241043 C15.0706232,10.4241043 15.1322174,10.3625101 15.1322174,10.2861333 L15.1322174,9.64407536 C15.1322174,9.5681913 15.0706232,9.5065971 14.9937536,9.5065971 L13.7258986,9.5065971 L12.457058,9.5065971 C12.2027971,9.5065971 11.9963333,9.30111884 11.9963333,9.04784348 L11.9963333,7.1063942 L11.9963333,5.16543768 L11.9963333,3.22398841 C11.9963333,3.14810435 11.9337536,3.08651014 11.8578696,3.08651014 L11.2123623,3.08651014 Z M17.8758696,3.08651014 L16.331087,3.08651014 C15.8728261,3.08651014 15.5012899,3.45656812 15.5012899,3.91236522 L15.5012899,5.80798841 L15.5012899,7.70262609 L15.5012899,9.59824928 C15.5012899,10.0540464 15.8728261,10.4241043 16.331087,10.4241043 L17.8758696,10.4241043 L19.4206522,10.4241043 C19.4975217,10.4241043 19.5591159,10.3625101 19.5591159,10.2861333 L19.5591159,9.64407536 C19.5591159,9.5681913 19.4975217,9.5065971 19.4206522,9.5065971 L18.1523043,9.5065971 L16.8839565,9.5065971 C16.6301884,9.5065971 16.4237246,9.30111884 16.4237246,9.04784348 L16.4237246,8.09584348 L16.4237246,7.14433623 C16.4237246,7.13201739 16.4335797,7.12216232 16.4463913,7.12216232 L19.0520725,7.12216232 C19.1284493,7.12216232 19.1905362,7.06056812 19.1905362,6.9841913 L19.1905362,6.34262609 C19.1905362,6.26674203 19.1284493,6.20465507 19.0520725,6.20465507 L16.4463913,6.20465507 C16.4335797,6.20465507 16.4237246,6.1948 16.4237246,6.18198841 L16.4237246,5.32213333 L16.4237246,4.46227826 C16.4237246,4.20851014 16.6301884,4.00352464 16.8839565,4.00352464 L18.1523043,4.00352464 L19.4206522,4.00352464 C19.4975217,4.00352464 19.5591159,3.94193043 19.5591159,3.86604638 L19.5591159,3.22398841 C19.5591159,3.14810435 19.4975217,3.08651014 19.4206522,3.08651014 L17.8758696,3.08651014 Z M22.7501884,3.08651014 L21.5932029,3.08651014 L20.4357246,3.08651014 C20.3588551,3.08651014 20.2967681,3.14810435 20.2967681,3.22398841 L20.2967681,3.86604638 C20.2967681,3.94193043 20.3588551,4.00352464 20.4357246,4.00352464 L21.4522754,4.00352464 L22.4688261,4.00352464 L23.4863623,4.00352464 C23.5957536,4.00352464 23.6617826,4.12424928 23.6021594,4.2154087 L22.5397826,5.8612058 C22.1987971,6.38943768 21.8208551,6.97532174 21.4764203,7.50651014 L20.4140435,9.15230725 C20.0597536,9.70172754 20.4554348,10.4241043 21.1127681,10.4241043 L22.2392029,10.4241043 L23.3661304,10.4241043 L24.4940435,10.4241043 C24.5699275,10.4241043 24.6320145,10.3625101 24.6320145,10.2861333 L24.6320145,9.64407536 C24.6320145,9.5681913 24.5699275,9.5065971 24.4940435,9.5065971 L23.5075507,9.5065971 L22.5215507,9.5065971 L21.5355507,9.5065971 C21.4256667,9.5065971 21.3596377,9.38636522 21.4182754,9.29422029 L22.4816377,7.6494087 C22.8221304,7.12166957 23.2005652,6.53529275 23.5440145,6.00361159 L24.6068841,4.35830725 C24.9616667,3.80888696 24.565,3.08651014 23.9086522,3.08651014 L22.7501884,3.08651014 Z M25.7914638,3.75271304 C25.4238696,4.11833623 25.1853768,4.63227826 25.1853768,5.28764058 C25.1853768,5.92329275 25.4263333,6.37662609 25.7653478,6.71268406 C26.1841884,7.12906087 26.7523333,7.36804638 27.1948261,7.55381449 C27.9324783,7.86277101 28.1256377,7.99187246 28.136971,8.19981449 C28.1601304,8.58761159 27.5047681,8.58958261 27.1223913,8.58958261 C26.6803913,8.58908986 26.0940145,8.48314783 25.5401594,8.35552464 C25.452942,8.33532174 25.3696667,8.40085797 25.3696667,8.48906087 L25.3696667,10.0368 C25.3696667,10.1013507 25.4159855,10.1585101 25.4795507,10.1713217 C26.0905652,10.2984522 26.7153768,10.4241043 27.2140435,10.4241043 C28.0256087,10.4241043 28.8243623,10.2654377 29.3979275,9.69482899 C29.7773478,9.31737971 29.9808551,8.81033623 29.9808551,8.22297391 C29.9808551,7.55627826 29.7231449,7.07978551 29.3683623,6.72697391 C28.9283333,6.28990145 28.3394928,6.04303188 27.9112899,5.86268406 C27.655058,5.75575652 27.0277826,5.47685797 27.0277826,5.19993043 C27.0277826,4.91068406 27.6102174,4.92103188 27.8605362,4.92103188 C28.3562464,4.92053913 29.0022464,5.00726377 29.5467391,5.08511884 C29.6300145,5.09694493 29.7044203,5.0323942 29.7044203,4.94911884 L29.7044203,3.37674203 C29.7044203,3.30775652 29.6526812,3.24862609 29.5836957,3.24024928 C28.8573768,3.14761159 28.1300725,3.08651014 27.5836087,3.08651014 C26.8947391,3.08651014 26.2694348,3.27769855 25.7914638,3.75271304 L25.7914638,3.75271304 Z M35.0537536,3.08651014 C34.9778696,3.08651014 34.9157826,3.14810435 34.9157826,3.22398841 L34.9157826,4.51894493 L34.9157826,5.81488696 C34.9157826,5.82769855 34.904942,5.83804638 34.8926232,5.83804638 L33.809058,5.83804638 L32.725,5.83804638 C32.7121884,5.83804638 32.7023333,5.82769855 32.7023333,5.81488696 L32.7023333,4.51894493 L32.7023333,3.22398841 C32.7023333,3.14810435 32.6402464,3.08651014 32.5633768,3.08651014 L30.9959275,3.08651014 C30.9195507,3.08651014 30.8574638,3.14810435 30.8574638,3.22398841 L30.8574638,5.57787246 L30.8574638,7.93175652 L30.8574638,10.2861333 C30.8574638,10.3625101 30.9195507,10.4241043 30.9959275,10.4241043 L32.5633768,10.4241043 C32.6402464,10.4241043 32.7023333,10.3625101 32.7023333,10.2861333 L32.7023333,8.99068406 L32.7023333,7.69523478 C32.7023333,7.68242319 32.7121884,7.67256812 32.725,7.67256812 L33.809058,7.67256812 L34.8926232,7.67256812 C34.904942,7.67256812 34.9157826,7.68242319 34.9157826,7.69523478 L34.9157826,8.99068406 L34.9157826,10.2861333 C34.9157826,10.3625101 34.9778696,10.4241043 35.0537536,10.4241043 L36.6221884,10.4241043 C36.6980725,10.4241043 36.7601594,10.3625101 36.7601594,10.2861333 L36.7601594,7.93175652 L36.7601594,5.57787246 L36.7601594,3.22398841 C36.7601594,3.14810435 36.6980725,3.08651014 36.6221884,3.08651014 L35.0537536,3.08651014 Z M49.3032029,6.09033623 L49.3032029,4.9441913 C49.3032029,4.93088696 49.3140435,4.92103188 49.3263623,4.92103188 L50.5237536,4.92103188 C50.8514348,4.92103188 51.1382174,5.17282899 51.1475797,5.49903188 C51.1574348,5.83656812 50.8859275,6.11349565 50.5488841,6.11349565 L49.3263623,6.11349565 C49.3140435,6.11349565 49.3032029,6.10314783 49.3032029,6.09033623 L49.3032029,6.09033623 Z M49.045,3.08651014 L47.5967971,3.08651014 C47.520913,3.08651014 47.4588261,3.14810435 47.4588261,3.22398841 L47.4588261,5.57787246 L47.4588261,7.93175652 L47.4588261,10.2861333 C47.4588261,10.3625101 47.520913,10.4241043 47.5967971,10.4241043 L49.1647391,10.4241043 C49.2416087,10.4241043 49.3032029,10.3625101 49.3032029,10.2861333 L49.3032029,9.12865507 L49.3032029,7.9701913 C49.3032029,7.95787246 49.3140435,7.94752464 49.3263623,7.94752464 L49.7762464,7.94752464 C49.8260145,7.94752464 49.8718406,7.97413333 49.8964783,8.01749565 L50.5602174,9.18581449 L51.2244493,10.3536406 C51.2485942,10.3970029 51.2939275,10.4241043 51.3446812,10.4241043 L53.1254928,10.4241043 C53.2314348,10.4241043 53.2984493,10.310771 53.2462174,10.2191188 L52.5198986,8.92662609 L51.7935797,7.63364058 C51.7871739,7.62329275 51.7911159,7.60949565 51.8014638,7.60308986 C52.1754638,7.38085797 52.484913,7.06204638 52.6943333,6.68065507 C52.8963623,6.31256812 53.0062464,5.88781449 52.9914638,5.43546667 C52.9697826,4.7741913 52.6751159,4.18535072 52.2193188,3.76256812 C51.7664783,3.34274203 51.1544783,3.08651014 50.4927101,3.08651014 L49.045,3.08651014 Z M57.8376957,3.08651014 C57.7884203,3.08651014 57.743087,3.11213333 57.7179565,3.15352464 L56.8753478,4.55146667 L56.0327391,5.94990145 C56.020913,5.96961159 55.9898696,5.96123478 55.9898696,5.93807536 L55.9898696,4.58103188 L55.9898696,3.22398841 C55.9898696,3.14810435 55.9282754,3.08651014 55.8518986,3.08651014 L54.2839565,3.08651014 C54.2075797,3.08651014 54.1454928,3.14810435 54.1454928,3.22398841 L54.1454928,5.57787246 L54.1454928,7.93175652 L54.1454928,10.2861333 C54.1454928,10.3625101 54.2075797,10.4241043 54.2839565,10.4241043 L55.8518986,10.4241043 C55.9282754,10.4241043 55.9898696,10.3625101 55.9898696,10.2861333 L55.9898696,8.6501913 L55.9898696,7.01375652 C55.9898696,6.9905971 56.020913,6.98172754 56.0327391,7.00193043 L57.0596377,8.68024928 L58.087029,10.3580754 C58.1121594,10.3984812 58.157,10.4241043 58.2052899,10.4241043 L59.9865942,10.4241043 C60.0945072,10.4241043 60.1605362,10.3063362 60.1043623,10.2141913 L58.9833478,8.38262609 L57.8623333,6.55056812 C57.8352319,6.5072058 57.8352319,6.45201739 57.8613478,6.40865507 L58.8005362,4.85155362 L59.7387391,3.29494493 C59.7934348,3.2028 59.726913,3.08651014 59.6194928,3.08651014 L57.8376957,3.08651014 Z M46.461,0.354684058 C45.2227101,0.583321739 44.0405942,0.898191304 42.9708261,1.3805971 C41.8621304,1.88123478 40.8707101,2.56222029 40.0571739,3.5161913 C39.3471159,4.35042319 38.7720725,5.39308986 38.3719565,6.70578551 C38.0615217,7.72430725 37.8560435,8.90543768 37.7747391,10.2772638 C37.7698116,10.3565971 37.8328841,10.4241043 37.9132029,10.4241043 L39.6733188,10.4241043 C39.7496957,10.4241043 39.8107971,10.3625101 39.8107971,10.2866261 C39.8152319,9.55981449 39.8827391,8.84877101 40.0182464,8.16877101 C40.1601594,7.45427826 40.3779565,6.77427826 40.6721304,6.14453913 C40.9781304,5.49213333 41.3683913,4.89442319 41.8453768,4.37013333 C42.3159565,3.85422029 42.8717826,3.40877101 43.5182754,3.05398841 C43.6187971,2.99830725 43.741,3.08207536 43.7227681,3.19491594 C43.6232319,3.79656812 43.5719855,4.40413333 43.5665652,5.01317681 C43.5611449,5.62222029 43.6005652,6.23077101 43.6828551,6.8343942 C43.7646522,7.43801739 43.8898116,8.03622029 44.0538986,8.62062609 C44.218971,9.20995942 44.4244493,9.78549565 44.6663913,10.340829 C44.6885652,10.3910899 44.7383333,10.4241043 44.7945072,10.4241043 L46.5832029,10.4241043 C46.6881594,10.4241043 46.7536957,10.3122493 46.7044203,10.2201043 C46.2737536,9.42381449 45.9726812,8.64181449 45.7731159,7.88691594 C45.543,7.01523478 45.446913,6.17952464 45.4424783,5.39949565 C45.437058,4.47903188 45.5577826,3.63691594 45.7336957,2.90764058 C45.9854928,1.85708986 46.3491449,1.03961159 46.6083333,0.554249275 C46.6581014,0.461118841 46.5866522,0.352713043 46.4866232,0.352713043 C46.4782464,0.352713043 46.4693768,0.352713043 46.461,0.354684058 L46.461,0.354684058 Z" id="Fill-1" fill="#808FA5" mask="url(#mask-2)"></path>
                    </g>
                    <g id="Group-6" transform="translate(15.768116, 14.922649)">
                        <mask id="mask-4" fill="white">
                            <use xlink:href="#path-3"></use>
                        </mask>
                        <g id="Clip-5"></g>
                        <path d="M16.8936638,7.22785797 C16.4698957,7.22785797 16.0638667,6.98493043 15.8761275,6.57446667 C14.8768232,4.39156812 12.8678667,2.88768406 10.5006783,2.55162609 C9.88917101,2.46391594 9.46392464,1.89774203 9.55064928,1.28524928 C9.63786667,0.673742029 10.2109391,0.255886957 10.8165333,0.33522029 C13.9415768,0.780176812 16.5940696,2.76449565 17.9107072,5.64316232 C18.1679246,6.20490145 17.9210551,6.86913333 17.3588232,7.12585797 C17.2080406,7.19582899 17.0493739,7.22785797 16.8936638,7.22785797 M1.70847536,12.8920609 C1.22409855,12.8920609 0.778156522,12.5762058 0.634765217,12.087887 C0.387402899,11.2452783 0.262243478,10.3691623 0.262243478,9.4831913 C0.262736232,7.2584087 1.06444638,5.11049565 2.51954783,3.43168406 C2.92409855,2.96553913 3.63021449,2.91429275 4.09783768,3.31933623 C4.56447536,3.72437971 4.61473623,4.43098841 4.21018551,4.89811884 C3.10789565,6.16942319 2.50082319,7.79797391 2.50033043,9.48368406 C2.50033043,10.1558 2.59543188,10.8195391 2.78218551,11.4576551 C2.95662029,12.0509304 2.61662029,12.6727855 2.02383768,12.8462348 C1.91838841,12.877771 1.81244638,12.8920609 1.70847536,12.8920609 M9.50383768,18.7247855 C8.61885217,18.7247855 7.74372174,18.5996261 6.90111304,18.3522638 C6.30833043,18.1788145 5.96833043,17.5574522 6.14227246,16.9641768 C6.31522899,16.3713942 6.93954783,16.0304087 7.53035942,16.2053362 C8.16847536,16.3920899 8.83221449,16.4866986 9.50383768,16.4866986 C11.8956638,16.4866986 14.0987652,15.283887 15.3961855,13.2695101 C15.731258,12.7496551 16.4240696,12.599858 16.9434319,12.9344377 C17.4623014,13.2695101 17.6125913,13.961829 17.2780116,14.4811913 C15.5666783,17.1381188 12.6604174,18.7247855 9.50383768,18.7247855" id="Fill-4" fill="#0155FF" mask="url(#mask-4)"></path>
                    </g>
                    <path d="M23.0165217,16.8038348 C23.0165217,17.0975159 22.778029,17.3360087 22.4838551,17.3360087 C22.1901739,17.3360087 21.9516812,17.0975159 21.9516812,16.8038348 C21.9516812,16.5096609 22.1901739,16.2711681 22.4838551,16.2711681 C22.778029,16.2711681 23.0165217,16.5096609 23.0165217,16.8038348 M22.4838551,14.8998348 C21.4337971,14.8998348 20.5803478,15.7537768 20.5803478,16.8038348 C20.5803478,17.8538928 21.4337971,18.7078348 22.4838551,18.7078348 C23.533913,18.7078348 24.3878551,17.8538928 24.3878551,16.8038348 C24.3878551,15.7537768 23.533913,14.8998348 22.4838551,14.8998348" id="Fill-7" fill="#410093"></path>
                    <path d="M33.8672029,25.0276464 C33.8672029,25.3218203 33.6287101,25.560313 33.335029,25.560313 C33.0408551,25.560313 32.8023623,25.3218203 32.8023623,25.0276464 C32.8023623,24.734458 33.0408551,24.4954725 33.335029,24.4954725 C33.6287101,24.4954725 33.8672029,24.734458 33.8672029,25.0276464 M33.335029,23.1241391 C32.284971,23.1241391 31.431029,23.9775884 31.431029,25.0276464 C31.431029,26.0777043 32.284971,26.9321391 33.335029,26.9321391 C34.385087,26.9321391 35.239029,26.0777043 35.239029,25.0276464 C35.239029,23.9775884 34.385087,23.1241391 33.335029,23.1241391" id="Fill-9" fill="#410093"></path>
                    <path d="M20.013829,30.1211913 C20.013829,30.4143797 19.7753362,30.6533652 19.4821478,30.6533652 C19.1879739,30.6533652 18.9489884,30.4143797 18.9489884,30.1211913 C18.9489884,29.8270174 19.1879739,29.5885246 19.4821478,29.5885246 C19.7753362,29.5885246 20.013829,29.8270174 20.013829,30.1211913 M19.4821478,28.2166986 C18.4315971,28.2166986 17.5776551,29.0711333 17.5776551,30.1211913 C17.5776551,31.1712493 18.4315971,32.0251913 19.4821478,32.0251913 C20.531713,32.0251913 21.3856551,31.1712493 21.3856551,30.1211913 C21.3856551,29.0711333 20.531713,28.2166986 19.4821478,28.2166986" id="Fill-11" fill="#410093"></path>
                    <path d="M2.42868406,17.9741246 C3.72561159,16.6486174 5.37633623,15.985371 7.38036522,15.985371 C10.0609449,15.985371 12.0221043,16.8742986 13.2613797,18.6516609 C13.9463072,19.649487 14.3139014,20.6517478 14.3646551,21.6569652 L10.9986551,21.6569652 C10.7843072,20.8848203 10.5093507,20.3018928 10.1737855,19.9081826 C9.5745971,19.2089652 8.68566957,18.8591101 7.50848116,18.8591101 C6.30911884,18.8591101 5.36303188,19.3528493 4.6712058,20.3403275 C3.97888696,21.327313 3.63248116,22.7242696 3.63248116,24.5311971 C3.63248116,26.3381246 3.99810435,27.6912261 4.72836522,28.5909942 C5.45862609,29.4907623 6.38697391,29.9401536 7.5134087,29.9401536 C8.66743768,29.9401536 9.54749565,29.5543275 10.1535826,28.7821826 C10.4881623,28.3667913 10.7665681,27.7439507 10.9873217,26.9136609 L14.3311478,26.9136609 C14.042887,28.669342 13.3057275,30.097342 12.1206551,31.1971681 C10.9350899,32.2969942 9.41593043,32.8474 7.56366957,32.8474 C5.27187246,32.8474 3.46987246,32.1043275 2.15816232,30.6176899 C0.84595942,29.1246464 0.190597101,27.0772551 0.190597101,24.4760087 C0.190597101,21.6638638 0.936626087,19.4967333 2.42868406,17.9741246" id="Fill-13" fill="#410093"></path>
                    <polygon id="Fill-15" fill="#410093" points="36.085087 16.2908783 39.6136957 16.2908783 46.0081594 27.5227043 46.0081594 16.2908783 49.1440435 16.2908783 49.1440435 32.3989942 45.779029 32.3989942 39.2214638 20.9700667 39.2214638 32.3989942 36.085087 32.3989942"></polygon>
                    <polygon id="Fill-17" fill="#410093" points="52.2478 16.2908783 55.7764087 16.2908783 62.1708725 27.5227043 62.1708725 16.2908783 65.3072493 16.2908783 65.3072493 32.3989942 61.941742 32.3989942 55.3841768 20.9700667 55.3841768 32.3989942 52.2478 32.3989942"></polygon>
                    <polygon id="Fill-19" fill="#410093" points="80.3770841 19.1434783 71.8529391 19.1434783 71.8529391 22.5636812 79.6773739 22.5636812 79.6773739 25.3615362 71.8529391 25.3615362 71.8529391 29.5031304 80.7703014 29.5031304 80.7703014 32.3990435 68.5633159 32.3990435 68.5633159 16.2909275 80.3770841 16.2909275"></polygon>
                    <path d="M84.9317043,17.9741246 C86.2291246,16.6486174 87.8793565,15.985371 89.8833855,15.985371 C92.564458,15.985371 94.5251246,16.8742986 95.7648928,18.6516609 C96.4493275,19.649487 96.8174145,20.6517478 96.8676754,21.6569652 L93.5016754,21.6569652 C93.2873275,20.8848203 93.012371,20.3018928 92.6772986,19.9081826 C92.0776174,19.2089652 91.1891826,18.8591101 90.0119942,18.8591101 C88.8126319,18.8591101 87.8665449,19.3528493 87.1742261,20.3403275 C86.4819072,21.327313 86.1359942,22.7242696 86.1359942,24.5311971 C86.1359942,26.3381246 86.5011246,27.6912261 87.2318783,28.5909942 C87.9621391,29.4907623 88.890487,29.9401536 90.016429,29.9401536 C91.170458,29.9401536 92.0510087,29.5543275 92.6570957,28.7821826 C92.9916754,28.3667913 93.2700812,27.7439507 93.4908348,26.9136609 L96.8346609,26.9136609 C96.5459072,28.669342 95.8092406,30.097342 94.6241681,31.1971681 C93.4386029,32.2969942 91.9194435,32.8474 90.0671826,32.8474 C87.7748928,32.8474 85.9733855,32.1043275 84.6611826,30.6176899 C83.3494725,29.1246464 82.6936174,27.0772551 82.6936174,24.4760087 C82.6936174,21.6638638 83.4396464,19.4967333 84.9317043,17.9741246" id="Fill-21" fill="#410093"></path>
                    <g id="Group-25" transform="translate(98.057971, 15.908157)">
                        <mask id="mask-6" fill="white">
                            <use xlink:href="#path-5"></use>
                        </mask>
                        <g id="Clip-24"></g>
                        <polygon id="Fill-23" fill="#410093" mask="url(#mask-6)" points="13.2019043 0.382721739 13.2019043 3.23527246 8.38277391 3.23527246 8.38277391 16.4908377 4.99509275 16.4908377 4.99509275 3.23527246 0.153788406 3.23527246 0.153788406 0.382721739"></polygon>
                    </g>
                </g>
            </g>
        </g>
    </g>
</svg>