<?xml version="1.0" encoding="UTF-8"?>
<svg width="159px" height="35px" viewBox="0 0 159 35" version="1.1" xmlns="http://www.w3.org/2000/svg" xmlns:xlink="http://www.w3.org/1999/xlink">
    <!-- Generator: sketchtool 54.1 (76490) - https://sketchapp.com -->
    <title>2F50ACF1-BD14-44DA-A6CF-264C7CCA36BF</title>
    <desc>Created with sketchtool.</desc>
    <defs>
        <linearGradient x1="50%" y1="-88.9507855%" x2="50%" y2="69.8268141%" id="linearGradient-1">
            <stop stop-color="#0155FF" offset="0%"></stop>
            <stop stop-color="#FFFFFF" offset="100%"></stop>
        </linearGradient>
        <path d="M4.45703125,22.4583333 L0.00911458333,22.4583333 C0.00786882167,9.45562032 0.00984023909,2.34777296 0.0150288356,1.13479125 C0.0180222566,0.458765141 0.424528836,0.0367718321 1.1082262,0.0164492082 C1.86436436,-0.00626431271 2.62229857,-0.00506886424 3.37843673,0.0176446567 C4.06033805,0.0385650048 4.4524762,0.45577652 4.4602591,1.14136622 C4.47103541,2.06604561 4.46265384,17.7019138 4.46325252,18.627191 L4.45703125,22.4583333 Z M22.2486979,22.4583333 L17.8007813,22.4583333 C17.8078384,9.39873711 17.8139613,2.27998139 17.8191499,1.10206617 C17.822742,0.445167233 18.2292486,0.0357261331 18.9123473,0.0160012334 C19.6690841,-0.00611456326 20.4270183,-0.00491911479 21.1825578,0.0171966819 C21.8644591,0.0369215816 22.2565973,0.442178612 22.2643802,1.10804341 L22.2486979,22.4583333 Z" id="path-2"></path>
    </defs>
    <g id="Campaign-Flow_LOGIN-to-Send-" stroke="none" stroke-width="1" fill="none" fill-rule="evenodd">
        <g id="Campaign_landing-Copy" transform="translate(-10.000000, -10.000000)">
            <g id="Header">
                <g id="Logo" transform="translate(10.000000, 10.000000)">
                    <g id="MC_Symbol">
                        <g>
                            <rect id="logo-base" fill="#0155FF" x="0" y="0" width="35" height="35" rx="5.82764228"></rect>
                            <g id="ic_M_logo" transform="translate(6.407552, 6.416667)">
                                <g id="Combined-Shape">
                                    <use fill="#FFFFFF" xlink:href="#path-2"></use>
                                    <use fill="url(#linearGradient-1)" xlink:href="#path-2"></use>
                                </g>
                                <path d="M22.2732505,22.5056895 L-1.26565425e-14,22.5056895 C0.0902159995,20.72297 1.55529289,19.2619164 3.46582098,18.9568581 C4.03614245,15.9182722 6.98094524,13.6035156 10.5279998,13.6035156 C14.0445375,13.6035156 16.9691417,15.8786138 17.5749323,18.8785929 C17.7349703,18.8620289 17.8977387,18.8535156 18.0627221,18.8535156 C20.3410867,18.8535156 22.1970379,20.4770631 22.2732505,22.5056895 Z" id="Combined-Shape" fill="#99BBFF" fill-rule="nonzero"></path>
                                <path d="M22.1028707,0.597420021 C21.8693838,0.148811326 21.4586865,0.00272436931 20.9695615,0.00576784757 C20.1972588,0.0112461084 19.4243575,0.0258548041 18.6526536,0.000898282349 C18.1377852,-0.0155365003 17.779772,0.193854804 17.4762391,0.603506978 C15.4688509,3.30976785 13.4512852,6.00811567 11.4361141,8.70889828 C11.3223641,8.84950698 11.2157983,8.98524611 11.1116273,9.12098524 C11.0068575,8.98524611 10.9008904,8.84950698 10.7871404,8.70889828 C8.77137068,6.00811567 6.75380489,3.30976785 4.74701542,0.603506978 C4.44288384,0.193854804 4.08487068,-0.0155365003 3.57000226,0.000898282349 C2.79829831,0.0258548041 2.025397,0.0112461084 1.25369305,0.00576784757 C0.763969363,0.00272436931 0.358061469,0.174376543 0.124574627,0.622376543 C-0.118491163,1.0898548 0.054528574,1.50802872 0.344291732,1.89759393 C3.59275226,6.26255046 6.83881805,10.6293331 10.0872786,14.9942896 C10.0908707,14.9985505 10.0926667,15.0028113 10.0956602,15.0070722 C10.1106273,15.0265505 10.1255944,15.0399418 10.1411602,15.0582026 C10.4530746,15.4550722 10.7811536,15.6577678 11.1116273,15.6553331 C11.4415023,15.6577678 11.7695812,15.4550722 12.0820944,15.0582026 C12.0970615,15.0399418 12.1126273,15.0265505 12.1269957,15.0070722 C12.1305878,15.0028113 12.1329825,14.9985505 12.1359759,14.9942896 C15.3844365,10.6293331 18.6299036,6.26255046 21.8789628,1.89759393 C22.1687259,1.50802872 22.3459365,1.06428959 22.1028707,0.597420021" id="Fill-6" fill="#FFFFFF"></path>
                            </g>
                        </g>
                    </g>
                    <g id="TExt-logo" transform="translate(45.000000, 0.000000)" fill-rule="nonzero">
                        <path d="M1.859375,11.8125 L5.5859375,21.1953125 L9.3203125,11.8125 L11.1796875,11.8125 L11.1796875,23.1875 L9.734375,23.1875 L9.734375,18.6328125 L9.8828125,13.859375 L9.859375,13.859375 L6.0703125,23.1875 L5.1015625,23.1875 L1.3203125,13.875 L1.296875,13.875 L1.4453125,18.6328125 L1.4453125,23.1875 L0,23.1875 L0,11.8125 L1.859375,11.8125 Z M18.953125,23.1875 C18.9010414,22.9218737 18.8619793,22.7031259 18.8359375,22.53125 C18.8098957,22.3593741 18.7916667,22.1796884 18.78125,21.9921875 C18.4791652,22.3880228 18.1041689,22.7122383 17.65625,22.9648438 C17.2083311,23.2174492 16.7161485,23.34375 16.1796875,23.34375 C15.289058,23.34375 14.6184918,23.1237001 14.1679688,22.6835938 C13.7174457,22.2434874 13.4921875,21.625004 13.4921875,20.828125 C13.4921875,20.0052042 13.8151009,19.3697939 14.4609375,18.921875 C15.1067741,18.4739561 16.0025984,18.25 17.1484375,18.25 L18.78125,18.25 L18.78125,17.390625 C18.78125,16.8749974 18.6223974,16.4726577 18.3046875,16.1835938 C17.9869776,15.8945298 17.5338571,15.75 16.9453125,15.75 C16.3984348,15.75 15.9570329,15.878905 15.6210938,16.1367188 C15.2851546,16.3945325 15.1171875,16.7083315 15.1171875,17.078125 L13.671875,17.078125 C13.671875,16.4270801 13.9817677,15.8476588 14.6015625,15.3398438 C15.2213573,14.8320287 16.0286409,14.578125 17.0234375,14.578125 C17.9974007,14.578125 18.7747367,14.8177059 19.3554688,15.296875 C19.9362008,15.7760441 20.2265625,16.479162 20.2265625,17.40625 L20.2265625,21.484375 C20.2265625,21.7864598 20.2421873,22.0755195 20.2734375,22.3515625 C20.3046877,22.6276055 20.3619787,22.9062486 20.4453125,23.1875 L18.953125,23.1875 Z M16.390625,22.1015625 C16.9322944,22.1015625 17.4179666,21.9765637 17.8476562,21.7265625 C18.2773459,21.4765613 18.5885407,21.1692727 18.78125,20.8046875 L18.78125,19.25 L17.1015625,19.25 C16.4296841,19.25 15.9010436,19.4075505 15.515625,19.7226562 C15.1302064,20.037762 14.9375,20.4166645 14.9375,20.859375 C14.9375,21.25 15.0585925,21.5546864 15.3007812,21.7734375 C15.54297,21.9921886 15.9062476,22.1015625 16.390625,22.1015625 Z M26.5546875,16.0390625 L25.7109375,15.9921875 C25.268227,15.9921875 24.9036473,16.093749 24.6171875,16.296875 C24.3307277,16.500001 24.1093758,16.7916648 23.953125,17.171875 L23.953125,23.1875 L22.5,23.1875 L22.5,14.734375 L23.796875,14.734375 L23.9375,15.9609375 L23.9609375,15.96875 C24.1953137,15.5312478 24.4895816,15.1901054 24.84375,14.9453125 C25.1979184,14.7005196 25.6145809,14.578125 26.09375,14.578125 C26.2187506,14.578125 26.3424473,14.5872395 26.4648438,14.6054688 C26.5872402,14.623698 26.6822913,14.6432291 26.75,14.6640625 L26.5546875,16.0390625 Z M30.546875,19.265625 L29.5390625,19.265625 L29.5390625,23.1875 L28.0859375,23.1875 L28.0859375,11 L29.5390625,11 L29.5390625,18.0859375 L30.5234375,18.0859375 L32.984375,14.734375 L34.6953125,14.734375 L31.7421875,18.5859375 L35.1015625,23.1875 L33.390625,23.1875 L30.546875,19.265625 Z M39.703125,23.34375 C38.5156191,23.34375 37.5781284,22.9596393 36.890625,22.1914062 C36.2031216,21.4231732 35.859375,20.4036522 35.859375,19.1328125 L35.859375,18.78125 C35.859375,17.5520772 36.2122361,16.5442748 36.9179688,15.7578125 C37.6237014,14.9713502 38.4739534,14.578125 39.46875,14.578125 C40.6145891,14.578125 41.4752575,14.9140591 42.0507812,15.5859375 C42.626305,16.2578159 42.9140625,17.1770775 42.9140625,18.34375 L42.9140625,19.2890625 L37.3125,19.2890625 C37.3333334,20.1536502 37.548175,20.8515598 37.9570312,21.3828125 C38.3658875,21.9140652 38.9479129,22.1796875 39.703125,22.1796875 C40.2291693,22.1796875 40.6835918,22.1067716 41.0664062,21.9609375 C41.4492207,21.8151034 41.7942693,21.6093763 42.1015625,21.34375 L42.671875,22.3046875 C42.3645818,22.6067723 41.9700545,22.8554678 41.4882812,23.0507812 C41.006508,23.2460947 40.4114619,23.34375 39.703125,23.34375 Z M39.46875,15.75 C38.9218723,15.75 38.4596373,15.9700499 38.0820312,16.4101562 C37.7044252,16.8502626 37.4635422,17.4218715 37.359375,18.125 L41.46875,18.125 L41.46875,17.921875 C41.46875,17.2916635 41.302085,16.7721375 40.96875,16.3632812 C40.635415,15.954425 40.13542,15.75 39.46875,15.75 Z M46.4140625,12.6796875 L46.4140625,14.734375 L48.0390625,14.734375 L48.0390625,15.8359375 L46.4140625,15.8359375 L46.4140625,21.0078125 C46.4140625,21.4244812 46.4843743,21.7148429 46.625,21.8789062 C46.7656257,22.0429696 46.9583321,22.125 47.203125,22.125 C47.3281256,22.125 47.4544264,22.1158855 47.5820312,22.0976562 C47.7096361,22.079427 47.8281245,22.0546877 47.9375,22.0234375 L48.1328125,23.046875 C47.9973952,23.1354171 47.808595,23.207031 47.5664062,23.2617188 C47.3242175,23.3164065 47.0833345,23.34375 46.84375,23.34375 C46.2552054,23.34375 45.7942725,23.1601581 45.4609375,22.7929688 C45.1276025,22.4257794 44.9609375,21.8307333 44.9609375,21.0078125 L44.9609375,15.8359375 L43.75,15.8359375 L43.75,14.734375 L44.9609375,14.734375 L44.9609375,12.6796875 L46.4140625,12.6796875 Z M51.3203125,23.1875 L49.875,23.1875 L49.875,14.734375 L51.3203125,14.734375 L51.3203125,23.1875 Z M51.3203125,12.546875 L49.875,12.546875 L49.875,11 L51.3203125,11 L51.3203125,12.546875 Z M55.0234375,14.734375 L55.125,16 L55.1484375,16.0078125 C55.4244805,15.5546852 55.7747375,15.2031263 56.1992188,14.953125 C56.6237,14.7031237 57.1145805,14.578125 57.671875,14.578125 C58.5937546,14.578125 59.2994767,14.8385391 59.7890625,15.359375 C60.2786483,15.8802109 60.5234375,16.7109318 60.5234375,17.8515625 L60.5234375,23.1875 L59.0703125,23.1875 L59.0703125,17.8828125 C59.0703125,17.106767 58.9231786,16.5625016 58.6289062,16.25 C58.3346339,15.9374984 57.872399,15.78125 57.2421875,15.78125 C56.7682268,15.78125 56.3580746,15.893228 56.0117188,16.1171875 C55.6653629,16.341147 55.3854177,16.6536438 55.171875,17.0546875 L55.171875,23.1875 L53.71875,23.1875 L53.71875,14.734375 L55.0234375,14.734375 Z M62.4453125,19.109375 C62.4453125,17.7239514 62.7343721,16.6223999 63.3125,15.8046875 C63.8906279,14.9869751 64.7135363,14.578125 65.78125,14.578125 C66.3333361,14.578125 66.8072897,14.6848948 67.203125,14.8984375 C67.5989603,15.1119802 67.9374986,15.4296854 68.21875,15.8515625 L68.359375,14.734375 L69.578125,14.734375 L69.578125,23.078125 C69.578125,24.1927139 69.263024,25.0572886 68.6328125,25.671875 C68.002601,26.2864614 67.0937559,26.59375 65.90625,26.59375 C65.4687478,26.59375 65.0169294,26.5364589 64.5507812,26.421875 C64.0846331,26.3072911 63.6510437,26.1406261 63.25,25.921875 L63.6171875,24.84375 C63.9609392,25.0156259 64.326821,25.1549474 64.7148438,25.2617188 C65.1028665,25.3684901 65.4947897,25.421875 65.890625,25.421875 C66.6562538,25.421875 67.2213523,25.21745 67.5859375,24.8085938 C67.9505227,24.3997375 68.1328125,23.8229204 68.1328125,23.078125 L68.1328125,22.2578125 L68.109375,22.25 C67.8385403,22.6145852 67.5104186,22.8880199 67.125,23.0703125 C66.7395814,23.2526051 66.2864609,23.34375 65.765625,23.34375 C64.7135364,23.34375 63.8971383,22.9765662 63.3164062,22.2421875 C62.7356742,21.5078088 62.4453125,20.5182354 62.4453125,19.2734375 L62.4453125,19.109375 Z M63.890625,19.2734375 C63.890625,20.1536502 64.0703107,20.8515599 64.4296875,21.3671875 C64.7890643,21.8828151 65.3515587,22.140625 66.1171875,22.140625 C66.6067733,22.140625 67.0117171,22.0325532 67.3320312,21.8164062 C67.6523454,21.6002593 67.9192698,21.2890645 68.1328125,20.8828125 L68.1328125,17.0078125 C67.9296865,16.6223939 67.6666683,16.3216157 67.34375,16.1054688 C67.0208317,15.8893218 66.6171899,15.78125 66.1328125,15.78125 C65.3671837,15.78125 64.8020852,16.0872365 64.4375,16.6992188 C64.0729148,17.311201 63.890625,18.1145784 63.890625,19.109375 L63.890625,19.2734375 Z" id="MarketingCloud" fill="#1D1E1F"></path>
                        <g id="Group" transform="translate(74.695312, 11.000000)" fill="#0155FF">
                            <path d="M8.546875,8.5859375 C8.42187438,9.73177656 8.0039098,10.6458299 7.29296875,11.328125 C6.5820277,12.0104201 5.59896461,12.3515625 4.34375,12.3515625 C3.03124344,12.3515625 1.97917062,11.9036503 1.1875,11.0078125 C0.395829375,10.1119747 0,8.94531969 0,7.5078125 L0,5.5 C0,4.06770117 0.395829375,2.90104617 1.1875,2 C1.97917062,1.09895383 3.03124344,0.6484375 4.34375,0.6484375 C5.61979805,0.6484375 6.60806941,0.977861289 7.30859375,1.63671875 C8.00911809,2.29557621 8.42187438,3.22916062 8.546875,4.4375 L7.1015625,4.4375 C6.97135352,3.57291234 6.69401254,2.92057512 6.26953125,2.48046875 C5.84504996,2.04036238 5.2031293,1.8203125 4.34375,1.8203125 C3.44791219,1.8203125 2.74088801,2.16536113 2.22265625,2.85546875 C1.70442449,3.54557637 1.4453125,4.42186969 1.4453125,5.484375 L1.4453125,7.5078125 C1.4453125,8.58073453 1.70442449,9.46223613 2.22265625,10.1523438 C2.74088801,10.8424514 3.44791219,11.1875 4.34375,11.1875 C5.20833766,11.1875 5.85156039,10.9739605 6.2734375,10.546875 C6.69531461,10.1197895 6.97135352,9.46615023 7.1015625,8.5859375 L8.546875,8.5859375 Z M11.9140625,12.1875 L10.46875,12.1875 L10.46875,0 L11.9140625,0 L11.9140625,12.1875 Z M13.9296875,7.875 C13.9296875,6.59895195 14.2630175,5.56380605 14.9296875,4.76953125 C15.5963575,3.97525645 16.5182233,3.578125 17.6953125,3.578125 C18.8828184,3.578125 19.8111946,3.97525645 20.4804688,4.76953125 C21.1497429,5.56380605 21.484375,6.59895195 21.484375,7.875 L21.484375,8.0625 C21.484375,9.34375641 21.151045,10.3776002 20.484375,11.1640625 C19.817705,11.9505248 18.8932351,12.34375 17.7109375,12.34375 C16.5234316,12.34375 15.5963575,11.9505248 14.9296875,11.1640625 C14.2630175,10.3776002 13.9296875,9.34375641 13.9296875,8.0625 L13.9296875,7.875 Z M15.3828125,8.0625 C15.3828125,8.98437961 15.5755189,9.73437211 15.9609375,10.3125 C16.3463561,10.8906279 16.9296836,11.1796875 17.7109375,11.1796875 C18.4817747,11.1796875 19.062498,10.8893258 19.453125,10.3085938 C19.843752,9.72786168 20.0390625,8.97917125 20.0390625,8.0625 L20.0390625,7.875 C20.0390625,6.96874547 19.8424499,6.22135711 19.4492188,5.6328125 C19.0559876,5.04426789 18.471358,4.75 17.6953125,4.75 C16.9244753,4.75 16.3463561,5.04426789 15.9609375,5.6328125 C15.5755189,6.22135711 15.3828125,6.96874547 15.3828125,7.875 L15.3828125,8.0625 Z M28.765625,10.953125 L28.7421875,10.9453125 C28.4817695,11.3984398 28.1458354,11.7447905 27.734375,11.984375 C27.3229146,12.2239595 26.8333362,12.34375 26.265625,12.34375 C25.3281203,12.34375 24.6067734,12.0559925 24.1015625,11.4804688 C23.5963516,10.904945 23.34375,9.98177719 23.34375,8.7109375 L23.34375,3.734375 L24.796875,3.734375 L24.796875,8.7265625 C24.796875,9.65365047 24.9322903,10.2877587 25.203125,10.6289062 C25.4739597,10.9700538 25.9036429,11.140625 26.4921875,11.140625 C27.0755238,11.140625 27.5455711,11.0273449 27.9023438,10.8007812 C28.2591164,10.5742176 28.5312491,10.2447938 28.71875,9.8125 L28.71875,3.734375 L30.1640625,3.734375 L30.1640625,12.1875 L28.8671875,12.1875 L28.765625,10.953125 Z M32.0859375,8.109375 C32.0859375,6.72395141 32.3697888,5.62239992 32.9375,4.8046875 C33.5052112,3.98697508 34.3203072,3.578125 35.3828125,3.578125 C35.9036484,3.578125 36.3541648,3.67187406 36.734375,3.859375 C37.1145852,4.04687594 37.4401028,4.32291484 37.7109375,4.6875 L37.734375,4.6796875 L37.734375,0 L39.1796875,0 L39.1796875,12.1875 L37.921875,12.1875 L37.796875,11.1328125 C37.5156236,11.5390645 37.1770853,11.8424469 36.78125,12.0429688 C36.3854147,12.2434906 35.9140652,12.34375 35.3671875,12.34375 C34.3203073,12.34375 33.5117216,11.9765662 32.9414062,11.2421875 C32.3710909,10.5078088 32.0859375,9.51823539 32.0859375,8.2734375 L32.0859375,8.109375 Z M33.53125,8.2734375 C33.53125,9.15885859 33.7070295,9.85807035 34.0585938,10.3710938 C34.410158,10.8841171 34.966142,11.140625 35.7265625,11.140625 C36.2161483,11.140625 36.6197901,11.0338552 36.9375,10.8203125 C37.2552099,10.6067698 37.5208323,10.3020853 37.734375,9.90625 L37.734375,5.984375 C37.5260406,5.60937313 37.2604183,5.31510523 36.9375,5.1015625 C36.6145817,4.88801977 36.2161482,4.78125 35.7421875,4.78125 C34.9765587,4.78125 34.4166684,5.08593445 34.0625,5.6953125 C33.7083316,6.30469055 33.53125,7.10937 33.53125,8.109375 L33.53125,8.2734375 Z" id="Combined-Shape"></path>
                        </g>
                    </g>
                </g>
            </g>
        </g>
    </g>
</svg>