<?xml version="1.0" encoding="UTF-8"?>
<svg width="14px" height="12px" viewBox="0 0 14 12" version="1.1" xmlns="http://www.w3.org/2000/svg" xmlns:xlink="http://www.w3.org/1999/xlink">
    <!-- Generator: sketchtool 52.6 (67491) - http://www.bohemiancoding.com/sketch -->
    <title>8E22170C-1C16-462D-8ECE-798EFFCFA934</title>
    <desc>Created with sketchtool.</desc>
    <g id="Contacts" stroke="none" stroke-width="1" fill="none" fill-rule="evenodd">
        <g id="Contacts_Campaign" transform="translate(-132.000000, -94.000000)" fill="#1D1E1F" fill-rule="nonzero">
            <g id="ic_back-arrow" transform="translate(129.000000, 90.000000)">
                <g id="Combined-Shape">
                    <path d="M6.33769778,10.4675325 L9.42469534,13.4486114 C9.82197574,13.8322606 9.833026,14.4653291 9.44937677,14.8626095 C9.06572755,15.25989 8.432659,15.2709402 8.0353786,14.887291 L3.7193398,10.7193408 C3.59794671,10.6021128 3.5126148,10.4615973 3.46358567,10.3116369 C3.18488094,10.1341548 3,9.82243426 3,9.46753248 C3,9.04201115 3.26577765,8.67856551 3.64038579,8.53414274 C3.66474529,8.50448546 3.69106431,8.4759167 3.7193398,8.44861138 L8.0353786,4.28066116 C8.432659,3.89701193 9.06572755,3.90806218 9.44937677,4.30534259 C9.833026,4.70262299 9.82197574,5.33569153 9.42469534,5.71934076 L6.5788595,8.46753248 L16,8.46753248 C16.5522847,8.46753248 17,8.91524773 17,9.46753248 C17,10.0198172 16.5522847,10.4675325 16,10.4675325 L6.33769778,10.4675325 Z"></path>
                </g>
            </g>
        </g>
    </g>
</svg>