<?xml version="1.0" encoding="UTF-8"?>
<svg width="20px" height="20px" viewBox="0 0 20 20" version="1.1" xmlns="http://www.w3.org/2000/svg" xmlns:xlink="http://www.w3.org/1999/xlink">
    <!-- Generator: sketchtool 53.2 (72643) - https://sketchapp.com -->
    <title>9E672B74-F648-4F0B-89B2-F62E81AA01A5</title>
    <desc>Created with sketchtool.</desc>
    <g id="Mailing-List" stroke="none" stroke-width="1" fill="none" fill-rule="evenodd">
        <g id="List_list-view" transform="translate(-20.000000, -352.000000)" fill="#FFFFFF">
            <g id="Left-Panel_1">
                <g id="ic_company">
                    <g transform="translate(20.000000, 352.000000)">
                        <g>
                            <path d="M9,0 L9,3 L6,3 L4,3 L4,18 L2,18 L0,18 L0,20 L4,20 L6,20 L14,20 L16,20 L20,20 L20,18 L18,18 L16,18 L16,3 L14,3 L11,3 L11,0 L9,0 Z M6,4.999 L9,4.999 L11,4.999 L14,4.999 L14,18 L11,18 L11,13.999 L9,13.999 L9,18 L6,18 L6,4.999 Z M9,8 L11,8 L11,5.999 L9,5.999 L9,8 Z M9,12 L11,12 L11,10 L9,10 L9,12 Z"></path>
                        </g>
                    </g>
                </g>
            </g>
        </g>
    </g>
</svg>