<?xml version="1.0" encoding="UTF-8"?>
<svg width="22px" height="21px" viewBox="0 0 22 21" version="1.1" xmlns="http://www.w3.org/2000/svg" xmlns:xlink="http://www.w3.org/1999/xlink">
    <!-- Generator: sketchtool 54.1 (76490) - https://sketchapp.com -->
    <title>46033AB6-0912-4980-B904-9ECC766A8999</title>
    <desc>Created with sketchtool.</desc>
    <g id="Page-1" stroke="none" stroke-width="1" fill="none" fill-rule="evenodd">
        <g id="Campaigns_Folder-View" transform="translate(-402.000000, -233.000000)">
            <g id="Content" transform="translate(374.000000, 134.000000)">
                <g id="All-Folders-list" transform="translate(0.000000, 40.000000)">
                    <g id="List">
                        <g id="1" transform="translate(5.000000, 41.000000)">
                            <g id="Group-5" transform="translate(23.000000, 16.000000)">
                                <g id="Group">
                                    <g id="Group-3">
                                        <g id="ic_Campaign_folder" transform="translate(0.000000, 2.000000)">
                                            <g>
                                                <path d="M3.42857143,7 L11.6939806,7 L11.6939806,7 C12.0004137,6.38713394 12.6268095,6 13.3120146,6 L15.9439806,6 C17.7572345,6 19.2271671,7.46993266 19.2271671,9.28318649 C19.2271671,9.42830341 19.2175459,9.57326069 19.1983667,9.71710463 L17.9254036,19.2643274 C17.792922,20.2579395 16.9453531,21 15.9429478,21 L2,21 C0.8954305,21 2.13298091e-13,20.1045695 2.13162821e-13,19 C2.13151231e-13,18.9053623 0.00671721544,18.8108439 0.0201010127,18.7171573 L1.44867244,8.71715729 C1.58942922,7.73185981 2.43327068,7 3.42857143,7 Z" id="Rectangle-Copy-4" fill="#618CE2" transform="translate(9.704807, 13.500000) scale(-1, 1) translate(-9.704807, -13.500000) "></path>
                                                <path d="M9.91828793,9.35924374 L9.90605552,9.35924374 L9.90605552,9.79377449 L8.76844084,9.79377449 L9.2497864,12.2569693 C9.3231809,12.5707971 9.90757549,12.186617 10.2240983,12.4371699 C10.4351136,12.6042051 10.4962756,12.8496345 10.4075846,13.1734581 C10.4442818,13.2941611 10.3464225,13.4148641 10.2118659,13.4148641 L9.6614072,13.4148641 L8.32807387,13.4148641 L8.20574971,13.4148641 C8.09565796,13.4148641 8.01003105,13.3424423 7.98556622,13.2458799 L7.14152952,9.79377449 L6.84795154,9.79377449 C6.23633075,9.79377449 5.74703411,9.31096254 5.74703411,8.70744761 L5.74703411,8.28498716 L5.41675888,8.28498716 C5.22104023,8.28498716 5.0497864,8.12807328 5.0497864,7.9228782 L5.0497864,6.55893446 C5.0497864,6.36580968 5.20880781,6.1968255 5.41675888,6.1968255 L5.75926653,6.1968255 L5.75926653,5.71401355 C5.75926653,5.11049862 6.24856316,4.62768668 6.86018396,4.62768668 L9.91828793,4.62768668 L9.91828793,5.08635803 C11.2516213,4.86909265 13.477921,4.31385891 15.0192054,2.86542308 C15.0314378,2.59987651 15.2760861,2.38261114 15.5574317,2.41882203 C15.80208,2.45503293 15.9855662,2.6843686 15.9855662,2.92577457 L15.9855662,5.70194326 C16.6094194,5.93127893 17.0497864,6.52272356 17.0497864,7.21073058 C17.0497864,7.8987376 16.6094194,8.49018224 15.9855662,8.71951791 L15.9855662,11.5198272 C15.9855662,11.7733035 15.80208,12.0026391 15.5574317,12.0267797 C15.2760861,12.0629906 15.0314378,11.8457253 15.0192054,11.5801787 C13.477921,10.1317428 11.2638537,9.57650911 9.91828793,9.35924374 Z M8.75620842,8.65916642 L8.75620842,5.78643535 L6.92134604,5.78643535 L6.92134604,8.65916642 L8.75620842,8.65916642 Z M14.9339969,4.15170618 C14.7770318,4.15170618 14.6497864,4.27895156 14.6497864,4.4359167 L14.6497864,10.2359167 C14.6497864,10.3928818 14.7770318,10.5201272 14.9339969,10.5201272 L14.9655759,10.5201272 C15.122541,10.5201272 15.2497864,10.3928818 15.2497864,10.2359167 L15.2497864,4.4359167 C15.2497864,4.27895156 15.122541,4.15170618 14.9655759,4.15170618 L14.9339969,4.15170618 Z" id="Combined-Shape" fill="#0155FF" fill-rule="nonzero" transform="translate(11.049786, 7.914864) rotate(-34.000000) translate(-11.049786, -7.914864) "></path>
                                                <path d="M3.00031209,9 L17.9451371,9 C18.9228154,9 19.7571956,9.70682609 19.9179249,10.671202 L21.2512582,18.671202 C21.4328484,19.7607427 20.696809,20.7911977 19.6072684,20.9727878 C19.4986055,20.9908983 19.3886321,21 19.2784704,21 L4.33364542,21 C3.35596712,21 2.5215869,20.2931739 2.36085757,19.328798 L1.02752424,11.328798 C0.845934133,10.2392573 1.58197347,9.20880226 2.67151411,9.02721215 C2.78017696,9.00910168 2.89015037,9 3.00031209,9 Z" id="Rectangle" fill="#99BBFF" transform="translate(11.139391, 15.000000) scale(-1, 1) translate(-11.139391, -15.000000) "></path>
                                            </g>
                                        </g>
                                    </g>
                                </g>
                            </g>
                        </g>
                    </g>
                </g>
            </g>
        </g>
    </g>
</svg>