<?xml version="1.0" encoding="UTF-8"?>
<svg width="13px" height="14px" viewBox="0 0 13 14" version="1.1" xmlns="http://www.w3.org/2000/svg" xmlns:xlink="http://www.w3.org/1999/xlink">
    <!-- Generator: sketchtool 53.2 (72643) - https://sketchapp.com -->
    <title>E4C6E5A0-AC26-4290-9A06-83DE9089A5CA</title>
    <desc>Created with sketchtool.</desc>
    <g id="Mailing-List" stroke="none" stroke-width="1" fill="none" fill-rule="evenodd">
        <g id="List_list-view" transform="translate(-1124.000000, -342.000000)" fill="#9CB7C1" fill-rule="nonzero">
            <g id="More-Items" transform="translate(1114.000000, 271.000000)">
                <path d="M16.3911151,76.2567553 L13.2878468,79.2273645 C12.4149965,80.048111 13.7242719,81.279521 14.5974309,80.4587745 L15.6597532,79.456067 C15.9015982,79.2277938 16.097737,79.3034659 16.097737,79.6251841 L16.097737,83.6173872 C16.097737,84.0944394 16.5122933,84.485904 17.0236744,84.485904 C17.5340149,84.485904 17.9496118,84.0970558 17.9496118,83.6173872 L17.9496118,79.6251841 C17.9496118,79.3052007 18.1457441,79.2277496 18.3876857,79.456067 L19.4502265,80.4587745 C20.3230768,81.279521 21.6326609,80.048111 20.7598106,79.2273645 L17.6883477,76.2608563 C17.3292456,75.9140251 16.7497559,75.9134457 16.3911151,76.2567553 Z M11.8571429,73.0323592 L11.8571429,74.7728025 C11.8571429,75.2536474 11.4414073,75.6434493 10.9285714,75.6434493 C10.4157356,75.6434493 10,75.2536474 10,74.7728025 L10,72.1595266 C10,71.5178917 10.5579205,71 11.2382251,71 L21.7617749,71 C22.444953,71 23,71.5214073 23,72.1595266 L23,74.7728025 C23,75.2536474 22.5842644,75.6434493 22.0714286,75.6434493 C21.5585927,75.6434493 21.1428571,75.2536474 21.1428571,74.7728025 L21.1428571,73.0323592 C21.1428571,72.8683735 21.0045345,72.7412935 20.8339048,72.7412935 L12.1660952,72.7412935 C11.995613,72.7412935 11.8571429,72.871608 11.8571429,73.0323592 Z" id="ic_download" transform="translate(16.500000, 77.742952) rotate(-180.000000) translate(-16.500000, -77.742952) "></path>
            </g>
        </g>
    </g>
</svg>