<?xml version="1.0" encoding="UTF-8"?>
<svg width="20px" height="20px" viewBox="0 0 20 20" version="1.1" xmlns="http://www.w3.org/2000/svg" xmlns:xlink="http://www.w3.org/1999/xlink">
    <!-- Generator: sketchtool 53.2 (72643) - https://sketchapp.com -->
    <title>474F159B-7A26-47DF-AE53-2D7D1E5ACFC4</title>
    <desc>Created with sketchtool.</desc>
    <g id="Mailing-List" stroke="none" stroke-width="1" fill="none" fill-rule="evenodd">
        <g id="List_list-view" transform="translate(-20.000000, -282.000000)" fill="#FFFFFF">
            <g id="Left-Panel_1">
                <g id="ic_list">
                    <g transform="translate(20.000000, 282.000000)">
                        <path d="M0,20 L0,5 L20,5 L20,20 L0,20 Z M2,7.28 L10.001,14.317 L18,7.291 L18,7 L2,7 L2,7.28 Z M2,9.944 L2,18 L18,18 L18,9.953 L10,16.98 L2,9.944 Z M2,2 L18,2 L18,4 L2,4 L2,2 Z M4,0 L16,0 L16,1 L4,1 L4,0 Z"></path>
                    </g>
                </g>
            </g>
        </g>
    </g>
</svg>