<?xml version="1.0" encoding="UTF-8"?>
<svg width="13px" height="12px" viewBox="0 0 13 12" version="1.1" xmlns="http://www.w3.org/2000/svg" xmlns:xlink="http://www.w3.org/1999/xlink">
    <!-- Generator: sketchtool 53 (72520) - https://sketchapp.com -->
    <title>814B873A-6056-4EE1-A6CA-91963BA77162</title>
    <desc>Created with sketchtool.</desc>
    <g id="Members-and-Teams" stroke="none" stroke-width="1" fill="none" fill-rule="evenodd">
        <g id="Admin_a" transform="translate(-605.000000, -255.000000)" fill="#CE293D" fill-rule="nonzero">
            <g id="Content" transform="translate(120.000000, 90.000000)">
                <g id="ic_Invite-Status" transform="translate(479.000000, 159.000000)">
                    <path d="M18.6145281,14.8223002 C19.0732865,15.6310026 19.1244201,16.4183783 18.7579623,17.0384313 C18.3919378,17.6584842 17.6749112,18 16.7381832,18 L8.26213077,18 C7.3255472,18 6.60794277,17.6584842 6.24191829,17.0384313 C5.87574936,16.4176626 5.92659411,15.6310026 6.3853525,14.8223002 L10.679279,7.2585701 C11.1400597,6.4468618 11.7868859,6 12.5004459,6 C13.213428,6 13.8602543,6.4468618 14.3210349,7.2585701 L18.6145281,14.8223002 Z M17.8956236,16.5383239 C18.0721358,16.2383168 18.0165244,15.7897374 17.7428005,15.3076648 L13.4497406,7.74407786 C13.1778945,7.26515423 12.8319479,6.99048164 12.5004459,6.99048164 C12.1685105,6.99048164 11.8224194,7.26515423 11.5499955,7.74407786 L7.25664678,15.3076648 C6.9833562,15.7897374 6.9276003,16.2383168 7.10483473,16.5383239 C7.28149138,16.8373291 7.7037051,17.0093752 8.26213077,17.0093752 L16.7381832,17.0093752 C17.2967533,17.0093752 17.7183892,16.8381879 17.8956236,16.5383239 Z M12.5000125,14.4596007 C12.8637259,14.4596007 13.1585388,14.7517355 13.1585388,15.1117155 C13.1585388,15.4726973 12.8637259,15.7648322 12.5000125,15.7648322 C12.1368769,15.7648322 11.842064,15.4725542 11.842064,15.1117155 C11.842064,14.7517355 12.1368769,14.4596007 12.5000125,14.4596007 Z M12.5000125,9.73391541 C12.8637259,9.73391541 13.1585388,10.0260502 13.1585388,10.3860302 C13.1585388,10.4053532 13.1549277,10.4228154 13.1531943,10.4411365 L13.156661,10.4411365 L12.8942038,13.6005153 L12.8920372,13.6005153 C12.8749926,13.8010449 12.7071471,13.9594933 12.500157,13.9594933 C12.2937446,13.9594933 12.1257546,13.8007586 12.1087101,13.6005153 L12.1066879,13.6005153 L11.8440862,10.4411365 L11.8474085,10.4411365 C11.845964,10.4228154 11.842064,10.4053532 11.842064,10.3860302 C11.842064,10.0260502 12.1368769,9.73391541 12.5000125,9.73391541 Z" id="ic_status"></path>
                </g>
            </g>
        </g>
    </g>
</svg>