<?xml version="1.0" encoding="UTF-8"?>
<svg width="18px" height="18px" viewBox="0 0 18 18" version="1.1" xmlns="http://www.w3.org/2000/svg" xmlns:xlink="http://www.w3.org/1999/xlink">
    <!-- Generator: sketchtool 53 (72520) - https://sketchapp.com -->
    <title>8A6FD4E3-EE1A-4D5F-9E06-7F04AA4ED90E</title>
    <desc>Created with sketchtool.</desc>
    <g id="Members-and-Teams" stroke="none" stroke-width="1" fill="none" fill-rule="evenodd">
        <g id="Admin_a" transform="translate(-1018.000000, -144.000000)" fill="#9CB7C1">
            <g id="Content" transform="translate(120.000000, 90.000000)">
                <g id="search-bar" transform="translate(766.000000, 48.000000)">
                    <path d="M149.695748,23.7798049 C149.304363,24.1015158 148.731401,24.0681959 148.379945,23.7032862 L145.233525,20.4364148 C144.915728,20.1064519 144.92559,19.5813388 145.255553,19.2635417 C145.271212,19.2484602 145.287457,19.2340002 145.304252,19.2201951 C145.695637,18.8984842 146.268599,18.9318041 146.620055,19.2967138 L149.766475,22.5635852 C150.084272,22.8935481 150.07441,23.4186612 149.744447,23.7364583 C149.728788,23.7515398 149.712543,23.7659998 149.695748,23.7798049 Z M139.363636,6 C143.430468,6 146.727273,9.29680519 146.727273,13.3636364 C146.727273,17.4304675 143.430468,20.7272727 139.363636,20.7272727 C135.296805,20.7272727 132,17.4304675 132,13.3636364 C132,9.29680519 135.296805,6 139.363636,6 Z M139.363636,18.6233766 C142.263857,18.6233766 144.623377,16.2638571 144.623377,13.3636364 C144.623377,10.4634156 142.263857,8.1038961 139.363636,8.1038961 C136.463416,8.1038961 134.103896,10.4634156 134.103896,13.3636364 C134.103896,16.2638571 136.463416,18.6233766 139.363636,18.6233766 Z" id="ic_search-"></path>
                </g>
            </g>
        </g>
    </g>
</svg>