<?xml version="1.0" encoding="UTF-8"?>
<svg width="30px" height="30px" viewBox="0 0 30 30" version="1.1" xmlns="http://www.w3.org/2000/svg" xmlns:xlink="http://www.w3.org/1999/xlink">
    <!-- Generator: sketchtool 55 (78076) - https://sketchapp.com -->
    <title>8C5AE556-30E3-491C-83BB-07CF4A0A43C5</title>
    <desc>Created with sketchtool.</desc>
    <g id="Campaign-Flow_LOGIN-to-Send-" stroke="none" stroke-width="1" fill="none" fill-rule="evenodd">
        <g id="Illustrations" transform="translate(-668.000000, -123.000000)">
            <g id="clear-icon_search" transform="translate(668.000000, 123.000000)">
                <rect id="btn_base-copy-2" fill="#FFFFFF" fill-rule="nonzero" x="0" y="0" width="30" height="30" rx="4"></rect>
                <path d="M15.9333333,14.0666667 L21.0666667,14.0666667 C21.5821324,14.0666667 22,14.4845342 22,15 C22,15.5154658 21.5821324,15.9333333 21.0666667,15.9333333 L15.9333333,15.9333333 L15.9333333,21.0666667 C15.9333333,21.5821324 15.5154658,22 15,22 C14.4845342,22 14.0666667,21.5821324 14.0666667,21.0666667 L14.0666667,15.9333333 L8.93333333,15.9333333 C8.41786757,15.9333333 8,15.5154658 8,15 C8,14.4845342 8.41786757,14.0666667 8.93333333,14.0666667 L14.0666667,14.0666667 L14.0666667,8.93333333 C14.0666667,8.41786757 14.4845342,8 15,8 C15.5154658,8 15.9333333,8.41786757 15.9333333,8.93333333 L15.9333333,14.0666667 Z" id="Combined-Shape" fill="#B3BCC9" transform="translate(15.000000, 15.000000) rotate(-315.000000) translate(-15.000000, -15.000000) "></path>
            </g>
        </g>
    </g>
</svg>