<?xml version="1.0" encoding="UTF-8"?>
<svg width="36px" height="36px" viewBox="0 0 36 36" version="1.1" xmlns="http://www.w3.org/2000/svg" xmlns:xlink="http://www.w3.org/1999/xlink">
    <!-- Generator: sketchtool 53 (72520) - https://sketchapp.com -->
    <title>35552D11-615D-451B-81D2-4F286A7D6E73</title>
    <desc>Created with sketchtool.</desc>
    <defs>
        <linearGradient x1="0%" y1="0%" x2="101.999998%" y2="100.999999%" id="linearGradient-1">
            <stop stop-color="#58399C" offset="0%"></stop>
            <stop stop-color="#C16476" offset="100%"></stop>
        </linearGradient>
        <linearGradient x1="49.28%" y1="0%" x2="50.7488%" y2="100.999999%" id="linearGradient-2">
            <stop stop-color="#58399C" offset="0%"></stop>
            <stop stop-color="#C16476" offset="100%"></stop>
        </linearGradient>
        <linearGradient x1="0%" y1="0%" x2="101.999998%" y2="100.999999%" id="linearGradient-3">
            <stop stop-color="#2523AE" offset="0%"></stop>
            <stop stop-color="#D76D6D" offset="100%"></stop>
        </linearGradient>
        <linearGradient x1="12.4444444%" y1="0%" x2="89.0577763%" y2="100.999999%" id="linearGradient-4">
            <stop stop-color="#58399C" offset="0%"></stop>
            <stop stop-color="#C16476" offset="100%"></stop>
        </linearGradient>
    </defs>
    <g id="Import" stroke="none" stroke-width="1" fill="none" fill-rule="evenodd">
        <g id="Import_CSV_step-1-c" transform="translate(-710.000000, -362.000000)">
            <g id="Select-an-object" transform="translate(474.000000, 233.000000)">
                <g id="Companies" transform="translate(220.000000, 83.000000)">
                    <g id="Group" transform="translate(14.000000, 44.000000)">
                        <g id="ic_companies">
                            <g id="ic_company">
                                <rect id="Rectangle" fill="#FFFFFF" opacity="0" x="0" y="0" width="40" height="40"></rect>
                                <g id="Group" transform="translate(2.000000, 2.000000)" fill-rule="nonzero">
                                    <path d="M22.5,1.5 L1.5,1.5 L1.5,34.5 L34.5,34.5 L34.5,7.5 L22.5,7.5 L22.5,1.5 Z" id="Combined-Shape" stroke="url(#linearGradient-1)" stroke-width="3"></path>
                                    <path d="M28.5,17.5 L30,17.5 L28.5,16 L28.5,17.5 Z M28.5,18.5 L28.5,20 L30,18.5 L28.5,18.5 Z M27.5,18.5 L26,18.5 L27.5,20 L27.5,18.5 Z M27.5,17.5 L27.5,16 L26,17.5 L27.5,17.5 Z" id="Rectangle-8-Copy-4" stroke="url(#linearGradient-1)" stroke-width="3"></path>
                                    <path d="M22.5,20.5 L22.5,33 L24,31.5 L21,31.5 L22.5,33 L22.5,20.5 Z M22.5,20.5 L22.5,8 L21,9.5 L24,9.5 L22.5,8 L22.5,20.5 Z" id="Rectangle-8-Copy-9" stroke="url(#linearGradient-2)" stroke-width="3"></path>
                                    <path d="M28.5,23.5 L30,23.5 L28.5,22 L28.5,23.5 Z M28.5,24.5 L28.5,26 L30,24.5 L28.5,24.5 Z M27.5,24.5 L26,24.5 L27.5,26 L27.5,24.5 Z M27.5,23.5 L27.5,22 L26,23.5 L27.5,23.5 Z" id="Rectangle-8-Copy-5" stroke="url(#linearGradient-1)" stroke-width="3"></path>
                                    <path d="M6,8 L10,8 L10,12.8 L6,12.8 L6,8 Z M6,15.2 L10,15.2 L10,20 L6,20 L6,15.2 Z M14,8 L18,8 L18,12.8 L14,12.8 L14,8 Z M14,15.2 L18,15.2 L18,20 L14,20 L14,15.2 Z" id="Combined-Shape" fill="url(#linearGradient-3)"></path>
                                    <path d="M7.5,23.6538462 L7.5,34.5 L16.5,34.5 L16.5,23.6538462 L7.5,23.6538462 Z" id="Rectangle-9" stroke="url(#linearGradient-4)" stroke-width="3"></path>
                                </g>
                            </g>
                        </g>
                    </g>
                </g>
            </g>
        </g>
    </g>
</svg>