<?xml version="1.0" encoding="UTF-8"?>
<svg width="14px" height="14px" viewBox="0 0 14 14" version="1.1" xmlns="http://www.w3.org/2000/svg" xmlns:xlink="http://www.w3.org/1999/xlink">
    <!-- Generator: sketchtool 52.6 (67491) - http://www.bohemiancoding.com/sketch -->
    <title>DCFB84D1-F6BC-470F-99C9-7E6468F4070B</title>
    <desc>Created with sketchtool.</desc>
    <g id="Mailing-List" stroke="none" stroke-width="1" fill="none" fill-rule="evenodd">
        <g id="List_list_Create-list_step-1" transform="translate(-1043.000000, -110.000000)" fill="#808FA5">
            <g id="Save-Filters_popup" transform="translate(914.000000, 110.000000)">
                <path d="M135.992,5.993 L135.99201,5.993 C136.127157,5.99089246 136.2574,6.04358434 136.353065,6.13906956 C136.448729,6.23455477 136.501664,6.36469963 136.49981,6.49985 L136.49981,9.99985 C136.50236,10.180168 136.407622,10.3478907 136.251874,10.4387939 C136.096125,10.529697 135.903495,10.529697 135.747746,10.4387939 C135.591998,10.3478907 135.49726,10.180168 135.49981,9.99985 L135.49981,6.49985 C135.496026,6.22407768 135.716235,5.99730915 135.992,5.993 Z M136,4.5 C135.723858,4.5 135.5,4.27614237 135.5,4 C135.5,3.72385763 135.723858,3.5 136,3.5 C136.276142,3.5 136.5,3.72385763 136.5,4 C136.5,4.27614237 136.276142,4.5 136,4.5 Z M136,0 C139.86005,0 143,3.13995 143,7 C143,10.86005 139.86005,14 136,14 C132.13995,14 129,10.86005 129,7 C129,3.13995 132.13995,0 136,0 Z M136,1 C132.68035,1 130,3.68035 130,7 C130,10.31965 132.68035,13 136,13 C139.31965,13 142,10.31965 142,7 C142,3.68035 139.31965,1 136,1 Z" id="ic_info"></path>
            </g>
        </g>
    </g>
</svg>