<?xml version="1.0" encoding="UTF-8"?>
<svg width="20px" height="16px" viewBox="0 0 20 16" version="1.1" xmlns="http://www.w3.org/2000/svg" xmlns:xlink="http://www.w3.org/1999/xlink">
    <!-- Generator: sketchtool 53 (72520) - https://sketchapp.com -->
    <title>7F07622F-633D-4505-9D1E-5A9704E843BB</title>
    <desc>Created with sketchtool.</desc>
    <g id="Mailing-List" stroke="none" stroke-width="1" fill="none" fill-rule="evenodd">
        <g id="List_list_details_STATIC" transform="translate(-419.000000, -185.000000)" fill="#A0BAC4" fill-rule="nonzero">
            <g id="Content" transform="translate(120.000000, 90.000000)">
                <g transform="translate(234.000000, 88.000000)" id="grid-list">
                    <g>
                        <path d="M82.9039484,7 L67.0960516,7 C65.9385071,7 65,7.92913437 65,9.07569812 L65,20.9243019 C65,22.0708656 65.9385071,23 67.0960516,23 L82.9039484,23 C84.0614929,23 85,22.0708656 85,20.9243019 L85,9.07569812 C85,7.92913437 84.0614929,7 82.9039484,7 Z M71.2009065,19.6812182 L69.3668614,19.6812182 L69.3668614,10.3187818 L71.2009065,10.3187818 L71.2009065,19.6812182 Z M74.3449839,19.6812182 L72.5109388,19.6812182 L72.5109388,14.2107158 L74.3449839,14.2107158 L74.3449839,19.6812182 Z M77.4890612,19.6812182 L75.6550161,19.6812182 L75.6550161,12.3944799 L77.4890612,12.3944799 L77.4890612,19.6812182 Z M80.6331386,19.6812182 L78.7990935,19.6812182 L78.7990935,17.0648007 L80.6331386,17.0648007 L80.6331386,19.6812182 Z" id="ic_performance-stats"></path>
                    </g>
                </g>
            </g>
        </g>
    </g>
</svg>