<?xml version="1.0" encoding="UTF-8"?>
<svg width="21px" height="17px" viewBox="0 0 21 17" version="1.1" xmlns="http://www.w3.org/2000/svg" xmlns:xlink="http://www.w3.org/1999/xlink">
    <!-- Generator: sketchtool 53 (72520) - https://sketchapp.com -->
    <title>2169BF62-1472-42C6-A61C-9C2A196C6165</title>
    <desc>Created with sketchtool.</desc>
    <g id="Members-and-Teams" stroke="none" stroke-width="1" fill="none" fill-rule="evenodd">
        <g id="Admin_a" transform="translate(-20.000000, -353.000000)" fill-rule="nonzero">
            <g id="Left-Panel_1">
                <g id="ic_marketing" transform="translate(20.000000, 352.000000)">
                    <rect id="Rectangle" fill="#000000" opacity="0" x="0" y="0" width="20" height="20"></rect>
                    <g id="ic_marketing-2" transform="translate(0.000000, 1.000000)">
                        <rect id="Rectangle" stroke="#FFFFFF" stroke-width="2" x="3" y="5" width="4" height="5" rx="1"></rect>
                        <polygon id="Rectangle" fill="#FFFFFF" points="3 11 7.44940752 11 9 17 6.6 17"></polygon>
                        <rect id="Rectangle" fill="#FFFFFF" x="0" y="6" width="2" height="3"></rect>
                        <path d="M17,13.487437 L17,1.47216546 L9,4.6437414 L9,10.287437 L17,13.487437 Z M17.0022358,7 L18.500726,7.86682974 C18.6510197,7.95377 18.8209551,8 19,8 C19.5522847,8 20,7.55228475 20,7 C20,6.44771525 19.5522847,6 19,6 C18.8209551,6 18.6510197,6.04623 18.500726,6.13317026 L17.0022358,7 Z" id="Combined-Shape" stroke="#FFFFFF" stroke-width="2"></path>
                    </g>
                </g>
            </g>
        </g>
    </g>
</svg>