<?xml version="1.0" encoding="UTF-8"?>
<svg width="3px" height="15px" viewBox="0 0 3 15" version="1.1" xmlns="http://www.w3.org/2000/svg" xmlns:xlink="http://www.w3.org/1999/xlink">
    <!-- Generator: sketchtool 52.6 (67491) - http://www.bohemiancoding.com/sketch -->
    <title>BAC3D6A2-0B73-4D73-8F46-BAA392E35A7A</title>
    <desc>Created with sketchtool.</desc>
    <g id="Members-and-Teams" stroke="none" stroke-width="1" fill="none" fill-rule="evenodd">
        <g id="Admin_a" transform="translate(-1282.000000, -256.000000)" fill="#9CB7C1" fill-rule="nonzero">
            <g id="Content" transform="translate(120.000000, 90.000000)">
                <g id="All-members_list" transform="translate(234.000000, 98.000000)">
                    <g id="List" transform="translate(0.000000, 44.000000)">
                        <g id="1">
                            <path d="M929.5,27 C928.671573,27 928,26.3284271 928,25.5 C928,24.6715729 928.671573,24 929.5,24 C930.328427,24 931,24.6715729 931,25.5 C931,26.3284271 930.328427,27 929.5,27 Z M929.5,33 C928.671573,33 928,32.3284271 928,31.5 C928,30.6715729 928.671573,30 929.5,30 C930.328427,30 931,30.6715729 931,31.5 C931,32.3284271 930.328427,33 929.5,33 Z M929.5,39 C928.671573,39 928,38.3284271 928,37.5 C928,36.6715729 928.671573,36 929.5,36 C930.328427,36 931,36.6715729 931,37.5 C931,38.3284271 930.328427,39 929.5,39 Z" id="more"></path>
                        </g>
                    </g>
                </g>
            </g>
        </g>
    </g>
</svg>