<?xml version="1.0" encoding="UTF-8"?>
<svg width="40px" height="48px" viewBox="0 0 40 48" version="1.1" xmlns="http://www.w3.org/2000/svg" xmlns:xlink="http://www.w3.org/1999/xlink">
    <!-- Generator: sketchtool 53 (72520) - https://sketchapp.com -->
    <title>5DCAD732-B6E1-4D7E-A3B0-19A8AF8CD0A0</title>
    <desc>Created with sketchtool.</desc>
    <defs>
        <linearGradient x1="14.5052864%" y1="0%" x2="86.9145008%" y2="100.999999%" id="linearGradient-1">
            <stop stop-color="#2523AE" offset="0%"></stop>
            <stop stop-color="#D76D6D" offset="100%"></stop>
        </linearGradient>
        <path d="M10.8881579,0.19104 C10.0809583,0.275830926 9.46934363,0.960064117 9.47368421,1.77345758 L9.47368421,8.63060044 L1.57894737,8.63060044 C1.52416003,8.62773706 1.46926102,8.62773706 1.41447368,8.63060044 C0.607274108,8.71539137 -0.00434058453,9.39962456 -2.3373366e-16,10.213018 L-2.3373366e-16,46.0811499 C8.71861663e-05,46.9550588 0.706954932,47.6634801 1.57894737,47.6635675 L4.70394737,47.6635675 C5.2733725,47.6716383 5.80302321,47.3718088 6.09008588,46.8788896 C6.37714854,46.3859704 6.37714854,45.7763294 6.09008588,45.2834102 C5.80302321,44.790491 5.2733725,44.4906615 4.70394737,44.4987323 L3.15789474,44.4987323 L3.15789474,11.7954356 L18.9473684,11.7954356 L18.9473684,18.6525785 C18.9474556,19.5264874 19.6543234,20.2349087 20.5263158,20.234996 L27.3684211,20.234996 L27.3684211,44.4987323 L10.0493421,44.4987323 C9.47991697,44.4906615 8.95026627,44.790491 8.6632036,45.2834102 C8.37614093,45.7763294 8.37614093,46.3859704 8.6632036,46.8788896 C8.95026627,47.3718088 9.47991697,47.6716383 10.0493421,47.6635675 L28.9473684,47.6635675 C29.8193609,47.6634801 30.5262286,46.9550588 30.5263158,46.0811499 L30.5263158,39.224007 L38.4210526,39.224007 C39.2930451,39.2239197 39.9999128,38.5154984 40,37.6415895 L40,9.68554549 C40.0010105,9.26547192 39.835334,8.86223038 39.5394737,8.56466637 L31.6447368,0.652578462 C31.3478254,0.356067936 30.9454681,0.190027301 30.5263158,0.19104 L11.0526316,0.19104 C10.9978442,0.188176622 10.9429452,0.188176622 10.8881579,0.19104 Z M12.6315789,3.35587516 L28.4210526,3.35587516 L28.4210526,10.213018 C28.4211398,11.0869269 29.1280076,11.7953482 30,11.7954356 L36.8421053,11.7954356 L36.8421053,36.0591719 L30.5263158,36.0591719 L30.5263158,18.1251059 C30.5273263,17.7050324 30.3616498,17.3017908 30.0657895,17.0042268 L22.1710526,9.0921389 C21.8741412,8.79562838 21.4717839,8.62958774 21.0526316,8.63060044 L12.6315789,8.63060044 L12.6315789,3.35587516 Z M31.5789474,5.07016088 L35.1315789,8.63060044 L31.5789474,8.63060044 L31.5789474,5.07016088 Z M22.1052632,13.4932378 L25.6743421,17.0701609 L22.1052632,17.0701609 L22.1052632,13.4932378 Z M6.67763158,23.3998312 C6.11345759,23.4291814 5.60777524,23.7579806 5.35110877,24.2623483 C5.09444229,24.766716 5.12579486,25.3700082 5.43335386,25.8449246 C5.74091286,26.319841 6.27794148,26.594213 6.84210526,26.5646664 L16.8421053,26.5646664 C17.4115304,26.5727372 17.9411811,26.2729077 18.2282438,25.7799885 C18.5153064,25.2870693 18.5153064,24.6774283 18.2282438,24.1845091 C17.9411811,23.6915899 17.4115304,23.3917604 16.8421053,23.3998312 L6.84210526,23.3998312 C6.78731793,23.3969678 6.73241892,23.3969678 6.67763158,23.3998312 L6.67763158,23.3998312 Z M6.67763158,29.7295015 C6.11345759,29.7588517 5.60777524,30.0876509 5.35110877,30.5920186 C5.09444229,31.0963863 5.12579486,31.6996785 5.43335386,32.1745949 C5.74091286,32.6495113 6.27794148,32.9238833 6.84210526,32.8943367 L23.6842105,32.8943367 C24.2536357,32.9024075 24.7832864,32.602578 25.070349,32.1096588 C25.3574117,31.6167396 25.3574117,31.0070987 25.070349,30.5141795 C24.7832864,30.0212602 24.2536357,29.7214308 23.6842105,29.7295015 L6.84210526,29.7295015 C6.78731793,29.7266382 6.73241892,29.7266382 6.67763158,29.7295015 L6.67763158,29.7295015 Z M6.67763158,36.0591719 C6.11345759,36.088522 5.60777524,36.4173212 5.35110877,36.921689 C5.09444229,37.4260567 5.12579486,38.0293489 5.43335386,38.5042653 C5.74091286,38.9791816 6.27794148,39.2535536 6.84210526,39.224007 L23.6842105,39.224007 C24.2536357,39.2320778 24.7832864,38.9322483 25.070349,38.4393291 C25.3574117,37.9464099 25.3574117,37.336769 25.070349,36.8438498 C24.7832864,36.3509306 24.2536357,36.0511011 23.6842105,36.0591719 L6.84210526,36.0591719 C6.78731793,36.0563085 6.73241892,36.0563085 6.67763158,36.0591719 Z" id="path-2"></path>
    </defs>
    <g id="Import" stroke="none" stroke-width="1" fill="none" fill-rule="evenodd">
        <g id="Import_CSV_step-1" transform="translate(-708.000000, -355.000000)" fill-rule="nonzero">
            <g id="Multiple" transform="translate(694.000000, 316.000000)">
                <g id="Group" transform="translate(14.000000, 39.000000)">
                    <g id="ic_multiple">
                        <g id="Shape">
                            <use fill="#1D1E1F" xlink:href="#path-2"></use>
                            <use fill="url(#linearGradient-1)" xlink:href="#path-2"></use>
                        </g>
                    </g>
                </g>
            </g>
        </g>
    </g>
</svg>