<?xml version="1.0" encoding="UTF-8"?>
<svg width="16px" height="20px" viewBox="0 0 16 20" version="1.1" xmlns="http://www.w3.org/2000/svg" xmlns:xlink="http://www.w3.org/1999/xlink">
    <!-- Generator: sketchtool 54.1 (76490) - https://sketchapp.com -->
    <title>6CF752C6-F767-4FDC-BCCB-EFF8AF2BF2E9</title>
    <desc>Created with sketchtool.</desc>
    <g id="Campaign-Marketing" stroke="none" stroke-width="1" fill="none" fill-rule="evenodd">
        <g id="Marketing_List_Landing" transform="translate(-1241.000000, -17.000000)">
            <g id="Header">
                <g id="pic-+-noti">
                    <g transform="translate(1133.000000, 12.000000)">
                        <g id="ic_Noti" transform="translate(104.000000, 3.000000)">
                            <g transform="translate(4.000000, 2.000000)">
                                <path d="M15,14 C14.4477153,14 14,13.5522847 14,13 L14,8 C14.1431719,5.02078413 11.9611162,2.43679375 9,2.079 L9,1 C9,0.44771525 8.55228475,0 8,0 C7.44771525,0 7,0.44771525 7,1 L7,2.079 C4.03888382,2.43679375 1.85682811,5.02078413 2,8 L2,13 C2,13.5522847 1.55228475,14 1,14 C0.44771525,14 0,14.4477153 0,15 C0,15.5522847 0.44771525,16 1,16 L5,16 L5,17 C5,18.6568542 6.34314575,20 8,20 C9.65685425,20 11,18.6568542 11,17 L11,16 L15,16 C15.5522847,16 16,15.5522847 16,15 C16,14.4477153 15.5522847,14 15,14 Z M9,17 C9,17.5522847 8.55228475,18 8,18 C7.44771525,18 7,17.5522847 7,17 L7,16 L9,16 L9,17 Z M12,14 L4,14 L4,8 C3.95514949,6.92601172 4.36215569,5.88232831 5.122242,5.122242 C5.88232831,4.36215569 6.92601172,3.95514949 8,4 L8,4 C9.07398828,3.95514949 10.1176717,4.36215569 10.877758,5.122242 C11.6378443,5.88232831 12.0448505,6.92601172 12,8 L12,14 L12,14 Z" fill="#8E95A6"></path>
                                <circle id="Oval" stroke="#FF2355" stroke-width="2" fill="#FF2355" cx="13" cy="4" r="2"></circle>
                            </g>
                        </g>
                    </g>
                </g>
            </g>
        </g>
    </g>
</svg>