<?xml version="1.0" encoding="UTF-8"?>
<svg width="14px" height="18px" viewBox="0 0 14 18" version="1.1" xmlns="http://www.w3.org/2000/svg" xmlns:xlink="http://www.w3.org/1999/xlink">
    <!-- Generator: sketchtool 53 (72520) - https://sketchapp.com -->
    <title>A928EFAA-F8B6-498C-B252-96C31EEECDD3</title>
    <desc>Created with sketchtool.</desc>
    <g id="Members-and-Teams" stroke="none" stroke-width="1" fill="none" fill-rule="evenodd">
        <g id="Admin_a" transform="translate(-23.000000, -423.000000)" fill-rule="nonzero">
            <g id="Left-Panel_1">
                <g id="ic_reports" transform="translate(20.000000, 422.000000)">
                    <rect id="Rectangle" fill="#000000" opacity="0" x="0" y="0" width="20" height="20"></rect>
                    <g transform="translate(3.000000, 1.000000)" stroke="#FFFFFF">
                        <path d="M0.75,2.21527645 L0.75,17.25 L13.25,17.25 L13.25,2.21527645 L11.0606063,2.21527645 L11.0606063,3.03706032 C11.0606063,3.67525626 10.528223,4.1688144 9.8989041,4.1688144 L4.1010959,4.1688144 C3.47153517,4.1688144 2.93939365,3.67526071 2.93939365,3.03706032 L2.93939365,2.21527645 L0.75,2.21527645 Z" id="ic_reports-copy" stroke-width="1.5"></path>
                        <path d="M5.51279815,1.65555222 L5.51279815,1.46527645 L4.51279815,1.46527645 L4.51279815,2.46527645 L5.32252238,2.46527645 L5.51279815,2.65555222 L5.51279815,2.46222631 C6.03635119,2.42818912 6.49345195,2.11209403 6.70518765,1.65555222 L5.51279815,1.65555222 Z M7.13357355,1.03821307 C7.13844579,1.0417411 7.1429799,1.04545371 7.14715729,1.04932473 L7.82685526,0.315832627 L6.82685526,0.315832627 L6.82685526,0.753989432 L7.13357355,1.03821307 Z M7.29457917,1.65555222 C7.50636317,2.11206967 7.96353414,2.4280849 8.48693641,2.46220897 L8.48693641,2.65555222 L8.67721217,2.46527645 L9.48693641,2.46527645 L9.48693641,1.46527645 L8.48693641,1.46527645 L8.48693641,1.65555222 L7.29457917,1.65555222 Z" id="Path" stroke-width="2"></path>
                        <path d="M4.38140381,8.05409449 L6.52406052,9.72672834 L9.56869288,6.39449734 C9.71521747,6.23412127 9.97455538,6.21419725 10.1476243,6.34972979 C10.3209586,6.4855083 10.3424595,6.7260724 10.1959349,6.88644847 L6.88639035,10.5069628 C6.74066209,10.666847 6.4826514,10.6870169 6.30984794,10.5524683 L3.85396837,8.63533475 C3.68063403,8.50029416 3.65833681,8.26071396 3.80406507,8.10033789 C3.94952789,7.93971585 4.20806947,7.9190539 4.38140381,8.05409449 Z" id="Path" stroke-width="0.5" fill="#FFFFFF"></path>
                        <path d="M3.35288095,13.3157895 L10.6468915,13.3157895 C10.2153998,13.3157895 10,13.0270013 10,12.789321 C10,12.5518157 10.215111,12.2631579 10.6468915,12.2631579 L3.35288095,12.2631579 C3.78495045,12.2631579 4,12.5519903 4,12.789321 C4,13.0268264 3.78466152,13.3157895 3.35288095,13.3157895 Z" id="Path" stroke-width="2" fill="#FFFFFF"></path>
                        <path d="M3.35288095,15.2105263 L10.6468915,15.2105263 C10.215311,15.2105263 10,14.9217642 10,14.6842105 C10,14.4466568 10.215311,14.1578947 10.6468915,14.1578947 L3.35288095,14.1578947 C3.78475039,14.1578947 4,14.4468317 4,14.6842105 C4,14.9215894 3.78475039,15.2105263 3.35288095,15.2105263 Z" id="Path" stroke-width="2" fill="#FFFFFF"></path>
                    </g>
                </g>
            </g>
        </g>
    </g>
</svg>