<?xml version="1.0" encoding="UTF-8"?>
<svg width="12px" height="14px" viewBox="0 0 12 14" version="1.1" xmlns="http://www.w3.org/2000/svg" xmlns:xlink="http://www.w3.org/1999/xlink">
    <!-- Generator: sketchtool 52.6 (67491) - http://www.bohemiancoding.com/sketch -->
    <title>90CCDD51-5431-49F0-8F8D-388ABE7D37AC</title>
    <desc>Created with sketchtool.</desc>
    <g id="Members-and-Teams" stroke="none" stroke-width="1" fill="none" fill-rule="evenodd">
        <g id="Admin_a" transform="translate(-1123.000000, -384.000000)" fill="#9CB7C1">
            <g id="More-Items" transform="translate(1110.000000, 345.000000)">
                <path d="M18.6249284,44.054967 C18.7442513,44.0191533 18.8700507,44 19,44 C19.7666667,44 20.3888889,44.6666667 20.3888889,45.4880952 L20.3888889,45.547619 L20.7222222,45.547619 C20.8777778,45.547619 21,45.6785714 21,45.8452381 L21,48.702381 C21,48.8690476 20.8777778,49 20.7222222,49 L17.2777778,49 C17.1222222,49 17,48.8690476 17,48.702381 L17,45.8452381 C17,45.6785714 17.1222222,45.547619 17.2777778,45.547619 L17.6111111,45.547619 L17.6111111,45.4880952 C17.6111111,44.9026343 17.9271945,44.3957911 18.3863757,44.1529074 L15.1702936,42.5784365 L16.4690369,39 L17.5427411,39.4029858 L16.9172083,41.1214878 C18.3567337,40.5885742 19.9409086,40.6252292 21.3550582,41.2241717 C24.6791546,42.661746 25.6918312,46.5462967 24.5475639,49.2722632 C23.9325772,50.6693299 22.8366706,51.7902378 21.4656707,52.4244646 C19.9391653,53.159451 18.1752233,53.1919171 16.623513,52.5135865 C14.5256897,51.6068684 13.1735472,49.6461875 13,47.2689587 L14.1442673,47.1837117 C14.2853936,49.1211435 15.381983,50.7137124 17.0754986,51.4460616 C18.3286286,51.9930295 19.752763,51.9662112 20.9850784,51.3724392 C22.0963838,50.8541245 22.9871664,49.9471171 23.494838,48.8169667 C24.6410124,46.0793756 23.0829018,43.2352258 20.9068868,42.2955714 C19.7127764,41.8014307 18.3775262,41.7917217 17.1765755,42.2684474 L19.0398241,43.1829152 L18.6249284,44.054967 Z M18.1666667,45.4880952 L18.1666667,45.547619 L19.8333333,45.547619 L19.8333333,45.4880952 C19.8333333,45 19.4555556,44.5952381 19,44.5952381 C18.5444444,44.5952381 18.1666667,45 18.1666667,45.4880952 Z M20.4444444,48.4047619 L20.4444444,46.1428571 L17.5555556,46.1428571 L17.5555556,48.4047619 L20.4444444,48.4047619 Z M18.5555556,46.9761905 C18.5555556,46.7142857 18.7555556,46.5 19,46.5 C19.2444444,46.5 19.4444444,46.7142857 19.4444444,46.9761905 C19.4444444,47.1547619 19.3555556,47.3095238 19.2222222,47.3809524 L19.2222222,47.7738095 C19.2222222,47.9047619 19.1222222,48.0119048 19,48.0119048 C18.8777778,48.0119048 18.7777778,47.9047619 18.7777778,47.7738095 L18.7777778,47.3809524 C18.6444444,47.3095238 18.5555556,47.1547619 18.5555556,46.9761905 Z" id="ic_reset"></path>
            </g>
        </g>
    </g>
</svg>