<?xml version="1.0" encoding="UTF-8"?>
<svg width="18px" height="18px" viewBox="0 0 18 18" version="1.1" xmlns="http://www.w3.org/2000/svg" xmlns:xlink="http://www.w3.org/1999/xlink">
    <!-- Generator: sketchtool 52.6 (67491) - http://www.bohemiancoding.com/sketch -->
    <title>F7C2669C-DCAC-42EC-AE63-DDCC032ABDD3</title>
    <desc>Created with sketchtool.</desc>
    <g id="Members-and-Teams" stroke="none" stroke-width="1" fill="none" fill-rule="evenodd">
        <g id="Admin_a" transform="translate(-80.000000, -21.000000)" fill="#2523AE">
            <g id="Header">
                <g id="search" transform="translate(80.000000, 17.000000)">
                    <path d="M17.6957478,21.7798049 C17.3043629,22.1015158 16.7314008,22.0681959 16.3799454,21.7032862 L13.2335246,18.4364148 C12.9157275,18.1064519 12.9255899,17.5813388 13.2555527,17.2635417 C13.2712116,17.2484602 13.2874573,17.2340002 13.3042522,17.2201951 C13.6956371,16.8984842 14.2685992,16.9318041 14.6200546,17.2967138 L17.7664754,20.5635852 C18.0842725,20.8935481 18.0744101,21.4186612 17.7444473,21.7364583 C17.7287884,21.7515398 17.7125427,21.7659998 17.6957478,21.7798049 Z M7.36363636,4 C11.4304675,4 14.7272727,7.29680519 14.7272727,11.3636364 C14.7272727,15.4304675 11.4304675,18.7272727 7.36363636,18.7272727 C3.29680519,18.7272727 -1.03916875e-13,15.4304675 -1.03916875e-13,11.3636364 C-1.03916875e-13,7.29680519 3.29680519,4 7.36363636,4 Z M7.36363636,16.6233766 C10.2638571,16.6233766 12.6233766,14.2638571 12.6233766,11.3636364 C12.6233766,8.46341558 10.2638571,6.1038961 7.36363636,6.1038961 C4.46341558,6.1038961 2.1038961,8.46341558 2.1038961,11.3636364 C2.1038961,14.2638571 4.46341558,16.6233766 7.36363636,16.6233766 Z" id="ic_search-"></path>
                </g>
            </g>
        </g>
    </g>
</svg>