<?xml version="1.0" encoding="UTF-8"?>
<svg width="18px" height="18px" viewBox="0 0 18 18" version="1.1" xmlns="http://www.w3.org/2000/svg" xmlns:xlink="http://www.w3.org/1999/xlink">
    <!-- Generator: sketchtool 53 (72520) - https://sketchapp.com -->
    <title>081870B5-32D8-4139-94EB-28E26693434A</title>
    <desc>Created with sketchtool.</desc>
    <g id="Members-and-Teams" stroke="none" stroke-width="1" fill="none" fill-rule="evenodd">
        <g id="Admin_a" transform="translate(-21.000000, -493.000000)" fill-rule="nonzero">
            <g id="Left-Panel_1">
                <g id="ic_settings" transform="translate(20.000000, 492.000000)">
                    <rect id="Rectangle" fill="#000000" opacity="0" x="0" y="0" width="20" height="20"></rect>
                    <path d="M10.8449174,1.75 L9.15721431,1.75 L8.79428214,4.16697381 L8.33145636,4.30011548 C7.92414896,4.4172861 7.52490901,4.58240679 7.14454886,4.78987597 L6.72481963,5.01881918 L6.34010588,4.73494783 L4.7619143,3.57041806 L3.57042889,4.76190348 L5.01881918,6.72481963 L4.78987597,7.14454886 C4.58240679,7.52490901 4.4172861,7.92414896 4.30011548,8.33145636 L4.16697381,8.79428214 L3.69071749,8.86579667 L1.75,9.15721422 L1.75,10.8449174 L4.16633597,11.2077538 L4.29986233,11.6697974 C4.41730285,12.0761788 4.58273088,12.4756851 4.78987597,12.8554511 L5.01881918,13.2751804 L4.73494783,13.6598941 L3.57041806,15.2380857 L4.76309259,16.4307602 L6.7260771,14.9797468 L7.14710356,15.211524 C7.51874904,15.4161167 7.91750508,15.5810372 8.33449045,15.702896 L8.79453359,15.8373378 L8.86577923,16.3112981 L9.15720441,18.25 L10.8449271,18.25 L11.2075012,15.8379823 L11.6667526,15.7031562 C12.0829055,15.5809829 12.4818454,15.4157894 12.8528964,15.211524 L13.2739229,14.9797468 L13.6604058,15.26543 L15.2369074,16.4307602 L16.4307602,15.2369074 L14.9797468,13.2739229 L15.211524,12.8528964 C15.4157894,12.4818454 15.5809829,12.0829055 15.7031562,11.6667526 L15.8379823,11.2075012 L16.3112981,11.1363525 L18.25,10.8449273 L18.25,9.15720457 L15.8373378,8.79453359 L15.702896,8.33449045 C15.5810372,7.91750508 15.4161167,7.51874904 15.211524,7.14710356 L14.9797468,6.7260771 L15.26543,6.33959424 L16.4307602,4.7630926 L15.2380965,3.57042889 L13.2751804,5.01881918 L12.8554511,4.78987597 C12.4756851,4.58273088 12.0761788,4.41730285 11.6697974,4.29986233 L11.2077538,4.16633597 L10.8449174,1.75 Z M10.8358238,1.68944057 L10.8357666,1.68905951 L10.8358239,1.6894404 C10.8358239,1.68944042 10.8358239,1.68944043 10.8358239,1.68944044 Z M12.2054345,7.79555176 C13.4226871,9.01280442 13.4226871,10.9864506 12.2050574,12.2058112 C10.9864506,13.4226871 9.01280442,13.4226871 7.79555176,12.2054345 C6.5768585,10.9867412 6.5768585,9.01251366 7.79517498,7.79592882 C9.01251366,6.5768585 10.9867412,6.5768585 12.2054345,7.79555176 Z" id="ic_settings-copy" stroke="#FFFFFF" stroke-width="1.5"></path>
                </g>
            </g>
        </g>
    </g>
</svg>