<?xml version="1.0" encoding="UTF-8"?>
<svg width="31px" height="40px" viewBox="0 0 31 40" version="1.1" xmlns="http://www.w3.org/2000/svg" xmlns:xlink="http://www.w3.org/1999/xlink">
    <!-- Generator: sketchtool 53 (72520) - https://sketchapp.com -->
    <title>7BBB47D1-E11B-4DFD-88AD-4C8BB3848831</title>
    <desc>Created with sketchtool.</desc>
    <defs>
        <linearGradient x1="19.4662808%" y1="0%" x2="81.7550668%" y2="100.999999%" id="linearGradient-1">
            <stop stop-color="#2523AE" offset="0%"></stop>
            <stop stop-color="#D76D6D" offset="100%"></stop>
        </linearGradient>
        <path d="M9.47368421,0.63060044 L1.57894737,0.63060044 C1.52416003,0.627737061 1.46926102,0.627737061 1.41447368,0.63060044 C0.607274108,0.715391365 -0.00434058453,1.39962456 -2.94209081e-13,2.21301802 L-2.94209081e-13,38.0811499 C8.7186166e-05,38.9550588 0.706954932,39.6634801 1.57894737,39.6635675 L4.70394737,39.6635675 C5.2733725,39.6716383 5.80302321,39.3718088 6.09008588,38.8788896 C6.37714854,38.3859704 6.37714854,37.7763294 6.09008588,37.2834102 C5.80302321,36.790491 5.2733725,36.4906615 4.70394737,36.4987323 L3.15789474,36.4987323 L3.15789474,3.7954356 L18.9473684,3.7954356 L18.9473684,10.6525785 C18.9474556,11.5264874 19.6543234,12.2349087 20.5263158,12.234996 L27.3684211,12.234996 L27.3684211,36.4987323 L10.0493421,36.4987323 C9.47991697,36.4906615 8.95026627,36.790491 8.6632036,37.2834102 C8.37614093,37.7763294 8.37614093,38.3859704 8.6632036,38.8788896 C8.95026627,39.3718088 9.47991697,39.6716383 10.0493421,39.6635675 L28.9473684,39.6635675 C29.8193609,39.6634801 30.5262286,38.9550588 30.5263158,38.0811499 L30.5263158,31.224007 C30.5087719,20.7010353 30.5,13.793033 30.5,10.5 C30.5,8 30.5263158,5 30,3.7954356 C28.5625582,0.50560241 24.5732603,0.597487175 22.8622524,0.601239403 C19.887015,0.607764078 15.4241589,0.61755109 9.47368421,0.63060044 Z M22.1052632,5.4932378 L25.6743421,9.07016088 L22.1052632,9.07016088 L22.1052632,5.4932378 Z M5.35110877,16.2623483 C5.09444229,16.766716 5.12579486,17.3700082 5.43335386,17.8449246 C5.74091286,18.319841 6.27794148,18.594213 6.84210526,18.5646664 L16.8421053,18.5646664 C17.4115304,18.5727372 17.9411811,18.2729077 18.2282438,17.7799885 C18.5153064,17.2870693 18.5153064,16.6774283 18.2282438,16.1845091 C17.9411811,15.6915899 17.4115304,15.3917604 16.8421053,15.3998312 L6.84210526,15.3998312 C6.78731793,15.3969678 6.73241892,15.3969678 6.67763158,15.3998312 C6.11345759,15.4291814 5.60777524,15.7579806 5.35110877,16.2623483 Z M5.35110877,22.5920186 C5.09444229,23.0963863 5.12579486,23.6996785 5.43335386,24.1745949 C5.74091286,24.6495113 6.27794148,24.9238833 6.84210526,24.8943367 L23.6842105,24.8943367 C24.2536357,24.9024075 24.7832864,24.602578 25.070349,24.1096588 C25.3574117,23.6167396 25.3574117,23.0070987 25.070349,22.5141795 C24.7832864,22.0212602 24.2536357,21.7214308 23.6842105,21.7295015 L6.84210526,21.7295015 C6.78731793,21.7266382 6.73241892,21.7266382 6.67763158,21.7295015 C6.11345759,21.7588517 5.60777524,22.0876509 5.35110877,22.5920186 Z M6.67763158,28.0591719 C6.11345759,28.088522 5.60777524,28.4173212 5.35110877,28.921689 C5.09444229,29.4260567 5.12579486,30.0293489 5.43335386,30.5042653 C5.74091286,30.9791816 6.27794148,31.2535536 6.84210526,31.224007 L23.6842105,31.224007 C24.2536357,31.2320778 24.7832864,30.9322483 25.070349,30.4393291 C25.3574117,29.9464099 25.3574117,29.336769 25.070349,28.8438498 C24.7832864,28.3509306 24.2536357,28.0511011 23.6842105,28.0591719 L6.84210526,28.0591719 C6.78731793,28.0563085 6.73241892,28.0563085 6.67763158,28.0591719 Z" id="path-2"></path>
    </defs>
    <g id="Import" stroke="none" stroke-width="1" fill="none" fill-rule="evenodd">
        <g id="Import_CSV_step-1" transform="translate(-484.000000, -359.000000)" fill-rule="nonzero">
            <g id="Single" transform="translate(474.000000, 316.000000)">
                <g id="ic_single" transform="translate(10.000000, 43.000000)">
                    <g id="Shape">
                        <use fill="#1D1E1F" xlink:href="#path-2"></use>
                        <use fill="url(#linearGradient-1)" xlink:href="#path-2"></use>
                    </g>
                </g>
            </g>
        </g>
    </g>
</svg>