<?xml version="1.0" encoding="UTF-8"?>
<svg width="22px" height="14px" viewBox="0 0 22 14" version="1.1" xmlns="http://www.w3.org/2000/svg" xmlns:xlink="http://www.w3.org/1999/xlink">
    <!-- Generator: sketchtool 52.6 (67491) - http://www.bohemiancoding.com/sketch -->
    <title>21CF39A0-7855-49BC-A4F9-D51BC993A36D</title>
    <desc>Created with sketchtool.</desc>
    <g id="Members-and-Teams" stroke="none" stroke-width="1" fill="none" fill-rule="evenodd">
        <g id="Admin_a" transform="translate(-1118.000000, -416.000000)" fill="#9CB7C1">
            <g id="More-Items" transform="translate(1110.000000, 345.000000)">
                <path d="M24.6346604,83.6230755 L23.3747073,83.6230755 L23.3747073,79.33762 C23.3747073,79.0916501 23.1826698,78.8837167 22.9555035,78.8837167 L15.0468384,78.8837167 C14.8173302,78.8837167 14.6252927,79.0916501 14.6252927,79.33762 L14.6252927,83.6230755 L13.3653396,83.6230755 L13.3653396,79.33762 C13.3653396,78.3359899 14.1194379,77.5194711 15.0468384,77.5194711 L22.9531616,77.5194711 C23.8805621,77.5194711 24.6346604,78.3359899 24.6346604,79.33762 L24.6346604,83.6230755 Z M19.8266979,83.6332186 C20.0679157,83.6332186 20.295082,83.4024633 20.3067916,83.138743 L20.8735363,80.8717624 L22.1311475,80.9554429 L21.5667447,83.2224235 C21.5128806,84.2012317 20.7306792,85 19.824356,85 L18.1733021,85 C17.2669789,85 16.4847775,84.2012317 16.4309133,83.2198877 L15.8665105,80.9529071 L17.1264637,80.8717624 L17.6932084,83.138743 C17.70726,83.4024633 17.9320843,83.6332186 18.175644,83.6332186 L19.8266979,83.6332186 Z M16.2505855,73.875566 C16.2505855,72.2907082 17.442623,71 18.9063232,71 C20.3700234,71 21.5620609,72.2881724 21.5620609,73.875566 C21.5620609,75.4604238 20.3700234,76.751132 18.9063232,76.751132 C17.442623,76.751132 16.2505855,75.4604238 16.2505855,73.875566 Z M20.3021077,73.875566 C20.3021077,73.0438326 19.6744731,72.3667814 18.9063232,72.3642456 C18.1381733,72.3642456 17.5128806,73.0412969 17.5128806,73.875566 C17.5128806,74.7072994 18.1381733,75.3843507 18.9063232,75.3843507 C19.676815,75.3843507 20.3021077,74.7072994 20.3021077,73.875566 Z M28.3770492,78.0519833 C29.2693208,78.0519833 29.9976581,78.8380728 30,79.8092737 L30,81.7871762 L28.7330211,81.7871762 L28.7330211,79.8092737 C28.7330211,79.5962688 28.5737705,79.4238363 28.3770492,79.4238363 L25.6252927,79.4238363 L25.6252927,78.0519833 L28.3770492,78.0519833 Z M26.5690867,77.4053613 C25.4566745,77.4053613 24.5526932,76.4265532 24.5526932,75.2220612 C24.5526932,74.0175693 25.4566745,73.0387611 26.5690867,73.0387611 C27.6814988,73.0387611 28.5854801,74.0175693 28.5854801,75.2220612 C28.5854801,76.4265532 27.6814988,77.4053613 26.5690867,77.4053613 Z M26.5690867,74.410614 C26.1545667,74.410614 25.8173302,74.7732295 25.8173302,75.2220612 C25.8173302,75.670893 26.1545667,76.0360442 26.5690867,76.0360442 C26.9812646,76.0360442 27.3185012,75.670893 27.3185012,75.2220612 C27.3185012,74.7757653 26.9836066,74.410614 26.5690867,74.410614 Z M12.3747073,78.0519833 L12.3747073,79.4238363 L9.62295082,79.4238363 C9.42622951,79.4238363 9.26697892,79.5962688 9.26697892,79.8092737 L9.26697892,81.7871762 L8,81.7871762 L8,79.8092737 C8,78.8406086 8.72833724,78.0519833 9.62295082,78.0519833 L12.3747073,78.0519833 Z M11.4309133,77.4053613 C10.3185012,77.4053613 9.41451991,76.4265532 9.41451991,75.2220612 C9.41451991,74.0175693 10.3185012,73.0387611 11.4309133,73.0387611 C12.5433255,73.0387611 13.4473068,74.0175693 13.4473068,75.2220612 C13.4473068,76.4265532 12.5433255,77.4053613 11.4309133,77.4053613 Z M11.4309133,74.410614 C11.0163934,74.410614 10.6791569,74.7732295 10.6791569,75.2220612 C10.6791569,75.670893 11.0163934,76.0360442 11.4309133,76.0360442 C11.8454333,76.0360442 12.1826698,75.670893 12.1826698,75.2220612 C12.1826698,74.7757653 11.8454333,74.410614 11.4309133,74.410614 Z" id="ic_team"></path>
            </g>
        </g>
    </g>
</svg>