<?xml version="1.0" encoding="UTF-8"?>
<svg width="30px" height="30px" viewBox="0 0 30 30" version="1.1" xmlns="http://www.w3.org/2000/svg" xmlns:xlink="http://www.w3.org/1999/xlink">
    <!-- Generator: Sketch 63.1 (92452) - https://sketch.com -->
    <title>activty n task</title>
    <desc>Created with Sketch.</desc>
    <g id="activty-n-task" stroke="none" stroke-width="1" fill="none" fill-rule="evenodd">
        <g id="ic_activty-n-task_C">
            <rect id="Rectangle" fill="#7D23F5" x="0" y="0" width="30" height="30" rx="2"></rect>
            <path d="M22.9090909,16.6363636 C23.5115834,16.6363636 24,17.1247803 24,17.7272727 C24,18.3297652 23.5115834,18.8181818 22.9090909,18.8181818 L22.9090909,18.8181818 L13.7575758,18.8181818 C13.1550833,18.8181818 12.6666667,18.3297652 12.6666667,17.7272727 C12.6666667,17.1247803 13.1550833,16.6363636 13.7575758,16.6363636 L13.7575758,16.6363636 Z M8.58087763,15.5463669 C9.55337329,15.5159811 10.3682573,16.2483624 10.4033658,17.1843376 C10.4010348,18.0733102 9.66246702,18.7982173 8.73914389,18.8177777 C7.81582077,18.8373381 7.04483488,18.1444105 7.00187405,17.2563974 C6.95891322,16.3683842 7.65966186,15.6094869 8.58087763,15.5463669 Z M12.8542388,9.2004364 C13.1195021,9.44789231 13.1339379,9.8635334 12.886482,10.1287968 C12.8762091,10.139809 12.8655605,10.1504646 12.8545551,10.1607448 L9.26376591,13.5149063 L7.21095304,11.5978994 C6.94588779,11.3503698 6.93167232,10.9348296 7.17920191,10.6697643 L7.21033292,10.638593 L7.21033292,10.638593 C7.49883379,10.3684791 7.94734209,10.3682715 8.23609297,10.6381181 L9.2618983,11.5967649 L11.8256142,9.2008931 C12.1150678,8.93038973 12.564545,8.93019017 12.8542388,9.2004364 Z M22.9090909,11.1818182 C23.5115834,11.1818182 24,11.6702348 24,12.2727273 C24,12.8752197 23.5115834,13.3636364 22.9090909,13.3636364 L13.7575758,13.3636364 C13.1550833,13.3636364 12.6666667,12.8752197 12.6666667,12.2727273 C12.6666667,11.6702348 13.1550833,11.1818182 13.7575758,11.1818182 L22.9090909,11.1818182 Z" id="Combined-Shape" fill="#FFFFFF"></path>
        </g>
    </g>
</svg>