<?xml version="1.0" encoding="UTF-8"?>
<svg width="30px" height="30px" viewBox="0 0 30 30" version="1.1" xmlns="http://www.w3.org/2000/svg" xmlns:xlink="http://www.w3.org/1999/xlink">
    <!-- Generator: Sketch 63.1 (92452) - https://sketch.com -->
    <title>contact</title>
    <desc>Created with Sketch.</desc>
    <g id="contact" stroke="none" stroke-width="1" fill="none" fill-rule="evenodd">
        <g id="ic_contact_C">
            <rect id="Rectangle" fill="#84DC6A" x="0" y="0" width="30" height="30" rx="2"></rect>
            <path d="M15.5,8.1375 C14.7001456,8.1375 13.9763177,8.46434972 13.4522538,8.99186147 C12.9257947,9.52178408 12.6007353,10.2540202 12.6007353,11.0625 C12.6007353,11.8709798 12.9257947,12.6032159 13.4522538,13.1331385 C13.9763177,13.6606503 14.7001456,13.9875 15.5,13.9875 C16.2998544,13.9875 17.0236823,13.6606503 17.5477462,13.1331385 C18.0742053,12.6032159 18.3992647,11.8709798 18.3992647,11.0625 C18.3992647,10.2540202 18.0742053,9.52178408 17.5477462,8.99186147 C17.0236823,8.46434972 16.2998544,8.1375 15.5,8.1375 Z" id="ic_contact-path" stroke="#FFFFFF" stroke-width="2.025"></path>
            <path d="M22.5368337,21.8625 C22.0508623,20.5883626 21.2493728,19.5003243 20.2416112,18.6899292 C18.9401747,17.6433744 17.2944599,17.0610471 15.4510019,17.1456146 C13.7055401,17.0610471 12.0598253,17.6433744 10.7583888,18.6899292 C9.7506272,19.5003243 8.94913768,20.5883626 8.46316635,21.8625 L22.5368337,21.8625 Z" id="ic_contact-path" stroke="#FFFFFF" stroke-width="2.025"></path>
        </g>
    </g>
</svg>