<?xml version="1.0" encoding="UTF-8"?>
<svg width="30px" height="30px" viewBox="0 0 30 30" version="1.1" xmlns="http://www.w3.org/2000/svg" xmlns:xlink="http://www.w3.org/1999/xlink">
    <!-- Generator: sketchtool 63 (101010) - https://sketch.com -->
    <title>5582944A-8F35-4A9B-BA24-E1EE2028542D</title>
    <desc>Created with sketchtool.</desc>
    <g id="One-Rule-Multiple-Conditions" stroke="none" stroke-width="1" fill="none" fill-rule="evenodd">
        <g id="Administrator_Rule-Create_step-4" transform="translate(-191.000000, -388.000000)">
            <g id="Actions" transform="translate(179.000000, 376.000000)">
                <g id="ic_actions" transform="translate(12.000000, 12.000000)">
                    <rect id="Rectangle" fill="#F8D31C" x="0" y="0" width="30" height="30" rx="2"></rect>
                    <path d="M10.8569672,21.1398372 L7.85809009,18.1387842 L5,18.3796414 C5.37704085,16.7820629 6.04707541,15.26838 6.97606953,13.915479 L7.68619266,12.8813213 L11.089522,12.6486921 C11.6730447,11.8301642 12.3687357,11.0055608 13.162537,10.2111844 C15.4520804,7.91997937 17.9929038,6.44554274 19.9145773,6.12548685 C20.9420841,5.92955476 21.8849434,5.96905083 22.7849022,6.20219784 C23.0449894,7.19140361 23.0768237,8.17776271 22.838658,9.20305233 C22.4761868,11.1099787 21.0177471,13.590993 18.778821,15.8315429 C17.985021,16.6259194 17.1610158,17.3221157 16.3430804,17.9060614 L16.1106194,21.3118593 L15.0435305,22.027793 C13.6918591,22.9346578 12.1942257,23.6018093 10.6162853,24 L10.8569672,21.1398372 Z M17.7943445,11.2344455 C18.3188452,11.7593271 19.15692,11.771646 19.6662364,11.2619605 C20.1755516,10.752275 20.1632421,9.91359259 19.6387414,9.38871096 C19.1142395,8.86382931 18.2761646,8.85151041 17.7668495,9.36119593 C17.2575331,9.87088143 17.2698425,10.7095638 17.7943445,11.2344455 Z" id="Shape" fill="#FFFFFF" fill-rule="nonzero"></path>
                </g>
            </g>
        </g>
    </g>
</svg>