<?xml version="1.0" encoding="UTF-8"?>
<svg width="10px" height="17px" viewBox="0 0 10 17" version="1.1" xmlns="http://www.w3.org/2000/svg" xmlns:xlink="http://www.w3.org/1999/xlink">
    <!-- Generator: sketchtool 63.1 (101010) - https://sketch.com -->
    <title>66FFF5F4-15B9-4183-9B42-D56CE9646EEB</title>
    <desc>Created with sketchtool.</desc>
    <g id="One-Rule-Multiple-Conditions" stroke="none" stroke-width="1" fill="none" fill-rule="evenodd">
        <g id="Administrator_Rule-Create_step-4" transform="translate(-626.000000, -534.000000)" fill="#004CFF" fill-rule="nonzero" stroke="#004CFF">
            <g id="Actions" transform="translate(179.000000, 376.000000)">
                <g transform="translate(348.000000, 1.000000)" id="Hook-up-API">
                    <g transform="translate(13.000000, 151.000000)">
                        <g id="ic_hook">
                            <path d="M91.8,17.3846154 L93.9333333,17.3846154 L93.9333333,18.5384615 C93.9333333,19.8105769 92.976,20.8461538 91.8,20.8461538 C90.624,20.8461538 89.6666667,19.8105769 89.6666667,18.5384615 L89.6666667,13.2642308 C90.5850667,13.0069231 91.2666667,12.1121154 91.2666667,11.0384615 C91.2666667,9.96480769 90.5850667,9.07 89.6666667,8.81269231 L89.6666667,7 L88.6,7 L88.6,8.81269231 C87.6810667,9.07 87,9.96480769 87,11.0384615 C87,12.1121154 87.6810667,13.0069231 88.6,13.2642308 L88.6,18.5384615 C88.6,20.4475 90.0352,22 91.8,22 C93.5648,22 95,20.4475 95,18.5384615 L95,13.9230769 L91.8,17.3846154 Z M88.0666667,11.0384615 C88.0666667,10.4021154 88.5450667,9.88461538 89.1333333,9.88461538 C89.7216,9.88461538 90.2,10.4021154 90.2,11.0384615 C90.2,11.6748077 89.7216,12.1923077 89.1333333,12.1923077 C88.5450667,12.1923077 88.0666667,11.6748077 88.0666667,11.0384615 Z"></path>
                        </g>
                    </g>
                </g>
            </g>
        </g>
    </g>
</svg>