<?xml version="1.0" encoding="UTF-8"?>
<svg width="34px" height="34px" viewBox="0 0 34 34" version="1.1" xmlns="http://www.w3.org/2000/svg" xmlns:xlink="http://www.w3.org/1999/xlink">
    <!-- Generator: sketchtool 63 (101010) - https://sketch.com -->
    <title>09DCF547-BB11-4327-81E9-B557A659DC13</title>
    <desc>Created with sketchtool.</desc>
    <g id="One-Rule-Multiple-Conditions" stroke="none" stroke-width="1" fill="none" fill-rule="evenodd">
        <g id="Administrator_Rule-Create_step-4" transform="translate(-501.000000, -256.000000)">
            <g id="Condition-1" transform="translate(179.000000, 248.000000)">
                <g id="ic_more_expand" transform="translate(322.000000, 8.000000)">
                    <rect id="check-box" stroke="#C6D9FF" x="0.5" y="0.5" width="33" height="33" rx="16.5"></rect>
                    <path d="M21.0536176,21.7047324 L21.7099946,21.0483923 L22.0933143,22.0875975 L21.0536176,21.7047324 Z M13.9946242,12.9261831 L21.1356989,20.0638821 L20.0412813,21.1577823 L12.9002066,13.9927358 L13.9946242,12.9261831 Z M11.3133011,12.4065805 L12.4077187,11.3126803 L13.2285319,12.1331054 L12.1341143,13.2270057 L11.3133011,12.4065805 Z M23.5160572,22.8259801 L22.449,19.8724495 C22.449,19.845102 22.4216396,19.845102 22.4216396,19.8177545 C22.4216396,19.790407 22.3940055,19.790407 22.3940055,19.7630595 L22.3669187,19.735712 C22.3669187,19.7083645 22.3395583,19.7083645 22.3395583,19.681017 L12.7907648,10.164085 C12.5718813,9.94530499 12.2435561,9.94530499 12.0246725,10.164085 L10.1641626,12.0237154 C10.0547209,12.1331054 10,12.269843 10,12.4065805 C10,12.543318 10.0547209,12.6800555 10.1641626,12.7894456 L19.6855956,22.3063775 C19.7129561,22.333725 19.7129561,22.333725 19.7403165,22.333725 L19.7676769,22.3610725 C19.7947638,22.3610725 19.7947638,22.38842 19.8223978,22.38842 C19.8497583,22.38842 19.8497583,22.4157675 19.8771187,22.4157675 L22.8044121,23.5096678 C22.8594066,23.5370153 22.9412143,23.5370153 22.9962088,23.5370153 C23.133011,23.5370153 23.2698132,23.4823203 23.379255,23.3729302 C23.5160572,23.2635402 23.5707781,23.0447602 23.5160572,22.8259801 L23.5160572,22.8259801 Z" id="ic_edit" fill="#1D1E1F" transform="translate(16.768508, 16.768508) scale(-1, 1) translate(-16.768508, -16.768508) "></path>
                </g>
            </g>
        </g>
    </g>
</svg>