<?xml version="1.0" encoding="UTF-8"?>
<svg width="15px" height="9px" viewBox="0 0 15 9" version="1.1" xmlns="http://www.w3.org/2000/svg" xmlns:xlink="http://www.w3.org/1999/xlink">
    <!-- Generator: sketchtool 63.1 (101010) - https://sketch.com -->
    <title>35CE76A8-56F5-49BB-AD68-F65F6C0918B4</title>
    <desc>Created with sketchtool.</desc>
    <g id="One-Rule-Multiple-Conditions" stroke="none" stroke-width="1" fill="none" fill-rule="evenodd">
        <g id="Administrator_Rule-Create_step-4" transform="translate(-622.000000, -469.000000)" fill="#004FFF">
            <g id="Actions" transform="translate(179.000000, 376.000000)">
                <g transform="translate(348.000000, 1.000000)" id="Assign-Task">
                    <g transform="translate(17.000000, 81.000000)">
                        <g id="ic_task">
                            <path d="M92,18 C92.5522847,18 93,18.4477153 93,19 C93,19.5522847 92.5522847,20 92,20 L92,20 L84,20 C83.4477153,20 83,19.5522847 83,19 C83,18.4477153 83.4477153,18 84,18 L84,18 Z M79.394892,17.0008363 C80.2529764,16.9729827 80.9719917,17.6443322 81.0029698,18.5023095 C81.0009131,19.317201 80.3492356,19.9816992 79.5345387,19.9996296 C78.7198419,20.0175599 78.0395602,19.3823763 78.0016536,18.5683643 C77.963747,17.7543522 78.5820546,17.0586964 79.394892,17.0008363 Z M83.1655048,11.1837334 C83.4086629,11.4193893 83.4147446,11.8075447 83.1790887,12.0507028 L83.1657953,12.064005 L83.1657953,12.064005 L79.9974405,15.1386641 L78.1861574,13.3814294 C77.9431689,13.1456917 77.937291,12.7576075 78.1730287,12.514619 L78.1855879,12.5020436 L78.1855879,12.5020436 C78.4374787,12.2570351 78.8385683,12.256849 79.0906863,12.5016238 L79.9957926,13.3803678 L82.2579102,11.1841371 C82.5106304,10.9387777 82.9125665,10.9385989 83.1655048,11.1837334 Z M92,13 C92.5522847,13 93,13.4477153 93,14 C93,14.5522847 92.5522847,15 92,15 L84,15 C83.4477153,15 83,14.5522847 83,14 C83,13.4477153 83.4477153,13 84,13 L92,13 Z"></path>
                        </g>
                    </g>
                </g>
            </g>
        </g>
    </g>
</svg>