<?xml version="1.0" encoding="UTF-8"?>
<svg width="15px" height="15px" viewBox="0 0 15 15" version="1.1" xmlns="http://www.w3.org/2000/svg" xmlns:xlink="http://www.w3.org/1999/xlink">
    <!-- Generator: sketchtool 63.1 (101010) - https://sketch.com -->
    <title>7F93E902-DFC8-46A3-BE41-A15EFF3869F4</title>
    <desc>Created with sketchtool.</desc>
    <g id="One-Rule-Multiple-Conditions" stroke="none" stroke-width="1" fill="none" fill-rule="evenodd">
        <g id="Administrator_Rule-Create_step-4" transform="translate(-623.000000, -570.000000)" fill="#004CFF" fill-rule="nonzero">
            <g id="Actions" transform="translate(179.000000, 376.000000)">
                <g transform="translate(348.000000, 1.000000)" id="Update-Fields">
                    <g transform="translate(6.000000, 186.000000)">
                        <g id="Update-fields">
                            <path d="M104.205069,21.1359447 C103.773041,21.1359447 103.410138,20.7730415 103.410138,20.3410138 L103.410138,19.1140553 C102.010369,20.9112903 99.8329493,22 97.5,22 C93.7327189,22 90.5357143,19.1831797 90.0691244,15.4331797 L90.0172811,15.0529954 L91.6071429,15.0529954 L91.6417051,15.3467742 C92.0737327,18.2327189 94.5794931,20.4101382 97.5,20.4101382 C99.5737327,20.4101382 101.509217,19.2868664 102.580645,17.5241935 L100.593318,17.5241935 C100.16129,17.5241935 99.7983871,17.1612903 99.7983871,16.7292627 C99.7983871,16.297235 100.16129,15.9343318 100.593318,15.9343318 L104.22235,15.9343318 C104.602535,15.9343318 105,16.1762673 105,16.7292627 L105,20.3410138 C105,20.7730415 104.637097,21.1359447 104.205069,21.1359447 Z M103.392857,13.9470046 L103.358295,13.6532258 C102.926267,10.7672811 100.420507,8.58986175 97.5,8.58986175 C95.4262673,8.58986175 93.4907834,9.71313364 92.4193548,11.4758065 L94.3894009,11.4758065 C94.8214286,11.4758065 95.1843318,11.8387097 95.1843318,12.2707373 C95.1843318,12.702765 94.8214286,13.0656682 94.3894009,13.0656682 L90.7949309,13.0656682 C90.4665899,13.0483871 90,12.8410138 90,12.2707373 L90,8.65898618 C90,8.22695853 90.3629032,7.8640553 90.7949309,7.8640553 C91.2269585,7.8640553 91.5898618,8.22695853 91.5898618,8.65898618 L91.5898618,9.8859447 C92.9896313,8.08870968 95.1670507,7 97.5,7 C101.267281,7 104.464286,9.81682028 104.930876,13.5668203 L104.982719,13.9470046 L103.392857,13.9470046 L103.392857,13.9470046 Z" id="ic_update"></path>
                        </g>
                    </g>
                </g>
            </g>
        </g>
    </g>
</svg>