<?xml version="1.0" encoding="UTF-8"?>
<svg width="14px" height="15px" viewBox="0 0 14 15" version="1.1" xmlns="http://www.w3.org/2000/svg" xmlns:xlink="http://www.w3.org/1999/xlink">
    <!-- Generator: sketchtool 63.1 (101010) - https://sketch.com -->
    <title>6ED7D039-4847-4A25-B313-554733633EA4</title>
    <desc>Created with sketchtool.</desc>
    <g id="One-Rule-Multiple-Conditions" stroke="none" stroke-width="1" fill="none" fill-rule="evenodd">
        <g id="Administrator_Rule-Create_step-4" transform="translate(-624.000000, -430.000000)" fill="#004FFF">
            <g id="Actions" transform="translate(179.000000, 376.000000)">
                <g transform="translate(348.000000, 1.000000)" id="Assign-User">
                    <g transform="translate(15.000000, 46.000000)">
                        <g transform="translate(0.179144, 0.000000)" id="ic_user">
                            <path d="M90.0691234,15.0772293 C93.2971186,15.0772293 95.831795,17.6144247 95.831795,20.845628 C95.831795,21.5379051 95.3718879,22 94.6802981,22 C93.9887084,22 93.5270722,21.5379051 93.5270722,20.845628 C93.5270722,18.8830225 92.0280514,17.3842426 90.0691234,17.3842426 L90.0691234,17.3842426 L87.7644006,17.3842426 C85.8054726,17.3842426 84.3064518,18.8830225 84.3064518,20.845628 C84.3064518,21.5379051 83.8448157,22 83.1532259,22 C82.4616362,22 82,21.5379051 82,20.845628 C82,17.6144247 84.5364054,15.0772293 87.7644006,15.0772293 L87.7644006,15.0772293 Z M86.4965437,8.03711759 C87.7638819,6.65429414 89.9544924,6.65429414 91.3376719,8.03711759 C92.0292617,8.61516894 92.3750566,9.53935884 92.3750566,10.461818 C92.3750566,11.3842772 92.0292617,12.1925107 91.3376719,12.8847878 C90.6460822,13.5770649 89.7245388,13.9232034 88.9171078,13.9232034 C88.1096768,13.9232034 87.1881334,13.5770649 86.4965437,12.8847878 C85.8049539,12.3067364 85.459159,11.3842772 85.459159,10.461818 C85.459159,9.53935884 85.8049539,8.61516894 86.4965437,8.03711759 Z M88.9171078,9.30744602 C88.6854252,9.30744602 88.3396304,9.42340243 88.1096768,9.65358455 C87.8797232,9.88549737 87.7638819,10.1156795 87.7638819,10.461818 C87.7638819,10.8079566 87.8797232,11.0381387 88.1096768,11.2700515 C88.5713129,11.7304158 89.2629027,11.7304158 89.7245388,11.2700515 C89.9544924,11.0381387 90.0686047,10.8079566 90.0686047,10.461818 C90.0686047,10.1156795 89.9544924,9.88549737 89.7245388,9.65358455 C89.4928563,9.42340243 89.1470614,9.30744602 88.9171078,9.30744602 Z"></path>
                        </g>
                    </g>
                </g>
            </g>
        </g>
    </g>
</svg>