<?xml version="1.0" encoding="UTF-8"?>
<svg width="30px" height="30px" viewBox="0 0 30 30" version="1.1" xmlns="http://www.w3.org/2000/svg" xmlns:xlink="http://www.w3.org/1999/xlink">
    <!-- Generator: Sketch 63.1 (92452) - https://sketch.com -->
    <title>Lead</title>
    <desc>Created with Sketch.</desc>
    <g id="Lead" stroke="none" stroke-width="1" fill="none" fill-rule="evenodd">
        <g id="ic_lead_C">
            <rect id="Rectangle" fill="#F5A623" x="0" y="0" width="30" height="30" rx="2"></rect>
            <path d="M17.4609948,11.64 C17.1707278,11.3300952 16.8421749,11.0625069 16.4841336,10.8444 C16.1550926,10.6729218 15.7923211,10.5849626 15.4250103,10.5876 C15.0588942,10.5618327 14.6965485,10.6784391 14.407018,10.9152 C14.153364,11.1883041 14.0246235,11.5633218 14.0539769,11.9436 C14.0483952,12.2691572 14.1862814,12.5791741 14.4275835,12.7836 C14.7062132,13.0396065 15.0130801,13.2595784 15.3416057,13.4388 C15.7152123,13.6488 16.110527,13.8588 16.5264071,14.0928 C16.9466539,14.3222154 17.3432976,14.596461 17.7100659,14.9112 C18.0818006,15.237181 18.3918616,15.6336694 18.6240882,16.08 C18.8846821,16.5967543 19.0137682,17.175447 18.9988373,17.76 C19.0186841,18.683026 18.7647427,19.5896901 18.2721896,20.3544 C17.7390289,21.1021913 16.9627933,21.6180955 16.091104,21.804 L16.091104,24 L14.2824824,24 L14.2824824,21.8964 C13.6868856,21.8144199 13.1059899,21.6409673 12.558408,21.3816 C11.9819877,21.1216749 11.4542719,20.7559599 11,20.3016 L12.2053669,18.2208 C12.6223291,18.5758791 13.0752075,18.8817176 13.5558347,19.1328 C13.9659987,19.3330124 14.4128755,19.4366312 14.8651716,19.4364 C15.2744819,19.4753589 15.6826647,19.350174 16.0076994,19.086 C16.277289,18.793305 16.413472,18.3926366 16.381306,17.9868 C16.3878799,17.6338012 16.2521956,17.2943059 16.0076994,17.052 C15.7318214,16.7741193 15.4249122,16.5323587 15.0936772,16.332 C14.7196897,16.0992 14.324756,15.8656 13.9088758,15.6312 C13.4880495,15.393764 13.0911055,15.1123388 12.7240745,14.7912 C12.3578553,14.4683654 12.0484795,14.0804704 11.8100522,13.6452 C11.549251,13.1611279 11.420017,12.6111319 11.4364456,12.0552 C11.4034843,11.1343752 11.6671422,10.2287814 12.1848014,9.4848 C12.7014478,8.79571769 13.4409903,8.32984248 14.2630595,8.1756 L14.2630595,6 L16.0705385,6 L16.0705385,8.1276 C16.6318456,8.21035324 17.1700324,8.41731495 17.6495119,8.7348 C18.1071175,9.04533105 18.5199631,9.42317632 18.8754443,9.8568 L17.4609948,11.64 Z" id="ic_lead" fill="#FFFFFF"></path>
        </g>
    </g>
</svg>