<?xml version="1.0" encoding="UTF-8"?>
<svg width="30px" height="30px" viewBox="0 0 30 30" version="1.1" xmlns="http://www.w3.org/2000/svg" xmlns:xlink="http://www.w3.org/1999/xlink">
    <!-- Generator: Sketch 63.1 (92452) - https://sketch.com -->
    <title>opportunity</title>
    <desc>Created with Sketch.</desc>
    <g id="opportunity" stroke="none" stroke-width="1" fill="none" fill-rule="evenodd">
        <rect id="Rectangle" fill="#2380F5" x="0" y="0" width="30" height="30" rx="2"></rect>
        <g id="ic_opportunity" transform="translate(8.000000, 7.000000)" fill="#FFFFFF">
            <g transform="translate(0.133333, 0.000000)">
                <path d="M7.18218982,12.587206 L7.18218982,13.2682887 C7.18218982,13.3191158 7.14109158,13.3597774 7.09146351,13.3597774 L6.48507053,13.3597774 C6.43466702,13.3597774 6.39356877,13.3191158 6.39356877,13.2682887 L6.39356877,12.6427248 C5.96475123,12.6161383 5.52585298,12.4902436 5.25444947,12.3158677 C5.22033018,12.2947549 5.20559684,12.2533113 5.21567754,12.2134316 L5.41263895,11.5151459 C5.42039333,11.4877774 5.44055474,11.4651008 5.46691965,11.4541534 C5.49483544,11.443988 5.52352667,11.4463338 5.5483407,11.4619729 C5.73987404,11.5769203 6.1368986,11.7716271 6.63860737,11.7716271 C7.05734421,11.7716271 7.32797228,11.582394 7.32797228,11.2899429 C7.32797228,11.0115669 7.12015474,10.8278075 6.58665298,10.6346647 C5.93373368,10.3938226 5.26453018,10.038815 5.26453018,9.23105564 C5.26453018,8.5609203 5.71273368,8.05499549 6.43854421,7.89782256 L6.43854421,7.26052932 C6.43854421,7.2089203 6.47964246,7.16747669 6.53004596,7.16747669 L7.12790912,7.16747669 C7.17831263,7.16747669 7.21863544,7.2089203 7.21863544,7.26052932 L7.21863544,7.8485594 C7.67691965,7.87749173 7.98166702,8.00729624 8.17552667,8.10425865 C8.21507404,8.12380752 8.23446,8.16994286 8.22205298,8.21295038 L8.02431614,8.88934135 C8.01733719,8.91514586 7.99795123,8.93625865 7.97391263,8.94876992 C7.9490986,8.95893534 7.92118281,8.95737143 7.89636877,8.94564211 C7.70483544,8.8486797 7.40629158,8.69776241 6.94568105,8.69776241 C6.56804246,8.69776241 6.3439407,8.85649925 6.3439407,9.1208 C6.3439407,9.35538647 6.55330912,9.51490526 7.17521088,9.75574737 C8.03982491,10.0826045 8.40893368,10.5173714 8.40893368,11.2094015 C8.40815825,11.8998677 7.92893719,12.4339429 7.18218982,12.587206 M6.82858982,5.95310075 C5.15364246,6.01487519 4.66821789,5.39634887 4.57051263,5.43153684 C2.09143544,6.30028872 7.75438596e-05,8.85180752 7.75438596e-05,11.4377323 C7.75438596e-05,14.7649504 1.88284246,15.6391759 7.11860386,15.6391759 C12.3543653,15.6391759 14.2371302,14.7430556 14.2371302,11.4377323 C14.2371302,8.65710075 11.6890389,5.99376241 9.06883193,5.24230376 C8.93002842,5.20242406 8.68188807,5.88585263 6.82858982,5.95310075" id="Fill-4"></path>
                <path d="M4.66240211,4.55684211 C4.8632407,4.91732331 6.15201965,5.09795489 6.78400211,5.07449624 C7.41520912,5.0526015 8.70708982,4.76640602 8.65901263,4.21981955 C8.57061263,3.20640602 9.18165825,1.85206015 9.30262667,1.66439098 C9.5484407,1.28123308 9.56782667,0.482857143 8.53028982,0.862887218 C8.28757754,0.952030075 7.71452842,1.55257143 7.4710407,0.840992481 C7.03369333,-0.439067669 6.01864421,-0.0840601504 5.79454246,0.751849624 C5.63945474,1.33049624 5.02143018,1.37428571 4.31578105,1.30781955 C3.48916351,1.22962406 3.38292842,1.75118797 3.65820912,2.19377444 C3.80476702,2.42757895 4.4313214,4.14396992 4.66240211,4.55684211" id="Fill-1"></path>
            </g>
        </g>
    </g>
</svg>